<?xml version="1.0" encoding="UTF-8"?>
<svg width="24px" height="24px" viewBox="0 0 24 24" version="1.1" xmlns="http://www.w3.org/2000/svg" xmlns:xlink="http://www.w3.org/1999/xlink">
    <title>icons/functional_UI/A-E/mdpi/ic_Alarm_clock</title>
    <g id="icons/functional_UI/A-E/ic_Alarm_clock" stroke="none" stroke-width="1" fill="none" fill-rule="evenodd">
        <path d="M21.585408,4.45797597 L19.056744,2.24543996 C18.3085946,1.5908174 17.1714234,1.66663526 16.5168,2.41478396 L15.024,4.12079997 C13.0677883,3.42644212 10.9322117,3.42644212 8.97599999,4.12079997 L7.48319998,2.41478396 C6.8285766,1.66663526 5.69140538,1.5908174 4.94325597,2.24543996 L2.41459196,4.45797597 C1.66646619,5.11260413 1.59065963,6.24975636 2.24527196,6.99789598 L3.83325597,8.81279999 C2.26059547,12.2100223 2.95320358,16.225848 5.57299197,18.9 L4.36079997,20.999808 C4.14301871,21.3712925 4.14098,21.8309874 4.35545774,22.2043889 C4.56993547,22.5777905 4.9680439,22.8076452 5.39865801,22.8067015 C5.82927212,22.8057519 6.22636608,22.574149 6.43919998,22.199808 L7.48559998,20.387328 C10.2780872,22.0040192 13.7219128,22.0040192 16.5144,20.387328 L17.5608,22.199808 C17.8944069,22.7688644 18.6247765,22.9619624 19.1960332,22.6321375 C19.7672899,22.3023126 19.9652284,21.57324 19.6392,20.999808 L18.427008,18.9 C21.0467964,16.225848 21.7394045,12.2100223 20.166744,8.81279999 L21.754728,6.99799198 C22.0691142,6.63871721 22.2278966,6.16926467 22.1961427,5.69291531 C22.1643888,5.21656596 21.9446998,4.77234269 21.585408,4.45797597 Z M12,19.799832 C8.02351198,19.799832 4.79999997,16.57632 4.79999997,12.599832 C4.79999997,8.62334399 8.02351198,5.39999997 12,5.39999997 C15.976488,5.39999997 19.2,8.62351199 19.2,12.6 C19.2,16.576488 15.976512,19.799832 12,19.799832 Z M15.636456,14.963496 L12.864,12.191136 L12.864,7.19999998 C12.864,6.70957112 12.4664289,6.31199998 11.976,6.31199998 C11.4855711,6.31199998 11.0879997,6.70957112 11.0879997,7.19999998 L11.0879997,12.6 C11.0877749,12.8678944 11.2087595,13.1215095 11.417112,13.289904 L14.36364,16.236264 C14.7151637,16.5874013 15.284733,16.58725 15.6360701,16.2359261 C15.9874073,15.8846022 15.98758,15.3150329 15.636456,14.963496 Z" fill="#000000"></path>
    </g>
</svg>