<?xml version="1.0" encoding="UTF-8"?>
<svg width="24px" height="24px" viewBox="0 0 24 24" version="1.1" xmlns="http://www.w3.org/2000/svg" xmlns:xlink="http://www.w3.org/1999/xlink">
    <title>icons/functional_UI/A-E/mdpi/ic_Add_person</title>
    <g id="icons/functional_UI/A-E/ic_Add_person" stroke="none" stroke-width="1" fill="none" fill-rule="evenodd">
        <path d="M12,10.44 C14.3858701,10.44 16.32,8.5058701 16.32,6.11999998 C16.32,3.73412985 14.3858701,1.79999996 12,1.79999996 C9.61412987,1.79999996 7.67999998,3.73412985 7.67999998,6.11999998 C7.67999998,8.5058701 9.61412987,10.44 12,10.44 Z M15.7848,10.137816 C13.6591681,12.1406499 10.3411735,12.140734 8.21543998,10.138008 C6.51734565,11.0634832 5.44397692,12.8265504 5.40153597,14.76 L5.39999997,14.76 L5.39999997,19.8 C5.39999997,21.1254834 6.47451658,22.2 7.79999998,22.2 L18.6000003,22.2 L18.6000003,14.88 C18.6006591,12.9030531 17.520693,11.083858 15.7848,10.137816 Z M17.4,18.96 C17.4,19.0925484 17.2925484,19.2 17.16,19.2 L15.6,19.2 L15.6,20.76 C15.6,20.8925484 15.4925484,21 15.36,21 L14.64,21 C14.5074517,21 14.4,20.8925484 14.4,20.76 L14.4,19.2 L12.84,19.2 C12.7074517,19.2 12.6,19.0925484 12.6,18.96 L12.6,18.24 C12.6,18.1074517 12.7074517,18 12.84,18 L14.4,18 L14.4,16.44 C14.4,16.3074517 14.5074517,16.2 14.64,16.2 L15.36,16.2 C15.4925484,16.2 15.6,16.3074517 15.6,16.44 L15.6,18 L17.16,18 C17.2925484,18 17.4,18.1074517 17.4,18.24 L17.4,18.96 Z" fill="#000000"></path>
    </g>
</svg>