<?xml version="1.0" encoding="UTF-8"?>
<svg width="24px" height="24px" viewBox="0 0 24 24" version="1.1" xmlns="http://www.w3.org/2000/svg" xmlns:xlink="http://www.w3.org/1999/xlink">
    <title>icons/functional_UI/A-E/mdpi/ic_Archive</title>
    <g id="icons/functional_UI/A-E/ic_Archive" stroke="none" stroke-width="1" fill="none" fill-rule="evenodd">
        <path d="M19.2,2.99999996 L2.99999996,2.99999996 L2.99999996,19.2 C2.99999996,20.1941126 3.80588742,21 4.79999997,21 L21,21 L21,4.79999997 C21,3.80588742 20.1941126,2.99999996 19.2,2.99999996 Z M19.2,18 C19.2,18.6627417 18.6627417,19.2 18,19.2 L5.99999997,19.2 C5.33725827,19.2 4.79999997,18.6627417 4.79999997,18 L4.79999997,13.8 C4.79999997,13.1372583 5.33725827,12.6 5.99999997,12.6 L18,12.6 C18.6627417,12.6 19.2,13.1372583 19.2,13.8 L19.2,18 Z M19.2,10.2 C19.2,10.8627417 18.6627417,11.4 18,11.4 L5.99999997,11.4 C5.33725827,11.4 4.79999997,10.8627417 4.79999997,10.2 L4.79999997,5.99999997 C4.79999997,5.33725827 5.33725827,4.79999997 5.99999997,4.79999997 L18,4.79999997 C18.6627417,4.79999997 19.2,5.33725827 19.2,5.99999997 L19.2,10.2 Z M18,5.39999997 L5.99999997,5.39999997 C5.66878265,5.40037031 5.40037031,5.66878265 5.39999997,5.99999998 L5.39999997,10.2 C5.40037031,10.5312173 5.66878265,10.7996297 5.99999998,10.8 L18,10.8 C18.3312174,10.7996297 18.5996297,10.5312173 18.6,10.2 L18.6,5.99999998 C18.5996297,5.66878265 18.3312174,5.40037031 18,5.39999997 Z M13.8,8.39999999 C13.8,8.73137084 13.5313709,8.99999999 13.2,8.99999999 L10.8,8.99999999 C10.4686291,8.99999999 10.2,8.73137084 10.2,8.39999999 L10.2,7.79999998 C10.2,7.46862913 10.4686291,7.19999998 10.8,7.19999998 L13.2,7.19999998 C13.5313709,7.19999998 13.8,7.46862913 13.8,7.79999998 L13.8,8.39999999 Z M18,13.2 L5.99999997,13.2 C5.66878265,13.2003703 5.40037031,13.4687827 5.39999997,13.8 L5.39999997,18 C5.40037031,18.3312174 5.66878265,18.5996297 5.99999998,18.6 L18,18.6 C18.3312174,18.5996297 18.5996297,18.3312174 18.6,18 L18.6,13.8 C18.5996297,13.4687827 18.3312174,13.2003703 18,13.2 L18,13.2 Z M13.8,16.2 C13.8,16.5313709 13.5313709,16.8 13.2,16.8 L10.8,16.8 C10.4686291,16.8 10.2,16.5313709 10.2,16.2 L10.2,15.6 C10.2,15.2686292 10.4686291,15 10.8,15 L13.2,15 C13.5313709,15 13.8,15.2686292 13.8,15.6 L13.8,16.2 Z" fill="#000000"></path>
    </g>
</svg>