<?xml version="1.0" encoding="UTF-8"?>
<svg width="24px" height="24px" viewBox="0 0 24 24" version="1.1" xmlns="http://www.w3.org/2000/svg" xmlns:xlink="http://www.w3.org/1999/xlink">
    <title>icons/functional_UI/A-E/mdpi/ic_Add</title>
    <g id="icons/functional_UI/A-E/ic_Add" stroke="none" stroke-width="1" fill="none" fill-rule="evenodd">
        <path d="M20.4,9.59999999 L14.4,9.59999999 L14.4,3.59999996 C14.4,2.93725826 13.8627417,2.39999996 13.2,2.39999996 L10.8,2.39999996 C10.1372583,2.39999996 9.59999999,2.93725826 9.59999999,3.59999996 L9.59999999,9.59999999 L3.59999996,9.59999999 C2.93725826,9.59999999 2.39999996,10.1372583 2.39999996,10.8 L2.39999996,13.2 C2.39999996,13.8627417 2.93725826,14.4 3.59999996,14.4 L9.59999999,14.4 L9.59999999,20.4 C9.59999999,21.0627417 10.1372583,21.6 10.8,21.6 L13.2,21.6 C13.8627417,21.6 14.4,21.0627417 14.4,20.4 L14.4,14.4 L20.4,14.4 C21.0627417,14.4 21.6,13.8627417 21.6,13.2 L21.6,10.8 C21.6,10.1372583 21.0627417,9.59999999 20.4,9.59999999 Z" fill="#000000"></path>
    </g>
</svg>