<?xml version="1.0" encoding="UTF-8"?>
<svg width="24px" height="24px" viewBox="0 0 24 24" version="1.1" xmlns="http://www.w3.org/2000/svg" xmlns:xlink="http://www.w3.org/1999/xlink">
    <title>icons/functional_UI/A-E/mdpi/ic_Adventure</title>
    <g id="icons/functional_UI/A-E/ic_Adventure" stroke="none" stroke-width="1" fill="none" fill-rule="evenodd">
        <path d="M5.26850397,3.16219196 C5.03428092,2.92800352 4.65456702,2.92800352 4.42034397,3.16219196 L4.42034397,3.16219196 C3.48639697,4.10026365 3.48639697,5.61680829 4.42034397,6.55487998 L14.231136,16.3656 C14.3873702,16.5218631 14.3873702,16.7751849 14.231136,16.931448 L13.640544,17.522016 C13.4212257,17.7426122 13.4212257,18.0989159 13.640544,18.319512 L14.039304,18.718272 L15.311568,17.446032 L15.311568,17.446032 L15.414768,17.342832 C15.4998776,17.2577057 15.615321,17.2098808 15.735696,17.2098808 C15.856071,17.2098808 15.9715144,17.2577057 16.056624,17.342832 L19.552392,20.838768 C19.7870129,21.0719939 20.1659311,21.0719939 20.400552,20.838768 L20.824632,20.414688 C21.0578869,20.1800697 21.0578869,19.8011223 20.824632,19.566504 L17.328816,16.070688 C17.1515742,15.8934436 17.1515742,15.6060764 17.328816,15.428832 L18.704232,14.053416 L18.305472,13.65468 C18.0848622,13.435372 17.7285618,13.435372 17.507952,13.65468 L16.917384,14.245248 C16.7611209,14.4014822 16.5077991,14.4014822 16.351536,14.245248 L5.26850397,3.16219196 L5.26850397,3.16219196 Z M15.873336,15.289392 L15.275184,15.887568 C15.0890371,16.0737058 14.787243,16.0737058 14.601096,15.887568 L4.84442397,6.13077598 C4.14468071,5.42694034 4.14468071,4.2901316 4.84442397,3.58629596 L4.84442397,3.58629596 L15.873336,14.615208 C16.0594738,14.801355 16.0594738,15.1031491 15.873336,15.289296 L15.873336,15.289392 Z M9.38476799,15.8736 C9.29538405,15.9629912 9.17414907,16.0132112 9.04773599,16.0132112 C8.9213229,16.0132112 8.80008793,15.9629912 8.71070399,15.8736 L8.11252798,15.275448 C7.92639024,15.0893011 7.92639024,14.787507 8.11252798,14.60136 L9.84532799,12.86856 L9.42124799,12.44448 L7.63439998,14.231376 C7.4781369,14.3876102 7.22481506,14.3876102 7.06855198,14.231376 L6.47798398,13.640808 C6.25738501,13.4214738 5.90106294,13.4214738 5.68046397,13.640808 L5.28172797,14.039544 L6.55396798,15.311808 L6.55396798,15.311808 L6.65716798,15.415008 C6.83440981,15.5922524 6.83440981,15.8796196 6.65716798,16.056864 L3.16123196,19.552632 C2.92800608,19.7872529 2.92800608,20.1661711 3.16123196,20.400792 L3.58531196,20.824872 C3.81993025,21.0581269 4.19887768,21.0581269 4.43349597,20.824872 L7.92931198,17.329056 C8.10655637,17.1518142 8.3939236,17.1518142 8.57116799,17.329056 L9.94655999,18.704472 L10.34532,18.305712 C10.5646383,18.0851159 10.5646383,17.7288122 10.34532,17.508216 L9.75475199,16.9176 C9.6797132,16.8425653 9.63755649,16.740794 9.63755649,16.634676 C9.63755649,16.528558 9.6797132,16.4267867 9.75475199,16.351752 L11.541744,14.56476 L11.117664,14.14068 L9.38476799,15.8736 Z M20.837784,4.42058397 C19.899726,3.48662659 18.3831781,3.48662659 17.44512,4.42058397 L12.374856,9.49084799 L12.798936,9.91492799 L17.8692,4.84466397 C18.5730439,4.14491792 19.7098602,4.14491792 20.413704,4.84466397 L20.413704,4.84466397 L14.0712,11.187192 L14.49528,11.611272 L20.837784,5.26874397 C20.9502579,5.15627144 21.0134453,5.00372513 21.0134453,4.84466397 C21.0134453,4.68560281 20.9502579,4.5330565 20.837784,4.42058397 L20.837784,4.42058397 Z M8.97525599,15.005496 L8.97525599,15.005496 C9.09256644,15.122109 9.28202554,15.122109 9.39933599,15.005496 L10.690896,13.713936 L10.266816,13.289832 L8.97525599,14.581416 C8.85864305,14.6987265 8.85864305,14.8881856 8.97525599,15.005496 Z M18.183456,6.22137598 C17.948846,5.98812385 17.5699061,5.98812385 17.335296,6.22137598 L13.220328,10.33632 L13.644408,10.760424 L18.183456,6.22137598 Z M14.976552,15.005496 L14.976552,15.005496 C14.8592416,15.122109 14.6697825,15.122109 14.552472,15.005496 L6.19243198,6.64545598 C5.95920609,6.41083508 5.95920609,6.03191687 6.19243198,5.79729597 L6.19243198,5.79729597 L14.976552,14.581416 C15.0931912,14.6987156 15.0931912,14.8881964 14.976552,15.005496 Z" fill="#000000"></path>
    </g>
</svg>