<svg width="24" height="24"><path d="M9.593 20.962c-.497-.085-.94-.35-1.19-.712-.191-.277-.208-.338-.185-.662q.045-.615.599-.795c.246-.08.405-.03.958.298.445.263.735.267 1.247.015q.382-.188.821-.643c.512-.53.713-.815 1.58-2.229.783-1.277 1.026-1.592 2.002-2.595 1.271-1.305 1.562-1.844 1.726-3.202.183-1.519-.345-2.95-1.515-4.103-.783-.77-1.398-1.122-2.464-1.408-.617-.166-1.83-.15-2.475.033-1.843.521-3.406 1.98-3.723 3.475-.122.579-.136.606-.349.693-.292.119-1.215.05-1.429-.106-.216-.159-.254-.532-.11-1.09.218-.85.755-1.738 1.538-2.545C8.18 3.782 10.35 2.88 12.328 3.013c2.701.183 4.826 1.487 5.92 3.631.537 1.052.752 1.998.752 3.318 0 1.975-.541 3.172-2.271 5.018-1.617 1.725-1.722 1.867-2.705 3.66-.478.874-1.16 1.588-1.802 1.887-.803.374-1.914.558-2.63.435m4.167-8.969c-.255-.091-.445-.193-.428-.23.668-1.419.768-2.448.302-3.103-.441-.62-1.547-.863-2.274-.5-.324.162-.97.74-1.235 1.106l-.126.172-.528-.093c-.291-.052-.542-.106-.558-.122-.055-.055.181-.647.372-.93.29-.43.842-.882 1.431-1.17.497-.244.566-.26 1.17-.282.764-.028 1.214.053 1.748.316 1.534.753 2.01 2.689 1.098 4.459-.186.36-.303.52-.39.529-.068.007-.33-.061-.582-.152"/></svg>