<?xml version="1.0" encoding="UTF-8"?>
<svg width="24px" height="24px" viewBox="0 0 24 24" version="1.1" xmlns="http://www.w3.org/2000/svg" xmlns:xlink="http://www.w3.org/1999/xlink">
    <title>icons/functional_UI/A-E/mdpi/ic_Accessory_shop</title>
    <g id="icons/functional_UI/A-E/ic_Accessory_shop" stroke="none" stroke-width="1" fill="none" fill-rule="evenodd">
        <path d="M16.2,5.99999997 L16.2,5.99807997 C16.19904,3.68903997 14.30928,1.79999996 12,1.79999996 C9.68999999,1.79999996 7.79999998,3.68999997 7.79999998,5.99999997 L4.19999997,5.99999997 L4.19999997,20.4 C4.19999997,21.3941126 5.00588742,22.2 5.99999997,22.2 L18,22.2 C18.9941126,22.2 19.8,21.3941126 19.8,20.4 L19.8,5.99999997 L16.2,5.99999997 Z M9.88223999,3.88223997 C10.7401054,3.02724022 12.0279486,2.77195918 13.1470944,3.23506847 C14.2662402,3.69817776 14.997131,4.78882314 14.9999994,5.99999997 L8.99999943,5.99999997 C8.99951345,5.20459779 9.31718686,4.44204334 9.88223999,3.88223997 L9.88223999,3.88223997 Z M7.19999983,8.39999999 C7.19978289,7.97123111 7.42856125,7.57498698 7.79999998,7.36079998 L7.79999998,8.39999999 C7.79999998,8.73137084 8.06862913,8.99999999 8.39999999,8.99999999 C8.73137084,8.99999999 8.99999999,8.73137084 8.99999999,8.39999999 L8.99999999,7.36079998 C9.50433526,7.65197809 9.72680985,8.26323004 9.52762766,8.81046419 C9.32844547,9.35769834 8.76510936,9.68293106 8.19160216,9.58179625 C7.61809496,9.48066144 7.19999983,8.9823562 7.19999983,8.39999999 Z M8.15999998,18.78 C7.79183998,18.44832 7.55999998,17.9364 7.55999998,17.4 C7.55999998,16.8636 7.79183998,16.41168 8.15999998,16.08 L8.15999998,18.78 Z M15.6,18.95904 C15.24,19.2 14.64048,19.2 14.64,19.2 C14.3086292,19.2 14.04,18.9313709 14.04,18.6 L14.04,16.2 C14.0392036,16.0406273 14.1021619,15.8875518 14.2148568,15.7748568 C14.3275518,15.6621619 14.4806273,15.5992036 14.64,15.6 L15,15.6 L15,14.4 C15.0006569,14.0002454 14.9202361,13.6045098 14.7636,13.23672 C14.4565242,12.5168459 13.8831541,11.9434758 13.16328,11.6364 C12.4197872,11.3212003 11.5802128,11.3212003 10.83672,11.6364 C10.1168459,11.9434758 9.54347579,12.5168459 9.23639999,13.23672 C9.07976391,13.6045098 8.99934312,14.0002454 8.99999999,14.4 L8.99999999,15.6 L9.35999999,15.6 C9.69137084,15.6 9.95999999,15.8686292 9.95999999,16.2 L9.95999999,18.6 C9.95999999,18.9313709 9.69137084,19.2 9.35999999,19.2 C9.35951999,19.2 8.75999999,19.2 8.39999999,18.95904 L8.39999999,14.4 C8.39999999,12.42 10.02,10.8 12,10.8 C13.98,10.8 15.6,12.42 15.6,14.4 L15.6,18.95904 Z M15.84,18.768 L15.84,16.08 C16.20816,16.41024 16.44,16.866 16.44,17.4 C16.44,17.934 16.20816,18.43776 15.84,18.768 Z M15.6,9.59999999 C15.0568943,9.5999761 14.5815107,9.2351861 14.4409429,8.71058679 C14.300375,8.18598747 14.5296705,7.63237671 15,7.36079998 L15,8.39999999 C15,8.73137084 15.2686292,8.99999999 15.6,8.99999999 C15.9313709,8.99999999 16.2,8.73137084 16.2,8.39999999 L16.2,7.36079998 C16.6703295,7.63237671 16.899625,8.18598747 16.7590572,8.71058679 C16.6184893,9.2351861 16.1431057,9.5999761 15.6,9.59999999 Z" fill="#000000"></path>
    </g>
</svg>