<?xml version="1.0" encoding="UTF-8"?>
<svg width="24px" height="24px" viewBox="0 0 24 24" version="1.1" xmlns="http://www.w3.org/2000/svg" xmlns:xlink="http://www.w3.org/1999/xlink">
    <title>icons/functional_UI/A-E/mdpi/ic_Android_manage</title>
    <g id="icons/functional_UI/A-E/ic_Android_manage" stroke="none" stroke-width="1" fill="none" fill-rule="evenodd">
        <path d="M13.317456,7.42319998 C13.155273,7.42319998 13.0090552,7.52088203 12.9469882,7.67071863 C12.8849212,7.82055523 12.9192292,7.99302642 13.0339133,8.10770366 C13.1485974,8.22238091 13.3210707,8.25667858 13.4709035,8.19460263 C13.6207364,8.13252668 13.7184194,7.98630295 13.7184,7.82411998 C13.7183868,7.6026941 13.5388819,7.42319998 13.317456,7.42319998 L13.317456,7.42319998 Z M12,1.79999996 C6.36669598,1.79999996 1.79999996,6.36669598 1.79999996,12 C1.79999996,17.633304 6.36669598,22.2 12,22.2 C17.633304,22.2 22.2,17.633304 22.2,12 C22.2,6.36669598 17.633304,1.79999996 12,1.79999996 Z M7.60166398,13.788744 C7.60166398,14.245608 7.23686398,14.616 6.78717598,14.616 C6.33748798,14.616 6.04341598,14.245608 6.04341598,13.788744 L6.04341598,10.555944 C6.04341598,10.099152 6.33739198,9.72880799 6.78717598,9.72880799 C7.23695998,9.72880799 7.60166398,10.099152 7.60166398,10.555944 L7.60166398,13.788744 Z M10.0206,6.69359998 L9.35114399,5.72159997 C9.32259867,5.68823382 9.31557362,5.64151305 9.33304453,5.60122779 C9.35051543,5.56094252 9.38942491,5.53414263 9.43329156,5.53218009 C9.47715822,5.53021754 9.51830545,5.55343579 9.53930399,5.59199997 L10.234656,6.60146398 C11.2021742,6.22655177 12.2748418,6.22655177 13.24236,6.60146398 L13.937808,5.59199997 C13.9587969,5.55342583 13.9999463,5.53019866 14.043817,5.5321622 C14.0876877,5.53412574 14.1265976,5.56093615 14.1440565,5.60123111 C14.1615153,5.64152607 14.154466,5.68824954 14.125896,5.72159997 L13.456416,6.69359998 C14.520744,7.18874398 15.26724,8.16491998 15.362232,9.26303999 L8.11480798,9.26303999 C8.20979998,8.16479998 8.95624799,7.18862398 10.0206,6.69359998 Z M15.378384,15.66 C15.378384,16.010784 15.05964,16.294584 14.708784,16.294584 L13.983144,16.294584 L13.983144,18.093144 C13.983144,18.550008 13.652856,18.920904 13.203144,18.920904 C12.753432,18.920904 12.4248,18.550584 12.4248,18.0936 L12.4248,16.295112 L11.089104,16.29456 L11.089104,18.09312 C11.089104,18.549984 10.756008,18.920904 10.306176,18.920904 C9.85634399,18.920904 9.53085599,18.550584 9.53085599,18.093648 L9.53085599,16.295112 L8.76611999,16.295112 C8.41534018,16.2951253 8.13093598,16.0107798 8.13093598,15.66 L8.13093598,9.78239999 L15.378384,9.78239999 L15.378384,15.66 Z M17.39652,13.788768 C17.39652,14.245632 17.100576,14.616024 16.650696,14.616024 C16.200816,14.616024 15.838224,14.245632 15.838224,13.788768 L15.838224,10.555968 C15.838224,10.099176 16.200912,9.72883199 16.650696,9.72883199 C17.10048,9.72883199 17.39652,10.099176 17.39652,10.555968 L17.39652,13.788768 Z M10.2096,7.42319998 C9.98815773,7.42321324 9.80865599,7.60273372 9.80865599,7.82417598 C9.80865599,8.04561825 9.98817373,8.22513598 10.209616,8.22513598 C10.4310583,8.22513598 10.6105787,8.04563425 10.610592,7.82419198 C10.6105655,7.60274119 10.4310508,7.42322648 10.2096,7.42319998 Z" fill="#000000"></path>
    </g>
</svg>