<?xml version="1.0" encoding="UTF-8"?>
<svg width="24px" height="24px" viewBox="0 0 24 24" version="1.1" xmlns="http://www.w3.org/2000/svg" xmlns:xlink="http://www.w3.org/1999/xlink">
    <title>icons/functional_UI/A-E/mdpi/ic_Adult_code</title>
    <g id="icons/functional_UI/A-E/ic_Adult_code" stroke="none" stroke-width="1" fill="none" fill-rule="evenodd">
        <path d="M17.4,10.2 L8.99999999,10.2 L8.99999999,5.99999998 C8.99999999,4.34314572 10.3431457,2.99999996 12,2.99999996 C13.6568543,2.99999996 15,4.34314572 15,5.99999997 L15,8.99999999 L16.8,8.99999999 L16.8,5.99999998 C16.8,3.35999996 14.64,1.19999995 12,1.19999995 C9.35999999,1.19999995 7.19999998,3.35999996 7.19999998,5.99999998 L7.19999998,10.2 L4.79999997,10.2 L4.79999997,21 C4.79999997,21.9941126 5.60588742,22.8 6.59999998,22.8 L19.2,22.8 L19.2,12 C19.2,11.0058874 18.3941126,10.2 17.4,10.2 L17.4,10.2 Z M8.50487999,16.60056 C8.73527999,16.92672 8.96215999,17.2552 9.18551999,17.586 C9.47111999,18.01008 9.24047999,18.52776 8.73335999,18.59352 C8.48423999,18.62592 8.28599998,18.5196 8.14247998,18.318 C8.00639998,18.12768 7.87559998,17.93328 7.74215998,17.7408 C7.71671998,17.70408 7.69007998,17.66784 7.65599998,17.62008 C7.48559998,17.86488 7.32671998,18.10104 7.15943998,18.33144 C6.95015998,18.61968 6.57287998,18.68184 6.27623998,18.48936 C6.05543998,18.34584 5.87735997,17.94504 6.11831998,17.59536 C6.32279998,17.29872 6.52679998,17.00184 6.73031998,16.70472 C6.77903998,16.63344 6.86087998,16.55928 6.86039998,16.4868 C6.85991998,16.41384 6.77711998,16.3404 6.72839998,16.26864 C6.52343998,15.96864 6.31815998,15.66904 6.11255998,15.36984 C5.83271997,14.96328 6.12167998,14.48784 6.45719998,14.4012 C6.73223998,14.33016 7.00103998,14.41824 7.16663998,14.65248 C7.31039998,14.85576 7.45031998,15.06216 7.59215998,15.26688 C7.61063998,15.29352 7.63055998,15.31944 7.65647998,15.35472 C7.68335998,15.31728 7.70615998,15.28728 7.72751998,15.25632 C7.86431998,15.0588 7.99703998,14.85864 8.13815998,14.66448 C8.29319998,14.45136 8.50439999,14.34072 8.77175999,14.38584 C9.03911999,14.43096 9.21575999,14.59368 9.28919999,14.85408 C9.34463999,15.05088 9.29615999,15.2328 9.18095999,15.39936 C8.95559999,15.72528 8.73335999,16.05336 8.50391999,16.3764 C8.44535999,16.45872 8.44751999,16.51968 8.50487999,16.60056 Z M12.82488,16.60056 C13.05528,16.92672 13.28216,17.2552 13.50552,17.586 C13.79112,18.01008 13.56048,18.52776 13.05336,18.59352 C12.80424,18.62592 12.606,18.5196 12.46248,18.318 C12.3264,18.12768 12.1956,17.93328 12.06216,17.7408 C12.03672,17.70408 12.01008,17.66784 11.976,17.62008 C11.8056,17.86488 11.64672,18.10104 11.47944,18.33144 C11.27016,18.61968 10.89288,18.68184 10.59624,18.48936 C10.37544,18.34584 10.19736,17.94504 10.43832,17.59536 C10.6428,17.29872 10.8468,17.00184 11.05032,16.70472 C11.09904,16.63344 11.18088,16.55928 11.1804,16.4868 C11.17992,16.41384 11.09712,16.3404 11.0484,16.26864 C10.84344,15.96864 10.63816,15.66904 10.43256,15.36984 C10.15272,14.96328 10.44168,14.48784 10.7772,14.4012 C11.05224,14.33016 11.32104,14.41824 11.48664,14.65248 C11.6304,14.85576 11.77032,15.06216 11.91216,15.26688 C11.93064,15.29352 11.95056,15.31944 11.97648,15.35472 C12.00336,15.31728 12.02616,15.28728 12.04752,15.25632 C12.18432,15.0588 12.31704,14.85864 12.45816,14.66448 C12.6132,14.45136 12.8244,14.34072 13.09176,14.38584 C13.35912,14.43096 13.53576,14.59368 13.6092,14.85408 C13.66464,15.05088 13.61616,15.2328 13.50096,15.39936 C13.2756,15.72528 13.05336,16.05336 12.82392,16.3764 C12.76536,16.45872 12.76752,16.51968 12.82488,16.60056 Z M17.19288,16.60056 C17.42328,16.92672 17.65016,17.2552 17.87352,17.586 C18.15912,18.01008 17.92848,18.52776 17.42136,18.59352 C17.17224,18.62592 16.974,18.5196 16.83048,18.318 C16.6944,18.12768 16.5636,17.93328 16.43016,17.7408 C16.40472,17.70408 16.37808,17.66784 16.344,17.62008 C16.1736,17.86488 16.01472,18.10104 15.84744,18.33144 C15.63816,18.61968 15.26088,18.68184 14.96424,18.48936 C14.74344,18.34584 14.56536,17.94504 14.80632,17.59536 C15.0108,17.29872 15.2148,17.00184 15.41832,16.70472 C15.46704,16.63344 15.54888,16.55928 15.5484,16.4868 C15.54792,16.41384 15.46512,16.3404 15.4164,16.26864 C15.21144,15.96864 15.00616,15.66904 14.80056,15.36984 C14.52072,14.96328 14.80968,14.48784 15.1452,14.4012 C15.42024,14.33016 15.68904,14.41824 15.85464,14.65248 C15.9984,14.85576 16.13832,15.06216 16.28016,15.26688 C16.29864,15.29352 16.31856,15.31944 16.34448,15.35472 C16.37136,15.31728 16.39416,15.28728 16.41552,15.25632 C16.55232,15.0588 16.68504,14.85864 16.82616,14.66448 C16.9812,14.45136 17.1924,14.34072 17.45976,14.38584 C17.72712,14.43096 17.90376,14.59368 17.9772,14.85408 C18.03264,15.05088 17.98416,15.2328 17.86896,15.39936 C17.6436,15.72528 17.42136,16.05336 17.19192,16.3764 C17.13336,16.45872 17.13552,16.51968 17.19288,16.60056 Z" fill="#000000"></path>
    </g>
</svg>