<?xml version="1.0" encoding="UTF-8"?>
<svg width="24px" height="24px" viewBox="0 0 24 24" version="1.1" xmlns="http://www.w3.org/2000/svg" xmlns:xlink="http://www.w3.org/1999/xlink">
    <title>icons/functional_UI/A-E/mdpi/ic_Address_Book</title>
    <g id="icons/functional_UI/A-E/ic_Address_Book" stroke="none" stroke-width="1" fill="none" fill-rule="evenodd">
        <path d="M19.2,2.40040796 L4.79999997,2.39999996 L4.79999997,5.40016797 L4.19999997,5.40016797 C3.53758964,5.40016797 3.00059996,5.93715765 3.00059996,6.59956798 C3.00059996,7.26197831 3.53758964,7.79896798 4.19999997,7.79896798 L4.79999997,7.79896798 L4.79999997,10.800168 L4.19999997,10.800168 C3.76792791,10.7950554 3.36647104,11.0226333 3.14894566,11.3959899 C2.93142027,11.7693464 2.93142027,12.2308216 3.14894566,12.6041781 C3.36647104,12.9775347 3.76792791,13.2051126 4.19999997,13.2 L4.79999997,13.2 L4.79999997,16.19964 L4.19999997,16.19964 C3.53704619,16.19964 2.99961596,16.7370702 2.99961596,17.400024 C2.99961596,18.0629778 3.53704619,18.600408 4.19999997,18.600408 L4.79999997,18.600408 L4.79999997,19.804272 C4.80029648,20.2808593 4.99028217,20.737728 5.32800679,21.0739982 C5.66573142,21.4102684 6.12341584,21.5982805 6.59999998,21.59652 L21,21.6 L20.997096,4.19759997 C20.9976701,3.7207959 20.8085212,3.26335402 20.4713785,2.92619338 C20.1342359,2.58903273 19.6768041,2.39999996 19.2,2.40040796 Z M12.9,5.99599197 C14.059798,5.99599197 15,6.936194 15,8.09599198 C15,9.25578996 14.059798,10.195992 12.9,10.195992 C11.740202,10.195992 10.8,9.25578996 10.8,8.09599198 C10.8,6.936194 11.740202,5.99599197 12.9,5.99599197 Z M16.2,17.999808 L10.7976,17.999808 C10.4795879,17.9997193 10.1746614,17.8731859 9.95001805,17.6480924 C9.72537474,17.4229989 9.59945205,17.1178197 9.59999821,16.799808 C9.59999821,16.799664 9.59999821,16.79952 9.59999821,16.799352 L9.59999821,14.112936 C9.59999821,14.112624 9.59999821,14.112312 9.59999821,14.112 C9.59999821,12.289464 11.077464,10.798608 12.9,10.798608 C14.722536,10.798608 16.2,12.289464 16.2,14.112 L16.2,17.999808 Z" fill="#000000"></path>
    </g>
</svg>