<?xml version="1.0" encoding="UTF-8"?>
<svg width="24px" height="24px" viewBox="0 0 24 24" version="1.1" xmlns="http://www.w3.org/2000/svg" xmlns:xlink="http://www.w3.org/1999/xlink">
    <title>icons/functional_UI/A-E/mdpi/ic_Air_time</title>
    <g id="icons/functional_UI/A-E/ic_Air_time" stroke="none" stroke-width="1" fill="none" fill-rule="evenodd">
        <path d="M4.79999997,12 C4.79999997,15.97644 8.02355998,19.2000061 12,19.2000061 C13.910052,19.2024844 15.7423146,18.443536 17.091168,17.091168 L12,12 L12,4.79999997 C8.02355998,4.79999997 4.79999997,8.02355998 4.79999997,12 Z M12,2.39999996 C17.301936,2.39999996 21.6,6.69806398 21.6,12 C21.6,17.301936 17.301936,21.6 12,21.6 C6.69806398,21.6 2.39999996,17.301936 2.39999996,12 C2.39999996,6.69806398 6.69806398,2.39999996 12,2.39999996 Z M12,4.19999997 C16.307808,4.19999997 19.8,7.69219198 19.8,12 C19.8,16.307808 16.307808,19.8 12,19.8 C7.69219198,19.8 4.19999997,16.307808 4.19999997,12 C4.19999997,7.69219198 7.69219198,4.19999997 12,4.19999997 Z" fill="#000000"></path>
    </g>
</svg>