<svg xmlns="http://www.w3.org/2000/svg" width="24" height="24"><path fill-rule="evenodd" d="M18 4a2 2 0 0 1 2 2v12a2 2 0 0 1-2 2H6a2 2 0 0 1-2-2V6a2 2 0 0 1 2-2h12Zm0 1H6a1 1 0 0 0-1 1v12a1 1 0 0 0 1 1h12a1 1 0 0 0 1-1V6a1 1 0 0 0-1-1Zm-6.647 7.549.052.046a.556.556 0 0 1 0 .785l-2.508 2.51 1.621-.001c.285 0 .52.214.552.49l.004.065a.556.556 0 0 1-.556.556h-2.98l-.014-.001-.015-.001-.017-.002-.018-.003-.015-.002-.014-.003-.016-.003-.018-.005-.017-.004-.013-.005-.012-.003-.015-.006-.022-.01-.012-.006-.008-.003-.021-.012-.019-.009-.013-.009-.025-.017-.022-.016a.561.561 0 0 1-.089-.088l-.005-.007-.012-.017-.019-.026-.004-.008-.004-.005-.009-.018-.013-.022-.002-.008-.007-.012-.008-.022-.007-.015-.002-.012-.006-.013-.003-.017-.006-.018-.003-.015-.003-.014-.002-.016-.003-.018-.001-.017L7 16.477v-2.995a.556.556 0 0 1 1.111 0v1.622l2.508-2.51c.2-.2.516-.215.734-.045ZM16.444 7l.02.001h.013l.015.002h.017l.018.004.015.002.014.003.016.003.018.006.017.003.013.006.012.002.015.007.022.008.012.007.008.002.022.013.018.009.005.004.008.004.026.019.017.011.005.005a.552.552 0 0 1 .088.087l.018.025.017.025.006.009.012.023.012.021.003.008.007.012.009.022.006.015.003.012.005.013.004.017.005.018.003.016.003.014.002.015.003.018.002.017.001.015v.014l.001.019v2.962a.556.556 0 1 1-1.111 0V8.897l-2.508 2.508a.556.556 0 0 1-.786-.785l2.509-2.509h-1.622a.556.556 0 0 1-.552-.49l-.004-.065c0-.307.249-.556.556-.556h2.962Z"/></svg>