<svg width="24" height="24">
<path d="M9.59266 20.9622C9.09592 20.8769 8.65392 20.6121 8.40317 20.2496C8.21193 19.9731 8.19476 19.9116 8.21827 19.5882C8.24807 19.1783 8.44778 18.9131 8.81702 18.7931C9.06291 18.7132 9.22194 18.7626 9.77535 19.0906C10.22 19.3542 10.5104 19.3578 11.0222 19.106C11.2762 18.981 11.5506 18.766 11.8431 18.4628C12.3549 17.9323 12.5564 17.648 13.4231 16.234C14.2059 14.9567 14.4488 14.6419 15.4252 13.6392C16.6965 12.3336 16.9866 11.7954 17.1508 10.4374C17.3345 8.91803 16.8058 7.4863 15.6357 6.33441C14.8527 5.56356 14.2383 5.2123 13.1721 4.9259C12.5545 4.76 11.3426 4.77602 10.6972 4.9586C8.85383 5.48009 7.29075 6.93932 6.97417 8.4343C6.85168 9.01271 6.83793 9.04 6.62519 9.12676C6.33284 9.24599 5.41006 9.17769 5.19612 9.02098C4.97962 8.8624 4.94176 8.48894 5.08557 7.93044C5.30428 7.08105 5.84136 6.19283 6.62385 5.38641C8.18098 3.78167 10.3506 2.87899 12.3283 3.0131C15.0293 3.19627 17.1542 4.49957 18.2487 6.64444C18.7853 7.69595 18.9995 8.64197 19 9.96177C19.0007 11.9367 18.4587 13.134 16.7286 14.9797C15.1117 16.7046 15.0065 16.847 14.0243 18.6403C13.5457 19.5142 12.8638 20.228 12.2223 20.5268C11.419 20.9009 10.3077 21.0849 9.59266 20.9622ZM13.7602 11.9932C13.5052 11.902 13.3152 11.8 13.3323 11.7635C13.9998 10.344 14.0999 9.31455 13.6341 8.66017C13.193 8.04054 12.0874 7.79741 11.3603 8.16018C11.0363 8.32185 10.3908 8.89936 10.1245 9.26584L9.99947 9.438L9.47075 9.34466C9.17996 9.29333 8.92911 9.23859 8.9133 9.22303C8.85779 9.16837 9.09428 8.57607 9.28455 8.29323C9.57412 7.86279 10.1267 7.41089 10.7164 7.12235C11.2133 6.87918 11.2821 6.86261 11.8862 6.84059C12.6496 6.81277 13.0997 6.89414 13.6344 7.15665C15.1683 7.90967 15.6448 9.84581 14.7319 11.616C14.546 11.9764 14.4285 12.1358 14.3423 12.1446C14.2744 12.1516 14.0124 12.0835 13.7602 11.9932Z"/>
</svg>
