<svg width="24" height="24"><path fill-rule="evenodd" d="M12.74 5.737a1.332 1.332 0 1 1-1.48-2.215 1.332 1.332 0 0 1 1.48 2.215m5.224.28a.628.628 0 0 1-.006 1.162s-4.468 1.5-4.468 1.972c0 .56.022.713.6 4.683.226 1.544.535 3.666.96 6.614a.767.767 0 0 1-1.5.322s-1.288-6.437-1.547-6.437c-.26 0-1.547 6.437-1.547 6.437a.767.767 0 0 1-1.5-.322c-.123.694 2.064-10.793 1.56-11.297-.38-.381-4.47-1.963-4.47-1.963a.639.639 0 0 1 .488-1.181s4.54 1.79 5.472 1.79c.931 0 5.478-1.78 5.478-1.78a.63.63 0 0 1 .48 0" clip-rule="evenodd"/></svg>