<svg width="24" height="24"><path fill-rule="evenodd" d="M20.889 12A8.889 8.889 0 1 1 3.11 12a8.889 8.889 0 0 1 17.778 0M22 12c0 5.523-4.477 10-10 10S2 17.523 2 12 6.477 2 12 2s10 4.477 10 10M8.917 19.375c.215.302.594.522 1.02.593.613.103 1.565-.05 2.254-.362.55-.25 1.134-.844 1.544-1.572.842-1.495.932-1.613 2.318-3.05 1.483-1.539 1.948-2.537 1.947-4.182 0-1.1-.184-1.889-.644-2.765-.938-1.787-2.76-2.873-5.075-3.026-1.695-.112-3.554.64-4.89 1.978-.67.672-1.13 1.412-1.318 2.12-.123.465-.09.776.095.909.183.13.974.187 1.225.088.182-.073.194-.095.3-.577.27-1.246 1.61-2.462 3.19-2.897.554-.152 1.592-.165 2.122-.027.913.239 1.44.531 2.111 1.174 1.003.96 1.456 2.153 1.299 3.419-.14 1.131-.39 1.58-1.48 2.668-.836.836-1.044 1.098-1.715 2.162-.743 1.179-.916 1.416-1.354 1.858q-.377.378-.704.536c-.439.21-.688.206-1.069-.013-.474-.273-.61-.315-.821-.248q-.475.15-.513.662c-.02.27-.006.321.158.552m4.225-7.072c-.015.03.148.115.367.191.216.076.44.132.499.127.074-.008.174-.14.334-.441.782-1.475.374-3.089-.941-3.716-.458-.219-.844-.287-1.498-.264-.518.019-.577.033-1.003.235-.506.24-.98.617-1.228.976-.163.236-.365.73-.318.775.014.013.229.058.478.101l.453.078.107-.143c.229-.306.782-.787 1.06-.922.623-.302 1.57-.1 1.949.417.399.545.313 1.403-.259 2.586" clip-rule="evenodd"/></svg>