<svg width="24" height="24">
<path fill-rule="evenodd" clip-rule="evenodd" d="M20.8889 12C20.8889 16.9092 16.9092 20.8889 12 20.8889C7.0908 20.8889 3.11111 16.9092 3.11111 12C3.11111 7.0908 7.0908 3.11111 12 3.11111C16.9092 3.11111 20.8889 7.0908 20.8889 12ZM22 12C22 17.5228 17.5228 22 12 22C6.47715 22 2 17.5228 2 12C2 6.47715 6.47715 2 12 2C17.5228 2 22 6.47715 22 12ZM8.91701 19.3747C9.13193 19.6768 9.51079 19.8974 9.93657 19.9685C10.5495 20.0708 11.502 19.9175 12.1905 19.6057C12.7404 19.3567 13.3249 18.7618 13.7351 18.0336C14.577 16.5392 14.6672 16.4205 16.0531 14.9831C17.536 13.445 18.0006 12.4472 18 10.8015C17.9996 9.70164 17.816 8.91329 17.356 8.03704C16.4179 6.24964 14.5965 5.16356 12.2814 5.01092C10.5863 4.89916 8.72656 5.65139 7.39187 6.98867C6.72117 7.66069 6.26081 8.40088 6.07335 9.1087C5.95008 9.57412 5.98253 9.88533 6.1681 10.0175C6.35148 10.1481 7.14243 10.205 7.39302 10.1056C7.57536 10.0333 7.58716 10.0106 7.69214 9.52858C7.9635 8.28277 9.30328 7.06674 10.8833 6.63217C11.4365 6.48001 12.4753 6.46667 13.0047 6.60492C13.9185 6.84358 14.4451 7.1363 15.1163 7.77868C16.1192 8.73858 16.5724 9.93169 16.4149 11.1979C16.2742 12.3295 16.0256 12.778 14.9359 13.866C14.099 14.7016 13.8908 14.9639 13.2198 16.0284C12.477 17.2067 12.3042 17.4436 11.8655 17.8857C11.6148 18.1384 11.3796 18.3175 11.1618 18.4216C10.7232 18.6315 10.4743 18.6285 10.0932 18.4088C9.61881 18.1355 9.48249 18.0943 9.27173 18.1609C8.95524 18.2609 8.78406 18.4819 8.75852 18.8235C8.73836 19.093 8.75309 19.1442 8.91701 19.3747ZM13.142 12.303C13.1273 12.3333 13.2902 12.4184 13.5087 12.4944C13.7249 12.5696 13.9495 12.6263 14.0077 12.6205C14.0816 12.6132 14.1823 12.4804 14.3416 12.18C15.1241 10.7048 14.7157 9.09139 13.4009 8.46387C12.9426 8.24512 12.5568 8.17731 11.9025 8.20049C11.3846 8.21884 11.3257 8.23265 10.8997 8.43529C10.3943 8.67575 9.92067 9.05233 9.67247 9.41103C9.50938 9.64672 9.30667 10.1403 9.35426 10.1859C9.36781 10.1988 9.58282 10.2444 9.83208 10.2872L10.2853 10.365L10.3925 10.2215C10.6207 9.91613 11.1739 9.43488 11.4517 9.30015C12.0749 8.99784 13.0226 9.20045 13.4006 9.71681C13.7999 10.2621 13.7141 11.12 13.142 12.303Z"/>
</svg>
