<?xml version="1.0" encoding="UTF-8"?>
<svg width="24px" height="24px" viewBox="0 0 24 24" version="1.1" xmlns="http://www.w3.org/2000/svg" xmlns:xlink="http://www.w3.org/1999/xlink">
    <title>icons/functional_UI/A-E/mdpi/ic_Apps_disabled</title>
    <g id="icons/functional_UI/A-E/ic_Apps_disabled" stroke="none" stroke-width="1" fill="none" fill-rule="evenodd">
        <path d="M9.58799999,11.4 L4.19999997,11.4 C3.53725826,11.4 2.99999996,10.8627417 2.99999996,10.2 L2.99999996,4.19999997 C2.99999996,3.53725826 3.53725826,2.99999996 4.19999997,2.99999996 L10.2,2.99999996 C10.8627417,2.99999996 11.4,3.53725826 11.4,4.19999997 L11.4,9.59999999 L9.58799999,11.4 Z M14.412,12.6 L19.8,12.6 C20.4627417,12.6 21,13.1372583 21,13.8 L21,19.8 C21,20.4627417 20.4627417,21 19.8,21 L13.8,21 C13.1372583,21 12.6,20.4627417 12.6,19.8 L12.6,14.4 L14.412,12.6 Z M12.6,8.39999999 L12.6,4.19999997 C12.6,3.53725826 13.1372583,2.99999996 13.8,2.99999996 L17.996568,2.99999996 L12.6,8.39999999 Z M21,5.99999997 L21,10.2 C20.9998918,10.5183722 20.8733136,10.8236613 20.6481117,11.0487056 C20.4229098,11.27375 20.1175322,11.4001146 19.79916,11.4000001 L15.599688,11.4000001 L21,5.99999997 Z M2.99999996,18 L2.99999996,13.8 C2.99999996,13.1372583 3.53725826,12.6 4.19999997,12.6 L8.39656798,12.6 L2.99999996,18 Z M11.4,15.6 L11.4,19.8 C11.3998918,20.1183722 11.2733135,20.4236613 11.0481117,20.6487057 C10.8229098,20.87375 10.5175322,21.0001146 10.19916,21.0000001 L5.99968797,21.0000001 L11.4,15.6 Z M2.42474396,22.824 L1.15199995,21.551256 L21.551256,1.15199995 L22.824,2.42474396 L2.42474396,22.824 Z" fill="#000000"></path>
    </g>
</svg>