<?xml version="1.0" encoding="UTF-8"?>
<svg width="24px" height="24px" viewBox="0 0 24 24" version="1.1" xmlns="http://www.w3.org/2000/svg" xmlns:xlink="http://www.w3.org/1999/xlink">
    <title>icons/functional_UI/A-E/mdpi/ic_Apps</title>
    <g id="icons/functional_UI/A-E/ic_Apps" stroke="none" stroke-width="1" fill="none" fill-rule="evenodd">
        <path d="M4.19999997,2.99999996 L10.2,2.99999996 C10.8627417,2.99999996 11.4,3.53725826 11.4,4.19999997 L11.4,10.2 C11.4,10.8627417 10.8627417,11.4 10.2,11.4 L4.19999997,11.4 C3.53725826,11.4 2.99999996,10.8627417 2.99999996,10.2 L2.99999996,4.19999997 C2.99999996,3.53725826 3.53725826,2.99999996 4.19999997,2.99999996 Z M4.19999997,12.6 L10.2,12.6 C10.8627417,12.6 11.4,13.1372583 11.4,13.8 L11.4,19.8 C11.4,20.4627417 10.8627417,21 10.2,21 L4.19999997,21 C3.53725826,21 2.99999996,20.4627417 2.99999996,19.8 L2.99999996,13.8 C2.99999996,13.1372583 3.53725826,12.6 4.19999997,12.6 Z M13.8,2.99999996 L19.8,2.99999996 C20.4627417,2.99999996 21,3.53725826 21,4.19999997 L21,10.2 C21,10.8627417 20.4627417,11.4 19.8,11.4 L13.8,11.4 C13.1372583,11.4 12.6,10.8627417 12.6,10.2 L12.6,4.19999997 C12.6,3.53725826 13.1372583,2.99999996 13.8,2.99999996 Z M13.8,12.6 L19.8,12.6 C20.4627417,12.6 21,13.1372583 21,13.8 L21,19.8 C21,20.4627417 20.4627417,21 19.8,21 L13.8,21 C13.1372583,21 12.6,20.4627417 12.6,19.8 L12.6,13.8 C12.6,13.1372583 13.1372583,12.6 13.8,12.6 Z" fill="#000000"></path>
    </g>
</svg>