<svg width="24" height="24"><path fill-rule="evenodd" d="M19.333 5c.369 0 .667.298.667.667v2.666a.667.667 0 0 1-.667.667h-2.666v2.667h2.666c.369 0 .667.298.667.666V15a.667.667 0 0 1-.667.667h-2.666v2.666A.667.667 0 0 1 16 19h-5.333a.664.664 0 0 1-.334-.09A.66.66 0 0 1 10 19H4.667A.667.667 0 0 1 4 18.333v-2.666c0-.368.298-.667.667-.667h2.666v-2.667c0-.368.299-.666.667-.666h2V9c0-.368.299-.667.667-.667h2.666V5.667c0-.369.299-.667.667-.667h5.333ZM9.667 16H5v2h4.667v-2Zm6 0H11v2h4.667v-2ZM13 12.667H8.333v2H13v-2Zm6 0h-4.667v2H19v-2Zm-3.333-3.334H11v2h4.667v-2ZM19 6h-4.667v2H19V6Z"/></svg>