<?xml version="1.0" encoding="UTF-8"?>
<svg width="24px" height="24px" viewBox="0 0 24 24" version="1.1" xmlns="http://www.w3.org/2000/svg" xmlns:xlink="http://www.w3.org/1999/xlink">
    <title>icons/functional_UI/A-E/mdpi/ic_Attachment</title>
    <g id="icons/functional_UI/A-E/ic_Attachment" stroke="none" stroke-width="1" fill="none" fill-rule="evenodd">
        <path d="M13.5,1.19999995 C11.3460895,1.19999995 9.59999998,2.94608944 9.59999998,5.09999997 L9.59999998,17.4 C9.59999998,18.7254834 10.6745166,19.8 12,19.8 C13.3254834,19.8 14.4,18.7254834 14.4,17.4 L14.4,10.2 C14.4,9.53725829 13.8627417,8.99999999 13.2,8.99999999 L12.6,8.99999999 L12.6,17.4 C12.6,17.7313709 12.3313709,18 12,18 C11.6686291,18 11.4,17.7313709 11.4,17.4 L11.4,5.09999997 C11.4,3.94020199 12.340202,2.99999996 13.5,2.99999996 C14.659798,2.99999996 15.6,3.94020199 15.6,5.09999997 L15.6,17.4 C15.6,19.3882251 13.9882251,21 12,21 C10.0117749,21 8.39999999,19.3882251 8.39999999,17.4 L8.39999999,8.99999999 L7.79999998,8.99999999 C7.13725828,8.99999999 6.59999998,9.53725829 6.59999998,10.2 L6.59999998,17.4 C6.59999998,20.382336 9.01766399,22.8 12,22.8 C14.982336,22.8 17.4,20.382336 17.4,17.4 L17.4,5.09999997 C17.4,2.94608944 15.6539105,1.19999995 13.5,1.19999995 Z" fill="#000000"></path>
    </g>
</svg>