<svg width="24" height="24">
<path d="M5 5H19C19.552 5 20 5.448 20 6V16C20 16.552 19.552 17 19 17H5C4.448 17 4 16.552 4 16V6C4 5.448 4.448 5 5 5ZM11.6464 16.3536C11.7402 16.4473 11.8674 16.5 12 16.5C12.1326 16.5 12.2598 16.4473 12.3536 16.3536C12.4473 16.2598 12.5 16.1326 12.5 16C12.5 15.8674 12.4473 15.7402 12.3536 15.6464C12.2598 15.5527 12.1326 15.5 12 15.5C11.8674 15.5 11.7402 15.5527 11.6464 15.6464C11.5527 15.7402 11.5 15.8674 11.5 16C11.5 16.1326 11.5527 16.2598 11.6464 16.3536ZM5 15H19V6H5V15ZM13.5 19H16C16.1326 19 16.2598 19.0527 16.3536 19.1464C16.4473 19.2402 16.5 19.3674 16.5 19.5V20H7.5V19.5C7.5 19.3674 7.55268 19.2402 7.64645 19.1464C7.74022 19.0527 7.86739 19 8 19H10.5V17.5H13.5V19Z"/>
</svg>
