<?xml version="1.0" encoding="UTF-8"?>
<svg width="24px" height="24px" viewBox="0 0 24 24" version="1.1" xmlns="http://www.w3.org/2000/svg" xmlns:xlink="http://www.w3.org/1999/xlink">
    <title>icons/functional_UI/A-E/mdpi/ic_Assistance</title>
    <g id="icons/functional_UI/A-E/ic_Assistance" stroke="none" stroke-width="1" fill="none" fill-rule="evenodd">
        <path d="M12,1.79999996 C6.36664798,1.79999996 1.79999996,6.36669598 1.79999996,12 C1.79999996,17.633304 6.36664798,22.2 12,22.2 C17.633352,22.2 22.2,17.633304 22.2,12 C22.2,6.36669598 17.633304,1.79999996 12,1.79999996 Z M12.7392,18.135192 C12.4967259,18.3578985 12.1787624,18.4802753 11.849544,18.4776 C11.5144545,18.4821965 11.1896948,18.3616631 10.938744,18.13956 C10.679016,17.914296 10.549208,17.599224 10.5493199,17.194344 C10.5493199,16.835016 10.674752,16.532768 10.925616,16.2876 C11.17648,16.042432 11.48448,15.919824 11.849616,15.919824 C12.20904,15.919824 12.511352,16.042416 12.756552,16.2876 C13.001752,16.532784 13.124328,16.835032 13.124328,17.194344 C13.12428,17.59356 12.995904,17.907176 12.7392,18.135192 Z M15.93408,10.214088 C15.7494784,10.562853 15.5129369,10.8815326 15.23256,11.159208 C14.96184,11.424392 14.475664,11.870672 13.774032,12.498048 C13.6102013,12.6447516 13.4546192,12.8004138 13.308,12.96432 C13.2067694,13.0760919 13.1192089,13.1995209 13.047168,13.332 C12.9919436,13.4385066 12.9474911,13.5502608 12.914472,13.6656 C12.883224,13.776864 12.836192,13.972224 12.773376,14.25168 C12.665184,14.844768 12.32588,15.141336 11.755464,15.141336 C11.458808,15.141336 11.209272,15.044384 11.006856,14.85048 C10.80444,14.656576 10.703264,14.368576 10.703328,13.98648 C10.703328,13.50736 10.777424,13.092456 10.925616,12.741768 C11.0669474,12.4017187 11.2667688,12.0890632 11.516016,11.817984 C11.76112,11.552752 12.09192,11.237552 12.508416,10.872384 C12.87304,10.553248 13.136736,10.312344 13.299504,10.149672 C13.4609801,9.98862482 13.5991565,9.80580056 13.710024,9.60650399 C13.8210349,9.40793333 13.8785536,9.18392873 13.876944,8.95643999 C13.876944,8.50016799 13.70724,8.11521598 13.367832,7.80158398 C13.028424,7.48795198 12.590824,7.33115198 12.055032,7.33118398 C11.427624,7.33118398 10.96568,7.48944798 10.6692,7.80597598 C10.37272,8.12250398 10.121848,8.58867999 9.91658399,9.20450399 C9.72247199,9.84896799 9.35454399,10.1712 8.81279999,10.1712 C8.49337599,10.1712 8.22391198,10.058568 8.00440798,9.83330399 C7.78490398,9.60803999 7.67519997,9.36425599 7.67519997,9.10195199 C7.67519997,8.56031999 7.84911198,8.01147198 8.19693598,7.45540798 C8.54475999,6.89934398 9.05233599,6.43884798 9.71966399,6.07391998 C10.386864,5.70889597 11.165264,5.52640797 12.054864,5.52640797 C12.881424,5.52640797 13.611376,5.67895997 14.24472,5.98406397 C14.877504,6.28924798 15.366456,6.70409598 15.711576,7.22860798 C16.056696,7.75311998 16.22928,8.32340798 16.22928,8.93947199 C16.22928,9.42422399 16.130968,9.84909599 15.934152,10.214088 L15.93408,10.214088 Z" fill="#000000"></path>
    </g>
</svg>