<?xml version="1.0" encoding="UTF-8"?>
<svg width="24px" height="24px" viewBox="0 0 24 24" version="1.1" xmlns="http://www.w3.org/2000/svg" xmlns:xlink="http://www.w3.org/1999/xlink">
    <title>icons/functional_UI/A-E/mdpi/ic_Add_caller_button</title>
    <g id="icons/functional_UI/A-E/ic_Add_caller_button" stroke="none" stroke-width="1" fill="none" fill-rule="evenodd">
        <path d="M12,1.79999996 C17.633304,1.79999996 22.2,6.36669598 22.2,12 C22.2,17.633304 17.633304,22.2 12,22.2 C6.36669598,22.2 1.79999996,17.633304 1.79999996,12 C1.79999996,6.36669598 6.36669598,1.79999996 12,1.79999996 Z M12,2.39999996 C17.301936,2.39999996 21.6,6.69806398 21.6,12 C21.6,17.301936 17.301936,21.6 12,21.6 C6.69806398,21.6 2.39999996,17.301936 2.39999996,12 C2.39999996,6.69806398 6.69806398,2.39999996 12,2.39999996 Z M12,10.799736 C12.9706892,10.7998039 13.8458333,10.2151195 14.2173336,9.31833346 C14.5888339,8.42154746 14.3835254,7.38927743 13.6971479,6.70289305 C13.0107704,6.01650867 11.9785024,5.81118987 11.0817127,6.18268123 C10.184923,6.55417258 9.60022975,7.42931074 9.60028799,8.39999998 C9.60028799,9.72531174 10.6746882,10.799683 12,10.799736 L12,10.799736 Z M14.071488,10.65936 C12.8801716,11.7785748 11.0239484,11.7785748 9.83263199,10.65936 C8.91177599,11.16132 8.40122399,12.127176 8.37686398,13.24224 L8.37599998,13.24224 L8.37599998,16.058832 C8.37636897,16.4149095 8.51817744,16.7562556 8.77022776,17.0077748 C9.02227808,17.259294 9.36392257,17.4003821 9.71999999,17.4000008 L15.6,17.4000008 L15.6,13.309416 C15.6,12.166104 15.0108,11.171352 14.071488,10.65936 Z M14.88,15.6 L13.8,15.6 L13.8,16.68 C13.8,16.7462742 13.7462742,16.8 13.68,16.8 L13.32,16.8 C13.2537258,16.8 13.2,16.7462742 13.2,16.68 L13.2,15.6 L12.12,15.6 C12.0537258,15.6 12,15.5462742 12,15.48 L12,15.12 C12,15.0537258 12.0537258,15 12.12,15 L13.2,15 L13.2,13.92 C13.2,13.8537258 13.2537258,13.8 13.32,13.8 L13.68,13.8 C13.7462742,13.8 13.8,13.8537258 13.8,13.92 L13.8,15 L14.88,15 C14.9462742,15 15,15.0537258 15,15.12 L15,15.48 C15,15.5462742 14.9462742,15.6 14.88,15.6 Z" fill="#000000"></path>
    </g>
</svg>