<?xml version="1.0" encoding="UTF-8"?>
<svg width="24px" height="24px" viewBox="0 0 24 24" version="1.1" xmlns="http://www.w3.org/2000/svg" xmlns:xlink="http://www.w3.org/1999/xlink">
    <title>icons/functional_UI/A-E/mdpi/ic_Barcode_reader</title>
    <g id="icons/functional_UI/A-E/ic_Barcode_reader" stroke="none" stroke-width="1" fill="none" fill-rule="evenodd">
        <path d="M19.8,18.6 C19.7980625,19.2619375 19.2619375,19.7980625 18.6,19.8 L17.4,19.8 C17.0686292,19.8 16.8,20.0686292 16.8,20.4 L16.8,20.4 C16.8,20.7313709 17.0686292,21 17.4,21 L18.609936,21 C19.924464,21 21,19.924464 21,18.609936 L21,17.4 C21,17.0686292 20.7313709,16.8 20.4,16.8 L20.4,16.8 C20.0686292,16.8 19.8,17.0686292 19.8,17.4 L19.8,18.6 Z M18.6,4.19999997 C19.2619375,4.20193753 19.7980625,4.7380625 19.8,5.39999997 L19.8,6.59999998 C19.8,6.93137083 20.0686292,7.19999998 20.4,7.19999998 L20.4,7.19999998 C20.7313709,7.19999998 21,6.93137083 21,6.59999998 L21,5.39006397 C21,4.07553597 19.924464,2.99999996 18.609936,2.99999996 L17.4,2.99999996 C17.0686292,2.99999996 16.8,3.26862911 16.8,3.59999997 L16.8,3.59999997 C16.8,3.93137082 17.0686292,4.19999997 17.4,4.19999997 L18.6,4.19999997 Z M5.39999997,19.8 C4.7380625,19.7980625 4.20193753,19.2619375 4.19999997,18.6 L4.19999997,17.4 C4.19999997,17.0686292 3.93137082,16.8 3.59999996,16.8 L3.59999996,16.8 C3.26862911,16.8 2.99999996,17.0686292 2.99999996,17.4 L2.99999996,18.609936 C2.99999996,19.924464 4.07553597,21 5.39006397,21 L6.59999998,21 C6.93137083,21 7.19999998,20.7313709 7.19999998,20.4 L7.19999998,20.4 C7.19999998,20.0686292 6.93137083,19.8 6.59999998,19.8 L5.39999997,19.8 Z M4.19999997,5.39999997 C4.20193753,4.7380625 4.7380625,4.20193753 5.39999997,4.19999997 L6.59999998,4.19999997 C6.93137083,4.19999997 7.19999998,3.93137082 7.19999998,3.59999996 L7.19999998,3.59999996 C7.19999998,3.26862911 6.93137083,2.99999996 6.59999998,2.99999996 L5.39006397,2.99999996 C4.07553597,2.99999996 2.99999996,4.07553597 2.99999996,5.39006397 L2.99999996,6.59999998 C2.99999996,6.93137083 3.26862911,7.19999998 3.59999997,7.19999998 L3.59999997,7.19999998 C3.93137082,7.19999998 4.19999997,6.93137083 4.19999997,6.59999998 L4.19999997,5.39999997 Z M6.44399998,16.8 L6.04799998,16.8 L6.04799998,7.19999998 L6.44399998,7.19999998 L6.44399998,16.8 Z M12.198,16.8 L11.802,16.8 L11.802,7.19999998 L12.198,7.19999998 L12.198,16.8 Z M13.218,16.8 L12.822,16.8 L12.822,7.19999998 L13.218,7.19999998 L13.218,16.8 Z M15.48,16.8 L15.084,16.8 L15.084,7.19999998 L15.48,7.19999998 L15.48,16.8 Z M17.748,16.8 L17.352,16.8 L17.352,7.19999998 L17.748,7.19999998 L17.748,16.8 Z M8.71199999,16.8 L8.31599998,16.8 L8.31599998,7.19999998 L8.71199999,7.19999998 L8.71199999,16.8 Z M9.53001599,16.8 L8.92799999,16.8 L8.92799999,7.19999998 L9.53001599,7.19999998 L9.53001599,16.8 Z M11.582016,16.8 L10.98,16.8 L10.98,7.19999998 L11.582016,7.19999998 L11.582016,16.8 Z M16.718016,16.8 L16.116,16.8 L16.116,7.19999998 L16.718016,7.19999998 L16.718016,16.8 L16.718016,16.8 Z M9.94799999,16.8 L9.75599999,16.8 L9.75599999,7.19999998 L9.94799999,7.19999998 L9.94799999,16.8 Z M10.764,16.8 L10.572,16.8 L10.572,7.19999998 L10.764,7.19999998 L10.764,16.8 Z M13.632,16.8 L13.44,16.8 L13.44,7.19999998 L13.632,7.19999998 L13.632,16.8 Z M14.46,16.8 L14.268,16.8 L14.268,7.19999998 L14.46,7.19999998 L14.46,16.8 Z M17.124,16.8 L16.932,16.8 L16.932,7.19999998 L17.124,7.19999998 L17.124,16.8 Z M6.87599998,16.8 L6.68399998,16.8 L6.68399998,7.19999998 L6.87599998,7.19999998 L6.87599998,16.8 Z M7.47599998,16.8 L7.28399998,16.8 L7.28399998,7.19999998 L7.47599998,7.19999998 L7.47599998,16.8 Z" fill="#000000"></path>
    </g>
</svg>