<?xml version="1.0" encoding="UTF-8"?>
<svg width="24px" height="24px" viewBox="0 0 24 24" version="1.1" xmlns="http://www.w3.org/2000/svg" xmlns:xlink="http://www.w3.org/1999/xlink">
    <title>icons/functional_UI/A-E/mdpi/ic_Book</title>
    <g id="icons/functional_UI/A-E/ic_Book" stroke="none" stroke-width="1" fill="none" fill-rule="evenodd">
        <path d="M5.99999997,22.2 C5.00709103,22.1971003 4.20289976,21.392909 4.19999997,20.4 L4.19999997,3.59999996 C4.20289976,2.60709102 5.00709103,1.80289975 5.99999997,1.79999996 L18.6,1.79999996 L18.6,4.19999997 L19.8,4.19999997 L19.8,22.2 L5.99999997,22.2 Z M17.4,2.99999996 L5.99999997,2.99999996 C5.66902851,3.00096219 5.4009622,3.2690285 5.39999997,3.59999996 L5.39999997,3.59999996 C5.4009622,3.93097143 5.66902851,4.19903774 5.99999997,4.19999997 L7.19999998,4.19999997 L7.19999998,12 L8.99999999,10.2 L10.8,12 L10.8,4.19999997 L17.4,4.19999997 L17.4,2.99999996 Z" fill="#000000"></path>
    </g>
</svg>