<?xml version="1.0" encoding="UTF-8"?>
<svg width="24px" height="24px" viewBox="0 0 24 24" version="1.1" xmlns="http://www.w3.org/2000/svg" xmlns:xlink="http://www.w3.org/1999/xlink">
    <title>icons/functional_UI/A-E/mdpi/ic_Brightness</title>
    <g id="icons/functional_UI/A-E/ic_Brightness" stroke="none" stroke-width="1" fill="none" fill-rule="evenodd">
        <path d="M12,7.19999998 C14.650968,7.19999998 16.8,9.34903199 16.8,12 C16.8,14.650968 14.650968,16.8 12,16.8 C9.34903199,16.8 7.19999998,14.650968 7.19999998,12 C7.19999998,9.34903199 9.34903199,7.19999998 12,7.19999998 Z M2.39999996,11.4 L4.79999996,11.4 C5.13137082,11.4 5.39999997,11.6686291 5.39999997,12 C5.39999997,12.3313709 5.13137082,12.6 4.79999996,12.6 L2.39999996,12.6 C2.06862911,12.6 1.79999996,12.3313709 1.79999996,12 C1.79999996,11.6686291 2.06862911,11.4 2.39999996,11.4 Z M5.62900797,4.80448797 L7.32607198,6.50152798 C7.55764394,6.73629294 7.55635909,7.11393948 7.32319506,7.3471233 C7.09003102,7.58030713 6.71238459,7.58162402 6.47759998,7.35007198 L4.78055997,5.65300797 C4.55030833,5.41803076 4.55221278,5.04146527 4.78482934,4.80882897 C5.0174459,4.57619267 5.39401122,4.57425627 5.62900797,4.80448797 L5.62900797,4.80448797 Z M19.144128,5.61328797 L17.44416,7.31327998 C17.2931333,7.46721005 17.071097,7.52821521 16.8626232,7.47305906 C16.6541493,7.41790292 16.4913324,7.25507675 16.436188,7.04659978 C16.3810437,6.83812281 16.4420614,6.61609002 16.596,6.46507198 L18.295968,4.76512797 C18.4469948,4.6111979 18.669031,4.55019274 18.8775049,4.60534889 C19.0859787,4.66050503 19.2487957,4.8233312 19.30394,5.03180817 C19.3590844,5.24028514 19.2980666,5.46231793 19.144128,5.61333597 L19.144128,5.61328797 Z M18.296256,19.248744 L16.599624,17.55732 C16.4485521,17.4057722 16.3898057,17.1851404 16.445514,16.9785344 C16.5012222,16.7719284 16.6629218,16.6107366 16.869702,16.5556784 C17.0764822,16.5006202 17.2969281,16.5600602 17.448,16.711608 L19.144632,18.403032 C19.378169,18.6373046 19.3775726,19.0165391 19.1433,19.250076 C18.9090275,19.483613 18.5297929,19.4830166 18.296256,19.248744 Z M4.78459197,18.44256 L6.48410398,16.74816 C6.63513729,16.596698 6.85550186,16.5373166 7.06218849,16.5923843 C7.26887512,16.6474519 7.43048319,16.8086026 7.4861365,17.0151323 C7.54178981,17.221662 7.4830333,17.442194 7.33199998,17.593656 L5.63248797,19.288056 C5.48145466,19.4395181 5.26109009,19.4988995 5.05440345,19.4438318 C4.84771682,19.3887641 4.68610875,19.2276135 4.63045544,19.0210838 C4.57480213,18.8145541 4.63355864,18.5940221 4.78459197,18.44256 L4.78459197,18.44256 Z M21.518952,12.56256 L19.117344,12.56508 C18.7857478,12.5647354 18.5172154,12.2956442 18.5175597,11.964048 C18.5179047,11.6324518 18.7869958,11.3639194 19.118592,11.364264 L21.5202,11.361864 C21.8472989,11.3683998 22.1089534,11.6356123 22.1086136,11.9627763 C22.1082732,12.2899403 21.8460638,12.5566082 21.518952,12.562464 L21.518952,12.56256 Z M11.390544,21.55176 L11.390544,19.150776 C11.3956418,18.8204323 11.6648889,18.555308 11.995272,18.555308 C12.3256551,18.555308 12.5949022,18.8204323 12.6,19.150776 L12.6,21.55176 C12.5949022,21.8821038 12.3256551,22.1472281 11.995272,22.1472281 C11.6648889,22.1472281 11.3956418,21.8821038 11.390544,21.55176 L11.390544,21.55176 Z M12.562176,2.42505596 L12.564696,4.82762397 C12.564358,5.16183798 12.29315,5.43249795 11.958936,5.43216027 C11.624722,5.43182196 11.354062,5.16061398 11.3544,4.82639997 L11.352,2.42380796 C11.3564996,2.09259385 11.6264597,1.82655082 11.9577042,1.82689209 C12.2889487,1.82723402 12.5583595,2.09383328 12.562176,2.42505596 L12.562176,2.42505596 Z" fill="#000000"></path>
    </g>
</svg>