<?xml version="1.0" encoding="UTF-8"?>
<svg width="24px" height="24px" viewBox="0 0 24 24" version="1.1" xmlns="http://www.w3.org/2000/svg" xmlns:xlink="http://www.w3.org/1999/xlink">
    <title>icons/functional_UI/A-E/mdpi/ic_Bluetooth</title>
    <g id="icons/functional_UI/A-E/ic_Bluetooth" stroke="none" stroke-width="1" fill="none" fill-rule="evenodd">
        <path d="M13.29648,12.012 L17.326992,7.98148798 C17.678472,7.63000798 17.678472,7.06015198 17.326992,6.70869598 L12.660072,2.04179996 L12.653616,2.04825596 C12.651528,2.04611996 12.649584,2.04391196 12.647472,2.04179996 C12.295992,1.69029596 11.726136,1.69029596 11.37468,2.04179996 C11.187,2.22947996 11.099616,2.47939196 11.11236,2.72510396 L11.11236,9.82790399 L8.02771198,6.74325598 C8.01715198,6.73151998 8.00623198,6.71999998 7.99495198,6.70871998 C7.64347198,6.35723998 7.07361598,6.35723998 6.72215998,6.70871998 C6.37099198,7.05988798 6.37070398,7.62904798 6.72127198,7.98059998 L6.72035998,7.98151198 L10.750896,12.012 L6.72038398,16.042512 L6.72129598,16.043424 C6.37072798,16.394976 6.37101598,16.964136 6.72218398,17.315304 C7.07366398,17.666784 7.64349598,17.666784 7.99497598,17.315304 C8.00625598,17.304 8.01715198,17.29248 8.02773598,17.280768 L11.112384,14.19612 L11.112384,21.29436 C11.098296,21.541536 11.185512,21.793392 11.374368,21.982248 C11.725848,22.333728 12.29568,22.333728 12.64716,21.982248 C12.64932,21.980088 12.651312,21.977808 12.653448,21.975648 L12.660072,21.982248 L17.326968,17.315328 C17.678448,16.963848 17.678448,16.394016 17.326968,16.042536 L13.29648,12.012 Z M15.417792,16.678896 L12.912384,19.184328 L12.912384,14.173488 L15.417792,16.678896 Z M12.912384,9.85051199 L12.912384,4.83967197 L15.417816,7.34510398 L12.912384,9.85051199 Z" fill="#000000"></path>
    </g>
</svg>