<?xml version="1.0" encoding="UTF-8"?>
<svg width="24px" height="24px" viewBox="0 0 24 24" version="1.1" xmlns="http://www.w3.org/2000/svg" xmlns:xlink="http://www.w3.org/1999/xlink">
    <title>icons/functional_UI/A-E/mdpi/ic_Bookmark</title>
    <g id="icons/functional_UI/A-E/ic_Bookmark" stroke="none" stroke-width="1" fill="none" fill-rule="evenodd">
        <path d="M13.798608,4.79963997 C12.8511922,4.79975024 12.0660789,5.53432483 12.003024,6.47963998 L11.994168,6.47963998 C11.9311137,5.53433405 11.1460145,4.79976288 10.198608,4.79963997 L9.23860799,4.79963997 L9.23860799,4.55963997 C9.23785411,3.89721079 8.70103717,3.36039384 8.03860798,3.35963996 L5.39860797,3.35963996 C4.73617879,3.36039384 4.19936185,3.89721079 4.19860797,4.55963997 L4.19860797,4.79963997 L1.80160796,4.79963997 L1.80160796,19.19964 C1.80160796,19.91964 2.27863196,20.39964 2.99860796,20.39964 L20.998608,20.39964 C21.6613497,20.39964 22.198608,19.8623817 22.198608,19.19964 L22.198608,4.79963997 L13.798608,4.79963997 Z M4.79860797,4.55963997 C4.7995702,4.22866851 5.06763651,3.96060219 5.39860797,3.95963997 L8.03860798,3.95963997 C8.37016465,3.96036876 8.63922557,4.22809106 8.64160799,4.55963997 L8.64160799,17.15964 L6.71860798,15.47964 L4.79860797,17.15964 L4.79860797,4.55963997 L4.79860797,4.55963997 Z" fill="#000000"></path>
    </g>
</svg>