<?xml version="1.0" encoding="UTF-8"?>
<svg width="24px" height="24px" viewBox="0 0 24 24" version="1.1" xmlns="http://www.w3.org/2000/svg" xmlns:xlink="http://www.w3.org/1999/xlink">
    <title>icons/functional_UI/A-E/mdpi/ic_Book_audio</title>
    <g id="icons/functional_UI/A-E/ic_Book_audio" stroke="none" stroke-width="1" fill="none" fill-rule="evenodd">
        <path d="M5.99999997,22.2 C5.00709103,22.1971003 4.20289976,21.392909 4.19999997,20.4 L4.19999997,3.59999996 C4.20289976,2.60709102 5.00709103,1.80289975 5.99999997,1.79999996 L18.6,1.79999996 L18.6,4.19999997 L19.8,4.19999997 L19.8,22.2 L5.99999997,22.2 Z M17.4,2.99999996 L5.99999997,2.99999996 C5.66902851,3.00096219 5.4009622,3.2690285 5.39999997,3.59999996 L5.39999997,3.59999996 C5.4009622,3.93097143 5.66902851,4.19903774 5.99999997,4.19999997 L17.4,4.19999997 L17.4,2.99999996 Z M16.230048,16.199808 L15.453984,15.523872 C16.6761137,14.2156443 16.6761137,12.1843557 15.453984,10.876128 L16.230048,10.200192 C17.7899894,11.8958674 17.7899894,14.5041326 16.230048,16.199808 Z M14.936568,15.073224 L14.16,14.396904 C14.8148335,13.7333261 14.8148335,12.6666979 14.16,12.00312 L14.93652,11.326776 C15.9304244,12.3778281 15.9304455,14.0221464 14.936568,15.073224 L14.936568,15.073224 Z M8.37599998,15 C8.09039998,15 7.77599998,14.685432 7.77599998,14.4 L7.77599998,12 C7.77599998,11.714592 8.09039998,11.4 8.37599998,11.4 L10.776,11.4 L13.176,8.99999999 L13.176,17.4 L10.776,15 L8.37599998,15 Z" fill="#000000"></path>
    </g>
</svg>