<?xml version="1.0" encoding="UTF-8"?>
<svg width="24px" height="24px" viewBox="0 0 24 24" version="1.1" xmlns="http://www.w3.org/2000/svg" xmlns:xlink="http://www.w3.org/1999/xlink">
    <title>icons/functional_UI/A-E/mdpi/ic_Bespoke</title>
    <g id="icons/functional_UI/A-E/ic_Bespoke" stroke="none" stroke-width="1" fill="none" fill-rule="evenodd">
        <path d="M10.534632,13.739664 L9.10473599,13.312008 L8.56048799,13.855872 L8.98845599,15.28476 L9.24019199,15.030768 L14.311536,20.098512 L14.518344,19.891824 L9.44702399,14.82408 L10.067496,14.20404 L15.138816,19.271784 L15.345648,19.06512 L10.2744,13.997376 L10.534632,13.739664 Z M15.7848,10.137816 C13.6591681,12.1406499 10.3411735,12.140734 8.21543998,10.138008 C6.51734706,11.0634882 5.44397262,12.8265497 5.40151197,14.76 L5.39999997,14.76 L5.39999997,19.8 C5.39999997,21.1254834 6.47451658,22.2 7.79999998,22.2 L18.6000003,22.2 L18.6000003,14.88 C18.6006643,12.9030516 17.5206967,11.0838541 15.7848,10.137816 Z M10.064472,20.824584 C9.83569535,21.0520299 9.46618463,21.0520299 9.23740799,20.824584 L7.99679998,19.584 C7.76935416,19.3552234 7.76935416,18.9857127 7.99679998,18.756936 L9.85771199,16.896 L10.064472,17.10276 L9.85771199,17.30952 L10.374624,17.826432 C10.4307969,17.8836829 10.4303607,17.9754998 10.3736462,18.0322142 C10.3169317,18.0889287 10.2251149,18.089365 10.167864,18.033192 L9.65095199,17.51628 L9.23740799,17.929824 L9.54755999,18.24 C9.60466181,18.2970952 9.60466718,18.3896702 9.54757199,18.446772 C9.49047679,18.5038738 9.39790181,18.5038792 9.34079999,18.446784 L9.03064799,18.136632 L8.61710399,18.550152 L9.13403999,19.067088 C9.17097411,19.1040264 9.18539625,19.157863 9.17187371,19.2083181 C9.15835117,19.2587732 9.11893836,19.2981815 9.0684817,19.3116981 C9.01802504,19.3252148 8.9641901,19.3107864 8.92725599,19.273848 L8.41034399,18.756936 L8.20358398,18.963696 C8.08987559,19.0780857 8.08987559,19.2628264 8.20358398,19.377216 L9.44416799,20.617824 C9.55856583,20.7315352 9.74331415,20.7315352 9.85771199,20.617824 L11.7186,18.756936 L11.92536,18.963696 L10.064472,20.824584 Z M15.707688,19.530048 L15.190584,20.046768 L14.783088,20.453976 C14.6597585,20.5775237 14.4922965,20.6468576 14.317728,20.6466485 L14.316984,20.6466485 C14.296936,20.6466485 14.276936,20.645712 14.256984,20.64384 L14.25096,20.643216 C14.233024,20.641408 14.215168,20.638848 14.197392,20.635536 C14.193768,20.634864 14.190192,20.634168 14.186568,20.633448 C14.05845,20.6115569 13.9396267,20.5523873 13.844952,20.463336 L10.961712,17.577816 L8.82652799,15.448344 L8.82652799,15.448344 L8.40153599,14.0256 L8.40153599,14.0256 L8.19614398,13.349232 L8.15534398,13.18668 C8.15534398,13.186536 8.15534398,13.186416 8.15534398,13.186272 C8.15374398,13.18104 8.15236798,13.175832 8.15121598,13.170648 C8.15078398,13.168752 8.15049598,13.16688 8.15011198,13.164984 C8.14943998,13.161552 8.14871998,13.15812 8.14819198,13.154712 C8.14787998,13.152504 8.14768798,13.15032 8.14742398,13.148136 C8.14703998,13.145064 8.14663198,13.141992 8.14639198,13.13892 C8.14619998,13.13652 8.14617598,13.134336 8.14605598,13.132056 C8.14605598,13.129128 8.14574398,13.1262 8.14574398,13.123296 C8.14574398,13.122864 8.14574398,13.122384 8.14574398,13.121952 C8.14574398,13.118664 8.14588798,13.115424 8.14603198,13.11216 C8.14603198,13.111224 8.14603198,13.110264 8.14603198,13.109304 C8.14629598,13.104504 8.14675198,13.099968 8.14732798,13.095336 C8.14747198,13.09416 8.14768798,13.092936 8.14785598,13.091808 C8.14835998,13.0884 8.14888798,13.084992 8.14953598,13.081632 C8.14984798,13.08 8.15023198,13.078392 8.15056798,13.076832 C8.15119198,13.073976 8.15186398,13.071096 8.15258398,13.068264 C8.15303998,13.066512 8.15354398,13.064808 8.15402398,13.06308 C8.15481598,13.060368 8.15563198,13.057704 8.15642398,13.05504 C8.15696798,13.053312 8.15754398,13.051608 8.15815198,13.049928 C8.15911198,13.047264 8.16014398,13.044624 8.16119998,13.042008 C8.16184798,13.0404 8.16247198,13.038792 8.16314398,13.037208 C8.16434398,13.034424 8.16554398,13.031664 8.16695998,13.028928 C8.16760798,13.027608 8.16820798,13.026264 8.16887998,13.024944 C8.17079998,13.021104 8.17286398,13.017336 8.17499998,13.01364 C8.17499998,13.013448 8.17519198,13.01328 8.17531198,13.013112 C8.17756798,13.009224 8.17996798,13.005456 8.18251198,13.001736 C8.18332798,13.000536 8.18419198,12.999336 8.18491198,12.998184 C8.18666398,12.995784 8.18841598,12.993216 8.19026398,12.990816 C8.19129598,12.989448 8.19239998,12.988104 8.19345598,12.98676 C8.19520798,12.9846 8.19695998,12.982464 8.19875998,12.980352 C8.19993598,12.978984 8.20115998,12.97764 8.20233598,12.97632 C8.20418398,12.97428 8.20603198,12.972312 8.20792798,12.970368 C8.20917598,12.969072 8.21032798,12.9678 8.21171998,12.966552 C8.21371198,12.964584 8.21577598,12.962664 8.21786398,12.960768 L8.22158398,12.957408 C8.22398398,12.95532 8.22638398,12.953304 8.22897598,12.951312 C8.22998398,12.95052 8.23094398,12.94968 8.23197598,12.948912 C8.23552798,12.9462 8.23917598,12.94356 8.24284798,12.941064 L8.24505598,12.939648 C8.24805598,12.937656 8.25110398,12.935712 8.25422398,12.933888 C8.25559198,12.933072 8.25698398,12.932328 8.25835198,12.931488 C8.26089598,12.930048 8.26346398,12.928632 8.26605598,12.927312 C8.26763998,12.926496 8.26922398,12.925752 8.27085598,12.924912 C8.27325598,12.923712 8.27589598,12.922512 8.27843998,12.921408 C8.28009598,12.920712 8.28175198,12.919992 8.28343198,12.91932 C8.28602398,12.918264 8.28863998,12.91728 8.29125598,12.91632 L8.29627198,12.914544 C8.29907998,12.913608 8.30191198,12.912768 8.30479198,12.911928 C8.30632798,12.911496 8.30783998,12.911016 8.30937598,12.910608 C8.31295198,12.909648 8.31657598,12.908832 8.32017598,12.908064 C8.32106398,12.907896 8.32190398,12.907656 8.32279198,12.907488 C8.32730398,12.906576 8.33188798,12.905856 8.33649598,12.905256 C8.33771998,12.905088 8.33889598,12.904992 8.34016798,12.904872 C8.34357598,12.904488 8.34698398,12.904128 8.35043998,12.903912 C8.35211998,12.903912 8.35384798,12.903768 8.35555198,12.903696 C8.35857598,12.903696 8.36159998,12.9035021 8.36464798,12.9035021 C8.36649598,12.9035021 8.36834398,12.9035021 8.37021598,12.9035021 C8.37317598,12.9035021 8.37615198,12.903648 8.37914398,12.903936 C8.38101598,12.903936 8.38291198,12.9042 8.38480798,12.904392 C8.38785598,12.90468 8.39090398,12.905064 8.39397598,12.905472 L8.39947198,12.906264 C8.40280799,12.906816 8.40616799,12.907488 8.40952799,12.908184 C8.41106399,12.90852 8.41262399,12.908784 8.41418399,12.909144 C8.41898399,12.910296 8.42402399,12.911544 8.42896799,12.91308 L8.91501599,13.051848 L9.26848799,13.159032 L9.26848799,13.159032 L10.689288,13.584912 L15.702408,18.594504 C15.7740812,18.6658774 15.8291396,18.752173 15.863664,18.847248 C15.863664,18.847488 15.863808,18.847752 15.863904,18.847992 C15.870288,18.866328 15.87576,18.884904 15.880488,18.903624 C15.885216,18.922344 15.88896,18.940992 15.891984,18.959856 C15.89292,18.965592 15.893808,18.971352 15.894576,18.977112 C15.9221693,19.1805075 15.8530188,19.3850995 15.707688,19.530048 L15.707688,19.530048 Z M16.06068,14.828448 L14.199792,16.689336 L13.993032,16.482576 L15.85392,14.621688 C15.9676312,14.5072902 15.9676312,14.3225418 15.85392,14.208144 L14.613312,12.96756 C14.4989224,12.8538516 14.3141816,12.8538516 14.199792,12.96756 L13.993032,13.17432 L14.509944,13.691232 C14.5670458,13.7483272 14.5670512,13.8409022 14.509956,13.898004 C14.4528608,13.9551058 14.3602858,13.9551112 14.303184,13.898016 L13.786248,13.38108 L13.3728,13.794552 L13.68288,14.1048 C13.739053,14.1620509 13.7386167,14.2538677 13.6819022,14.3105822 C13.6251877,14.3672967 13.5333709,14.367733 13.47612,14.31156 L13.165968,14.001408 L12.752424,14.414952 L13.269336,14.931864 C13.325509,14.9891149 13.3250727,15.0809317 13.2683582,15.1376462 C13.2116437,15.1943607 13.1198269,15.194797 13.062576,15.138624 L12.545664,14.621712 L12.338904,14.828472 L12.132144,14.621712 L13.993032,12.7608 C14.2218086,12.5333542 14.5913194,12.5333542 14.820096,12.7608 L16.0608,14.001312 C16.2882458,14.2300886 16.2882458,14.5995994 16.0608,14.828376 L16.06068,14.828448 Z M12,10.44 C14.3858701,10.44 16.32,8.5058701 16.32,6.11999998 C16.32,3.73412985 14.3858701,1.79999996 12,1.79999996 C9.61412987,1.79999996 7.67999998,3.73412985 7.67999998,6.11999998 C7.67999998,8.5058701 9.61412987,10.44 12,10.44 Z" fill="#000000"></path>
    </g>
</svg>