<svg xmlns="http://www.w3.org/2000/svg" width="24" height="24"><path fill-rule="evenodd" d="M16.235 5.001c-1.588 0-3.032.407-4.235 1.132C10.797 5.408 9.353 5 7.765 5H3v10.552c0 .523.424.95.953.95l3.812.002c.847 0 1.655.141 2.372.44.535.224 1.472.89 1.472.89.18.123.237.165.391.165.154 0 .212-.042.391-.165 0 0 .937-.666 1.472-.89.717-.299 1.525-.441 2.372-.441h3.812a.963.963 0 0 0 .676-.28.94.94 0 0 0 .277-.671V5l-4.765.001Zm3.706 9.932c0 .29-.236.524-.53.526h-3.176c-1.059 0-1.936.169-2.784.523-.401.168-1.133.617-1.133.617a.57.57 0 0 1-.318.088.571.571 0 0 1-.318-.088s-.732-.45-1.133-.617c-.848-.354-1.725-.523-2.784-.523H4.588a.528.528 0 0 1-.53-.526v-.522h3.705c1.589 0 3.034.41 4.237 1.134 1.203-.725 2.647-1.132 4.235-1.132h3.706v.52ZM4.588 7.091h4.236c.29.003.523.237.523.523 0 .287-.233.52-.523.524H4.588a.527.527 0 0 1-.524-.524c0-.286.234-.52.524-.524Zm0 2.093h4.236c.292 0 .529.234.529.523a.526.526 0 0 1-.53.523H4.589a.526.526 0 0 1-.523-.523c0-.286.233-.52.523-.523Zm0 2.09h2.118c.293 0 .53.235.53.524 0 .29-.237.524-.53.524H4.588a.527.527 0 0 1-.524-.524c0-.287.234-.521.524-.524Zm12.253 1.418a.556.556 0 0 1-.386.152.575.575 0 0 1-.394-.15.532.532 0 0 1-.169-.42.547.547 0 0 1 .163-.402.544.544 0 0 1 .4-.164.555.555 0 0 1 .552.566.537.537 0 0 1-.166.418Zm1.384-3.518c-.08.154-.182.296-.304.42a22.37 22.37 0 0 1-.632.595 2.597 2.597 0 0 0-.202.207.845.845 0 0 0-.113.163.812.812 0 0 0-.057.148 5.9 5.9 0 0 0-.062.26c-.046.264-.193.395-.44.395a.445.445 0 0 1-.325-.129c-.087-.086-.131-.214-.131-.383 0-.213.032-.397.096-.553.06-.15.147-.29.256-.41a5.92 5.92 0 0 1 .43-.42c.158-.142.272-.249.343-.321.07-.072.13-.153.177-.241a.679.679 0 0 0-.148-.802.794.794 0 0 0-.569-.209c-.271 0-.472.07-.6.21-.128.142-.237.349-.326.622-.084.286-.244.43-.478.43a.464.464 0 0 1-.35-.15.465.465 0 0 1-.143-.326c0-.24.075-.484.226-.731.15-.247.37-.452.66-.614a2.033 2.033 0 0 1 1.011-.243c.358 0 .675.068.95.204.273.135.485.32.635.552.147.227.225.49.224.76 0 .215-.043.404-.128.566Z"/></svg>