<?xml version="1.0" encoding="UTF-8"?>
<svg width="24px" height="24px" viewBox="0 0 24 24" version="1.1" xmlns="http://www.w3.org/2000/svg" xmlns:xlink="http://www.w3.org/1999/xlink">
    <title>icons/functional_UI/A-E/mdpi/ic_Buy</title>
    <g id="icons/functional_UI/A-E/ic_Buy" stroke="none" stroke-width="1" fill="none" fill-rule="evenodd">
        <path d="M21.20472,9.30959999 L15.888,9.30959999 L15.888,6.55279198 C15.888,4.44035997 14.172,2.71199996 12.060004,2.71199996 C9.94799999,2.71199996 8.23199998,4.44035997 8.23199998,6.55279198 L8.23199998,9.30959999 L2.75999996,9.30959999 C2.32766978,9.30973979 1.92881304,9.54235072 1.7158082,9.91856654 C1.50280336,10.2947824 1.50856042,10.7564764 1.73087996,11.127264 L6.35999998,21.312 L17.52,21.312 L22.23384,11.127192 C22.34232,10.946904 22.44,10.735656 22.44,10.509768 C22.44,9.84700799 21.8676,9.30959999 21.20472,9.30959999 Z M3.95999997,11.710032 L8.15999998,11.710032 L8.62151999,14.710632 L5.37479997,14.710632 L3.95999997,11.710032 Z M7.55999998,19.511616 L6.11999998,16.511016 L8.89847999,16.511016 L9.35999999,19.511616 L7.55999998,19.511616 Z M12.96,19.511616 L11.04,19.511616 L10.56,16.511016 L13.44,16.511016 L12.96,19.511616 Z M13.68,14.710632 L10.44,14.710632 L9.95999999,11.710032 L14.04,11.710032 L13.68,14.710632 Z M14.08776,9.30959999 L10.0332,9.30959999 L10.0300559,6.55286398 C10.0265425,5.82550658 10.4125532,5.15188192 11.0418802,4.78717821 C11.6712073,4.4224745 12.4475927,4.4224745 13.0769198,4.78717821 C13.7062468,5.15188192 14.0922575,5.82550658 14.0887441,6.55286398 L14.08776,9.30959999 Z M16.44,19.511616 L14.63256,19.511616 L15.12,16.511016 L17.88,16.511016 L16.44,19.511616 Z M18.6252,14.710632 L15.3432,14.710632 L15.72,11.710032 L19.92408,11.710032 L18.6252,14.710632 Z" fill="#000000"></path>
    </g>
</svg>