<?xml version="1.0" encoding="UTF-8"?>
<svg width="24px" height="24px" viewBox="0 0 24 24" version="1.1" xmlns="http://www.w3.org/2000/svg" xmlns:xlink="http://www.w3.org/1999/xlink">
    <title>icons/functional_UI/A-E/mdpi/ic_Book_recipe</title>
    <g id="icons/functional_UI/A-E/ic_Book_recipe" stroke="none" stroke-width="1" fill="none" fill-rule="evenodd">
        <path d="M18.6,4.19999997 L18.6,1.79999996 L5.99999997,1.79999996 C5.00709103,1.80289975 4.20289976,2.60709102 4.19999997,3.59999996 L4.19999997,20.4 C4.20289976,21.392909 5.00709103,22.1971003 5.99999997,22.2 L19.8,22.2 L19.8,4.19999997 L18.6,4.19999997 Z M16.42128,13.42032 L16.05864,13.42032 C15.9844211,13.4203253 15.9226709,13.4773737 15.9168,13.55136 L15.72936,15.92736 C15.72912,15.93048 15.72912,15.93384 15.72912,15.93696 C15.72672,16.74696 15.11304,17.40288 14.35656,17.40288 L9.66743999,17.40288 C8.91095999,17.40288 8.29727998,16.74696 8.29487998,15.93696 C8.29487998,15.93384 8.29487998,15.93048 8.29463998,15.92736 L8.10719998,13.55136 C8.10132907,13.4773737 8.03957889,13.4203253 7.96535998,13.42032 L7.60271998,13.42032 C7.36704903,13.42032 7.17599998,13.229271 7.17599998,12.9936 C7.17599998,12.7579291 7.36704903,12.56688 7.60271998,12.56688 L16.42128,12.56688 C16.656951,12.56688 16.848,12.7579291 16.848,12.9936 C16.848,13.229271 16.656951,13.42032 16.42128,13.42032 L16.42128,13.42032 Z M11.59848,9.65423999 C11.5558911,9.65414377 11.5155127,9.63526837 11.4881253,9.60265321 C11.4607378,9.57003806 11.4491296,9.52700383 11.4564,9.48503999 C11.4698654,9.41520163 11.5314417,9.3650508 11.60256,9.36598674 L12.46296,9.36598674 C12.5055222,9.36604128 12.5458963,9.3848658 12.5732893,9.41744128 C12.6006823,9.45001676 12.6123012,9.49302177 12.60504,9.53495999 C12.5915965,9.6048462 12.5300425,9.65507994 12.45888,9.65423999 C12.3816043,9.65423999 12.31896,9.71688431 12.31896,9.79415999 L12.31896,9.93623999 C13.61232,9.97271999 14.82384,10.25352 15.876,10.72008 C15.9656869,10.7586135 16.057519,10.7919487 16.15104,10.81992 C16.2871306,10.8621684 16.3719253,10.9975212 16.3505641,11.1384087 C16.329203,11.2792961 16.2080977,11.38344 16.0656,11.38344 L7.99583998,11.38344 C7.85334234,11.38344 7.73223699,11.2792961 7.71087586,11.1384087 C7.68951472,10.9975212 7.77430939,10.8621684 7.91039998,10.81992 C8.00392097,10.7919487 8.09575308,10.7586135 8.18543998,10.72008 C9.23759999,10.25352 10.44912,9.97271999 11.74248,9.93623999 L11.74248,9.79823999 C11.74248,9.71871099 11.678009,9.65423999 11.59848,9.65423999 L11.59848,9.65423999 Z M17.4,4.19999997 L5.99999997,4.19999997 C5.66862912,4.19999997 5.39999997,3.93137082 5.39999997,3.59999996 C5.39999997,3.26862911 5.66862912,2.99999996 5.99999997,2.99999996 L17.4,2.99999996 L17.4,4.19999997 Z" fill="#000000"></path>
    </g>
</svg>