<?xml version="1.0" encoding="UTF-8"?>
<svg width="24px" height="24px" viewBox="0 0 24 24" version="1.1" xmlns="http://www.w3.org/2000/svg" xmlns:xlink="http://www.w3.org/1999/xlink">
    <title>icons/functional_UI/A-E/mdpi/ic_Book_childrens</title>
    <g id="icons/functional_UI/A-E/ic_Book_childrens" stroke="none" stroke-width="1" fill="none" fill-rule="evenodd">
        <path d="M5.99999997,22.2 C5.00709103,22.1971003 4.20289976,21.392909 4.19999997,20.4 L4.19999997,3.59999996 C4.20289976,2.60709102 5.00709103,1.80289975 5.99999997,1.79999996 L18.6,1.79999996 L18.6,4.19999997 L19.8,4.19999997 L19.8,22.2 L5.99999997,22.2 Z M17.4,2.99999996 L5.99999997,2.99999996 C5.66902851,3.00096219 5.4009622,3.2690285 5.39999997,3.59999996 L5.39999997,3.59999996 C5.4009622,3.93097143 5.66902851,4.19903774 5.99999997,4.19999997 L17.4,4.19999997 L17.4,2.99999996 Z M15.0960029,10.745448 C14.3745349,10.7439253 13.7909034,10.1578332 13.792416,9.43636799 L13.792416,9.49276799 L13.788984,9.49276799 C13.791072,9.52826399 13.792416,9.56397599 13.792416,9.59999999 C13.7957413,10.2425783 13.4548378,10.837773 12.8988963,11.1600259 C12.3429548,11.4822788 11.6570452,11.4822788 11.1011037,11.1600259 C10.5451622,10.837773 10.2042587,10.2425783 10.207584,9.59999999 C10.207584,9.54479999 10.21044,9.49029599 10.215288,9.43636799 L10.207584,9.43636799 C10.2090966,10.1578332 9.62546514,10.7439253 8.90399706,10.745448 L8.90399706,10.745448 L8.90399706,10.09092 C8.90326722,9.74445578 9.04019723,9.41189084 9.28466682,9.16638605 C9.52913641,8.92088126 9.86111978,8.78254721 10.207584,8.78181599 L10.403616,8.78181599 C10.7079804,8.17965179 11.3252857,7.79998963 12,7.79998963 C12.6747143,7.79998963 13.2920196,8.17965179 13.596384,8.78181599 L13.792416,8.78181599 C14.1388802,8.78254721 14.4708636,8.92088126 14.7153332,9.16638605 C14.9598028,9.41189084 15.0967328,9.74445578 15.0960029,10.09092 L15.0960029,10.745448 L15.0960029,10.745448 L15.0960029,10.745448 Z M10.413048,11.290872 C11.3028161,12.1345546 12.6971839,12.1345546 13.586952,11.290872 C14.3099381,11.6515922 14.7648984,12.3920372 14.7600392,13.2 L14.7600392,14.352 C14.7600392,14.894232 14.34,15.336 13.8,15.336 L13.8,17.948496 C13.7970165,18.3101439 13.5022816,18.60136 13.140624,18.6000048 L10.859376,18.6000048 C10.499376,18.6000048 10.2,18.313488 10.2,17.952 L10.2,15.336 C9.65999999,15.336 9.23996083,14.894232 9.23996083,14.352 L9.23996083,13.2 C9.23510158,12.3920372 9.69006189,11.6515922 10.413048,11.290872 L10.413048,11.290872 Z" fill="#000000"></path>
    </g>
</svg>