<?xml version="1.0" encoding="UTF-8"?>
<svg width="24px" height="24px" viewBox="0 0 24 24" version="1.1" xmlns="http://www.w3.org/2000/svg" xmlns:xlink="http://www.w3.org/1999/xlink">
    <title>icons/functional_UI/A-E/mdpi/ic_Birth</title>
    <g id="icons/functional_UI/A-E/ic_Birth" stroke="none" stroke-width="1" fill="none" fill-rule="evenodd">
        <path d="M14.04,1.67999996 C18.546648,1.67999996 22.2,5.33335197 22.2,9.83999999 L14.04,9.83999999 L14.04,1.67999996 Z M17.4,10.32 L22.2,10.32 C22.2,12.970968 20.050968,15.12 17.4,15.12 L10.2,15.12 C7.87111198,15.12 5.92987197,13.46136 5.49247197,11.260992 L1.97572796,7.74427198 L1.97572796,7.74427198 C1.74141563,7.50995303 1.741421,7.13005231 1.97573996,6.89573998 C2.21005891,6.66142765 2.58995963,6.66143302 2.82427196,6.89575198 L2.82427196,6.89575198 L6.24851998,10.32 L17.4,10.32 Z M9.29999999,15.72 C11.1225397,15.72 12.6,17.1974603 12.6,19.02 C12.6,20.8425397 11.1225397,22.32 9.29999999,22.32 C7.47746031,22.32 5.99999998,20.8425397 5.99999998,19.02 C5.99999998,17.1974603 7.47746031,15.72 9.29999999,15.72 Z M9.29999999,21.12 C10.459798,21.12 11.4,20.179798 11.4,19.02 C11.4,17.860202 10.459798,16.92 9.29999999,16.92 C8.14020201,16.92 7.19999998,17.860202 7.19999998,19.02 C7.20132257,20.1792497 8.14075029,21.1186774 9.29999999,21.12 L9.29999999,21.12 Z M17.7,15.72 C19.5225397,15.72 21,17.1974603 21,19.02 C21,20.8425397 19.5225397,22.32 17.7,22.32 C15.8774603,22.32 14.4,20.8425397 14.4,19.02 C14.4,17.1974603 15.8774603,15.72 17.7,15.72 Z M17.7,21.12 C18.859798,21.12 19.8,20.179798 19.8,19.02 C19.8,17.860202 18.859798,16.92 17.7,16.92 C16.540202,16.92 15.6,17.860202 15.6,19.02 C15.6013226,20.1792497 16.5407503,21.1186774 17.7,21.12 L17.7,21.12 Z" fill="#000000"></path>
    </g>
</svg>