<?xml version="1.0" encoding="UTF-8"?>
<svg width="24px" height="24px" viewBox="0 0 24 24" version="1.1" xmlns="http://www.w3.org/2000/svg" xmlns:xlink="http://www.w3.org/1999/xlink">
    <title>icons/functional_UI/A-E/mdpi/ic_Backup</title>
    <g id="icons/functional_UI/A-E/ic_Backup" stroke="none" stroke-width="1" fill="none" fill-rule="evenodd">
        <path d="M13.2,22.2 C13.577856,22.2 13.7754,22.07196 14.031792,21.80316 C14.280792,21.542112 14.4,21.185424 14.4,20.808 L14.4,18.6 L19.8,18.6 L19.8,3.59999996 C19.8,2.60588741 18.9941126,1.79999996 18,1.79999996 L4.19999997,1.79999996 L4.19999997,16.8 C4.19999997,17.7941126 5.00588742,18.6 5.99999997,18.6 L9.59999999,18.6 L9.59999999,20.805 C9.59999999,21.5466 10.052736,22.153392 10.8,22.2 L13.2,22.2 Z M10.2,18 L8.39999999,18 L11.407512,15.06024 C11.559552,14.907912 11.75388,14.751456 12.0432,14.751456 C12.272808,14.751456 12.491472,14.855136 12.693096,15.057072 L15.6,18 L13.8,18 L13.8,20.808 C13.8,21.268032 13.638768,21.6 13.2,21.6 L10.8,21.6 C10.368336,21.576 10.2,21.233544 10.2,20.808 L10.2,18 Z M13.182,12.6 L10.797,12.6 L11.305128,9.43679999 C10.6972692,9.11376978 10.3872955,8.41846769 10.5533245,7.75042935 C10.7193535,7.08239101 11.3187659,6.61310063 12.0071264,6.61222139 C12.6954868,6.61134461 13.2960944,7.07910436 13.4638271,7.74671697 C13.6315597,8.41432959 13.3233608,9.11042018 12.716328,9.43499999 L13.182,12.6 Z M18.6,17.4 L15.59412,17.4 L15,16.8 L18,16.8 L18,3.59999996 L5.99999997,3.59999996 L5.99999997,16.8 L8.98859999,16.8 L8.39999997,17.4 L6.59999998,17.4 C5.93906397,17.4 5.39999997,16.837752 5.39999997,16.176 L5.39999997,2.99999996 L17.4,2.99999996 C18.0623307,3.00099123 18.5990088,3.5376693 18.6,4.19999997 L18.6,17.4 L18.6,17.4 Z" fill="#000000"></path>
    </g>
</svg>