<?xml version="1.0" encoding="UTF-8"?>
<svg width="24px" height="24px" viewBox="0 0 24 24" version="1.1" xmlns="http://www.w3.org/2000/svg" xmlns:xlink="http://www.w3.org/1999/xlink">
    <title>icons/functional_UI/A-E/mdpi/ic_Birthday</title>
    <g id="icons/functional_UI/A-E/ic_Birthday" stroke="none" stroke-width="1" fill="none" fill-rule="evenodd">
        <path d="M19.8,11.4 L19.2,11.4 L19.2,7.79999998 C19.2,7.46862913 18.9313709,7.19999998 18.6,7.19999998 L17.4,7.19999998 C17.0686292,7.19999998 16.8,7.46862913 16.8,7.79999998 L16.8,11.4 L13.2,11.4 L13.2,7.79999998 C13.2,7.46862913 12.9313709,7.19999998 12.6,7.19999998 L11.4,7.19999998 C11.0686291,7.19999998 10.8,7.46862913 10.8,7.79999998 L10.8,11.4 L7.19999998,11.4 L7.19999998,7.79999998 C7.19999998,7.46862913 6.93137083,7.19999998 6.59999998,7.19999998 L5.39999997,7.19999998 C5.06862912,7.19999998 4.79999996,7.46862913 4.79999996,7.79999998 L4.79999996,11.4 L4.19999997,11.4 C2.87451656,11.4 1.79999996,12.4745166 1.79999996,13.8 L1.79999996,16.2 C1.79999996,16.5313709 2.06862911,16.8 2.39999996,16.8 L2.39999996,22.2 L21.6,22.2 L21.6,16.8 C21.9313709,16.8 22.2,16.5313709 22.2,16.2 L22.2,13.8 C22.2,12.4745166 21.1254834,11.4 19.8,11.4 Z M20.4,21 L3.59999996,21 L3.59999996,18 C3.60019197,16.559664 4.53328797,15.6 6.02654398,15.6 C7.51979998,15.6 7.51984798,16.8 9.01312799,16.8 C10.506408,16.8 10.506456,15.6 11.99976,15.6 L12.00024,15.6 C13.493544,15.6 13.493544,16.8 14.986872,16.8 C16.4802,16.8 16.480152,15.6 17.973456,15.6 C19.46676,15.6 20.399808,16.559664 20.4,18 L20.4,21 Z M5.99999997,1.79999996 C5.99999997,1.79999996 4.19999997,3.61199997 4.19999997,4.79999996 C4.20011148,5.77592655 4.97807137,6.57391302 5.95367997,6.59882398 C5.4752542,6.57416832 5.09999105,6.17906064 5.09999997,5.69999997 C5.09999997,5.10599997 5.99999997,4.19999997 5.99999997,4.19999997 C5.99999997,4.19999997 6.89999998,5.10599997 6.89999998,5.69999997 C6.9000089,6.17906064 6.52474575,6.57416832 6.04631998,6.59882398 C7.02192858,6.57391302 7.79988847,5.77592655 7.79999998,4.79999996 C7.79999998,3.61199997 5.99999997,1.79999996 5.99999997,1.79999996 Z M12,1.79999996 C12,1.79999996 10.2,3.61199997 10.2,4.79999996 C10.2001115,5.77592655 10.9780714,6.57391302 11.95368,6.59882398 C11.4752542,6.57416832 11.0999911,6.17906064 11.1,5.69999997 C11.1,5.10599997 12,4.19999997 12,4.19999997 C12,4.19999997 12.9,5.10599997 12.9,5.69999997 C12.9000089,6.17906064 12.5247458,6.57416832 12.04632,6.59882398 C13.0219286,6.57391302 13.7998885,5.77592655 13.8,4.79999996 C13.8,3.61199997 12,1.79999996 12,1.79999996 Z M18,1.79999996 C18,1.79999996 16.2,3.61199997 16.2,4.79999996 C16.2001115,5.77592655 16.9780714,6.57391302 17.95368,6.59882398 C17.4752543,6.57416832 17.0999911,6.17906064 17.1,5.69999997 C17.1,5.10599997 18,4.19999997 18,4.19999997 C18,4.19999997 18.9,5.10599997 18.9,5.69999997 C18.9000089,6.17906064 18.5247458,6.57416832 18.04632,6.59882398 C19.0219286,6.57391302 19.7998885,5.77592655 19.8,4.79999996 C19.8,3.61199997 18,1.79999996 18,1.79999996 Z" fill="#000000"></path>
    </g>
</svg>