<svg width="24" height="24">
<path d="M9.7729 5.47525C9.40616 5.1586 8.98137 5 8.5 5C8.01814 5 7.59334 5.16026 7.22661 5.48078C6.85988 5.80129 6.5914 6.22239 6.42069 6.74406L3.11215 16.7857C3.03722 17.0133 3 17.3388 3 17.761C3.02171 17.9501 3.0819 18.1312 3.17598 18.2905C3.27007 18.4497 3.39556 18.583 3.5429 18.68C3.85108 18.8933 4.20292 19 4.59844 19C5.17608 19 5.59294 18.4645 5.85099 17.3935L6.14279 16.2176H10.8572L11.2388 17.7212C11.323 18.0529 11.4752 18.3582 11.6835 18.6132C11.8924 18.8712 12.1306 19 12.3971 19C12.804 19 13.1628 18.8922 13.4725 18.6778C13.7821 18.4629 13.9578 18.1578 14 17.761C14 17.3488 13.9623 17.0227 13.8878 16.7851L10.5788 6.74406C10.4081 6.21576 10.1396 5.79245 9.7729 5.47525ZM7.02265 13.4351L8.51786 8.28365L10.0086 13.4351H7.02265ZM15.4881 13.9926C15.3135 14.2353 15.2143 14.5404 15.1905 14.9081H16.881C16.9127 14.5993 17.0238 14.3787 17.2143 14.2463C17.4048 14.114 17.6667 14.0478 18 14.0478C18.1508 14.0478 18.2897 14.0588 18.4167 14.0809C18.5516 14.0956 18.6667 14.1324 18.7619 14.1912C18.8651 14.2426 18.9444 14.3199 19 14.4228C19.0635 14.5184 19.0952 14.6507 19.0952 14.8199C19.1032 14.9816 19.0516 15.1066 18.9405 15.1949C18.8294 15.2757 18.6786 15.3382 18.4881 15.3824C18.2976 15.4265 18.0794 15.4596 17.8333 15.4816C17.5873 15.5037 17.3373 15.5331 17.0833 15.5699C16.8294 15.6066 16.5754 15.6581 16.3214 15.7243C16.0754 15.7831 15.8532 15.875 15.6548 16C15.4643 16.125 15.3056 16.2941 15.1786 16.5074C15.0595 16.7132 15 16.9779 15 17.3015C15 17.5956 15.0516 17.8493 15.1548 18.0625C15.2659 18.2757 15.4167 18.4522 15.6071 18.5919C15.7976 18.7316 16.0198 18.8346 16.2738 18.9007C16.5278 18.9669 16.8016 19 17.0952 19C17.4762 19 17.8492 18.9485 18.2143 18.8456C18.5794 18.7426 18.8968 18.5625 19.1667 18.3051C19.1746 18.4007 19.1865 18.4963 19.2024 18.5919C19.2262 18.6801 19.254 18.7684 19.2857 18.8566H21C20.9206 18.739 20.8651 18.5625 20.8333 18.3272C20.8016 18.0919 20.7857 17.8456 20.7857 17.5882V14.6213C20.7857 14.2757 20.7024 14 20.5357 13.7941C20.369 13.5809 20.1548 13.4154 19.8929 13.2978C19.631 13.1801 19.3413 13.1029 19.0238 13.0662C18.7063 13.0221 18.3929 13 18.0833 13C17.7421 13 17.4008 13.0331 17.0595 13.0993C16.7262 13.1581 16.4246 13.261 16.1548 13.4081C15.8849 13.5551 15.6627 13.75 15.4881 13.9926ZM18.8214 16.2096C18.9325 16.1728 19.0238 16.125 19.0952 16.0662V16.6507C19.0952 16.739 19.0833 16.8566 19.0595 17.0037C19.0437 17.1507 18.9921 17.2978 18.9048 17.4449C18.8175 17.5846 18.6825 17.7059 18.5 17.8088C18.3175 17.9118 18.0595 17.9632 17.7262 17.9632C17.5913 17.9632 17.4603 17.9522 17.3333 17.9301C17.2063 17.9081 17.0952 17.8713 17 17.8199C16.9048 17.761 16.8294 17.6838 16.7738 17.5882C16.7183 17.4926 16.6905 17.375 16.6905 17.2353C16.6905 17.0882 16.7183 16.9669 16.7738 16.8713C16.8294 16.7757 16.9008 16.6985 16.9881 16.6397C17.0833 16.5735 17.1905 16.5221 17.3095 16.4853C17.4365 16.4485 17.5635 16.4191 17.6905 16.3971C17.8254 16.375 17.9603 16.3566 18.0952 16.3419C18.2302 16.3272 18.3571 16.3088 18.4762 16.2868C18.6032 16.2647 18.7183 16.239 18.8214 16.2096Z"/>
</svg>
