<?xml version="1.0" encoding="UTF-8"?>
<svg width="24px" height="24px" viewBox="0 0 24 24" version="1.1" xmlns="http://www.w3.org/2000/svg" xmlns:xlink="http://www.w3.org/1999/xlink">
    <title>icons/functional_UI/A-E/mdpi/ic_Coupon</title>
    <g id="icons/functional_UI/A-E/ic_Coupon" stroke="none" stroke-width="1" fill="none" fill-rule="evenodd">
        <path d="M10.342032,2.32768796 L21.624432,13.610088 C22.3275584,14.3132184 22.3275584,15.4532137 21.624432,16.156344 L16.107456,21.67308 C15.4043284,22.3761904 14.2643516,22.3761904 13.561224,21.67308 L2.27882396,10.39068 C1.94117213,10.0530289 1.75148125,9.59507527 1.75148125,9.11756399 C1.75148125,8.6400527 1.94117213,8.18209909 2.27882396,7.84444798 L7.79577598,2.32768796 C8.49890633,1.6245616 9.63890164,1.6245616 10.342032,2.32768796 Z M18.432,14.316 L16.97508,15.002664 L17.86932,16.277904 L16.24008,16.192008 L16.332024,17.714088 L14.967024,16.878648 L14.232,18.239784 L13.497,16.878648 L12.132,17.714088 L12.223944,16.192008 L10.594704,16.277904 L11.488944,15.002664 L10.032,14.316 L11.48892,13.629336 L10.59468,12.35412 L12.22392,12.440016 L12.132,10.917912 L13.497,11.753352 L14.232,10.39224 L14.966976,11.753352 L16.331976,10.917912 L16.240032,12.440016 L17.869272,12.35412 L16.975032,13.629336 L18.432,14.316 Z M12.500304,6.18345598 C12.6174093,6.30063193 12.6173711,6.49054853 12.5002187,6.60767739 C12.3830663,6.72480624 12.1931497,6.72480624 12.0759973,6.60767739 C11.9588449,6.49054853 11.9588067,6.30063193 12.075912,6.18345598 C12.1321781,6.12715592 12.2085117,6.09552402 12.288108,6.09552402 C12.3677043,6.09552402 12.4440379,6.12715592 12.500304,6.18345598 Z M11.651544,7.03219198 C11.7686591,7.14936443 11.768628,7.3392872 11.6514747,7.45642139 C11.5343214,7.57355558 11.3443986,7.57355558 11.2272453,7.45642139 C11.110092,7.3392872 11.1100609,7.14936443 11.227176,7.03219198 C11.2834411,6.97589927 11.3597696,6.94427203 11.43936,6.94427203 C11.5189504,6.94427203 11.5952789,6.97589927 11.651544,7.03219198 L11.651544,7.03219198 Z M10.802808,7.88092798 C10.9199133,7.99810394 10.9198751,8.18802054 10.8027227,8.30514939 C10.6855703,8.42227825 10.4956537,8.42227825 10.3785013,8.30514939 C10.2613489,8.18802054 10.2613107,7.99810394 10.378416,7.88092798 C10.4346821,7.82462793 10.5110157,7.79299603 10.590612,7.79299603 C10.6702083,7.79299603 10.7465419,7.82462793 10.802808,7.88092798 L10.802808,7.88092798 Z M9.95404799,8.72968799 C10.071163,8.84686044 10.071132,9.03678321 9.9539787,9.1539174 C9.83682538,9.27105159 9.6469026,9.27105159 9.52974928,9.1539174 C9.41259596,9.03678321 9.41256494,8.84686044 9.52967999,8.72968799 C9.58594512,8.67339528 9.66227357,8.64176804 9.74186399,8.64176804 C9.82145441,8.64176804 9.89778286,8.67339528 9.95404799,8.72968799 L9.95404799,8.72968799 Z M9.10531199,9.57839999 C9.22242704,9.69557244 9.22239602,9.88549522 9.1052427,10.0026294 C8.98808937,10.1197636 8.7981666,10.1197636 8.68101328,10.0026294 C8.56385995,9.88549522 8.56382893,9.69557244 8.68094399,9.57839999 C8.73720912,9.52210728 8.81353757,9.49048005 8.89312799,9.49048005 C8.9727184,9.49048005 9.04904685,9.52210728 9.10531199,9.57839999 Z M8.25655198,10.42716 C8.37366704,10.5443324 8.37363602,10.7342552 8.25648269,10.8513894 C8.13932937,10.9685236 7.9494066,10.9685236 7.83225327,10.8513894 C7.71509995,10.7342552 7.71506893,10.5443324 7.83218398,10.42716 C7.8884523,10.3708705 7.96478254,10.339252 8.04437296,10.339252 C8.12396337,10.339252 8.20029003,10.3708881 8.25655198,10.427184 L8.25655198,10.42716 Z M7.40781598,11.27592 C7.52493103,11.3930925 7.52490001,11.5830152 7.40774669,11.7001494 C7.29059337,11.8172836 7.10067059,11.8172836 6.98351727,11.7001494 C6.86636395,11.5830152 6.86633293,11.3930925 6.98344798,11.27592 C7.03971311,11.2196273 7.11604156,11.1880001 7.19563198,11.1880001 C7.2752224,11.1880001 7.35155085,11.2196273 7.40781598,11.27592 Z M6.55919998,12.1248 C6.67630528,12.241976 6.67626709,12.4318926 6.55911469,12.5490214 C6.44196228,12.6661503 6.25204568,12.6661503 6.13489327,12.5490214 C6.01774086,12.4318926 6.01770268,12.241976 6.13480798,12.1248 C6.19107408,12.0684999 6.26740768,12.036868 6.34700398,12.036868 C6.42660028,12.036868 6.50293387,12.0684999 6.55919998,12.1248 L6.55919998,12.1248 Z" fill="#000000"></path>
    </g>
</svg>