<?xml version="1.0" encoding="UTF-8"?>
<svg width="24px" height="24px" viewBox="0 0 24 24" version="1.1" xmlns="http://www.w3.org/2000/svg" xmlns:xlink="http://www.w3.org/1999/xlink">
    <title>icons/functional_UI/A-E/mdpi/ic_Call_Merge</title>
    <g id="icons/functional_UI/A-E/ic_Call_Merge" stroke="none" stroke-width="1" fill="none" fill-rule="evenodd">
        <path d="M4.56019197,18.831552 C4.37552955,19.0161046 4.27177805,19.2664776 4.27177805,19.527552 C4.27177805,19.7886265 4.37552955,20.0389994 4.56019197,20.223552 L5.04801597,20.71104 C5.43275637,21.0954445 6.05618757,21.0954445 6.44092798,20.71104 L10.7598,16.395024 L8.87903999,14.515464 L4.56019197,18.831552 Z M19.420224,18.7848 L13.279464,12.648 C12.9677931,12.3365787 12.7926683,11.9140567 12.792648,11.473464 L12.792648,7.62383998 L16.402008,7.62383998 L12.049752,3.27436796 C11.6834509,2.90841922 11.0899331,2.90841922 10.723632,3.27436796 L6.37139998,7.62383998 L10.1328,7.62383998 L10.1328,12.57444 C10.1328214,13.0150255 10.3079465,13.4375396 10.619616,13.748952 L17.539392,20.664312 C17.9500166,21.0745414 18.6153515,21.0745414 19.025976,20.664312 L19.420224,20.2704 C19.617344,20.0734594 19.7280999,19.806243 19.7280999,19.5276 C19.7280999,19.2489571 19.617344,18.9817406 19.420224,18.7848 Z" fill="#000000"></path>
    </g>
</svg>