<?xml version="1.0" encoding="UTF-8"?>
<svg width="24px" height="24px" viewBox="0 0 24 24" version="1.1" xmlns="http://www.w3.org/2000/svg" xmlns:xlink="http://www.w3.org/1999/xlink">
    <title>icons/functional_UI/A-E/mdpi/ic_Contact</title>
    <g id="icons/functional_UI/A-E/ic_Contact" stroke="none" stroke-width="1" fill="none" fill-rule="evenodd">
        <path d="M12,1.79999996 C6.36669598,1.79999996 1.79999996,6.36669598 1.79999996,12 C1.79999996,17.633304 6.36669598,22.2 12,22.2 C17.633304,22.2 22.2,17.633304 22.2,12 C22.2,6.36669598 17.633304,1.79999996 12,1.79999996 Z M12,21 C7.02943198,21 2.99999996,16.970568 2.99999996,12 C2.99999996,7.02943198 7.02943198,2.99999996 12,2.99999996 C16.970568,2.99999996 21,7.02943198 21,12 C21,16.970568 16.970568,21 12,21 Z M13.4304,5.08919997 C12.2739952,4.60552827 10.9523086,4.73233378 9.90896129,5.42705449 C8.86561402,6.12177521 8.23890961,7.2923207 8.23919988,8.54579999 C8.23919988,8.56259999 8.23960798,8.57954399 8.23982398,8.59639199 C8.26641626,10.6495246 9.941072,12.2984881 11.9943704,12.2933489 C14.0476688,12.2881856 15.7140297,10.6308402 15.73032,8.57759999 C15.73032,8.56699199 15.730728,8.55643199 15.730728,8.54579999 C15.7308469,7.03524005 14.8238589,5.67234974 13.4304,5.08919997 Z M15.301392,11.688216 C14.544768,12.401592 13.558248,12.960576 12.464592,13.068216 C12.306816,13.083736 12.146936,13.091584 11.984952,13.09176 C11.8428,13.09176 11.702208,13.085256 11.563176,13.073256 C10.446552,12.976704 9.43847999,12.414048 8.66855999,11.68812 C7.15452328,12.4329835 6.19560645,13.9737844 6.19595988,15.661128 L6.19595988,17.472672 C9.43130827,20.5652636 14.5233043,20.5778455 17.7738961,17.50128 L17.7738961,15.661128 C17.7742061,13.9738276 16.8153084,12.4330798 15.30132,11.688216 L15.301392,11.688216 Z" id="icons/functional_UI/A-EContact" fill="#000000"></path>
    </g>
</svg>