<?xml version="1.0" encoding="UTF-8"?>
<svg width="24px" height="24px" viewBox="0 0 24 24" version="1.1" xmlns="http://www.w3.org/2000/svg" xmlns:xlink="http://www.w3.org/1999/xlink">
    <title>icons/functional_UI/A-E/mdpi/ic_Currency_euro</title>
    <g id="icons/functional_UI/A-E/ic_Currency_euro" stroke="none" stroke-width="1" fill="none" fill-rule="evenodd">
        <path d="M21.6,7.19999998 L21.6,18 L2.99999996,18 L2.99999996,19.2 L22.8,19.2 L22.8,7.19999998 L21.6,7.19999998 Z M11.4,7.79999998 C9.41177489,7.79999998 7.79999998,9.41177489 7.79999998,11.4 C7.79999998,13.3882251 9.41177489,15 11.4,15 C13.3882251,15 15,13.3882251 15,11.4 C15,10.4452206 14.6207154,9.52954654 13.9455844,8.85441557 C13.2704535,8.17928461 12.3547794,7.79999998 11.4,7.79999998 L11.4,7.79999998 Z M13.1688,12.7824 C12.909432,13.390584 12.459672,13.669608 11.710728,13.669608 C11.23212,13.669608 10.839024,13.538544 10.542336,13.249896 C10.267248,12.982248 10.098336,12.637632 10.01652,12.228984 L9.76679999,12.228984 C9.58831199,12.228984 9.47159999,12.108672 9.47159999,11.933784 C9.47159999,11.756184 9.58559999,11.615928 9.76679999,11.615928 L9.97113599,11.615928 C9.97041599,11.547816 9.97113599,11.467992 9.97113599,11.434296 C9.97113599,11.38488 9.96859199,11.366184 9.97113599,11.275368 L9.76679999,11.275368 C9.58831199,11.275368 9.47159999,11.13252 9.47159999,10.957512 C9.47159999,10.782504 9.58826399,10.616952 9.76679999,10.616952 L10.0392,10.616952 C10.132464,10.185576 10.309176,9.80673599 10.584288,9.54355199 C10.879488,9.26109599 11.268936,9.13051199 11.710704,9.13051199 C12.434208,9.13051199 12.904296,9.42239999 13.147968,10.019784 C13.1725423,10.0716262 13.18486,10.1284272 13.183968,10.185792 C13.183968,10.323408 13.101336,10.44216 12.957216,10.501992 L12.951912,10.514808 L12.946296,10.514808 C12.90504,10.537512 12.850728,10.528392 12.798192,10.528392 C12.658872,10.528392 12.546816,10.434792 12.49056,10.299528 C12.335376,9.92649599 12.131184,9.78532799 11.710752,9.78532799 C11.224368,9.78532799 10.875336,10.049328 10.720368,10.616952 L12.26424,10.616952 C12.445392,10.616952 12.552096,10.777968 12.552096,10.952064 C12.552096,11.130408 12.442776,11.275368 12.26424,11.275368 L10.6296,11.275368 C10.62696,11.366184 10.6296,11.381328 10.6296,11.434296 C10.6296,11.466456 10.628784,11.547816 10.6296,11.615928 L11.99184,11.615928 C12.175704,11.615928 12.273456,11.753592 12.273456,11.933784 C12.273456,12.106032 12.16764,12.228984 11.99184,12.228984 L10.697664,12.228984 C10.837032,12.773784 11.195472,13.010808 11.710752,13.010808 C12.155808,13.010808 12.351096,12.867888 12.484728,12.53508 L12.485208,12.533832 L12.48576,12.532608 C12.549648,12.384432 12.664464,12.302832 12.808896,12.302832 C12.8500475,12.3034134 12.8908816,12.3101355 12.930048,12.322776 C13.086672,12.365304 13.2000262,12.501768 13.2000262,12.6432 C13.200629,12.6914015 13.1899427,12.7390784 13.1688,12.7824 L13.1688,12.7824 Z M5.69999997,10.5 C5.2029437,10.5 4.79999997,10.9029437 4.79999997,11.4 C4.79999997,11.8970563 5.2029437,12.3 5.69999997,12.3 C6.19705625,12.3 6.59999998,11.8970563 6.59999998,11.4 C6.59999998,11.1613052 6.50517882,10.9323866 6.33639608,10.7636039 C6.16761334,10.5948212 5.93869482,10.5 5.69999997,10.5 L5.69999997,10.5 Z M17.1,10.5 C16.6029437,10.5 16.2,10.9029437 16.2,11.4 C16.2,11.8970563 16.6029437,12.3 17.1,12.3 C17.5970563,12.3 18,11.8970563 18,11.4 C18,11.1613052 17.9051789,10.9323866 17.7363961,10.7636039 C17.5676134,10.5948212 17.3386949,10.5 17.1,10.5 L17.1,10.5 Z M21,5.39999997 L1.79999996,5.39999997 L1.79999996,17.4 L21,17.4 L21,5.39999997 Z M19.8,14.4 C18.8058875,14.4 18,15.2058875 18,16.2 L4.79999997,16.2 C4.79999997,15.7226103 4.61035766,15.2647733 4.27279217,14.9272078 C3.93522669,14.5896423 3.47738965,14.4 2.99999996,14.4 L2.99999996,8.39999999 C3.47738965,8.39999999 3.93522669,8.21035767 4.27279217,7.87279219 C4.61035766,7.53522671 4.79999997,7.07738966 4.79999997,6.59999998 L18,6.59999998 C18,7.59411253 18.8058875,8.39999999 19.8,8.39999999 L19.8,14.4 Z" fill="#000000"></path>
    </g>
</svg>