<svg width="24" height="24"><path d="M17.237 14.995c-1.124-.094-2.16-.627-3.127-1.166-.704-.428-1.353-.942-1.995-1.45-1.332 1.222-2.933 2.277-4.778 2.502-1.372.214-2.898-.236-3.72-1.386-.597-.733-.82-1.774-.403-2.641.573-1.35 2.183-2.037 3.605-1.812 1.9.231 3.622 1.463 5.009 2.693.373-.325.886-.893 1.407-1.215 1.35-1.047 3.101-1.769 4.841-1.432 1.167.31 2.337 1.067 2.771 2.225.301.821.16 1.783-.446 2.439-.752.918-1.997 1.295-3.164 1.243M6.865 14.46c1.587-.214 3.011-1.035 4.193-2.074 0 0 .229-.21.527-.51-1.025-1.036-2.667-2.105-4.01-2.408-1.422-.28-3.012.382-3.738 1.632-.591 1.18-.018 2.89 1.334 3.26.548.18 1.127.143 1.694.1m10.615-.031c1.222-.14 2.55-.845 2.837-2.117.24-.913-.15-1.942-.987-2.424-1.074-.668-2.461-.577-3.579-.063-1.285.545-2.435 1.375-3.41 2.356.99.976 2.2 1.774 3.546 2.18.522.13 1.063.113 1.593.068"/></svg>