<?xml version="1.0" encoding="UTF-8"?>
<svg width="24px" height="24px" viewBox="0 0 24 24" version="1.1" xmlns="http://www.w3.org/2000/svg" xmlns:xlink="http://www.w3.org/1999/xlink">
    <title>icons/functional_UI/A-E/mdpi/ic_Comics_french</title>
    <g id="icons/functional_UI/A-E/ic_Comics_french" stroke="none" stroke-width="1" fill="none" fill-rule="evenodd">
        <path d="M14.996928,1.77599996 C11.018856,1.77599996 7.79395198,3.86047197 7.79395198,6.43178398 C7.79670025,6.90585648 7.90536471,7.37332194 8.11199998,7.79999998 L1.79999996,7.79999998 L1.79999996,19.19952 C1.79999996,19.9954028 2.11636431,20.7586475 2.67921268,21.3213473 C3.24206106,21.8840472 4.00538919,22.2000001 4.80127197,22.2000001 L19.8,22.2000001 L19.8,9.88799999 C21.268536,9.03563999 22.2,7.80799198 22.2,6.43183198 C22.2,3.86047197 18.97512,1.77599996 14.996928,1.77599996 Z M7.19999998,21 L4.80127197,20.999808 C3.8073337,20.9988163 3.00176066,20.193458 3.00050396,19.19952 L2.99999996,8.99999999 L7.19999998,8.99999999 L7.19999998,21 Z M18.6,21 L8.99999999,21 L8.99999999,16.8 L18.6,16.8 L18.6,21 Z M18.6,15 L8.99999999,15 L8.99999999,8.99999999 C10.0824,10.047576 11.807592,10.8096 13.808664,11.024256 L13.174056,13.614672 L17.951544,10.679184 C18.176448,10.613712 18.38808,10.543488 18.6,10.464 L18.6,15 Z M19.9272,5.54959197 C19.7267658,5.98845607 19.5561782,6.44034685 19.4166,6.90218398 L18.661536,6.86959198 L19.454616,4.09379997 L20.589936,4.28392797 C20.28928,4.82355997 20.068368,5.24544797 19.9272,5.54959197 Z M19.17756,7.52687998 C19.2934,7.58486398 19.351344,7.67539998 19.351392,7.79848798 C19.351392,7.96509598 19.262664,8.11719998 19.085208,8.25479998 C18.9556082,8.35995103 18.7996753,8.42758337 18.634344,8.45035199 C18.503976,8.46841599 18.391712,8.45392799 18.297552,8.40688799 C18.185344,8.34899998 18.129216,8.25846398 18.129168,8.13527998 C18.129168,7.96873598 18.214272,7.81482398 18.38448,7.67354398 C18.5144488,7.56465173 18.6726954,7.49495063 18.840768,7.47256798 C18.9559472,7.45256386 19.0745079,7.47168329 19.17756,7.52687998 L19.17756,7.52687998 Z M18.12372,8.08639198 L17.015568,8.28194398 L17.211144,5.90267997 L16.499616,8.53725599 L15.902016,8.61873599 L16.260504,5.27255997 L15.489144,8.23850398 L14.3592,8.39059198 C14.388272,8.31699198 14.416912,8.24327198 14.44512,8.16943198 L13.511784,8.38516798 L13.593384,7.70613598 L13.229424,7.77676798 L13.115352,8.25479998 L11.974608,8.42860799 C12.50696,7.07059198 12.937904,5.76145597 13.26744,4.50119997 L14.918808,4.22416797 C14.753448,5.18759197 14.667672,6.30599198 14.66148,7.57936798 C15.0027721,6.60981792 15.2757203,5.61754879 15.47832,4.60984797 L16.776576,4.39799997 L16.589688,6.39098398 L17.098176,4.54991997 L18.346464,4.33281597 C18.19792,5.51345597 18.12368,6.57814398 18.123744,7.52687998 L18.123744,8.08639198 L18.12372,8.08639198 Z M13.9248,4.92479997 L13.41408,7.02719998 L13.6806,6.97550398 L13.9302,4.92496797 L13.9248,4.92496797 L13.9248,4.92479997 Z M12.528744,6.53279998 C12.5397217,6.58458952 12.5451841,6.63739596 12.54504,6.69033598 C12.54504,6.96195198 12.41464,7.23715198 12.15384,7.51593598 C11.9387601,7.74185414 11.6894517,7.93250034 11.415072,8.08087198 C11.06376,8.27642398 10.659976,8.37419998 10.20372,8.37419998 C10.13132,8.37419998 10.058888,8.37239198 9.98642399,8.36877598 C10.127656,7.62637598 10.283376,6.62867198 10.453584,5.37566397 C10.504272,5.02079997 10.538672,4.74195197 10.556784,4.53911997 C10.672624,4.52105597 10.889904,4.47216797 11.208624,4.39245597 C11.4268788,4.33784701 11.648168,4.29617447 11.871336,4.26765597 C11.93652,4.26407197 11.999896,4.26225597 12.061464,4.26220797 C12.539496,4.26220797 12.776696,4.43241597 12.773064,4.77283197 C12.773064,5.25451197 12.476112,5.73615997 11.882208,6.21777598 C12.255136,6.19246398 12.470616,6.29747198 12.528648,6.53279998 L12.528744,6.53279998 Z M11.132688,6.79898398 C11.103664,6.93658398 11.072888,7.12308798 11.04036,7.35849598 C11.550952,7.20283198 11.806256,7.02538398 11.806272,6.82615198 C11.806272,6.75375198 11.742904,6.71753598 11.616168,6.71750398 C11.503816,6.71756798 11.342624,6.74472798 11.132592,6.79898398 L11.132688,6.79898398 Z M11.735664,5.28885597 C11.663184,5.28885597 11.561784,5.30695997 11.431464,5.34316797 C11.402456,5.46268797 11.375256,5.58219997 11.349864,5.70170397 L11.273808,6.06021598 C11.538112,5.89725597 11.726424,5.70894397 11.838744,5.49527997 C11.8601467,5.46074298 11.8731737,5.42167828 11.876784,5.38120797 C11.8768,5.31967197 11.829728,5.28888797 11.735568,5.28885597 L11.735664,5.28885597 Z" fill="#000000"></path>
    </g>
</svg>