<?xml version="1.0" encoding="UTF-8"?>
<svg width="24px" height="24px" viewBox="0 0 24 24" version="1.1" xmlns="http://www.w3.org/2000/svg" xmlns:xlink="http://www.w3.org/1999/xlink">
    <title>icons/functional_UI/A-E/mdpi/ic_Car_geolocation</title>
    <g id="icons/functional_UI/A-E/ic_Car_geolocation" stroke="none" stroke-width="1" fill="none" fill-rule="evenodd">
        <path d="M22.776,15 C22.776,15.6626649 22.2386649,16.1998145 21.576,16.2 L20.376,16.2 C20.376,17.8568543 19.0328543,19.2 17.376,19.2 C15.7191458,19.2 14.376,17.8568543 14.376,16.2 L8.97599999,16.2 C8.97599999,17.8568543 7.63285423,19.2 5.97599997,19.2 C4.31914572,19.2 2.97599996,17.8568543 2.97599996,16.2 L2.37599996,16.2 C1.7133351,16.1998145 1.17599877,15.6626649 1.17599877,15 L1.17599877,10.807008 L1.17599877,10.807008 C1.17563916,10.5506818 1.25785974,10.3010577 1.41047996,10.09512 L1.41047996,10.09512 L1.41273596,10.09212 L1.41643196,10.0872 L5.01266397,5.28407997 C5.2389683,4.97923524 5.59633717,4.79965602 5.97599997,4.79999925 L13.776,4.79999925 C14.099622,4.7996456 14.4095883,4.9303856 14.6352,5.16239997 L14.64,5.15966397 L18.888,9.67199999 L18.888,9.67199999 L21.819672,10.232112 L21.81984,10.232328 C22.3765252,10.3476865 22.7757815,10.837968 22.776,11.40648 L22.776,11.40648 L22.776,15 Z M9.61761599,12.791856 L9.19214399,11.231184 L7.63214398,10.805544 L11.496144,8.95223999 L9.61761599,12.791856 Z M9.87599999,7.07999998 C7.88114398,7.07999998 6.26399998,8.68639199 6.26399998,10.668 C6.26399998,12.649608 7.88114398,14.256 9.87599999,14.256 C11.870856,14.256 13.488,12.649608 13.488,10.668 C13.488,8.68639199 11.870856,7.07999998 9.87599999,7.07999998 Z M9.89999999,13.68 C8.24978398,13.68 6.91199998,12.336864 6.91199998,10.68 C6.91199998,9.02313599 8.24978398,7.67999998 9.89999999,7.67999998 C11.550216,7.67999998 12.888,9.02313599 12.888,10.68 C12.888,12.336864 11.550216,13.68 9.89999999,13.68 Z" fill="#000000"></path>
    </g>
</svg>