<?xml version="1.0" encoding="UTF-8"?>
<svg width="24px" height="24px" viewBox="0 0 24 24" version="1.1" xmlns="http://www.w3.org/2000/svg" xmlns:xlink="http://www.w3.org/1999/xlink">
    <title>icons/functional_UI/A-E/mdpi/ic_Cloud_recording</title>
    <g id="icons/functional_UI/A-E/ic_Cloud_recording" stroke="none" stroke-width="1" fill="none" fill-rule="evenodd">
        <path d="M20.852592,12.792792 C20.9508015,12.3353705 21.0002617,11.8688296 21.000144,11.400984 C21.000144,7.75634398 18.045192,4.80179709 14.400144,4.80179709 C12.4031766,4.79993597 10.5131701,5.70405206 9.26140799,7.25999998 C8.50987,7.10079365 7.72609307,7.2690501 7.10611606,7.72268488 C6.48613906,8.17631966 6.08859284,8.87243282 6.01291198,9.63691199 C3.63892797,9.92639999 1.79999996,11.948736 1.79999996,14.4006 C1.79999996,17.051232 3.94905597,19.2 6.59999998,19.2 L18.6,19.2 C20.1278492,19.2001566 21.4893275,18.2357497 21.9960706,16.7943842 C22.5028137,15.3530187 22.0443953,13.7487879 20.852592,12.792792 L20.852592,12.792792 Z M9.56579999,12.2382 C9.46195999,12.148152 9.30616799,12.103104 9.09842399,12.103056 L8.10595198,12.103056 L8.10595198,13.258992 L9.09839999,13.258992 C9.30614399,13.258992 9.46193599,13.212984 9.56577599,13.120968 C9.66961599,13.028952 9.72155199,12.879432 9.72158399,12.672408 C9.72158399,12.47308 9.66967199,12.328344 9.56579999,12.2382 Z M9.84278399,15.507576 C9.7887996,15.357819 9.75767462,15.2007863 9.75045599,15.04176 C9.73891999,14.861616 9.72161599,14.689088 9.69854399,14.524176 C9.66767999,14.30952 9.60227999,14.152328 9.50234399,14.0526 C9.40240799,13.952872 9.23895999,13.903072 9.01199999,13.9032 L8.10592798,13.9032 L8.10592798,15.507648 L7.19999998,15.507648 L7.19999998,11.40144 L9.42155999,11.40144 C9.59213748,11.3988782 9.76161573,11.429148 9.92075999,11.4906 C10.0626182,11.5460609 10.1920557,11.6291303 10.301568,11.734992 C10.4062298,11.8368612 10.4887498,11.9592277 10.543968,12.09444 C10.6004182,12.234188 10.6288452,12.3836702 10.627632,12.534384 C10.627632,12.775984 10.576672,12.984928 10.474752,13.161216 C10.372832,13.337504 10.206432,13.471696 9.97555199,13.563792 L9.97555199,13.575288 C10.0772551,13.6009331 10.1719026,13.6490853 10.252512,13.716192 C10.3254423,13.7792675 10.386085,13.8552804 10.431384,13.9404 C10.478669,14.0298908 10.512689,14.1257821 10.532376,14.225064 C10.5533134,14.327569 10.5677422,14.4312963 10.575576,14.535624 C10.579384,14.600856 10.58324,14.677536 10.587144,14.765664 C10.591048,14.853792 10.597808,14.943888 10.607424,15.035952 C10.6163153,15.124172 10.6317336,15.2116115 10.653552,15.297552 C10.6714737,15.3730145 10.7038195,15.4442992 10.748808,15.50748 L9.84287999,15.50748 L9.84278399,15.507576 Z M14.435712,15.507576 L11.30832,15.507576 L11.30832,11.40144 L14.38956,11.40144 L14.38956,12.160536 L12.214224,12.160536 L12.214224,13.040424 L14.210688,13.040424 L14.210688,13.742136 L12.214224,13.742136 L12.214224,14.748552 L14.435712,14.748552 L14.435712,15.507576 L14.435712,15.507576 Z M18.469056,14.621976 C18.3781647,14.8216852 18.2487472,15.0014896 18.088224,15.15108 C17.9278684,15.2983729 17.7394686,15.4118323 17.53428,15.48468 C17.3100562,15.5635225 17.0737629,15.6025108 16.836096,15.59988 C16.520624,15.59988 16.236928,15.54524 15.985008,15.43596 C15.7423411,15.3333338 15.5248087,15.1793162 15.3474,14.98452 C15.1713233,14.7877772 15.0360168,14.5580653 14.949312,14.30868 C14.8552902,14.0398292 14.8084408,13.7567512 14.810832,13.471944 C14.8081747,13.1814747 14.8550041,12.8926742 14.949312,12.617928 C15.0359708,12.3650989 15.1712191,12.131649 15.347448,11.930712 C15.5239417,11.7327473 15.7415502,11.5757271 15.985056,11.470632 C16.23696,11.359496 16.520664,11.303904 16.836168,11.3038181 C17.0544204,11.3025388 17.2715243,11.3355251 17.479536,11.401608 C17.6756945,11.463812 17.8593177,11.5601898 18.021936,11.686296 C18.1831423,11.812786 18.3174994,11.9701601 18.417144,12.149208 C18.5245832,12.3446696 18.591317,12.5598684 18.61332,12.781824 L17.73624,12.781824 C17.7217246,12.6807612 17.6863518,12.5838211 17.632368,12.49716 C17.5782498,12.4106602 17.509979,12.3338707 17.430408,12.27 C17.2616985,12.1353237 17.0520627,12.0622869 16.836192,12.062976 C16.63224,12.062976 16.459136,12.102264 16.31688,12.18084 C16.1775584,12.2566857 16.0587444,12.3652375 15.970656,12.49716 C15.8797885,12.6349016 15.8143232,12.7878031 15.77736,12.948624 C15.736648,13.1200328 15.7163073,13.2956473 15.71676,13.471824 C15.7164029,13.6413934 15.7367535,13.810372 15.77736,13.975008 C15.8150592,14.1320034 15.8805209,14.2809951 15.970656,14.414952 C16.0593628,14.5455942 16.1780862,14.6530757 16.31688,14.728392 C16.459056,14.807016 16.63216,14.846312 16.836192,14.84628 C17.113168,14.84628 17.329544,14.761928 17.48532,14.593224 C17.641096,14.42452 17.736296,14.20212 17.77092,13.926024 L18.648,13.926024 C18.6291131,14.1666062 18.5685645,14.4020768 18.469056,14.621928 L18.469056,14.621976 Z" id="icons/functional_UI/A-ECloud_recording" fill="#000000"></path>
    </g>
</svg>