<svg width="24" height="24" viewBox="0 0 24 24" fill="none" xmlns="http://www.w3.org/2000/svg">
<path fill-rule="evenodd" clip-rule="evenodd" d="M4.5 3C3.67157 3 3 3.67157 3 4.5C3 5.32843 3.67157 6 4.5 6H11.5C12.3284 6 13 5.32843 13 4.5C13 3.67157 12.3284 3 11.5 3H4.5ZM4.5 17C3.67157 17 3 17.6716 3 18.5C3 19.3284 3.67157 20 4.5 20H19.5C20.3284 20 21 19.3284 21 18.5C21 17.6716 20.3284 17 19.5 17H4.5ZM21 11.5C21 10.6716 20.3284 10 19.5 10H18V9C18 8.44772 17.5523 8 17 8H7C6.44772 8 6 8.44771 6 9V10H4.5C3.67157 10 3 10.6716 3 11.5C3 12.3284 3.67157 13 4.5 13H6V14C6 14.5523 6.44771 15 7 15H17C17.5523 15 18 14.5523 18 14V13H19.5C20.3284 13 21 12.3284 21 11.5Z" fill="black"/>
</svg>
