<?xml version="1.0" encoding="UTF-8"?>
<svg width="24px" height="24px" viewBox="0 0 24 24" version="1.1" xmlns="http://www.w3.org/2000/svg" xmlns:xlink="http://www.w3.org/1999/xlink">
    <title>icons/functional_UI/A-E/mdpi/ic_Call_invite</title>
    <g id="icons/functional_UI/A-E/ic_Call_invite" stroke="none" stroke-width="1" fill="none" fill-rule="evenodd">
        <path d="M19.796664,1.79999996 L11.9952,1.79999996 C6.36191998,1.79999996 1.79944796,6.36542398 1.79944796,11.998728 C1.79944796,17.632032 6.36501598,22.2 11.99832,22.2 C17.631624,22.2 22.198968,17.633304 22.198968,12 L22.198176,4.19999997 C22.197487,2.87421162 21.1224526,1.79999996 19.796664,1.79999996 Z M15.17328,18.888168 C14.339928,19.724688 11.234664,18.932184 8.16503998,15.852624 C5.09603997,12.772488 4.29407997,9.77625599 5.13976797,8.82040799 C6.81604798,7.14820798 6.74188798,6.83008798 8.06272798,8.47847999 C9.38284799,10.126896 9.29522399,10.024944 7.98885598,11.3358 C7.46827198,11.858016 8.55525599,13.17936 9.69230399,14.3202 C10.829352,15.46104 12.145968,16.551744 12.666672,16.029792 C13.96716,14.724768 13.871472,14.630592 15.513696,15.955968 C17.156568,17.280744 16.94172,17.113608 15.17328,18.888168 Z M20.16,8.39999998 L18,8.39999998 L18,10.56 C18,10.6925483 17.8925484,10.8 17.76,10.8 L16.44,10.8 C16.3074517,10.8 16.2,10.6925483 16.2,10.56 L16.2,8.39999998 L14.04,8.39999998 C13.9074517,8.39999998 13.8,8.29254832 13.8,8.15999998 L13.8,6.83999998 C13.8,6.70745164 13.9074517,6.59999998 14.04,6.59999998 L16.2,6.59999998 L16.2,4.43999997 C16.2,4.30745163 16.3074517,4.19999997 16.44,4.19999997 L17.76,4.19999997 C17.8925484,4.19999997 18,4.30745163 18,4.43999997 L18,6.59999998 L20.16,6.59999998 C20.2925484,6.59999998 20.4,6.70745164 20.4,6.83999998 L20.4,8.15999998 C20.4,8.29254832 20.2925484,8.39999998 20.16,8.39999998 Z" fill="#000000"></path>
    </g>
</svg>