<?xml version="1.0" encoding="UTF-8"?>
<svg width="24px" height="24px" viewBox="0 0 24 24" version="1.1" xmlns="http://www.w3.org/2000/svg" xmlns:xlink="http://www.w3.org/1999/xlink">
    <title>icons/functional_UI/A-E/mdpi/ic_Crop</title>
    <g id="icons/functional_UI/A-E/ic_Crop" stroke="none" stroke-width="1" fill="none" fill-rule="evenodd">
        <path d="M21,16.2 L18.6,16.2 L18.6,6.24854398 L22.024248,2.82429596 C22.1758258,2.67271817 22.2350237,2.45178874 22.1795424,2.24472963 C22.1240611,2.03767052 21.9623295,1.87593895 21.7552704,1.82045763 C21.5482113,1.76497631 21.3272818,1.82417417 21.175704,1.97575196 L17.751456,5.39999997 L7.79999996,5.39999997 L7.79999996,2.99999996 C7.79999996,2.33725826 7.26274168,1.79999907 6.59999998,1.79999907 C5.93725827,1.79999907 5.39999997,2.33725826 5.39999997,2.99999996 L5.39999997,5.39999997 L2.99999996,5.39999997 C2.33725826,5.39999997 1.79999996,5.93725827 1.79999996,6.59999998 L1.79999996,6.59999998 C1.79999996,7.26274168 2.33725826,7.79999907 2.99999996,7.79999907 L5.39999997,7.79999907 L5.39999997,17.4 C5.39999997,18.0627417 5.93725827,18.6 6.59999998,18.6 L16.2,18.6 L16.2,21 C16.2,21.6627417 16.7372583,22.2 17.4,22.2 C18.0627417,22.2 18.6,21.6627417 18.6,21 L18.6,18.6 L21,18.6 C21.6627417,18.6 22.2000009,18.0627417 22.2000009,17.4 L22.2000009,17.4 C22.2000009,16.7372583 21.6627417,16.2 21,16.2 Z M15.351456,7.79999998 L7.79999998,15.35148 L7.79999998,7.79999998 L15.351456,7.79999998 Z M8.64851999,16.2 L16.2,8.64854399 L16.2,16.2 L8.64851999,16.2 Z" fill="#000000"></path>
    </g>
</svg>