<?xml version="1.0" encoding="UTF-8"?>
<svg width="24px" height="24px" viewBox="0 0 24 24" version="1.1" xmlns="http://www.w3.org/2000/svg" xmlns:xlink="http://www.w3.org/1999/xlink">
    <title>icons/functional_UI/A-E/mdpi/ic_Comments</title>
    <g id="icons/functional_UI/A-E/ic_Comments" stroke="none" stroke-width="1" fill="none" fill-rule="evenodd">
        <path d="M12,2.11199996 C6.36669598,2.11199996 1.79999996,5.73839997 1.79999996,10.212 C1.79999996,13.679136 4.54319997,16.6374 8.39999998,17.792976 L8.39999998,21.912 L12,18.312 C17.633304,18.312 22.2,14.6856 22.2,10.212 C22.2,5.73839997 17.633304,2.11199996 12,2.11199996 Z M10.669728,12.563592 C10.361536,12.844632 9.98063999,12.985056 9.52703999,12.9848642 C9.03302399,12.9848642 8.62182399,12.786872 8.29343998,12.390888 C7.96487998,11.994472 7.80067198,11.43076 7.80081598,10.699752 C7.79690597,10.0468378 7.94468399,9.40193674 8.23250398,8.81587199 C8.52029599,8.23055998 8.87229599,7.76687198 9.28850399,7.42480798 C9.70507999,7.08309598 10.075744,6.91215998 10.400496,6.91199998 C10.617024,6.91199998 10.786352,6.97625598 10.90848,7.10476798 C11.030384,7.23364798 11.091256,7.39951998 11.091096,7.60238398 C11.091096,7.90076798 10.959096,8.12081598 10.695096,8.26252798 C10.336056,8.45907199 10.051632,8.68939199 9.84182399,8.95348799 C9.63222399,9.21715199 9.51375999,9.54889599 9.48643199,9.94871999 L9.62894399,9.94871999 C10.014544,9.94871999 10.361456,10.095824 10.66968,10.390032 C10.977632,10.684576 11.131688,11.051896 11.131848,11.491992 C11.131848,11.925176 10.97784,12.282376 10.669728,12.563592 Z M15.138072,12.568392 C14.82964,12.859736 14.44884,13.005216 13.995672,13.0048328 C13.494328,13.0048328 13.081352,12.801784 12.756744,12.395688 C12.431832,11.989528 12.269376,11.424192 12.269376,10.69968 C12.2659489,10.1977608 12.351839,9.69923423 12.523032,9.22739999 C12.692136,8.76709599 12.910424,8.36601598 13.177896,8.02415998 C13.445512,7.68193598 13.733232,7.41101598 14.041056,7.21139998 C14.349152,7.01218398 14.625152,6.91238398 14.869056,6.91199998 C15.092016,6.91199998 15.26288,6.97463198 15.381648,7.09989598 C15.500048,7.22551198 15.559312,7.39300798 15.55944,7.60238398 C15.55944,7.90723198 15.427384,8.12727998 15.163272,8.26252798 C14.790936,8.47257599 14.510016,8.70449599 14.320512,8.95828799 C14.131008,9.21207999 14.015904,9.54222399 13.9752,9.94871999 L14.106936,9.94871999 C14.486136,9.94871999 14.82984,10.095824 15.138048,10.390032 C15.446016,10.684592 15.6,11.051912 15.6,11.491992 C15.6,11.918664 15.446024,12.277488 15.138072,12.568464 L15.138072,12.568392 Z" fill="#000000"></path>
    </g>
</svg>