<?xml version="1.0" encoding="UTF-8"?>
<svg width="24px" height="24px" viewBox="0 0 24 24" version="1.1" xmlns="http://www.w3.org/2000/svg" xmlns:xlink="http://www.w3.org/1999/xlink">
    <title>icons/functional_UI/A-E/mdpi/ic_Call_Split</title>
    <g id="icons/functional_UI/A-E/ic_Call_Split" stroke="none" stroke-width="1" fill="none" fill-rule="evenodd">
        <path d="M7.19999998,5.39999997 L9.59999999,2.99999996 L3.89896797,2.99999996 C3.40248165,2.99999996 2.99999996,3.40248165 2.99999996,3.89896797 L2.99999996,9.59999999 L5.39999997,7.19999998 L11.054592,12.854592 C11.2757517,13.0757504 11.3999986,13.3757059 11.4,13.688472 L11.4,20.080344 C11.4,20.588256 11.811744,21 12.319656,21 L12.880344,21 C13.388256,21 13.8,20.588256 13.8,20.080344 L13.8,12.488472 C13.8,12.1757059 13.6757517,11.8757504 13.454592,11.654592 L7.19999998,5.39999997 Z M21,3.91499997 C21,3.40965942 20.5903406,2.99999996 20.085,2.99999996 L14.4,2.99999996 L16.8,5.39999997 L12.9,9.29999999 L14.7,11.1 L18.6,7.19999998 L21,9.59999999 L21,3.91499997 Z" fill="#000000"></path>
    </g>
</svg>