<svg width="24" height="24"><path fill-rule="evenodd" d="m8.206 9.642-3.14 3.141a3.652 3.652 0 0 0 0 5.155l.971.988A3.62 3.62 0 0 0 8.63 20a3.62 3.62 0 0 0 2.578-1.074l3.142-3.141a3.646 3.646 0 0 0 0-5.155l-.989-.989a3.652 3.652 0 0 0-5.155.001Zm3.357 2.04a.536.536 0 1 1 .757.757l-.747.762a.537.537 0 0 1-.757 0H10.8a.536.536 0 0 1 .006-.762l.757-.757Zm1.714-7.272-.012.066a.536.536 0 0 0 .473.601 5.762 5.762 0 0 1 5.187 5.128.537.537 0 0 0 .47.464l.067.003a.538.538 0 0 0 .537-.59 6.707 6.707 0 0 0-6.143-6.079.537.537 0 0 0-.58.407Zm.63 2.826a.537.537 0 0 0-.182.346l-.003.067a.537.537 0 0 0 .434.537 2.283 2.283 0 0 1 1.649 1.719c.054.273.308.46.585.43h.037a.537.537 0 0 0 .468-.613 3.222 3.222 0 0 0-2.55-2.61.537.537 0 0 0-.437.123v.001Z"/></svg>