<?xml version="1.0" encoding="UTF-8"?>
<svg width="24px" height="24px" viewBox="0 0 24 24" version="1.1" xmlns="http://www.w3.org/2000/svg" xmlns:xlink="http://www.w3.org/1999/xlink">
    <title>icons/functional_UI/A-E/mdpi/ic_Calendar_date</title>
    <g id="icons/functional_UI/A-E/ic_Calendar_date" stroke="none" stroke-width="1" fill="none" fill-rule="evenodd">
        <path d="M19.2,4.19999997 L16.800264,4.19999997 L16.800264,3.59999996 L16.8,3.59999996 L16.8,3.29999996 C16.8,2.80294369 16.3970563,2.39999996 15.9,2.39999996 C15.4029437,2.39999996 15,2.80294369 15,3.29999996 L15,4.19999997 L15.000264,4.19999997 L15.000264,5.09980797 L15,5.09999997 L15,6.29999998 C15,6.79705625 15.4029437,7.19999998 15.9,7.19999998 C16.3970563,7.19999998 16.8,6.79705625 16.8,6.29999998 L16.8,5.99999997 L16.800264,5.99999997 L16.800264,5.10019197 C17.3166723,5.48767301 17.5272128,6.16211725 17.3229523,6.77456864 C17.1186918,7.38702003 16.5454593,7.80006581 15.8998441,7.79999695 C15.2542288,7.7999281 14.6810844,7.38676006 14.4769546,6.77426511 C14.2728248,6.16177017 14.4835091,5.48737085 15,5.09999997 L15,4.19999997 L8.40026399,4.19999997 L8.40026399,3.59999996 L8.39999996,3.59999996 L8.39999996,3.29999996 C8.39999996,2.80294369 7.99705626,2.39999996 7.49999998,2.39999996 C7.0029437,2.39999996 6.59999998,2.80294369 6.59999998,3.29999996 L6.59999998,4.19999997 L6.60026398,4.19999997 L6.60026398,5.09978397 L6.59999998,5.09999997 L6.59999998,6.29999998 C6.59999998,6.79705625 7.0029437,7.19999998 7.49999998,7.19999998 C7.99705626,7.19999998 8.39999996,6.79705625 8.39999996,6.29999998 L8.39999996,5.99999997 L8.40026399,5.99999997 L8.40026399,5.10016797 C8.91667741,5.48764213 9.1272269,6.16208356 8.92297459,6.77453767 C8.71872228,7.38699178 8.14549527,7.80004521 7.49988003,7.79998496 C6.85426478,7.79992471 6.28111488,7.38676431 6.07697688,6.77427208 C5.87283888,6.16177986 6.08351424,5.48737774 6.59999998,5.09999997 L6.59999998,4.19999997 L2.39999996,4.19999997 L2.39999996,19.2 C2.39999996,20.1941126 3.20588741,21 4.19999997,21 L21,21 L21,5.99999997 C21,5.00588742 20.1941126,4.19999997 19.2,4.19999997 L19.2,4.19999997 Z M19.8,10.44 C19.767456,9.97252799 19.31256,9.59923199 18.901224,9.59923199 C18.890448,9.59923199 18.879768,9.59961599 18.869088,9.59999999 L3.60028797,9.59999999 L3.60028797,18.795456 L3.60285597,18.795456 C3.60002182,18.8301284 3.59936078,18.8649295 3.60059997,18.899688 C3.59877313,19.3932578 3.9962196,19.795478 4.48977597,19.799544 L4.48977597,19.800744 L19.8,19.8 L19.8,10.44 L19.8,10.44 Z M8.77936799,13.986528 C8.95837741,13.9739577 9.13413948,13.9322829 9.29973599,13.863144 C9.45470894,13.7996431 9.59121771,13.6981776 9.69669599,13.568088 C9.80031199,13.439352 9.85217599,13.267688 9.85228799,13.053096 C9.85228799,12.731224 9.74499999,12.484456 9.53042399,12.312792 C9.32136039,12.143002 9.05940071,12.051855 8.79009599,12.0552 C8.40387199,12.0552 8.11240798,12.18216 7.91570398,12.43608 C7.71899998,12.69 7.62422398,13.010088 7.63137598,13.396344 L6.18295198,13.396344 C6.1922612,13.034758 6.2630061,12.6773895 6.39215998,12.339528 C6.50976424,12.0330265 6.6886504,11.7537338 6.91787998,11.518728 C7.1477277,11.2869217 7.423735,11.1060185 7.72799998,10.987752 C8.04265598,10.862696 8.39313598,10.800112 8.77943999,10.8 C9.08477078,10.8007524 9.38836737,10.8459297 9.68068799,10.934112 C9.97235476,11.0193097 10.2466125,11.1555285 10.490736,11.336448 C10.7280075,11.5126976 10.9269452,11.7353725 11.075448,11.990928 C11.225672,12.248432 11.300776,12.545232 11.30076,12.881328 C11.30076,13.246128 11.213144,13.567992 11.037912,13.84692 C10.86268,14.125848 10.599816,14.315392 10.24932,14.415552 L10.24932,14.437008 C10.664072,14.53008 10.98952,14.73036 11.225664,15.037848 C11.461808,15.345336 11.579824,15.713704 11.5797121,16.142952 C11.5797121,16.536376 11.502824,16.886856 11.349048,17.194392 C11.2019244,17.4936196 10.9914077,17.757222 10.732128,17.96688 C10.4672802,18.1782611 10.1653114,18.3383615 9.84172799,18.43896 C9.50166336,18.546881 9.14687243,18.6012114 8.79009599,18.6000198 C8.36798398,18.6000198 7.98352798,18.5392 7.63672798,18.4176 C7.30686671,18.3063975 7.00492889,18.1252315 6.75158398,17.886504 C6.50354587,17.6469312 6.31124214,17.3557307 6.18830398,17.033544 C6.05587198,16.697432 5.99328797,16.311184 6.00055198,15.8748 L7.44897598,15.8748 C7.45508028,16.0696193 7.48755987,16.2627126 7.54552798,16.448808 C7.5970395,16.6204187 7.68079005,16.7806379 7.79229598,16.920888 C7.90144677,17.0547598 8.03884579,17.1628432 8.19465598,17.2374 C8.35556798,17.316184 8.54689599,17.35552 8.76863999,17.355408 C9.11198399,17.355408 9.40167199,17.249904 9.63770399,17.038896 C9.87373599,16.827888 9.99175199,16.54 9.99175199,16.175232 C9.99175199,15.889216 9.93631999,15.671056 9.82545599,15.520752 C9.71828858,15.3734904 9.57124372,15.2599466 9.40166399,15.193512 C9.22157077,15.1238059 9.03131206,15.0839464 8.83838399,15.075504 C8.63452799,15.064768 8.43961599,15.0594 8.25364798,15.0594 L8.25364798,13.9866 C8.42859259,14.0010137 8.60442733,14.0009896 8.77936799,13.986528 L8.77936799,13.986528 Z M12.215376,12.833136 C12.358848,12.336096 12.553248,11.937336 12.798576,11.636856 C13.043904,11.336376 13.329312,11.1218 13.6548,10.993128 C13.9843167,10.863651 14.3354753,10.7981076 14.689512,10.799929 C15.0470502,10.7974622 15.4018037,10.8630046 15.734832,10.993128 C16.060512,11.121864 16.347672,11.33644 16.596312,11.636856 C16.844952,11.937272 17.041064,12.336032 17.184648,12.833136 C17.328104,13.330368 17.399888,13.943712 17.4,14.673168 C17.4,15.424208 17.328216,16.051864 17.184648,16.556136 C17.04108,17.060408 16.844968,17.462744 16.596312,17.763144 C16.347624,18.06356 16.060464,18.278144 15.734832,18.406896 C15.4017988,18.5369999 15.0470476,18.6025338 14.689512,18.6000708 C14.3354376,18.6019042 13.9842389,18.536369 13.65468,18.406896 C13.329,18.278144 13.043592,18.06356 12.798456,17.763144 C12.55332,17.462728 12.35892,17.060392 12.215256,16.556136 C12.071752,16.05188 12,15.424224 12,14.673168 C12,13.943616 12.071792,13.330272 12.215376,12.833136 L12.215376,12.833136 Z M13.51284,15.451056 C13.5257807,15.7480928 13.5697968,16.0429573 13.644168,16.330824 C13.717768,16.613464 13.83508,16.854864 13.996104,17.055024 C14.157128,17.255184 14.388264,17.35532 14.689512,17.355432 C14.997624,17.355432 15.234,17.255296 15.39864,17.055024 C15.5692637,16.8426704 15.6911967,16.5954535 15.755832,16.330824 C15.8301413,16.042944 15.8741644,15.7480868 15.887184,15.451056 C15.901136,15.147056 15.908136,14.88776 15.908184,14.673168 C15.908184,14.544432 15.906432,14.388864 15.902928,14.206464 C15.8944769,13.8232159 15.8451659,13.4419628 15.755832,13.069176 C15.7142683,12.8897447 15.6451609,12.7178345 15.550968,12.55956 C15.4639894,12.4136807 15.3455507,12.2890516 15.204288,12.19476 C15.064112,12.10188 14.89252,12.055384 14.689512,12.0552718 C14.486504,12.05516 14.316656,12.101656 14.179968,12.19476 C14.0418179,12.2894399 13.9268838,12.4141543 13.843776,12.55956 C13.7523278,12.7191787 13.6833871,12.8906743 13.638912,13.069176 C13.590049,13.2577172 13.5549407,13.4495577 13.533864,13.643184 C13.51284,13.83632 13.500576,14.02408 13.497072,14.206464 C13.493568,14.388848 13.491816,14.544416 13.491816,14.673168 C13.491816,14.88776 13.498824,15.147056 13.51284,15.451056 L13.51284,15.451056 Z" fill="#000000"></path>
    </g>
</svg>