<?xml version="1.0" encoding="UTF-8"?>
<svg width="24px" height="24px" viewBox="0 0 24 24" version="1.1" xmlns="http://www.w3.org/2000/svg" xmlns:xlink="http://www.w3.org/1999/xlink">
    <title>icons/functional_UI/A-E/mdpi/ic_Calendar_week</title>
    <g id="icons/functional_UI/A-E/ic_Calendar_week" stroke="none" stroke-width="1" fill="none" fill-rule="evenodd">
        <path d="M19.2,4.19999997 L16.8,4.19999997 L16.8,3.28799996 C16.8,2.79095996 16.397064,2.39999996 15.9,2.39999996 C15.4029437,2.39999996 15,2.80294369 15,3.29999996 L15,4.19999997 L8.40026399,4.19999997 L8.39999996,3.29999996 C8.39999996,2.80294369 7.99705626,2.39999996 7.49999998,2.39999996 C7.0029437,2.39999996 6.59999998,2.80294369 6.59999998,3.29999996 L6.59999998,4.19999997 L2.39999996,4.19999997 L2.39999996,19.2 C2.39999996,20.1941126 3.20588741,21 4.19999997,21 L21,21 L21,5.99999997 C21,5.00588742 20.1941126,4.19999997 19.2,4.19999997 L19.2,4.19999997 Z M7.19999998,19.8 L4.49999997,19.8 C4.00294369,19.8 3.59999997,19.3970563 3.59999997,18.9 L3.59999997,9.59999999 L7.19999998,9.59999999 L7.19999998,19.8 Z M5.99999949,6.29999998 C5.99962151,5.82777476 6.22199272,5.38303233 6.59999998,5.09999997 L6.59999998,6.29999998 C6.59999998,6.79705625 7.0029437,7.19999998 7.49999949,7.19999998 C7.99705626,7.19999998 8.39999999,6.79705625 8.39999999,6.29999998 L8.39999999,5.99999997 L8.40026399,5.99999997 L8.40026399,5.10016797 C8.96444741,5.52349953 9.15747242,6.28271686 8.86398541,6.92410435 C8.57049839,7.56549184 7.86979533,7.9157558 7.18062315,7.76557508 C6.49145097,7.61539437 5.99999949,7.00534567 5.99999949,6.29999998 L5.99999949,6.29999998 Z M11.4,19.8 L7.79999998,19.8 L7.79999998,9.59999999 L11.4,9.59999999 L11.4,19.8 Z M15.6,19.8 L12,19.8 L12,9.59999999 L15.6,9.59999999 L15.6,19.8 Z M14.3999995,6.29999998 C14.3996215,5.82777476 14.6219928,5.38303233 15,5.09999997 L15,6.29999998 C15,6.79705625 15.4029437,7.19999998 15.8999995,7.19999998 C16.3970563,7.19999998 16.8,6.79705625 16.8,6.29999998 L16.799736,5.99999997 L16.8,5.99999997 L16.8,5.11199997 C17.1774076,5.39016582 17.400131,5.83115806 17.3999995,6.29999998 C17.3999995,7.1284271 16.7284271,7.79999998 15.8999995,7.79999998 C15.0715729,7.79999998 14.3999995,7.1284271 14.3999995,6.29999998 Z M19.8,19.8 L16.2,19.8 L16.2,9.59999999 L18.9,9.59999999 C19.3970563,9.59999999 19.8,10.0029437 19.8,10.5 L19.8,19.8 Z" fill="#000000"></path>
    </g>
</svg>