<?xml version="1.0" encoding="UTF-8"?>
<svg width="24px" height="24px" viewBox="0 0 24 24" version="1.1" xmlns="http://www.w3.org/2000/svg" xmlns:xlink="http://www.w3.org/1999/xlink">
    <title>icons/functional_UI/A-E/mdpi/ic_Car_route</title>
    <g id="icons/functional_UI/A-E/ic_Car_route" stroke="none" stroke-width="1" fill="none" fill-rule="evenodd">
        <path d="M21.6,16.2 L20.4,16.2 C20.4,17.8568543 19.0568543,19.2 17.4,19.2 C15.7431458,19.2 14.4,17.8568543 14.4,16.2 L8.99999999,16.2 C8.99999999,17.8568543 7.65685423,19.2 5.99999997,19.2 C4.34314572,19.2 2.99999996,17.8568543 2.99999996,16.2 L2.39999996,16.2 C1.7373351,16.1998145 1.19999877,15.6626649 1.19999877,15 L1.19999877,10.807008 L1.19999877,10.807008 C1.19963916,10.5506818 1.28185974,10.3010577 1.43447996,10.09512 L1.43447996,10.09512 L1.43673596,10.09212 C1.43795996,10.090464 1.43913596,10.088832 1.44040796,10.0872 L5.03663997,5.28407997 C5.26296706,4.97924953 5.62033507,4.79967523 5.99999997,4.79998904 L13.8,4.79998904 C14.1246931,4.79861797 14.4362088,4.92830368 14.664,5.15968797 L18.912,9.67199999 L21.843672,10.232112 L21.84384,10.232328 C22.4005164,10.3476846 22.7997701,10.837953 22.8,11.406456 L22.8,15 C22.8,15.6626649 22.2626649,16.1998145 21.6,16.2 L21.6,16.2 Z M9.89999999,6.5999972 C9.18360098,6.59897252 8.49624828,6.88310604 7.98967716,7.38967716 C7.48310604,7.89624828 7.19897253,8.58360098 7.1999972,9.29999999 C7.1999972,9.86104799 7.39775998,10.235136 7.66826398,10.73856 L9.89875199,14.4 L9.89999999,14.4 L12.123192,10.738632 C12.393792,10.235208 12.6,9.86087999 12.6,9.29999999 C12.6,7.81660798 11.3784,6.5999972 9.89999999,6.5999972 Z M9.89999999,10.44 C9.33666954,10.44 8.87999999,9.98333044 8.87999999,9.41999999 C8.87999999,8.85666954 9.33666954,8.39999998 9.89999999,8.39999998 C10.4633304,8.39999998 10.92,8.85666954 10.92,9.41999999 C10.92,9.98333044 10.4633304,10.44 9.89999999,10.44 L9.89999999,10.44 Z" fill="#000000"></path>
    </g>
</svg>