<svg width="24" height="24">
<path d="M1.5 4.6875C1.5 4.16973 1.91973 3.75 2.4375 3.75H12.1875C12.7053 3.75 13.125 4.16973 13.125 4.6875C13.125 5.20527 12.7053 5.625 12.1875 5.625H2.4375C1.91973 5.625 1.5 5.20527 1.5 4.6875ZM1.5 9.5625C1.5 9.04473 1.91973 8.625 2.4375 8.625H20.0625C20.5803 8.625 21 9.04473 21 9.5625C21 10.0803 20.5803 10.5 20.0625 10.5H2.4375C1.91973 10.5 1.5 10.0803 1.5 9.5625ZM2.4375 13.5C1.91973 13.5 1.5 13.9197 1.5 14.4375C1.5 14.9553 1.91973 15.375 2.4375 15.375H4.5C4.5 15.9963 5.00368 16.5 5.625 16.5H12C12.6213 16.5 13.125 15.9963 13.125 15.375H20.0625C20.5803 15.375 21 14.9553 21 14.4375C21 13.9197 20.5803 13.5 20.0625 13.5H13.125V13.125C13.125 12.5037 12.6213 12 12 12H5.625C5.00368 12 4.5 12.5037 4.5 13.125V13.5H2.4375ZM1.5 19.3125C1.5 18.7947 1.91973 18.375 2.4375 18.375H20.0625C20.5803 18.375 21 18.7947 21 19.3125C21 19.8303 20.5803 20.25 20.0625 20.25H2.4375C1.91973 20.25 1.5 19.8303 1.5 19.3125Z"/>
</svg>
