<?xml version="1.0" encoding="UTF-8"?>
<svg width="24px" height="24px" viewBox="0 0 24 24" version="1.1" xmlns="http://www.w3.org/2000/svg" xmlns:xlink="http://www.w3.org/1999/xlink">
    <title>icons/functional_UI/A-E/mdpi/ic_Cloud_connectivity</title>
    <g id="icons/functional_UI/A-E/ic_Cloud_connectivity" stroke="none" stroke-width="1" fill="none" fill-rule="evenodd">
        <path d="M22.2000013,15.6 C22.2000013,17.5882251 20.5882251,19.2 18.6,19.2 L6.59999998,19.2 C3.94903197,19.2 1.79999996,17.050968 1.79999996,14.4 C1.79999996,11.947824 3.63890397,9.92534399 6.01288798,9.63578399 C6.08855159,8.87128496 6.48607761,8.17514143 7.10604358,7.72146099 C7.72600954,7.26778054 8.50979033,7.09946405 9.26135999,7.25860798 C10.5129804,5.70248306 12.4029835,4.79820163 14.4,4.79999729 C18.045072,4.79999729 21,7.75492798 21,11.4 C21.0001175,11.8679078 20.9506656,12.3345115 20.852472,12.792 C21.7050663,13.4745567 22.2009305,14.5078463 22.2000013,15.6 Z M18.0000002,7.83119998 C17.9989303,7.64616387 17.8884565,7.47929977 17.7185302,7.4060565 C17.548604,7.33281323 17.3514387,7.36707574 17.216184,7.49335198 L17.216184,7.49335198 L14.462064,10.1472 L13.554672,9.14702399 L13.554672,9.14702399 C13.369821,8.98940586 13.0949977,8.99984153 12.922632,9.17102399 L12.736416,9.35630399 C12.5686901,9.522778 12.5539033,9.78908451 12.702168,9.97310399 L12.702168,9.97310399 L14.191824,11.825904 L14.191824,11.825904 C14.2804186,11.9358715 14.4140404,11.9998115 14.555256,11.9998115 C14.6964717,11.9998115 14.8300934,11.9358715 14.918688,11.825904 L14.918688,11.825904 L17.898,8.12030398 L17.898,8.12030398 C17.9640874,8.03845091 18.0000917,7.93640199 18.0000002,7.83119998 L18.0000002,7.83119998 Z" fill="#000000"></path>
    </g>
</svg>