<?xml version="1.0" encoding="UTF-8"?>
<svg width="24px" height="24px" viewBox="0 0 24 24" version="1.1" xmlns="http://www.w3.org/2000/svg" xmlns:xlink="http://www.w3.org/1999/xlink">
    <title>icons/functional_UI/A-E/mdpi/ic_Connections</title>
    <g id="icons/functional_UI/A-E/ic_Connections" stroke="none" stroke-width="1" fill="none" fill-rule="evenodd">
        <path d="M19.033848,14.73528 C19.7273054,13.4617175 20.0897241,12.0343576 20.0878394,10.58424 C20.0878394,5.75966397 16.155456,1.84823996 11.303976,1.84823996 C6.45249598,1.84823996 2.52014396,5.75961597 2.52014396,10.58424 C2.52014396,15.244152 6.18873598,19.051656 10.81056,19.306248 L10.073088,18.044472 C6.46034398,17.459544 3.70319997,14.342808 3.70319997,10.58424 C3.70319997,6.40883998 7.10553598,3.02467196 11.304,3.02467196 C15.502464,3.02467196 18.9048,6.40883998 18.9048,10.58424 C18.9058507,11.5871469 18.7055832,12.580062 18.315864,13.504152 L18.390792,13.632648 L19.033848,14.73528 Z M17.45208,12.02328 C17.5548476,11.5673161 17.6066373,11.1013456 17.6064963,10.633944 C17.6064963,7.15240798 14.784792,4.33019997 11.304096,4.33019997 C7.82339998,4.33019997 5.00169597,7.15240798 5.00169597,10.633944 C5.00169597,13.384536 6.76329598,15.722904 9.21947999,16.583712 L8.08907998,14.649864 C6.8686181,13.6743753 6.1586028,12.1963472 6.15991198,10.633944 C6.15991198,7.79275198 8.46350399,5.48867997 11.304144,5.48867997 C14.026248,5.48867997 16.254864,7.60454398 16.436184,10.281216 L16.961064,11.181216 L17.45208,12.02328 Z M11.183496,7.21091998 L11.807496,6.84412798 C10.0316802,6.61509553 8.32612643,7.61753643 7.66231198,9.28046399 L9.25257599,8.34580798 L11.183496,7.21091998 Z M19.834488,17.715312 L18.552888,15.5178 C18.556272,15.512856 18.559704,15.507936 18.563088,15.503016 L17.892,14.355096 C17.88912,14.360112 17.886264,14.365152 17.883408,14.370144 L17.120952,13.06272 C17.123136,13.05744 17.125224,13.052112 17.127408,13.046808 L16.730568,12.367872 L16.337784,11.695872 C16.336536,11.701824 16.335384,11.707872 16.334208,11.713776 L13.863528,7.47760798 C13.665576,7.13810398 13.267176,7.01063998 12.888576,7.14693598 C12.886032,7.14580798 10.390992,8.60385599 10.390992,8.60385599 L9.87955199,8.90385599 L8.98091999,9.43087199 L8.14012798,9.92399999 L7.70159998,10.181232 L7.30303198,10.414944 C7.01099317,10.6589221 6.93777986,11.0780954 7.12982398,11.406624 L9.48698399,15.448224 L9.47978399,15.445584 L10.303416,16.8576 L10.309416,16.858512 L11.056344,18.139152 L11.050776,18.139008 L11.73324,19.309152 L11.738544,19.308888 L13.100568,21.644088 C13.2045366,21.8227365 13.3752308,21.952752 13.5750818,22.0055189 C13.7749327,22.0582859 13.9875608,22.0294795 14.166168,21.92544 L19.554792,18.78144 C19.9262948,18.5641694 20.0514857,18.0869743 19.834488,17.715312 Z M9.87359999,9.56320799 L10.883664,8.97393599 C10.9764917,8.92111424 11.0945409,8.9528512 11.148367,9.04510017 C11.2021932,9.13734914 11.1717393,9.25573578 11.08008,9.31055999 L10.070016,9.89999999 C10.0098539,9.93508633 9.93554348,9.93541135 9.87507677,9.90085262 C9.81461006,9.86629388 9.77717338,9.80210169 9.7768669,9.73245661 C9.77656416,9.66281154 9.81343789,9.59829433 9.87359999,9.56320799 L9.87359999,9.56320799 Z M16.624224,19.978344 C16.4302925,20.1029448 16.1765617,20.0802021 16.0078802,19.9230992 C15.8391987,19.7659964 15.7985006,19.5145203 15.9090194,19.3122324 C16.0195382,19.1099446 16.2531439,19.0083329 16.4764768,19.0654049 C16.6998096,19.1224769 16.8560252,19.3237062 16.855944,19.554216 C16.863386,19.7276364 16.7741788,19.8909165 16.624224,19.978344 L16.624224,19.978344 Z M13.281192,20.394672 L8.17423198,11.638344 L13.561272,8.49523199 L18.668304,17.251512 L13.281192,20.394672 Z" fill="#000000"></path>
    </g>
</svg>