<svg width="24" height="24"><path d="M9.773 5.475A1.9 1.9 0 0 0 8.5 5q-.723 0-1.273.48-.55.481-.806 1.264L3.112 16.786Q3 17.127 3 17.76c.022.19.082.37.176.53.094.159.22.292.367.389q.462.32 1.055.32.867 0 1.253-1.607l.292-1.175h4.714l.382 1.503c.084.332.236.637.444.892q.315.387.714.387.61 0 1.076-.322.465-.322.527-.917 0-.618-.112-.976l-3.31-10.04q-.255-.795-.805-1.27m-2.75 7.96 1.495-5.151 1.49 5.151zm8.465.558q-.263.363-.297.915h1.69q.048-.464.333-.662t.786-.198q.226 0 .417.033.203.022.345.11a.54.54 0 0 1 .238.232.7.7 0 0 1 .095.397q.012.243-.154.375-.167.12-.453.187-.285.067-.655.1-.369.033-.75.088a7 7 0 0 0-.762.154 2.2 2.2 0 0 0-.666.276q-.286.188-.476.507-.18.308-.179.794 0 .442.155.762.166.32.452.529.285.21.667.309.381.099.821.099.571 0 1.12-.154a2.24 2.24 0 0 0 .952-.54q.012.142.035.286.036.132.084.265H21q-.12-.177-.167-.53a6 6 0 0 1-.047-.739v-2.967q0-.518-.25-.827a1.67 1.67 0 0 0-.643-.496 3 3 0 0 0-.87-.232 7 7 0 0 0-.94-.066q-.51 0-1.023.1a3 3 0 0 0-.905.308 2 2 0 0 0-.667.585m3.333 2.217a.8.8 0 0 0 .274-.144v.585q0 .132-.035.353a1.1 1.1 0 0 1-.155.44q-.132.21-.405.365-.274.154-.774.154-.203 0-.393-.033a1.1 1.1 0 0 1-.333-.11.66.66 0 0 1-.226-.232.7.7 0 0 1-.084-.353q0-.22.084-.364a.7.7 0 0 1 .214-.231q.143-.1.322-.155.19-.055.38-.088.203-.033.405-.055a5 5 0 0 0 .726-.132"/></svg>