<?xml version="1.0" encoding="UTF-8"?>
<svg width="24px" height="24px" viewBox="0 0 24 24" version="1.1" xmlns="http://www.w3.org/2000/svg" xmlns:xlink="http://www.w3.org/1999/xlink">
    <title>icons/functional_UI/A-E/mdpi/ic_Contact_Card</title>
    <g id="icons/functional_UI/A-E/ic_Contact_Card" stroke="none" stroke-width="1" fill="none" fill-rule="evenodd">
        <path d="M7.48799998,11.712 C8.48211254,11.712 9.28799999,10.9061125 9.28799999,9.91199999 C9.28799999,8.91788744 8.48211254,8.11199998 7.48799998,8.11199998 C6.49388743,8.11199998 5.68799997,8.91788744 5.68799997,9.91199999 C5.68799997,10.9061125 6.49388743,11.712 7.48799998,11.712 Z M20.4,3.91199997 L1.79999996,3.91199997 L1.79999996,18.312 C1.79999996,19.3061126 2.60588741,20.112 3.59999996,20.112 L6.91199998,20.112 L6.91199998,18.936 C6.71717207,18.7614804 6.60407235,18.513531 6.59999998,18.252 C6.59999998,17.7549437 7.0029437,17.352 7.49999998,17.352 C7.99705626,17.352 8.39999998,17.7549437 8.39999998,18.252 C8.39592762,18.513531 8.2828279,18.7614804 8.08799998,18.936 L8.08799998,20.112 L15.888,20.112 L15.888,18.912 C15.7006034,18.7443394 15.5954707,18.5034101 15.6,18.252 C15.6,17.7549437 16.0029437,17.352 16.5,17.352 C16.9970563,17.352 17.4,17.7549437 17.4,18.252 C17.4,18.5184 17.27208,18.74712 17.088,18.912 L17.088,20.112 L22.2,20.112 L22.2,5.71199997 C22.2,4.71788742 21.3941126,3.91199997 20.4,3.91199997 Z M11.4,14.712 C11.4,15.0433709 11.1313708,15.312 10.8,15.312 L10.2,15.312 L10.2,15.072 L10.19928,15.072 C10.19976,15.05592 10.2,15.04008 10.2,15.024 C10.2,13.52616 8.99111999,12.312 7.49999998,12.312 C6.00887998,12.312 4.79999997,13.52616 4.79999997,15.024 C4.79999997,15.04008 4.80023997,15.05592 4.80071997,15.072 L4.79999997,15.072 L4.79999997,15.312 L4.19999997,15.312 C3.86862912,15.312 3.59999996,15.0433709 3.59999996,14.712 L3.59999996,7.51199998 C3.59999996,7.18062913 3.86862912,6.91199998 4.19999997,6.91199998 L10.8,6.91199998 C11.1313708,6.91199998 11.4,7.18062913 11.4,7.51199998 L11.4,14.712 Z M17.4,14.112 L13.8,14.112 C13.4686292,14.112 13.2,13.8433709 13.2,13.512 C13.2,13.1806292 13.4686292,12.912 13.8,12.912 L17.4,12.912 C17.7313709,12.912 18,13.1806292 18,13.512 C18,13.8433709 17.7313709,14.112 17.4,14.112 Z M19.8,11.112 L13.8,11.112 C13.4686292,11.112 13.2,10.8433708 13.2,10.512 C13.2,10.1806291 13.4686292,9.91199999 13.8,9.91199999 L19.8,9.91199999 C20.1313709,9.91199999 20.4,10.1806291 20.4,10.512 C20.4,10.8433708 20.1313709,11.112 19.8,11.112 Z M19.8,8.11199998 L13.8,8.11199998 C13.4686292,8.11199998 13.2,7.84337083 13.2,7.51199998 C13.2,7.18062913 13.4686292,6.91199998 13.8,6.91199998 L19.8,6.91199998 C20.1313709,6.91199998 20.4,7.18062913 20.4,7.51199998 C20.4,7.84337083 20.1313709,8.11199998 19.8,8.11199998 Z" fill="#000000"></path>
    </g>
</svg>