<?xml version="1.0" encoding="UTF-8"?>
<svg width="24px" height="24px" viewBox="0 0 24 24" version="1.1" xmlns="http://www.w3.org/2000/svg" xmlns:xlink="http://www.w3.org/1999/xlink">
    <title>icons/functional_UI/A-E/mdpi/ic_Car_call</title>
    <g id="icons/functional_UI/A-E/ic_Car_call" stroke="none" stroke-width="1" fill="none" fill-rule="evenodd">
        <path d="M21.6,16.2 L20.4,16.2 C20.4,17.8568543 19.0568543,19.2 17.4,19.2 C15.7431458,19.2 14.4,17.8568543 14.4,16.2 L8.99999999,16.2 C8.99999999,17.8568543 7.65685423,19.2 5.99999997,19.2 C4.34314572,19.2 2.99999996,17.8568543 2.99999996,16.2 L2.39999996,16.2 C1.7373351,16.1998145 1.19999877,15.6626649 1.19999877,15 L1.19999877,10.807008 L1.19999877,10.807008 C1.19963916,10.5506818 1.28185974,10.3010577 1.43447996,10.09512 L1.43447996,10.09512 L1.43673596,10.09212 C1.43795996,10.090464 1.43913596,10.088832 1.44040796,10.0872 L5.03663997,5.28407997 C5.26296706,4.97924953 5.62033507,4.79967523 5.99999997,4.79998904 L13.8,4.79998904 C14.1246931,4.79861797 14.4362088,4.92830368 14.664,5.15968797 L18.912,9.67199999 L21.843672,10.232112 L21.84384,10.232328 C22.4005164,10.3476846 22.7997701,10.837953 22.8,11.406456 L22.8,15 C22.8,15.6626649 22.2626649,16.1998145 21.6,16.2 L21.6,16.2 Z M14.293104,12.818064 L13.58436,13.526808 C12.872424,14.238768 10.92456,13.445208 9.23368799,11.754312 C7.54281598,10.063416 6.74923198,8.11557598 7.46119198,7.40363998 L8.16993598,6.69489598 C8.31243755,6.55243572 8.54343442,6.55243572 8.68593599,6.69489598 L9.66753599,7.86047998 C9.8121751,8.03226943 9.80131187,8.28616867 9.64252799,8.44497599 L9.07250399,9.01499999 C8.89451999,9.19298399 9.39950399,9.98656799 10.200504,10.787496 C11.001504,11.588424 11.795016,12.093432 11.973,11.915496 L12.543024,11.345472 C12.7018313,11.1866881 12.9557306,11.1758249 13.12752,11.320464 L14.293104,12.302064 C14.4355378,12.4445765 14.4355378,12.6755515 14.293104,12.818064 Z" fill="#000000"></path>
    </g>
</svg>