<?xml version="1.0" encoding="UTF-8"?>
<svg width="24px" height="24px" viewBox="0 0 24 24" version="1.1" xmlns="http://www.w3.org/2000/svg" xmlns:xlink="http://www.w3.org/1999/xlink">
    <title>icons/functional_UI/A-E/mdpi/ic_Calendar_month</title>
    <g id="icons/functional_UI/A-E/ic_Calendar_month" stroke="none" stroke-width="1" fill="none" fill-rule="evenodd">
        <path d="M19.2,4.19999997 L16.8,4.19999997 L16.8,3.29999996 C16.8,2.80294369 16.3970563,2.39999996 15.9,2.39999996 C15.4029437,2.39999996 15,2.80294369 15,3.29999996 L15,4.19999997 L8.39999996,4.19999997 L8.39999996,3.29999996 C8.39999996,2.80294369 7.99705626,2.39999996 7.49999998,2.39999996 C7.0029437,2.39999996 6.59999998,2.80294369 6.59999998,3.29999996 L6.59999998,4.19999997 L2.39999996,4.19999997 L2.39999996,19.2 C2.39999996,20.1941126 3.20588741,21 4.19999997,21 L21,21 L21,5.99999997 C21,5.00588742 20.1941126,4.19999997 19.2,4.19999997 L19.2,4.19999997 Z M7.20023998,19.79784 L4.49879997,19.79784 C4.00174369,19.79784 3.59879996,19.3948963 3.59879996,18.89784 L3.59879996,16.8 L7.20023998,16.8 L7.20023998,19.79784 Z M7.20023998,16.2 L3.59879996,16.2 L3.59879996,13.2 L7.20023998,13.2 L7.20023998,16.2 Z M7.20023998,12.6 L3.59879996,12.6 L3.59879996,9.59783999 L7.20023998,9.59783999 L7.20023998,12.6 Z M5.9999994,6.29999998 C5.99958738,5.82776671 6.22196581,5.38300985 6.59999998,5.09999997 L6.59999998,6.29999998 C6.59999998,6.79705625 7.0029437,7.19999998 7.4999994,7.19999998 C7.99705626,7.19999998 8.39999999,6.79705625 8.39999999,6.29999998 L8.39999999,5.09999997 L8.40023999,5.10023997 C8.96444387,5.52356924 9.15747878,6.28280428 8.86398125,6.92420345 C8.57048372,7.56560262 7.86975612,7.91586132 7.18057429,7.76565444 C6.49139247,7.61544756 5.9999994,7.00536066 5.9999994,6.29999998 L5.9999994,6.29999998 Z M11.40024,19.79784 L7.80023998,19.79784 L7.80023998,16.8 L11.40024,16.8 L11.40024,19.79784 Z M11.40024,16.2 L7.80023998,16.2 L7.80023998,13.2 L11.40024,13.2 L11.40024,16.2 Z M11.40024,12.6 L7.80023998,12.6 L7.80023998,9.59783999 L11.40024,9.59783999 L11.40024,12.6 Z M15.60024,19.79784 L12.00024,19.79784 L12.00024,16.8 L15.60024,16.8 L15.60024,19.79784 L15.60024,19.79784 Z M15.60024,16.2 L12.00024,16.2 L12.00024,13.2 L15.60024,13.2 L15.60024,16.2 L15.60024,16.2 Z M15.60024,12.6 L12.00024,12.6 L12.00024,9.59783999 L15.60024,9.59783999 L15.60024,12.6 L15.60024,12.6 Z M14.3999994,6.29999998 C14.3995874,5.82776671 14.6219658,5.38300985 15,5.09999997 L15,6.29999998 C15,6.79705625 15.4029437,7.19999998 15.8999994,7.19999998 C16.3970563,7.19999998 16.8,6.79705625 16.8,6.29999998 L16.8,5.09999997 L16.80024,5.10023997 C17.3644439,5.52356924 17.5574788,6.28280428 17.2639813,6.92420345 C16.9704838,7.56560262 16.2697562,7.91586132 15.5805743,7.76565444 C14.8913925,7.61544756 14.3999994,7.00536066 14.3999994,6.29999998 Z M19.7988,16.2 L16.20024,16.2 L16.20024,13.2 L19.7988,13.2 L19.7988,16.2 Z M19.7988,12.6 L16.20024,12.6 L16.20024,9.59783999 L18.8988,9.59783999 C19.3958563,9.59783999 19.7988,10.0007837 19.7988,10.49784 L19.7988,12.6 Z" fill="#000000"></path>
    </g>
</svg>