<svg width="24" height="24"><path fill-rule="evenodd" d="M20.889 12A8.889 8.889 0 1 1 3.11 12a8.889 8.889 0 0 1 17.778 0M22 12c0 5.523-4.477 10-10 10S2 17.523 2 12 6.477 2 12 2s10 4.477 10 10m-8.408 1.496c.835.502 1.73 1 2.7 1.087 1.008.048 2.083-.303 2.733-1.158.522-.611.645-1.506.385-2.271-.375-1.079-1.385-1.783-2.393-2.072-1.502-.314-3.015.358-4.18 1.333-.314.21-.625.531-.894.81-.116.119-.224.23-.32.322-1.198-1.145-2.686-2.293-4.326-2.508-1.227-.21-2.617.43-3.112 1.687-.36.807-.168 1.777.347 2.46.71 1.07 2.028 1.49 3.213 1.29 1.592-.21 2.975-1.192 4.125-2.329l.014.012c.55.47 1.106.942 1.708 1.337m-2.635-1.344c-1.02.967-2.25 1.732-3.62 1.932-.49.04-.99.074-1.462-.093-1.168-.346-1.663-1.937-1.153-3.037.628-1.163 2-1.78 3.228-1.519 1.16.282 2.577 1.278 3.462 2.242-.257.279-.455.475-.455.475m7.995-.069c-.247 1.185-1.395 1.841-2.45 1.971-.457.043-.925.059-1.375-.063-1.162-.378-2.207-1.121-3.062-2.03.842-.914 1.835-1.687 2.945-2.194.965-.478 2.162-.563 3.09.059.722.448 1.06 1.407.852 2.257" clip-rule="evenodd"/></svg>