<?xml version="1.0" encoding="UTF-8"?>
<svg width="24px" height="24px" viewBox="0 0 24 24" version="1.1" xmlns="http://www.w3.org/2000/svg" xmlns:xlink="http://www.w3.org/1999/xlink">
    <title>icons/functional_UI/A-E/mdpi/ic_Call_History</title>
    <g id="icons/functional_UI/A-E/ic_Call_History" stroke="none" stroke-width="1" fill="none" fill-rule="evenodd">
        <path d="M19.8,1.79999996 L12,1.79999996 C6.36669598,1.79999996 1.79999996,6.36669598 1.79999996,12 C1.79999996,17.633304 6.36669598,22.2 12,22.2 C17.633304,22.2 22.2,17.633304 22.2,12 L22.2,4.19999997 C22.2,2.87451656 21.1254834,1.79999996 19.8,1.79999996 Z M12.777216,6.76708798 L14.488608,5.05569597 L13.632912,4.19999997 L17.911392,4.19999997 L15.772152,6.33923998 L14.06076,8.05063198 L13.632912,8.47847999 L12.777216,7.62278398 C12.5409329,7.38648558 12.5409329,7.00338638 12.777216,6.76708798 Z M14.866464,18.314808 C14.1042,19.079904 11.263824,18.355056 8.45606399,15.538392 C5.64885597,12.721176 4.91531997,9.98073599 5.68886397,9.10639199 C7.22212798,7.57696798 7.15430398,7.28599198 8.36246398,8.79367199 C9.56997599,10.301352 9.48981599,10.208112 8.29487998,11.407056 C7.81871998,11.884656 8.81289599,13.093248 9.85303199,14.13672 C10.893168,15.180192 12.097392,16.177728 12.573672,15.700368 C13.763232,14.506728 13.675776,14.420616 15.17784,15.632832 C16.680576,16.844592 16.48404,16.691736 14.866464,18.314808 Z M19.622784,6.76708798 L17.911392,8.47847999 L18.768,9.33599999 L14.496,9.33599999 L16.627848,7.19493598 L18.33924,5.48354397 L18.767088,5.05569597 L19.622784,5.91139197 C19.8590672,6.14769037 19.8590672,6.53078958 19.622784,6.76708798 L19.622784,6.76708798 Z" fill="#000000"></path>
    </g>
</svg>