<?xml version="1.0" encoding="UTF-8"?>
<svg width="24px" height="24px" viewBox="0 0 24 24" version="1.1" xmlns="http://www.w3.org/2000/svg" xmlns:xlink="http://www.w3.org/1999/xlink">
    <title>icons/functional_UI/A-E/mdpi/ic_Calendar_new</title>
    <g id="icons/functional_UI/A-E/ic_Calendar_new" stroke="none" stroke-width="1" fill="none" fill-rule="evenodd">
        <path d="M19.2,4.19999997 L16.8,4.19999997 L16.8,3.28799996 C16.8,2.79095996 16.397064,2.39999996 15.9,2.39999996 C15.4029437,2.39999996 15,2.80294369 15,3.29999996 L15,4.19999997 L8.40026399,4.19999997 L8.39999996,3.29999996 C8.39999996,2.80294369 7.99705626,2.39999996 7.49999998,2.39999996 C7.0029437,2.39999996 6.59999998,2.80294369 6.59999998,3.29999996 L6.59999998,4.19999997 L2.39999996,4.19999997 L2.39999996,19.2 C2.39999996,20.1941126 3.20588741,21 4.19999997,21 L21,21 L21,5.99999997 C21,5.00588742 20.1941126,4.19999997 19.2,4.19999997 L19.2,4.19999997 Z M19.8,19.8 L4.49999997,19.8 C4.00294369,19.8 3.59999997,19.3970563 3.59999997,18.9 L3.59999997,9.59999999 L18.9,9.59999999 C19.3970563,9.59999999 19.8,10.0029437 19.8,10.5 L19.8,19.8 Z M5.99999949,6.29999998 C5.99962151,5.82777476 6.22199272,5.38303233 6.59999998,5.09999997 L6.59999998,6.29999998 C6.59999998,6.79705625 7.0029437,7.19999998 7.49999949,7.19999998 C7.99705626,7.19999998 8.39999999,6.79705625 8.39999999,6.29999998 L8.39999999,5.99999997 L8.40026399,5.99999997 L8.40026399,5.10016797 C8.96444741,5.52349953 9.15747242,6.28271686 8.86398541,6.92410435 C8.57049839,7.56549184 7.86979533,7.9157558 7.18062315,7.76557508 C6.49145097,7.61539437 5.99999949,7.00534567 5.99999949,6.29999998 L5.99999949,6.29999998 Z M14.3999995,6.29999998 C14.3996215,5.82777476 14.6219928,5.38303233 15,5.09999997 L15,6.29999998 C15,6.79705625 15.4029437,7.19999998 15.8999995,7.19999998 C16.3970563,7.19999998 16.8,6.79705625 16.8,6.29999998 L16.799736,5.99999997 L16.8,5.99999997 L16.8,5.11199997 C17.1774076,5.39016582 17.400131,5.83115806 17.3999995,6.29999998 C17.3999995,7.1284271 16.7284271,7.79999998 15.8999995,7.79999998 C15.0715729,7.79999998 14.3999995,7.1284271 14.3999995,6.29999998 Z M14.862336,12.796392 L12.468672,13.67868 L12.468672,11.157168 C12.4659067,10.9450638 12.2925913,10.7748879 12.080472,10.7759946 L11.046888,10.7759946 C10.8349756,10.774946 10.6620358,10.9453116 10.659912,11.157216 L10.659912,13.67868 L8.39217598,12.799872 C8.29836494,12.7628241 8.19349123,12.7657053 8.10185579,12.807848 C8.01022035,12.8499907 7.93977678,12.927737 7.90684798,13.023072 L7.53321598,14.088672 C7.49967373,14.184474 7.50588847,14.289718 7.55047267,14.3809066 C7.59505687,14.4720952 7.67429788,14.5416349 7.77050398,14.574 L10.104192,15.35892 L8.61467999,17.33172 C8.55355982,17.4126488 8.52746117,17.5147146 8.54223161,17.615049 C8.55700205,17.7153833 8.61140675,17.8055981 8.69325599,17.86548 L9.63119999,18.551496 C9.7123042,18.6114263 9.81437467,18.6356144 9.91374773,18.6184525 C10.0131208,18.6012906 10.1011663,18.5442693 10.157472,18.460608 L11.569896,16.382208 L13.066656,18.4662 C13.1258084,18.5485986 13.2155578,18.6038075 13.3157773,18.6194459 C13.4159969,18.6350844 13.5182998,18.6098436 13.599744,18.549384 L14.517552,17.867544 C14.5990724,17.8069014 14.6530254,17.7162374 14.6674434,17.615663 C14.6818614,17.5150886 14.6555523,17.4129185 14.594352,17.331816 L13.104888,15.359016 L15.4848,14.57208 C15.5810781,14.5404197 15.6605426,14.471309 15.7052507,14.3803529 C15.7499589,14.2893967 15.7561405,14.1842649 15.7224,14.088696 L15.34884,13.023096 C15.3156663,12.927563 15.2452115,12.8495407 15.1535463,12.806826 C15.0618811,12.7641113 14.9568232,12.7603471 14.862336,12.796392 L14.862336,12.796392 Z" fill="#000000"></path>
    </g>
</svg>