<?xml version="1.0" encoding="UTF-8"?>
<svg width="24px" height="24px" viewBox="0 0 24 24" version="1.1" xmlns="http://www.w3.org/2000/svg" xmlns:xlink="http://www.w3.org/1999/xlink">
    <title>icons/functional_UI/A-E/mdpi/ic_Calendar_time</title>
    <g id="icons/functional_UI/A-E/ic_Calendar_time" stroke="none" stroke-width="1" fill="none" fill-rule="evenodd">
        <path d="M19.2,4.19999997 L16.8,4.19999997 L16.8,3.28799996 C16.8,2.79095996 16.397064,2.39999996 15.9,2.39999996 C15.4029437,2.39999996 15,2.80294369 15,3.29999996 L15,4.19999997 L8.40026399,4.19999997 L8.39999996,3.29999996 C8.39999996,2.80294369 7.99705626,2.39999996 7.49999998,2.39999996 C7.0029437,2.39999996 6.59999998,2.80294369 6.59999998,3.29999996 L6.59999998,4.19999997 L2.39999996,4.19999997 L2.39999996,19.2 C2.39999996,20.1941126 3.20588741,21 4.19999997,21 L21,21 L21,5.99999997 C21,5.00588742 20.1941126,4.19999997 19.2,4.19999997 L19.2,4.19999997 Z M19.8,19.8 L4.49999997,19.8 C4.00294369,19.8 3.59999997,19.3970563 3.59999997,18.9 L3.59999997,9.59999999 L18.9,9.59999999 C19.3970563,9.59999999 19.8,10.0029437 19.8,10.5 L19.8,19.8 Z M5.99999949,6.29999998 C5.99962151,5.82777476 6.22199272,5.38303233 6.59999998,5.09999997 L6.59999998,6.29999998 C6.59999998,6.79705625 7.0029437,7.19999998 7.49999949,7.19999998 C7.99705626,7.19999998 8.39999999,6.79705625 8.39999999,6.29999998 L8.39999999,5.99999997 L8.40026399,5.99999997 L8.40026399,5.10016797 C8.96444741,5.52349953 9.15747242,6.28271686 8.86398541,6.92410435 C8.57049839,7.56549184 7.86979533,7.9157558 7.18062315,7.76557508 C6.49145097,7.61539437 5.99999949,7.00534567 5.99999949,6.29999998 L5.99999949,6.29999998 Z M14.3999995,6.29999998 C14.3996215,5.82777476 14.6219928,5.38303233 15,5.09999997 L15,6.29999998 C15,6.79705625 15.4029437,7.19999998 15.8999995,7.19999998 C16.3970563,7.19999998 16.8,6.79705625 16.8,6.29999998 L16.799736,5.99999997 L16.8,5.99999997 L16.8,5.11199997 C17.1774076,5.39016582 17.400131,5.83115806 17.3999995,6.29999998 C17.3999995,7.1284271 16.7284271,7.79999998 15.8999995,7.79999998 C15.0715729,7.79999998 14.3999995,7.1284271 14.3999995,6.29999998 Z M11.7,10.8 C9.54608947,10.8 7.79999998,12.5460895 7.79999998,14.7 C7.79999998,16.8539105 9.54608947,18.6 11.7,18.6 C13.8539105,18.6 15.6,16.8539105 15.6,14.7 C15.6,13.6656557 15.1891083,12.6736754 14.4577165,11.9422836 C13.7263246,11.2108917 12.7343443,10.8 11.7,10.8 Z M13.283088,15.94356 C13.2185576,16.0080995 13.1310302,16.0443581 13.039764,16.0443581 C12.9484978,16.0443581 12.8609704,16.0080995 12.79644,15.94356 L11.45208,14.5992 L11.451528,14.598624 C11.44772,14.5948 11.444,14.590888 11.440368,14.586888 C11.438496,14.584824 11.436744,14.582712 11.434944,14.5806 C11.433144,14.578488 11.4312,14.576352 11.4294,14.574168 C11.427192,14.571504 11.425128,14.568768 11.423016,14.566032 C11.42172,14.564352 11.420376,14.56272 11.419128,14.561016 C11.416896,14.558016 11.41476,14.554968 11.412648,14.55192 C11.411592,14.550384 11.410512,14.548896 11.40948,14.54736 C11.407368,14.544216 11.405376,14.541048 11.403384,14.53776 C11.4024,14.5362 11.401416,14.534664 11.400456,14.53296 C11.398584,14.52984 11.396784,14.526672 11.395008,14.52348 C11.394024,14.521752 11.39304,14.52 11.39208,14.518248 C11.390472,14.515248 11.38896,14.512224 11.387448,14.5092 C11.386416,14.50716 11.385384,14.505096 11.3844,14.503032 C11.38308,14.500248 11.381856,14.497464 11.380632,14.494656 C11.379552,14.492256 11.378472,14.489856 11.377464,14.487456 C11.376456,14.485056 11.375472,14.482464 11.374512,14.479944 C11.373552,14.477424 11.372328,14.474328 11.371296,14.471496 C11.370528,14.469288 11.369808,14.46708 11.369064,14.464872 C11.368008,14.461704 11.366952,14.458512 11.365968,14.455272 C11.365392,14.453328 11.364864,14.45136 11.364312,14.449416 C11.363328,14.445936 11.362368,14.44248 11.361504,14.438976 C11.361024,14.437128 11.36064,14.43528 11.360208,14.433456 C11.359368,14.429832 11.358552,14.426256 11.357808,14.42256 C11.357448,14.420688 11.357136,14.418816 11.3568,14.416944 C11.356152,14.413344 11.355504,14.409744 11.354976,14.406096 C11.354664,14.403936 11.354424,14.401752 11.354136,14.399568 C11.353728,14.396232 11.353272,14.392896 11.352936,14.389512 C11.352648,14.386632 11.35248,14.383728 11.352288,14.380848 C11.352096,14.377968 11.351832,14.375472 11.351712,14.37276 C11.351424,14.367064 11.35128,14.361392 11.35128,14.355744 L11.35128,11.83236 C11.35128,11.6423122 11.5053442,11.488248 11.695392,11.488248 C11.8854398,11.488248 12.039504,11.6423122 12.039504,11.83236 L12.039504,14.213352 L13.283064,15.456912 C13.3476066,15.5214392 13.3838741,15.6089649 13.3838741,15.700231 C13.3838741,15.7914972 13.3476243,15.8790264 13.283088,15.94356 L13.283088,15.94356 Z" fill="#000000"></path>
    </g>
</svg>