<?xml version="1.0" encoding="UTF-8"?>
<svg width="24px" height="24px" viewBox="0 0 24 24" version="1.1" xmlns="http://www.w3.org/2000/svg" xmlns:xlink="http://www.w3.org/1999/xlink">
    <title>icons/functional_UI/A-E/mdpi/ic_Calendar_alarm</title>
    <g id="icons/functional_UI/A-E/ic_Calendar_alarm" stroke="none" stroke-width="1" fill="none" fill-rule="evenodd">
        <path d="M19.224,4.17599997 L16.824,4.17599997 L16.824,3.26399996 C16.824,2.76695996 16.421064,2.37599996 15.924,2.37599996 C15.4269437,2.37599996 15.024,2.77894369 15.024,3.27599996 L15.024,4.17599997 L8.42426399,4.17599997 L8.42399996,3.27599996 C8.42399996,2.77894369 8.02105626,2.37599996 7.52399998,2.37599996 C7.0269437,2.37599996 6.62399998,2.77894369 6.62399998,3.27599996 L6.62399998,4.17599997 L2.42399996,4.17599997 L2.42399996,19.176 C2.42399996,20.1701126 3.22988741,20.976 4.22399997,20.976 L21.024,20.976 L21.024,5.97599997 C21.024,4.98188742 20.2181126,4.17599997 19.224,4.17599997 L19.224,4.17599997 Z M19.824,19.776 L4.52399997,19.776 C4.02694369,19.776 3.62399997,19.3730563 3.62399997,18.876 L3.62399997,9.57599999 L18.924,9.57599999 C19.4210563,9.57599999 19.824,9.97894372 19.824,10.476 L19.824,19.776 Z M6.02399949,6.27599998 C6.02362151,5.80377476 6.24599273,5.35903233 6.62399998,5.07599997 L6.62399998,6.27599998 C6.62399998,6.77305625 7.0269437,7.17599998 7.52399949,7.17599998 C8.02105626,7.17599998 8.42399999,6.77305625 8.42399999,6.27599998 L8.42399999,5.97599997 L8.42426399,5.97599997 L8.42426399,5.07616797 C8.98844741,5.49949953 9.18147242,6.25871686 8.88798541,6.90010435 C8.59449839,7.54149184 7.89379533,7.8917558 7.20462315,7.74157508 C6.51545097,7.59139437 6.02399949,6.98134567 6.02399949,6.27599998 Z M14.4239995,6.27599998 C14.4236215,5.80377476 14.6459928,5.35903233 15.024,5.07599997 L15.024,6.27599998 C15.024,6.77305625 15.4269437,7.17599998 15.9239995,7.17599998 C16.4210563,7.17599998 16.824,6.77305625 16.824,6.27599998 L16.823736,5.97599997 L16.824,5.97599997 L16.824,5.08799997 C17.2014076,5.36616582 17.424131,5.80715806 17.4239995,6.27599998 C17.4239995,6.81189836 17.1381016,7.30708889 16.674,7.57503809 C16.2098984,7.84298728 15.6381016,7.84298728 15.174,7.57503809 C14.7098984,7.30708889 14.4239995,6.81189836 14.4239995,6.27599998 Z M11.734608,18.576792 C11.9699866,18.5768366 12.1957424,18.4833755 12.3622117,18.3169693 C12.5286809,18.150563 12.6222275,17.9248426 12.622272,17.689464 L10.846968,17.689464 C10.8470608,18.1796052 11.2444669,18.5768716 11.734608,18.576792 Z M14.861616,17.131656 L14.39664,16.3584 L14.39664,14.15784 C14.3942295,12.9412763 13.5757261,11.877711 12.400344,11.563848 L12.400344,11.478072 C12.3981458,11.1119628 12.1007358,10.8163332 11.73462,10.8163332 C11.3685042,10.8163332 11.0710942,11.1119628 11.068896,11.478072 L11.068896,11.562072 C9.89353663,11.8657819 9.0724608,12.9261157 9.07259999,14.14008 L9.07259999,16.3584 L8.60762399,17.131608 C8.56648168,17.2001488 8.56539948,17.2855247 8.60479122,17.3550863 C8.64418297,17.4246479 8.71795522,17.467608 8.79789599,17.467608 L14.671344,17.467608 C14.7512696,17.467608 14.8250247,17.4246441 14.8644133,17.3550982 C14.9038018,17.2855522 14.9027332,17.2001942 14.861616,17.131656 L14.861616,17.131656 Z" fill="#000000"></path>
    </g>
</svg>