<?xml version="1.0" encoding="UTF-8"?>
<svg width="24px" height="24px" viewBox="0 0 24 24" version="1.1" xmlns="http://www.w3.org/2000/svg" xmlns:xlink="http://www.w3.org/1999/xlink">
    <title>icons/functional_UI/A-E/mdpi/ic_Car_status</title>
    <g id="icons/functional_UI/A-E/ic_Car_status" stroke="none" stroke-width="1" fill="none" fill-rule="evenodd">
        <path d="M21.6,16.2 L20.4,16.2 C20.4,17.8568543 19.0568543,19.2 17.4,19.2 C15.7431458,19.2 14.4,17.8568543 14.4,16.2 L8.99999999,16.2 C8.99999999,17.8568543 7.65685423,19.2 5.99999997,19.2 C4.34314572,19.2 2.99999996,17.8568543 2.99999996,16.2 L2.39999996,16.2 C1.7373351,16.1998145 1.19999877,15.6626649 1.19999877,15 L1.19999877,10.807008 L1.19999877,10.807008 C1.19963916,10.5506818 1.28185974,10.3010577 1.43447996,10.09512 L1.43447996,10.09512 L1.43673596,10.09212 C1.43795996,10.090464 1.43913596,10.088832 1.44040796,10.0872 L5.03663997,5.28407997 C5.26296706,4.97924953 5.62033507,4.79967523 5.99999997,4.79998904 L13.8,4.79998904 C14.1246931,4.79861797 14.4362088,4.92830368 14.664,5.15968797 L18.912,9.67199999 L21.843672,10.232112 L21.84384,10.232328 C22.4005164,10.3476846 22.7997701,10.837953 22.8,11.406456 L22.8,15 C22.8,15.6626649 22.2626649,16.1998145 21.6,16.2 L21.6,16.2 Z M6.23999998,13.095024 C6.23980558,13.0449864 6.2272845,12.9957676 6.20354398,12.95172 C5.45215352,11.5389332 5.45215352,9.84506681 6.20354398,8.43227999 C6.2272845,8.38823242 6.23980558,8.3390136 6.23999998,8.28897598 L6.23999998,8.28897598 C6.23999998,7.97632798 5.82239997,7.87202398 5.67503997,8.14771198 C4.8283261,9.73823724 4.8283261,11.6457627 5.67503997,13.236288 C5.82239997,13.512 6.23999998,13.407672 6.23999998,13.095024 L6.23999998,13.095024 Z M9.87599999,7.07999998 C7.88114398,7.07999998 6.26399998,8.68639199 6.26399998,10.668 C6.26399998,12.649608 7.88114398,14.256 9.87599999,14.256 C11.870856,14.256 13.488,12.649608 13.488,10.668 C13.488,8.68639199 11.870856,7.07999998 9.87599999,7.07999998 Z M14.05296,8.15123998 C13.9056,7.87593598 13.488,7.97999998 13.488,8.29231198 L13.488,8.29231198 C13.4881983,8.34228809 13.5007201,8.3914438 13.524456,8.43542399 C14.2758468,9.84598419 14.2758468,11.5380158 13.524456,12.948576 C13.5007201,12.9925562 13.4881983,13.0417119 13.488,13.091688 L13.488,13.091688 C13.488,13.403904 13.9056,13.508064 14.05296,13.23276 C14.8996801,11.644735 14.8996801,9.73926497 14.05296,8.15123998 Z M9.89999999,13.68 C8.24978398,13.68 6.91199998,12.336864 6.91199998,10.68 C6.91199998,9.02313599 8.24978398,7.67999998 9.89999999,7.67999998 C11.550216,7.67999998 12.888,9.02313599 12.888,10.68 C12.888,12.336864 11.550216,13.68 9.89999999,13.68 Z M9.89759999,8.51999992 C9.64575814,8.51999992 9.44159999,8.72415814 9.44159999,8.97599999 C9.44159999,8.98523999 9.44195999,8.99440799 9.44251199,9.00352799 L9.44251199,9.00352799 L9.59371199,11.487192 L9.59371199,11.487192 C9.59371199,11.655024 9.72988799,11.718072 9.89774399,11.718072 C10.0656,11.718072 10.201704,11.655024 10.201776,11.487192 L10.201776,11.487192 L10.352496,9.00923999 L10.352496,9.00923999 C10.353288,8.99824799 10.35384,8.98718399 10.35384,8.97599999 C10.35384,8.85501967 10.3057643,8.7389979 10.2201958,8.65347441 C10.1346273,8.56795092 10.0185803,8.51993631 9.89759999,8.51999992 L9.89759999,8.51999992 Z M9.89759999,12.168 C9.64575814,12.168 9.44159999,12.3721582 9.44159999,12.624 C9.44159999,12.8758418 9.64575814,13.08 9.89759999,13.08 C10.1494418,13.08 10.3536,12.8758418 10.3536,12.624 C10.3536,12.3721582 10.1494418,12.168 9.89759999,12.168 L9.89759999,12.168 Z" fill="#000000"></path>
    </g>
</svg>