<?xml version="1.0" encoding="UTF-8"?>
<svg width="24px" height="24px" viewBox="0 0 24 24" version="1.1" xmlns="http://www.w3.org/2000/svg" xmlns:xlink="http://www.w3.org/1999/xlink">
    <title>icons/functional_UI/A-E/mdpi/ic_Car_WiFi</title>
    <g id="icons/functional_UI/A-E/ic_Car_WiFi" stroke="none" stroke-width="1" fill="none" fill-rule="evenodd">
        <path d="M21.6,16.2 L20.4,16.2 C20.4,17.8568543 19.0568543,19.2 17.4,19.2 C15.7431458,19.2 14.4,17.8568543 14.4,16.2 L8.99999999,16.2 C8.99999999,17.8568543 7.65685423,19.2 5.99999997,19.2 C4.34314572,19.2 2.99999996,17.8568543 2.99999996,16.2 L2.39999996,16.2 C1.7373351,16.1998145 1.19999877,15.6626649 1.19999877,15 L1.19999877,10.807008 L1.19999877,10.807008 C1.19963916,10.5506818 1.28185974,10.3010577 1.43447996,10.09512 L1.43447996,10.09512 L1.43673596,10.09212 C1.43795996,10.090464 1.43913596,10.088832 1.44040796,10.0872 L5.03663997,5.28407997 C5.26296706,4.97924953 5.62033507,4.79967523 5.99999997,4.79998904 L13.8,4.79998904 C14.1246931,4.79861797 14.4362088,4.92830368 14.664,5.15968797 L18.912,9.67199999 L21.843672,10.232112 L21.84384,10.232328 C22.4005164,10.3476846 22.7997701,10.837953 22.8,11.406456 L22.8,15 C22.8,15.6626649 22.2626649,16.1998145 21.6,16.2 L21.6,16.2 Z M10.783056,12.115944 C10.7807724,12.4020294 10.6063419,12.6585556 10.3411324,12.7658587 C10.0759229,12.8731619 9.77218794,12.8101005 9.57161314,12.6060912 C9.37103834,12.4020819 9.3131424,12.0973201 9.42493251,11.8339705 C9.53672262,11.5706209 9.7961731,11.4005704 10.082256,11.403144 C10.2697232,11.4046968 10.4488909,11.4806769 10.5803247,11.6143613 C10.7117585,11.7480457 10.784686,11.9284775 10.783056,12.115944 Z M11.154768,10.925376 C10.4780465,10.3384953 9.47250902,10.339396 8.79683999,10.927488 L8.28189598,10.334688 C9.25195912,9.48844576 10.6974915,9.48711426 11.669112,10.331568 L11.154768,10.925376 Z M12.179568,9.74239199 C10.9142556,8.64517327 9.03419159,8.64703606 7.77105598,9.74675999 L7.25440798,9.15199199 C8.81366149,7.79609433 11.1330695,7.7945082 12.694176,9.14827199 L12.179568,9.74239199 Z M13.8,8.02732798 L13.2864,8.62012799 C11.3831328,6.97369411 8.55934371,6.97559592 6.65829598,8.62459199 L6.14399998,8.03265598 C8.33847545,6.12428118 11.6028705,6.12200941 13.8,8.02732798 L13.8,8.02732798 Z" fill="#000000"></path>
    </g>
</svg>