<?xml version="1.0" encoding="UTF-8"?>
<svg width="24px" height="24px" viewBox="0 0 24 24" version="1.1" xmlns="http://www.w3.org/2000/svg" xmlns:xlink="http://www.w3.org/1999/xlink">
    <title>icons/functional_UI/A-E/mdpi/ic_Comments_edit</title>
    <g id="icons/functional_UI/A-E/ic_Comments_edit" stroke="none" stroke-width="1" fill="none" fill-rule="evenodd">
        <path d="M12,2.08799996 C6.36669598,2.08799996 1.79999996,5.71679997 1.79999996,10.1928 C1.79999996,13.662024 4.54319997,16.62204 8.39999998,17.778312 L8.39999998,21.9 L8.42311199,21.876888 L8.40491999,21.912 C8.40491999,21.912 12.808776,19.61112 13.27548,19.144128 L14.3346,18.084384 C18.842784,17.245536 22.2,14.030784 22.2,10.1928 C22.2,5.71679997 17.633304,2.08799996 12,2.08799996 Z M19.63944,11.92728 L18.805488,12.761736 L17.532696,11.488176 L18.366648,10.65372 C18.6013055,10.4202423 18.9805106,10.4202423 19.215168,10.65372 L19.63944,11.078256 C19.8727663,11.3131725 19.8727663,11.6923635 19.63944,11.92728 L19.63944,11.92728 Z M12.52296,9.20774399 C12.692064,8.74719999 12.910352,8.34587998 13.177824,8.00378398 C13.44544,7.66138398 13.73316,7.39031198 14.040984,7.19056798 C14.34916,6.99114398 14.62516,6.89125598 14.868984,6.89090398 C15.091944,6.89090398 15.262808,6.95356798 15.381576,7.07889598 C15.499976,7.20460798 15.55924,7.37220798 15.559368,7.58169598 C15.559368,7.88673598 15.427312,8.10691198 15.1632,8.24222398 C14.790864,8.45241599 14.509944,8.68447999 14.32044,8.93841599 C14.130936,9.19235199 14.015856,9.52269599 13.9752,9.92944799 L14.10696,9.92944799 C14.48616,9.92944799 14.829864,10.076648 15.138072,10.371048 C15.446024,10.665752 15.6,11.03328 15.6,11.473632 C15.6,11.900624 15.446024,12.259672 15.138072,12.550776 C14.82964,12.84228 14.44884,12.98788 13.995672,12.9875765 C13.494328,12.9875765 13.081352,12.784376 12.756744,12.377976 C12.431832,11.971576 12.269376,11.405904 12.269376,10.68096 C12.2659214,10.1787398 12.3517855,9.67990536 12.52296,9.20774399 L12.52296,9.20774399 Z M8.29336798,12.37308 C7.96480798,11.97644 7.80059998,11.412392 7.80074398,10.680936 C7.79683573,10.0276837 7.94460942,9.38244007 8.23243198,8.79599999 C8.52022399,8.21039998 8.87222399,7.74639998 9.28843199,7.40399998 C9.70499199,7.06209598 10.075656,6.89106398 10.400424,6.89090398 C10.616952,6.89090398 10.78628,6.95519198 10.908408,7.08376798 C11.030312,7.21274398 11.091184,7.37871998 11.091024,7.58169598 C11.091024,7.88025598 10.959024,8.10043198 10.695024,8.24222398 C10.335984,8.43887999 10.05156,8.66933599 9.84175199,8.93359199 C9.63215199,9.19741599 9.51368799,9.52936799 9.48635999,9.92944799 L9.62887199,9.92944799 C10.014472,9.92944799 10.361384,10.076648 10.669608,10.371048 C10.97756,10.665768 11.131616,11.033304 11.131776,11.473656 C11.131776,11.907128 10.97772,12.264552 10.669608,12.545928 C10.361496,12.827304 9.98063999,12.9678 9.52703999,12.9674168 C9.03302399,12.9674168 8.62179999,12.769304 8.29336798,12.37308 Z M13.342464,18.228 L12.851208,18.719544 C12.617856,18.95304 9.88135199,20.434608 9.88135199,20.434608 L9.90069599,20.398272 C10.073328,20.074272 11.360808,17.663736 11.578416,17.445984 L17.093856,11.92728 L18.366648,13.20084 L13.342464,18.228 Z" fill="#000000"></path>
    </g>
</svg>