<?xml version="1.0" encoding="UTF-8"?>
<svg width="24px" height="24px" viewBox="0 0 24 24" version="1.1" xmlns="http://www.w3.org/2000/svg" xmlns:xlink="http://www.w3.org/1999/xlink">
    <title>icons/functional_UI/A-E/mdpi/ic_Calculator</title>
    <g id="icons/functional_UI/A-E/ic_Calculator" stroke="none" stroke-width="1" fill="none" fill-rule="evenodd">
        <path d="M16.8,1.79999996 L5.39999997,1.79999996 L5.39999997,20.4 C5.39999997,21.3941126 6.20588743,22.2 7.19999998,22.2 L18.6,22.2 L18.6,3.59999996 C18.6,2.60588741 17.7941126,1.79999996 16.8,1.79999996 Z M9.59999999,20.1 C9.59999999,20.2656855 9.46568541,20.4 9.29999999,20.4 L7.49999998,20.4 C7.33431456,20.4 7.19999998,20.2656855 7.19999998,20.1 L7.19999998,18.9 C7.19999998,18.7343146 7.33431456,18.6 7.49999998,18.6 L9.29999999,18.6 C9.46568541,18.6 9.59999999,18.7343146 9.59999999,18.9 L9.59999999,20.1 Z M9.59999999,17.1 C9.59999999,17.2656854 9.46568541,17.4 9.29999999,17.4 L7.49999998,17.4 C7.33431456,17.4 7.19999998,17.2656854 7.19999998,17.1 L7.19999998,15.9 C7.19999998,15.7343146 7.33431456,15.6 7.49999998,15.6 L9.29999999,15.6 C9.46568541,15.6 9.59999999,15.7343146 9.59999999,15.9 L9.59999999,17.1 Z M9.59999999,14.1 C9.59999999,14.2656854 9.46568541,14.4 9.29999999,14.4 L7.49999998,14.4 C7.33431456,14.4 7.19999998,14.2656854 7.19999998,14.1 L7.19999998,12.9 C7.19999998,12.7343146 7.33431456,12.6 7.49999998,12.6 L9.29999999,12.6 C9.46568541,12.6 9.59999999,12.7343146 9.59999999,12.9 L9.59999999,14.1 Z M9.59999999,11.1 C9.59999999,11.2656854 9.46568541,11.4 9.29999999,11.4 L7.49999998,11.4 C7.33431456,11.4 7.19999998,11.2656854 7.19999998,11.1 L7.19999998,9.89999999 C7.19999998,9.73431457 7.33431456,9.59999999 7.49999998,9.59999999 L9.29999999,9.59999999 C9.46568541,9.59999999 9.59999999,9.73431457 9.59999999,9.89999999 L9.59999999,11.1 Z M13.2,20.1 C13.2,20.2656855 13.0656854,20.4 12.9,20.4 L11.1,20.4 C10.9343146,20.4 10.8,20.2656855 10.8,20.1 L10.8,18.9 C10.8,18.7343146 10.9343146,18.6 11.1,18.6 L12.9,18.6 C13.0656854,18.6 13.2,18.7343146 13.2,18.9 L13.2,20.1 Z M13.2,17.1 C13.2,17.2656854 13.0656854,17.4 12.9,17.4 L11.1,17.4 C10.9343146,17.4 10.8,17.2656854 10.8,17.1 L10.8,15.9 C10.8,15.7343146 10.9343146,15.6 11.1,15.6 L12.9,15.6 C13.0656854,15.6 13.2,15.7343146 13.2,15.9 L13.2,17.1 Z M13.2,14.1 C13.2,14.2656854 13.0656854,14.4 12.9,14.4 L11.1,14.4 C10.9343146,14.4 10.8,14.2656854 10.8,14.1 L10.8,12.9 C10.8,12.7343146 10.9343146,12.6 11.1,12.6 L12.9,12.6 C13.0656854,12.6 13.2,12.7343146 13.2,12.9 L13.2,14.1 Z M13.2,11.1 C13.2,11.2656854 13.0656854,11.4 12.9,11.4 L11.1,11.4 C10.9343146,11.4 10.8,11.2656854 10.8,11.1 L10.8,9.89999999 C10.8,9.73431457 10.9343146,9.59999999 11.1,9.59999999 L12.9,9.59999999 C13.0656854,9.59999999 13.2,9.73431457 13.2,9.89999999 L13.2,11.1 Z M16.8,20.1 C16.8,20.2656855 16.6656854,20.4 16.5,20.4 L14.7,20.4 C14.5343146,20.4 14.4,20.2656855 14.4,20.1 L14.4,15.9 C14.4,15.7343146 14.5343146,15.6 14.7,15.6 L16.5,15.6 C16.6656854,15.6 16.8,15.7343146 16.8,15.9 L16.8,20.1 Z M16.8,14.1 C16.8,14.2656854 16.6656854,14.4 16.5,14.4 L14.7,14.4 C14.5343146,14.4 14.4,14.2656854 14.4,14.1 L14.4,12.9 C14.4,12.7343146 14.5343146,12.6 14.7,12.6 L16.5,12.6 C16.6656854,12.6 16.8,12.7343146 16.8,12.9 L16.8,14.1 Z M16.8,11.1 C16.8,11.2656854 16.6656854,11.4 16.5,11.4 L14.7,11.4 C14.5343146,11.4 14.4,11.2656854 14.4,11.1 L14.4,9.89999999 C14.4,9.73431457 14.5343146,9.59999999 14.7,9.59999999 L16.5,9.59999999 C16.6656854,9.59999999 16.8,9.73431457 16.8,9.89999999 L16.8,11.1 Z M16.8,7.79999998 C16.8,8.13137083 16.5313709,8.39999998 16.2,8.39999998 L7.79999998,8.39999998 C7.46862913,8.39999998 7.19999998,8.13137083 7.19999998,7.79999998 L7.19999998,4.19999997 C7.19999998,3.86862912 7.46862913,3.59999996 7.79999998,3.59999996 L16.2,3.59999996 C16.5313709,3.59999996 16.8,3.86862912 16.8,4.19999997 L16.8,7.79999998 Z" fill="#000000"></path>
    </g>
</svg>