<svg width="24" height="24">
<path d="M17.2367 14.9954C16.1132 14.9013 15.0767 14.3679 14.1096 13.8287C13.406 13.4008 12.7574 12.8874 12.1146 12.3796C10.7827 13.6005 9.18155 14.656 7.33716 14.8813C5.96472 15.0952 4.43882 14.6445 3.61652 13.495C3.02006 12.7619 2.79711 11.7207 3.21405 10.8536C3.78735 9.50432 5.39721 8.81686 6.81887 9.04221C8.71828 9.27326 10.4411 10.5055 11.828 11.735C12.2015 11.4098 12.714 10.8421 13.2352 10.5198C14.5844 9.47294 16.3362 8.75125 18.0763 9.08785C19.2432 9.39877 20.413 10.1547 20.8473 11.3128C21.1484 12.1343 21.0065 13.0956 20.4014 13.7517C19.6486 14.6702 18.4035 15.0467 17.2367 14.9954ZM6.8652 14.4591C8.4519 14.2452 9.87646 13.4237 11.0578 12.3854C11.0578 12.3854 11.2865 12.1743 11.5848 11.8748C10.5598 10.8393 8.91807 9.7696 7.57458 9.46723C6.15292 9.18769 4.56333 9.84947 3.83657 11.0989C3.2459 12.2798 3.8192 13.9885 5.17137 14.3593C5.71861 14.539 6.2977 14.5019 6.8652 14.4591ZM17.4799 14.4278C18.7018 14.288 20.0308 13.5834 20.3174 12.3112C20.5577 11.3984 20.1668 10.3686 19.3301 9.88655C18.2559 9.21907 16.8689 9.31035 15.7513 9.8238C14.4657 10.3686 13.3162 11.1987 12.3405 12.18C13.3307 13.1555 14.541 13.9542 15.8874 14.3593C16.4086 14.4905 16.95 14.4734 17.4799 14.4278Z"/>
</svg>
