<svg width="24" height="24">
<path fill-rule="evenodd" clip-rule="evenodd" d="M20.8889 12C20.8889 16.9092 16.9092 20.8889 12 20.8889C7.0908 20.8889 3.11111 16.9092 3.11111 12C3.11111 7.0908 7.0908 3.11111 12 3.11111C16.9092 3.11111 20.8889 7.0908 20.8889 12ZM22 12C22 17.5228 17.5228 22 12 22C6.47715 22 2 17.5228 2 12C2 6.47715 6.47715 2 12 2C17.5228 2 22 6.47715 22 12ZM13.5922 13.4965C14.4272 13.9985 15.3222 14.4952 16.2922 14.5829C17.2997 14.6307 18.3747 14.28 19.0247 13.4247C19.5472 12.8138 19.6697 11.9187 19.4097 11.1537C19.0347 10.0752 18.0247 9.37133 17.0172 9.0818C15.5147 8.76837 14.0022 9.4404 12.8373 10.4152C12.5227 10.625 12.2118 10.9464 11.943 11.2244C11.8273 11.344 11.7193 11.4556 11.6223 11.5468C10.4248 10.402 8.93728 9.25446 7.2973 9.0393C6.06981 8.82946 4.67982 9.46961 4.18482 10.726C3.82482 11.5335 4.01732 12.503 4.53232 13.1857C5.24231 14.2561 6.5598 14.6758 7.74479 14.4766C9.33728 14.2668 10.7198 13.284 11.8698 12.1471L11.8842 12.1594C12.4345 12.6282 12.99 13.1015 13.5922 13.4965ZM10.9573 12.1524C9.93728 13.1193 8.70728 13.8843 7.3373 14.0835C6.8473 14.1233 6.3473 14.1579 5.87481 13.9905C4.70732 13.6452 4.21232 12.0541 4.72232 10.9544C5.34981 9.79102 6.7223 9.17477 7.94979 9.43508C9.10978 9.71664 10.5273 10.7127 11.4123 11.6769C11.1548 11.9558 10.9573 12.1524 10.9573 12.1524ZM18.9522 12.0833C18.7047 13.268 17.5572 13.9241 16.5022 14.0543C16.0447 14.0968 15.5772 14.1127 15.1272 13.9905C13.9647 13.6133 12.9198 12.8696 12.0648 11.9612C12.9073 11.0474 13.8997 10.2745 15.0097 9.76711C15.9747 9.28899 17.1722 9.20399 18.0997 9.82555C18.8222 10.2745 19.1597 11.2334 18.9522 12.0833Z"/>
</svg>
