<?xml version="1.0" encoding="UTF-8"?>
<svg width="24px" height="24px" viewBox="0 0 24 24" version="1.1" xmlns="http://www.w3.org/2000/svg" xmlns:xlink="http://www.w3.org/1999/xlink">
    <title>icons/functional_UI/A-E/mdpi/ic_Camera</title>
    <g id="icons/functional_UI/A-E/ic_Camera" stroke="none" stroke-width="1" fill="none" fill-rule="evenodd">
        <path d="M21.000456,5.99966397 L7.20045598,5.99966397 L7.20045598,5.09966397 C7.20045598,4.86096913 7.10563482,4.63205061 6.93685208,4.46326787 C6.76806934,4.29448512 6.53915082,4.19966397 6.30045596,4.19966397 L4.50045597,4.19966397 C4.00339969,4.19966397 3.60045597,4.60260769 3.60045597,5.09966397 L3.60045597,5.99966397 L1.80045596,5.99966397 L1.80045596,18.599664 C1.80045596,19.2624057 2.33771426,19.799664 3.00045596,19.799664 L22.200456,19.799664 L22.200456,7.19966397 C22.200456,6.53692228 21.6631977,5.99966397 21.000456,5.99966397 Z M7.20045598,8.99966399 C7.20045598,9.33103484 6.93182683,9.59966399 6.60045597,9.59966399 L4.20045597,9.59966399 C3.86908512,9.59966399 3.60045597,9.33103484 3.60045597,8.99966399 L3.60045597,8.39966398 C3.60045597,8.06829313 3.86908512,7.79966398 4.20045597,7.79966398 L6.60045597,7.79966398 C6.93182683,7.79966398 7.20045598,8.06829313 7.20045598,8.39966398 L7.20045598,8.99966399 Z M12.900456,17.399664 C10.415184,17.399664 8.40045599,15.384984 8.40045599,12.899664 C8.40045599,10.414344 10.415184,8.39966398 12.900456,8.39966398 C15.385728,8.39966398 17.400456,10.414392 17.400456,12.899664 C17.400456,15.384936 15.385776,17.399664 12.90048,17.399664 L12.900456,17.399664 Z" fill="#000000"></path>
    </g>
</svg>