<?xml version="1.0" encoding="UTF-8"?>
<svg width="24px" height="24px" viewBox="0 0 24 24" version="1.1" xmlns="http://www.w3.org/2000/svg" xmlns:xlink="http://www.w3.org/1999/xlink">
    <title>icons/functional_UI/A-E/mdpi/ic_Car_locked</title>
    <g id="icons/functional_UI/A-E/ic_Car_locked" stroke="none" stroke-width="1" fill="none" fill-rule="evenodd">
        <path d="M22.776,15 C22.776,15.6626649 22.2386649,16.1998145 21.576,16.2 L20.376,16.2 C20.376,17.8568543 19.0328543,19.2 17.376,19.2 C15.7191458,19.2 14.376,17.8568543 14.376,16.2 L8.97599999,16.2 C8.97599999,17.8568543 7.63285423,19.2 5.97599997,19.2 C4.31914572,19.2 2.97599996,17.8568543 2.97599996,16.2 L2.37599996,16.2 C1.7133351,16.1998145 1.17599877,15.6626649 1.17599877,15 L1.17599877,10.807008 L1.17599877,10.807008 C1.17563916,10.5506818 1.25785974,10.3010577 1.41047996,10.09512 L1.41047996,10.09512 L1.41273596,10.09212 L1.41643196,10.0872 L5.01266397,5.28407997 C5.2389683,4.97923524 5.59633717,4.79965602 5.97599997,4.79999925 L13.776,4.79999925 C14.099622,4.7996456 14.4095883,4.9303856 14.6352,5.16239997 L14.64,5.15966397 L18.888,9.67199999 L18.888,9.67199999 L21.819672,10.232112 L21.81984,10.232328 C22.3765252,10.3476865 22.7757815,10.837968 22.776,11.40648 L22.776,11.40648 L22.776,15 Z M14.376,10.158864 C14.3760928,9.85125517 14.1268088,9.60181001 13.8192,9.60170399 L13.59648,9.60170399 L13.59648,8.60570399 C13.59648,7.49866025 12.6990437,6.60122398 11.592,6.60122398 C10.4849563,6.60122398 9.58751999,7.49866025 9.58751999,8.60570399 L9.58751999,9.60170399 L8.80799996,9.60170399 L8.80799996,13.842864 C8.80799996,13.9905811 8.86659308,14.1322658 8.97101334,14.2367491 C9.07543359,14.3412323 9.21708289,14.4 9.36479999,14.4 L14.376,14.4 L14.376,10.158864 Z M11.592,7.49143198 C11.8874342,7.49152108 12.1707328,7.60896732 12.3795733,7.81793386 C12.5884138,8.0269004 12.7056891,8.31026978 12.7056001,8.60570399 L12.7056001,9.60170399 L10.4783999,9.60170399 L10.4783999,8.60570399 C10.4783109,8.31026978 10.5955862,8.0269004 10.8044267,7.81793386 C11.0132672,7.60896732 11.2965658,7.49152108 11.592,7.49143198 Z M10.7567999,11.503704 C10.7570742,11.0959964 11.0516747,10.7480691 11.4537587,10.6805859 C11.8558427,10.6131027 12.2478895,10.8457877 12.3812533,11.2310663 C12.5146172,11.6163449 12.3503187,12.0416083 11.99256,12.237144 L12.1488,13.453704 L11.0352,13.453704 L11.19144,12.237144 C10.9233464,12.0905325 10.7566675,11.8092676 10.7567999,11.503704 Z" fill="#000000"></path>
    </g>
</svg>