<?xml version="1.0" encoding="UTF-8"?>
<svg width="24px" height="24px" viewBox="0 0 24 24" version="1.1" xmlns="http://www.w3.org/2000/svg" xmlns:xlink="http://www.w3.org/1999/xlink">
    <title>icons/functional_UI/A-E/mdpi/ic_Currency_money</title>
    <g id="icons/functional_UI/A-E/ic_Currency_money" stroke="none" stroke-width="1" fill="none" fill-rule="evenodd">
        <path d="M21.6,7.19999998 L21.6,18 L2.99999996,18 L2.99999996,19.2 L22.8,19.2 L22.8,7.19999998 L21.6,7.19999998 Z M11.4,7.79999998 C9.41177489,7.79999998 7.79999998,9.41177489 7.79999998,11.4 C7.79999998,13.3882251 9.41177489,15 11.4,15 C13.3882251,15 15,13.3882251 15,11.4 C15,10.4452206 14.6207154,9.52954654 13.9455844,8.85441557 C13.2704535,8.17928461 12.3547794,7.79999998 11.4,7.79999998 L11.4,7.79999998 Z M5.69999997,10.5 C5.2029437,10.5 4.79999997,10.9029437 4.79999997,11.4 C4.79999997,11.8970563 5.2029437,12.3 5.69999997,12.3 C6.19705625,12.3 6.59999998,11.8970563 6.59999998,11.4 C6.59999998,11.1613052 6.50517882,10.9323866 6.33639608,10.7636039 C6.16761334,10.5948212 5.93869482,10.5 5.69999997,10.5 L5.69999997,10.5 Z M17.1,10.5 C16.6029437,10.5 16.2,10.9029437 16.2,11.4 C16.2,11.8970563 16.6029437,12.3 17.1,12.3 C17.5970563,12.3 18,11.8970563 18,11.4 C18,11.1613052 17.9051789,10.9323866 17.7363961,10.7636039 C17.5676134,10.5948212 17.3386949,10.5 17.1,10.5 L17.1,10.5 Z M21,5.39999997 L1.79999996,5.39999997 L1.79999996,17.4 L21,17.4 L21,5.39999997 Z M19.8,14.4 C18.8058875,14.4 18,15.2058875 18,16.2 L4.79999997,16.2 C4.79999997,15.7226103 4.61035766,15.2647733 4.27279217,14.9272078 C3.93522669,14.5896423 3.47738965,14.4 2.99999996,14.4 L2.99999996,8.39999999 C3.47738965,8.39999999 3.93522669,8.21035767 4.27279217,7.87279219 C4.61035766,7.53522671 4.79999997,7.07738966 4.79999997,6.59999998 L18,6.59999998 C18,7.59411253 18.8058875,8.39999999 19.8,8.39999999 L19.8,14.4 Z" fill="#000000"></path>
    </g>
</svg>