<?xml version="1.0" encoding="UTF-8"?>
<svg width="24px" height="24px" viewBox="0 0 24 24" version="1.1" xmlns="http://www.w3.org/2000/svg" xmlns:xlink="http://www.w3.org/1999/xlink">
    <title>icons/functional_UI/A-E/mdpi/ic_Currency_converter</title>
    <g id="icons/functional_UI/A-E/ic_Currency_converter" stroke="none" stroke-width="1" fill="none" fill-rule="evenodd">
        <path d="M6.47999998,22.2 C5.22079197,22.2 4.19999997,21.3144 4.19999997,19.8 L4.19999997,1.79999996 L17.544,1.79999996 C18.803208,1.79999996 19.8,2.82395996 19.8,4.19999997 L19.8,22.2 L6.47999998,22.2 Z M6.59999998,19.824 C6.59999998,20.155368 6.89263198,20.4 7.22399998,20.4 L10.8,20.4 C11.131368,20.4 11.4,20.155368 11.4,19.824 L11.4,16.224 C11.4,15.892632 11.131368,15.6 10.8,15.6 L7.22399998,15.6 C6.89263198,15.6 6.59999998,15.892632 6.59999998,16.224 L6.59999998,19.824 Z M6.59999998,13.824 C6.59999998,14.155368 6.89263198,14.4 7.22399998,14.4 L10.8,14.4 C11.131368,14.4 11.4,14.155368 11.4,13.824 L11.4,10.224 C11.4,9.89263199 11.131368,9.59999999 10.8,9.59999999 L7.22399998,9.59999999 C6.89263198,9.59999999 6.59999998,9.89263199 6.59999998,10.224 L6.59999998,13.824 Z M17.4,4.19999997 C17.4,3.86862912 17.1313709,3.59999996 16.8,3.59999996 L7.19999998,3.59999996 C6.86862913,3.59999996 6.59999998,3.86862912 6.59999998,4.19999997 L6.59999998,7.79999998 C6.59999998,8.13136798 6.89263198,8.39999998 7.22399998,8.39999998 L16.824,8.39999998 C17.155368,8.39999998 17.4,8.13136798 17.4,7.79999998 L17.4,4.19999997 Z M17.4,10.224 C17.4,9.89263199 17.131368,9.59999999 16.8,9.59999999 L13.224,9.59999999 C12.892632,9.59999999 12.6,9.89263199 12.6,10.224 L12.6,13.8 C12.6,14.131368 12.892632,14.4 13.224,14.4 L16.8,14.4 C17.1313709,14.4 17.4,14.1313709 17.4,13.8 L17.4,10.224 Z M17.4,16.2 C17.4,15.868632 17.155368,15.6 16.824,15.6 L13.224,15.6 C12.892632,15.6 12.6,15.868632 12.6,16.2 L12.6,19.8 C12.6,20.131368 12.892632,20.4 13.224,20.4 L16.824,20.4 C17.155368,20.4 17.4,20.131368 17.4,19.8 L17.4,16.2 Z M15.72192,17.736 L16.068,17.736 C16.1409016,17.736 16.2,17.7950984 16.2,17.868 C16.2,17.9409016 16.1409016,18 16.068,18 L15.523392,18 L15.35028,18.230208 L15.35028,18.336 L16.06788,18.336 C16.1407816,18.336 16.19988,18.3950984 16.19988,18.468 C16.19988,18.5409016 16.1407816,18.6 16.06788,18.6 L15.3504,18.6 L15.3504,19.32588 C15.3537088,19.4260944 15.3209571,19.5241706 15.258096,19.602288 C15.196528,19.676592 15.11084,19.713752 15.001032,19.713768 C14.9044577,19.7177343 14.8115918,19.676279 14.750064,19.601736 C14.6870363,19.5238913 14.6540743,19.4259931 14.657184,19.32588 L14.657184,18.6 L13.932,18.6 C13.8590984,18.6 13.8,18.5409016 13.8,18.468 C13.8,18.3950984 13.8590984,18.336 13.932,18.336 L14.657064,18.336 L14.657064,18.230208 L14.490048,18 L13.932,18 C13.8590984,18 13.8,17.9409016 13.8,17.868 C13.8,17.7950984 13.8590984,17.736 13.932,17.736 L14.298504,17.736 L13.928472,17.225952 C13.915928,17.207376 13.897312,17.180976 13.872624,17.146752 C13.850547,17.1170541 13.8316513,17.0851188 13.816248,17.051472 C13.8035065,17.0228818 13.7968924,16.9919329 13.7968924,16.960632 C13.7961926,16.8653409 13.8281891,16.772689 13.887552,16.698144 C13.947984,16.620512 14.021696,16.58168 14.108688,16.581648 C14.2464538,16.5784408 14.3757709,16.6478613 14.449224,16.764456 L15.000912,17.568096 L15.585792,16.755528 C15.666112,16.636664 15.780728,16.5771963 15.92964,16.5771963 C16.0164831,16.5763982 16.0983916,16.6174999 16.149648,16.687608 C16.2079766,16.7614405 16.2388555,16.8532373 16.237008,16.947312 C16.237008,17.016432 16.19204,17.110832 16.102104,17.230512 L15.72192,17.736 Z M15.7704,13.148736 C15.644,13.29528 15.453432,13.39868 15.198696,13.458936 L15.198696,13.734456 C15.2006424,13.7944727 15.1814734,13.8532706 15.144528,13.900608 C15.1080965,13.945608 15.0524091,13.9705639 14.994576,13.967808 C14.9358271,13.9701211 14.8793778,13.9448223 14.842008,13.899432 C14.8038545,13.8530138 14.7837038,13.7944023 14.785248,13.734336 L14.785248,13.48524 C14.6261983,13.4741554 14.4694804,13.4408811 14.319648,13.386384 C14.10096,13.301584 13.991616,13.183808 13.991616,13.033056 C13.9916688,12.9522792 14.0194203,12.8739633 14.07024,12.811176 C14.1147226,12.747964 14.1871535,12.7103164 14.264448,12.710232 C14.3135498,12.7089338 14.3625119,12.7160444 14.409216,12.731256 L14.636232,12.809064 C14.76884,12.849064 14.872632,12.869064 14.947608,12.869064 C15.0384633,12.8710428 15.1275487,12.8437652 15.20172,12.791256 C15.27281,12.7416391 15.3136466,12.6591603 15.310008,12.572544 C15.310008,12.480704 15.264536,12.410248 15.173592,12.361176 C15.109704,12.327576 14.97884,12.281656 14.781,12.223416 C14.627544,12.17996 14.51212,12.142976 14.434728,12.112464 C14.3535446,12.0794967 14.2797348,12.0307007 14.2176,11.96892 C14.1466483,11.9000196 14.0907947,11.8171219 14.053584,11.725488 C14.0156083,11.6347138 13.9959593,11.5373255 13.995768,11.438928 C13.9957821,11.3596164 14.0059364,11.2806321 14.025984,11.203896 C14.0456811,11.1274752 14.0756331,11.0540727 14.115024,10.985688 C14.1549244,10.9168049 14.2037732,10.8535104 14.260296,10.797456 C14.390808,10.673344 14.56576,10.587112 14.785152,10.53876 L14.785152,10.289448 C14.7836143,10.2293827 14.8037642,10.1707734 14.841912,10.124352 C14.8793223,10.0789354 14.9358308,10.053643 14.994624,10.056 C15.0518129,10.0542088 15.1065385,10.079311 15.142488,10.123824 C15.1804895,10.1704931 15.2004547,10.2292643 15.198744,10.289424 L15.198744,10.53444 C15.600008,10.599656 15.800648,10.733216 15.800664,10.93512 C15.8020769,11.0179486 15.7688543,11.097608 15.709008,11.154888 C15.6512253,11.2138237 15.5718159,11.2465069 15.489288,11.24532 C15.463195,11.2453604 15.4371759,11.2425436 15.411696,11.23692 C15.386352,11.231304 15.353552,11.222016 15.313296,11.209056 C15.27304,11.196096 15.243528,11.186808 15.22476,11.181192 C15.1509354,11.1542717 15.0731857,11.1396769 14.994624,11.137992 C14.9205071,11.1377452 14.8478689,11.1587238 14.785296,11.198448 C14.7241791,11.2333657 14.6840926,11.2960564 14.67804,11.366184 C14.6743374,11.4250114 14.7008265,11.4816794 14.748336,11.516568 C14.8049912,11.5546279 14.867915,11.5823972 14.934216,11.5986 C15.066808,11.635752 15.186224,11.674304 15.292464,11.714256 C15.4247819,11.7572558 15.5508401,11.8175452 15.667368,11.89356 C15.7657024,11.9593345 15.8460601,12.0486181 15.901152,12.153312 C15.956352,12.258128 15.983952,12.387648 15.983952,12.541872 C15.983984,12.7824 15.9128,12.984688 15.7704,13.148736 Z M7.36811998,11.648976 C7.36811998,11.510256 7.45972798,11.37888 7.59988798,11.37888 L7.81382398,11.37888 C7.88707198,11.036736 8.02583998,10.736256 8.24186398,10.527528 C8.47358399,10.303488 8.77946399,10.199928 9.12638399,10.199928 C9.69453599,10.199928 10.06368,10.431432 10.255032,10.90524 C10.274326,10.9464128 10.2839864,10.9914401 10.28328,11.036904 C10.28328,11.146032 10.21848,11.240232 10.1052,11.28768 L10.101048,11.297856 L10.0968,11.297856 C10.0644,11.315856 10.021752,11.308632 9.98049599,11.308632 C9.87110399,11.308632 9.78309599,11.234352 9.73893599,11.127096 C9.61706399,10.831224 9.45671999,10.719288 9.12655199,10.719288 C8.74463999,10.719288 8.47055999,10.928688 8.34895198,11.37888 L9.56128799,11.37888 C9.70355999,11.37888 9.78734399,11.506584 9.78734399,11.644656 C9.78734399,11.786112 9.70149599,11.901096 9.56128799,11.901096 L8.27743198,11.901096 C8.27534398,11.973096 8.27743198,11.985096 8.27743198,12.027144 C8.27743198,12.052632 8.27678398,12.117168 8.27743198,12.171144 L9.34713599,12.171144 C9.49151999,12.171144 9.56829599,12.28032 9.56829599,12.423144 C9.56829599,12.559752 9.48518399,12.657264 9.34713599,12.657264 L8.33090398,12.657264 C8.44034399,13.089432 8.72181599,13.277376 9.12643199,13.277376 C9.47594399,13.277376 9.62927999,13.164 9.73423199,12.900048 L9.73459199,12.89904 L9.73502399,12.89808 C9.78520799,12.78048 9.87535199,12.715848 9.98877599,12.715848 C10.0211099,12.7163155 10.0531892,12.7216473 10.083936,12.731664 C10.206912,12.765432 10.2959255,12.873672 10.2959255,12.985848 C10.2964082,13.0240477 10.2880278,13.0618419 10.271424,13.096248 C10.06776,13.578648 9.71462399,13.799928 9.12643199,13.799928 C8.75061599,13.799928 8.44192799,13.69596 8.20895998,13.467048 C7.99295998,13.254768 7.86035998,12.981432 7.79603998,12.657312 L7.59993598,12.657312 C7.45977598,12.657312 7.36816798,12.561888 7.36816798,12.423192 C7.36816798,12.282312 7.45768798,12.171192 7.59993598,12.171192 L7.76039998,12.171192 C7.75982398,12.117168 7.76039998,12.053856 7.76039998,12.027192 C7.76039998,11.988 7.75838398,11.973168 7.76039998,11.901144 L7.59993598,11.901144 C7.45977598,11.901096 7.36816798,11.787792 7.36816798,11.648976 L7.36811998,11.648976 Z M7.68655198,17.77944 C7.75504798,17.71824 7.84690398,17.687632 7.96211998,17.687616 L8.10573598,17.687616 C8.04813598,17.524688 8.01933598,17.384856 8.01933598,17.26812 C8.0157433,17.0891448 8.07902676,16.9152629 8.19681598,16.780464 C8.31858711,16.6417514 8.47312696,16.5357079 8.64635999,16.471992 C8.819794,16.4041779 9.00424567,16.3689245 9.19046399,16.368 C9.52675199,16.368 9.80893599,16.445168 10.037016,16.599504 C10.254968,16.7468 10.368224,16.923456 10.376784,17.129472 C10.3788511,17.2323616 10.3392739,17.3317245 10.267032,17.405016 C10.1979265,17.4788925 10.1007939,17.5200873 9.99964799,17.518416 C9.93322898,17.5204466 9.86825288,17.4987879 9.81633599,17.457312 C9.75782963,17.406751 9.70672869,17.3482091 9.66453599,17.283408 C9.61658543,17.202228 9.54967596,17.1338774 9.46953599,17.084208 C9.38697834,17.0404386 9.29435872,17.0191584 9.20097599,17.022504 C9.10426204,17.0222829 9.01088838,17.0578644 8.93884799,17.122392 C8.86441057,17.1825443 8.82160446,17.273462 8.82266399,17.36916 C8.82266399,17.446696 8.85769599,17.55284 8.92775999,17.687592 L9.27220799,17.687592 C9.37178659,17.6838728 9.46931691,17.7165109 9.54659999,17.779416 C9.61899999,17.840648 9.65519999,17.925792 9.65519999,18.034848 C9.65840511,18.1306452 9.61646329,18.222393 9.54191999,18.282648 C9.46613086,18.3451492 9.37042157,18.3783638 9.27220799,18.376248 L9.01415999,18.376248 C9.01415999,18.539656 8.95188799,18.739808 8.82734399,18.976704 L10.01832,18.976704 C10.1147002,18.9737586 10.2089464,19.0054408 10.283976,19.066008 C10.355976,19.125544 10.391976,19.208192 10.391976,19.313952 C10.3934341,19.3783874 10.3761953,19.4418656 10.342344,19.496712 C10.3094601,19.5486195 10.2621996,19.5898516 10.206312,19.615392 C10.147441,19.6427202 10.083222,19.6565921 10.01832,19.6560182 L8.29605598,19.6560182 C8.02205598,19.6560182 7.88505598,19.532728 7.88505598,19.286184 C7.88505598,19.194616 7.92163998,19.106184 7.99480798,19.020888 C8.06914073,18.9321983 8.12975092,18.8328614 8.17461598,18.726192 C8.21408533,18.6129122 8.24072386,18.4955625 8.25403198,18.376344 L7.96211998,18.376344 C7.85002398,18.376344 7.75894398,18.346336 7.68887998,18.28632 C7.61881598,18.226304 7.58380798,18.142528 7.58380798,18.034992 C7.58380798,17.925856 7.61805598,17.840672 7.68655198,17.77944 Z" fill="#000000"></path>
    </g>
</svg>