<?xml version="1.0" encoding="UTF-8"?>
<svg width="24px" height="24px" viewBox="0 0 24 24" version="1.1" xmlns="http://www.w3.org/2000/svg" xmlns:xlink="http://www.w3.org/1999/xlink">
    <title>icons/functional_UI/A-E/mdpi/ic_Cinema</title>
    <g id="icons/functional_UI/A-E/ic_Cinema" stroke="none" stroke-width="1" fill="none" fill-rule="evenodd">
        <path d="M19.8,22.2 L4.19999997,22.2 L4.19999997,21.6 L19.8,21.6 L19.8,22.2 Z M12,3.65872797 L12.1854,4.03442397 L12.6,4.09466397 L12.3,4.38719997 L12.370824,4.79999997 L12,4.60504797 L11.629176,4.79999997 L11.7,4.38719997 L11.4,4.09466397 L11.8146,4.03442397 L12,3.65872797 Z M12,5.45872797 L12.1854,5.83442397 L12.6,5.89466397 L12.3,6.18719998 L12.370824,6.59999998 L12,6.40504798 L11.629176,6.59999998 L11.7,6.18719998 L11.4,5.89466397 L11.8146,5.83442397 L12,5.45872797 Z M12,7.25872798 L12.1854,7.63442398 L12.6,7.69466398 L12.3,7.98719998 L12.370824,8.39999999 L12,8.20504798 L11.629176,8.39999999 L11.7,7.98719998 L11.4,7.69466398 L11.8146,7.63442398 L12,7.25872798 Z M5.39999997,15.6 L5.39999997,21 L7.79999998,21 L7.79999998,18.3 C7.79999998,18.1343146 7.93431456,18 8.09999998,18 L9.29999999,18 C9.46568541,18 9.59999999,18.1343146 9.59999999,18.3 L9.59999999,21 L14.4,21 L14.4,18.3 C14.4,18.1343146 14.5343146,18 14.7,18 L15.9,18 C16.0656854,18 16.2,18.1343146 16.2,18.3 L16.2,21 L18.6,21 L18.6,15.6 L5.39999997,15.6 Z M13.2,19.5 C13.2,19.6656855 13.0656854,19.8 12.9,19.8 L12.6,19.8 C12.6,19.4686292 12.3313709,19.2 12,19.2 C11.6686291,19.2 11.4,19.4686292 11.4,19.8 L11.1,19.8 C10.9343146,19.8 10.8,19.6656855 10.8,19.5 L10.8,18.3 C10.8,18.1343146 10.9343146,18 11.1,18 L12.9,18 C13.0656854,18 13.2,18.1343146 13.2,18.3 L13.2,19.5 Z M13.5,17.4 L10.5,17.4 C10.3343146,17.4 10.2,17.2656854 10.2,17.1 L10.2,17.1 C10.2,16.9343146 10.3343146,16.8 10.5,16.8 L13.5,16.8 C13.6656854,16.8 13.8,16.9343146 13.8,17.1 L13.8,17.1 C13.8,17.2656854 13.6656854,17.4 13.5,17.4 Z M19.2,9.59999999 L17.4,9.59999999 L17.4,8.86319999 C17.4,8.27601084 16.9239892,7.79999998 16.3368,7.79999998 L16.164744,7.79999998 C16.0149646,7.79999998 15.8713197,7.74050034 15.7654097,7.63459029 C15.6594997,7.52868025 15.6,7.3850354 15.6,7.23525598 L15.6,6.59644798 C15.5999868,5.93567348 15.0643265,5.40001323 14.403552,5.39999996 L14.403552,5.39999996 C14.0702194,5.39999996 13.8,5.12978054 13.8,4.79644797 L13.8,4.19999997 C13.7971002,3.20709103 12.9929089,2.40289975 12,2.39999996 L12,2.39999996 C11.0070911,2.40289975 10.2028998,3.20709103 10.2,4.19999997 L10.2,4.78989597 C10.2,4.95170561 10.1357214,5.10688795 10.0213047,5.22130465 C9.90688797,5.33572134 9.75170563,5.39999996 9.58989599,5.39999996 L9.58749599,5.39999996 C8.93164453,5.40005299 8.39999998,5.93174051 8.39999998,6.58759198 L8.39999998,7.22939998 C8.40000635,7.38073446 8.33989178,7.5258725 8.23288214,7.63288214 C8.12587251,7.73989178 7.98073446,7.80000635 7.82939998,7.79999998 L7.66319998,7.79999998 C7.07601083,7.79999998 6.59999998,8.27601084 6.59999998,8.86319999 L6.59999998,9.59999999 L4.79999997,9.59999999 C4.46862912,9.59999999 4.19999997,9.86862914 4.19999997,10.2 L4.19999997,13.8 L5.38756797,15 L18.587568,15 L19.787568,13.8 L19.8,13.8 L19.8,10.2 C19.8,9.86862914 19.5313709,9.59999999 19.2,9.59999999 Z M10.8,4.19999997 C10.8,3.53725826 11.3372583,2.99999996 12,2.99999996 C12.6627417,2.99999996 13.2,3.53725826 13.2,4.19999997 L13.2,9.59999999 L10.8,9.59999999 L10.8,4.19999997 Z M19.2,13.2 L4.79999997,13.2 L4.79999997,12 L19.2,12 L19.2,13.2 Z M19.2,11.4 L4.79999997,11.4 L4.79999997,10.2 L19.2,10.2 L19.2,11.4 Z" fill="#000000"></path>
    </g>
</svg>