<svg width="24" height="24"><path d="M14.308 4v2.824c0 .52.367.94.82.94H18zm.923 4.706c-.49 0-.96-.198-1.306-.551a1.9 1.9 0 0 1-.54-1.331V4H6v15.059c0 .25.097.489.27.665a.9.9 0 0 0 .653.276H18V8.706zm-5.17 4.57c-.15-.242-.41-1.114-.472-1.111a.07.07 0 0 0-.05.031c-.013.018-1.46 2.432-1.51 2.468l-.557-.661c.437-.603 1.447-2.242 1.551-2.35 1.093-1.114 1.447.854 1.54 1.048.253-.437 1.495-3 1.65-3 .223-.001 1.186 1.398 1.545 1.831.11.133.524.527.903.527.791-.001 2.239-1.877 2.239-1.877-.298.567-1.147 2.479-2.331 2.614-.55.062-.85-.22-1.032-.369-.683-.558-1.062-1.593-1.247-1.593-.04 0-.046.024-.06.042-.008.011-.831 2.195-.94 2.356-.243.364-.866.625-1.228.045"/></svg>