<?xml version="1.0" encoding="UTF-8"?>
<svg width="24px" height="24px" viewBox="0 0 24 24" version="1.1" xmlns="http://www.w3.org/2000/svg" xmlns:xlink="http://www.w3.org/1999/xlink">
    <title>icons/functional_UI/A-E/mdpi/ic_Delete</title>
    <g id="icons/functional_UI/A-E/ic_Delete" stroke="none" stroke-width="1" fill="none" fill-rule="evenodd">
        <path d="M19.619832,16.22796 C20.0880192,16.6963347 20.0880192,17.4555213 19.619832,17.923896 L17.923896,19.619832 C17.4555213,20.0880192 16.6963347,20.0880192 16.22796,19.619832 L11.988,15.379872 L7.74803998,19.619832 C7.27966527,20.0880192 6.52047868,20.0880192 6.05210398,19.619832 L4.35616797,17.923896 C3.88798076,17.4555213 3.88798076,16.6963347 4.35616797,16.22796 L8.59612799,11.988 L4.35616797,7.74803998 C3.88798076,7.27966527 3.88798076,6.52047868 4.35616797,6.05210398 L6.05210398,4.35616797 C6.52047868,3.88798076 7.27966527,3.88798076 7.74803998,4.35616797 L11.988,8.59612799 L16.22796,4.35616797 C16.6963347,3.88798076 17.4555213,3.88798076 17.923896,4.35616797 L19.619832,6.05210398 C20.0880192,6.52047868 20.0880192,7.27966527 19.619832,7.74803998 L15.379872,11.988 L19.619832,16.22796 Z" fill="#000000"></path>
    </g>
</svg>