<svg width="24" height="24"><path fill-rule="evenodd" d="M22 12c0 5.523-4.477 10-10 10S2 17.523 2 12 6.477 2 12 2s10 4.477 10 10m-2.06 4A8.89 8.89 0 0 1 10 20.663V16h5.57l-.092.746h1.305l.025-.746zm.43-1A8.889 8.889 0 0 0 10 3.337V15h2.311q-.319-.117-.565-.369l-.9-.558-.099-5.787h1.089l-.072 2.151c.333-.333.738-.468 1.287-.468 1.224 0 2.043 1.053 2.043 2.574 0 1.223-.53 2.143-1.373 2.457h1.97l.066-.531.108-4.392h1.098l-.027.315c.324-.279.729-.423 1.242-.423 1.206 0 2.043 1.062 2.043 2.574 0 1.223-.541 2.143-1.38 2.457zm-2.92 0a1.6 1.6 0 0 1-.595-.378l-.013.378zM9 15V3.63A8.893 8.893 0 0 0 3.63 15h1.4c-.844-.314-1.373-1.234-1.373-2.457 0-1.521.819-2.574 2.043-2.574.549 0 .99.162 1.323.495l.072-2.178h1.08L8.094 15zm-1.995 0v-.369c-.16.17-.347.29-.562.369zM4.06 16A8.92 8.92 0 0 0 9 20.37V16zm.767-4.753c-.198.288-.306.684-.315 1.188.054.369.171.621.333.765s.414.216.774.216c.72 0 1.017-.126 1.044-1.008-.018-.477-.108-.873-.279-1.143a.84.84 0 0 0-.747-.414.95.95 0 0 0-.81.405zm9.115 1.953c.162-.135.279-.423.351-.837-.018-.504-.126-.882-.306-1.143-.162-.261-.423-.387-.756-.387-.342 0-.612.144-.81.387-.198.27-.306.666-.315 1.161.108.711.441 1.062 1.107 1.062.306-.018.54-.108.729-.243m5.154-1.989c.207.279.315.675.315 1.197 0 1.008-.351 1.143-1.08 1.143s-1.161-.144-1.161-1.143c0-.513.108-.918.306-1.206v.009a.96.96 0 0 1 .81-.414c.342 0 .612.135.81.414" clip-rule="evenodd"/></svg>