<?xml version="1.0" encoding="UTF-8"?>
<svg width="24px" height="24px" viewBox="0 0 24 24" version="1.1" xmlns="http://www.w3.org/2000/svg" xmlns:xlink="http://www.w3.org/1999/xlink">
    <title>icons/functional_UI/A-E/mdpi/ic_Do_not_disturb</title>
    <g id="icons/functional_UI/A-E/ic_Do_not_disturb" stroke="none" stroke-width="1" fill="none" fill-rule="evenodd">
        <path d="M16.2,15.59712 C11.892168,15.59712 8.39999998,12.10344 8.39999998,7.79373598 C8.39765138,5.49108097 9.41447776,3.30544158 11.177304,1.82399996 C5.92871997,2.24311196 1.79999996,6.63688798 1.79999996,11.99556 C1.79999996,17.631312 6.36669598,22.2 12,22.2 C17.356344,22.2 21.7482,18.069456 22.16712,12.818616 C20.6870236,14.5818776 18.5021234,15.5992451 16.2,15.59712 L16.2,15.59712 Z M12.36,9.76271999 L13.44,10.723128 L13.08,12.163752 L14.4,11.44344 L15.72,12.163752 L15.36,10.723128 L16.44,9.76271999 L15,9.52271999 L14.4,8.27419198 L13.8,9.52247999 L12.36,9.76271999 Z M16.59,3.89203197 L18.075,5.21260797 L17.58,7.19347198 L19.395,6.20303998 L21.21,7.19347198 L20.715,5.21260797 L22.2,3.89205597 L20.22,3.56188796 L19.395,1.84514396 L18.57,3.56188796 L16.59,3.89203197 Z" fill="#000000"></path>
    </g>
</svg>