<?xml version="1.0" encoding="UTF-8"?>
<svg width="24px" height="24px" viewBox="0 0 24 24" version="1.1" xmlns="http://www.w3.org/2000/svg" xmlns:xlink="http://www.w3.org/1999/xlink">
    <title>icons/functional_UI/A-E/mdpi/ic_Device_locked</title>
    <g id="icons/functional_UI/A-E/ic_Device_locked" stroke="none" stroke-width="1" fill="none" fill-rule="evenodd">
        <path d="M16.801224,1.79999996 L7.19882398,1.79999996 C6.88071915,1.79999996 6.57570409,1.92666747 6.35088028,2.15171182 C6.12605647,2.37675618 5.99984081,2.68189513 5.99999982,2.99999996 L5.99999982,21 C5.99966852,21.662401 6.53637499,22.1996555 7.19877598,22.2 L16.801176,22.2 C17.1192809,22.2 17.4242959,22.0733325 17.6491197,21.8482882 C17.8739435,21.6232438 18.0001592,21.3181049 17.9999998,21 L17.9999998,2.99999996 C18.0003315,2.33759896 17.463625,1.8003445 16.801224,1.79999996 Z M11.1,2.39999996 L12.9,2.39999996 C13.0656854,2.39999996 13.2,2.53431454 13.2,2.69999996 C13.2,2.86568539 13.0656854,2.99999996 12.9,2.99999996 L11.1,2.99999996 C10.9343146,2.99999996 10.8,2.86568539 10.8,2.69999996 C10.8,2.53431454 10.9343146,2.39999996 11.1,2.39999996 Z M12,21.6 C11.6686291,21.6 11.4,21.3313709 11.4,21 C11.4,20.6686292 11.6686291,20.4 12,20.4 C12.3313709,20.4 12.6,20.6686292 12.6,21 C12.6,21.3313709 12.3313709,21.6 12,21.6 Z M16.8,19.8 L7.19999998,19.8 L7.19999998,3.59999996 L16.8,3.59999996 L16.8,19.8 Z M14.4,10.2 L13.8,10.2 L13.8,8.99999999 C13.8,8.00588743 12.9941126,7.19999998 12,7.19999998 C11.0058874,7.19999998 10.2,8.00588743 10.2,8.99999999 L10.2,10.2 L8.99999999,10.2 L8.99999999,15 C8.99999999,15.3313709 9.26862914,15.6 9.59999999,15.6 L15,15.6 L15,10.8 C15,10.4686291 14.7313709,10.2 14.4,10.2 Z M10.8,8.99999999 C10.8,8.33725828 11.3372583,7.79999998 12,7.79999998 C12.6627417,7.79999998 13.2,8.33725828 13.2,8.99999999 L13.2,10.2 L10.8,10.2 L10.8,8.99999999 Z M12.361128,12.906024 L12.495528,14.273808 L11.496168,14.273808 L11.630568,12.906024 C11.3325592,12.7397069 11.1845241,12.3930753 11.2704508,12.0627917 C11.3563775,11.7325082 11.6545701,11.5019674 11.995848,11.5019674 C12.3371259,11.5019674 12.6353185,11.7325082 12.7212452,12.0627917 C12.8071719,12.3930753 12.6591368,12.7397069 12.361128,12.906024 Z" fill="#000000"></path>
    </g>
</svg>