<svg xmlns="http://www.w3.org/2000/svg" width="24" height="24"><path fill-rule="evenodd" d="M15.298 5.875h4.07a.632.632 0 0 1 .632.632v.486a.632.632 0 0 1-.631.631h-4.07a.632.632 0 0 1-.633-.631v-.486a.631.631 0 0 1 .632-.632Zm0 10.5h4.07a.632.632 0 0 1 .632.631v.487a.632.632 0 0 1-.631.631h-4.07a.631.631 0 0 1-.633-.631v-.486a.631.631 0 0 1 .632-.632Zm0-7h4.07a.632.632 0 0 1 .632.632v.486a.631.631 0 0 1-.631.632h-4.07a.631.631 0 0 1-.633-.632v-.486a.631.631 0 0 1 .632-.632Zm0 3.5h4.07a.632.632 0 0 1 .632.631v.487a.632.632 0 0 1-.631.632h-4.07a.632.632 0 0 1-.633-.632v-.486a.631.631 0 0 1 .632-.632Zm-10.667-7h4.07a.632.632 0 0 1 .632.632v.486a.632.632 0 0 1-.631.631h-4.07A.632.632 0 0 1 4 6.993v-.486a.632.632 0 0 1 .631-.632Zm0 10.5h4.07a.632.632 0 0 1 .632.631v.487a.631.631 0 0 1-.631.631h-4.07A.631.631 0 0 1 4 17.493v-.486a.632.632 0 0 1 .631-.632Zm0-7h4.07a.632.632 0 0 1 .632.632v.486a.631.631 0 0 1-.631.632h-4.07A.631.631 0 0 1 4 10.493v-.486a.632.632 0 0 1 .631-.632Zm0 3.5h4.07a.632.632 0 0 1 .632.631v.487a.632.632 0 0 1-.631.632h-4.07A.632.632 0 0 1 4 13.993v-.486a.631.631 0 0 1 .631-.632ZM11.743 5h.514a.632.632 0 0 1 .632.632v12.736a.631.631 0 0 1-.632.632h-.514a.631.631 0 0 1-.632-.632V5.632A.632.632 0 0 1 11.743 5Z"/></svg>