<svg width="24" height="24">
<path fill-rule="evenodd" clip-rule="evenodd" d="M22 12C22 17.5228 17.5228 22 12 22C6.47715 22 2 17.5228 2 12C2 6.47715 6.47715 2 12 2C17.5228 2 22 6.47715 22 12ZM19.9402 16C18.4764 18.9001 15.4704 20.8889 12 20.8889C11.3123 20.8889 10.6428 20.8108 10 20.663V16H15.5692L15.4778 16.746H16.7828L16.8081 16H19.9402ZM20.3699 15C20.7059 14.0628 20.8889 13.0528 20.8889 12C20.8889 7.0908 16.9092 3.11111 12 3.11111C11.3123 3.11111 10.6428 3.18921 10 3.33701V15H12.3113C12.0979 14.9212 11.9109 14.8004 11.746 14.631L10.846 14.073L10.747 8.28601H11.836L11.764 10.437C12.097 10.104 12.502 9.96901 13.051 9.96901C14.275 9.96901 15.094 11.022 15.094 12.543C15.094 13.7658 14.5646 14.6861 13.7211 15H15.6918L15.7568 14.469L15.8648 10.077H16.9628L16.9358 10.392C17.2598 10.113 17.6648 9.96901 18.1778 9.96901C19.3838 9.96901 20.2208 11.031 20.2208 12.543C20.2208 13.7658 19.6798 14.6861 18.8411 15H20.3699ZM17.4506 15C17.2238 14.9179 17.0252 14.7923 16.8548 14.622L16.842 15H17.4506ZM9 15V3.63009C5.56694 4.86074 3.11111 8.14358 3.11111 12C3.11111 13.0528 3.29413 14.0628 3.63009 15H5.0299C4.18633 14.6861 3.65698 13.7658 3.65698 12.543C3.65698 11.022 4.47598 9.96901 5.69998 9.96901C6.24898 9.96901 6.68998 10.131 7.02298 10.464L7.09498 8.28601H8.17498L8.09398 15H9ZM7.00498 15V14.631C6.84452 14.8004 6.65758 14.9212 6.44305 15H7.00498ZM4.05981 16C5.07959 18.0203 6.84775 19.5984 9 20.3699V16H4.05981ZM4.82698 11.247C4.62898 11.535 4.52098 11.931 4.51198 12.435C4.56598 12.804 4.68298 13.056 4.84498 13.2C5.00698 13.344 5.25898 13.416 5.61898 13.416C6.33898 13.416 6.63598 13.29 6.66298 12.408C6.64498 11.931 6.55498 11.535 6.38398 11.265C6.22198 11.004 5.96998 10.851 5.63698 10.851C5.29498 10.851 5.02498 10.986 4.82698 11.256V11.247ZM13.942 13.2C14.104 13.065 14.221 12.777 14.293 12.363C14.275 11.859 14.167 11.481 13.987 11.22C13.825 10.959 13.564 10.833 13.231 10.833C12.889 10.833 12.619 10.977 12.421 11.22C12.223 11.49 12.115 11.886 12.106 12.381C12.214 13.092 12.547 13.443 13.213 13.443C13.519 13.425 13.753 13.335 13.942 13.2ZM19.0958 11.211C19.3028 11.49 19.4108 11.886 19.4108 12.408C19.4108 13.416 19.0598 13.551 18.3308 13.551C17.6018 13.551 17.1698 13.407 17.1698 12.408C17.1698 11.895 17.2778 11.49 17.4758 11.202V11.211C17.6828 10.932 17.9528 10.797 18.2858 10.797C18.6278 10.797 18.8978 10.932 19.0958 11.211Z"/>
</svg>
