<?xml version="1.0" encoding="UTF-8"?>
<svg width="24px" height="24px" viewBox="0 0 24 24" version="1.1" xmlns="http://www.w3.org/2000/svg" xmlns:xlink="http://www.w3.org/1999/xlink">
    <title>icons/functional_UI/A-E/mdpi/ic_Decrease_text_size</title>
    <g id="icons/functional_UI/A-E/ic_Decrease_text_size" stroke="none" stroke-width="1" fill="none" fill-rule="evenodd">
        <path d="M13.8,17.784 L6.59999998,17.784 L6.15424798,19.397376 C5.76091997,20.865936 5.12319997,21.600072 4.24108797,21.600072 C3.63751997,21.600072 3.10039996,21.453928 2.62972796,21.161784 C2.15863996,20.869656 1.88206396,20.44952 1.79999996,19.901376 C1.79999996,19.322064 1.85712796,18.876 1.97138396,18.563184 L7.02532798,4.79131197 C7.28577598,4.07587197 7.69599998,3.49848796 8.25599998,3.05915996 C8.81599999,2.61983196 9.46399999,2.39999996 10.2,2.39999996 C10.93568,2.39999996 11.583568,2.61737596 12.143664,3.05212796 C12.70376,3.48687996 13.114096,4.06660797 13.374672,4.79131197 L18.428616,18.563184 C18.542744,18.889248 18.6,19.335312 18.6,19.901376 C18.535632,20.445088 18.267,20.86412 17.794104,21.158472 C17.320952,21.452696 16.77352,21.600072 16.151808,21.600072 C15.744704,21.600072 15.381328,21.423384 15.06168,21.070008 C14.743625,20.7202731 14.5112355,20.3013822 14.382864,19.846416 L13.8,17.784 Z M12.504,13.968 L10.227576,6.90290398 L7.94399998,13.968 L12.504,13.968 Z M15,6.59999998 L15,5.39999997 C15,5.06862912 15.2686292,4.79999997 15.6,4.79999997 L21.6,4.79999997 C21.9313709,4.79999997 22.2,5.06862912 22.2,5.39999997 L22.2,6.59999998 C22.2,6.93137083 21.9313709,7.19999998 21.6,7.19999998 L15.6,7.19999998 C15.2686292,7.19999998 15,6.93137083 15,6.59999998 Z" fill="#000000"></path>
    </g>
</svg>