<?xml version="1.0" encoding="UTF-8"?>
<svg width="24px" height="24px" viewBox="0 0 24 24" version="1.1" xmlns="http://www.w3.org/2000/svg" xmlns:xlink="http://www.w3.org/1999/xlink">
    <title>icons/functional_UI/A-E/mdpi/ic_Drag_and_Drop</title>
    <g id="icons/functional_UI/A-E/ic_Drag_and_Drop" stroke="none" stroke-width="1" fill="none" fill-rule="evenodd">
        <g transform="translate(3.000000, 3.000000)" fill="#000000" fill-rule="nonzero" id="Drag_and_Drop">
            <path d="M9.46621894,0.195210945 C9.34122942,0.0702195752 9.17170613,0 8.99494294,0 C8.81817976,0 8.64865647,0.0702195752 8.52366694,0.195210945 L5.59566694,3.12321094 L8.06783494,3.12321094 L8.06783494,6.21361894 C8.06782858,6.45950425 8.16550167,6.69532091 8.33936659,6.86919033 C8.51323151,7.04305975 8.74904564,7.14073894 8.99493094,7.14073894 L8.99493094,7.14073894 C9.24081625,7.14073894 9.47663038,7.04305975 9.6504953,6.86919033 C9.82436022,6.69532091 9.92203331,6.45950425 9.92202694,6.21361894 L9.92202694,3.12328294 L12.3942909,3.12328294 L9.46621894,0.195210945 Z M8.52366694,17.7946749 C8.64865647,17.9196663 8.81817976,17.9898859 8.99494294,17.9898859 C9.17170613,17.9898859 9.34122942,17.9196663 9.46621894,17.7946749 L12.3942189,14.8666749 L9.92202694,14.8666749 L9.92202694,11.7762429 C9.92202694,11.5303618 9.82435104,11.2945513 9.65048681,11.1206871 C9.47662259,10.9468229 9.24081209,10.8491469 8.99493094,10.8491469 L8.99493094,10.8491469 C8.48290996,10.8491469 8.06783494,11.264222 8.06783494,11.7762429 L8.06783494,14.8665789 L5.59557094,14.8665789 L8.52366694,17.7946749 Z M0.195210945,8.52366694 C0.0702195752,8.64865647 0,8.81817976 0,8.99494294 C0,9.17170613 0.0702195752,9.34122942 0.195210945,9.46621894 L3.12321094,12.3942189 L3.12321094,9.92202694 L6.21361894,9.92202694 C6.45950425,9.92203331 6.69532091,9.82436022 6.86919033,9.6504953 C7.04305975,9.47663038 7.14073894,9.24081625 7.14073894,8.99493094 L7.14073894,8.99493094 C7.14073894,8.74904564 7.04305975,8.51323151 6.86919033,8.33936659 C6.69532091,8.16550167 6.45950425,8.06782858 6.21361894,8.06783494 L3.12328294,8.06783494 L3.12328294,5.59557094 L0.195210945,8.52366694 Z M17.7946749,9.46621894 C17.9196663,9.34122942 17.9898859,9.17170613 17.9898859,8.99494294 C17.9898859,8.81817976 17.9196663,8.64865647 17.7946749,8.52366694 L14.8666749,5.59566694 L14.8666749,8.06783494 L11.7762429,8.06783494 C11.264222,8.06783494 10.8491469,8.48290996 10.8491469,8.99493094 L10.8491469,8.99493094 C10.8491469,9.24081209 10.9468229,9.47662259 11.1206871,9.65048681 C11.2945513,9.82435104 11.5303618,9.92202694 11.7762429,9.92202694 L14.8665789,9.92202694 L14.8665789,12.3942909 L17.7946749,9.46621894 Z"></path>
        </g>
    </g>
</svg>