<svg width="24" height="24">
<path fill-rule="evenodd" clip-rule="evenodd" d="M20.8889 12C20.8889 16.9092 16.9092 20.8889 12 20.8889C11.2087 20.8889 10.4415 20.7855 9.71122 20.5914V9.37845H8.30118L8.15362 10.1613H8.10989C7.89128 9.85473 7.63806 9.62845 7.35022 9.48246C7.06238 9.33648 6.72536 9.26348 6.33914 9.26348C5.61408 9.26348 5.04205 9.54451 4.62304 10.1066C4.20768 10.6686 4 11.4496 4 12.4497C4 13.4424 4.20404 14.2179 4.61211 14.7763C5.02019 15.3311 5.58493 15.6085 6.30635 15.6085C6.69256 15.6085 7.03323 15.5318 7.32836 15.3785C7.62348 15.2252 7.86031 15.0008 8.03885 14.7052H8.10989C8.06253 15.0957 8.03885 15.4022 8.03885 15.6249V19.9597C5.1177 18.5031 3.11111 15.4859 3.11111 12C3.11111 8.35097 5.3099 5.21549 8.45484 3.84621L11.1051 5.76855C11.1717 5.8133 11.433 5.95383 11.889 6.19013L11.8402 6.26285C11.1802 6.31135 10.6501 6.63408 10.2501 7.23104C9.98406 7.628 9.85692 8.04362 9.86868 8.47791C9.88043 8.9122 10.0332 9.34239 10.3269 9.76847C10.6186 10.1976 11.0352 10.5942 11.5767 10.9583C12.3995 11.5116 13.1561 11.7742 13.8463 11.746C14.5366 11.7179 15.0828 11.4038 15.4849 10.8038C15.9114 10.1674 15.9821 9.51832 15.6973 8.85641L15.7399 8.79278L16.5288 9.03976L17.2843 7.91251L10.5485 3.22904C11.0208 3.15146 11.5057 3.11111 12 3.11111C16.0638 3.11111 19.4907 5.8382 20.5504 9.56215L10.3737 14.7169L11 15.9824L11.7658 15.7671L11.7852 15.8063C11.6081 16.1387 11.5182 16.4665 11.5154 16.7896C11.5127 17.1128 11.5971 17.4477 11.7687 17.7943C12.0907 18.445 12.5962 18.8335 13.285 18.9599C13.9722 19.083 14.763 18.9225 15.6575 18.4783C16.5454 18.0374 17.1484 17.5098 17.4666 16.8955C17.7815 16.2829 17.7788 15.6529 17.4584 15.0054C17.2868 14.6588 17.0669 14.3871 16.7987 14.1903C16.5306 13.9936 16.2246 13.8807 15.8809 13.8518L15.8493 13.788C16.2197 13.6571 16.5044 13.5422 16.7035 13.4433L20.8609 11.2894C20.8794 11.5238 20.8889 11.7608 20.8889 12ZM8.03885 21.1848C4.4863 19.6506 2 16.1157 2 12C2 6.47715 6.47715 2 12 2C17.5228 2 22 6.47715 22 12C22 17.5228 17.5228 22 12 22C10.5997 22 9.26653 21.7122 8.05658 21.1924H8.03885V21.1848ZM14.8612 8.65028C14.9673 8.95024 14.9057 9.27143 14.6762 9.61385C14.4569 9.94111 14.1709 10.0961 13.8183 10.0788C13.4667 10.0665 13.0413 9.89255 12.5421 9.55692C11.5197 8.86937 11.2166 8.21499 11.6329 7.5938C11.8684 7.24229 12.159 7.06405 12.5046 7.05908C12.8482 7.05715 13.2923 7.23925 13.8368 7.6054L13.9865 7.70609C14.4665 8.03762 14.7581 8.35235 14.8612 8.65028ZM7.83116 13.9387C7.63441 14.1796 7.32472 14.3 6.90207 14.3C6.49035 14.3 6.18611 14.1486 5.98936 13.8457C5.79626 13.5427 5.6997 13.0847 5.6997 12.4716C5.6997 11.238 6.09138 10.6212 6.87474 10.6212C7.32289 10.6212 7.64717 10.7635 7.84756 11.0482C8.0516 11.3329 8.15362 11.8037 8.15362 12.4606V12.6632C8.1354 13.269 8.02792 13.6942 7.83116 13.9387ZM16.0235 15.052C15.8357 14.6726 15.5905 14.4482 15.2876 14.3786C14.9815 14.3107 14.5535 14.4031 14.0035 14.6558L13.8223 14.7458C13.2347 15.0376 12.8589 15.3383 12.6949 15.6478C12.5293 15.9541 12.5461 16.3084 12.7451 16.7106C13.0931 17.4136 13.8187 17.4911 14.9221 16.9432C15.4705 16.6708 15.8373 16.3807 16.0225 16.0729C16.206 15.7618 16.2064 15.4215 16.0235 15.052Z"/>
</svg>
