<?xml version="1.0" encoding="UTF-8"?>
<svg width="24px" height="24px" viewBox="0 0 24 24" version="1.1" xmlns="http://www.w3.org/2000/svg" xmlns:xlink="http://www.w3.org/1999/xlink">
    <title>icons/functional_UI/A-E/mdpi/ic_Drive</title>
    <g id="icons/functional_UI/A-E/ic_Drive" stroke="none" stroke-width="1" fill="none" fill-rule="evenodd">
        <path d="M12,1.79999996 C6.36669598,1.79999996 1.79999996,6.36669598 1.79999996,12 C1.79999996,17.633304 6.36669598,22.2 12,22.2 C17.633304,22.2 22.2,17.633304 22.2,12 C22.2,6.36669598 17.633304,1.79999996 12,1.79999996 Z M12,3.59999996 C15.826512,3.59999996 19.055352,6.15861598 20.069184,9.65831999 C20.213712,10.15716 19.794216,10.639224 19.279392,10.570584 L15.354888,10.047384 C15.1359768,10.0180623 14.9365832,9.9060858 14.797608,9.73442399 C14.1140822,8.8904294 13.0860637,8.40012244 12,8.40012244 C10.9139363,8.40012244 9.88591779,8.8904294 9.20239199,9.73442399 C9.06341683,9.9060858 8.86402318,10.0180623 8.64511199,10.047384 L4.72060797,10.570584 C4.20578397,10.639224 3.78628797,10.15716 3.93081597,9.65831999 C4.94464797,6.15861598 8.17348798,3.59999996 12,3.59999996 Z M4.72079997,13.42944 L8.64508799,13.95264 C8.86229523,13.9808839 9.06042672,14.0912737 9.19874399,14.261112 C9.32721305,14.4199932 9.46889435,14.5677201 9.62227199,14.702712 C9.77706023,14.8375487 9.87948602,15.022537 9.91161599,15.225288 L10.531392,19.254 C10.611648,19.775688 10.12248,20.206368 9.61629599,20.056848 C6.87414213,19.2425342 4.73318376,17.0913885 3.93189597,14.3454 C3.86413914,14.1111736 3.9192242,13.8585711 4.07834743,13.6738205 C4.23747067,13.4890699 4.47911755,13.3971506 4.72079997,13.42944 L4.72079997,13.42944 Z M12.0342,13.799688 C11.3000774,13.8136241 10.6310776,13.3802595 10.3436652,12.7045937 C10.0562528,12.0289279 10.2080475,11.2464166 10.727244,10.72722 C11.2464406,10.2080235 12.0289519,10.0562288 12.7046177,10.3436412 C13.3802835,10.6310536 13.8136481,11.3000534 13.799712,12.034176 C13.781348,13.0015419 13.0015422,13.7813371 12.034176,13.799688 L12.0342,13.799688 Z M13.468608,19.254 L14.088408,15.225432 C14.120538,15.022681 14.2229638,14.8376927 14.377752,14.702856 C14.5311296,14.5678641 14.672811,14.4201372 14.80128,14.261256 C14.9395973,14.0914177 15.1377288,13.9810279 15.354936,13.952784 L19.2792,13.42944 C19.5208785,13.3971597 19.7625176,13.4890829 19.9216347,13.6738321 C20.0807518,13.8585812 20.1358343,14.1111782 20.06808,14.3454 C19.2667828,17.0913643 17.125837,19.2424883 14.383704,20.0568 C13.87752,20.206368 13.388352,19.775688 13.468608,19.254 Z" fill="#000000"></path>
    </g>
</svg>