<svg xmlns="http://www.w3.org/2000/svg" width="24" height="24"><path fill-rule="evenodd" d="M12.648 4c.256 0 .512.018.767.038a7.64 7.64 0 0 1 1.239.194c1.162.285 2.183.822 3.044 1.644a7.1 7.1 0 0 1 1.347 1.794c.314.584.547 1.197.688 1.843.065.295.117.593.165.89.026.158.03.317.048.476.042.377.06.756.052 1.135l-.038 1.693-.016.762-.012.468-.002.098v.436h-.099c-.5 0-1.002.002-1.503-.002-.068 0-.093.024-.117.08a7.45 7.45 0 0 1-1.549 2.389 6.68 6.68 0 0 1-3.348 1.863c-.276.063-.56.102-.84.144a5.018 5.018 0 0 1-.502.042c-.228.009-.456.012-.684.012H4.003c-.001-.03-.003-.06-.003-.091V8.548l.003-.09h1.074V4.007c.035-.002.06-.004.085-.004C7.657 4 10.153 3.999 12.648 4ZM9.77 5.75H6.864v4.461H5.79v8.035h5.768c.189 0 .379-.008.567-.029.24-.026.48-.059.714-.109a4.884 4.884 0 0 0 2.831-1.72c.54-.66.901-1.41 1.138-2.22.044-.147.079-.297.12-.452h1.255c0-.197-.002-.385 0-.574.004-.238.008-.476.014-.714.014-.45.03-.9-.027-1.348-.027-.216-.038-.434-.078-.648a10.432 10.432 0 0 0-.194-.876c-.132-.47-.33-.92-.586-1.335-.667-1.098-1.6-1.869-2.867-2.22a7.624 7.624 0 0 0-.677-.155c-.172-.03-.348-.042-.522-.055-.217-.017-.435-.038-.653-.039L9.77 5.75Zm1.09 1.757c.65 0 1.298-.003 1.947.01.328.005.655.04.976.116.88.21 1.531.717 1.987 1.477.189.314.34.644.428.998.058.236.1.475.14.715.06.355.09.714.083 1.074 0 .02-.003.04-.004.067h-1.073c-.008.08-.016.152-.022.225-.015.192-.016.386-.046.575a12.27 12.27 0 0 1-.17.828 4.27 4.27 0 0 1-.646 1.45c-.48.703-1.135 1.163-1.982 1.349a5.36 5.36 0 0 1-.608.087c-.136.015-.274.014-.412.014H7.582v-4.527H8.66V7.603c0-.096 0-.097.096-.097h2.104Zm-.27 1.563c-.021 0-.042.003-.073.005v2.89H9.442v2.958a.483.483 0 0 0 .06.005c.592 0 1.183.002 1.775-.002.125 0 .25-.013.374-.036.423-.07.805-.294 1.074-.628.338-.415.502-.902.588-1.416.039-.226.044-.457.064-.686l.01-.043.007-.155h1.055c0-.189.003-.368-.002-.546a2.833 2.833 0 0 0-.03-.38c-.03-.186-.072-.37-.111-.553a2.351 2.351 0 0 0-.223-.594 1.351 1.351 0 0 0-.666-.62c-.326-.148-.674-.189-1.025-.195-.6-.012-1.201-.004-1.803-.004Z"/></svg>