<svg width="24" height="24">
<path fill-rule="evenodd" clip-rule="evenodd" d="M9.85725 6.56818C10.3602 5.8656 11.0265 5.48576 11.8563 5.42868L11.9176 5.34308C11.3443 5.06497 11.0158 4.89958 10.9321 4.84691L6.83693 2L8 0.5L18.7002 7.37024L17.7506 8.69695L16.7587 8.40627L16.7051 8.48117C17.0633 9.26019 16.9743 10.0242 16.4382 10.7731C15.9327 11.4793 15.246 11.8489 14.3783 11.8821C13.5105 11.9152 12.5594 11.6062 11.5249 10.955C10.8442 10.5264 10.3205 10.0597 9.95379 9.55461C9.58455 9.05313 9.39254 8.54683 9.37776 8.03569C9.36299 7.52455 9.52282 7.03538 9.85725 6.56818ZM15.4215 9.37263C15.71 8.96962 15.7875 8.5916 15.6541 8.23855C15.5244 7.88791 15.1579 7.51749 14.5545 7.1273L14.3663 7.00879C13.6817 6.57785 13.1235 6.36352 12.6915 6.3658C12.2571 6.37165 11.8917 6.58142 11.5956 6.99513C11.0722 7.72625 11.4533 8.49641 12.7387 9.30562C13.3662 9.70065 13.901 9.90537 14.343 9.9198C14.7863 9.94019 15.1458 9.7578 15.4215 9.37263ZM5.64831 14.888C6.17964 14.888 6.56898 14.7463 6.81632 14.4628C7.06367 14.175 7.19879 13.6746 7.22169 12.9615V12.7231C7.22169 11.9499 7.09344 11.3958 6.83693 11.0608C6.58501 10.7257 6.17735 10.5582 5.61396 10.5582C4.62917 10.5582 4.13677 11.2841 4.13677 12.736C4.13677 13.4576 4.25815 13.9967 4.50091 14.3532C4.74826 14.7098 5.13072 14.888 5.64831 14.888ZM4.89941 16.428C3.99249 16.428 3.28252 16.1015 2.76951 15.4486C2.2565 14.7914 2 13.8786 2 12.7102C2 11.5333 2.26108 10.614 2.78325 9.95252C3.31 9.29102 4.02913 8.96026 4.94064 8.96026C5.42616 8.96026 5.84985 9.04617 6.2117 9.21799C6.57356 9.38981 6.8919 9.65613 7.16672 10.017H7.22169L7.4072 9.09557H9.17982V23H7.07741V16.4473C7.07741 16.1853 7.10718 15.8244 7.16672 15.3648H7.07741C6.85296 15.7128 6.55524 15.9769 6.18422 16.1573C5.81321 16.3378 5.38494 16.428 4.89941 16.428ZM16.1901 14.9805C16.5709 15.0624 16.8792 15.3266 17.1152 15.773C17.3451 16.2079 17.3447 16.6084 17.114 16.9746C16.8812 17.3369 16.4201 17.6783 15.7306 17.9989C14.3435 18.6438 13.4313 18.5525 12.9939 17.7251C12.7436 17.2517 12.7226 16.8348 12.9308 16.4743C13.137 16.11 13.6094 15.7561 14.3481 15.4126L14.5758 15.3068C15.2672 15.0093 15.8053 14.9005 16.1901 14.9805ZM18.9295 17.9428C19.3254 17.2217 19.3219 16.4802 18.9191 15.7182C18.7034 15.3103 18.427 14.9905 18.0899 14.7589C17.7527 14.5273 17.3681 14.3945 16.936 14.3605L16.8963 14.2854C17.3619 14.1313 17.7198 13.9961 17.9701 13.8797L24 10.955L23.0662 9.18853L10.0127 15.3787L10.8 16.868L11.7627 16.6147L11.7871 16.6608C11.5644 17.052 11.4514 17.4378 11.448 17.8181C11.4446 18.1985 11.5507 18.5926 11.7663 19.0006C12.1712 19.7664 12.8066 20.2237 13.6726 20.3725C14.5365 20.5174 15.5307 20.3284 16.6551 19.8056C17.7713 19.2867 18.5295 18.6657 18.9295 17.9428Z"/>
</svg>
