<?xml version="1.0" encoding="UTF-8"?>
<svg width="24px" height="24px" viewBox="0 0 24 24" version="1.1" xmlns="http://www.w3.org/2000/svg" xmlns:xlink="http://www.w3.org/1999/xlink">
    <title>icons/functional_UI/A-E/mdpi/ic_Device_printer_connected</title>
    <g id="icons/functional_UI/A-E/ic_Device_printer_connected" stroke="none" stroke-width="1" fill="none" fill-rule="evenodd">
        <path d="M21,19.8 L2.99999996,19.8 C2.33725826,19.8 1.79999996,19.2627417 1.79999996,18.6 L1.79999996,12.6 C1.79999996,11.9372583 2.33725826,11.4 2.99999996,11.4 L5.39999997,11.4 L5.39999997,4.19999997 L13.8,4.19999997 L18.6,8.99999999 L18.6,11.4 L21,11.4 C21.662736,11.4 22.2,11.925264 22.2,12.588 L22.2,18.6 C22.2,19.2627417 21.6627417,19.8 21,19.8 Z M12,18.6 C12.3313709,18.6 12.6,18.3313709 12.6,18 C12.6,17.6686292 12.3313709,17.4 12,17.4 C11.6686291,17.4 11.4,17.6686292 11.4,18 C11.4,18.3313709 11.6686291,18.6 12,18.6 Z M6.59999998,14.4 L17.4,14.4 L17.4,9.59999999 L14.4,9.59999999 C13.7372583,9.59999999 13.2,9.06274169 13.2,8.39999997 L13.2,5.39999997 L6.59999998,5.39999997 L6.59999998,14.4 Z M7.20179998,10.19232 L7.20215998,11.057064 C8.93272799,11.121288 9.91759199,12.394416 9.91982399,13.776264 L10.784664,13.776264 C10.78296,11.798568 9.17839199,10.193256 7.20179998,10.19232 Z M7.20215998,8.39980798 L7.20215998,9.27482399 C9.57575999,9.27890399 11.697024,11.40096 11.701104,13.776192 L12.575832,13.776192 C12.574848,10.807008 10.169568,8.40035999 7.20215998,8.39980798 Z M7.20163198,12.880008 C7.44024514,12.8766777 7.67005754,12.9700154 7.83877409,13.1387817 C8.00749064,13.3075479 8.10076064,13.5373878 8.09735998,13.776 L8.99308799,13.776 C8.98348799,12.794592 8.18500798,11.983992 7.20163198,11.983992 L7.20163198,12.880008 C7.20760798,12.879888 7.19560798,12.880008 7.20163198,12.880008 Z" fill="#000000"></path>
    </g>
</svg>