<svg width="24" height="24"><path fill-rule="evenodd" d="M20.889 12A8.89 8.89 0 0 1 9.71 20.591V9.378H8.3l-.147.783H8.11a2.1 2.1 0 0 0-.76-.679 2.2 2.2 0 0 0-1.01-.219q-1.089 0-1.717.844Q4 10.95 4 12.45q0 1.489.612 2.326.612.832 1.694.832.58 0 1.022-.23t.71-.673h.072q-.07.585-.071.92v4.335A8.89 8.89 0 0 1 3.11 12a8.89 8.89 0 0 1 5.344-8.154l2.65 1.923q.1.066.784.421l-.049.073q-.99.072-1.59.968a2.1 2.1 0 0 0-.381 1.247q.017.651.458 1.29.438.645 1.25 1.19 1.234.83 2.27.788 1.035-.042 1.638-.942.64-.955.212-1.948l.043-.063.789.247.755-1.127-6.735-4.684A8.893 8.893 0 0 1 20.55 9.562l-10.177 5.155.626 1.265.766-.215.02.04a2.1 2.1 0 0 0-.27.983q-.005.485.253 1.004.483.977 1.516 1.166 1.03.184 2.373-.482 1.33-.66 1.809-1.583.473-.918-.009-1.89a2.2 2.2 0 0 0-.66-.815 1.77 1.77 0 0 0-.917-.338l-.032-.064q.555-.196.854-.345l4.158-2.154q.027.352.028.711m-12.85 9.185A10 10 0 0 1 2 12C2 6.477 6.477 2 12 2s10 4.477 10 10-4.477 10-10 10c-1.4 0-2.733-.288-3.943-.808h-.018zM14.86 8.65q.16.45-.185.964-.33.49-.858.465-.527-.019-1.276-.522-1.533-1.032-.91-1.963.354-.528.873-.535.515-.003 1.332.546l.15.101q.72.498.874.944m-7.03 5.289q-.295.36-.929.361-.618 0-.913-.454-.29-.454-.29-1.374 0-1.85 1.176-1.85.672 0 .973.426.306.428.306 1.413v.202q-.028.909-.323 1.276m8.192 1.113q-.28-.57-.735-.673-.46-.102-1.284.277l-.182.09q-.88.438-1.127.902-.249.459.05 1.063.522 1.054 2.177.232.822-.408 1.1-.87.276-.467.002-1.021" clip-rule="evenodd"/></svg>