<svg width="24" height="24">
<path d="M14.3077 4V6.82353C14.3077 7.34325 14.6751 7.76471 15.1283 7.76471H18L14.3077 4ZM15.2308 8.70588C14.7411 8.70588 14.2716 8.50756 13.9253 8.15455C13.5791 7.80154 13.3846 7.32276 13.3846 6.82353V4H6V19.0588C6 19.3084 6.09725 19.5478 6.27036 19.7243C6.44347 19.9008 6.67826 20 6.92308 20H18V8.70588H15.2308ZM10.0619 13.2766C9.91052 13.0345 9.65022 12.1623 9.58929 12.1649C9.5791 12.1658 9.56925 12.1691 9.56051 12.1745C9.55176 12.1799 9.54437 12.1873 9.53889 12.1961C9.52578 12.2142 8.07914 14.6278 8.02874 14.6639L7.47194 14.0028C7.90874 13.4001 8.91877 11.7606 9.02345 11.6538C10.1164 10.5389 10.4705 12.5073 10.5639 12.7006C10.8161 12.2639 12.0585 9.70033 12.2129 9.70014C12.4355 9.69977 13.3986 11.0987 13.7581 11.532C13.8681 11.6648 14.282 12.0587 14.6609 12.0585C15.4523 12.058 16.8995 10.1822 16.8995 10.1822C16.6019 10.7494 15.7525 12.6607 14.5689 12.7957C14.0182 12.8584 13.7197 12.5762 13.5371 12.4271C12.854 11.8688 12.4752 10.8343 12.29 10.8343C12.2498 10.8343 12.2435 10.858 12.2304 10.876C12.2221 10.8875 11.3987 13.0709 11.2907 13.2322C11.0466 13.5959 10.4243 13.8566 10.0619 13.2766Z"/>
</svg>
