<?xml version="1.0" encoding="UTF-8"?>
<svg width="24px" height="24px" viewBox="0 0 24 24" version="1.1" xmlns="http://www.w3.org/2000/svg" xmlns:xlink="http://www.w3.org/1999/xlink">
    <title>icons/functional_UI/A-E/mdpi/ic_Donation</title>
    <g id="icons/functional_UI/A-E/ic_Donation" stroke="none" stroke-width="1" fill="none" fill-rule="evenodd">
        <path d="M17.279424,19.452 C14.628456,19.452 12.479424,18.807288 12.479424,18.012 L12.479424,19.692 C12.479424,20.487288 14.628456,21.132 17.279424,21.132 C19.930392,21.132 22.079424,20.487288 22.079424,19.692 L22.079424,18.012 C22.079424,18.807288 19.930392,19.452 17.279424,19.452 Z M17.279424,17.292 C14.628456,17.292 12.479424,16.647288 12.479424,15.852 L12.479424,17.532 C12.479424,18.327288 14.628456,18.972 17.279424,18.972 C19.930392,18.972 22.079424,18.327288 22.079424,17.532 L22.079424,15.852 C22.079424,16.647288 19.930392,17.292 17.279424,17.292 Z M17.279424,15.132 C14.628456,15.132 12.479424,14.487288 12.479424,13.692 L12.479424,15.372 C12.479424,16.167288 14.628456,16.812 17.279424,16.812 C19.930392,16.812 22.079424,16.167288 22.079424,15.372 L22.079424,13.692 C22.079424,14.487288 19.930392,15.132 17.279424,15.132 Z M6.71942398,19.452 C4.06845597,19.452 1.91942396,18.807288 1.91942396,18.012 L1.91942396,19.692 C1.91942396,20.487288 4.06845597,21.132 6.71942398,21.132 C9.37039199,21.132 11.519424,20.487288 11.519424,19.692 L11.519424,18.012 C11.519424,18.807288 9.37039199,19.452 6.71942398,19.452 Z M6.71942398,17.292 C4.06845597,17.292 1.91942396,16.647288 1.91942396,15.852 L1.91942396,17.532 C1.91942396,18.327288 4.06845597,18.972 6.71942398,18.972 C9.37039199,18.972 11.519424,18.327288 11.519424,17.532 L11.519424,15.852 C11.519424,16.647288 9.37039199,17.292 6.71942398,17.292 Z M6.71942398,15.132 C4.06845597,15.132 1.91942396,14.487288 1.91942396,13.692 L1.91942396,15.372 C1.91942396,16.167288 4.06845597,16.812 6.71942398,16.812 C9.37039199,16.812 11.519424,16.167288 11.519424,15.372 L11.519424,13.692 C11.519424,14.487288 9.37039199,15.132 6.71942398,15.132 Z M6.71942398,12.972 C4.06845597,12.972 1.91942396,12.327288 1.91942396,11.532 L1.91942396,13.212 C1.91942396,14.007288 4.06845597,14.652 6.71942398,14.652 C9.37039199,14.652 11.519424,14.007288 11.519424,13.212 L11.519424,11.532 C11.519424,12.327288 9.37039199,12.972 6.71942398,12.972 Z M6.71942398,10.812 C4.06845597,10.812 1.91942396,10.167288 1.91942396,9.37199999 L1.91942396,11.052 C1.91942396,11.847288 4.06845597,12.492 6.71942398,12.492 C9.37039199,12.492 11.519424,11.847288 11.519424,11.052 L11.519424,9.37199999 C11.519424,10.167288 9.37039199,10.812 6.71942398,10.812 Z M6.71942398,8.65199999 C4.06845597,8.65199999 1.91942396,8.00728798 1.91942396,7.21199998 L1.91942396,8.89199999 C1.91942396,9.68728799 4.06845597,10.332 6.71942398,10.332 C9.37039199,10.332 11.519424,9.68728799 11.519424,8.89199999 L11.519424,7.21199998 C11.519424,8.00728798 9.37039199,8.65199999 6.71942398,8.65199999 Z M6.71942398,6.49199998 C4.06845597,6.49199998 1.91942396,5.84728797 1.91942396,5.05199997 L1.91942396,6.73199998 C1.91942396,7.52728798 4.06845597,8.17199998 6.71942398,8.17199998 C9.37039199,8.17199998 11.519424,7.52728798 11.519424,6.73199998 L11.519424,5.05199997 C11.519424,5.84728797 9.37039199,6.49199998 6.71942398,6.49199998 Z M22.079424,13.212 C22.079424,14.007288 19.930392,14.652 17.279424,14.652 C14.628456,14.652 12.479424,14.007288 12.479424,13.212 C12.479424,12.416712 14.628456,11.772 17.279424,11.772 C19.930392,11.772 22.079424,12.416712 22.079424,13.212 Z M11.519424,4.57199997 C11.519424,5.36728797 9.37039199,6.01199998 6.71942398,6.01199998 C4.06845597,6.01199998 1.91942396,5.36728797 1.91942396,4.57199997 C1.91942396,3.77671197 4.06845597,3.13199996 6.71942398,3.13199996 C9.37039199,3.13199996 11.519424,3.77671197 11.519424,4.57199997 Z" fill="#000000"></path>
    </g>
</svg>