<?xml version="1.0" encoding="UTF-8"?>
<svg width="24px" height="24px" viewBox="0 0 24 24" version="1.1" xmlns="http://www.w3.org/2000/svg" xmlns:xlink="http://www.w3.org/1999/xlink">
    <title>icons/functional_UI/A-E/mdpi/ic_Dial_Answer_button</title>
    <g id="icons/functional_UI/A-E/ic_Dial_Answer_button" stroke="none" stroke-width="1" fill="none" fill-rule="evenodd">
        <path d="M12,1.79999996 C17.633304,1.79999996 22.2,6.36669598 22.2,12 C22.2,17.633304 17.633304,22.2 12,22.2 C6.36669598,22.2 1.79999996,17.633304 1.79999996,12 C1.79999996,6.36669598 6.36669598,1.79999996 12,1.79999996 Z M10.785864,13.11732 C9.53054399,11.863752 8.33066398,10.411728 8.90536799,9.83783999 C10.34748,8.39738398 10.444224,8.50941599 8.98696799,6.69796798 C7.52887198,4.88661597 7.58733598,5.21215197 5.76023997,7.07371198 C4.79915997,8.10739198 5.71199997,11.416632 9.09983999,14.801352 C12.488496,18.185352 15.88944,19.056312 16.836456,18.13704 C18.78324,16.206024 18.936264,16.313712 17.212248,14.914872 C15.399432,13.458456 15.504984,13.561968 14.069352,14.99604 C13.494528,15.569568 12.0414,14.371344 10.785864,13.11732 Z" fill="#000000"></path>
    </g>
</svg>