<svg width="24" height="24">
<path fill-rule="evenodd" clip-rule="evenodd" d="M8.33333 1H9.55556V15.6667H12.3805C12.1196 15.5703 11.8911 15.4227 11.6895 15.2157L10.5895 14.5337L10.4685 7.46069H11.7995L11.7115 10.0897C12.1185 9.68269 12.6135 9.51769 13.2845 9.51769C14.7805 9.51769 15.7815 10.8047 15.7815 12.6637C15.7815 14.1582 15.1346 15.283 14.1036 15.6667H16.5121L16.5917 15.0177L16.7237 9.64969H18.0657L18.0327 10.0347C18.4287 9.69369 18.9237 9.51769 19.5507 9.51769C21.0247 9.51769 22.0477 10.8157 22.0477 12.6637C22.0477 14.1582 21.3865 15.283 20.3613 15.6667H23V16.8889H17.8766L17.8457 17.8007H16.2507L16.3624 16.8889H9.55556V23H8.33333V16.8889H1V15.6667H3.48096C2.44995 15.283 1.80298 14.1582 1.80298 12.6637C1.80298 10.8047 2.80398 9.51769 4.29998 9.51769C4.97098 9.51769 5.50998 9.71569 5.91698 10.1227L6.00498 7.46069H7.32498L7.22598 15.6667H8.33333V1ZM5.89498 15.6667V15.2157C5.69887 15.4227 5.47039 15.5703 5.2082 15.6667H5.89498ZM17.918 15.6667H18.6618C18.3846 15.5664 18.1419 15.4129 17.9337 15.2047L17.918 15.6667ZM2.84798 12.5317C2.85898 11.9157 2.99098 11.4317 3.23298 11.0797V11.0907C3.47498 10.7607 3.80498 10.5957 4.22298 10.5957C4.62998 10.5957 4.93798 10.7827 5.13598 11.1017C5.34498 11.4317 5.45498 11.9157 5.47698 12.4987C5.44398 13.5767 5.08098 13.7307 4.20098 13.7307C3.76098 13.7307 3.45298 13.6427 3.25498 13.4667C3.05698 13.2907 2.91398 12.9827 2.84798 12.5317ZM14.8025 12.4437C14.7145 12.9497 14.5715 13.3017 14.3735 13.4667C14.1425 13.6317 13.8565 13.7417 13.4825 13.7637C12.6685 13.7637 12.2615 13.3347 12.1295 12.4657C12.1405 11.8607 12.2725 11.3767 12.5145 11.0467C12.7565 10.7497 13.0865 10.5737 13.5045 10.5737C13.9115 10.5737 14.2305 10.7277 14.4285 11.0467C14.6485 11.3657 14.7805 11.8277 14.8025 12.4437ZM21.0577 12.4987C21.0577 11.8607 20.9257 11.3767 20.6727 11.0357C20.4307 10.6947 20.1007 10.5297 19.6827 10.5297C19.2757 10.5297 18.9457 10.6947 18.6927 11.0357V11.0247C18.4507 11.3767 18.3187 11.8717 18.3187 12.4987C18.3187 13.7197 18.8467 13.8957 19.7377 13.8957C20.6287 13.8957 21.0577 13.7307 21.0577 12.4987Z"/>
</svg>
