<?xml version="1.0" encoding="UTF-8"?>
<svg width="24px" height="24px" viewBox="0 0 24 24" version="1.1" xmlns="http://www.w3.org/2000/svg" xmlns:xlink="http://www.w3.org/1999/xlink">
    <title>icons/functional_UI/A-E/mdpi/ic_Device_ringtone</title>
    <g id="icons/functional_UI/A-E/ic_Device_ringtone" stroke="none" stroke-width="1" fill="none" fill-rule="evenodd">
        <path d="M16.801224,1.79999996 L7.19882398,1.79999996 C6.88071915,1.79999996 6.57570409,1.92666747 6.35088028,2.15171182 C6.12605647,2.37675618 5.99984081,2.68189513 5.99999982,2.99999996 L5.99999982,21 C5.99966852,21.662401 6.53637499,22.1996555 7.19877598,22.2 L16.801176,22.2 C17.1192809,22.2 17.4242959,22.0733325 17.6491197,21.8482882 C17.8739435,21.6232438 18.0001592,21.3181049 17.9999998,21 L17.9999998,2.99999996 C18.0003315,2.33759896 17.463625,1.8003445 16.801224,1.79999996 Z M11.1,2.39999996 L12.9,2.39999996 C13.0656854,2.39999996 13.2,2.53431454 13.2,2.69999996 C13.2,2.86568539 13.0656854,2.99999996 12.9,2.99999996 L11.1,2.99999996 C10.9343146,2.99999996 10.8,2.86568539 10.8,2.69999996 C10.8,2.53431454 10.9343146,2.39999996 11.1,2.39999996 Z M12,21.6 C11.6686291,21.6 11.4,21.3313709 11.4,21 C11.4,20.6686292 11.6686291,20.4 12,20.4 C12.3313709,20.4 12.6,20.6686292 12.6,21 C12.6,21.3313709 12.3313709,21.6 12,21.6 Z M16.8,19.8 L7.19999998,19.8 L7.19999998,3.59999996 L16.8,3.59999996 L16.8,19.8 Z M15.637776,9.74431199 C15.411312,9.83258399 15.352416,9.81405599 15.24276,9.62039999 C14.987424,9.16951199 14.63316,8.84222399 14.11476,8.72687999 C13.96932,8.69450399 13.818288,8.68723199 13.655688,8.66668799 L13.655688,9.48331199 C13.655688,10.726512 13.657824,11.969712 13.654728,13.213032 C13.653024,13.90008 13.247664,14.409144 12.622968,14.522544 C11.9579482,14.6435971 11.316781,14.2153452 11.173896,13.554672 C10.997112,12.748584 11.630736,11.990088 12.45264,12.02808 C12.570864,12.033552 12.68808,12.05988 12.817584,12.07824 L12.817584,7.53875998 C12.962688,7.53875998 13.097688,7.52935198 13.23096,7.54063198 C13.560552,7.56851998 13.897176,7.57226398 14.216904,7.64635198 C14.919504,7.80919198 15.327024,8.29149598 15.503976,8.97271199 C15.569808,9.22574399 15.594816,9.48931199 15.637776,9.74431199 Z M8.33822398,13.200744 C8.39327998,12.435792 8.64139199,11.75664 9.16951199,11.192112 C9.21218399,11.146512 9.26397599,11.09148 9.31939199,11.080512 C9.38419199,11.067648 9.48549599,11.075232 9.51962399,11.116512 C9.55490399,11.159112 9.55231199,11.264736 9.52372799,11.321304 C9.47798399,11.411712 9.39758399,11.48472 9.33100799,11.564424 C8.47555199,12.588048 8.51817599,14.14068 9.42549599,15.1206 C9.47892999,15.1783424 9.51771372,15.2480741 9.53858399,15.323928 C9.56959199,15.445776 9.46346399,15.535992 9.34447199,15.494832 C9.2923157,15.4755394 9.24518519,15.4447261 9.20659199,15.404688 C8.7449166,14.937849 8.45458916,14.3286663 8.38274398,13.67604 C8.36385598,13.518072 8.35286398,13.359192 8.33822398,13.200744 Z M9.89411999,11.55564 C10.054128,11.555808 10.140456,11.702712 10.070616,11.821512 C10.0317242,11.8819189 9.9874305,11.9386717 9.93827999,11.991072 C9.30295199,12.723984 9.30268799,13.841352 9.93813599,14.573472 C9.97214399,14.612664 10.006728,14.65164 10.037232,14.693472 C10.115088,14.80032 10.112592,14.893776 10.032984,14.95932 C9.95164799,15.02628 9.84523199,15.023736 9.76912799,14.924424 C9.61706399,14.725896 9.44611199,14.531736 9.34262399,14.308176 C9.09899999,13.781856 9.02625599,13.218576 9.15331199,12.650232 C9.24417599,12.243792 9.49651199,11.916816 9.78376799,11.621472 C9.81758399,11.58672 9.86968799,11.569752 9.89411999,11.55564 L9.89411999,11.55564 Z M9.84719999,13.23504 C9.85019999,12.84384 9.99983999,12.475728 10.289736,12.16464 C10.405176,12.0408 10.545,12.040296 10.609656,12.159984 C10.662288,12.2574 10.618464,12.337584 10.5552,12.409992 C10.389072,12.600288 10.273752,12.81528 10.230624,13.066104 C10.164912,13.448184 10.271928,13.783536 10.506624,14.084304 C10.5407122,14.1233849 10.5717248,14.1650453 10.599384,14.208912 C10.646688,14.294328 10.645512,14.3796 10.56528,14.446368 C10.484352,14.513736 10.39788,14.500656 10.327488,14.432784 C10.2590497,14.3657301 10.1967009,14.2927314 10.141176,14.214648 C9.93808799,13.933368 9.85317599,13.61388 9.84719999,13.23504 Z" fill="#000000"></path>
    </g>
</svg>