<?xml version="1.0" encoding="UTF-8"?>
<svg width="24px" height="24px" viewBox="0 0 24 24" version="1.1" xmlns="http://www.w3.org/2000/svg" xmlns:xlink="http://www.w3.org/1999/xlink">
    <title>icons/functional_UI/A-E/mdpi/ic_Device_smartphone_status</title>
    <g id="icons/functional_UI/A-E/ic_Device_smartphone_status" stroke="none" stroke-width="1" fill="none" fill-rule="evenodd">
        <path d="M11.973312,9.60837599 C12.2539677,9.61204268 12.5239314,9.50085616 12.7206,9.30059999 C12.9228463,9.10541306 13.0353184,8.8352437 13.031328,8.55419999 C13.0351445,8.27321399 12.9242624,8.00281206 12.724272,7.80539998 C12.5265129,7.60597941 12.2572949,7.49380536 11.976444,7.49380536 C11.6955931,7.49380536 11.4263751,7.60597941 11.228616,7.80539998 C11.0286831,8.00283941 10.9178551,8.27323618 10.921704,8.55419999 C10.920695,8.83364782 11.0310827,9.10197847 11.2284423,9.29982005 C11.4258019,9.49766162 11.6938625,9.60870345 11.973312,9.60837599 L11.973312,9.60837599 Z M13.8,16.2 L10.2,16.2 L10.2,15.864 C10.4352,15.856368 10.79808,15.77928 10.907712,15.65472 C10.946712,15.6096 11.016,15.516144 11.016,15 L11.016,11.541744 C11.016,11.050752 10.94232,10.865616 10.88496,10.796736 C10.804032,10.70004 10.451808,10.647432 10.2,10.632 L10.2,10.2 L12.936,10.2 L12.936,15 C12.936,15.491328 13.006728,15.616272 13.063968,15.684912 C13.1448,15.781656 13.543656,15.848568 13.8,15.864 L13.8,16.2 Z M16.777224,1.79999996 L7.17482398,1.79999996 C6.85671915,1.79999996 6.55170409,1.92666747 6.32688028,2.15171182 C6.10205647,2.37675618 5.97584081,2.68189513 5.97599982,2.99999996 L5.97599982,21 C5.97566852,21.662401 6.51237499,22.1996555 7.17477598,22.2 L16.777176,22.2 C17.0952809,22.2 17.4002959,22.0733325 17.6251197,21.8482882 C17.8499435,21.6232438 17.9761592,21.3181049 17.9759998,21 L17.9759998,2.99999996 C17.9763315,2.33759896 17.439625,1.8003445 16.777224,1.79999996 Z M11.076,2.39999996 L12.876,2.39999996 C13.0416854,2.39999996 13.176,2.53431454 13.176,2.69999996 C13.176,2.86568539 13.0416854,2.99999996 12.876,2.99999996 L11.076,2.99999996 C10.9103146,2.99999996 10.776,2.86568539 10.776,2.69999996 C10.776,2.53431454 10.9103146,2.39999996 11.076,2.39999996 Z M11.976,21.6 C11.6446291,21.6 11.376,21.3313709 11.376,21 C11.376,20.6686292 11.6446291,20.4 11.976,20.4 C12.3073709,20.4 12.576,20.6686292 12.576,21 C12.576,21.3313709 12.3073709,21.6 11.976,21.6 Z M16.776,19.8 L7.17599998,19.8 L7.17599998,3.59999996 L16.776,3.59999996 L16.776,19.8 Z" fill="#000000"></path>
    </g>
</svg>