<?xml version="1.0" encoding="UTF-8"?>
<svg width="24px" height="24px" viewBox="0 0 24 24" version="1.1" xmlns="http://www.w3.org/2000/svg" xmlns:xlink="http://www.w3.org/1999/xlink">
    <title>icons/functional_UI/E-M/mdpi/ic_Exit</title>
    <g id="icons/functional_UI/E-M/ic_Exit" stroke="none" stroke-width="1" fill="none" fill-rule="evenodd">
        <path d="M14.4,17.4 L8.99999999,17.4 L8.99999999,6.00088798 L4.60000797,3.60031197 L14.4,3.60031197 L14.4,7.19999998 L15.6,7.19999998 L15.6,2.39999996 L2.39999996,2.39999996 L2.39999996,18.604008 L8.99999999,22.248 L8.99999999,18.6 L15.6,18.6 L15.6,13.8 L14.4,13.8 L14.4,17.4 Z M22.8,10.502016 C22.798368,10.1581696 22.6573373,9.82968981 22.40916,9.59169599 L22.40916,9.59169599 L17.4,4.80059997 L17.4,7.79999998 L11.4,7.79999998 C10.7369175,7.80071531 10.1998141,8.33854913 10.1999999,9.00163199 L10.1999999,12.0024 C10.1999999,12.320418 10.3265968,12.6253556 10.5516945,12.8500031 C10.7767922,13.0746506 11.0819825,13.2005671 11.4,13.2 L17.4,13.2 L17.4,16.203432 L22.409208,11.412384 L22.409208,11.412384 C22.6573796,11.1743705 22.7983935,10.845872 22.8,10.502016 L22.8,10.502016 Z" fill="#000000"></path>
    </g>
</svg>