<?xml version="1.0" encoding="UTF-8"?>
<svg width="24px" height="24px" viewBox="0 0 24 24" version="1.1" xmlns="http://www.w3.org/2000/svg" xmlns:xlink="http://www.w3.org/1999/xlink">
    <title>icons/functional_UI/A-E/mdpi/ic_Email_compose</title>
    <g id="icons/functional_UI/A-E/ic_Email_compose" stroke="none" stroke-width="1" fill="none" fill-rule="evenodd">
        <path d="M22.529112,12.258048 C22.5218957,12.0289874 22.4271678,11.8114026 22.264416,11.650056 L21.6,10.992 L21.6,6.26399998 C21.6,5.09263197 20.646912,4.19999997 19.475112,4.19999997 L2.39999205,4.19999997 L2.39999205,17.092464 C2.39846452,17.6526612 2.62062859,18.1902919 3.01716817,18.5859933 C3.41370774,18.9816948 3.95180727,19.2027208 4.51199997,19.2 L12.144,19.2 L11.140584,21.094488 L10.224624,22.8 L11.94444,21.91164 L14.57652,20.55204 L14.659488,20.509176 L14.725488,20.443128 C15.002544,20.165976 15.43452,19.7256 15.96,19.2 L20.055744,19.202232 L21.6,19.2 L21.6,13.56 L22.2552,12.916584 C22.2642,12.908112 22.273128,12.89928 22.28208,12.889992 C22.4465318,12.7214421 22.5356586,12.4934426 22.529112,12.258048 Z M11.985912,15.000384 C11.156232,15.000384 10.402896,14.71356 9.84619199,14.161488 L9.83131199,14.161488 L4.19999997,8.70777599 L4.19999997,6.63062398 C6.45503998,8.86022399 10.5594,12.841296 10.5594,12.841296 L10.560696,12.841296 C10.927896,13.225296 11.42784,13.388496 11.97948,13.388496 C12.563832,13.388496 13.089672,13.153296 13.461648,12.745296 L13.464264,12.745296 L19.799184,6.60158398 L19.8,8.71199999 L14.12964,14.161488 L14.12484,14.161488 C13.569288,14.71356 12.816,15.000384 11.985936,15.000384 L11.985912,15.000384 Z M20.504112,13.8144 C20.5007281,13.8184196 20.4969934,13.8221302 20.492952,13.825488 C18.840672,15.478344 15.371352,18.948288 14.301216,20.018856 L11.669112,21.378456 L13.063896,18.781368 L19.450296,12.401808 L20.492712,13.416528 C20.5461347,13.4690282 20.577895,13.5396753 20.581704,13.61448 C20.5852535,13.6890906 20.5570653,13.761719 20.504112,13.8144 L20.504112,13.8144 Z M21.851568,12.472104 C21.8481743,12.475807 21.8445597,12.4793014 21.840744,12.482568 L21.111408,13.211592 L19.873896,11.973816 L20.80704,11.041032 L21.84,12.074112 C21.95472,12.18912 21.959856,12.363864 21.851568,12.472104 Z" fill="#000000"></path>
    </g>
</svg>