<svg xmlns="http://www.w3.org/2000/svg" width="24" height="24"><path fill-rule="evenodd" d="m12.018 8 .215.002c3.335 0 6.674 2.38 7.767 4.498-1.093 2.118-4.468 4.497-7.803 4.497l-.215.003-.215-.003c-3.335 0-6.674-2.38-7.767-4.497 1.093-2.118 4.468-4.498 7.803-4.498L12.018 8Zm-.042 1.26c-1.768 0-3.2 1.45-3.2 3.24 0 1.79 1.432 3.24 3.2 3.24 1.767 0 3.2-1.45 3.2-3.24 0-1.79-1.432-3.24-3.2-3.24Zm3.325.533a4.358 4.358 0 0 1 .013 5.397 9.684 9.684 0 0 0 1.071-.57c.987-.607 1.833-1.372 2.363-2.12-.528-.75-1.37-1.516-2.348-2.122a9.47 9.47 0 0 0-1.1-.585Zm-6.692.052a9.661 9.661 0 0 0-.994.535c-.987.607-1.833 1.372-2.363 2.12l.118.162c.532.698 1.322 1.398 2.23 1.96.33.204.672.388 1.023.55a4.36 4.36 0 0 1-.014-5.327Zm3.286.512c1.104 0 2 .912 2 2.036s-.896 2.036-2 2.036c-1.105 0-2-.912-2-2.036s.895-2.036 2-2.036Z"/></svg>