<?xml version="1.0" encoding="UTF-8"?>
<svg width="24px" height="24px" viewBox="0 0 24 24" version="1.1" xmlns="http://www.w3.org/2000/svg" xmlns:xlink="http://www.w3.org/1999/xlink">
    <title>icons/functional_UI/A-E/mdpi/ic_Ethernet</title>
    <g id="icons/functional_UI/A-E/ic_Ethernet" stroke="none" stroke-width="1" fill="none" fill-rule="evenodd">
        <path d="M12,1.79999996 C6.36669598,1.79999996 1.79999996,6.36669598 1.79999996,12 C1.79999996,17.633304 6.36669598,22.2 12,22.2 C17.633304,22.2 22.2,17.633304 22.2,12 C22.2,6.36669598 17.633304,1.79999996 12,1.79999996 Z M17.4,10.2 L16.2,10.2 L16.2,13.2 L12.6,13.2 L12.6,15 L13.8,15 L13.8,18.6 L10.2,18.6 L10.2,15 L11.4,15 L11.4,13.2 L7.19999998,13.2 L7.19999998,10.2 L5.99999997,10.2 L5.99999997,6.59999998 L9.59999999,6.59999998 L9.59999999,10.2 L8.39999998,10.2 L8.39999998,12 L15,12 L15,10.2 L13.8,10.2 L13.8,6.59999998 L17.4,6.59999998 L17.4,10.2 Z" fill="#000000"></path>
    </g>
</svg>