<?xml version="1.0" encoding="UTF-8"?>
<svg width="24px" height="24px" viewBox="0 0 24 24" version="1.1" xmlns="http://www.w3.org/2000/svg" xmlns:xlink="http://www.w3.org/1999/xlink">
    <title>icons/functional_UI/A-E/mdpi/ic_Eco_mode</title>
    <g id="icons/functional_UI/A-E/ic_Eco_mode" stroke="none" stroke-width="1" fill="none" fill-rule="evenodd">
        <path d="M16.19904,1.79999996 L16.19904,1.80127196 C12.994176,1.83105596 8.58686399,2.42287196 5.91374397,5.09527197 C2.98017596,8.02821598 2.83199996,12.690888 5.46844797,15.799056 C7.33161598,11.926872 10.85448,6.88113598 17.174616,4.29105597 C10.663872,7.90691998 6.83584798,16.475856 5.42159997,20.310216 C5.08351197,21.226968 5.76182397,22.2000001 6.73919998,22.2000001 L6.73919998,22.2000001 C7.35932039,22.2000001 7.9060698,21.7934041 8.08411198,21.199392 C8.39495998,20.16048 8.73266399,19.168296 9.08992799,18.222288 C11.822208,19.096872 14.935704,18.450792 17.104008,16.282944 C19.77708,13.6104 20.368944,9.20414399 20.398728,5.99999997 L20.4,5.99999997 L20.4,1.79999996 L16.19904,1.79999996 Z" fill="#000000"></path>
    </g>
</svg>