<?xml version="1.0" encoding="UTF-8"?>
<svg width="24px" height="24px" viewBox="0 0 24 24" version="1.1" xmlns="http://www.w3.org/2000/svg" xmlns:xlink="http://www.w3.org/1999/xlink">
    <title>icons/functional_UI/A-E/mdpi/ic_Email_download</title>
    <g id="icons/functional_UI/A-E/ic_Email_download" stroke="none" stroke-width="1" fill="none" fill-rule="evenodd">
        <path d="M2.99999996,9.59999999 L10.591776,17.080608 C11.349708,17.8379945 12.57798,17.8379945 13.335912,17.080608 L13.3362,17.080416 L21,9.59999999 L21,19.8 L4.19999997,19.8 C3.53771305,19.7989034 3.00109663,19.2622869 2.99999996,18.6 L2.99999996,9.59999999 Z M11.151288,15.958872 C11.6194761,16.4244182 12.3753874,16.4256285 12.845064,15.961584 L18.888744,9.97624799 C19.116528,9.75086399 19.2000001,9.44035199 19.2000001,9.11999999 L19.2000001,5.39999997 C19.2000001,5.08171872 19.0736644,4.77645332 18.8486055,4.55139448 C18.6235467,4.32633564 18.3182813,4.19999994 18,4.19999994 L5.99551197,4.19999994 C5.6776968,4.19999994 5.37299489,4.32671265 5.14868704,4.55186256 C4.92437919,4.77701247 4.79891569,5.08218663 4.799993,5.39999997 L4.799993,9.11999999 C4.799993,9.43900799 4.91587197,9.75263999 5.14199997,9.97780799 L11.151288,15.958872 Z M10.725312,6.59999998 L13.223136,6.59999998 C13.2322035,6.60748369 13.2422883,6.61364121 13.253088,6.61828798 C13.569336,6.70228798 13.726968,6.89428798 13.728048,7.21917598 C13.731096,8.13779998 13.729536,9.05642399 13.7298,9.97502399 L13.7298,10.128624 L15.480264,10.128624 C15.441336,10.172616 15.419088,10.200624 15.393864,10.225728 C14.471944,11.146912 13.549488,12.067552 12.626496,12.987648 C12.210312,13.400088 11.716896,13.396968 11.301696,12.984432 C10.382816,12.071568 9.46618399,11.156416 8.55179999,10.238976 C8.52237599,10.2096 8.49631199,10.176816 8.44773599,10.121976 L10.200696,10.121976 L10.200696,9.79533599 C10.200696,8.95659999 10.200792,8.11784798 10.200984,7.27907998 C10.201272,6.92603998 10.351176,6.67773598 10.704984,6.61235998 C10.7124239,6.60944671 10.7193019,6.60526469 10.725312,6.59999998 Z" fill="#000000"></path>
    </g>
</svg>