<?xml version="1.0" encoding="UTF-8"?>
<svg width="24px" height="24px" viewBox="0 0 24 24" version="1.1" xmlns="http://www.w3.org/2000/svg" xmlns:xlink="http://www.w3.org/1999/xlink">
    <title>icons/functional_UI/A-E/mdpi/ic_Euro</title>
    <g id="icons/functional_UI/A-E/ic_Euro" stroke="none" stroke-width="1" fill="none" fill-rule="evenodd">
        <path d="M12,1.79999996 C17.633304,1.79999996 22.2,6.36669598 22.2,12 C22.2,17.633304 17.633304,22.2 12,22.2 C6.36669598,22.2 1.79999996,17.633304 1.79999996,12 C1.79999996,6.36669598 6.36669598,1.79999996 12,1.79999996 Z M12,3.59999996 C16.6392,3.59999996 20.4,7.36079998 20.4,12 C20.4,16.6392 16.6392,20.4 12,20.4 C7.36079998,20.4 3.59999996,16.6392 3.59999996,12 C3.59999996,7.36079998 7.36079998,3.59999996 12,3.59999996 Z M15.755688,14.695512 C15.6425486,14.6585149 15.524456,14.638876 15.405432,14.637264 C14.988024,14.637264 14.656224,14.874864 14.47152,15.306024 L14.469888,15.30972 L14.468568,15.313296 C14.082312,16.281864 13.517976,16.66728 12.231576,16.66728 C10.742328,16.66728 9.71663999,16.06728 9.31372799,14.393592 L13.021512,14.393592 C13.529616,14.393592 13.857744,13.982016 13.857744,13.480728 C13.857744,12.956232 13.553088,12.567864 13.021512,12.567864 L9.10559999,12.567864 C9.10319999,12.415728 9.10319999,12.150648 9.10319999,12.057048 C9.10319999,11.902824 9.10864799,11.807136 9.11615999,11.655 L13.82676,11.655 C14.34276,11.655 14.663304,11.245224 14.663304,10.726392 C14.663304,10.219584 14.350536,9.82927199 13.82676,9.82927199 L9.37377599,9.82927199 C9.82168799,8.15567998 10.825992,7.34287198 12.231576,7.34287198 C13.446864,7.34287198 14.036856,7.73735998 14.485536,8.82316799 C14.647968,9.21676799 14.971968,9.44747999 15.374448,9.44747999 C15.526416,9.44747999 15.6834,9.40907999 15.802584,9.37351199 L15.818832,9.36993599 L15.834168,9.36398399 C16.250688,9.18986399 16.489536,8.86031999 16.489536,8.45959199 C16.4919448,8.29529304 16.4563463,8.13266058 16.38552,7.98439198 C15.681336,6.24559198 14.322648,5.40016797 12.231576,5.40016797 C10.954776,5.40016797 9.82876799,5.81515197 8.97602399,6.63722398 C8.18092798,7.40315998 7.62280798,8.61213599 7.35323998,9.82922399 L6.59637598,9.82922399 C6.08059198,9.82922399 5.76011997,10.233048 5.76011997,10.742088 C5.76011997,11.251128 6.08059198,11.654952 6.59637598,11.654952 L7.16659198,11.654952 C7.15922398,11.807088 7.15406398,11.913192 7.15406398,12.057 C7.15406398,12.155064 7.15406398,12.41568 7.15598398,12.567816 L6.59637598,12.567816 C6.07276798,12.567816 5.76011997,12.963624 5.76011997,13.48068 C5.76011997,13.98972 6.08059198,14.393544 6.59637598,14.393544 L7.30055998,14.393544 C7.53722398,15.610704 8.05965598,16.58388 8.85475199,17.362872 C9.71222399,18.202872 10.848288,18.599808 12.231552,18.599808 C14.396088,18.599808 15.696192,17.795544 16.445688,16.025232 C16.5068309,15.9004604 16.537768,15.7630563 16.5360717,15.62412 C16.5360717,15.212544 16.208328,14.81928 15.755688,14.695512 Z" fill="#000000"></path>
    </g>
</svg>