<?xml version="1.0" encoding="UTF-8"?>
<svg width="24px" height="24px" viewBox="0 0 24 24" version="1.1" xmlns="http://www.w3.org/2000/svg" xmlns:xlink="http://www.w3.org/1999/xlink">
    <title>icons/functional_UI/A-E/mdpi/ic_EPG</title>
    <g id="icons/functional_UI/A-E/ic_EPG" stroke="none" stroke-width="1" fill="none" fill-rule="evenodd">
        <path d="M1.79999996,4.79999997 L1.79999996,17.28 L5.39999997,17.28 L5.39999997,19.2 L18.6,19.2 L18.6,17.28 L22.2,17.28 L22.2,4.79999997 L1.79999996,4.79999997 Z M12,18.12 C11.602355,18.12 11.28,17.797645 11.28,17.4 C11.28,17.002355 11.602355,16.68 12,16.68 C12.397645,16.68 12.72,17.002355 12.72,17.4 C12.72,17.797645 12.397645,18.12 12,18.12 L12,18.12 Z M20.76,15.84 L3.23999996,15.84 L3.23999996,6.23999998 L20.76,6.23999998 L20.76,15.84 Z M6.71999998,9.35999999 L4.79999997,9.35999999 L4.79999997,7.43999998 L6.71999998,7.43999998 L6.71999998,9.35999999 Z M18.24,7.43999998 L8.63999999,7.43999998 C8.10980662,7.43999998 7.67999998,7.86980662 7.67999998,8.39999998 C7.67999998,8.93019335 8.10980662,9.35999999 8.63999999,9.35999999 L18.24,9.35999999 C18.7701934,9.35999999 19.2,8.93019335 19.2,8.39999998 C19.2,7.86980662 18.7701934,7.43999998 18.24,7.43999998 Z M17.52,8.87999999 L8.63999999,8.87999999 C8.3749033,8.87999999 8.15999998,8.66509667 8.15999998,8.39999998 C8.15999998,8.1349033 8.3749033,7.91999998 8.63999999,7.91999998 L17.52,7.91999998 C17.7850967,7.91999998 18,8.1349033 18,8.39999998 C18,8.66509667 17.7850967,8.87999999 17.52,8.87999999 Z M6.71999998,12 L4.79999997,12 L4.79999997,10.08 L6.71999998,10.08 L6.71999998,12 Z M6.71999998,14.64 L4.79999997,14.64 L4.79999997,12.72 L6.71999998,12.72 L6.71999998,14.64 Z M18.24,10.08 L8.63999999,10.08 C8.10980662,10.08 7.67999998,10.5098066 7.67999998,11.04 C7.67999998,11.5701934 8.10980662,12 8.63999999,12 L18.24,12 C18.7701934,12 19.2,11.5701934 19.2,11.04 C19.2,10.5098066 18.7701934,10.08 18.24,10.08 Z M11.76,11.52 L8.63999999,11.52 C8.3749033,11.52 8.15999998,11.3050967 8.15999998,11.04 C8.15999998,10.7749033 8.3749033,10.56 8.63999999,10.56 L11.76,10.56 C12.0250967,10.56 12.24,10.7749033 12.24,11.04 C12.24,11.3050967 12.0250967,11.52 11.76,11.52 Z M18.24,11.52 L13.92,11.52 C13.6549033,11.52 13.44,11.3050967 13.44,11.04 C13.44,10.7749033 13.6549033,10.56 13.92,10.56 L18.24,10.56 C18.5050967,10.56 18.72,10.7749033 18.72,11.04 C18.72,11.3050967 18.5050967,11.52 18.24,11.52 Z M18.24,12.72 L8.63999999,12.72 C8.10980662,12.72 7.67999998,13.1498066 7.67999998,13.68 C7.67999998,14.2101934 8.10980662,14.64 8.63999999,14.64 L18.24,14.64 C18.7701934,14.64 19.2,14.2101934 19.2,13.68 C19.2,13.1498066 18.7701934,12.72 18.24,12.72 Z M13.2,14.16 L8.63999999,14.16 C8.3749033,14.16 8.15999998,13.9450967 8.15999998,13.68 C8.15999998,13.4149033 8.3749033,13.2 8.63999999,13.2 L13.2,13.2 C13.4650967,13.2 13.68,13.4149033 13.68,13.68 C13.68,13.9450967 13.4650967,14.16 13.2,14.16 Z M18.24,14.16 L15.36,14.16 C15.0949033,14.16 14.88,13.9450967 14.88,13.68 C14.88,13.4149033 15.0949033,13.2 15.36,13.2 L18.24,13.2 C18.5050967,13.2 18.72,13.4149033 18.72,13.68 C18.72,13.9450967 18.5050967,14.16 18.24,14.16 Z" fill="#000000"></path>
    </g>
</svg>