<?xml version="1.0" encoding="UTF-8"?>
<svg width="24px" height="24px" viewBox="0 0 24 24" version="1.1" xmlns="http://www.w3.org/2000/svg" xmlns:xlink="http://www.w3.org/1999/xlink">
    <title>icons/functional_UI/A-E/mdpi/ic_Email_forward</title>
    <g id="icons/functional_UI/A-E/ic_Email_forward" stroke="none" stroke-width="1" fill="none" fill-rule="evenodd">
        <path d="M19.488,4.19999997 L2.39999996,4.19999997 L2.39999996,10.488 L5.44799997,10.488 L5.44799997,9.90127199 L4.19999997,8.70719999 L4.19999997,6.63026398 C6.45599998,8.85947999 10.571688,12.852 10.571688,12.852 L10.572984,12.852 C10.940184,13.236 11.440176,13.3992 11.99184,13.3992 C12.576216,13.3992 13.10208,13.164 13.47408,12.756 L13.476672,12.756 L19.8,6.60122398 L19.8,8.70345599 L14.142192,14.172 L14.137392,14.172 C13.581768,14.724 12.828408,15.0048 11.998344,15.0048 C11.176488,15.0048 10.42968,14.72028 9.87455999,14.178504 C9.85603199,14.199576 9.83709599,14.218848 9.81729599,14.239032 C9.81335999,14.243112 9.80939999,14.2464 9.80529599,14.250384 L6.46591198,17.532288 C6.35365523,17.6425663 6.2025542,17.7043083 6.04519198,17.7042 C5.88640171,17.7038122 5.7342706,17.6403543 5.62227251,17.5277891 C5.51027442,17.4152239 5.44758572,17.2627742 5.44799997,17.103984 L5.44799997,15.888 L2.39999996,15.888 L2.39999996,17.088 C2.39999996,18.259416 3.36458396,19.2 4.53599997,19.2 L21.6,19.2 L21.6,6.27119998 C21.6,5.09999997 20.659872,4.19999997 19.488,4.19999997 Z M6.04799998,15.312 L6.04799998,17.103984 L9.38399999,13.8216 L9.38399999,13.8216 C9.40390032,13.8052656 9.42164264,13.7864668 9.43679999,13.765656 L9.43747199,13.766328 C9.56997084,13.6118443 9.64350614,13.4154441 9.64504799,13.211928 L9.64535999,13.211928 C9.64535999,13.211928 9.64521599,13.201944 9.64521599,13.199928 C9.64521599,13.197912 9.64535999,13.211928 9.64535999,13.187928 L9.64504799,13.187928 C9.63723823,12.9602754 9.54437734,12.7438198 9.38479199,12.58128 L9.38615999,12.58368 L6.04799998,9.30398399 L6.04799998,11.088 L2.13599996,11.088 C1.63958396,11.088 1.2479958,11.506944 1.2479958,12.003984 L1.2479958,14.403984 C1.24726053,14.6464503 1.34526231,14.8787691 1.51943996,15.047448 C1.68129596,15.204888 1.89249596,15.312 2.13599996,15.312 L6.04799998,15.312 Z" fill="#000000"></path>
    </g>
</svg>