<?xml version="1.0" encoding="UTF-8"?>
<svg width="24px" height="24px" viewBox="0 0 24 24" version="1.1" xmlns="http://www.w3.org/2000/svg" xmlns:xlink="http://www.w3.org/1999/xlink">
    <title>icons/functional_UI/A-E/mdpi/ic_End_Reject_call_button</title>
    <g id="icons/functional_UI/A-E/ic_End_Reject_call_button" stroke="none" stroke-width="1" fill="none" fill-rule="evenodd">
        <path d="M12,1.79999996 C17.633304,1.79999996 22.2,6.36669598 22.2,12 C22.2,17.633304 17.633304,22.2 12,22.2 C6.36669598,22.2 1.79999996,17.633304 1.79999996,12 C1.79999996,6.36669598 6.36669598,1.79999996 12,1.79999996 Z M11.862672,11.15304 C13.500168,11.151912 15.275304,11.316624 15.2748,12.066816 C15.273696,13.949616 15.137448,13.939656 17.270904,14.170944 C19.40484,14.40168 19.154184,14.227272 19.131696,11.817936 C19.084296,10.515048 16.28436,8.94971999 11.863968,8.95182985 C7.44352798,8.95483199 4.77707997,10.592808 4.75891197,11.81184 C4.74861597,14.344704 4.58973597,14.388864 6.62795998,14.176464 C8.76172799,13.943664 8.63462399,13.95228 8.63565599,12.07788 C8.63649599,11.327784 10.22472,11.154024 11.862672,11.15304 Z" fill="#000000"></path>
    </g>
</svg>