<?xml version="1.0" encoding="UTF-8"?>
<svg width="24px" height="24px" viewBox="0 0 24 24" version="1.1" xmlns="http://www.w3.org/2000/svg" xmlns:xlink="http://www.w3.org/1999/xlink">
    <title>icons/functional_UI/A-E/mdpi/ic_Email_replied</title>
    <g id="icons/functional_UI/A-E/ic_Email_replied" stroke="none" stroke-width="1" fill="none" fill-rule="evenodd">
        <path d="M22.48056,15.047448 C22.318704,15.204888 22.107528,15.312 21.864,15.312 L17.952,15.312 L17.952,17.103984 L14.616,13.8216 L14.616,13.8216 C14.5960997,13.8052656 14.5783574,13.7864668 14.5632,13.765656 L14.562528,13.766328 C14.4300292,13.6118443 14.3564939,13.4154441 14.354952,13.211928 L14.35464,13.211928 C14.35464,13.211928 14.354784,13.201944 14.354784,13.199928 C14.354784,13.197912 14.35464,13.211928 14.35464,13.187928 L14.354952,13.187928 C14.3627618,12.9602754 14.4556227,12.7438198 14.615208,12.58128 L14.61384,12.58368 L17.952,9.30398399 L17.952,11.088 L21.864,11.088 C22.360416,11.088 22.7520042,11.506944 22.7520042,12.003984 L22.7520042,14.403984 C22.7527395,14.6464503 22.6547377,14.8787691 22.48056,15.047448 L22.48056,15.047448 Z M21.6000002,10.488 L18.552,10.488 L18.552,9.90127199 L19.8,8.70719999 L19.8,6.63026398 C17.544,8.85947999 13.428312,12.852 13.428312,12.852 L13.427016,12.852 C13.059816,13.236 12.559824,13.3992 12.00816,13.3992 C11.423784,13.3992 10.89792,13.164 10.52592,12.756 L10.523328,12.756 L4.19999997,6.60122398 L4.19999997,8.70345599 L9.85780799,14.172 L9.86260799,14.172 C10.418232,14.724 11.171592,15.0048 12.001656,15.0048 C12.823512,15.0048 13.57032,14.72028 14.12544,14.178504 C14.143968,14.199576 14.162904,14.218848 14.182704,14.239032 C14.18664,14.243112 14.1906,14.2464 14.194704,14.250384 L17.534088,17.532288 C17.6463448,17.6425663 17.7974458,17.7043083 17.954808,17.7042 C18.1135983,17.7038122 18.2657294,17.6403543 18.3777275,17.5277891 C18.4897256,17.4152239 18.5524143,17.2627742 18.552,17.103984 L18.552,15.888 L21.6000002,15.888 L21.6000002,16.8 L21.6000002,16.8 L21.6000002,19.2 L4.49999997,19.2 C3.34020199,19.2 2.39999996,18.259798 2.39999996,17.1 C2.39999996,17.096064 2.40026396,17.092224 2.40028796,17.088288 L2.39999996,17.088 L2.39999996,6.59999998 L2.39999996,6.59999998 L2.39999996,4.19999997 L19.488,4.19999997 L19.488,4.19966397 C19.491552,4.19966397 19.4952,4.19966397 19.498656,4.19966397 C20.6596305,4.2001543 21.600411,5.14166548 21.6000002,6.30263998 C21.6000002,6.30503998 21.6000002,6.30724798 21.6000002,6.30957598 L21.6000002,10.488 L21.6000002,10.488 Z" fill="#000000"></path>
    </g>
</svg>