<?xml version="1.0" encoding="UTF-8"?>
<svg width="24px" height="24px" viewBox="0 0 24 24" version="1.1" xmlns="http://www.w3.org/2000/svg" xmlns:xlink="http://www.w3.org/1999/xlink">
    <title>icons/functional_UI/A-E/mdpi/ic_Empty_trash</title>
    <g id="icons/functional_UI/A-E/ic_Empty_trash" stroke="none" stroke-width="1" fill="none" fill-rule="evenodd">
        <path d="M18,3.59901596 L15,3.59901596 L15,2.99999996 C15,2.33725826 14.4627417,1.79999996 13.8,1.79999996 L10.2,1.79999996 C9.53725829,1.79999996 8.99999999,2.33725826 8.99999999,2.99999996 L8.99999999,3.59901596 L5.99999997,3.59901596 C5.00588742,3.59901596 4.19999997,4.40490342 4.19999997,5.39901597 L4.19999997,6.59999998 L19.8,6.59999998 L19.8,5.39901597 C19.8,4.40490342 18.9941126,3.59901596 18,3.59901596 Z M13.8,3.59901596 L10.2,3.59901596 L10.2,2.99999996 L13.8,2.99999996 L13.8,3.59901596 Z M5.39999997,22.2 L18.6,22.2 L18.6,7.19901598 L5.39999997,7.19901598 L5.39999997,22.2 Z M12,9.59999999 C14.650968,9.59999999 16.8,11.749032 16.8,14.4 C16.8,17.050968 14.650968,19.2 12,19.2 C9.34903199,19.2 7.19999998,17.050968 7.19999998,14.4 C7.19999998,11.749032 9.34903199,9.59999999 12,9.59999999 Z M14.545584,15.672792 L13.272792,14.4 L14.545584,13.127208 C14.7731621,12.8998888 14.8621207,12.5683941 14.7789276,12.2576776 C14.6957346,11.9469611 14.4530389,11.7042654 14.1423224,11.6210724 C13.8316059,11.5378793 13.5001112,11.6268379 13.272792,11.854416 L12,13.127208 L10.727208,11.854416 C10.3756777,11.5032856 9.80610851,11.5034477 9.45477808,11.8547781 C9.10344765,12.2061085 9.10328557,12.7756777 9.45441599,13.127208 L10.727208,14.4 L9.45441599,15.672792 C9.22683788,15.9001112 9.13787932,16.2316059 9.22107238,16.5423224 C9.30426543,16.8530389 9.54696109,17.0957346 9.85767758,17.1789276 C10.1683941,17.2621207 10.4998888,17.1731621 10.727208,16.945584 L12,15.672792 L13.272792,16.945584 C13.5001112,17.1731621 13.8316059,17.2621207 14.1423224,17.1789276 C14.4530389,17.0957346 14.6957346,16.8530389 14.7789276,16.5423224 C14.8621207,16.2316059 14.7731621,15.9001112 14.545584,15.672792 L14.545584,15.672792 Z" fill="#000000"></path>
    </g>
</svg>