<?xml version="1.0" encoding="UTF-8"?>
<svg width="24px" height="24px" viewBox="0 0 24 24" version="1.1" xmlns="http://www.w3.org/2000/svg" xmlns:xlink="http://www.w3.org/1999/xlink">
    <title>icons/functional_UI/A-E/mdpi/ic_Error_severe</title>
    <g id="icons/functional_UI/A-E/ic_Error_severe" stroke="none" stroke-width="1" fill="none" fill-rule="evenodd">
        <path d="M21.8323328,17.6167651 L21.8325728,17.6167651 C21.8325728,17.6167651 13.9459328,4.11676513 13.9459328,4.11676513 C13.7503328,3.78244513 13.4721728,3.50428513 13.1378528,3.30868513 C12.0628928,2.68012513 10.6821728,3.04204513 10.0536128,4.11676513 L10.0536128,4.11676513 L2.18617283,17.5834051 L2.18545283,17.5848451 L2.16673283,17.6165251 L2.16697283,17.6165251 C1.96513283,17.9621251 1.85905283,18.3552451 1.86000637,18.7555651 C1.86217283,19.9975651 2.87113283,21.0026851 4.11313283,21.0002894 L19.8861728,21.0002894 C20.2864928,21.0010051 20.6796128,20.8949251 21.0252128,20.6930851 C22.0975328,20.0664451 22.4589728,18.6890851 21.8323328,17.6167651 L21.8323328,17.6167651 Z M14.9520128,16.9025251 C14.6308928,17.2236451 14.1100928,17.2238851 13.7887328,16.9027651 C13.7887328,16.9025251 13.7887328,16.9025251 13.7887328,16.9025251 L11.8586528,14.9712451 L9.92857283,16.9025251 C9.60985283,17.2265251 9.08881283,17.2308451 8.76481283,16.9121251 C8.44081283,16.5934051 8.43649283,16.0723651 8.75521283,15.7483651 C8.75857283,15.7450051 8.76193283,15.7416451 8.76529283,15.7385251 L10.6953728,13.8074851 L8.83393283,11.9450851 C8.51449283,11.6218051 8.51785283,11.1007651 8.84113283,10.7813251 C9.16153283,10.4650051 9.67681283,10.4650051 9.99721283,10.7810851 L11.8586528,12.6434851 L13.7200928,10.7810851 C14.0385728,10.4568451 14.5596128,10.4520451 14.8838528,10.7705251 C15.2080928,11.0890051 15.2128928,11.6098051 14.8944128,11.9342851 C14.8908128,11.9378851 14.8872128,11.9414851 14.8836128,11.9450851 L13.0221728,13.8074851 L14.9522528,15.7382851 C15.2733728,16.0598851 15.2733728,16.5809251 14.9522528,16.9025251 L14.9520128,16.9025251 Z" id="Error_Severe" fill="#000000"></path>
    </g>
</svg>