<?xml version="1.0" encoding="UTF-8"?>
<svg width="24px" height="24px" viewBox="0 0 24 24" version="1.1" xmlns="http://www.w3.org/2000/svg" xmlns:xlink="http://www.w3.org/1999/xlink">
    <title>icons/functional_UI/A-E/mdpi/ic_End_call</title>
    <g id="icons/functional_UI/A-E/ic_End_call" stroke="none" stroke-width="1" fill="none" fill-rule="evenodd">
        <path d="M12,8.11199998 C6.36669598,8.11199998 1.79999995,9.92978399 1.79999995,12.912312 L1.79999995,14.712312 C1.79999995,15.0536701 1.94530247,15.3788899 2.19964561,15.6065628 C2.45398875,15.8342357 2.79325799,15.9428116 3.13252796,15.905112 L6.13252798,15.571752 C6.74030525,15.504216 7.20008388,14.9904461 7.19999998,14.378928 L7.19999998,13.652784 L7.20095998,13.652928 C7.24151998,11.865144 9.37437599,11.627808 12,11.627808 C14.625624,11.627808 16.75848,11.865144 16.79904,13.652928 L16.7999999,13.652784 L16.7999999,14.378928 C16.7999297,14.9904451 17.2597183,15.5042043 17.867496,15.571728 L20.867496,15.905088 C21.2067621,15.9427803 21.5460248,15.834201 21.8003624,15.606529 C22.0547,15.3788569 22.2000001,15.0536415 22.2000001,14.712288 L22.2000001,12.912288 C22.2000001,9.92978399 17.633304,8.11199998 12,8.11199998 Z" fill="#000000"></path>
    </g>
</svg>