<?xml version="1.0" encoding="UTF-8"?>
<svg width="24px" height="24px" viewBox="0 0 24 24" version="1.1" xmlns="http://www.w3.org/2000/svg" xmlns:xlink="http://www.w3.org/1999/xlink">
    <title>icons/functional_UI/A-E/mdpi/ic_Erase</title>
    <g id="icons/functional_UI/A-E/ic_Erase" stroke="none" stroke-width="1" fill="none" fill-rule="evenodd">
        <path d="M19.585512,6.59999998 L8.55707999,6.59999998 L2.28719996,11.275512 C1.95285596,11.609952 1.80021596,12.022032 1.80021596,12.46764 C1.80021596,12.913656 1.95283196,13.326048 2.28741596,13.66044 L8.55707999,18.6000196 L19.585512,18.6000196 C20.9672004,18.605304 22.1135155,17.5326318 22.199832,16.153632 L22.199832,9.09902399 C22.199832,7.64774398 21.034104,6.59999998 19.585512,6.59999998 Z M16.548,15.189912 L16.0152,15.723192 C15.8974944,15.8411259 15.7377143,15.9074253 15.571092,15.9074253 C15.4044697,15.9074253 15.2446896,15.8411259 15.126984,15.723192 L13.439784,14.034192 L11.752584,15.723192 C11.6349251,15.8411115 11.475198,15.9074253 11.3086188,15.9074253 C11.1420397,15.9074253 10.9822875,15.8412349 10.864584,15.72336 L10.331784,15.189912 C10.0865347,14.9443653 10.0865347,14.5465707 10.331784,14.301024 L12.0192,12.612 L10.331832,10.923 C10.0865822,10.6774066 10.0865822,10.2795854 10.331832,10.033992 L10.864632,9.50066399 C10.982332,9.38280219 11.1420646,9.31651247 11.308632,9.31651247 C11.4751994,9.31651247 11.634932,9.38280219 11.752632,9.50066399 L13.44,11.189472 L15.1272,9.50059199 C15.2449032,9.38273608 15.4046346,9.31651247 15.5712,9.31651247 C15.7377654,9.31651247 15.8974969,9.38273608 16.0152,9.50059199 L16.548,10.03392 C16.7931705,10.2795462 16.7931705,10.6773018 16.548,10.922928 L14.8608,12.612 L16.548,14.301 C16.7931463,14.5465987 16.7931463,14.9443133 16.548,15.189912 Z" fill="#000000"></path>
    </g>
</svg>