<?xml version="1.0" encoding="UTF-8"?>
<svg width="24px" height="24px" viewBox="0 0 24 24" version="1.1" xmlns="http://www.w3.org/2000/svg" xmlns:xlink="http://www.w3.org/1999/xlink">
    <title>icons/functional_UI/A-E/mdpi/ic_Email_read</title>
    <g id="icons/functional_UI/A-E/ic_Email_read" stroke="none" stroke-width="1" fill="none" fill-rule="evenodd">
        <path d="M2.99999996,9.59999999 L10.591776,17.080608 C11.349708,17.8379945 12.57798,17.8379945 13.335912,17.080608 L13.3362,17.080416 L21,9.59999999 L21,19.8 L4.19999997,19.8 C3.53771305,19.7989034 3.00109663,19.2622869 2.99999996,18.6 L2.99999996,9.59999999 Z M11.151288,15.958872 C11.6194761,16.4244182 12.3753874,16.4256285 12.845064,15.961584 L18.888744,9.97624799 C19.116528,9.75086399 19.2000001,9.44035199 19.2000001,9.11999999 L19.2000001,5.39999997 C19.2000001,5.08171872 19.0736644,4.77645332 18.8486055,4.55139448 C18.6235467,4.32633564 18.3182813,4.19999994 18,4.19999994 L5.99551197,4.19999994 C5.6776968,4.19999994 5.37299489,4.32671265 5.14868704,4.55186256 C4.92437919,4.77701247 4.79891569,5.08218663 4.799993,5.39999997 L4.799993,9.11999999 C4.799993,9.43900799 4.91587197,9.75263999 5.14199997,9.97780799 L11.151288,15.958872 Z M7.20823198,5.99999998 C7.20823198,5.84082136 7.27155436,5.68818034 7.38414439,5.57565782 C7.49673442,5.4631353 7.64941337,5.39994904 7.80859198,5.39999994 L16.189608,5.39999994 C16.3487866,5.39994904 16.5014656,5.4631353 16.6140556,5.57565782 C16.7266456,5.68818034 16.789968,5.84082136 16.789968,5.99999998 L16.789968,5.99999998 C16.789968,6.15917859 16.7266456,6.31181961 16.6140556,6.42434213 C16.5014656,6.53686465 16.3487866,6.60005091 16.189608,6.60000001 L7.80859198,6.60000001 C7.64941337,6.60005091 7.49673442,6.53686465 7.38414439,6.42434213 C7.27155436,6.31181961 7.20823198,6.15917859 7.20823198,5.99999998 L7.20823198,5.99999998 L7.20823198,5.99999998 Z M7.80859198,7.79999998 L12.587448,7.79999998 C12.9188189,7.79999998 13.187448,8.06862913 13.187448,8.39999999 C13.187448,8.73137084 12.9188189,8.99999999 12.587448,8.99999999 L7.80859198,8.99999999 C7.47722113,8.99999999 7.20859198,8.73137084 7.20859198,8.39999999 C7.20859198,8.06862913 7.47722113,7.79999998 7.80859198,7.79999998 Z" fill="#000000"></path>
    </g>
</svg>