<?xml version="1.0" encoding="UTF-8"?>
<svg width="24px" height="24px" viewBox="0 0 24 24" version="1.1" xmlns="http://www.w3.org/2000/svg" xmlns:xlink="http://www.w3.org/1999/xlink">
    <title>icons/functional_UI/E-M/mdpi/ic_Expand_screen</title>
    <g id="icons/functional_UI/E-M/ic_Expand_screen" stroke="none" stroke-width="1" fill="none" fill-rule="evenodd">
        <path d="M18,11.4 L18,6.98181598 C18,6.43957946 17.5604205,5.99999997 17.018184,5.99999997 L12.6,5.99999997 L18,11.4 Z M5.99999997,12.6 L5.99999997,17.018184 C5.99999997,17.5604205 6.43957946,18 6.98181598,18 L11.4,18 L5.99999997,12.6 Z M19.2,4.79999997 L19.2,18 C19.1992461,18.6624292 18.6624292,19.1992461 18,19.2 L4.79999997,19.2 L4.79999997,5.99999997 C4.80075385,5.33757079 5.33757079,4.80075385 5.99999997,4.79999997 L19.2,4.79999997 L19.2,4.79999997 Z M21,2.99999996 L5.99999996,2.99999996 C4.34314572,2.99999996 2.99999996,4.34314572 2.99999996,5.99999996 L2.99999996,21 L18,21 C19.6568543,21 21,19.6568543 21,18 L21,2.99999996 L21,2.99999996 Z" fill="#000000"></path>
    </g>
</svg>