<?xml version="1.0" encoding="UTF-8"?>
<svg width="24px" height="24px" viewBox="0 0 24 24" version="1.1" xmlns="http://www.w3.org/2000/svg" xmlns:xlink="http://www.w3.org/1999/xlink">
    <title>icons/functional_UI/E-M/mdpi/ic_Face</title>
    <g id="icons/functional_UI/E-M/ic_Face" stroke="none" stroke-width="1" fill="none" fill-rule="evenodd">
        <path d="M7.77599998,9.59999999 C7.11325828,9.59999999 6.57599998,10.1372583 6.57599998,10.8 C6.57599998,11.4627417 7.11325828,12 7.77599998,12 C8.43874168,12 8.97599999,11.4627417 8.97599999,10.8 C8.97599999,10.1372583 8.43874168,9.59999999 7.77599998,9.59999999 Z M16.176,9.59999999 C15.5132583,9.59999999 14.976,10.1372583 14.976,10.8 C14.976,11.4627417 15.5132583,12 16.176,12 C16.8387417,12 17.376,11.4627417 17.376,10.8 C17.376,10.1372583 16.8387417,9.59999999 16.176,9.59999999 Z M15,15.9 C14.9985501,15.4035455 14.5964545,15.0014499 14.1,15 L9.89999999,15 C9.40354552,15.0014499 9.00144988,15.4035455 8.99999999,15.9 L8.99999999,15.9 L8.99999999,16.2 C8.99999999,16.862736 10.343136,17.4 12,17.4 C13.656864,17.4 15,16.862736 15,16.2 L15,15.9 L15,15.9 Z M12,1.79999996 C6.36669598,1.79999996 1.79999996,6.36669598 1.79999996,12 C1.79999996,17.633304 6.36669598,22.2 12,22.2 C17.633304,22.2 22.2,17.633304 22.2,12 C22.2,6.36669598 17.633304,1.79999996 12,1.79999996 Z M12,21 C7.02943198,21 2.99999996,16.970568 2.99999996,12 C2.99999996,7.02943198 7.02943198,2.99999996 12,2.99999996 C16.970568,2.99999996 21,7.02943198 21,12 C21,16.970568 16.970568,21 12,21 Z" fill="#000000"></path>
    </g>
</svg>