<svg width="24" height="24"><path fill-rule="evenodd" d="M12 4a2.57 2.57 0 0 1 1.62.543c.467.362.809.846 1.026 1.45l4.211 11.476c.095.271.143.644.143 1.115a1.37 1.37 0 0 1-.672 1.048c-.394.245-.85.368-1.368.368-.34 0-.643-.147-.908-.442a2.54 2.54 0 0 1-.566-1.02L15 16.82H9l-.371 1.344C8.3 19.388 7.769 20 7.035 20a2.49 2.49 0 0 1-1.344-.366 1.431 1.431 0 0 1-.69-1.05c0-.482.047-.854.142-1.114l4.21-11.477A3.169 3.169 0 0 1 10.38 4.55 2.551 2.551 0 0 1 12 4Zm.023 3.753L10.12 13.64h3.8l-1.897-5.887Z"/></svg>