<?xml version="1.0" encoding="UTF-8"?>
<svg width="24px" height="24px" viewBox="0 0 24 24" version="1.1" xmlns="http://www.w3.org/2000/svg" xmlns:xlink="http://www.w3.org/1999/xlink">
    <title>icons/functional_UI/E-M/mdpi/ic_File_XML</title>
    <g id="icons/functional_UI/E-M/ic_File_XML" stroke="none" stroke-width="1" fill="none" fill-rule="evenodd">
        <path d="M15,1.79999996 L15,5.39999997 C15,6.06273598 15.4776,6.59999998 16.066656,6.59999998 L19.8,6.59999998 L15,1.79999996 Z M16.2,7.79999996 C14.8745166,7.79999996 13.8,6.72548338 13.8,5.39999997 L13.8,1.79999996 L4.19999997,1.79999996 L4.19999997,20.994552 L4.19999997,20.994552 C4.19999997,20.996376 4.19999997,20.998176 4.19999997,21 C4.19999997,21.6627417 4.73725827,22.2 5.39999997,22.2 L19.8,22.2 L19.8,7.79999996 L16.2,7.79999996 Z M9.31679999,12.116232 C9.44545599,11.936952 9.50979199,11.803008 9.50980799,11.7144 C9.51312647,11.581402 9.47192192,11.4511068 9.39273599,11.3442 C9.32150749,11.2442668 9.20533966,11.1861829 9.08265599,11.18916 C8.86011199,11.18916 8.68924799,11.275648 8.57006399,11.448624 L7.88347198,12.426312 L7.15888798,11.436 C7.0513207,11.2769099 6.86991952,11.183815 6.67795198,11.189184 C6.55558398,11.189184 6.45275198,11.2406 6.36945598,11.343432 C6.28678736,11.4443746 6.24250945,11.5713165 6.24446398,11.701776 C6.24446398,11.782992 6.30721598,11.912192 6.43271998,12.089376 L7.32023998,13.256904 L6.16694398,14.799384 C6.08044798,14.911208 6.03717523,15.006128 6.03722398,15.084144 C6.03557285,15.2200952 6.07590269,15.3532457 6.15271198,15.465432 C6.22967198,15.578248 6.32933598,15.634704 6.45170398,15.634704 C6.68795998,15.634704 6.88255198,15.520304 7.03547998,15.291504 L7.88344798,14.098704 L8.75198399,15.2976 C8.91651199,15.522272 9.11320799,15.6346 9.34207199,15.634584 C9.46864799,15.634584 9.56831999,15.579208 9.64108799,15.468456 C9.71492951,15.3540348 9.75293597,15.2201766 9.75023999,15.084024 C9.75023999,15.011256 9.70703999,14.913704 9.62063999,14.791368 L8.46088799,13.25688 L9.31679999,12.116232 Z M12.071352,15.16164 C12.120952,15.318808 12.188424,15.436936 12.273768,15.516024 C12.359112,15.595112 12.477208,15.63468 12.628056,15.63468 C12.754568,15.63468 12.8542,15.60988 12.926952,15.56028 C12.9976394,15.5131391 13.0539989,15.4474638 13.089864,15.37044 C13.1360348,15.2646792 13.1746125,15.1557635 13.205304,15.04452 L13.814208,13.016376 L14.151072,15.050856 C14.175312,15.233256 14.218512,15.3672 14.280672,15.452688 C14.365008,15.56976 14.522608,15.628296 14.753472,15.628296 C15.021296,15.628296 15.155184,15.416296 15.155184,14.992296 L14.57808,11.701752 C14.5563881,11.5508115 14.4726956,11.4157692 14.347176,11.329176 C14.2205125,11.2367996 14.0674518,11.187701 13.910688,11.18916 C13.7654107,11.1879136 13.6247235,11.2400042 13.515288,11.33556 C13.4009136,11.432295 13.3159816,11.5591858 13.270152,11.7018 L12.602736,13.832784 L11.876808,11.61 C11.840192,11.4780262 11.7540898,11.3652578 11.636424,11.295168 C11.5132514,11.2231527 11.3726151,11.186474 11.22996,11.18916 C11.067931,11.1878675 10.9110129,11.2458209 10.78872,11.35212 C10.690656,11.438616 10.625808,11.572032 10.594176,11.752368 L10.062792,15.0066 C10.062792,15.197528 10.09732,15.34888 10.166376,15.460656 C10.2293021,15.5690839 10.3471724,15.6336667 10.472424,15.628344 C10.62844,15.628344 10.75628,15.58748 10.855944,15.505752 C10.955608,15.424024 11.019664,15.30932 11.048112,15.16164 L11.384952,13.016424 L12.071352,15.16164 Z M16.594296,11.733384 C16.594296,11.578344 16.550528,11.447824 16.462992,11.341824 C16.375456,11.235824 16.254696,11.182848 16.100712,11.182848 C15.945672,11.182848 15.823856,11.23584 15.735264,11.341824 C15.6451815,11.4520387 15.5979845,11.5911066 15.602376,11.733384 L15.602376,14.948064 C15.602376,15.14424 15.65748,15.296912 15.767688,15.40608 C15.877896,15.515248 16.03,15.569824 16.224,15.569808 L17.617776,15.569808 C17.7454959,15.574146 17.8703996,15.5316664 17.968992,15.45036 C18.062864,15.370744 18.1098,15.263432 18.1098,15.128424 C18.1098,14.987112 18.063656,14.877424 17.971368,14.79936 C17.87908,14.721296 17.761216,14.682272 17.617776,14.682288 L16.594296,14.682288 L16.594296,11.733384 Z" fill="#000000"></path>
    </g>
</svg>