<svg width="24" height="24">
<path fill-rule="evenodd" clip-rule="evenodd" d="M12 20C16.4183 20 20 16.4183 20 12C20 7.58172 16.4183 4 12 4C7.58172 4 4 7.58172 4 12C4 16.4183 7.58172 20 12 20ZM12 21C16.9706 21 21 16.9706 21 12C21 7.02944 16.9706 3 12 3C7.02944 3 3 7.02944 3 12C3 16.9706 7.02944 21 12 21ZM11.416 10.2774C11.2634 10.5062 10.9548 10.5687 10.7253 10.4178L10.7243 10.4171C10.2214 10.1101 9.5793 10 9.00001 10C8.42072 10 7.7786 10.1101 7.27573 10.4171L7.27705 10.4162C7.04732 10.5691 6.73709 10.507 6.58398 10.2774C6.43242 10.05 6.49666 9.73405 6.72405 9.58305C7.38584 9.14939 8.22066 9 9.00001 9C9.77934 9 10.6142 9.14939 11.276 9.58305C11.5035 9.7342 11.5677 10.0498 11.416 10.2774ZM8.35352 13.1464C8.15825 12.9512 7.84167 12.9512 7.64641 13.1464C7.45332 13.3395 7.45443 13.6625 7.64784 13.855C8.76592 14.9536 10.4639 15.5 12 15.5C13.5243 15.5 15.2474 14.9558 16.3535 13.8535C16.5488 13.6583 16.5488 13.3417 16.3535 13.1464C16.1583 12.9512 15.842 12.9511 15.6468 13.1461C14.7057 14.0479 13.2786 14.5 12 14.5C10.7196 14.5 9.29685 14.047 8.35352 13.1464ZM17.416 10.2774C17.2634 10.5062 16.9547 10.5687 16.7252 10.4178C16.2232 10.0991 15.5845 10 14.9999 10C14.4206 10 13.7785 10.1101 13.2757 10.4171L13.277 10.4162C13.0472 10.5691 12.737 10.507 12.5839 10.2774C12.4333 10.0514 12.4994 9.73129 12.7257 9.58194C13.3835 9.15871 14.2307 9 14.9999 9C15.7864 9 16.6114 9.14159 17.2773 9.58398C17.507 9.73715 17.5691 10.0476 17.416 10.2774Z" fill="black"/>
</svg>
