<svg width="24" height="24"><path fill-rule="evenodd" d="M11.256 9.769c-.195.317-.588.403-.88.194h-.001c-.64-.426-1.457-.578-2.195-.578s-1.555.152-2.195.577l.002-.001c-.292.212-.687.126-.882-.192-.193-.315-.111-.753.178-.962C6.125 8.207 7.188 8 8.18 8s2.055.207 2.897.807c.29.21.372.647.179.962M7.357 13.74a.6.6 0 0 0-.9 0 .744.744 0 0 0 .002.981C7.882 16.243 10.044 17 11.999 17c1.94 0 4.134-.753 5.542-2.28a.736.736 0 0 0 0-.979.6.6 0 0 0-.9 0c-1.198 1.248-3.014 1.874-4.642 1.874-1.63 0-3.441-.627-4.642-1.874M18.893 9.77c-.194.317-.587.403-.88.194-.638-.441-1.451-.578-2.195-.578-.738 0-1.555.152-2.195.577l.001-.001c-.292.212-.687.126-.882-.192-.192-.313-.107-.756.18-.963C13.76 8.22 14.839 8 15.819 8c1 0 2.051.196 2.899.809.292.212.371.642.176.96" clip-rule="evenodd"/></svg>