<?xml version="1.0" encoding="UTF-8"?>
<svg width="24px" height="24px" viewBox="0 0 24 24" version="1.1" xmlns="http://www.w3.org/2000/svg" xmlns:xlink="http://www.w3.org/1999/xlink">
    <title>icons/functional_UI/E-M/mdpi/ic_File_Excel</title>
    <g id="icons/functional_UI/E-M/ic_File_Excel" stroke="none" stroke-width="1" fill="none" fill-rule="evenodd">
        <path d="M16.06668,6.59999998 L19.8,6.59999998 L15,1.79999996 L15,5.39999997 C15,6.06278398 15.4776,6.59999998 16.06668,6.59999998 Z M16.2,7.79999996 C14.8745166,7.79999996 13.8,6.72548338 13.8,5.39999997 L13.8,1.79999996 L4.19999997,1.79999996 L4.19999997,20.994576 L4.19999997,20.994576 C4.19999997,20.9964 4.19999997,20.998176 4.19999997,21 C4.19999997,21.6627417 4.73725827,22.2 5.39999997,22.2 L19.8,22.2 L19.8,7.79999996 L16.2,7.79999996 Z M9.59999999,19.2 L7.19999998,19.2 L7.19999998,18 L9.59999999,18 L9.59999999,19.2 Z M13.2,19.2 L10.8,19.2 L10.8,18 L13.2,18 L13.2,19.2 Z M13.024272,12.424272 L11.348544,14.1 L13.024272,15.775728 L13.024272,15.775728 C13.2585909,16.010047 13.2585909,16.3899531 13.024272,16.624272 C12.789953,16.858591 12.410047,16.858591 12.175728,16.624272 L12.175728,16.624272 L10.5,14.948544 L8.82427199,16.624272 L8.82427199,16.624272 C8.58995303,16.858591 8.21004694,16.858591 7.97572799,16.624272 C7.74140904,16.3899531 7.74140903,16.010047 7.97572798,15.775728 L7.97572798,15.775728 L9.65145599,14.1 L7.97572798,12.424272 L7.97572798,12.424272 C7.74140905,12.189953 7.74140906,11.810047 7.97572801,11.575728 C8.21004695,11.3414091 8.58995303,11.3414091 8.82427199,11.575728 L8.82427199,11.575728 L10.5,13.25148 L12.175728,11.575728 L12.175728,11.575728 C12.410047,11.3414091 12.789953,11.3414091 13.024272,11.575728 C13.2585909,11.810047 13.2585909,12.189953 13.024272,12.424272 L13.024272,12.424272 L13.024272,12.424272 Z M16.8,19.2 L14.4,19.2 L14.4,18 L16.8,18 L16.8,19.2 Z M16.8,16.8 L14.4,16.8 L14.4,15.6 L16.8,15.6 L16.8,16.8 Z M16.8,14.4 L14.4,14.4 L14.4,13.2 L16.8,13.2 L16.8,14.4 Z M16.8,12 L14.4,12 L14.4,10.8 L16.8,10.8 L16.8,12 Z" fill="#000000"></path>
    </g>
</svg>