<?xml version="1.0" encoding="UTF-8"?>
<svg width="24px" height="24px" viewBox="0 0 24 24" version="1.1" xmlns="http://www.w3.org/2000/svg" xmlns:xlink="http://www.w3.org/1999/xlink">
    <title>icons/functional_UI/E-M/mdpi/ic_Flashlight</title>
    <g id="icons/functional_UI/E-M/ic_Flashlight" stroke="none" stroke-width="1" fill="none" fill-rule="evenodd">
        <path d="M21.248112,19.528656 L19.552656,21.224112 C19.3278576,21.4491616 19.0228147,21.5756143 18.704724,21.5756143 C18.3866334,21.5756143 18.0815905,21.4491616 17.856792,21.224112 L17.432808,20.800632 L10.433184,13.801008 L8.27385598,13.801008 L9.35373599,12.721536 L12.744936,9.32973599 L13.800936,8.27385598 L13.800936,10.385688 L20.824056,17.408808 L21.24804,17.832792 C21.4730992,18.0575809 21.5995783,18.3626185 21.5995783,18.6807091 C21.5995783,18.9987998 21.4731521,19.303848 21.248112,19.528656 Z M16.136856,15.265368 L15.28896,14.417496 C15.0548266,14.1833361 14.6751999,14.1833146 14.44104,14.417448 C14.2068801,14.6515814 14.2068586,15.0312081 14.440992,15.265368 L15.28896,16.11336 C15.5234053,16.3458631 15.901705,16.3450656 16.135168,16.1115762 C16.368631,15.8780868 16.3693856,15.499787 16.136856,15.265368 Z M4.97039997,10.8816 L4.96989597,10.8816 C4.73606032,10.6473059 4.73606032,10.2679261 4.96989597,10.033632 L10.057704,4.94599197 C10.2919981,4.71215632 10.6713779,4.71215632 10.905672,4.94599197 L13.497024,7.53787198 L7.56187198,13.4736 L4.97039997,10.8816 Z M8.39983198,4.19999997 C8.06844588,4.19978802 7.79989815,3.93112213 7.79983198,3.59973596 L7.79983198,2.39999996 C7.79847033,2.1846721 7.91256526,1.98511575 8.09882103,1.87705683 C8.2850768,1.76899791 8.51494717,1.76899791 8.70120294,1.87705683 C8.88745871,1.98511575 9.00155364,2.1846721 9.00019199,2.39999996 L9.00019199,3.59954396 C9.00017874,3.93112368 8.7314117,4.1999337 8.39983198,4.19999997 L8.39983198,4.19999997 Z M4.73551197,5.55218397 L3.89551197,4.71218397 C3.66761161,4.47951118 3.66947632,4.10674296 3.89969302,3.87636182 C4.12990972,3.64598068 4.50267651,3.64384981 4.73551197,3.87158397 L5.57608797,4.71218397 C5.7294683,4.86165731 5.79054243,5.08210606 5.73594658,5.28919806 C5.68135073,5.49629006 5.51953362,5.6579778 5.31239803,5.71240801 C5.10526243,5.76683821 4.88486259,5.7055878 4.73551197,5.55208797 L4.73551197,5.55218397 Z M4.20016804,8.40033599 C4.20024442,8.5594893 4.13705486,8.71214607 4.02451646,8.82468448 C3.91197805,8.93722288 3.75932128,9.00041244 3.60016797,9.00033606 L2.39978396,9.00033606 C2.06979487,8.99824926 1.80338728,8.73015167 1.80338728,8.40015599 C1.80338728,8.0701603 2.06979487,7.80206271 2.39978396,7.79997598 L3.60019197,7.79997598 C3.75936642,7.8000269 3.91200127,7.86330753 4.0245186,7.97589688 C4.13703593,8.08848622 4.2002189,8.24116153 4.20016804,8.40033599 L4.20016804,8.40033599 Z" fill="#000000"></path>
    </g>
</svg>