<?xml version="1.0" encoding="UTF-8"?>
<svg width="24px" height="24px" viewBox="0 0 24 24" version="1.1" xmlns="http://www.w3.org/2000/svg" xmlns:xlink="http://www.w3.org/1999/xlink">
    <title>icons/functional_UI/E-M/mdpi/ic_Funeral_services</title>
    <g id="icons/functional_UI/E-M/ic_Funeral_services" stroke="none" stroke-width="1" fill="none" fill-rule="evenodd">
        <path d="M19.8,22.2 L2.99999996,22.2 L2.99999996,21 C2.99999996,20.3372583 3.53725826,19.8 4.19999997,19.8 L4.19999997,9.59999999 C4.19999997,5.29219197 7.69219198,1.79999996 12,1.79999996 C16.307808,1.79999996 19.8,5.29219197 19.8,9.59999999 L19.8,19.8 C20.4627417,19.8 21,20.3372583 21,21 L21,22.2 L19.8,22.2 Z M15.6,11.4 L13.2,11.4 L13.2,16.2 C13.2,16.5313709 12.9313709,16.8 12.6,16.8 L11.4,16.8 C11.0686291,16.8 10.8,16.5313709 10.8,16.2 L10.8,11.4 L8.39999999,11.4 C8.06862913,11.4 7.79999998,11.1313708 7.79999998,10.8 L7.79999998,9.59999999 C7.79999998,9.26862914 8.06862913,8.99999997 8.39999999,8.99999997 L10.8,8.99999997 L10.8,6.59999998 C10.8,6.26862913 11.0686291,5.99999997 11.4,5.99999997 L12.6,5.99999997 C12.9313709,5.99999997 13.2,6.26862913 13.2,6.59999998 L13.2,8.99999997 L15.6,8.99999997 C15.9313709,8.99999997 16.2,9.26862914 16.2,9.59999999 L16.2,10.8 C16.2,11.1313708 15.9313709,11.4 15.6,11.4 Z" fill="#000000"></path>
    </g>
</svg>