<?xml version="1.0" encoding="UTF-8"?>
<svg width="24px" height="24px" viewBox="0 0 24 24" version="1.1" xmlns="http://www.w3.org/2000/svg" xmlns:xlink="http://www.w3.org/1999/xlink">
    <title>icons/functional_UI/E-M/mdpi/ic_Folder_Shortcut</title>
    <g id="icons/functional_UI/E-M/ic_Folder_Shortcut" stroke="none" stroke-width="1" fill="none" fill-rule="evenodd">
        <path d="M20.1,6.59999998 L10.8,6.59999998 L8.99999999,4.19999997 L2.39999996,4.19999997 L2.39999996,18.3 C2.39999996,19.1284272 3.07157284,19.8 3.89999996,19.8 L21.6,19.8 L21.6,8.09999998 C21.6,7.27157286 20.9284272,6.59999998 20.1,6.59999998 Z M4.97860797,13.329768 L6.32020798,11.990568 L5.12769597,10.7999997 L8.96752799,10.7999997 C9.31651846,10.799695 9.59968202,11.0823535 9.59999999,11.431344 L9.59999999,15.264312 L8.40739199,14.073912 L7.06579198,15.413112 L6.76763998,15.710712 C6.53047323,15.9472947 6.39718512,16.2685204 6.39718512,16.603512 C6.39718512,16.9385037 6.53047323,17.2597294 6.76763998,17.496312 L7.25159998,17.979432 C6.0920219,18.1236806 4.96880622,17.5156348 4.45561455,16.4658428 C3.94242287,15.4160507 4.15252211,14.1562129 4.97860797,13.329768 L4.97860797,13.329768 Z" fill="#000000"></path>
    </g>
</svg>