<?xml version="1.0" encoding="UTF-8"?>
<svg width="24px" height="24px" viewBox="0 0 24 24" version="1.1" xmlns="http://www.w3.org/2000/svg" xmlns:xlink="http://www.w3.org/1999/xlink">
    <title>icons/functional_UI/E-M/mdpi/ic_Fax</title>
    <g id="icons/functional_UI/E-M/ic_Fax" stroke="none" stroke-width="1" fill="none" fill-rule="evenodd">
        <path d="M7.55680798,18.041112 C6.90909598,18.041112 6.98265584,17.729592 6.98750398,16.352856 C6.99964798,15.5064 8.92850399,14.352456 12,14.352 C15.071472,14.352168 16.994592,15.447696 17.028,16.352352 C17.041248,17.694696 17.155896,18.037992 16.4346,18.037992 C16.257,18.037992 16.028856,18.017208 15.735912,17.985408 C14.253408,17.824032 14.348088,17.830992 14.348136,16.523808 C14.348136,16.00332 13.147344,15.888096 12.010344,15.888096 L12.007704,15.888096 C10.8696,15.888096 9.66724799,16.003128 9.66693599,16.523928 C9.66693599,17.825376 9.76173599,17.824512 8.27920798,17.985336 C7.97164798,18.017208 7.73647198,18.041184 7.55680798,18.041184 M6.59999998,5.39999997 L13.2,5.39999997 L13.2,8.39999997 C13.2,9.06274169 13.7372583,9.59999999 14.4,9.59999999 L17.4,9.59999999 L17.4,12.6 L6.59999998,12.6 M13.81092,4.19999997 L5.39999997,4.19999997 L5.39999997,11.4 L3.01091996,11.4 C2.34818396,11.4 1.79999996,11.937312 1.79999996,12.6 L1.79999996,18.6 C1.79999996,19.262736 2.34818396,19.8 3.01091996,19.8 L21.01092,19.8 C21.3280534,19.7995879 21.6319187,19.6726766 21.8551387,19.4474066 C22.0783587,19.2221366 22.202487,18.9171239 22.2000367,18.6 L22.2000367,12.588 C22.201986,12.2721306 22.0773112,11.9686386 21.8538519,11.7453823 C21.6303927,11.522126 21.3267875,11.397727 21.01092,11.4 L18.6,11.4 L18.6,8.99999999 L13.81092,4.19999997" fill="#000000"></path>
    </g>
</svg>