<?xml version="1.0" encoding="UTF-8"?>
<svg width="24px" height="24px" viewBox="0 0 24 24" version="1.1" xmlns="http://www.w3.org/2000/svg" xmlns:xlink="http://www.w3.org/1999/xlink">
    <title>icons/functional_UI/E-M/mdpi/ic_File_invoice_Sterling</title>
    <g id="icons/functional_UI/E-M/ic_File_invoice_Sterling" stroke="none" stroke-width="1" fill="none" fill-rule="evenodd">
        <path d="M15,1.79999996 L15,5.39999997 C15,6.06273598 15.4776,6.59999998 16.066656,6.59999998 L19.8,6.59999998 L15,1.79999996 Z M16.2,7.79999996 C14.8745166,7.79999996 13.8,6.72548338 13.8,5.39999997 L13.8,1.79999996 L4.19999997,1.79999996 L4.19999997,20.994552 L4.19999997,20.994552 C4.19999997,20.996376 4.19999997,20.998176 4.19999997,21 C4.19999997,21.6627417 4.73725827,22.2 5.39999997,22.2 L19.8,22.2 L19.8,7.79999996 L16.2,7.79999996 Z M9.49727999,7.63132798 L10.02,7.63132798 C10.2186402,7.63569204 10.4123298,7.56909797 10.566288,7.44350398 C10.719184,7.31823998 10.795648,7.15242398 10.79568,6.94605598 C10.79568,6.72709598 10.722368,6.55617598 10.575744,6.43329598 C10.42912,6.31041598 10.243872,6.24897598 10.02,6.24897598 L9.32224799,6.24897598 C9.18032799,5.97849597 9.10937599,5.76539997 9.10939199,5.60968797 C9.10939199,5.41312797 9.18783199,5.24799997 9.34471199,5.11430397 C9.49107874,4.98458165 9.68003792,4.91321263 9.87561599,4.91378397 C10.093216,4.91378397 10.274528,4.95507197 10.419552,5.03764797 C10.564576,5.12022397 10.696216,5.25350397 10.814472,5.43748797 C10.9000396,5.5677307 11.0035376,5.68526274 11.121912,5.78661597 C11.2273593,5.8699617 11.3588467,5.91340269 11.493192,5.90927997 C11.6976676,5.91280794 11.8942035,5.83019581 12.034752,5.68163997 C12.1808667,5.53506549 12.2611141,5.33538713 12.257064,5.12846397 C12.239688,4.71486397 12.010288,4.36023197 11.568864,4.06456797 C11.106912,3.75475997 10.5354,3.59983196 9.85432799,3.59983196 C9.47732507,3.60165009 9.10383454,3.67241466 8.75229599,3.80863197 C8.38493598,3.94783197 8.08143998,4.15423197 7.84180798,4.42783197 C7.60217598,4.70143197 7.48235998,5.02775997 7.48235998,5.40681597 C7.48235998,5.64118397 7.54069598,5.92190397 7.65736798,6.24897598 L7.36648798,6.24897598 C7.13312798,6.24897598 6.94708798,6.31041598 6.80836798,6.43329598 C6.66964798,6.55617598 6.60026398,6.72709598 6.60026398,6.94605598 C6.60026398,7.16187998 6.67120798,7.33005598 6.81309598,7.45058398 C6.95498398,7.57111198 7.13944798,7.63135998 7.36648798,7.63132798 L7.95770398,7.63132798 C7.91826398,7.92356798 7.86466398,8.15768798 7.79690398,8.33368798 C7.72914398,8.50968799 7.60777598,8.70687999 7.43279998,8.92526399 C7.28457598,9.09646399 7.21047198,9.27399999 7.21048798,9.45787199 C7.21048798,9.95279999 7.48796798,10.2003276 8.04292798,10.2003276 L11.53104,10.2003276 C11.6623964,10.2015264 11.792405,10.1737365 11.911776,10.118904 C12.0247542,10.06784 12.1204706,9.98506364 12.187296,9.88063199 C12.2557897,9.77074973 12.2907221,9.64326487 12.287808,9.51381599 C12.287808,9.30151199 12.214888,9.13559999 12.069048,9.01607999 C11.923208,8.89655999 11.743872,8.83679999 11.53104,8.83679999 L9.11884799,8.83679999 C9.37108799,8.36123198 9.49721599,7.95941598 9.49723199,7.63135198 L9.49723199,7.63135198 L9.49727999,7.63132798 Z M7.79999998,15.6 L16.2,15.6 C16.5313709,15.6 16.8,15.8686292 16.8,16.2 C16.8,16.5313709 16.5313709,16.8 16.2,16.8 L7.79999998,16.8 C7.46862913,16.8 7.19999998,16.5313709 7.19999998,16.2 C7.19999998,15.8686292 7.46862913,15.6 7.79999998,15.6 Z M7.79999998,12.6 L16.2,12.6 C16.5313709,12.6 16.8,12.8686292 16.8,13.2 C16.8,13.5313709 16.5313709,13.8 16.2,13.8 L7.79999998,13.8 C7.46862913,13.8 7.19999998,13.5313709 7.19999998,13.2 C7.19999998,12.8686292 7.46862913,12.6 7.79999998,12.6 Z M7.79999998,18.6 L12,18.6 C12.3313709,18.6 12.6,18.8686292 12.6,19.2 C12.6,19.5313709 12.3313709,19.8 12,19.8 L7.79999998,19.8 C7.46862913,19.8 7.19999998,19.5313709 7.19999998,19.2 C7.19999998,18.8686292 7.46862913,18.6 7.79999998,18.6 Z" fill="#000000"></path>
    </g>
</svg>