<?xml version="1.0" encoding="UTF-8"?>
<svg width="24px" height="24px" viewBox="0 0 24 24" version="1.1" xmlns="http://www.w3.org/2000/svg" xmlns:xlink="http://www.w3.org/1999/xlink">
    <title>icons/functional_UI/E-M/mdpi/ic_File_invoices_Euro</title>
    <g id="icons/functional_UI/E-M/ic_File_invoices_Euro" stroke="none" stroke-width="1" fill="none" fill-rule="evenodd">
        <path d="M13.8,3.59999996 L12.6,2.39999996 L4.19999997,2.39999996 L4.19999997,16.8 C4.19999997,17.4627417 4.73725827,18 5.39999997,18 L5.39999997,3.59999996 L13.8,3.59999996 Z M15.6,5.39999997 L14.4,4.19999997 L5.99999997,4.19999997 L5.99999997,18.6 C5.99999997,19.2627417 6.53725828,19.8 7.19999998,19.8 L7.19999998,5.39999997 L15.6,5.39999997 Z M15.24,8.99999997 L15.24,5.99999997 L7.79999998,5.99999997 L7.79999998,20.4 C7.79999998,21.0627417 8.33725828,21.6 8.99999999,21.6 L19.8,21.6 L19.8,10.56 L16.8,10.56 C15.9388415,10.5590213 15.2409787,9.86115847 15.24,8.99999997 Z M19.8,9.59999999 L16.8,9.59999999 C16.4686292,9.59999999 16.2,9.33137084 16.2,8.99999997 L16.2,5.99999997 L19.8,9.59999999 Z M10.448256,16.285512 L17.271744,16.285512 C17.4469924,16.2842833 17.6094568,16.3770725 17.6974376,16.5286405 C17.7854184,16.6802085 17.7854184,16.8673035 17.6974376,17.0188715 C17.6094568,17.1704396 17.4469924,17.2632287 17.271744,17.262 L10.448256,17.262 C10.2730077,17.2632287 10.1105432,17.1704396 10.0225624,17.0188715 C9.93458164,16.8673035 9.93458164,16.6802085 10.0225624,16.5286405 C10.1105432,16.3770725 10.2730077,16.2842833 10.448256,16.285512 Z M10.448256,13.892256 L17.271744,13.892256 C17.4469924,13.8910273 17.6094568,13.9838164 17.6974376,14.1353845 C17.7854184,14.2869525 17.7854184,14.4740475 17.6974376,14.6256155 C17.6094568,14.7771836 17.4469924,14.8699727 17.271744,14.868744 L10.448256,14.868744 C10.2730077,14.8699727 10.1105432,14.7771836 10.0225624,14.6256155 C9.93458164,14.4740475 9.93458164,14.2869525 10.0225624,14.1353845 C10.1105432,13.9838164 10.2730077,13.8910273 10.448256,13.892256 Z M10.448256,18.679512 L13.859256,18.679512 C14.1275699,18.6813932 14.3440889,18.8994356 14.3440889,19.167756 C14.3440889,19.4360765 14.1275699,19.6541188 13.859256,19.656 L10.448256,19.656 C10.2730077,19.6572287 10.1105432,19.5644396 10.0225624,19.4128716 C9.93458164,19.2613035 9.93458164,19.0742086 10.0225624,18.9226405 C10.1105432,18.7710725 10.2730077,18.6782833 10.448256,18.679512 L10.448256,18.679512 Z M13.706064,11.497512 C13.399512,12.217272 12.867864,12.547464 11.9826,12.547464 C11.416896,12.547464 10.95228,12.392328 10.601592,12.050664 C10.276416,11.733864 10.07688,11.326128 9.97999199,10.842504 L9.68479199,10.842504 C9.47383199,10.842504 9.33592799,10.70016 9.33592799,10.493232 C9.33592799,10.283016 9.47068799,10.11708 9.68479199,10.11708 L9.92639999,10.11708 C9.92555999,10.036488 9.92639999,9.94199999 9.92639999,9.90213599 C9.92639999,9.84364799 9.92337599,9.82154399 9.92639999,9.71407199 L9.68486399,9.71407199 C9.47390399,9.71407199 9.33599999,9.54501599 9.33599999,9.33791999 C9.33599999,9.13082399 9.47390399,8.93491199 9.68486399,8.93491199 L10.006896,8.93491199 C10.117152,8.42440799 10.326096,7.97608798 10.6512,7.66463998 C10.999968,7.33046398 11.460456,7.17599998 11.9826,7.17599998 C12.837816,7.17599998 13.39344,7.52140798 13.681464,8.22835198 C13.7105035,8.28970874 13.725054,8.35691846 13.723992,8.42479199 C13.723992,8.58765599 13.626288,8.72817599 13.45596,8.79899999 L13.449696,8.81414399 L13.443024,8.81414399 C13.39428,8.84099999 13.33008,8.83022399 13.267968,8.83022399 C13.103304,8.83022399 12.970848,8.71941599 12.904368,8.55940799 C12.720912,8.11795198 12.479568,7.95091198 11.9826,7.95091198 C11.407728,7.95091198 10.995168,8.26334398 10.812,8.93505599 L12.63684,8.93505599 C12.850992,8.93505599 12.977088,9.12559199 12.977088,9.33160799 C12.977088,9.54266399 12.847872,9.71421599 12.63684,9.71421599 L10.704648,9.71421599 C10.701528,9.82168799 10.704648,9.83959199 10.704648,9.90227999 C10.704648,9.94031999 10.703688,10.03668 10.704648,10.117224 L12.314808,10.117224 C12.532152,10.117224 12.647688,10.280112 12.647688,10.493376 C12.647688,10.697184 12.5226,10.842648 12.314808,10.842648 L10.785144,10.842648 C10.94988,11.48748 11.373552,11.767896 11.9826,11.767896 C12.508704,11.767896 12.739512,11.598768 12.89748,11.204928 L12.898032,11.20344 L12.89868,11.201976 C12.974208,11.026632 13.10988,10.93008 13.28064,10.93008 C13.3292836,10.9307787 13.3775508,10.9387303 13.423848,10.953672 C13.608984,11.004072 13.7429592,11.165568 13.7429592,11.332872 C13.7436739,11.3898786 13.7310483,11.4462665 13.706064,11.497512 L13.706064,11.497512 Z" fill="#000000"></path>
    </g>
</svg>