<?xml version="1.0" encoding="UTF-8"?>
<svg width="24px" height="24px" viewBox="0 0 24 24" version="1.1" xmlns="http://www.w3.org/2000/svg" xmlns:xlink="http://www.w3.org/1999/xlink">
    <title>icons/functional_UI/E-M/mdpi/ic_Folder_camera</title>
    <g id="icons/functional_UI/E-M/ic_Folder_camera" stroke="none" stroke-width="1" fill="none" fill-rule="evenodd">
        <path d="M20.1,6.59999998 L10.8,6.59999998 L8.99999999,4.19999997 L2.39999996,4.19999997 L2.39999996,18.3 C2.39999996,19.1284272 3.07157284,19.8 3.89999996,19.8 L21.6,19.8 L21.6,8.09999998 C21.6,7.27157286 20.9284272,6.59999998 20.1,6.59999998 Z M17.4,16.8 L7.22443198,16.8 C6.87956771,16.8 6.59999998,16.5204323 6.59999998,16.175568 L6.59999998,9.59999999 L7.79999998,9.59999999 L7.79999998,9.18033599 C7.79999998,8.92168116 8.00968115,8.71199999 8.26833598,8.71199999 L9.13166399,8.71199999 C9.39031882,8.71199999 9.59999998,8.92168116 9.59999998,9.18033599 L9.59999998,9.59999999 L16.775568,9.59999999 C17.1204323,9.59999999 17.4,9.87956772 17.4,10.224432 L17.4,16.8 Z M9.59999999,11.087784 C9.59999999,11.2602106 9.46021064,11.3999867 9.28778399,11.4 L8.11221598,11.4 C7.93978934,11.3999867 7.79999998,11.2602106 7.79999998,11.087784 L7.79999998,10.799784 C7.79999998,10.7169792 7.83289407,10.6375658 7.89144593,10.5790139 C7.94999779,10.5204621 8.02941115,10.487568 8.11221598,10.487568 L9.28778399,10.487568 C9.46020675,10.487568 9.59999999,10.6273372 9.59999999,10.79976 L9.59999999,11.08776 L9.59999999,11.087784 Z M15,13.2 C15,14.5254834 13.9254834,15.6 12.6,15.6 C11.2745166,15.6 10.2,14.5254834 10.2,13.2 C10.2,11.8745166 11.2745166,10.8 12.6,10.8 C13.9254834,10.8 15,11.8745166 15,13.2 Z" fill="#000000"></path>
    </g>
</svg>