<?xml version="1.0" encoding="UTF-8"?>
<svg width="24px" height="24px" viewBox="0 0 24 24" version="1.1" xmlns="http://www.w3.org/2000/svg" xmlns:xlink="http://www.w3.org/1999/xlink">
    <title>icons/functional_UI/E-M/mdpi/ic_Face_recognition</title>
    <g id="icons/functional_UI/E-M/ic_Face_recognition" stroke="none" stroke-width="1" fill="none" fill-rule="evenodd">
        <path d="M7.77599998,8.99999999 C7.11325828,8.99999999 6.57599998,9.53725829 6.57599998,10.2 C6.57599998,10.8627417 7.11325828,11.4 7.77599998,11.4 C8.43874168,11.4 8.97599999,10.8627417 8.97599999,10.2 C8.97599999,9.53725829 8.43874168,8.99999999 7.77599998,8.99999999 Z M16.176,8.99999999 C15.5132583,8.99999999 14.976,9.53725829 14.976,10.2 C14.976,10.8627417 15.5132583,11.4 16.176,11.4 C16.8387417,11.4 17.376,10.8627417 17.376,10.2 C17.376,9.53725829 16.8387417,8.99999999 16.176,8.99999999 Z M15,15.3 C14.9985501,14.8035455 14.5964545,14.4014499 14.1,14.4 L9.89999999,14.4 C9.40354552,14.4014499 9.00144988,14.8035455 8.99999999,15.3 L8.99999999,15.3 L8.99999999,15.6 C8.99999999,16.262736 10.343136,16.8 12,16.8 C13.656864,16.8 15,16.262736 15,15.6 L15,15.3 L15,15.3 Z M19.8,18.6 C19.7980625,19.2619375 19.2619375,19.7980625 18.6,19.8 L17.4,19.8 C17.0686292,19.8 16.8,20.0686292 16.8,20.4 L16.8,20.4 C16.8,20.7313709 17.0686292,21 17.4,21 L18.609936,21 C19.924464,21 21,19.924464 21,18.609936 L21,17.4 C21,17.0686292 20.7313709,16.8 20.4,16.8 L20.4,16.8 C20.0686292,16.8 19.8,17.0686292 19.8,17.4 L19.8,18.6 Z M18.6,4.19999997 C19.2619375,4.20193753 19.7980625,4.7380625 19.8,5.39999997 L19.8,6.59999998 C19.8,6.93137083 20.0686292,7.19999998 20.4,7.19999998 L20.4,7.19999998 C20.7313709,7.19999998 21,6.93137083 21,6.59999998 L21,5.39006397 C21,4.07553597 19.924464,2.99999996 18.609936,2.99999996 L17.4,2.99999996 C17.0686292,2.99999996 16.8,3.26862911 16.8,3.59999997 L16.8,3.59999997 C16.8,3.93137082 17.0686292,4.19999997 17.4,4.19999997 L18.6,4.19999997 Z M5.39999997,19.8 C4.7380625,19.7980625 4.20193753,19.2619375 4.19999997,18.6 L4.19999997,17.4 C4.19999997,17.0686292 3.93137082,16.8 3.59999996,16.8 L3.59999996,16.8 C3.26862911,16.8 2.99999996,17.0686292 2.99999996,17.4 L2.99999996,18.609936 C2.99999996,19.924464 4.07553597,21 5.39006397,21 L6.59999998,21 C6.93137083,21 7.19999998,20.7313709 7.19999998,20.4 L7.19999998,20.4 C7.19999998,20.0686292 6.93137083,19.8 6.59999998,19.8 L5.39999997,19.8 Z M4.19999997,5.39999997 C4.20193753,4.7380625 4.7380625,4.20193753 5.39999997,4.19999997 L6.59999998,4.19999997 C6.93137083,4.19999997 7.19999998,3.93137082 7.19999998,3.59999996 L7.19999998,3.59999996 C7.19999998,3.26862911 6.93137083,2.99999996 6.59999998,2.99999996 L5.39006397,2.99999996 C4.07553597,2.99999996 2.99999996,4.07553597 2.99999996,5.39006397 L2.99999996,6.59999998 C2.99999996,6.93137083 3.26862911,7.19999998 3.59999997,7.19999998 L3.59999997,7.19999998 C3.93137082,7.19999998 4.19999997,6.93137083 4.19999997,6.59999998 L4.19999997,5.39999997 Z" fill="#000000"></path>
    </g>
</svg>