<svg width="24" height="24"><path fill-rule="evenodd" d="M12 20.889A8.889 8.889 0 1 0 12 3.11a8.889 8.889 0 0 0 0 17.778M12 22c5.523 0 10-4.477 10-10S17.523 2 12 2 2 6.477 2 12s4.477 10 10 10m-.649-11.914a.555.555 0 0 1-.767.156h-.002c-.558-.342-1.272-.464-1.915-.464-.644 0-1.357.122-1.916.463h.001a.556.556 0 1 1-.614-.926c.735-.482 1.663-.648 2.529-.648s1.793.166 2.528.648a.56.56 0 0 1 .156.77m-3.403 3.188a.555.555 0 1 0-.784.787c1.243 1.22 3.13 1.828 4.836 1.828 1.694 0 3.608-.605 4.837-1.83a.556.556 0 0 0-.785-.786c-1.046 1.002-2.631 1.505-4.052 1.505-1.423 0-3.004-.504-4.052-1.504m10.07-3.188a.556.556 0 0 1-.768.156c-.558-.354-1.267-.464-1.917-.464-.643 0-1.357.122-1.916.463h.002c-.255.17-.6.1-.77-.155a.565.565 0 0 1 .157-.773c.731-.47 1.673-.646 2.527-.646.874 0 1.79.157 2.53.649.256.17.325.515.155.77" clip-rule="evenodd"/></svg>