<svg width="24" height="24">
<path fill-rule="evenodd" clip-rule="evenodd" d="M11.2556 9.76865C11.0613 10.0856 10.6684 10.1721 10.3763 9.96307L10.375 9.96219C9.73491 9.53714 8.91755 9.38462 8.18015 9.38462C7.44276 9.38462 6.62539 9.53713 5.98527 9.96219L5.98696 9.96094C5.69452 10.1727 5.29962 10.0866 5.10473 9.76865C4.9118 9.45386 4.99358 9.01638 5.28302 8.8073C6.12543 8.20685 7.1881 8 8.18015 8C9.17218 8 10.2349 8.20685 11.0773 8.8073C11.3669 9.01659 11.4487 9.45355 11.2556 9.76865ZM7.35721 13.7412C7.10866 13.4709 6.70567 13.4709 6.45712 13.7412C6.21133 14.0086 6.21274 14.4558 6.45894 14.7223C7.88218 16.2434 10.0436 17 11.9989 17C13.9392 17 16.1326 16.2465 17.5406 14.7203C17.7892 14.4499 17.7892 14.0116 17.5406 13.7412C17.2922 13.471 16.8895 13.4707 16.641 13.7407C15.443 14.9894 13.6265 15.6154 11.9989 15.6154C10.3691 15.6154 8.55801 14.9882 7.35721 13.7412ZM18.893 9.76865C18.6988 10.0856 18.3059 10.1721 18.0138 9.96307C17.3747 9.52184 16.5617 9.38462 15.8176 9.38462C15.0802 9.38462 14.2629 9.53713 13.6227 9.96219L13.6244 9.96094C13.332 10.1727 12.9371 10.0866 12.7422 9.76865C12.5504 9.45576 12.6346 9.01256 12.9226 8.80577C13.76 8.21976 14.8384 8 15.8176 8C16.8187 8 17.869 8.19605 18.7165 8.80858C19.009 9.02067 19.088 9.45051 18.893 9.76865Z"/>
</svg>
