<?xml version="1.0" encoding="UTF-8"?>
<svg width="24px" height="24px" viewBox="0 0 24 24" version="1.1" xmlns="http://www.w3.org/2000/svg" xmlns:xlink="http://www.w3.org/1999/xlink">
    <title>icons/functional_UI/E-M/mdpi/ic_Folder_move</title>
    <g id="icons/functional_UI/E-M/ic_Folder_move" stroke="none" stroke-width="1" fill="none" fill-rule="evenodd">
        <path d="M20.1,6.59999998 L10.8,6.59999998 L8.99999999,4.19999997 L2.39999996,4.19999997 L2.39999996,10.2 L5.39999996,10.2 L5.39999996,8.99999999 C5.39999996,8.75826155 5.54507152,8.54013384 5.76800895,8.44666526 C5.99094638,8.35319668 6.24820148,8.40264534 6.42059998,8.57210399 L9.76005599,11.854392 C9.76379999,11.858064 9.76747199,11.861784 9.77111999,11.865552 C10.0338675,12.1304951 10.1867126,12.4849932 10.198992,12.857928 C10.199712,12.869928 10.200072,12.881928 10.200072,12.893928 C10.200072,12.896976 10.200072,12.9 10.200072,12.903048 L10.200072,12.905952 C10.200072,12.917232 10.19976,12.928432 10.199136,12.939552 C10.1874365,13.3133694 10.0344926,13.6688606 9.77111999,13.9344 C9.76750399,13.938144 9.76381599,13.941856 9.76005599,13.945536 L6.42059998,17.227896 C6.24820148,17.3973547 5.99094638,17.4468033 5.76800895,17.3533347 C5.54507152,17.2598662 5.39999996,17.0417385 5.39999996,16.8 L5.39999996,15.6 L2.39999996,15.6 L2.39999996,18.3 C2.39999996,19.1284272 3.07157284,19.8 3.89999996,19.8 L21.6,19.8 L21.6,8.09999998 C21.6,7.27157286 20.9284272,6.59999998 20.1,6.59999998 Z M9.59999999,12.893976 L9.59968799,12.893976 C9.59606454,12.663948 9.50266645,12.4444487 9.33943199,12.282336 L9.33943199,12.282336 L5.99999997,8.99999999 L5.99999997,10.8 L2.09999996,10.8 L2.09999996,10.8 L2.09889596,10.8 C1.8603475,10.8001463 1.63162751,10.8950497 1.4630518,11.0638325 C1.29447609,11.2326152 1.19985351,11.4614515 1.19999979,11.7 L1.19999979,14.1 C1.19985351,14.3385485 1.29447609,14.5673848 1.4630518,14.7361675 C1.63162751,14.9049503 1.8603475,14.9998537 2.09889596,15 L5.99999997,15 L5.99999997,16.8 L9.33947999,13.517664 L9.33947999,13.517664 C9.50271015,13.3555484 9.59610746,13.1360509 9.59973599,12.906024 L9.59999999,12.906024 C9.59999999,12.904008 9.59985599,12.902016 9.59985599,12.9 C9.59985599,12.897984 9.59999999,12.895992 9.59999999,12.893976 Z" fill="#000000"></path>
    </g>
</svg>