<?xml version="1.0" encoding="UTF-8"?>
<svg width="24px" height="24px" viewBox="0 0 24 24" version="1.1" xmlns="http://www.w3.org/2000/svg" xmlns:xlink="http://www.w3.org/1999/xlink">
    <title>icons/functional_UI/E-M/mdpi/ic_File_document_compose</title>
    <g id="icons/functional_UI/E-M/ic_File_document_compose" stroke="none" stroke-width="1" fill="none" fill-rule="evenodd">
        <path d="M7.79999998,8.99999999 C8.43167999,8.99716799 8.96829599,8.99999999 9.59999999,8.99999999 L12,8.99999999 C13.391352,8.99999999 14.808624,8.99932799 16.2,8.99999999 C16.454808,8.99999999 16.648368,9.09897599 16.741176,9.31372799 C16.836432,9.53414399 16.824048,9.74162399 16.682712,9.93568799 C16.570248,10.090152 16.414416,10.188552 16.224,10.2 C16.20408,10.2012 16.171992,10.2 16.152,10.2 L7.79999998,10.2 C7.64034115,10.2017463 7.48671209,10.1390931 7.37380949,10.0261905 C7.2609069,9.91328788 7.19825371,9.75965882 7.19996443,9.59999999 C7.19996443,9.24479999 7.43519998,9.00165599 7.79999998,8.99999999 Z M16.2,12.6 L12,12.6 C10.608648,12.6 9.19135199,12.60096 7.79999998,12.6 C7.43217598,12.599736 7.19999998,12.352464 7.19999998,12 C7.19999998,11.694432 7.49423998,11.419392 7.79999998,11.4 C7.82399998,11.398488 7.82399998,11.4 7.84799998,11.4 C10.626696,11.4 13.421304,11.39952 16.2,11.4 C16.531026,11.400831 16.799169,11.668974 16.8,12 C16.8,12.350664 16.553736,12.6 16.2,12.6 Z M7.31855998,14.039304 C7.43092798,13.884792 7.60951198,13.8108 7.79999998,13.8 C7.80798536,13.799316 7.8160146,13.799316 7.82399998,13.8 C10.590696,13.8 13.385304,13.799736 16.152,13.8 C16.2643784,13.797478 16.3758103,13.8210558 16.477536,13.86888 L15.336,15 L12,15 C10.608648,15 9.19135199,15.000768 7.79999998,15 C7.55051998,14.999856 7.37839198,14.894688 7.26429598,14.671632 C7.15235998,14.4528 7.17460798,14.237232 7.31855998,14.039304 Z M10.163424,17.37912 C9.77179199,17.380008 9.38015999,17.379336 8.98852799,17.379336 C8.60488799,17.379336 8.22124798,17.380008 7.83760798,17.37912 C7.46951998,17.37828 7.19827198,17.123136 7.19692282,16.778352 C7.19555998,16.432752 7.46613598,16.172352 7.83175198,16.171848 C8.61095199,16.170712 9.39021599,16.170712 10.169544,16.171848 C10.534872,16.172328 10.805328,16.432632 10.8040128,16.778544 C10.802712,17.123352 10.531656,17.3784 10.163424,17.37912 Z M16.0608,6.59999998 L19.8,6.59999998 L15,1.79999996 L15,5.39999997 C15,6.06271198 15.471912,6.59999998 16.0608,6.59999998 Z M22.6561707,12.38328 C22.6487914,12.1542697 22.5541093,11.9367258 22.391424,11.775384 L21.358752,10.742184 L20.934816,10.318032 L20.51076,10.742064 L19.8,11.448 L19.8,7.79999996 L16.193952,7.79999996 C15.558103,7.7996253 14.9484927,7.54645528 14.4994471,7.09627515 C14.0504014,6.64609502 13.7987703,6.03584795 13.8,5.39999997 L13.8,1.79999996 L4.19978397,1.79999996 L4.19978397,20.994576 L4.19999997,20.994576 C4.19999997,20.996424 4.19978397,20.998176 4.19978397,21 C4.19978397,21.6625772 4.73670281,22.2 5.39927997,22.2 L19.8,22.2 L19.8,15.624 L22.382184,13.0416 C22.391184,13.033152 22.400088,13.02432 22.409016,13.015032 C22.5733498,12.8464994 22.6623947,12.6185793 22.655832,12.38328 L22.6561707,12.38328 Z M20.631888,13.939416 C20.6285188,13.943441 20.6247915,13.9471522 20.620752,13.950504 C18.969192,15.60312 15.501552,19.072536 14.431728,20.142936 L11.800632,21.502344 L13.194816,18.905544 L19.578288,12.52704 L20.620248,13.541592 C20.6736515,13.5940911 20.7053945,13.6647293 20.709192,13.73952 C20.7127631,13.8141038 20.6846205,13.8867184 20.63172,13.939416 L20.631888,13.939416 Z M21.978744,12.597312 C21.9753731,12.6010207 21.9717741,12.6045155 21.967968,12.607776 L21.238776,13.3368 L20.001792,12.099192 L20.934528,11.166552 L21.966912,12.199464 C22.081704,12.3144 22.08684,12.489096 21.978576,12.597312 L21.978744,12.597312 Z" fill="#000000"></path>
    </g>
</svg>