<?xml version="1.0" encoding="UTF-8"?>
<svg width="24px" height="24px" viewBox="0 0 24 24" version="1.1" xmlns="http://www.w3.org/2000/svg" xmlns:xlink="http://www.w3.org/1999/xlink">
    <title>icons/functional_UI/E-M/mdpi/ic_File_draft_edit</title>
    <g id="icons/functional_UI/E-M/ic_File_draft_edit" stroke="none" stroke-width="1" fill="none" fill-rule="evenodd">
        <path d="M16.0608,6.59999998 L19.8,6.59999998 L15,1.79999996 L15,5.39999997 C15,6.06271198 15.471912,6.59999998 16.0608,6.59999998 Z M22.6561707,12.38328 C22.6487914,12.1542697 22.5541093,11.9367258 22.391424,11.775384 L21.358752,10.742184 L20.934816,10.318032 L20.51076,10.742064 L19.8,11.448 L19.8,7.79999996 L16.193952,7.79999996 C15.558103,7.7996253 14.9484927,7.54645528 14.4994471,7.09627515 C14.0504014,6.64609502 13.7987703,6.03584795 13.8,5.39999997 L13.8,1.79999996 L4.19978397,1.79999996 L4.19978397,20.994576 L4.19999997,20.994576 C4.19999997,20.996424 4.19978397,20.998176 4.19978397,21 C4.19978397,21.6625772 4.73670281,22.2 5.39927997,22.2 L19.8,22.2 L19.8,15.624 L22.382184,13.0416 C22.391184,13.033152 22.400088,13.02432 22.409016,13.015032 C22.5733498,12.8464994 22.6623947,12.6185793 22.655832,12.38328 L22.6561707,12.38328 Z M9.48052799,13.627704 C9.28372799,13.318944 8.94513599,12.206904 8.86595999,12.210168 C8.83912031,12.2124816 8.81491472,12.2272359 8.80055999,12.250032 C8.78347199,12.273048 6.90290398,15.350424 6.83755198,15.396432 L6.11342398,14.5536 C6.68133598,13.785048 7.99437598,11.694744 8.13035998,11.558712 C9.55115999,10.137216 10.011504,12.646872 10.13304,12.89328 C10.460976,12.33648 12.076032,9.06801599 12.276624,9.06767988 C12.566064,9.06717599 13.818192,10.851072 14.285424,11.403432 C14.428536,11.572632 14.966736,12.075 15.459024,12.074688 C16.487952,12.07404 18.369384,9.68229599 18.369384,9.68229599 C17.982552,10.405416 16.878216,12.842496 15.339576,13.014456 C14.62356,13.094496 14.235576,12.734664 13.998264,12.544512 C13.110264,11.832768 12.617808,10.51368 12.376968,10.51368 C12.324744,10.51368 12.316512,10.544016 12.299592,10.567032 C12.288672,10.581696 11.218416,13.365216 11.077704,13.571136 C10.760736,14.034624 9.95164799,14.367096 9.48052799,13.627704 Z M20.63172,13.939416 C20.6283508,13.943441 20.6246235,13.9471522 20.620584,13.950504 C18.969024,15.60312 15.501384,19.072536 14.43156,20.142936 L11.800632,21.502344 L13.194816,18.905544 L19.578288,12.52704 L20.620248,13.541592 C20.6736515,13.5940911 20.7053945,13.6647293 20.709192,13.73952 C20.7127631,13.8141038 20.6846205,13.8867184 20.63172,13.939416 L20.63172,13.939416 Z M21.978576,12.597312 C21.9752051,12.6010207 21.9716061,12.6045155 21.9678,12.607776 L21.238776,13.3368 L20.001792,12.099192 L20.934528,11.166552 L21.966912,12.199464 C22.081704,12.3144 22.08684,12.489096 21.978576,12.597312 L21.978576,12.597312 Z" fill="#000000"></path>
    </g>
</svg>