<?xml version="1.0" encoding="UTF-8"?>
<svg width="24px" height="24px" viewBox="0 0 24 24" version="1.1" xmlns="http://www.w3.org/2000/svg" xmlns:xlink="http://www.w3.org/1999/xlink">
    <title>icons/functional_UI/E-M/mdpi/ic_File_Share</title>
    <g id="icons/functional_UI/E-M/ic_File_Share" stroke="none" stroke-width="1" fill="none" fill-rule="evenodd">
        <path d="M16.2,7.79999996 C14.8745166,7.79999996 13.8,6.72548338 13.8,5.39999997 L13.8,1.79999996 L4.19999997,1.79999996 L4.19999997,20.994552 L4.19999997,20.994552 C4.19999997,20.996376 4.19999997,20.998176 4.19999997,21 C4.19999997,21.6627417 4.73725827,22.2 5.39999997,22.2 L19.8,22.2 L19.8,7.79999996 L16.2,7.79999996 Z M16.38828,13.389432 C16.6655876,13.3429557 16.9468441,13.4462168 17.1282,13.661088 L12.99756,14.31276 C12.9706327,14.1754589 12.9230439,14.0430341 12.856416,13.92 L16.38828,13.389432 Z M15.078336,12.800736 C15.35557,12.7542791 15.6367531,12.8574787 15.818112,13.072248 L12.592512,13.574064 C12.505281,13.4906551 12.4076123,13.418898 12.301944,13.360584 L12.104016,13.247472 L15.078336,12.800736 Z M18.167136,15.207408 L12.516,17.464464 C12.0800573,17.6315751 11.5927504,17.5990359 11.182896,17.375448 L7.44748798,15.18 L5.85429597,15.572832 C5.73876287,15.5920874 5.62060986,15.5595279 5.53124868,15.4838096 C5.4418875,15.4080914 5.39039996,15.2968867 5.39039996,15.17976 L5.39039996,12.391368 C5.39039996,12.1713378 5.56876973,11.9929674 5.78879997,11.9929674 L8.84159999,11.9929674 C9.01492401,11.9927823 9.18526471,12.0380652 9.33561599,12.124296 L9.33561599,12.124296 L12.123744,13.717728 L12.123744,13.717728 C12.6012361,13.9905456 12.7671576,14.5987919 12.49434,15.076284 C12.2215224,15.5537762 11.6132761,15.7196976 11.135784,15.44688 L11.135784,15.44688 L9.32911199,14.404248 C9.23352282,14.3564342 9.11723526,14.3926753 9.0657347,14.4863296 C9.01423414,14.579984 9.04591852,14.6975949 9.13749599,14.752704 L9.13749599,14.752704 L9.14147999,14.755104 C9.14308799,14.75604 9.14464799,14.757 9.14627999,14.757888 L10.914792,15.779184 C11.3264271,16.0249818 11.8354814,16.0420308 12.26264,15.8243257 C12.6897985,15.6066205 12.9751307,15.1847052 13.018128,14.7072 L17.842992,13.954008 C18.0129724,13.9255832 18.1872823,13.9658508 18.3275718,14.0659515 C18.4678613,14.1660522 18.5626373,14.3177853 18.591048,14.487768 L18.591048,14.487768 C18.6430073,14.7987373 18.4642681,15.1021436 18.167088,15.207432 L18.167136,15.207408 Z M15,1.79999996 L15,5.39999997 C15,6.06273598 15.4776,6.59999998 16.066632,6.59999998 L19.8,6.59999998 L15,1.79999996 Z" fill="#000000"></path>
    </g>
</svg>