<svg width="24" height="24">
<path fill-rule="evenodd" clip-rule="evenodd" d="M12 20.8889C16.9092 20.8889 20.8889 16.9092 20.8889 12C20.8889 7.0908 16.9092 3.11111 12 3.11111C7.0908 3.11111 3.11111 7.0908 3.11111 12C3.11111 16.9092 7.0908 20.8889 12 20.8889ZM12 22C17.5228 22 22 17.5228 22 12C22 6.47715 17.5228 2 12 2C6.47715 2 2 6.47715 2 12C2 17.5228 6.47715 22 12 22ZM11.3511 10.0859C11.1816 10.3403 10.8386 10.4097 10.5837 10.242L10.5825 10.2413C10.0238 9.90017 9.31033 9.77778 8.66668 9.77778C8.02302 9.77778 7.30956 9.90016 6.75081 10.2413L6.75228 10.2403C6.49702 10.4102 6.15232 10.3411 5.9822 10.0859C5.8138 9.83334 5.88518 9.48228 6.13783 9.3145C6.87316 8.83265 7.80073 8.66667 8.66668 8.66667C9.53259 8.66667 10.4602 8.83265 11.1955 9.3145C11.4483 9.48244 11.5197 9.83309 11.3511 10.0859ZM7.94835 13.2738C7.73139 13.0568 7.37964 13.0568 7.16268 13.2738C6.94813 13.4883 6.94937 13.8472 7.16427 14.0611C8.40658 15.2817 10.2933 15.8889 12 15.8889C13.6937 15.8889 15.6082 15.2842 16.8372 14.0595C17.0542 13.8425 17.0542 13.4908 16.8372 13.2738C16.6204 13.0569 16.2689 13.0567 16.0519 13.2734C15.0063 14.2755 13.4206 14.7777 12 14.7777C10.5774 14.7777 8.9965 14.2745 7.94835 13.2738ZM18.0177 10.0859C17.8482 10.3403 17.5052 10.4097 17.2502 10.242C16.6924 9.88789 15.9827 9.77778 15.3333 9.77778C14.6896 9.77778 13.9761 9.90016 13.4174 10.2413L13.4189 10.2403C13.1636 10.4102 12.8189 10.3411 12.6488 10.0859C12.4814 9.83486 12.5549 9.47921 12.8063 9.31327C13.5372 8.84301 14.4785 8.66667 15.3333 8.66667C16.2071 8.66667 17.1238 8.82399 17.8637 9.31553C18.1189 9.48572 18.1879 9.83065 18.0177 10.0859Z"/>
</svg>
