<?xml version="1.0" encoding="UTF-8"?>
<svg width="24px" height="24px" viewBox="0 0 24 24" version="1.1" xmlns="http://www.w3.org/2000/svg" xmlns:xlink="http://www.w3.org/1999/xlink">
    <title>icons/functional_UI/E-M/mdpi/ic_Folder_custom</title>
    <g id="icons/functional_UI/E-M/ic_Folder_custom" stroke="none" stroke-width="1" fill="none" fill-rule="evenodd">
        <path d="M20.1,6.59999998 L10.8,6.59999998 L8.99999999,4.19999997 L2.39999996,4.19999997 L2.39999996,18.3 C2.39999996,19.1284272 3.07157284,19.8 3.89999996,19.8 L21.6,19.8 L21.6,8.09999998 C21.6,7.27157286 20.9284272,6.59999998 20.1,6.59999998 Z M16.614408,9.05829599 L16.189608,8.63349599 C15.9546551,8.3999631 15.575225,8.3999631 15.340272,8.63349599 L14.490912,9.48287999 L15.75456,10.7466 C15.7602919,10.7523121 15.7695641,10.7523121 15.775296,10.7466 L16.614288,9.90758399 C16.8478223,9.67266963 16.8478759,9.29327634 16.614408,9.05829599 Z M14.0664,9.90767999 L8.54560799,15.428736 C8.31203998,15.6624 6.98399998,18.216 6.98399998,18.216 C6.98399998,18.216 9.58603199,16.936464 9.81959999,16.702872 L15.271752,11.250408 C15.309498,11.2124319 15.309498,11.1511041 15.271752,11.113128 L14.0664,9.90767999 Z" fill="#000000"></path>
    </g>
</svg>