<?xml version="1.0" encoding="UTF-8"?>
<svg width="24px" height="24px" viewBox="0 0 24 24" version="1.1" xmlns="http://www.w3.org/2000/svg" xmlns:xlink="http://www.w3.org/1999/xlink">
    <title>icons/functional_UI/E-M/mdpi/ic_Full_screen_view</title>
    <g id="icons/functional_UI/E-M/ic_Full_screen_view" stroke="none" stroke-width="1" fill="none" fill-rule="evenodd">
        <path d="M19.2,4.79999997 L19.2,18 C19.1992461,18.6624292 18.6624292,19.1992461 18,19.2 L4.79999997,19.2 L4.79999997,5.99999997 C4.80075385,5.33757079 5.33757079,4.80075385 5.99999997,4.79999997 L19.2,4.79999997 L19.2,4.79999997 Z M21,2.99999996 L5.99999996,2.99999996 C4.34314572,2.99999996 2.99999996,4.34314572 2.99999996,5.99999996 L2.99999996,21 L18,21 C19.6568543,21 21,19.6568543 21,18 L21,2.99999996 L21,2.99999996 Z M12.502392,12.6654 C12.9323728,13.095356 13.6294832,13.095356 14.059464,12.6654 L16.362432,10.362432 L18,12 L18,7.09091998 C18,6.4884215 17.5115785,5.99999997 16.90908,5.99999997 L12,5.99999997 L13.637568,7.63756798 L11.3346,9.94055999 C10.9046335,10.3705271 10.9046335,11.0676409 11.3346,11.497608 L12.502392,12.6654 Z" fill="#000000"></path>
    </g>
</svg>