<?xml version="1.0" encoding="UTF-8"?>
<svg width="24px" height="24px" viewBox="0 0 24 24" version="1.1" xmlns="http://www.w3.org/2000/svg" xmlns:xlink="http://www.w3.org/1999/xlink">
    <title>icons/functional_UI/E-M/mdpi/ic_Filter_effects</title>
    <g id="icons/functional_UI/E-M/ic_Filter_effects" stroke="none" stroke-width="1" fill="none" fill-rule="evenodd">
        <path d="M12,1.79999996 C6.36669598,1.79999996 1.79999996,6.36669598 1.79999996,12 C1.79999996,17.633304 6.36669598,22.2 12,22.2 C17.633304,22.2 22.2,17.633304 22.2,12 C22.2,6.36669598 17.633304,1.79999996 12,1.79999996 Z M12,4.46618397 L10.636488,3.10267196 C11.0877609,3.03418641 11.54356,2.9998649 12,2.99999957 L12,4.46618397 L12,4.46618397 Z M11.552208,20.988984 L3.01101596,12.447792 C3.00376796,12.299424 3.00009596,12.15016 2.99999986,12 C2.99999986,11.6043386 3.02573814,11.2090962 3.07723196,10.8168 L11.9999999,19.739712 L11.9999999,21 C11.849856,21 11.700592,20.996328 11.552208,20.988984 Z M3.37579196,9.41843999 C3.5014956,8.99789433 3.65801533,8.58718244 3.84407997,8.18963998 L12,16.345584 L12,18.042648 L3.37579196,9.41843999 Z M4.45043997,7.09895998 C4.67100478,6.75991161 4.91409601,6.43606257 5.17807197,6.12959998 L12,12.95148 L12,14.64852 L4.45043997,7.09895998 Z M6.01975198,5.27414397 C6.32123459,5.00583998 6.64034874,4.75802941 6.97495198,4.53237597 L12,9.55735199 L12,11.254416 L6.01975198,5.27414397 Z M8.05051198,3.91079997 C8.44169414,3.71941196 8.84633979,3.55686708 9.26121599,3.42446396 L12,6.16319998 L12,7.86026398 L8.05051198,3.91079997 Z M3.34607996,14.479896 L9.52010399,20.65392 C6.53661256,19.79575 4.20424999,17.4633874 3.34607996,14.479896 Z" fill="#000000"></path>
    </g>
</svg>