<?xml version="1.0" encoding="UTF-8"?>
<svg width="24px" height="24px" viewBox="0 0 24 24" version="1.1" xmlns="http://www.w3.org/2000/svg" xmlns:xlink="http://www.w3.org/1999/xlink">
    <title>icons/functional_UI/E-M/mdpi/ic_File_type_unknown</title>
    <g id="icons/functional_UI/E-M/ic_File_type_unknown" stroke="none" stroke-width="1" fill="none" fill-rule="evenodd">
        <path d="M15,1.79999996 L15,5.39999997 C15,6.06273598 15.4776,6.59999998 16.066656,6.59999998 L19.8,6.59999998 L15,1.79999996 Z M16.2,7.79999996 C14.8745166,7.79999996 13.8,6.72548338 13.8,5.39999997 L13.8,1.79999996 L4.19999997,1.79999996 L4.19999997,20.994552 L4.19999997,20.994552 C4.19999997,20.996376 4.19999997,20.998176 4.19999997,21 C4.19999997,21.6627417 4.73725827,22.2 5.39999997,22.2 L19.8,22.2 L19.8,7.79999996 L16.2,7.79999996 Z M12.70044,18.88632 C12.507331,19.0639651 12.2539338,19.1615939 11.991552,19.15944 C11.7245158,19.1630543 11.4657406,19.066894 11.265864,18.889776 C11.058968,18.710064 10.95556,18.458648 10.9556399,18.135528 C10.9556399,17.848744 11.055576,17.607568 11.255448,17.412 C11.45532,17.216432 11.700688,17.118592 11.991552,17.11848 C12.277872,17.11848 12.51872,17.21632 12.714096,17.412 C12.909472,17.60768 13.007136,17.848856 13.007136,18.135528 C13.007136,18.454072 12.904904,18.704336 12.70044,18.88632 Z M15.480984,11.55012 C15.480696,11.936136 15.402296,12.274584 15.245784,12.565464 C15.0987312,12.8436982 14.9102699,13.0979823 14.686848,13.319616 C14.471152,13.531232 14.083824,13.88736 13.524864,14.388 C13.3942876,14.5050204 13.2703201,14.6292122 13.153536,14.76 C13.0728411,14.8491918 13.0030686,14.947687 12.945696,15.0534 C12.901671,15.1384126 12.8662626,15.2276169 12.84,15.31968 C12.815136,15.408352 12.777648,15.564256 12.727536,15.787392 C12.641328,16.260544 12.371024,16.497192 11.916624,16.497192 C11.680224,16.497192 11.4814,16.419848 11.320152,16.26516 C11.158904,16.110472 11.07832,15.880704 11.0784,15.575856 C11.0784,15.193456 11.137448,14.862368 11.255544,14.582592 C11.3680969,14.3112751 11.5273024,14.0617692 11.725944,13.845384 C11.9765662,13.5807031 12.2404321,13.3288845 12.516528,13.090896 C12.807088,12.836256 13.017184,12.644016 13.146816,12.514176 C13.2755361,12.3856735 13.385658,12.2398056 13.473984,12.080808 C13.5623797,11.9222711 13.6081883,11.7435348 13.606944,11.562024 C13.606944,11.197944 13.471744,10.890744 13.201344,10.640424 C12.930944,10.390104 12.582288,10.264968 12.155376,10.265016 C11.655456,10.265016 11.287408,10.391304 11.051232,10.64388 C10.815056,10.896456 10.6152,11.268456 10.451664,11.75988 C10.297008,12.274152 10.003928,12.531304 9.57242399,12.531336 C9.3292584,12.5361819 9.09532679,12.4382434 8.92814399,12.2616 C8.75326399,12.081952 8.66577599,11.887552 8.66577599,11.6784 L8.66577599,11.676888 C8.66596799,11.245032 8.80453599,10.807432 9.08147999,10.364088 C9.35853599,9.92031199 9.76293599,9.55284799 10.29468,9.26169599 C10.82572,8.97063999 11.44532,8.82503999 12.15348,8.82489599 L12.15708,8.82489599 C12.81468,8.82511999 13.395608,8.94683199 13.899864,9.19003199 C14.40404,9.43358399 14.79364,9.76463999 15.068664,10.1832 C15.3386145,10.5863097 15.4822064,11.0607711 15.4810866,11.54592 L15.4810866,11.550216 L15.480984,11.55012 Z" fill="#000000"></path>
    </g>
</svg>