<?xml version="1.0" encoding="UTF-8"?>
<svg width="24px" height="24px" viewBox="0 0 24 24" version="1.1" xmlns="http://www.w3.org/2000/svg" xmlns:xlink="http://www.w3.org/1999/xlink">
    <title>icons/functional_UI/E-M/mdpi/ic_Folder_Micro_SD</title>
    <g id="icons/functional_UI/E-M/ic_Folder_Micro_SD" stroke="none" stroke-width="1" fill="none" fill-rule="evenodd">
        <path d="M20.1,6.59999998 L10.8,6.59999998 L8.99999999,4.19999997 L2.39999996,4.19999997 L2.39999996,18.3 C2.39999996,19.1284272 3.07157284,19.8 3.89999996,19.8 L21.6,19.8 L21.6,8.09999998 C21.6,7.27157286 20.9284272,6.59999998 20.1,6.59999998 Z M15.72,16.8 C15.72,17.4627417 15.1827417,18 14.52,18 L9.11999999,18 C8.45725829,18 7.91999998,17.4627417 7.91999998,16.8 L7.91999998,13.8 L8.87999999,12.84 L8.87999999,8.99999999 C8.87999999,8.66862914 9.14862914,8.39999999 9.47999999,8.39999999 L15.12,8.39999999 C15.4513709,8.39999999 15.72,8.66862914 15.72,8.99999999 L15.72,16.8 Z M10.608,11.4 L9.64799999,11.4 L9.64799999,9.35999999 L10.608,9.35999999 L10.608,11.4 Z M12.048,11.4 L11.088,11.4 L11.088,9.35999999 L12.048,9.35999999 L12.048,11.4 Z M13.488,11.4 L12.528,11.4 L12.528,9.35999999 L13.488,9.35999999 L13.488,11.4 Z M14.928,11.4 L13.968,11.4 L13.968,9.35999999 L14.928,9.35999999 L14.928,11.4 Z" fill="#000000"></path>
    </g>
</svg>