<?xml version="1.0" encoding="UTF-8"?>
<svg width="24px" height="24px" viewBox="0 0 24 24" version="1.1" xmlns="http://www.w3.org/2000/svg" xmlns:xlink="http://www.w3.org/1999/xlink">
    <title>icons/functional_UI/E-M/mdpi/ic_Forward_a_number</title>
    <g id="icons/functional_UI/E-M/ic_Forward_a_number" stroke="none" stroke-width="1" fill="none" fill-rule="evenodd">
        <path d="M13.969176,11.088 L13.285752,11.088 L13.512768,10.441704 C13.5412252,10.365974 13.5372902,10.2818743 13.5018861,10.2091324 C13.4664819,10.1363904 13.4027239,10.0814071 13.325568,10.05708 L13.325568,10.058232 C13.181568,10.001976 13.005648,10.082016 12.949368,10.237464 L12.648696,11.088 L11.964864,11.088 L12.191832,10.441704 C12.2202746,10.3659733 12.2163327,10.2818799 12.1809305,10.2091419 C12.1455282,10.1364039 12.0817795,10.081419 12.004632,10.05708 L12.004632,10.058232 C11.860632,10.001976 11.684808,10.082016 11.628504,10.237464 L11.327808,11.088 L10.435968,11.088 C10.2702826,11.088 10.135968,11.2223146 10.135968,11.388 C10.135968,11.5536854 10.2702826,11.688 10.435968,11.688 L11.11104,11.688 L10.884864,12.312 L9.98467199,12.312 C9.81898657,12.312 9.68467199,12.4463146 9.68467199,12.612 C9.68467199,12.7776854 9.81898657,12.912 9.98467199,12.912 L10.668,12.912 L10.4328,13.558992 C10.376496,13.714416 10.443456,13.884096 10.6116,13.940328 L10.6116,13.941168 C10.7556,13.997424 10.9398,13.917672 10.99608,13.762248 L11.305152,12.912 L11.988984,12.912 L11.753784,13.558992 C11.697504,13.714416 11.764536,13.884096 11.932656,13.940328 L11.932656,13.941168 C12.076656,13.997424 12.260784,13.917672 12.317088,13.762248 L12.62604,12.912 L13.51788,12.912 C13.6835654,12.912 13.81788,12.7776854 13.81788,12.612 C13.81788,12.4463146 13.6835654,12.312 13.51788,12.312 L12.842808,12.312 L13.068984,11.688 L13.969176,11.688 C14.1348614,11.688 14.269176,11.5536854 14.269176,11.388 C14.269176,11.2223146 14.1348614,11.088 13.969176,11.088 Z M12.205752,12.312 L11.52192,12.312 L11.748096,11.688 L12.432,11.688 L12.205752,12.312 Z M18.048,5.39999997 L18.72,5.39999997 L18.96,4.79999997 L18.264,4.79999997 L18.048,5.39999997 Z M21,1.79999996 L14.994888,1.79200796 L14.994888,4.19200797 L13.8,5.13599997 L15,5.99999998 L15,7.79999998 C15,8.22479998 15.230736,8.39999999 15.6,8.39999999 L21.6,8.39999999 L21.6,2.39999996 C21.6,2.19155996 21.32484,1.79999996 21,1.79999996 Z M20.496,4.79999997 L19.608,4.79999997 L19.368,5.39999997 L20.088,5.39999997 C20.2536,5.39999997 20.3976,5.52770397 20.397816,5.69318397 C20.3936106,5.8620242 20.2568732,5.99743755 20.088,5.99999998 L19.152,5.99999998 L18.8424,6.84652798 C18.785976,7.00233598 18.6216,7.05971998 18.4536,7.00334398 L18.4536,7.00372798 C18.3096,6.94735198 18.221376,6.79795198 18.2778,6.64216798 L18.504,5.99999998 L17.832,5.99999998 L17.519856,6.84652798 C17.463432,7.00233598 17.300664,7.05971998 17.132544,7.00334398 L17.132544,7.00372798 C16.988544,6.94735198 16.898808,6.79795198 16.955232,6.64216798 L17.184,5.99999998 L16.512,5.99999998 C16.346184,5.99999998 16.195824,5.85928797 16.195824,5.69359197 L16.195824,5.69279997 C16.195824,5.52719997 16.346184,5.39999997 16.512,5.39999997 L17.4,5.39999997 L17.64,4.79999997 L16.96032,4.79200797 C16.8807232,4.7920398 16.8043739,4.76045063 16.748068,4.70418972 C16.6917621,4.6479288 16.6601118,4.57160474 16.66008,4.49200797 C16.66008,4.32640797 16.802184,4.19999997 16.968,4.19999997 L17.856,4.19999997 L18.1632,3.31567196 C18.2203387,3.16090974 18.3916566,3.08125657 18.5468141,3.13731297 C18.7019716,3.19336937 18.7828194,3.36412671 18.727848,3.51967196 L18.504,4.19999997 L19.2,4.19999997 L19.487208,3.31567196 C19.5435411,3.15975536 19.7156034,3.07902694 19.87152,3.13535998 C20.0274366,3.19169302 20.1081651,3.36375536 20.051832,3.51967196 L19.8,4.19999997 L20.501928,4.19200797 C20.667744,4.19200797 20.802144,4.30240797 20.802144,4.46800797 C20.802144,4.63360797 20.661816,4.79999997 20.496,4.79999997 Z M16.8,19.8 L7.19999998,19.8 L7.19999998,3.59999996 L14.4,3.59999996 L14.4,1.79999996 L7.19999998,1.79999996 C6.53725828,1.79999996 5.99999997,2.33725826 5.99999997,2.99999996 L5.99999997,21 C5.99999997,21.6627417 6.53725828,22.2 7.19999998,22.2 L16.8,22.2 C17.4627417,22.2 18,21.6627417 18,21 L18,8.99999999 L16.8,8.99999999 L16.8,19.8 Z M11.10024,2.39999996 L12.901608,2.39999996 C13.0672934,2.39999996 13.201608,2.53431454 13.201608,2.69999996 C13.201608,2.86568539 13.0672934,2.99999996 12.901608,2.99999996 L11.10024,2.99999996 C10.9345546,2.99999996 10.80024,2.86568539 10.80024,2.69999996 C10.80024,2.53431454 10.9345546,2.39999996 11.10024,2.39999996 Z M12.000936,21.5992801 C11.6696246,21.5990282 11.4012242,21.3302877 11.401392,20.9989763 C11.4015599,20.6676648 11.6702324,20.3991964 12.0015439,20.3992802 C12.3328553,20.3993641 12.601392,20.6679686 12.601392,20.99928 C12.6012595,21.3307741 12.33243,21.5993994 12.000936,21.5992801 Z" fill="#000000"></path>
    </g>
</svg>