<?xml version="1.0" encoding="UTF-8"?>
<svg width="24px" height="24px" viewBox="0 0 24 24" version="1.1" xmlns="http://www.w3.org/2000/svg" xmlns:xlink="http://www.w3.org/1999/xlink">
    <title>icons/functional_UI/E-M/mdpi/ic_File_document</title>
    <g id="icons/functional_UI/E-M/ic_File_document" stroke="none" stroke-width="1" fill="none" fill-rule="evenodd">
        <path d="M15,1.79999996 L15,5.39999997 C15,6.06273598 15.4776,6.59999998 16.066656,6.59999998 L19.8,6.59999998 L15,1.79999996 Z M16.2,7.79999996 C14.8745166,7.79999996 13.8,6.72548338 13.8,5.39999997 L13.8,1.79999996 L4.19999997,1.79999996 L4.19999997,20.994552 L4.19999997,20.994552 C4.19999997,20.996376 4.19999997,20.998176 4.19999997,21 C4.19999997,21.6627417 4.73725827,22.2 5.39999997,22.2 L19.8,22.2 L19.8,7.79999996 L16.2,7.79999996 Z M7.79999998,8.99999999 L16.2,8.99999999 C16.5313709,8.99999999 16.8,9.26862914 16.8,9.59999999 C16.8,9.93137084 16.5313709,10.2 16.2,10.2 L7.79999998,10.2 C7.46862913,10.2 7.19999998,9.93137084 7.19999998,9.59999999 C7.19999998,9.26862914 7.46862913,8.99999999 7.79999998,8.99999999 Z M7.79999998,11.4 L16.2,11.4 C16.5313709,11.4 16.8,11.6686291 16.8,12 C16.8,12.3313709 16.5313709,12.6 16.2,12.6 L7.79999998,12.6 C7.46862913,12.6 7.19999998,12.3313709 7.19999998,12 C7.19999998,11.6686291 7.46862913,11.4 7.79999998,11.4 Z M7.79999998,13.8 L16.2,13.8 C16.5313709,13.8 16.8,14.0686292 16.8,14.4 C16.8,14.7313709 16.5313709,15 16.2,15 L7.79999998,15 C7.46862913,15 7.19999998,14.7313709 7.19999998,14.4 C7.19999998,14.0686292 7.46862913,13.8 7.79999998,13.8 Z M10.2,17.4 L7.79999998,17.4 C7.46862913,17.4 7.19999998,17.1313709 7.19999998,16.8 C7.19999998,16.4686292 7.46862913,16.2 7.79999998,16.2 L10.2,16.2 C10.5313708,16.2 10.8,16.4686292 10.8,16.8 C10.8,17.1313709 10.5313708,17.4 10.2,17.4 Z" fill="#000000"></path>
    </g>
</svg>