<?xml version="1.0" encoding="UTF-8"?>
<svg width="24px" height="24px" viewBox="0 0 24 24" version="1.1" xmlns="http://www.w3.org/2000/svg" xmlns:xlink="http://www.w3.org/1999/xlink">
    <title>icons/functional_UI/E-M/mdpi/ic_File_invoice_dollar</title>
    <g id="icons/functional_UI/E-M/ic_File_invoice_dollar" stroke="none" stroke-width="1" fill="none" fill-rule="evenodd">
        <path d="M15,1.79999996 L15,5.39999997 C15,6.06273598 15.4776,6.59999998 16.066656,6.59999998 L19.8,6.59999998 L15,1.79999996 Z M16.2,7.79999996 C14.8745166,7.79999996 13.8,6.72548338 13.8,5.39999997 L13.8,1.79999996 L4.19999997,1.79999996 L4.19999997,20.994552 L4.19999997,20.994552 C4.19999997,20.996376 4.19999997,20.998176 4.19999997,21 C4.19999997,21.6627417 4.73725827,22.2 5.39999997,22.2 L19.8,22.2 L19.8,7.79999996 L16.2,7.79999996 Z M7.79999998,15.6 L16.2,15.6 C16.5313709,15.6 16.8,15.8686292 16.8,16.2 C16.8,16.5313709 16.5313709,16.8 16.2,16.8 L7.79999998,16.8 C7.46862913,16.8 7.19999998,16.5313709 7.19999998,16.2 C7.19999998,15.8686292 7.46862913,15.6 7.79999998,15.6 Z M7.79999998,12.6 L16.2,12.6 C16.5313709,12.6 16.8,12.8686292 16.8,13.2 C16.8,13.5313709 16.5313709,13.8 16.2,13.8 L7.79999998,13.8 C7.46862913,13.8 7.19999998,13.5313709 7.19999998,13.2 C7.19999998,12.8686292 7.46862913,12.6 7.79999998,12.6 Z M7.79999998,18.6 L12,18.6 C12.3313709,18.6 12.6,18.8686292 12.6,19.2 C12.6,19.5313709 12.3313709,19.8 12,19.8 L7.79999998,19.8 C7.46862913,19.8 7.19999998,19.5313709 7.19999998,19.2 C7.19999998,18.8686292 7.46862913,18.6 7.79999998,18.6 Z M9.60911999,3.18179996 C9.61256004,3.06049795 9.57187502,2.9420671 9.49461599,2.84848796 C9.42091278,2.75868474 9.30965099,2.70824666 9.19353599,2.71199996 C9.07427236,2.70719872 8.95953159,2.75800843 8.88292799,2.84954396 C8.80538423,2.94261407 8.76431426,3.06069772 8.76736799,3.18179996 L8.76736799,3.68339997 C8.32071198,3.78074397 7.96451198,3.95427197 7.69876798,4.20398397 C7.58383703,4.31658703 7.48438222,4.44396635 7.40301598,4.58277597 C7.32289123,4.72024969 7.26189678,4.86801226 7.22171998,5.02197597 C7.18091839,5.17632165 7.16025095,5.33529636 7.16023198,5.49494397 C7.16062782,5.69307465 7.20061058,5.88912889 7.27783198,6.07159198 C7.35383456,6.25635009 7.46757302,6.42320573 7.61176798,6.56147998 C7.73860094,6.68602359 7.88885416,6.78420208 8.05384798,6.85034398 C8.21143198,6.91171998 8.44642399,6.98611998 8.75882399,7.07354398 C9.16165599,7.19066398 9.42810399,7.28307198 9.55816799,7.35076798 C9.74335199,7.44945598 9.83595199,7.59119998 9.83596799,7.77599998 C9.83596799,7.96507198 9.76247199,8.11179198 9.61547999,8.21615998 C9.46402656,8.32195157 9.28283491,8.37679827 9.09813599,8.37275998 C8.94547999,8.37275998 8.73415999,8.33255198 8.46417599,8.25213598 L8.00198398,8.09553598 C7.90683224,8.06491619 7.80718693,8.05061044 7.70726398,8.05322398 C7.55035198,8.05322398 7.41854398,8.12094398 7.31183998,8.25638398 C7.20853598,8.38223612 7.15197452,8.53996374 7.15175998,8.70278399 C7.15175998,9.00614399 7.37438398,9.24315999 7.81963198,9.41383199 C8.12486255,9.52351307 8.44379625,9.59045127 8.76736799,9.61274399 L8.76736799,10.114344 C8.76431426,10.2354462 8.80538423,10.3535299 8.88292799,10.4466 C8.95953159,10.5381355 9.07427236,10.5889452 9.19353599,10.584144 C9.32356799,10.584144 9.42534399,10.539 9.49886399,10.448712 C9.57394282,10.3537703 9.61300046,10.2353221 9.60911999,10.114344 L9.60911999,9.55994399 C10.127824,9.43863199 10.515824,9.23053599 10.77312,8.93565599 C11.062864,8.60554399 11.207784,8.19853598 11.207784,7.71463198 C11.207784,7.40423198 11.151592,7.14359198 11.039208,6.93271198 C10.9265845,6.72153395 10.7629616,6.54185643 10.563216,6.41001598 C10.358256,6.27241598 10.103856,6.15214398 9.80001599,6.04919998 C9.58374399,5.96879997 9.34062399,5.89119997 9.07065599,5.81639997 C8.91374399,5.77409597 8.78758399,5.71907997 8.69217599,5.65135197 C8.59676799,5.58362397 8.54906399,5.48275197 8.54906399,5.34873597 C8.56317599,5.20483197 8.63597599,5.09231997 8.76746399,5.01119997 C8.89515426,4.93115371 9.04292732,4.88896137 9.19363199,4.88951997 C9.35349439,4.89284821 9.51175176,4.92215062 9.66220799,4.97627997 C9.70038399,4.98759197 9.76046399,5.00628797 9.84244799,5.03236797 C9.92443199,5.05844797 9.99121599,5.07713597 10.0428,5.08843197 C10.09469,5.09976582 10.1476547,5.10544694 10.200768,5.10537597 C10.3684025,5.1079144 10.5298727,5.04222619 10.648128,4.92338397 C10.769699,4.8087133 10.8374154,4.64818533 10.834704,4.48108797 C10.834704,4.07479997 10.426208,3.80604797 9.60921599,3.67483197 L9.60921599,3.18179996 L9.60911999,3.18179996 Z" fill="#000000"></path>
    </g>
</svg>