<?xml version="1.0" encoding="UTF-8"?>
<svg width="24px" height="24px" viewBox="0 0 24 24" version="1.1" xmlns="http://www.w3.org/2000/svg" xmlns:xlink="http://www.w3.org/1999/xlink">
    <title>icons/functional_UI/E-M/mdpi/ic_File_invoice_electronic</title>
    <g id="icons/functional_UI/E-M/ic_File_invoice_electronic" stroke="none" stroke-width="1" fill="none" fill-rule="evenodd">
        <path d="M15,1.79999996 L15,5.39999997 C15,6.06273598 15.4776,6.59999998 16.066656,6.59999998 L19.8,6.59999998 L15,1.79999996 Z M16.2,7.79999996 C14.8745166,7.79999996 13.8,6.72548338 13.8,5.39999997 L13.8,1.79999996 L4.19999997,1.79999996 L4.19999997,20.994552 L4.19999997,20.994552 C4.19999997,20.996376 4.19999997,20.998176 4.19999997,21 C4.19999997,21.6627417 4.73725827,22.2 5.39999997,22.2 L19.8,22.2 L19.8,7.79999996 L16.2,7.79999996 Z M7.79999998,15.6 L16.2,15.6 C16.5313709,15.6 16.8,15.8686292 16.8,16.2 C16.8,16.5313709 16.5313709,16.8 16.2,16.8 L7.79999998,16.8 C7.46862913,16.8 7.19999998,16.5313709 7.19999998,16.2 C7.19999998,15.8686292 7.46862913,15.6 7.79999998,15.6 Z M7.79999998,12.6 L16.2,12.6 C16.5313709,12.6 16.8,12.8686292 16.8,13.2 C16.8,13.5313709 16.5313709,13.8 16.2,13.8 L7.79999998,13.8 C7.46862913,13.8 7.19999998,13.5313709 7.19999998,13.2 C7.19999998,12.8686292 7.46862913,12.6 7.79999998,12.6 Z M7.79999998,18.6 L12,18.6 C12.3313709,18.6 12.6,18.8686292 12.6,19.2 C12.6,19.5313709 12.3313709,19.8 12,19.8 L7.79999998,19.8 C7.46862913,19.8 7.19999998,19.5313709 7.19999998,19.2 C7.19999998,18.8686292 7.46862913,18.6 7.79999998,18.6 Z M11.619408,7.99919998 C11.850768,7.99919998 12.015976,7.94454398 12.115032,7.83523198 C12.214088,7.72591998 12.2636507,7.55193598 12.2636507,7.31327998 C12.265913,6.8749665 12.1540431,6.44360796 11.939016,6.06165598 C11.727934,5.67997844 11.4184008,5.36185934 11.04264,5.14041597 C10.6631299,4.91391856 10.2286396,4.7961526 9.78669599,4.79999997 C9.32499924,4.79602244 8.87138713,4.9212153 8.47708799,5.16143997 C8.08396927,5.39836114 7.7608393,5.73545525 7.54075198,6.13823998 C7.31401402,6.54668028 7.19663771,7.0067693 7.19999998,7.47391198 C7.19999998,8.19429598 7.38726398,8.78211199 7.76179198,9.23735999 C8.01682864,9.54776933 8.34143643,9.79369803 8.70928799,9.95519999 C9.08095774,10.1188769 9.48294739,10.2023954 9.88905599,10.20035 C10.52328,10.20035 11.085912,10.060312 11.576952,9.78031199 C11.979768,9.55039199 12.181184,9.29461599 12.1812,9.01298399 C12.1802925,8.90648444 12.1491203,8.80243844 12.09132,8.71298399 C12.0317647,8.61673115 11.9483268,8.53751805 11.849112,8.48303999 C11.7542221,8.42817841 11.6467165,8.39888727 11.537112,8.39803198 C11.4377684,8.40431344 11.3404319,8.4288428 11.249976,8.47039199 L10.820496,8.68490399 C10.5575271,8.81885189 10.2666856,8.88892288 9.97156799,8.88943199 C9.71619397,8.89143829 9.46747514,8.80803643 9.26493599,8.65247999 C9.07016799,8.51779199 8.92035999,8.29995198 8.81551199,7.99895998 L11.619408,7.99895998 L11.619408,7.99919998 Z M8.76547199,6.97363198 C8.97187199,6.34497598 9.30562399,6.03063998 9.76672799,6.03062398 C10.2894,6.03062398 10.63064,6.34495998 10.790448,6.97363198 L8.76547199,6.97363198 Z" fill="#000000"></path>
    </g>
</svg>