<?xml version="1.0" encoding="UTF-8"?>
<svg width="24px" height="24px" viewBox="0 0 24 24" version="1.1" xmlns="http://www.w3.org/2000/svg" xmlns:xlink="http://www.w3.org/1999/xlink">
    <title>icons/functional_UI/E-M/mdpi/ic_File_terms_and_conditions</title>
    <g id="icons/functional_UI/E-M/ic_File_terms_and_conditions" stroke="none" stroke-width="1" fill="none" fill-rule="evenodd">
        <path d="M15,1.79999996 L15,5.39999997 C15,6.06273598 15.4776,6.59999998 16.066656,6.59999998 L19.8,6.59999998 L15,1.79999996 Z M16.2,7.79999996 C14.8745166,7.79999996 13.8,6.72548338 13.8,5.39999997 L13.8,1.79999996 L4.19999997,1.79999996 L4.19999997,20.994552 L4.19999997,20.994552 C4.19999997,20.996376 4.19999997,20.998176 4.19999997,21 C4.19999997,21.6627417 4.73725827,22.2 5.39999997,22.2 L19.8,22.2 L19.8,7.79999996 L16.2,7.79999996 Z M7.79999998,8.99999999 L16.2,8.99999999 C16.5313709,8.99999999 16.8,9.26862914 16.8,9.59999999 C16.8,9.93137084 16.5313709,10.2 16.2,10.2 L7.79999998,10.2 C7.46862913,10.2 7.19999998,9.93137084 7.19999998,9.59999999 C7.19999998,9.26862914 7.46862913,8.99999999 7.79999998,8.99999999 Z M7.79999998,11.4 L16.2,11.4 C16.5313709,11.4 16.8,11.6686291 16.8,12 C16.8,12.3313709 16.5313709,12.6 16.2,12.6 L7.79999998,12.6 C7.46862913,12.6 7.19999998,12.3313709 7.19999998,12 C7.19999998,11.6686291 7.46862913,11.4 7.79999998,11.4 Z M7.79999998,13.8 L16.2,13.8 C16.5313709,13.8 16.8,14.0686292 16.8,14.4 C16.8,14.7313709 16.5313709,15 16.2,15 L7.79999998,15 C7.46862913,15 7.19999998,14.7313709 7.19999998,14.4 C7.19999998,14.0686292 7.46862913,13.8 7.79999998,13.8 Z M10.2,17.4 L7.79999998,17.4 C7.46862913,17.4 7.19999998,17.1313709 7.19999998,16.8 C7.19999998,16.4686292 7.46862913,16.2 7.79999998,16.2 L10.2,16.2 C10.5313708,16.2 10.8,16.4686292 10.8,16.8 C10.8,17.1313709 10.5313708,17.4 10.2,17.4 Z M17.73096,16.778856 L14.255112,20.810856 L14.255112,20.810856 C14.147061,20.9312736 13.9929042,21.0000671 13.831116,21.0000671 C13.6693278,21.0000671 13.5151711,20.9312736 13.40712,20.810856 L13.40712,20.810856 L11.669208,18.794856 L11.669208,18.794856 C11.5927506,18.7077452 11.5504065,18.5959046 11.55,18.48 C11.5507829,18.3441676 11.6084848,18.2148868 11.709072,18.1236 L11.926296,17.922 C12.1332063,17.7355571 12.444094,17.7245281 12.663696,17.89584 L12.663696,17.89584 L13.722408,18.984 L16.935432,16.09632 L16.935432,16.09632 C17.0387344,16.0075336 17.1706683,15.9591143 17.30688,15.9599881 C17.60688,15.9599881 17.849976,16.1856 17.849976,16.464 C17.8496005,16.5798671 17.807299,16.6916824 17.730888,16.778784 L17.73096,16.778856 Z" fill="#000000"></path>
    </g>
</svg>