<?xml version="1.0" encoding="UTF-8"?>
<svg width="24px" height="24px" viewBox="0 0 24 24" version="1.1" xmlns="http://www.w3.org/2000/svg" xmlns:xlink="http://www.w3.org/1999/xlink">
    <title>icons/functional_UI/E-M/mdpi/ic_File_Access</title>
    <g id="icons/functional_UI/E-M/ic_File_Access" stroke="none" stroke-width="1" fill="none" fill-rule="evenodd">
        <path d="M13.8,3.59999996 L12.6,2.39999996 L4.19999997,2.39999996 L4.19999997,16.8 C4.19999997,17.4627417 4.73725827,18 5.39999997,18 L5.39999997,3.59999996 L13.8,3.59999996 Z M15.6,5.39999997 L14.4,4.19999997 L5.99999997,4.19999997 L5.99999997,18.6 C5.99999997,19.2627417 6.53725828,19.8 7.19999998,19.8 L7.19999998,5.39999997 L15.6,5.39999997 Z M16.8,10.56 C15.9388415,10.5590213 15.2409787,9.86115847 15.24,8.99999997 L15.24,5.99999997 L7.79999998,5.99999997 L7.79999998,20.4 C7.79999998,21.0627417 8.33725828,21.6 8.99999999,21.6 L19.8,21.6 L19.8,10.56 L16.8,10.56 Z M16.634808,19.808352 C15.304584,20.778816 13.452624,20.468712 12.49836,19.115712 C12.45444,19.053456 12.4132,18.99012 12.37464,18.925704 C12.3510741,18.9019425 12.3295351,18.8762531 12.310248,18.848904 L9.69755999,15.144648 C9.50621176,14.8713825 9.56703422,14.4954703 9.83479199,14.296488 L9.83479199,14.296488 C9.96345393,14.2030855 10.1242362,14.1652662 10.2810439,14.1915204 C10.4378516,14.2177745 10.5775466,14.3059026 10.668768,14.43612 L11.871,16.140672 L11.871,16.140672 L11.975112,16.288272 C11.9994031,16.3229726 12.0373834,16.3456184 12.0794602,16.3504899 C12.1215369,16.3553613 12.1636869,16.3419925 12.195264,16.31376 C12.2528226,16.2597387 12.2613491,16.1713919 12.215184,16.10736 L12.211704,16.102416 L10.998648,14.38248 L10.214856,13.27128 C10.0235184,12.9980039 10.0843388,12.6220941 10.352088,12.423096 L10.352088,12.423096 C10.4807551,12.3297024 10.6415375,12.2918909 10.7983434,12.3181493 C10.9551493,12.3444077 11.0948421,12.4325362 11.186064,12.562752 L11.96988,13.673952 L12.797184,14.846928 L13.189128,15.402648 C13.2134191,15.4373486 13.2513994,15.4599944 13.2934762,15.4648658 C13.335553,15.4697373 13.3777029,15.4563684 13.40928,15.428136 C13.4668462,15.3741211 13.475383,15.2857737 13.429224,15.221736 L13.198704,14.894928 L12.212664,13.496904 L11.014488,11.811168 C10.8231556,11.5378857 10.8839868,11.1619748 11.151744,10.962984 C11.2804073,10.8695916 11.4411859,10.8317807 11.597988,10.8580392 C11.75479,10.8842977 11.8944786,10.9724257 11.985696,11.10264 L13.183896,12.788352 L14.322192,14.40228 L14.403144,14.517048 C14.4274351,14.5517486 14.4654154,14.5743944 14.5074922,14.5792658 C14.549569,14.5841373 14.5917189,14.5707684 14.623296,14.542536 C14.6808622,14.4885211 14.689399,14.4001737 14.64324,14.336136 L14.45556,14.070072 L13.426704,12.611304 L12.831144,11.771304 C12.6398142,11.4980293 12.7006459,11.1221261 12.9684,10.923144 L12.9684,10.923144 C13.0970237,10.8296731 13.2578047,10.7917908 13.4146282,10.8180063 C13.5714517,10.8442217 13.7111702,10.9323372 13.8024,11.06256 L16.256688,14.538024 C16.278779,14.5694512 16.3183554,14.5834316 16.3552848,14.5728533 C16.3922142,14.562275 16.4183866,14.529461 16.420488,14.491104 L16.455696,13.109112 L16.45584,13.109112 C16.45824,12.692304 16.790712,12.354768 17.20128,12.353976 C17.611848,12.353184 17.945592,12.689424 17.949624,13.106232 L17.949792,13.106232 L17.97312,16.971624 C18.00552,18.060336 17.527752,19.156944 16.634808,19.808352 Z M19.8,9.59999999 L16.8,9.59999999 C16.4686292,9.59999999 16.2,9.33137084 16.2,8.99999997 L16.2,5.99999997 L19.8,9.59999999 Z" fill="#000000"></path>
    </g>
</svg>