<?xml version="1.0" encoding="UTF-8"?>
<svg width="24px" height="24px" viewBox="0 0 24 24" version="1.1" xmlns="http://www.w3.org/2000/svg" xmlns:xlink="http://www.w3.org/1999/xlink">
    <title>icons/functional_UI/E-M/mdpi/ic_Fingerprint</title>
    <g id="icons/functional_UI/E-M/ic_Fingerprint" stroke="none" stroke-width="1" fill="none" fill-rule="evenodd">
        <path d="M12,10.8 C14.1563794,10.7965638 16.257859,11.4797296 18,12.750528 L18,12.018864 C14.3675857,9.59371012 9.63241429,9.59371012 5.99999998,12.018864 L5.99999998,12.750528 C7.74214099,11.4797296 9.84362061,10.7965638 12,10.8 L12,10.8 Z M12,12 C14.2144077,11.9968856 16.3516419,12.8133091 18,14.292 L18,13.505688 C14.4926568,10.6981074 9.50734318,10.6981074 5.99999998,13.505688 L5.99999998,14.292 C7.64835806,12.8133091 9.78559227,11.9968856 12,12 L12,12 Z M12,5.99999998 C13.9535445,5.99755825 15.8886441,6.37786452 17.695968,7.11943198 C17.6085775,6.85681805 17.5030103,6.60060666 17.380032,6.35265598 C13.9058037,5.08244698 10.0941963,5.08244698 6.61996798,6.35265598 C6.49698974,6.60060666 6.39142253,6.85681805 6.30403198,7.11943198 C8.11135594,6.37786452 10.0464555,5.99755825 12,5.99999998 L12,5.99999998 Z M12,19.2 C12.8894406,19.2000754 13.6455371,19.8496482 13.779648,20.72892 C13.9737184,20.6681004 14.1645446,20.5973756 14.351376,20.517024 C14.1218723,19.4009496 13.1394271,18.5999726 12,18.5999726 C10.8605729,18.5999726 9.87812768,19.4009496 9.64862399,20.517024 C9.83545538,20.5973756 10.0262816,20.6681004 10.220352,20.72892 C10.3544629,19.8496482 11.1105594,19.2000754 12,19.2 Z M12,8.39999998 C14.0953606,8.39679256 16.1581438,8.91853644 18,9.91759199 L18,9.23937599 C14.2302005,7.32020749 9.76979951,7.32020749 5.99999997,9.23937599 L5.99999997,9.91759199 C7.8418562,8.91853644 9.9046394,8.39679256 12,8.39999998 L12,8.39999998 Z M8.06767198,19.5222 C8.68368158,17.8844604 10.2502403,16.7999864 12,16.7999864 C13.7497597,16.7999864 15.3163184,17.8844604 15.932328,19.5222 C16.0949603,19.380372 16.2499314,19.2299915 16.396584,19.071696 C15.630737,17.3268391 13.9055308,16.1999905 12,16.1999905 C10.0944692,16.1999905 8.36926299,17.3268391 7.60341598,19.071696 C7.75006863,19.2299915 7.90503967,19.380372 8.06767198,19.5222 L8.06767198,19.5222 Z M12,7.19999998 C14.0716911,7.19702423 16.1172571,7.66238057 17.983776,8.56127999 C17.9663961,8.32440442 17.9348436,8.08878251 17.889288,7.85567998 C14.1415819,6.18143981 9.85841806,6.18143981 6.11071198,7.85567998 C6.06515644,8.08878251 6.03360395,8.32440442 6.01622398,8.56127999 C7.88274287,7.66238057 9.92830888,7.19702423 12,7.19999998 Z M12,13.2 C14.2803288,13.1976992 16.4469303,14.19565 17.92728,15.930144 C17.9693986,15.6619559 17.9931818,15.391208 17.998464,15.119784 C16.4186677,13.5081407 14.256801,12.6000032 12,12.6000032 C9.74319904,12.6000032 7.58133234,13.5081407 6.00153598,15.119784 C6.00681821,15.391208 6.03060136,15.6619559 6.07271998,15.930144 C7.55306969,14.19565 9.71967121,13.1976992 12,13.2 Z M12,20.4 C12.3196856,20.4000081 12.5832221,20.6506676 12.599232,20.969952 C12.7988756,20.9499258 12.9973775,20.9198073 13.193976,20.879712 C13.1324201,20.2664633 12.6163064,19.7995619 11.999976,19.7995619 C11.3836456,19.7995619 10.8675319,20.2664633 10.805976,20.879712 C11.0025745,20.9198073 11.2010764,20.9499258 11.40072,20.969952 C11.4167308,20.650649 11.6802958,20.3999825 12,20.4 Z M12,15.6 C14.0367093,15.59952 15.9004002,16.7451139 16.819632,18.562584 C16.9549354,18.3803723 17.0798615,18.1906795 17.193816,17.994408 C16.1207807,16.1411138 14.1415191,15.0000058 12,15.0000058 C9.85848088,15.0000058 7.87921929,16.1411138 6.80618398,17.994408 C6.9201385,18.1906795 7.04506461,18.3803723 7.18036798,18.562584 C8.09959977,16.7451139 9.96329072,15.59952 12,15.6 Z M12,14.4 C14.2189995,14.3986975 16.289835,15.5136296 17.5104,17.366784 C17.6073973,17.1426787 17.6905221,16.912821 17.759304,16.678512 C16.3993516,14.8663746 14.2658015,13.7999995 12.00012,13.7999995 C9.73443851,13.7999995 7.60088842,14.8663746 6.24093598,16.678512 C6.30963954,16.9128155 6.39268421,17.1426732 6.48959998,17.366784 C7.71016503,15.5136296 9.78100049,14.3986975 12,14.4 L12,14.4 Z M12,9.59999999 C14.1200128,9.59665301 16.1985613,10.1873183 18,11.305032 L18,10.56 C14.286422,8.41926368 9.71357799,8.41926368 5.99999998,10.56 L5.99999998,11.305152 C7.80142617,10.1873962 9.8799756,9.59668904 12,9.59999999 L12,9.59999999 Z M12,18 C13.3661462,18.0001286 14.5598332,18.9228598 14.90412,20.244912 C15.0859683,20.143524 15.2624519,20.0328002 15.432864,19.913184 C14.9586369,18.4167883 13.5697426,17.399975 12,17.399975 C10.4302574,17.399975 9.04136314,18.4167883 8.56713599,19.913184 C8.7375871,20.0328037 8.91411088,20.1435276 9.09599999,20.244912 C9.44027553,18.922903 10.6338984,18.0001832 12,18 L12,18 Z M15.115512,3.87839997 C14.1781215,3.30335195 13.0997185,2.99930265 12,2.99999877 L12,2.99999877 C10.9002815,2.99930265 9.82187848,3.30335195 8.88448799,3.87839997 C10.9449195,3.50729571 13.0550805,3.50729571 15.115512,3.87839997 L15.115512,3.87839997 Z M7.09439998,5.55638397 C10.2871317,4.54787166 13.7131083,4.54787166 16.90584,5.55638397 C16.6972581,5.26077426 16.4626772,4.98439512 16.204896,4.73054397 C13.4463249,4.02314427 10.5538671,4.02314427 7.79529598,4.73054397 C7.53753148,4.98439718 7.30296669,5.26077626 7.09439998,5.55638397 L7.09439998,5.55638397 Z M12,1.79999996 L12,1.79999996 C8.03999998,1.79999996 4.79999997,5.03999997 4.79999997,8.99999999 L4.79999997,15 C4.79999997,18.96 8.03999998,22.2 12,22.2 L12,22.2 C15.96,22.2 19.2,18.96 19.2,15 L19.2,8.99999999 C19.2,5.03999997 15.96,1.79999996 12,1.79999996 Z M18.6,15.200016 C18.6,18.72 15.63,21.6 12,21.6 L12,21.6 C8.36999998,21.6 5.39999997,18.72 5.39999997,15.200016 L5.39999997,8.79998399 C5.39999997,5.27999997 8.36999998,2.39999996 12,2.39999996 L12,2.39999996 C15.63,2.39999996 18.6,5.27999997 18.6,8.79998399 L18.6,15.200016 Z" fill="#000000"></path>
    </g>
</svg>