<?xml version="1.0" encoding="UTF-8"?>
<svg width="24px" height="24px" viewBox="0 0 24 24" version="1.1" xmlns="http://www.w3.org/2000/svg" xmlns:xlink="http://www.w3.org/1999/xlink">
    <title>icons/functional_UI/E-M/mdpi/ic_File_Copy</title>
    <g id="icons/functional_UI/E-M/ic_File_Copy" stroke="none" stroke-width="1" fill="none" fill-rule="evenodd">
        <path d="M15.6,5.39999997 L12.6,5.39999997 C12.2686292,5.39999997 12,5.13137082 12,4.79999996 L12,1.79999996 L15.6,5.39999997 Z M7.79999998,14.4 L5.99999997,14.4 C5.66862912,14.4 5.39999997,14.1313709 5.39999997,13.8 L5.39999997,13.8 C5.39999997,13.4686292 5.66862912,13.2 5.99999997,13.2 L7.79999998,13.2 L7.79999998,12 L5.99999997,12 C5.66862912,12 5.39999997,11.7313708 5.39999997,11.4 L5.39999997,11.4 C5.39999997,11.0686291 5.66862912,10.8 5.99999997,10.8 L7.79999998,10.8 L7.79999998,9.59999999 L5.99999997,9.59999999 C5.66862912,9.59999999 5.39999997,9.33137084 5.39999997,8.99999999 L5.39999997,8.99999999 C5.39999997,8.66862914 5.66862912,8.39999998 5.99999997,8.39999998 L7.79999998,8.39999998 L7.79999998,5.99999997 L11.258712,5.99999997 C10.9628389,5.67038796 10.7994378,5.24292736 10.8,4.79999996 L10.8,1.79999996 L3.59999996,1.79999996 L3.59999996,15.6 C3.59999996,16.5941126 4.40588742,17.4 5.39999997,17.4 L7.79999998,17.4 L7.79999998,14.4 Z M20.4,10.2 L17.4,10.2 C17.0686292,10.2 16.8,9.93137084 16.8,9.59999998 L16.8,6.59999998 L20.4,10.2 Z M17.4,11.4 C16.4058875,11.4 15.6,10.5941125 15.6,9.59999998 L15.6,6.59999998 L8.39999999,6.59999998 L8.39999999,20.4 C8.39999999,21.3941126 9.20588744,22.2 10.2,22.2 L20.4,22.2 L20.4,11.4 L17.4,11.4 Z M18.6,18.6 C18.6,18.9313709 18.3313709,19.2 18,19.2 L10.8,19.2 C10.4686291,19.2 10.2,18.9313709 10.2,18.6 L10.2,18.6 C10.2,18.2686292 10.4686291,18 10.8,18 L18,18 C18.3313709,18 18.6,18.2686292 18.6,18.6 L18.6,18.6 Z M18.6,16.2 C18.6,16.5313709 18.3313709,16.8 18,16.8 L10.8,16.8 C10.4686291,16.8 10.2,16.5313709 10.2,16.2 L10.2,16.2 C10.2,15.8686292 10.4686291,15.6 10.8,15.6 L18,15.6 C18.3313709,15.6 18.6,15.8686292 18.6,16.2 L18.6,16.2 Z M18.6,13.8 C18.6,14.1313709 18.3313709,14.4 18,14.4 L10.8,14.4 C10.4686291,14.4 10.2,14.1313709 10.2,13.8 L10.2,13.8 C10.2,13.4686292 10.4686291,13.2 10.8,13.2 L18,13.2 C18.3313709,13.2 18.6,13.4686292 18.6,13.8 L18.6,13.8 Z" fill="#000000"></path>
    </g>
</svg>