<?xml version="1.0" encoding="UTF-8"?>
<svg width="24px" height="24px" viewBox="0 0 24 24" version="1.1" xmlns="http://www.w3.org/2000/svg" xmlns:xlink="http://www.w3.org/1999/xlink">
    <title>icons/functional_UI/E-M/mdpi/ic_File_Powerpoint</title>
    <g id="icons/functional_UI/E-M/ic_File_Powerpoint" stroke="none" stroke-width="1" fill="none" fill-rule="evenodd">
        <path d="M15,1.79999996 L15,5.39999997 C15,6.06273598 15.4776,6.59999998 16.06668,6.59999998 L19.8,6.59999998 L15,1.79999996 Z M10.439424,11.880768 C9.50589508,11.1824228 8.20517027,11.2575493 7.35824991,12.0587285 C6.51132955,12.8599077 6.36417404,14.1544633 7.00966599,15.1252889 C7.65515793,16.0961145 8.90583527,16.4612655 9.97228694,15.9902633 C11.0387386,15.5192611 11.6112485,14.3488931 11.328456,13.21788 L8.99999999,13.8 L10.439424,11.880768 Z M16.2,7.79999996 C14.8745166,7.79999996 13.8,6.72548338 13.8,5.39999997 L13.8,1.79999996 L4.19999997,1.79999996 L4.19999997,21 C4.19999997,21.6627143 4.73728572,22.2 5.39999997,22.2 L19.8,22.2 L19.8,7.79999996 L16.2,7.79999996 Z M8.99999997,16.8 C7.34314573,16.8 5.99999997,15.4568543 5.99999997,13.8 C5.99999997,12.1431458 7.34314573,10.8 8.99999997,10.8 C10.6568542,10.8 12,12.1431458 12,13.8 C12,14.5956612 11.6839799,15.3587451 11.1213625,15.9213625 C10.5587451,16.48398 9.79566117,16.8 8.99999997,16.8 Z M18,16.8 L14.4,16.8 C14.0686292,16.8 13.8,16.5313709 13.8,16.2 C13.8,15.8686292 14.0686292,15.6 14.4,15.6 L18,15.6 C18.3313709,15.6 18.6,15.8686292 18.6,16.2 C18.6,16.5313709 18.3313709,16.8 18,16.8 Z M18,14.4 L14.4,14.4 C14.0686292,14.4 13.8,14.1313709 13.8,13.8 C13.8,13.4686292 14.0686292,13.2 14.4,13.2 L18,13.2 C18.3313709,13.2 18.6,13.4686292 18.6,13.8 C18.6,14.1313709 18.3313709,14.4 18,14.4 Z M18,12 L14.4,12 C14.0686292,12 13.8,11.7313708 13.8,11.4 C13.8,11.0686291 14.0686292,10.8 14.4,10.8 L18,10.8 C18.3313709,10.8 18.6,11.0686291 18.6,11.4 C18.6,11.7313708 18.3313709,12 18,12 Z" fill="#000000"></path>
    </g>
</svg>