<?xml version="1.0" encoding="UTF-8"?>
<svg width="24px" height="24px" viewBox="0 0 24 24" version="1.1" xmlns="http://www.w3.org/2000/svg" xmlns:xlink="http://www.w3.org/1999/xlink">
    <title>icons/functional_UI/E-M/mdpi/ic_File_Invoice_euro</title>
    <g id="icons/functional_UI/E-M/ic_File_Invoice_euro" stroke="none" stroke-width="1" fill="none" fill-rule="evenodd">
        <path d="M15,1.79999996 L15,5.39999997 C15,6.06273598 15.4776,6.59999998 16.066656,6.59999998 L19.8,6.59999998 L15,1.79999996 Z M16.2,7.79999996 C14.8745166,7.79999996 13.8,6.72548338 13.8,5.39999997 L13.8,1.79999996 L4.19999997,1.79999996 L4.19999997,20.994552 L4.19999997,20.994552 C4.19999997,20.996376 4.19999997,20.998176 4.19999997,21 C4.19999997,21.6627417 4.73725827,22.2 5.39999997,22.2 L19.8,22.2 L19.8,7.79999996 L16.2,7.79999996 Z M7.79999998,15.6 L16.2,15.6 C16.5313709,15.6 16.8,15.8686292 16.8,16.2 C16.8,16.5313709 16.5313709,16.8 16.2,16.8 L7.79999998,16.8 C7.46862913,16.8 7.19999998,16.5313709 7.19999998,16.2 C7.19999998,15.8686292 7.46862913,15.6 7.79999998,15.6 Z M7.79999998,12.6 L16.2,12.6 C16.5313709,12.6 16.8,12.8686292 16.8,13.2 C16.8,13.5313709 16.5313709,13.8 16.2,13.8 L7.79999998,13.8 C7.46862913,13.8 7.19999998,13.5313709 7.19999998,13.2 C7.19999998,12.8686292 7.46862913,12.6 7.79999998,12.6 Z M7.79999998,18.6 L12,18.6 C12.3313709,18.6 12.6,18.8686292 12.6,19.2 C12.6,19.5313709 12.3313709,19.8 12,19.8 L7.79999998,19.8 C7.46862913,19.8 7.19999998,19.5313709 7.19999998,19.2 C7.19999998,18.8686292 7.46862913,18.6 7.79999998,18.6 Z M11.810544,8.86173599 C11.43324,9.74608799 10.778904,10.15176 9.68937599,10.15176 C8.99311199,10.15176 8.42126399,9.96117599 7.98964798,9.54151199 C7.58944798,9.15232799 7.34385598,8.65127999 7.22469598,8.05706398 L6.86138398,8.05706398 C6.60172798,8.05706398 6.43199998,7.88215198 6.43199998,7.62791998 C6.43199998,7.36963198 6.59786398,7.16575198 6.86138398,7.16575198 L7.15864798,7.16575198 C7.15761598,7.06672798 7.15864798,6.95063998 7.15864798,6.90175198 C7.15864798,6.82989598 7.15492798,6.80272798 7.15864798,6.67067998 L6.86138398,6.67067998 C6.60172798,6.67067998 6.43199998,6.46295998 6.43199998,6.20851198 C6.43199998,5.95406397 6.60172798,5.71334397 6.86138398,5.71334397 L7.25759998,5.71334397 C7.39329598,5.08610397 7.65038398,4.53525597 8.05060798,4.15259997 C8.47996799,3.74179197 9.04672799,3.55199996 9.68937599,3.55199996 C10.74192,3.55199996 11.425776,3.97641597 11.780256,4.84499997 C11.8160012,4.92037189 11.8339197,5.00295953 11.832624,5.08636797 C11.832624,5.28647997 11.71236,5.45913597 11.50272,5.54615997 L11.494992,5.56475997 L11.486808,5.56475997 C11.426808,5.59775997 11.3478,5.58451197 11.271336,5.58451197 C11.06868,5.58451197 10.905672,5.44838397 10.823832,5.25175197 C10.598064,4.70935197 10.301016,4.50412797 9.68937599,4.50412797 C8.98183199,4.50412797 8.47406399,4.88800797 8.24860798,5.71331997 L10.494576,5.71331997 C10.758144,5.71331997 10.913352,5.94741597 10.913352,6.20051998 C10.913352,6.45983998 10.754304,6.67060798 10.494576,6.67060798 L8.11648798,6.67060798 C8.11264798,6.80260798 8.11648798,6.82466398 8.11648798,6.90167998 C8.11648798,6.94843198 8.11528798,7.06675198 8.11648798,7.16567998 L10.09824,7.16567998 C10.36572,7.16567998 10.507944,7.36581598 10.507944,7.62784798 C10.507944,7.87826398 10.353984,8.05699198 10.09824,8.05699198 L8.21555998,8.05699198 C8.41833599,8.84927999 8.93975999,9.19379999 9.68937599,9.19379999 C10.336848,9.19379999 10.620912,8.98600799 10.81536,8.50211999 L10.816032,8.50027199 L10.816848,8.49849599 C10.9098,8.28304798 11.076816,8.16441598 11.286936,8.16441598 C11.3468027,8.16526298 11.4062082,8.17503448 11.463192,8.19340798 C11.691048,8.25532798 11.8559429,8.45375999 11.8559429,8.65939199 C11.8568272,8.72946033 11.8412905,8.79876711 11.810544,8.86173599 L11.810544,8.86173599 Z" fill="#000000"></path>
    </g>
</svg>