<?xml version="1.0" encoding="UTF-8"?>
<svg width="24px" height="24px" viewBox="0 0 24 24" version="1.1" xmlns="http://www.w3.org/2000/svg" xmlns:xlink="http://www.w3.org/1999/xlink">
    <title>icons/functional_UI/E-M/mdpi/ic_Fingerprint_recognition</title>
    <g id="icons/functional_UI/E-M/ic_Fingerprint_recognition" stroke="none" stroke-width="1" fill="none" fill-rule="evenodd">
        <path d="M18.609936,21 L17.4,21 C17.0686292,21 16.8,20.7313709 16.8,20.4 C16.8,20.0686292 17.0686292,19.8 17.4,19.8 L18.6,19.8 C19.2619375,19.7980625 19.7980625,19.2619375 19.8,18.6 L19.8,17.4 C19.8,17.0686292 20.0686292,16.8 20.4,16.8 C20.7313709,16.8 21,17.0686292 21,17.4 L21,18.609936 C21,19.924464 19.924464,21 18.609936,21 Z M20.4,7.19999998 C20.0686292,7.19999998 19.8,6.93137083 19.8,6.59999998 L19.8,5.39999997 C19.7980625,4.7380625 19.2619375,4.20193753 18.6,4.19999997 L17.4,4.19999997 C17.0686292,4.19999997 16.8,3.93137082 16.8,3.59999996 C16.8,3.26862911 17.0686292,2.99999996 17.4,2.99999996 L18.609936,2.99999996 C19.924464,2.99999996 21,4.07553597 21,5.39006397 L21,6.59999998 C21,6.93137083 20.7313709,7.19999998 20.4,7.19999998 Z M7.79999998,13.925352 L7.79999998,13.375032 C10.2551374,11.4097175 13.7448626,11.4097175 16.2,13.375032 L16.2,13.925352 C13.8085396,11.7862767 10.1914604,11.7862767 7.79999998,13.925352 L7.79999998,13.925352 Z M7.79999998,12.846408 L7.79999998,12.334248 C10.3426927,10.6366494 13.6573073,10.6366494 16.2,12.334248 L16.2,12.846408 C13.6959178,11.0258918 10.3040822,11.0258918 7.79999998,12.846408 Z M7.79999998,11.834568 L7.79999998,11.312952 C10.3994985,9.81441387 13.6005015,9.81441387 16.2,11.312952 L16.2,11.834568 C13.6261091,10.2432095 10.3738909,10.2432095 7.79999998,11.834568 L7.79999998,11.834568 Z M7.79999998,10.86336 L7.79999998,10.388592 C10.438866,9.04520062 13.561134,9.04520062 16.2,10.388592 L16.2,10.86336 C13.5791281,9.44694371 10.4208719,9.44694371 7.79999998,10.86336 Z M7.81135198,9.91391999 C7.82352699,9.7481079 7.84561448,9.58317306 7.87749598,9.41999999 C10.5008988,8.24806427 13.4991012,8.24806427 16.122504,9.41999999 C16.1543855,9.58317306 16.176473,9.7481079 16.188648,9.91391999 C13.5407277,8.64342536 10.4592723,8.64342536 7.81135198,9.91391999 Z M8.01283198,8.90464799 C8.07400337,8.72081486 8.14789387,8.54146161 8.23396798,8.36788798 C10.6659406,7.47877637 13.3340594,7.47877637 15.766032,8.36788798 C15.8521061,8.54146161 15.9259966,8.72081486 15.987168,8.90464799 C13.4317236,7.85984748 10.5682764,7.85984748 8.01283198,8.90464799 L8.01283198,8.90464799 Z M8.56600799,7.81051198 C8.71200508,7.60357861 8.87621075,7.41011247 9.05666399,7.23242398 C10.987649,6.73725602 13.012351,6.73725602 14.943336,7.23242398 C15.1237893,7.41011247 15.2879949,7.60357861 15.433992,7.81051198 C13.1990869,7.1045606 10.8009131,7.1045606 8.56600799,7.81051198 L8.56600799,7.81051198 Z M9.81914399,6.63599998 C10.4753097,6.23344257 11.2301911,6.02058309 12,6.02104722 L12,6.02104722 C12.7698089,6.02058309 13.5246903,6.23344257 14.180856,6.63599998 C12.7385559,6.37622397 11.2614441,6.37622397 9.81914399,6.63599998 Z M6.59999998,21 L5.39006397,21 C4.07553597,21 2.99999996,19.924464 2.99999996,18.609936 L2.99999996,17.4 C2.99999996,17.0686292 3.26862911,16.8 3.59999997,16.8 C3.93137082,16.8 4.19999997,17.0686292 4.19999997,17.4 L4.19999997,18.6 C4.20193753,19.2619375 4.7380625,19.7980625 5.39999997,19.8 L6.59999998,19.8 C6.93137083,19.8 7.19999998,20.0686292 7.19999998,20.4 C7.19999998,20.7313709 6.93137083,21 6.59999998,21 Z M6.59999998,4.19999997 L5.39999997,4.19999997 C4.7380625,4.20193753 4.20193753,4.7380625 4.19999997,5.39999997 L4.19999997,6.59999998 C4.19999997,6.93137083 3.93137082,7.19999998 3.59999996,7.19999998 C3.26862911,7.19999998 2.99999996,6.93137083 2.99999996,6.59999998 L2.99999996,5.39006397 C2.99999996,4.07553597 4.07553597,2.99999996 5.39006397,2.99999996 L6.59999998,2.99999996 C6.93137083,2.99999996 7.19999998,3.26862911 7.19999998,3.59999997 C7.19999998,3.93137082 6.93137083,4.19999997 6.59999998,4.19999997 Z M16.19892,14.50488 C16.1952231,14.6948806 16.1785765,14.8844081 16.149096,15.072144 C15.1118569,13.8593123 13.5958778,13.1610419 12,13.1610419 C10.4041222,13.1610419 8.88814311,13.8593123 7.85090398,15.072144 C7.8214235,14.8844081 7.8047769,14.6948806 7.80107998,14.50488 C8.90694166,13.3767412 10.4202446,12.7410528 12,12.7410528 C13.5797554,12.7410528 15.0930583,13.3767412 16.19892,14.50488 Z M12,13.5810463 C13.5862773,13.5797545 15.0803055,14.3264839 16.031424,15.595992 C15.9832886,15.7600162 15.9250984,15.9209207 15.857184,16.077792 C15.002195,14.7812814 13.5530441,14.0010432 12,14.0010432 C10.4469559,14.0010432 8.99780499,14.7812814 8.14281598,16.077792 C8.07490156,15.9209207 8.01671145,15.7600162 7.96857598,15.595992 C8.91969454,14.3264839 10.4137227,13.5797545 12,13.5810463 L12,13.5810463 Z M12,14.4210477 C13.4992241,14.4204465 14.884985,15.2193864 15.635664,16.517136 C15.5558994,16.6545183 15.4684568,16.7872968 15.373752,16.91484 C14.7300178,15.64286 13.425597,14.8410564 12,14.8410564 C10.574403,14.8410564 9.26998218,15.64286 8.62624799,16.91484 C8.5315432,16.7872968 8.4441006,16.6545183 8.36433598,16.517136 C9.11501503,15.2193864 10.5007759,14.4204465 12,14.4210477 L12,14.4210477 Z M12,15.261048 C13.333907,15.2609328 14.5416107,16.0497629 15.077616,17.27124 C14.9749549,17.382039 14.8664737,17.4872997 14.752632,17.586576 C14.321423,16.4401593 13.2248316,15.6810289 12,15.6810289 C10.7751684,15.6810289 9.67857696,16.4401593 9.24736799,17.586576 C9.13352631,17.4872997 9.0250451,17.382039 8.92238399,17.27124 C9.45838934,16.0497629 10.666093,15.2609328 12,15.261048 Z M12,16.101048 C13.0987802,16.1011211 14.070959,16.8128385 14.403,17.860248 C14.2837135,17.943983 14.1601722,18.0214867 14.032872,18.092448 C13.7919495,17.1669669 12.9563258,16.521024 12,16.521024 C11.0436742,16.521024 10.2080505,17.1669669 9.96712799,18.092448 C9.83982785,18.0214867 9.71628653,17.943983 9.59699999,17.860248 C9.92904097,16.8128385 10.9012198,16.1011211 12,16.101048 L12,16.101048 Z M12,16.941048 C12.7975696,16.9411103 13.4852445,17.5017524 13.645968,18.28296 C13.5151817,18.3392055 13.3815985,18.3887104 13.245744,18.43128 C13.1518896,17.8157898 12.6226049,17.361096 12,17.361096 C11.3773951,17.361096 10.8481104,17.8157898 10.754256,18.43128 C10.6184015,18.3887104 10.4848183,18.3392055 10.354032,18.28296 C10.5147555,17.5017524 11.2024304,16.9411103 12,16.941048 L12,16.941048 Z M12,17.781048 C12.4313201,17.7810314 12.7925571,18.1076851 12.8358,18.536832 C12.6981797,18.5649045 12.5592256,18.5859875 12.419472,18.6 C12.4082548,18.376505 12.2237764,18.2010533 12,18.2010533 C11.7762236,18.2010533 11.5917452,18.376505 11.580528,18.6 C11.4407744,18.5859875 11.3018203,18.5649045 11.1642,18.536832 C11.2074429,18.1076851 11.5686799,17.7810314 12,17.781048 L12,17.781048 Z" fill="#000000"></path>
    </g>
</svg>