<?xml version="1.0" encoding="UTF-8"?>
<svg width="24px" height="24px" viewBox="0 0 24 24" version="1.1" xmlns="http://www.w3.org/2000/svg" xmlns:xlink="http://www.w3.org/1999/xlink">
    <title>icons/functional_UI/E-M/mdpi/ic_File_audio</title>
    <g id="icons/functional_UI/E-M/ic_File_audio" stroke="none" stroke-width="1" fill="none" fill-rule="evenodd">
        <path d="M15,1.79999996 L15,5.39999997 C15,6.06273598 15.4776,6.59999998 16.066656,6.59999998 L19.8,6.59999998 L15,1.79999996 Z M16.2,7.79999996 C14.8745166,7.79999996 13.8,6.72548338 13.8,5.39999997 L13.8,1.79999996 L4.19999997,1.79999996 L4.19999997,20.994552 L4.19999997,20.994552 C4.19999997,20.996376 4.19999997,20.998176 4.19999997,21 C4.19999997,21.6627417 4.73725827,22.2 5.39999997,22.2 L19.8,22.2 L19.8,7.79999996 L16.2,7.79999996 Z M15.6000001,11.105976 L15.6000001,16.5 C15.5994536,17.1335221 15.2006195,17.6982712 14.6037636,17.9106708 C14.0069077,18.1230704 13.3409679,17.937236 12.9403315,17.4464805 C12.5396951,16.9557249 12.4909109,16.2660653 12.818475,15.7237994 C13.146039,15.1815334 13.7791881,14.903806 14.4,15.030072 L14.4,12.18984 L10.8,13.093656 L10.8,17.7 C10.7994619,18.3335359 10.4006243,18.8983017 9.80375684,19.1107097 C9.20688937,19.3231178 8.54093394,19.1372815 8.14028883,18.6465152 C7.73964373,18.155749 7.69086076,17.4660737 8.01843547,16.9237982 C8.34601018,16.3815226 8.97917624,16.1037952 9.59999999,16.230072 L9.59999999,11.4 L14.4984,10.222632 L14.4984,10.22292 C14.7655728,10.1613809 15.046226,10.2250288 15.260714,10.3958015 C15.475202,10.5665741 15.6001133,10.8258315 15.6000001,11.1 C15.6000001,11.10204 15.6000001,11.104056 15.599856,11.106096 L15.6000001,11.105976 Z" fill="#000000"></path>
    </g>
</svg>