<?xml version="1.0" encoding="UTF-8"?>
<svg width="24px" height="24px" viewBox="0 0 24 24" version="1.1" xmlns="http://www.w3.org/2000/svg" xmlns:xlink="http://www.w3.org/1999/xlink">
    <title>icons/functional_UI/E-M/mdpi/ic_Favourite_team</title>
    <g id="icons/functional_UI/E-M/ic_Favourite_team" stroke="none" stroke-width="1" fill="none" fill-rule="evenodd">
        <path d="M20.4,10.8 C20.4,15.2376 17.815392,20.4 12,22.2 C6.18460798,20.4 3.59999996,15.2376 3.59999996,10.8 L3.59999996,5.99999997 C3.59999996,5.00589597 4.38412797,4.31944797 5.39999997,4.19999997 C5.39999997,4.19999997 8.90159999,3.71999997 12.297936,3.71999997 C15.495696,3.71999997 18.6,4.19999997 18.6,4.19999997 C19.585368,4.31675997 20.4,5.00589597 20.4,5.99999997 L20.4,10.8 Z M19.8,10.96044 C19.8,15.10212 17.4,19.92 12,21.6 C6.59999998,19.92 4.19999997,15.10212 4.19999997,10.96044 L4.19999997,6.00069598 L4.19999997,6.00069598 C4.19999997,6.00045598 4.19999997,6.00023998 4.19999997,5.99999997 C4.19999997,5.33726397 4.75031997,4.91469597 5.39999997,4.79999997 C5.39999997,4.79999997 8.79544799,4.31999997 12.142128,4.31999997 C15.39408,4.31999997 18.6,4.79999997 18.6,4.79999997 C19.245168,4.88143197 19.8,5.33726397 19.8,5.99999997 C19.8,6.00023998 19.8,6.00047998 19.8,6.00071998 L19.8,6.00071998 L19.8,10.96044 Z M19.2,11.1204 C19.2,14.966256 16.984608,19.44 12,21 C7.01536798,19.44 4.79999997,14.966256 4.79999997,11.1204 L4.79999997,5.99999997 C4.79999997,5.66863197 5.06601597,5.46892797 5.39999997,5.39999997 C5.39999997,5.39999997 8.81589599,4.91999997 12.17232,4.91999997 C15.41388,4.91999997 18.6,5.39999997 18.6,5.39999997 C18.924984,5.44780797 19.2,5.66863197 19.2,5.99999997 L19.2,11.1204 Z M7.22399998,10.62756 L9.76516799,12.885336 L8.91811199,16.272 L12.024,14.578656 L15.129888,16.272 L14.282832,12.885336 L16.824,10.62756 L13.435776,10.0632 L12.024,7.12799998 L10.612224,10.0632 L7.22399998,10.62756 Z" fill="#000000"></path>
    </g>
</svg>