<?xml version="1.0" encoding="UTF-8"?>
<svg width="24px" height="24px" viewBox="0 0 24 24" version="1.1" xmlns="http://www.w3.org/2000/svg" xmlns:xlink="http://www.w3.org/1999/xlink">
    <title>icons/functional_UI/E-M/mdpi/ic_File_PDF</title>
    <g id="icons/functional_UI/E-M/ic_File_PDF" stroke="none" stroke-width="1" fill="none" fill-rule="evenodd">
        <path d="M15,1.79999996 L15,5.39999997 C15,6.06273598 15.4776,6.59999998 16.066656,6.59999998 L19.8,6.59999998 L15,1.79999996 Z M16.2,7.79999996 C14.8745166,7.79999996 13.8,6.72548338 13.8,5.39999997 L13.8,1.79999996 L4.19999997,1.79999996 L4.19999997,20.994552 L4.19999997,20.994552 C4.19999997,20.996376 4.19999997,20.998176 4.19999997,21 C4.19999997,21.6627417 4.73725827,22.2 5.39999997,22.2 L19.8,22.2 L19.8,7.79999996 L16.2,7.79999996 Z M8.60764799,14.174736 C9.08543999,14.174736 9.45036799,14.02128 9.70243199,13.714368 C9.92284799,13.451744 10.033056,13.110552 10.033056,12.690792 C10.0327848,12.5602245 10.0144181,12.4303246 9.97847999,12.3048 C9.94201396,12.175942 9.88855215,12.0525134 9.81950399,11.937768 C9.75337412,11.826155 9.67248413,11.7239769 9.57902399,11.634 C9.33223999,11.392512 8.96520799,11.271712 8.47792799,11.2716 L7.46702398,11.2716 C7.27716798,11.2716 7.12924798,11.325128 7.02326398,11.432184 C6.91727998,11.53924 6.86427998,11.686632 6.86426398,11.87436 L6.86426398,15.10812 C6.85993234,15.2507925 6.90805684,15.3901025 6.99952798,15.49968 C7.08970398,15.60568 7.21125598,15.65868 7.36418398,15.65868 C7.51816798,15.65868 7.63866398,15.605944 7.72567198,15.500472 C7.81267998,15.395 7.85618398,15.264216 7.85618398,15.10812 L7.85618398,14.174736 L8.60764799,14.174736 Z M7.85618398,12.140232 L8.41298399,12.140232 C8.58386399,12.140232 8.72466399,12.190328 8.83538399,12.29052 C8.94610399,12.390712 9.00621599,12.52624 9.01571999,12.697104 C9.01571999,12.882704 8.96193599,13.029832 8.85436799,13.138488 C8.73833599,13.254536 8.57379999,13.312544 8.36075998,13.312512 L7.85618398,13.312512 L7.85618398,12.140232 Z M10.676184,15.420576 C10.7806,15.527648 10.925096,15.581176 11.109672,15.58116 L12.198096,15.593808 C12.613632,15.593808 12.975392,15.501008 13.283376,15.315408 C13.5885826,15.1328026 13.8338202,14.8650431 13.988976,14.545008 C14.151392,14.217008 14.2326386,13.847336 14.2326386,13.435992 C14.2337887,13.0914781 14.165212,12.7502926 14.031024,12.432984 C13.906855,12.1277542 13.700718,11.8627946 13.435392,11.667384 C13.076784,11.40372 12.616944,11.271864 12.055872,11.271864 L11.122392,11.271864 C10.932552,11.271864 10.784632,11.325392 10.678632,11.432448 C10.572632,11.539504 10.519632,11.686896 10.519632,11.874624 L10.519632,14.9784 C10.519632,15.166144 10.57184,15.313536 10.676256,15.420576 L10.676184,15.420576 Z M11.511504,12.140232 L11.892768,12.140232 C12.2872,12.140232 12.58304,12.228824 12.780288,12.406008 C13.043952,12.634888 13.175784,12.978192 13.175784,13.43592 C13.175784,13.8652 13.061384,14.200064 12.832584,14.440512 C12.64908,14.634576 12.372752,14.731608 12.0036,14.731608 L11.5116,14.731608 L11.5116,12.140232 L11.511504,12.140232 Z M16.778976,12.159216 C16.9061269,12.1630186 17.0303424,12.1205789 17.128584,12.039768 C17.223223,11.9608922 17.2758383,11.8425188 17.270976,11.719416 C17.270976,11.57916 17.224304,11.469472 17.13096,11.390352 C17.037616,11.311232 16.920288,11.271696 16.778976,11.271696 L15.347304,11.271696 C15.157464,11.271696 15.009544,11.325224 14.903544,11.43228 C14.797544,11.539336 14.744544,11.686728 14.744544,11.874456 L14.744544,15.10812 C14.7401761,15.2506503 14.7879646,15.3898769 14.878944,15.49968 C14.968544,15.60568 15.089832,15.65868 15.242808,15.65868 C15.397848,15.65868 15.518872,15.605944 15.60588,15.500472 C15.692888,15.395 15.7364,15.264216 15.736416,15.10812 L15.736416,13.902624 L16.6176,13.902624 C16.758912,13.902624 16.876248,13.8636 16.969608,13.785552 C17.062968,13.707504 17.109632,13.5994 17.1096,13.46124 C17.1096,13.32308 17.0632,13.21524 16.9704,13.13772 C16.8776,13.0602 16.76,13.02144 16.6176,13.02144 L15.736488,13.02144 L15.736488,12.159216 L16.779048,12.159216 L16.778976,12.159216 Z" fill="#000000"></path>
    </g>
</svg>