<?xml version="1.0" encoding="UTF-8"?>
<svg width="24px" height="24px" viewBox="0 0 24 24" version="1.1" xmlns="http://www.w3.org/2000/svg" xmlns:xlink="http://www.w3.org/1999/xlink">
    <title>icons/functional_UI/E-M/mdpi/ic_File_word_document</title>
    <g id="icons/functional_UI/E-M/ic_File_word_document" stroke="none" stroke-width="1" fill="none" fill-rule="evenodd">
        <path d="M15,1.79999996 L15,5.39999997 L15,5.39999997 C15,6.06273598 15.4776,6.59999998 16.06668,6.59999998 L19.8,6.59999998 L15,1.79999996 Z M16.2,7.79999996 C14.8745166,7.79999996 13.8,6.72548338 13.8,5.39999997 L13.8,1.79999996 L4.19999997,1.79999996 L4.19999997,20.994576 L4.19999997,20.994576 C4.19999997,20.9964 4.19999997,20.998176 4.19999997,21 C4.19999997,21.6627417 4.73725827,22.2 5.39999997,22.2 L19.8,22.2 L19.8,7.79999996 L16.2,7.79999996 Z M11.249064,16.2 L10.1514,16.2 L9.29999999,12.932736 L9.28598399,12.932736 L8.44859999,16.2 L7.32988798,16.2 L5.99999997,11.4 L7.10469598,11.4 L7.89979198,14.667264 L7.91390398,14.667264 L8.78639999,11.4 L9.82079999,11.4 L10.679184,14.70756 L10.693248,14.70756 L11.516448,11.4 L12.6,11.4 L11.249064,16.2 Z M18,16.8 L14.4,16.8 C14.0686292,16.8 13.8,16.5313709 13.8,16.2 C13.8,15.8686292 14.0686292,15.6 14.4,15.6 L18,15.6 C18.3313709,15.6 18.6,15.8686292 18.6,16.2 C18.6,16.5313709 18.3313709,16.8 18,16.8 Z M18,14.4 L14.4,14.4 C14.0686292,14.4 13.8,14.1313709 13.8,13.8 C13.8,13.4686292 14.0686292,13.2 14.4,13.2 L18,13.2 C18.3313709,13.2 18.6,13.4686292 18.6,13.8 C18.6,14.1313709 18.3313709,14.4 18,14.4 Z M18,12 L14.4,12 C14.0686292,12 13.8,11.7313708 13.8,11.4 C13.8,11.0686291 14.0686292,10.8 14.4,10.8 L18,10.8 C18.3313709,10.8 18.6,11.0686291 18.6,11.4 C18.6,11.7313708 18.3313709,12 18,12 Z" fill="#000000"></path>
    </g>
</svg>