<?xml version="1.0" encoding="UTF-8"?>
<svg width="24px" height="24px" viewBox="0 0 24 24" version="1.1" xmlns="http://www.w3.org/2000/svg" xmlns:xlink="http://www.w3.org/1999/xlink">
    <title>icons/functional_UI/E-M/mdpi/ic_Fire</title>
    <g id="icons/functional_UI/E-M/ic_Fire" stroke="none" stroke-width="1" fill="none" fill-rule="evenodd">
        <path d="M11.851872,1.77530396 C11.851872,1.77530396 11.624088,2.77665596 12.625848,4.05153597 C13.627608,5.32641597 15.3576,7.34476798 15.494208,8.74079999 C15.63084,10.140168 15.490128,11.631 14.720016,12.792912 C14.689896,12.838296 16.056048,12.170784 16.359216,10.743984 C16.653264,9.36083999 16.541352,7.78456798 16.268016,7.32940798 C15.99504,6.87405598 18.863304,9.28703999 18.408,12.701616 C17.952696,16.116192 15.7674,17.117616 14.72004,17.800632 C13.67268,18.483648 11.017104,19.576056 11.108448,21.670608 C11.199792,23.76516 8.94287999,19.16592 11.086512,16.3728 C13.05024,13.813728 12.489216,12.5736 12.079632,11.836656 C12.079632,11.836656 11.903448,13.239312 9.86399999,14.265048 C8.11919998,15.142512 7.91253598,16.928664 8.34592798,18.165048 C8.62257599,18.953928 6.79831198,17.542776 6.25221598,16.540944 C5.70578397,15.539832 5.43724797,14.460144 5.55381597,13.233264 C5.87615997,9.84028799 8.84135999,8.92595999 8.59199999,7.36799998 C8.58295199,7.31157598 8.51999999,6.98399998 8.51999999,6.98399998 C8.51999999,6.98399998 9.91125599,8.25119998 9.25665599,10.2432 C9.18436799,10.4634 11.168904,9.69676799 10.53168,8.05761598 C9.89445599,6.41846398 9.21119999,3.64173597 11.851872,1.77530396 Z" fill="#000000"></path>
    </g>
</svg>