<?xml version="1.0" encoding="UTF-8"?>
<svg width="24px" height="24px" viewBox="0 0 24 24" version="1.1" xmlns="http://www.w3.org/2000/svg" xmlns:xlink="http://www.w3.org/1999/xlink">
    <title>icons/functional_UI/E-M/mdpi/ic_File_draft</title>
    <g id="icons/functional_UI/E-M/ic_File_draft" stroke="none" stroke-width="1" fill="none" fill-rule="evenodd">
        <path d="M15,1.79999996 L15,5.39999997 L15,5.39999997 C15,6.06273598 15.4776,6.59999998 16.06668,6.59999998 L19.8,6.59999998 L15,1.79999996 Z M16.2,7.79999996 C14.8745166,7.79999996 13.8,6.72548338 13.8,5.39999997 L13.8,1.79999996 L4.19999997,1.79999996 L4.19999997,20.994576 L4.19999997,20.994576 C4.19999997,20.9964 4.19999997,20.998176 4.19999997,21 C4.19999997,21.6627417 4.73725827,22.2 5.39999997,22.2 L19.8,22.2 L19.8,7.79999996 L16.2,7.79999996 Z M9.48052799,13.627704 C9.28372799,13.318944 8.94513599,12.206904 8.86595999,12.210168 C8.83912031,12.2124816 8.81491472,12.2272359 8.80055999,12.250032 C8.78347199,12.273048 6.90290398,15.350424 6.83755198,15.396432 L6.11342398,14.5536 C6.68133598,13.785048 7.99437598,11.694744 8.13035998,11.558712 C9.55115999,10.137216 10.011504,12.646872 10.13304,12.89328 C10.460976,12.33648 12.076032,9.06801599 12.276624,9.06767988 C12.566064,9.06717599 13.818192,10.851072 14.285424,11.403432 C14.428536,11.572632 14.966736,12.075 15.459024,12.074688 C16.487952,12.07404 18.369384,9.68229599 18.369384,9.68229599 C17.982552,10.405416 16.878216,12.842496 15.339576,13.014456 C14.62356,13.094496 14.235576,12.734664 13.998264,12.544512 C13.110264,11.832768 12.617808,10.51368 12.376968,10.51368 C12.324744,10.51368 12.316512,10.544016 12.299592,10.567032 C12.288672,10.581696 11.218416,13.365216 11.077704,13.571136 C10.760736,14.034624 9.95164799,14.367096 9.48052799,13.627704 Z" fill="#000000"></path>
    </g>
</svg>