<?xml version="1.0" encoding="UTF-8"?>
<svg width="24px" height="24px" viewBox="0 0 24 24" version="1.1" xmlns="http://www.w3.org/2000/svg" xmlns:xlink="http://www.w3.org/1999/xlink">
    <title>icons/functional_UI/E-M/mdpi/ic_File_download</title>
    <g id="icons/functional_UI/E-M/ic_File_download" stroke="none" stroke-width="1" fill="none" fill-rule="evenodd">
        <path d="M5.39999997,22.2 C4.73725827,22.2 4.19999997,21.6627417 4.19999997,21 C4.19999997,20.998176 4.19999997,20.996376 4.19999997,20.994552 L4.19999997,20.994552 L4.19999997,1.79999996 L13.8,1.79999996 L13.8,5.40011997 C13.8000663,6.72555651 14.8745635,7.79999996 16.2,7.79999996 L19.8,7.79999996 L19.8,22.2 L5.39999997,22.2 Z M15,5.39999997 L15,1.79999996 L19.8,6.59999998 L16.066632,6.59999998 C15.4776,6.59999998 15,6.06280798 15,5.39999997 Z M9.59999999,15 L9.59788799,10.558488 C9.59966822,10.0295599 10.0282386,9.60134334 10.557168,9.59999999 L13.442832,9.59999999 C13.9717614,9.60134334 14.4003318,10.0295599 14.402112,10.558488 L14.4,15 L17.448,15 L12.879984,19.453176 L12.879984,19.453176 C12.641448,19.6765053 12.3267646,19.80053 12,19.8000017 L12,19.8000017 C11.6803692,19.8003905 11.3732264,19.675923 11.14404,19.453128 L11.14404,19.453128 L6.55199998,15 L9.59999999,15 Z" fill="#000000"></path>
    </g>
</svg>