<?xml version="1.0" encoding="UTF-8"?>
<svg width="24px" height="24px" viewBox="0 0 24 24" version="1.1" xmlns="http://www.w3.org/2000/svg" xmlns:xlink="http://www.w3.org/1999/xlink">
    <title>icons/functional_UI/E-M/mdpi/ic_Fast_delivery</title>
    <g id="icons/functional_UI/E-M/ic_Fast_delivery" stroke="none" stroke-width="1" fill="none" fill-rule="evenodd">
        <path d="M8.33354398,19.352064 C9.40286399,18.993336 10.133232,18.050928 10.198104,16.921368 L10.201968,16.854648 L14.980368,16.854648 C15.017112,17.062704 15.040128,17.27304 15.092424,17.475816 C15.3700374,18.5433008 16.2725918,19.332179 17.367624,19.464456 C17.367624,19.464456 17.536464,19.496928 17.959296,19.4838 C18.155688,19.477704 18.3474,19.4124 18.533448,19.35204 C19.606056,19.00404 20.332992,18.05124 20.398008,16.921368 C20.399136,16.901664 20.401608,16.882032 20.404968,16.845912 L22.8,16.845912 L22.8,12.118704 C22.781904,12.053664 22.765728,11.988 22.7454,11.923656 C22.5879057,11.4274105 22.1281934,11.0894866 21.60756,11.087256 C21.047784,11.085624 20.48796,11.084136 19.928208,11.089488 C19.830696,11.0904 19.780056,11.056848 19.731744,10.976136 C18.574768,9.04320799 17.416976,7.11079198 16.258368,5.17888797 C16.039728,4.81257597 15.741432,4.57804797 15.319968,4.50395997 L15.31332,4.50275997 C15.2592092,4.49379125 15.2045064,4.48885765 15.149664,4.48799997 L1.19999995,4.48799997 L1.19999995,4.56739197 C1.19999995,4.66003092 1.21090285,4.75234812 1.23220796,4.84250397 C1.24036796,4.87715997 1.24879196,4.91174397 1.25791196,4.94613597 C1.46203013,5.73307639 2.1709431,6.28355174 2.98391996,6.28639198 C5.17591997,6.29075998 7.36783998,6.29155998 9.55967999,6.28879198 C9.91094399,6.28879198 10.173552,6.51782398 10.197912,6.84239998 C10.2090342,7.00186343 10.1563205,7.15920916 10.0513786,7.279789 C9.94643676,7.40036885 9.79787238,7.47429477 9.63839999,7.48528798 C9.58660799,7.48883998 9.53445599,7.48742398 9.48239999,7.48742398 C6.97449598,7.48742398 4.46658397,7.48742398 1.95866396,7.48742398 L1.78730396,7.48742398 C1.81130396,7.64536798 1.82126396,7.79565598 1.85781596,7.93919998 C2.05746492,8.7273889 2.76463556,9.28099155 3.57770396,9.28559999 C5.57361597,9.29039999 7.56955198,9.28735199 9.56548799,9.28799999 C9.90919199,9.28799999 10.16952,9.51499199 10.197648,9.83536799 C10.2105152,9.99681675 10.1578582,10.1566497 10.0515475,10.2788352 C9.94523678,10.4010207 9.79422099,10.475274 9.63254399,10.484856 C9.58072799,10.487976 9.52859999,10.486704 9.47654399,10.486704 C7.16862398,10.486704 4.86070397,10.486704 2.55278396,10.486704 L2.40287996,10.486704 C2.39775016,10.6974231 2.43369906,10.907125 2.50871996,11.104104 C2.76281301,11.81108 3.43228815,12.28336 4.18353597,12.2856 C5.97544797,12.289872 7.76740798,12.287232 9.55934399,12.287736 C9.85238399,12.287736 10.076664,12.437424 10.164888,12.689184 C10.2263099,12.8658363 10.2017874,13.0610317 10.0985781,13.2170013 C9.9953688,13.372971 9.825294,13.4718505 9.63868799,13.484376 C9.58691999,13.487976 9.53474399,13.486512 9.48268799,13.486512 C7.97473598,13.486608 6.46678398,13.486608 4.95883197,13.486512 L4.79999997,13.486512 L4.79999997,13.619952 C4.79999997,14.675744 4.80005597,15.731528 4.80016797,16.787304 C4.79931236,18.1497851 5.81531446,19.2986711 7.16767198,19.464456 C7.55979968,19.5153498 7.95835961,19.4769279 8.33354398,19.352064 Z" fill="#000000"></path>
    </g>
</svg>