<?xml version="1.0" encoding="UTF-8"?>
<svg width="24px" height="24px" viewBox="0 0 24 24" version="1.1" xmlns="http://www.w3.org/2000/svg" xmlns:xlink="http://www.w3.org/1999/xlink">
    <title>icons/functional_UI/E-M/mdpi/ic_File_video</title>
    <g id="icons/functional_UI/E-M/ic_File_video" stroke="none" stroke-width="1" fill="none" fill-rule="evenodd">
        <path d="M15,1.79999996 L15,5.39999997 C15,6.06273598 15.4776,6.59999998 16.066632,6.59999998 L19.8,6.59999998 L15,1.79999996 Z M12.3,17.4 L12.6,17.4 L12.6,18.6 L11.4,18.6 L11.4,17.4 L12.3,17.4 Z M11.7,16.8 L7.79999998,16.8 L7.79999998,13.2 L11.7,13.2 L11.7,16.8 Z M8.99999999,18.6 L7.79999998,18.6 L7.79999998,17.4 L8.99999999,17.4 L8.99999999,18.6 Z M10.8,18.6 L9.59999999,18.6 L9.59999999,17.4 L10.8,17.4 L10.8,18.6 Z M14.4,18.6 L13.2,18.6 L13.2,17.4 L14.4,17.4 L14.4,18.6 Z M16.2,18.6 L15,18.6 L15,17.4 L16.2,17.4 L16.2,18.6 Z M12.3,13.2 L16.2,13.2 L16.2,16.8 L12.3,16.8 L12.3,13.2 Z M16.2,12.6 L15,12.6 L15,11.4 L16.2,11.4 L16.2,12.6 Z M16.2,7.79999996 C14.8745166,7.79999996 13.8,6.72548338 13.8,5.39999997 L13.8,1.79999996 L4.19999997,1.79999996 L4.19999997,21 C4.19999997,21.6627143 4.73728572,22.2 5.39999997,22.2 L19.8,22.2 L19.8,7.79999996 L16.2,7.79999996 Z M16.8,19.2 L7.79999998,19.2 C7.46862913,19.2 7.19999998,18.9313709 7.19999998,18.6 L7.19999998,10.8 L16.2,10.8 C16.5313709,10.8 16.8,11.0686291 16.8,11.4 L16.8,19.2 Z M13.2,11.4 L14.4,11.4 L14.4,12.6 L13.2,12.6 L13.2,11.4 Z M11.7,12.6 L11.4,12.6 L11.4,11.4 L12.6,11.4 L12.6,12.6 L11.7,12.6 Z M9.59999999,11.4 L10.8,11.4 L10.8,12.6 L9.59999999,12.6 L9.59999999,11.4 Z M7.79999998,11.4 L8.99999999,11.4 L8.99999999,12.6 L7.79999998,12.6 L7.79999998,11.4 Z" fill="#000000"></path>
    </g>
</svg>