<?xml version="1.0" encoding="UTF-8"?>
<svg width="24px" height="24px" viewBox="0 0 24 24" version="1.1" xmlns="http://www.w3.org/2000/svg" xmlns:xlink="http://www.w3.org/1999/xlink">
    <title>icons/functional_UI/E-M/mdpi/ic_File_compressed</title>
    <g id="icons/functional_UI/E-M/ic_File_compressed" stroke="none" stroke-width="1" fill="none" fill-rule="evenodd">
        <path d="M15,1.79999996 L15,5.39999997 L15,5.39999997 C15,6.06273598 15.4776,6.59999998 16.06668,6.59999998 L19.8,6.59999998 L15,1.79999996 Z M16.2,7.79999996 C14.8745166,7.79999996 13.8,6.72548338 13.8,5.39999997 L13.8,1.79999996 L11.04,1.79999996 L11.04,2.75999996 L12,2.75999996 L12,3.71999997 L11.04,3.71999997 L11.04,4.67999997 L12,4.67999997 L12,5.63999997 L11.04,5.63999997 L11.04,6.59999998 L12,6.59999998 L12,7.55999998 L11.04,7.55999998 L11.04,8.51999999 L12,8.51999999 L12,9.47999999 L11.04,9.47999999 L11.04,10.44 L12,10.44 L12,13.32 C12,14.11529 11.35529,14.76 10.56,14.76 C9.76470995,14.76 9.11999999,14.11529 9.11999999,13.32 L9.11999999,10.44 L10.08,10.44 L10.08,9.47999999 L9.11999999,9.47999999 L9.11999999,8.51999999 L10.08,8.51999999 L10.08,7.55999998 L9.11999999,7.55999998 L9.11999999,6.59999998 L10.08,6.59999998 L10.08,5.63999997 L9.11999999,5.63999997 L9.11999999,4.67999997 L10.08,4.67999997 L10.08,3.71999997 L9.11999999,3.71999997 L9.11999999,2.75999996 L10.08,2.75999996 L10.08,1.79999996 L4.19999997,1.79999996 L4.19999997,20.994576 L4.19999997,20.994576 C4.19999997,20.9964 4.19999997,20.998176 4.19999997,21 C4.19999997,21.6627417 4.73725827,22.2 5.39999997,22.2 L19.8,22.2 L19.8,7.79999996 L16.2,7.79999996 Z M9.71999999,13.32 C9.71999999,13.7839192 10.0960808,14.16 10.56,14.16 C11.0239192,14.16 11.4,13.7839192 11.4,13.32 C11.4,12.8560808 11.0239192,12.48 10.56,12.48 C10.0960808,12.48 9.71999999,12.8560808 9.71999999,13.32 Z" fill="#000000"></path>
    </g>
</svg>