<?xml version="1.0" encoding="UTF-8"?>
<svg width="24px" height="24px" viewBox="0 0 24 24" version="1.1" xmlns="http://www.w3.org/2000/svg" xmlns:xlink="http://www.w3.org/1999/xlink">
    <title>icons/functional_UI/E-M/mdpi/ic_Folder_media</title>
    <g id="icons/functional_UI/E-M/ic_Folder_media" stroke="none" stroke-width="1" fill="none" fill-rule="evenodd">
        <path d="M20.1,6.59999998 L10.8,6.59999998 L8.99999999,4.19999997 L2.39999996,4.19999997 L2.39999996,18.3 C2.39999996,19.1284272 3.07157284,19.8 3.89999996,19.8 L21.6,19.8 L21.6,8.09999998 C21.6,7.27157286 20.9284272,6.59999998 20.1,6.59999998 Z M12,8.39999999 C14.650968,8.39999999 16.8,10.549032 16.8,13.2 C16.8,15.850968 14.650968,18 12,18 C9.34903199,18 7.19999998,15.850968 7.19999998,13.2 C7.19999998,10.549032 9.34903199,8.39999999 12,8.39999999 Z M10.8,9.91199999 L10.8,16.464 L15,13.2 L10.8,9.91199999 Z" fill="#000000"></path>
    </g>
</svg>