<?xml version="1.0" encoding="UTF-8"?>
<svg width="24px" height="24px" viewBox="0 0 24 24" version="1.1" xmlns="http://www.w3.org/2000/svg" xmlns:xlink="http://www.w3.org/1999/xlink">
    <title>icons/functional_UI/E-M/mdpi/ic_Gauge_rate</title>
    <g id="icons/functional_UI/E-M/ic_Gauge_rate" stroke="none" stroke-width="1" fill="none" fill-rule="evenodd">
        <path d="M12,1.79999996 C6.36669598,1.79999996 1.79999996,6.36669598 1.79999996,12 C1.79999996,17.633304 6.36669598,22.2 12,22.2 C17.633304,22.2 22.2,17.633304 22.2,12 C22.2,6.36669598 17.633304,1.79999996 12,1.79999996 Z M12,3.59999996 C16.6392,3.59999996 20.4,7.36079998 20.4,12 L16.793112,12 C16.7296154,10.4908528 16.1705125,9.04469935 15.20232,7.88531998 L14.381712,12.343368 C14.2358856,13.3412892 13.48252,14.1420107 12.4953292,14.3483271 C11.5081384,14.5546435 10.4971458,14.1226614 9.96386366,13.2666694 C9.43058153,12.4106775 9.48846483,11.3127866 10.1088,10.517616 L13.158936,6.21717598 C10.3883418,4.73383549 6.96547957,5.3095317 4.83256797,7.61759998 C6.30914398,5.20778397 8.96675999,3.59999996 12,3.59999996 Z M10.594296,10.870344 L10.594704,10.870512 C10.1189195,11.4656078 10.0684316,12.2954967 10.4685667,12.9438808 C10.8687018,13.5922648 11.633127,13.9192491 12.378383,13.7608082 C13.1236389,13.6023673 13.6889297,12.9926862 13.790688,12.2376 L13.791072,12.237768 L15.251472,4.30396797 L10.594296,10.870344 Z" fill="#000000"></path>
    </g>
</svg>