<?xml version="1.0" encoding="UTF-8"?>
<svg width="24px" height="24px" viewBox="0 0 24 24" version="1.1" xmlns="http://www.w3.org/2000/svg" xmlns:xlink="http://www.w3.org/1999/xlink">
    <title>icons/functional_UI/E-M/mdpi/ic_Gesture</title>
    <g id="icons/functional_UI/E-M/ic_Gesture" stroke="none" stroke-width="1" fill="none" fill-rule="evenodd">
        <path d="M16.42658,10.825384 L16.33238,10.725384 L16.33238,10.725384 L16.42658,10.825384 Z M22.770192,15.578232 C22.6900304,14.6968618 22.4327636,13.8407452 22.013808,13.061184 L19.777368,8.88187199 C19.5163042,8.39449214 19.1027586,8.00605921 18.6,7.77599998 L18.6,3.59999996 C18.5991256,2.27420414 17.5240681,1.19999995 16.198272,1.19999995 L1.79999996,1.19999995 L1.79999996,15.6 C1.79999996,16.2364814 2.05276638,16.8469093 2.50279968,17.2969967 C2.95283298,17.747084 3.56323058,17.9999618 4.19971197,18 L9.64365599,18 L10.341072,19.3032 C11.8272208,22.0784185 15.0621477,23.4232446 18.0777234,22.5194861 C21.093299,21.6157276 23.0553615,18.7133802 22.770192,15.578232 Z M7.64277598,3.40783196 C8.75001599,2.88448796 10.040784,2.93061596 11.18412,3.53435996 C12.436272,4.19553597 13.499472,4.25563197 13.993584,4.23796797 L13.993584,2.99999996 L16.58604,4.69005597 C16.908432,4.90022397 16.908432,5.29977597 16.58604,5.50996797 L13.993584,7.19999998 L13.993584,6.03710398 C13.7565176,6.04206742 13.5193578,6.03395912 13.283184,6.01281598 C12.293472,5.92555197 11.277,5.61895197 10.343712,5.12613597 C9.70607999,4.78941597 9.00187199,4.75627197 8.41171199,5.03524797 C8.22742337,5.12157109 8.05936958,5.2389733 7.91491198,5.38231197 C7.4369974,4.89679472 6.74043293,4.69574107 6.07730398,4.85191197 C6.42364798,4.23345597 6.96357598,3.72890397 7.64277598,3.40785596 L7.64277598,3.40783196 Z M18.733368,20.9586 C16.09428,22.369584 12.810552,21.374952 11.398968,18.73704 L5.32859997,7.39315198 C5.10041444,6.96635822 5.11725407,6.45024899 5.37277555,6.03923764 C5.62829702,5.62822629 6.08368054,5.38475522 6.56738755,5.40053763 C7.05109456,5.41632005 7.48963845,5.68895821 7.71782398,6.11575198 L10.9128,12.086184 C10.5626873,11.4267355 10.8121589,10.6083276 11.4705922,10.2563095 C12.1290255,9.90429141 12.9481514,10.1513953 13.302072,10.808808 L13.621536,11.405832 C13.2687984,10.7460594 13.5176994,9.92525763 14.177472,9.57251999 C14.8372446,9.21978235 15.6580464,9.46868337 16.010784,10.128456 L16.352832,10.7676 L16.330296,10.725504 C15.9775518,10.065738 16.2264421,9.24493629 16.886208,8.89219203 C17.545974,8.53944776 18.3667757,8.78833802 18.71952,9.44810399 L20.955984,13.627416 C22.367544,16.265352 21.372456,19.547616 18.733368,20.9586 Z" fill="#000000"></path>
    </g>
</svg>