<?xml version="1.0" encoding="UTF-8"?>
<svg width="24px" height="24px" viewBox="0 0 24 24" version="1.1" xmlns="http://www.w3.org/2000/svg" xmlns:xlink="http://www.w3.org/1999/xlink">
    <title>icons/functional_UI/A-E/mdpi/ic_Guideline_DNA</title>
    <g id="icons/functional_UI/A-E/ic_Guideline_DNA" stroke="none" stroke-width="1" fill="none" fill-rule="evenodd">
        <path d="M17.1571158,1.79573199 C16.6856981,1.79377373 16.3019399,2.17432996 16.2999558,2.64574757 L16.2999558,2.99573957 L9.01425178,2.99573957 C8.68288093,2.99573957 8.41425178,3.26436872 8.41425178,3.59573957 C8.41425178,3.92711042 8.68288093,4.19573957 9.01425178,4.19573957 L16.2922758,4.19573957 C16.2711133,4.60042299 16.2120467,5.00223011 16.1158518,5.39588357 C16.1139318,5.39588357 16.1120358,5.39573957 16.1101158,5.39573957 L9.61425178,5.39573957 C9.28288093,5.39573957 9.01425178,5.66436872 9.01425178,5.99573957 C9.01425178,6.32711042 9.28288093,6.59573957 9.61425178,6.59573957 L15.7023318,6.59573957 C15.5107228,7.01793553 15.2774122,7.4199319 15.0058758,7.79573199 L11.4142518,7.79573199 C11.0828809,7.79573199 10.8142518,8.06436872 10.8142518,8.39573957 C10.8142518,8.72711042 11.0828809,8.99573957 11.4142518,8.99573957 L13.9179798,8.99573957 L12.8129718,10.0002356 L14.0869638,11.1483236 L15.1532598,10.1789396 C16.4309238,9.01753157 17.3284998,7.54736357 17.7490278,5.92736357 C17.9232184,5.26332355 18.0123399,4.57984365 18.0142518,3.89333957 L18.0142518,2.64581957 C18.013318,2.41942805 17.9224878,2.20268009 17.7617432,2.04325875 C17.6009986,1.88383741 17.3835073,1.79480195 17.1571158,1.79573199 Z M15.2557878,13.6910996 C15.1198038,13.5837716 10.0132038,8.92585157 10.0132038,8.92585157 C8.98600378,7.98745157 8.26571578,6.80405957 7.92985978,5.50359557 C7.79225004,4.97779397 7.72167436,4.43670297 7.71981178,3.89319557 L7.71981178,2.64567557 C7.7173226,2.17646394 7.33625001,1.7974076 6.86703178,1.7974076 C6.39781355,1.7974076 6.01674097,2.17646394 6.01425178,2.64567557 L6.01425178,3.89333957 C6.01613127,4.57979747 6.10478613,5.26326404 6.27810778,5.92748357 C6.69652378,7.54748357 7.58953978,9.01767557 8.86069978,10.1790836 C8.86069978,10.1790836 14.0302998,14.8923236 14.1968598,15.0238436 C15.8918838,16.3617956 16.2476838,18.0596276 16.2476838,19.2482996 L16.2476838,21.3458996 C16.250173,21.8151112 16.6312455,22.1941675 17.1004638,22.1941675 C17.569682,22.1941675 17.9507546,21.8151112 17.9532438,21.3458996 L17.9532438,19.2482996 C17.9532438,17.0377076 16.9952598,15.0641636 15.2557878,13.6910996 Z M15.0142518,19.7957396 L7.72854778,19.7957396 L7.72854778,19.2482276 C7.72846813,19.0215016 7.74171497,18.794967 7.76821978,18.5697956 C7.81953367,18.5869202 7.87326789,18.5956801 7.92736378,18.5957396 L14.5084518,18.5957396 C14.7877919,18.5957263 15.0142385,18.3692797 15.0142518,18.0899396 L15.0142518,18.0899396 C15.0142518,17.7065435 14.7034479,17.3957396 14.3200518,17.3957396 L8.04225178,17.3957396 C8.19523567,16.9694522 8.40513571,16.5657982 8.66625178,16.1957396 L12.6142518,16.1957396 C12.9456226,16.1957396 13.2142518,15.9271104 13.2142518,15.5957396 C13.2142518,15.2643687 12.9456226,14.9957396 12.6142518,14.9957396 L9.82528378,14.9957396 C9.97753978,14.8751156 10.1101158,14.7633956 10.2289878,14.6553476 L11.2255158,13.7494676 L9.99133978,12.5651876 L9.07057978,13.4021396 C8.97181978,13.4919236 8.86216378,13.5837236 8.72557978,13.6910276 C6.97713178,15.0641636 6.01425178,17.0377076 6.01425178,19.2482276 L6.01425178,21.3458276 C6.01856241,21.8161524 6.40105521,22.1951556 6.87139978,22.1951556 C7.34174435,22.1951556 7.72423715,21.8161524 7.72854778,21.3458276 L7.72854778,20.9957396 L15.0142518,20.9957396 C15.3456226,20.9957396 15.6142518,20.7271104 15.6142518,20.3957396 C15.6142518,20.0643687 15.3456226,19.7957396 15.0142518,19.7957396 Z" id="Guideline" fill="#000000"></path>
    </g>
</svg>