<?xml version="1.0" encoding="UTF-8"?>
<svg width="24px" height="24px" viewBox="0 0 24 24" version="1.1" xmlns="http://www.w3.org/2000/svg" xmlns:xlink="http://www.w3.org/1999/xlink">
    <title>icons/functional_UI/E-M/mdpi/ic_Gauge_counter</title>
    <g id="icons/functional_UI/E-M/ic_Gauge_counter" stroke="none" stroke-width="1" fill="none" fill-rule="evenodd">
        <path d="M12,1.79999996 C6.36669598,1.79999996 1.79999996,6.36669598 1.79999996,12 C1.79999996,17.633304 6.36669598,22.2 12,22.2 C17.633304,22.2 22.2,17.633304 22.2,12 C22.2,6.36669598 17.633304,1.79999996 12,1.79999996 Z M17.723784,18.148152 L17.298816,17.723088 L17.298816,17.723088 L16.454784,16.879032 L16.879032,16.454784 L17.723208,17.298936 C18.2824307,16.6954919 18.7428386,16.0075125 19.087416,15.260424 L17.982792,14.802864 L18.2124,14.248464 L19.317432,14.706168 C19.6025616,13.9343807 19.7633235,13.1222111 19.793712,12.3 L18.5999939,12.3 L18.5999939,11.7 L19.793712,11.7 C19.7633336,10.8777565 19.6025715,10.0655538 19.317432,9.29373599 L18.2124,9.75143999 L17.982792,9.19703999 L19.087416,8.73947999 C18.7428441,7.99239298 18.2824086,7.3044329 17.723136,6.70103998 L16.879032,7.54514398 L16.454784,7.12087198 L17.298864,6.27676798 C16.8184288,5.83179392 16.2840062,5.44892541 15.708144,5.13715197 L14.381712,12.343368 C14.2358856,13.3412892 13.48252,14.1420107 12.4953292,14.3483271 C11.5081384,14.5546435 10.4971458,14.1226614 9.96386366,13.2666694 C9.43058153,12.4106775 9.48846483,11.3127866 10.1088,10.517616 L14.336352,4.55697597 C13.676173,4.35008643 12.9913542,4.23215115 12.3,4.20628797 L12.3,5.39999997 L11.7,5.39999997 L11.7,4.20628797 C10.8777565,4.23666641 10.0655538,4.39742846 9.29373599,4.68256797 L9.75143999,5.78759997 L9.19703999,6.01720798 L8.73947999,4.91258397 C7.99239298,5.2571559 7.3044329,5.71759142 6.70103998,6.27686398 L7.54514398,7.12096798 L7.12087198,7.54523998 L6.27676798,6.70113598 C5.71749542,7.3045289 5.2570599,7.99248898 4.91248797,8.73957599 L6.01711198,9.19713599 L5.78750397,9.75153599 L4.68247197,9.29383199 C4.39737517,10.0656247 4.23664572,10.8777941 4.20628797,11.7 L5.39999997,11.7 L5.39999997,12.3 L4.20628797,12.3 C4.23666641,13.1222435 4.39742846,13.9344462 4.68256797,14.706264 L5.78759997,14.24856 L6.01720798,14.80296 L4.91258397,15.26052 C5.25716143,16.0076085 5.71756932,16.6955879 6.27679198,17.299032 L7.12096798,16.45488 L7.54523998,16.879128 L6.70118398,17.723184 L6.70118398,17.723184 L6.27621598,18.148152 C4.56707453,16.5607435 3.59719067,14.3325999 3.59999388,12 C3.59999388,7.36079998 7.36079998,3.59999997 12,3.59999997 C16.6392,3.59999997 20.400006,7.36079998 20.400006,12 C20.4027709,14.3325641 19.4328912,16.5606633 17.723784,18.148152 Z M10.594704,10.870512 C10.1189195,11.4656078 10.0684316,12.2954967 10.4685667,12.9438808 C10.8687018,13.5922648 11.633127,13.9192491 12.378383,13.7608082 C13.1236389,13.6023673 13.6889297,12.9926862 13.790688,12.2376 L13.791072,12.237768 L15.251472,4.30396797 L10.594296,10.870368 L10.594704,10.870512 Z" fill="#000000"></path>
    </g>
</svg>