<?xml version="1.0" encoding="UTF-8"?>
<svg width="24px" height="24px" viewBox="0 0 24 24" version="1.1" xmlns="http://www.w3.org/2000/svg" xmlns:xlink="http://www.w3.org/1999/xlink">
    <title>icons/functional_UI/E-M/mdpi/ic_Gauge_Mon_Reseau</title>
    <g id="icons/functional_UI/E-M/ic_Gauge_Mon_Reseau" stroke="none" stroke-width="1" fill="none" fill-rule="evenodd">
        <path d="M11.97,1.79392796 C17.603304,1.79392796 22.2,6.34269598 22.2,11.976 L22.2,11.976 L22.2,12.6 C22.2,13.262736 21.638736,13.8 20.976,13.8 L2.99999996,13.8 C2.33725826,13.8 1.79999996,13.2627417 1.79999996,12.6 L1.79999996,11.976 C1.79999996,6.34269598 6.33669598,1.79392796 11.97,1.79392796 Z M16.868304,9.63839999 L17.097936,10.194072 L19.865976,9.04475999 C19.824552,8.93361599 19.781184,8.82302399 19.734888,8.71331999 C19.703088,8.63798399 19.669944,8.56341599 19.636104,8.48923199 L19.635528,8.48944799 C19.2601559,7.66839016 18.7554238,6.91290845 18.140592,6.25183198 L16.866624,7.52879998 C17.3154739,8.02088061 17.6875971,8.57779911 17.970456,9.18079199 L16.868304,9.63839999 Z M7.88450398,6.81388798 L7.90130398,6.80049598 C7.91007198,6.79358398 7.91883198,6.78668798 7.92758398,6.77980798 C8.11572608,6.63206662 8.31171593,6.49460213 8.51469599,6.36801598 L8.51709599,6.36731998 C10.2058436,5.31935461 12.2726065,5.07495248 14.159208,5.70011997 C12.486768,7.53501598 10.349904,9.92234399 10.349904,9.92234399 L10.350288,9.92253599 C9.92655639,10.3443278 9.72419605,10.939854 9.80322603,11.5324847 C9.882256,12.1251153 10.2336018,12.6468023 10.753056,12.942816 C11.67156,13.465872 12.840336,13.096968 13.363584,12.178032 C13.4489474,12.0280933 13.5136685,11.867312 13.555992,11.700048 L13.5564,11.748288 C13.5564,11.748288 14.485704,8.55321599 15.259536,6.17999998 C15.7026816,6.42297256 16.1170119,6.7151469 16.494672,7.05098398 L17.716272,5.82652797 C16.2689654,4.47174409 14.3871994,3.67554624 12.40704,3.58012796 C12.396192,3.57959996 12.38544,3.57943196 12.374544,3.57892796 C12.317208,3.57635996 12.2598,3.57412796 12.202176,3.57266396 C12.13296,3.57106396 12.063584,3.57011996 11.994048,3.57011996 C11.92908,3.57011996 11.864256,3.57105596 11.799528,3.57251996 C11.774184,3.57307196 11.748936,3.57405596 11.723616,3.57491996 C11.6856,3.57610396 11.647616,3.57749596 11.609664,3.57909596 C11.576448,3.58059996 11.543264,3.58232796 11.510112,3.58427996 C11.482512,3.58587996 11.454928,3.58758396 11.42736,3.58939196 C11.387136,3.59210396 11.346936,3.59488796 11.306856,3.59815196 C11.292192,3.59935196 11.277552,3.60069597 11.262912,3.60196797 C10.5920812,3.65985309 9.93072109,3.7987106 9.29325599,4.01551197 L9.29260799,4.01457597 C9.10137599,4.07974397 8.91211199,4.15193597 8.72481599,4.23115197 C8.53622399,4.31115197 8.35128798,4.39760797 8.17000798,4.49051997 L8.17022398,4.49159997 C7.47884086,4.84685734 6.83997506,5.29613103 6.27182398,5.82662397 L7.54516798,7.10296798 C7.65499198,7.00285598 7.76810398,6.90649598 7.88450398,6.81388798 Z M6.89008798,10.194048 L7.11967198,9.63837599 L6.01751998,9.18076799 C6.3003906,8.57778328 6.6725216,8.02087324 7.12137598,7.52879998 L5.84733597,6.25175998 C5.84729283,6.25182751 5.8472355,6.25188483 5.84716797,6.25192798 C5.23238788,6.91297545 4.72769683,7.66841572 4.35235197,8.48942399 L4.35191997,8.48923199 C4.31805597,8.56341599 4.28491197,8.63803199 4.25311197,8.71331999 C4.20681597,8.82302399 4.16347197,8.93361599 4.12202397,9.04475999 L6.89008798,10.194048 Z M12.948312,11.586336 L12.948048,11.586192 C12.919373,11.7006823 12.8754865,11.8108142 12.81756,11.913648 C12.6494838,12.2151483 12.3676635,12.43678 12.0350389,12.5290455 C11.7024142,12.6213109 11.3466932,12.5765243 11.04732,12.404688 C10.6942852,12.1993597 10.4562857,11.8420679 10.4028406,11.4371767 C10.3493955,11.0322854 10.4865346,10.6254759 10.7742,10.335576 L10.773936,10.335432 L14.68812,6.00014398 L12.948312,11.586336 Z" fill="#000000"></path>
    </g>
</svg>