<?xml version="1.0" encoding="UTF-8"?>
<svg width="24px" height="24px" viewBox="0 0 24 24" version="1.1" xmlns="http://www.w3.org/2000/svg" xmlns:xlink="http://www.w3.org/1999/xlink">
    <title>icons/functional_UI/E-M/mdpi/ic_Guide_help</title>
    <g id="icons/functional_UI/E-M/ic_Guide_help" stroke="none" stroke-width="1" fill="none" fill-rule="evenodd">
        <path d="M16.8,4.20074397 C15,4.20074397 13.363632,4.66730397 12,5.49914397 C10.636368,4.66730397 8.99999999,4.19999997 7.19999998,4.19999997 L1.79999996,4.19999997 L1.79999996,16.308 C1.79999996,16.908 2.27999996,17.399256 2.87999996,17.399256 L7.19999998,17.4 C8.15999998,17.4 9.07574399,17.562336 9.88864799,17.90616 C10.495296,18.162744 11.556864,18.926808 11.556864,18.926808 C11.76,19.068 11.82576,19.116 12,19.116 C12.17424,19.116 12.24,19.068 12.443112,18.926808 C12.443112,18.926808 13.504704,18.162744 14.111352,17.90616 C14.924256,17.562336 15.84,17.399256 16.8,17.399256 L21.12,17.398488 C21.4078901,17.3973074 21.6834964,17.2817027 21.8860811,17.0771507 C22.0886658,16.8725986 22.2016017,16.5958881 22.2000168,16.308 L22.2000168,4.19925597 L16.8,4.20074397 Z M20.9999998,15.596808 C21.0002409,15.9287575 20.7319467,16.1983717 20.4,16.19976 L16.8,16.19976 C15.6,16.19976 14.605104,16.39416 13.64424,16.80048 C13.189728,16.99272 12.36,17.508 12.36,17.508 C12.26136,17.579184 12.12,17.61 11.9999998,17.61 C11.88,17.61 11.73864,17.579184 11.64,17.508 C11.64,17.508 10.810272,16.99272 10.35576,16.80048 C9.39489599,16.394064 8.39999998,16.19976 7.19999998,16.19976 L3.59999996,16.19976 C3.26805327,16.1983717 2.99975906,15.9287575 2.9999998,15.596808 L2.9999998,14.998296 L7.19853598,14.998296 C8.99853599,14.998296 10.636368,15.467304 11.9999998,16.299096 C13.363632,15.467328 14.9999998,14.999784 16.8,14.999784 L20.9999998,14.999784 L20.9999998,15.596832 L20.9999998,15.596808 Z M3.59999996,6.59798398 L8.39999999,6.59798398 C8.72907071,6.60214236 8.99365078,6.87008698 8.99365078,7.19918398 C8.99365078,7.52828098 8.72907071,7.7962256 8.39999999,7.80038398 L3.59999996,7.80038398 C3.27092924,7.7962256 3.00634917,7.52828098 3.00634917,7.19918398 C3.00634917,6.87008698 3.27092924,6.60214236 3.59999996,6.59798398 Z M3.59999996,9.00038399 L8.39999998,9.00038399 C8.73137083,9.00038399 8.99999996,9.26901315 8.99999996,9.60038399 C8.99999996,9.93175483 8.73137083,10.200384 8.39999998,10.200384 L3.59999996,10.200384 C3.27121274,10.1967821 3.00657253,9.92922694 3.00657253,9.60041999 C3.00657253,9.27161304 3.27121274,9.00405783 3.59999996,9.00045599 L3.59999996,9.00038399 Z M3.59999996,11.398152 L5.99999997,11.398152 C6.33207333,11.398152 6.60127198,11.6673506 6.60127198,11.999424 C6.60127198,12.3314974 6.33207333,12.600696 5.99999997,12.600696 L3.59999996,12.600696 C3.27051295,12.5970903 3.0053075,12.3289667 3.0053075,11.99946 C3.0053075,11.6699533 3.27051295,11.4018297 3.59999996,11.398224 L3.59999996,11.398152 Z M17.486232,13.025496 C17.3689074,13.1383162 17.2121974,13.2009141 17.049432,13.199976 C16.8838196,13.2019086 16.7237732,13.1402506 16.602264,13.027704 C16.47476,12.91292 16.411032,12.75236 16.41108,12.546024 C16.4069383,12.3732163 16.4737163,12.2062454 16.59588,12.083952 C16.7143397,11.9609716 16.8787617,11.8930279 17.04948,11.896512 C17.2177501,11.8930835 17.379574,11.9612079 17.494728,12.083952 C17.6145563,12.2074594 17.6796376,12.3739946 17.675304,12.546024 C17.675272,12.749512 17.612248,12.90936 17.486232,13.025568 L17.486232,13.025496 Z M19.054776,8.98881599 C18.9647719,9.16572574 18.8486735,9.32809354 18.710376,9.47047199 C18.577464,9.60559199 18.338776,9.83301599 17.994312,10.152744 C17.9137146,10.2276692 17.8373182,10.3069901 17.765472,10.390344 C17.7156002,10.4475831 17.6726183,10.5104772 17.637408,10.577736 C17.610243,10.6321517 17.5884208,10.6890742 17.572248,10.747704 C17.556904,10.804424 17.533816,10.903984 17.502984,11.046384 C17.449864,11.348624 17.28328,11.499752 17.003232,11.499768 C16.8655521,11.5029646 16.7326268,11.4493484 16.635696,11.35152 C16.536368,11.252768 16.486696,11.106024 16.48668,10.911288 C16.48668,10.667112 16.523064,10.455672 16.595832,10.276968 C16.6646925,10.1046177 16.7627528,9.94543013 16.885704,9.80639999 C17.0398448,9.63764239 17.2024541,9.47681939 17.372904,9.32455199 C17.551928,9.16192799 17.681392,9.03915999 17.761296,8.95624799 C17.8409311,8.87371584 17.9087734,8.78057002 17.962896,8.67945599 C18.0175228,8.57766342 18.0456973,8.46377681 18.044832,8.34825598 C18.048935,8.12548389 17.9580522,7.91148957 17.794896,7.75975198 C17.628304,7.59999998 17.41344,7.52007998 17.150304,7.51996798 C16.842256,7.51996798 16.615456,7.60063198 16.469904,7.76195998 C16.324352,7.92328798 16.201152,8.16084798 16.100304,8.47463999 C16.00504,8.80305599 15.82444,8.96727199 15.558504,8.96728799 C15.4075539,8.96986719 15.2628541,8.90708547 15.161616,8.79508799 C15.053872,8.68017599 15,8.55585599 15,8.42212799 C15,8.14612798 15.085384,7.86643198 15.256152,7.58303998 C15.42692,7.29964798 15.67612,7.06497598 16.003752,6.87902398 C16.331384,6.69300798 16.7136,6.59999998 17.1504,6.59999998 C17.556192,6.59999998 17.914592,6.67774398 18.2256,6.83323198 C18.536272,6.98875198 18.776328,7.20016798 18.945768,7.46747998 C19.1130076,7.72740688 19.201292,8.03024999 19.1999436,8.33932798 C19.1998,8.58636799 19.151416,8.80288799 19.054776,8.98888799 L19.054776,8.98881599 Z" fill="#000000"></path>
    </g>
</svg>