<?xml version="1.0" encoding="UTF-8"?>
<svg width="24px" height="24px" viewBox="0 0 24 24" version="1.1" xmlns="http://www.w3.org/2000/svg" xmlns:xlink="http://www.w3.org/1999/xlink">
    <title>icons/functional_UI/E-M/mdpi/ic_Gauge_capacity</title>
    <g id="icons/functional_UI/E-M/ic_Gauge_capacity" stroke="none" stroke-width="1" fill="none" fill-rule="evenodd">
        <path d="M10.596504,10.868136 L10.596888,10.868304 C10.1209906,11.4633885 10.0704268,12.2933488 10.4705637,12.941804 C10.8707007,13.5902593 11.635193,13.9172797 12.3805043,13.758803 C13.1258156,13.6003264 13.6911155,12.9905503 13.7928,12.235392 L13.793184,12.235536 L15.253656,4.30175997 L10.596504,10.868136 Z M12,22.2 C17.633304,22.2 22.2,17.633304 22.2,12 C22.2,6.36669598 17.633304,1.79999996 12,1.79999996 C6.36669598,1.79999996 1.79999996,6.36669598 1.79999996,12 C1.79999996,17.633304 6.36669598,22.2 12,22.2 Z M4.35871197,8.50756799 C4.73424742,7.6882181 5.2389742,6.93451914 5.85359997,6.27527998 L7.12751998,7.54919998 C6.67883393,8.0399394 6.30672167,8.59553891 6.02373598,9.19725599 L7.12586398,9.65375999 L6.89625598,10.20816 L4.12828797,9.06155999 C4.16973597,8.95067999 4.21307997,8.84035199 4.25937597,8.73088799 C4.29115197,8.65574399 4.32431997,8.58134399 4.35815997,8.50735199 L4.35871197,8.50756799 Z M17.103744,10.208088 L16.874136,9.65368799 L17.976264,9.19718399 C17.6932807,8.59548739 17.3211678,8.03991131 16.87248,7.54919998 L18.1464,6.27523198 L18.146544,6.27539998 C18.7611301,6.93459174 19.2658172,7.6882434 19.641312,8.50754399 L19.641768,8.50735199 C19.675608,8.58134399 19.708776,8.65574399 19.740552,8.73088799 C19.786848,8.84035199 19.830192,8.95067999 19.87164,9.06155999 L17.103744,10.208088 Z M11.061144,14.20368 C10.1756761,13.8257294 9.60145813,12.9555562 9.60220799,11.9928 L9.60220799,11.9928 C9.60273672,11.457455 9.78178155,10.9375747 10.111008,10.515432 L13.600248,5.59583997 C11.4552585,5.06160965 9.18521654,5.63554479 7.55188798,7.12504798 L6.27796798,5.85119997 C7.72647039,4.49910212 9.60780715,3.70493173 11.587032,3.61007997 C11.597856,3.60955197 11.608632,3.60935997 11.619528,3.60887997 C11.67684,3.60633597 11.734248,3.60407997 11.791872,3.60263997 C11.86112,3.60087997 11.930496,3.59999996 12,3.59999996 C12.064968,3.59999996 12.129792,3.60093597 12.19452,3.60239997 C12.219864,3.60297597 12.245112,3.60395997 12.270408,3.60479997 C12.308424,3.60599997 12.346416,3.60719997 12.38436,3.60899997 C12.417592,3.61050397 12.450776,3.61222397 12.483912,3.61415997 C12.511528,3.61575997 12.539112,3.61745597 12.566664,3.61924797 C12.606888,3.62193597 12.647088,3.62474397 12.687168,3.62798397 C12.701832,3.62915997 12.716448,3.63052797 12.731112,3.63179997 C13.4018516,3.68953394 14.063166,3.82804847 14.700696,4.04433597 L14.701344,4.04342397 C14.892592,4.10841597 15.081848,4.18041597 15.269112,4.25942397 C15.457704,4.33916797 15.64264,4.42540797 15.82392,4.51814397 L15.823704,4.51922397 C16.5148894,4.87350606 17.1537441,5.32169781 17.722104,5.85105597 L16.448112,7.12504798 C16.1482857,6.85126132 15.8239293,6.60561205 15.479136,6.39119998 L14.38392,12.341184 C14.2763134,13.0794211 13.8318957,13.7257937 13.1811182,14.0905702 C12.5303407,14.4553467 11.7470412,14.4971391 11.061144,14.20368 Z" fill="#000000"></path>
    </g>
</svg>