<?xml version="1.0" encoding="UTF-8"?>
<svg width="24px" height="24px" viewBox="0 0 24 24" version="1.1" xmlns="http://www.w3.org/2000/svg" xmlns:xlink="http://www.w3.org/1999/xlink">
    <title>icons/functional_UI/E-M/mdpi/ic_Gathering</title>
    <g id="icons/functional_UI/E-M/ic_Gathering" stroke="none" stroke-width="1" fill="none" fill-rule="evenodd">
        <path d="M17.34,4.74856531 C16.9012422,4.74796009 16.4685982,4.85144097 16.0776,5.05051197 C16.5835062,6.49005952 16.2911006,8.08977984 15.308664,9.25727999 C15.7793928,9.52136186 16.2152198,9.84331991 16.605984,10.215648 C16.60932,10.2186 16.612512,10.221744 16.6158,10.22472 C17.6616451,10.506206 18.775843,10.156051 19.4726542,9.3269067 C20.1694654,8.49776235 20.3225857,7.33991963 19.8652615,6.35814532 C19.4079373,5.37637101 18.4230634,4.74862186 17.34,4.74856531 L17.34,4.74856531 Z M5.51999997,14.16 C5.51996712,14.1193147 5.52510426,14.0787902 5.53528797,14.0394 C5.60165734,13.0956569 5.90036261,12.1829692 6.40480798,11.3826 C6.49879198,11.234304 6.59990398,11.091528 6.70660798,10.953768 C6.69107998,10.95396 6.67557598,10.95432 6.65999996,10.95432 C5.76295946,10.9555523 4.8972486,10.624509 4.22990397,10.025064 C3.03460283,10.5976112 2.24442243,11.7740083 2.16645596,13.097064 L2.15999996,13.097064 L2.15999996,16.74 C2.15999996,17.5684271 2.83157284,18.24 3.65999996,18.24 L5.51999997,18.24 L5.51999997,14.16 Z M7.38419998,10.22472 C7.38751198,10.221744 7.39067998,10.2186 7.39401598,10.215648 C7.78478019,9.84331991 8.22060715,9.52136186 8.69133599,9.25727999 C7.71101193,8.088772 7.41887197,6.49019651 7.92254398,5.05048797 C6.81471387,4.48823393 5.46846451,4.72756927 4.62230551,5.63720222 C3.7761465,6.54683517 3.63464589,7.90685219 4.27542641,8.97119119 C4.91620692,10.0355302 6.18435298,10.5468758 7.38419998,10.22472 L7.38419998,10.22472 Z M21.833544,13.09716 C21.7555721,11.774113 20.9654049,10.5977219 19.77012,10.02516 C19.1027526,10.6245718 18.2370353,10.9555801 17.34,10.95432 C17.324424,10.95432 17.30892,10.95396 17.293392,10.953768 C17.400096,11.091528 17.501208,11.234304 17.595192,11.3826 C18.0996374,12.1829692 18.3983427,13.0956569 18.464712,14.0394 C18.4748957,14.0787902 18.4800329,14.1193147 18.48,14.16 L18.48,18.24 L21.84,18.24 L21.84,13.09716 L21.833544,13.09716 Z M17.991432,14.16 C17.88876,12.3024 16.83924,10.712088 15.34224,9.91223999 C14.4462116,10.6918715 13.3053116,11.1328643 12.117864,11.15856 C12.078696,11.15952 12.039408,11.16 12,11.16 L11.999544,11.16 C11.96028,11.16 11.921144,11.15952 11.882136,11.15856 C10.6946852,11.1328804 9.55377984,10.6918856 8.65775999,9.91223999 C7.16075998,10.712088 6.11123998,12.3024 6.00856798,14.16 L5.99999997,14.16 L5.99999997,19.26 C5.99999997,20.419824 6.89543998,21.36 8.00001598,21.36 L18,21.36 L18,14.16 L17.991432,14.16 Z M15.84,6.47999998 C15.84,8.60077343 14.1207734,10.32 12,10.32 C9.87922655,10.32 8.15999998,8.60077343 8.15999998,6.47999998 C8.15999998,4.35922653 9.87922655,2.63999996 12,2.63999996 C14.1207734,2.63999996 15.84,4.35922653 15.84,6.47999998 Z" fill="#000000"></path>
    </g>
</svg>