<?xml version="1.0" encoding="UTF-8"?>
<svg width="24px" height="24px" viewBox="0 0 24 24" version="1.1" xmlns="http://www.w3.org/2000/svg" xmlns:xlink="http://www.w3.org/1999/xlink">
    <title>icons/functional_UI/E-M/mdpi/ic_Game_streaming</title>
    <g id="icons/functional_UI/E-M/ic_Game_streaming" stroke="none" stroke-width="1" fill="none" fill-rule="evenodd">
        <path d="M20.852472,12.792 C20.9506656,12.3345115 21.0001175,11.8679078 21,11.4 C21,7.75492798 18.045072,4.79999729 14.4,4.79999729 C12.4029835,4.79820163 10.5129804,5.70248306 9.26135999,7.25860798 C8.50979033,7.09946405 7.72600954,7.26778054 7.10604358,7.72146099 C6.48607761,8.17514143 6.08855159,8.87128496 6.01288798,9.63578399 C3.63890397,9.92534399 1.79999996,11.947824 1.79999996,14.4 C1.79999996,17.050968 3.94903197,19.2 6.59999998,19.2 L18.6,19.2 C20.1278985,19.2 21.4892748,18.2352674 21.9959544,16.7938273 C22.5026341,15.3523872 22.0442329,13.7481276 20.852472,12.792 Z M16.278312,16.8 C15.5586,16.8 14.943912,16.32528 14.696976,15.691392 L14.654088,15.589008 C14.489736,15.1932 14.116152,14.836224 13.66188,14.836224 L11.190984,14.836224 C10.736712,14.836224 10.350072,15.192696 10.18572,15.587976 L10.142832,15.691392 C9.89519999,16.32528 9.28019999,16.8 8.56149599,16.8 C7.62331198,16.8 6.86375826,15.958536 6.86375826,15.018456 C6.86342479,14.7828234 6.91209517,14.549696 7.00667998,14.33388 L8.52321599,10.68264 C8.77703588,10.0302461 9.40502605,9.60032392 10.105056,9.59971199 L14.734656,9.59971199 C15.4346133,9.60019044 16.0625315,10.0301938 16.316016,10.68264 L17.833032,14.33388 C17.9276333,14.5496925 17.9763201,14.78282 17.9760016,15.018456 C17.9760016,15.958536 17.215488,16.8 16.278312,16.8 Z M14.557944,10.7519986 C14.3593373,10.7515241 14.180022,10.8707956 14.1036885,11.0541479 C14.027355,11.2375001 14.069053,11.4487842 14.2093209,11.5893891 C14.3495889,11.729994 14.5607724,11.7721987 14.7443072,11.6963053 C14.9278421,11.6204119 15.0475441,11.4413833 15.0475441,11.242776 C15.0476901,10.9721264 14.8285932,10.7525032 14.557944,10.7519986 L14.557944,10.7519986 Z M14.557944,13.0298384 C14.3592777,13.0293349 14.1798973,13.148634 14.1035454,13.3320432 C14.0271936,13.5154524 14.0689282,13.7268001 14.2092659,13.8674198 C14.3496035,14.0080395 14.5608669,14.0501984 14.7444291,13.9742149 C14.9279912,13.8982314 15.0476502,13.7190909 15.0475441,13.520424 C15.047439,13.2499094 14.8284578,13.0304882 14.557944,13.0298384 Z M13.407384,11.8906303 C13.2086784,11.8901173 13.029247,12.0094032 12.9528219,12.1928245 C12.8763968,12.3762458 12.9180428,12.5876468 13.0583257,12.7283765 C13.1986087,12.8691063 13.4098762,12.9114243 13.5935396,12.8355829 C13.777203,12.7597414 13.8970588,12.5806902 13.8971764,12.381984 C13.8975077,12.1110894 13.6782783,11.8911617 13.407384,11.8906303 L13.407384,11.8906303 Z M11.452464,11.890632 L10.7988,11.890632 L10.7988,11.2362 C10.801569,11.0592189 10.7087363,10.8944838 10.555911,10.8051843 C10.4030857,10.7158847 10.2139943,10.7158847 10.061169,10.8051843 C9.90834373,10.8944838 9.81551103,11.0592189 9.81827999,11.2362 L9.81827999,11.890752 L9.16461599,11.890752 C8.89616533,11.8945061 8.68051316,12.1131951 8.68051316,12.381672 C8.68051316,12.6501489 8.89616533,12.8688379 9.16461599,12.872592 L9.81839999,12.872592 L9.81839999,13.527144 C9.81563103,13.7041251 9.90846373,13.8688602 10.061289,13.9581598 C10.2141143,14.0474593 10.4032057,14.0474593 10.556031,13.9581598 C10.7088563,13.8688602 10.801689,13.7041251 10.79892,13.527144 L10.79892,12.872592 L11.452584,12.872592 C11.7210343,12.8688052 11.9366599,12.6500898 11.9366271,12.3816128 C11.9365943,12.1131358 11.7209152,11.8944731 11.452464,11.890752 L11.452464,11.890632 Z M15.694152,11.8906319 C15.4229574,11.890526 15.2030198,12.1102774 15.2028961,12.381472 C15.2027725,12.6526666 15.4225095,12.8726185 15.6937041,12.87276 C15.9648987,12.8729013 16.1848649,12.6531786 16.1850247,12.381984 C16.1852472,12.2516842 16.1336175,12.12665 16.0415266,12.034469 C15.9494356,11.9422881 15.8244519,11.8905362 15.694152,11.8906319 Z" fill="#000000"></path>
    </g>
</svg>