<?xml version="1.0" encoding="UTF-8"?>
<svg width="24px" height="24px" viewBox="0 0 24 24" version="1.1" xmlns="http://www.w3.org/2000/svg" xmlns:xlink="http://www.w3.org/1999/xlink">
    <title>icons/functional_UI/E-M/mdpi/ic_History</title>
    <g id="icons/functional_UI/E-M/ic_History" stroke="none" stroke-width="1" fill="none" fill-rule="evenodd">
        <path d="M11.80992,10.86604 C11.8431246,10.85204 11.8763293,10.84004 11.90992,10.83204 C11.8763293,10.84104 11.8431246,10.85204 11.80992,10.86604 Z M13.2,7.19999998 C13.2,6.53725828 12.6627417,5.99999998 12,5.99999998 C11.3372583,5.99999998 10.8,6.53725828 10.8,7.19999998 L10.8,12 C10.8,12.03384 10.80144,12.06768 10.80432,12.10128 C10.80672,12.12864 10.80984,12.15576 10.81392,12.18264 C10.81464,12.18624 10.81512,12.1896 10.8156,12.1932 C10.81896,12.21384 10.82304,12.23472 10.82736,12.25512 C10.83168,12.27552 10.83672,12.2952 10.842,12.31512 C10.8425108,12.3165269 10.842912,12.3179712 10.8432,12.31944 C10.84608,12.32928 10.84872,12.33912 10.85184,12.34896 C10.85448,12.35808 10.85736,12.3672 10.86024,12.37608 C10.86432,12.38832 10.86864,12.40032 10.87296,12.41256 C10.88016,12.432 10.88784,12.45144 10.896,12.47064 C10.9106156,12.5051977 10.9269561,12.5390002 10.94496,12.57192 C10.94952,12.58032 10.95432,12.58872 10.95912,12.59712 C10.96392,12.60552 10.96872,12.61392 10.97376,12.62208 C10.98888,12.64656 11.00448,12.67056 11.02104,12.69408 L11.02152,12.69456 C11.03808,12.71808 11.05584,12.74112 11.07408,12.7632 C11.08032,12.77064 11.08656,12.77784 11.0928,12.78528 C11.11152,12.80688 11.1312,12.828 11.1516,12.8484 C11.15832,12.85512 11.16528,12.86184 11.17224,12.86856 C11.1792,12.87528 11.18616,12.88176 11.19336,12.88824 C11.20056,12.89472 11.20752,12.90096 11.21472,12.9072 C11.22024,12.91224 11.226,12.91704 11.23176,12.92184 L11.2368,12.92592 L14.11176,15.32184 C14.6211041,15.7432464 15.3753378,15.6733429 15.7985581,15.1655049 C16.2217784,14.657667 16.1545653,13.9031888 15.64824,13.47816 L13.2,11.43792 L13.2,7.19999998 Z M10.83376,11.74696 C10.85976,11.7136267 10.89076,11.6802933 10.92576,11.64696 C10.89176,11.6797085 10.86076,11.7130419 10.83376,11.74696 Z M11.80992,10.86604 C11.8431246,10.85204 11.8763293,10.84004 11.90992,10.83204 C11.8763293,10.84104 11.8431246,10.85204 11.80992,10.86604 Z M12.27216,10.83438 C12.3060886,10.86138 12.3394219,10.89138 12.37216,10.92538 C12.3391243,10.89138 12.305791,10.86138 12.27216,10.83438 Z M10.83376,11.74696 C10.85976,11.7136267 10.89076,11.6802933 10.92576,11.64696 C10.89176,11.6797085 10.86076,11.7130419 10.83376,11.74696 L10.83376,11.74696 Z M10.97376,12.62208 C11.0057397,12.65608 11.0387346,12.6894133 11.07376,12.72208 C11.038227,12.6894133 11.0052321,12.65608 10.97376,12.62208 L10.97376,12.62208 Z M11.12152,12.79456 C11.0863602,12.7620425 11.0525702,12.7288257 11.02152,12.69456 C11.0530268,12.7288257 11.0868168,12.7623922 11.12152,12.79456 L11.12152,12.79456 Z M11.1928,12.88528 C11.1572898,12.8529606 11.1242286,12.8195005 11.0928,12.78528 C11.1246367,12.8195005 11.1581061,12.8529606 11.1928,12.88528 Z M12,1.79999996 C8.72459999,1.79999996 5.80984797,3.34389596 3.94360797,5.74360797 L1.79999947,3.59999996 L1.79999947,8.26665598 L1.80753596,8.26665598 C1.80257536,8.31093172 1.79999947,8.35544727 1.79999947,8.39999998 C1.79969234,8.7415679 1.94508828,9.06705101 2.19969128,9.29474829 C2.45429428,9.52244557 2.79392966,9.63073705 3.13334396,9.59243999 L3.13334396,9.59999999 L7.79999947,9.59999999 L5.65792797,7.45792798 C6.49666583,6.28940705 7.64060874,5.37405512 8.96462399,4.81199997 C12.1384353,3.46767571 15.8182218,4.36251483 18.0203118,7.01413418 C20.2224019,9.66575353 20.4262058,13.4472915 18.5218585,16.3202251 C16.6175112,19.1931586 13.055214,20.4783059 9.75530307,19.4828794 C6.45539219,18.4874529 4.19799002,15.4467785 4.19999997,12 L4.19999997,12 L4.19999997,11.4 L4.19999997,11.4 C4.19999997,11.0686291 3.93137082,10.8 3.59999996,10.8 L2.39999996,10.8 C2.06862911,10.8 1.79999947,11.0686291 1.79999947,11.4 L1.79999947,11.4 L1.79999947,12 L1.79999947,12 C1.79999947,17.633304 6.36669598,22.2 12,22.2 C17.633304,22.2 22.2,17.633304 22.2,12 C22.2,6.36669598 17.633304,1.79999996 12,1.79999996 Z" fill="#000000"></path>
    </g>
</svg>