<?xml version="1.0" encoding="UTF-8"?>
<svg width="24px" height="24px" viewBox="0 0 24 24" version="1.1" xmlns="http://www.w3.org/2000/svg" xmlns:xlink="http://www.w3.org/1999/xlink">
    <title>icons/functional_UI/E-M/mdpi/ic_Healthcare</title>
    <g id="icons/functional_UI/E-M/ic_Healthcare" stroke="none" stroke-width="1" fill="none" fill-rule="evenodd">
        <path d="M19.08,1.43999996 L17.64,1.43999996 C16.97712,1.43999996 16.44,1.96871996 16.44,2.62103996 C16.44,3.27335996 16.97712,3.80183997 17.64,3.80183997 C18.22056,3.80183997 18.70488,3.39623996 18.816,2.85719996 L19.08,2.85719996 C19.87392,2.85719996 20.52,3.49295996 20.52,4.27439997 L20.52,8.52575999 C20.5208541,9.12374962 20.3987246,9.7155264 20.1612,10.26432 C19.9296503,10.7999979 19.5961867,11.2855619 19.17936,11.694 C17.3940677,13.4543187 14.5259323,13.4543187 12.74064,11.694 C12.3238133,11.2855619 11.9903497,10.7999979 11.7588,10.26432 C11.5212754,9.7155264 11.3991459,9.12374962 11.4,8.52575999 L11.4,4.27439997 C11.4,3.49295996 12.04608,2.85719996 12.84,2.85719996 L13.104,2.85719996 C13.21512,3.39623996 13.69944,3.80183997 14.28,3.80183997 C14.94288,3.80183997 15.48,3.27311996 15.48,2.62103996 C15.48,1.96895996 14.94288,1.43999996 14.28,1.43999996 L12.84,1.43999996 C11.24952,1.43999996 9.95999999,2.70887996 9.95999999,4.27439997 L9.95999999,8.52575999 C9.95999999,11.53368 12.27624,14.03472 15.24,14.38752 L15.24,16.32 C15.24,18.9709668 13.0909668,21.12 10.44,21.12 C7.78903318,21.12 5.63999997,18.9709668 5.63999997,16.32 L5.63999997,13.86 C7.12569317,13.5565922 8.15133736,12.1921837 8.02992669,10.6806944 C7.90851602,9.16920502 6.67823462,7.98600416 5.16316021,7.9236336 C3.64808579,7.86126303 2.32471518,8.93933855 2.07947991,10.4357343 C1.83424464,11.93213 2.74427215,13.3762237 4.19999997,13.80072 L4.19999997,16.32 C4.19999997,19.76616 6.99383998,22.56 10.44,22.56 C13.88616,22.56 16.68,19.76616 16.68,16.32 L16.68,14.38752 C19.64376,14.03472 21.96,11.53368 21.96,8.52575999 L21.96,4.27439997 C21.96,2.70887996 20.67048,1.43999996 19.08,1.43999996 Z M3.23999996,10.92 C3.23999996,9.92588744 4.04588742,9.11999999 5.03999997,9.11999999 C6.03411252,9.11999999 6.83999998,9.92588744 6.83999998,10.92 C6.83999998,11.9141125 6.03411252,12.72 5.03999997,12.72 C4.04639178,12.7187834 3.24121655,11.9136082 3.23999996,10.92 L3.23999996,10.92 Z M6.03998398,10.919992 C6.03998398,11.4722728 5.59225676,11.91996 5.03998397,11.91996 C4.48771118,11.91996 4.04001597,11.4722408 4.04001597,10.919968 C4.04001597,10.3676952 4.48772718,9.91999199 5.03999997,9.91999199 C5.30521638,9.91999199 5.55956986,10.0253504 5.74710393,10.212889 C5.934638,10.4004276 6.03998398,10.6547836 6.03998398,10.919992 L6.03998398,10.919992 Z" fill="#000000"></path>
    </g>
</svg>