<?xml version="1.0" encoding="UTF-8"?>
<svg width="24px" height="24px" viewBox="0 0 24 24" version="1.1" xmlns="http://www.w3.org/2000/svg" xmlns:xlink="http://www.w3.org/1999/xlink">
    <title>icons/functional_UI/E-M/mdpi/ic_Hard_drive</title>
    <g id="icons/functional_UI/E-M/ic_Hard_drive" stroke="none" stroke-width="1" fill="none" fill-rule="evenodd">
        <path d="M18,22.2 L5.99999997,22.2 C5.00588742,22.2 4.19999997,21.3941126 4.19999997,20.4 L4.19999997,3.59999996 C4.19999997,2.60588741 5.00588742,1.79999996 5.99999997,1.79999996 L18,1.79999996 C18.9941126,1.79999996 19.8,2.60588741 19.8,3.59999996 L19.8,20.4 C19.8,21.3941126 18.9941126,22.2 18,22.2 Z M15.412224,19.21548 C15.7723079,19.7019485 16.3990341,19.9099875 16.9785479,19.7354142 C17.5580616,19.5608409 17.9655932,19.0412411 17.9970572,18.4368224 C18.0285211,17.8324036 17.6771432,17.2732976 17.118888,17.039496 L17.119104,17.039232 L11.327592,14.279856 L15.412032,19.215744 L15.412224,19.21548 Z M7.17599998,19.8 C7.83874168,19.8 8.37599998,19.2627417 8.37599998,18.6 C8.37599998,17.9372583 7.83874168,17.4 7.17599998,17.4 C6.51325828,17.4 5.97599997,17.9372583 5.97599997,18.6 C5.97599997,19.2627417 6.51325828,19.8 7.17599998,19.8 Z M12,4.79999997 C8.68629599,4.79999997 5.99999997,7.48629598 5.99999997,10.8 C5.99999997,14.113704 8.68629599,16.8 12,16.8 C12.2116361,16.8 12.4231253,16.7888534 12.6336,16.766712 L10.2552,13.888272 C10.1513904,13.7629804 10.1486125,13.5823739 10.2485197,13.4539489 C10.348427,13.3255239 10.5241687,13.2837954 10.671144,13.3536 L15.513192,15.66384 C17.0759836,14.5367396 18.0013635,12.7268293 18,10.8 C18,7.48629598 15.313704,4.79999997 12,4.79999997 Z M12,12.6 C11.0058874,12.6 10.2,11.7941125 10.2,10.8 C10.2,9.80588744 11.0058874,8.99999999 12,8.99999999 C12.9941126,8.99999999 13.8,9.80588744 13.8,10.8 C13.8,11.7941125 12.9941126,12.6 12,12.6 Z" fill="#000000"></path>
    </g>
</svg>