<?xml version="1.0" encoding="UTF-8"?>
<svg width="24px" height="24px" viewBox="0 0 24 24" version="1.1" xmlns="http://www.w3.org/2000/svg" xmlns:xlink="http://www.w3.org/1999/xlink">
    <title>icons/functional_UI/E-M/mdpi/ic_Home</title>
    <g id="icons/functional_UI/E-M/ic_Home" stroke="none" stroke-width="1" fill="none" fill-rule="evenodd">
        <path d="M13.283472,3.53798396 L13.283472,3.53839196 C12.9446914,3.19346366 12.4813309,2.99941897 11.9978565,3.0000046 C11.5143821,3.00059289 11.0514941,3.19576209 10.713552,3.54151196 L10.713552,3.54100796 L2.39999996,12.0000046 L5.99999997,12.0000046 L5.99999997,19.2 C5.99999997,20.1941126 6.80588743,21.0000046 7.79999998,21.0000046 L16.2,21.0000046 C17.1941126,21.0000046 18,20.1941126 18,19.2 L18,12.0000046 L21.6,12.0000046 L13.283472,3.53798396 Z M13.92,12.90048 L13.92,18.12 L8.69999999,18.12 C8.20294371,18.12 7.79999998,17.7170563 7.79999998,17.22 L7.79999998,12 L13.02,12 C13.5170563,12 13.92,12.4029437 13.92,12.9 L13.92,12.90048 Z" fill="#000000"></path>
    </g>
</svg>