<?xml version="1.0" encoding="UTF-8"?>
<svg width="24px" height="24px" viewBox="0 0 24 24" version="1.1" xmlns="http://www.w3.org/2000/svg" xmlns:xlink="http://www.w3.org/1999/xlink">
    <title>icons/functional_UI/E-M/mdpi/ic_Home_appliance</title>
    <g id="icons/functional_UI/E-M/ic_Home_appliance" stroke="none" stroke-width="1" fill="none" fill-rule="evenodd">
        <path d="M18,22.2 L5.99999997,22.2 C5.00588742,22.2 4.19999997,21.3941126 4.19999997,20.4 L4.19999997,3.59999996 C4.19999997,2.60588741 5.00588742,1.79999996 5.99999997,1.79999996 L18,1.79999996 C18.9941126,1.79999996 19.8,2.60588741 19.8,3.59999996 L19.8,20.4 C19.8,21.3941126 18.9941126,22.2 18,22.2 Z M12,7.79999998 C9.01766399,7.79999998 6.59999998,10.217664 6.59999998,13.2 C6.59999998,16.182336 9.01766399,18.6 12,18.6 C14.982336,18.6 17.4,16.182336 17.4,13.2 C17.4,10.217664 14.982336,7.79999998 12,7.79999998 Z M12,18 C9.34903199,18 7.19999998,15.850968 7.19999998,13.2 C7.19999998,10.549032 9.34903199,8.39999999 12,8.39999999 C14.650968,8.39999999 16.8,10.549032 16.8,13.2 C16.8,15.850968 14.650968,18 12,18 Z M12,8.99999999 C10.789677,9.00057359 9.63837799,9.52300384 8.84095267,10.4334954 C8.04352735,11.3439869 7.67742605,12.5541079 7.83640798,13.753944 C7.96838398,13.598712 8.46827999,13.104 9.47999999,13.104 C10.68,13.104 10.8,13.872 12,13.872 C13.2,13.872 13.392,13.104 14.592,13.104 C15.593088,13.104 16.042704,13.588104 16.164336,13.748688 C16.3215464,12.5495873 15.9545478,11.3408827 15.1571762,10.4316215 C14.3598045,9.52236023 13.2093623,9.00069223 12,8.99999999 L12,8.99999999 Z M15.3,2.99999996 C15.7970563,2.99999996 16.2,3.40294369 16.2,3.89999997 C16.2,4.39705624 15.7970563,4.79999997 15.3,4.79999997 C14.8029437,4.79999997 14.4,4.39705624 14.4,3.89999997 C14.4,3.40294369 14.8029437,2.99999996 15.3,2.99999996 L15.3,2.99999996 Z M5.99999997,2.99999996 L8.99999999,2.99999996 C9.33137084,2.99999996 9.59999999,3.26862911 9.59999999,3.59999996 L9.59999999,4.19999997 C9.59999999,4.53137082 9.33137084,4.79999997 8.99999999,4.79999997 L5.99999997,4.79999997 C5.66862912,4.79999997 5.39999997,4.53137082 5.39999997,4.19999997 L5.39999997,3.59999996 C5.39999997,3.26862911 5.66862912,2.99999996 5.99999997,2.99999996 Z M17.7,2.99999996 C18.1970563,2.99999996 18.6,3.40294369 18.6,3.89999997 C18.6,4.39705624 18.1970563,4.79999997 17.7,4.79999997 C17.2029437,4.79999997 16.8,4.39705624 16.8,3.89999997 C16.8,3.40294369 17.2029437,2.99999996 17.7,2.99999996 L17.7,2.99999996 Z" fill="#000000"></path>
    </g>
</svg>