<?xml version="1.0" encoding="UTF-8"?>
<svg width="24px" height="24px" viewBox="0 0 24 24" version="1.1" xmlns="http://www.w3.org/2000/svg" xmlns:xlink="http://www.w3.org/1999/xlink">
    <title>icons/functional_UI/E-M/mdpi/ic_Heart_recommend</title>
    <g id="icons/functional_UI/E-M/ic_Heart_recommend" stroke="none" stroke-width="1" fill="none" fill-rule="evenodd">
        <path d="M20.4432,4.13337597 C18.113904,1.80431996 14.34648,1.79071196 12,4.09180797 L12,4.09180797 L12,4.09180797 C9.65351999,1.79071196 5.88609597,1.80431996 3.55691996,4.13337597 C1.25191196,6.43828798 1.21439996,10.151856 3.44411996,12.502752 L3.44411996,12.502752 L12,21.936 L12,21.936 L12,21.936 L20.556,12.5028 L20.556,12.5028 C22.7856,10.151856 22.748112,6.43828798 20.4432,4.13337597 Z M18.871776,10.789344 L12,18.400656 L5.12824797,10.789368 L5.12476797,10.78548 C3.81845102,9.33533116 3.90558853,7.10836684 5.32122204,5.76472352 C6.73685555,4.4210802 8.96533393,4.45018625 10.345392,5.83034397 C10.348944,5.83389597 10.352544,5.83739997 10.356192,5.84085597 L11.407104,6.84021598 L12,7.41081598 L12,7.41081598 L12,7.41081598 L12.5928,6.84033598 L13.643856,5.84085597 C13.647472,5.83739997 13.651064,5.83389597 13.654632,5.83034397 C14.3283968,5.15304806 15.2450881,4.77340001 16.200432,4.77599997 L16.200432,4.77599997 C17.6224639,4.77593679 18.9112787,5.61296688 19.4895228,6.91212365 C20.0677669,8.21128043 19.8270693,9.72908403 18.875256,10.7856 L18.871776,10.789344 Z" fill="#000000"></path>
    </g>
</svg>