<?xml version="1.0" encoding="UTF-8"?>
<svg width="24px" height="24px" viewBox="0 0 24 24" version="1.1" xmlns="http://www.w3.org/2000/svg" xmlns:xlink="http://www.w3.org/1999/xlink">
    <title>icons/functional_UI/E-M/mdpi/ic_Important</title>
    <g id="icons/functional_UI/E-M/ic_Important" stroke="none" stroke-width="1" fill="none" fill-rule="evenodd">
        <path d="M12.012,1.79399996 C6.36211198,1.79399996 1.78197596,6.37415998 1.78197596,12.024 C1.78197596,17.67384 6.36211198,22.254 12.012,22.254 C17.661888,22.254 22.242024,17.673888 22.242024,12.024 C22.242024,6.37411198 17.661888,1.79399996 12.012,1.79399996 Z M11.053872,5.69039997 C11.298864,5.42865597 11.61996,5.29485597 12.011952,5.28143997 C12.403608,5.29485597 12.724752,5.42865597 12.96972,5.69039997 C13.227864,5.96649597 13.357056,6.35112798 13.357296,6.84429598 C13.357296,7.20640798 12.849312,13.867344 12.724728,14.137536 C12.600144,14.407728 12.37704,14.542968 12.056208,14.542968 C12.040224,14.542968 12.027408,14.538312 12.011952,14.537472 C11.996376,14.538312 11.983152,14.542968 11.96736,14.542968 C11.64656,14.542968 11.423824,14.407824 11.299152,14.137536 C11.174352,13.867344 10.66656,7.20633598 10.66656,6.84429598 C10.66656,6.35114398 10.795664,5.96651197 11.053872,5.69039997 Z M12.956424,18.410112 C12.7008744,18.6430978 12.3664563,18.7704666 12.020664,18.766512 C11.6715538,18.771405 11.3331892,18.6458074 11.071824,18.414312 C10.801664,18.179752 10.66656,17.851672 10.66656,17.430072 C10.66656,17.061672 10.795664,16.74824 11.053872,16.489776 C11.31208,16.231312 11.628464,16.102136 12.003024,16.1022479 C12.37704,16.1022479 12.696344,16.231424 12.960936,16.489776 C13.2191234,16.7337319 13.3629888,17.0749039 13.35744,17.430072 C13.35744,17.845736 13.223768,18.172416 12.956424,18.410112 L12.956424,18.410112 Z" fill="#000000"></path>
    </g>
</svg>