<?xml version="1.0" encoding="UTF-8"?>
<svg width="24px" height="24px" viewBox="0 0 24 24" version="1.1" xmlns="http://www.w3.org/2000/svg" xmlns:xlink="http://www.w3.org/1999/xlink">
    <title>icons/functional_UI/E-M/mdpi/ic_Improvement</title>
    <g id="icons/functional_UI/E-M/ic_Improvement" stroke="none" stroke-width="1" fill="none" fill-rule="evenodd">
        <path d="M21.912,3.31199996 L21.912,9.27023999 L19.67256,7.03079998 L12.77016,13.93296 L10.24776,11.41056 L2.29967996,19.35864 C2.1752261,19.023738 2.11166563,18.6692787 2.11199865,18.312 L2.11199865,15.26568 L10.24776,7.12991998 L12.77016,9.65231999 L17.53224,4.89047997 L15.35376,2.71199996 L21.312,2.71199996 C21.6433709,2.71199996 21.912,2.98062911 21.912,3.31199996 Z M21.063456,10.118784 L19.67244,8.72774399 L13.618656,14.7816 L12.770136,15.63012 L11.921592,14.7816 L10.247736,13.10772 L2.95727996,20.399112 C3.5217312,20.9834162 4.29958655,21.3129693 5.11199997,21.3120022 L18.912,21.3120022 C20.5688543,21.3120022 21.912,19.9688543 21.912,18.312 L21.912,10.967304 L21.063456,10.118784 Z" fill="#000000"></path>
    </g>
</svg>