<svg xmlns="http://www.w3.org/2000/svg" width="24" height="24"><path fill-rule="evenodd" d="M18.505 14.747a7.015 7.015 0 0 1-.26.547H15.86c.208-.87.336-1.822.367-2.824h2.816a6.984 6.984 0 0 1-.54 2.277Zm-1.514 2.244a7.033 7.033 0 0 1-2.643 1.668c.5-.63.926-1.458 1.246-2.424h2.054c-.2.266-.418.518-.657.756Zm-3.93 1.645c-.195.156-.393.27-.59.34v-2.74h2.126a7.97 7.97 0 0 1-.434.98c-.323.612-.704 1.102-1.102 1.42Zm-.59-6.166h2.815a13.133 13.133 0 0 1-.302 2.438c-.03.13-.06.26-.094.386h-2.42V12.47Zm0-3.764h2.42a13.137 13.137 0 0 1 .396 2.824H12.47V8.705Zm0-3.681c.197.07.395.183.59.339.398.317.779.808 1.102 1.42.16.303.306.63.434.98h-2.126v-2.74Zm2.277.47a7.098 7.098 0 0 1 2.9 2.269h-2.054c-.32-.965-.745-1.792-1.246-2.424.134.048.268.1.4.155Zm3.497 3.21a6.983 6.983 0 0 1 .799 2.824h-2.816a14.024 14.024 0 0 0-.367-2.823h2.384Zm-6.716-.94H9.403a8.19 8.19 0 0 1 .434-.982c.324-.61.705-1.102 1.102-1.42.196-.155.393-.269.59-.338v2.74Zm0 3.764H8.714a13.133 13.133 0 0 1 .396-2.823h2.42v2.823Zm0 3.765H9.11a13.129 13.129 0 0 1-.396-2.824h2.816v2.824Zm0 3.681a2.042 2.042 0 0 1-.59-.34c-.397-.317-.778-.807-1.102-1.419a8.02 8.02 0 0 1-.434-.98h2.126v2.74Zm-2.276-.47a7.037 7.037 0 0 1-2.244-1.514 7.188 7.188 0 0 1-.657-.756h2.054c.32.966.746 1.793 1.246 2.424a7.022 7.022 0 0 1-.4-.155Zm-3.498-3.211a7.03 7.03 0 0 1-.798-2.824h2.815a14.04 14.04 0 0 0 .367 2.824H5.755Zm-.26-6.041c.08-.187.167-.37.26-.547H8.14c-.208.87-.336 1.822-.367 2.823H4.957c.051-.787.232-1.55.539-2.276ZM7.01 7.009A7.038 7.038 0 0 1 9.652 5.34c-.5.632-.926 1.46-1.246 2.424H6.352c.2-.265.419-.518.657-.755ZM12 3.999A8 8 0 1 0 12 20a8 8 0 0 0 0-16Z"/></svg>