<?xml version="1.0" encoding="UTF-8"?>
<svg width="24px" height="24px" viewBox="0 0 24 24" version="1.1" xmlns="http://www.w3.org/2000/svg" xmlns:xlink="http://www.w3.org/1999/xlink">
    <title>icons/functional_UI/E-M/mdpi/ic_Info</title>
    <g id="icons/functional_UI/E-M/ic_Info" stroke="none" stroke-width="1" fill="none" fill-rule="evenodd">
        <path d="M12,1.81199996 C6.36671998,1.81199996 1.79999996,6.37871998 1.79999996,12.012 C1.79999996,17.64528 6.36671998,22.212 12,22.212 C17.63328,22.212 22.2,17.64528 22.2,12.012 C22.2,6.37871998 17.63328,1.81199996 12,1.81199996 Z M12,4.21199997 C12.9941126,4.21199997 13.8,5.01788742 13.8,6.01199998 C13.8,7.00611253 12.9941126,7.81199998 12,7.81199998 C11.0058874,7.81199998 10.2,7.00611253 10.2,6.01199998 C10.2,5.01788742 11.0058874,4.21199997 12,4.21199997 L12,4.21199997 Z M15,18.612024 L9.59999999,18.612024 L9.59999999,17.994312 L9.72688799,17.990304 C10.100208,17.978304 10.377648,17.872248 10.55172,17.67504 C10.613544,17.603712 10.718664,17.36064 10.718664,16.543368 L10.718664,11.090568 C10.718664,10.31316 10.610112,10.020168 10.5192,9.91118399 C10.390584,9.75779999 10.122816,9.66765599 9.72311999,9.64343999 L9.59999999,9.63599999 L9.59999999,9.01199999 L13.8,9.01199999 L13.8,16.543368 C13.8,17.321328 14.002968,17.6142 14.09376,17.722776 C14.22192,17.876112 14.47008,17.966184 14.87676,17.990424 L15,17.997624 L15,18.612024 L15,18.612024 Z" fill="#000000"></path>
    </g>
</svg>