<?xml version="1.0" encoding="UTF-8"?>
<svg width="24px" height="24px" viewBox="0 0 24 24" version="1.1" xmlns="http://www.w3.org/2000/svg" xmlns:xlink="http://www.w3.org/1999/xlink">
    <title>icons/functional_UI/E-M/mdpi/ic_Internet_usage</title>
    <g id="icons/functional_UI/E-M/ic_Internet_usage" stroke="none" stroke-width="1" fill="none" fill-rule="evenodd">
        <path d="M15.85764,5.83636797 C15.911088,5.83963197 15.975696,5.83999197 16.023,5.86910397 C16.037256,5.87788797 16.1166,5.98377597 16.076328,5.99390397 C16.030728,6.00525598 15.962064,5.98744797 15.937872,6.04113598 C15.925872,6.06791998 15.942672,6.09904798 15.925104,6.12674398 C15.912456,6.14690398 15.869472,6.15635998 15.864168,6.17999998 C15.851496,6.23963998 15.951624,6.19523998 15.960504,6.24110398 C15.970104,6.29195998 15.82032,6.33532798 15.816504,6.41111998 C15.813432,6.47323198 15.810504,6.53303998 15.88872,6.51369598 C15.980376,6.49111198 16.042656,6.40891198 16.128024,6.37286398 C16.154592,6.36175198 16.211808,6.36580798 16.231224,6.35301598 C16.329264,6.28867198 16.457376,6.35061598 16.563144,6.33779998 C16.657824,6.32623198 16.721112,6.22195198 16.705272,6.12806398 C16.697016,6.07946398 16.678368,6.08438398 16.630344,6.07766398 C16.530936,6.06415198 16.511784,6.02810398 16.467144,5.94659997 C16.417512,5.85623997 16.298976,5.81097597 16.231944,5.73455997 C16.204896,5.70400797 16.175304,5.65965597 16.185624,5.61695997 C16.195944,5.57426397 16.285968,5.51351997 16.204824,5.47881597 C16.160232,5.45961597 16.112568,5.48361597 16.067136,5.47667997 C16.005096,5.46683997 16.0488,5.40979197 16.0068,5.38526397 C15.973392,5.36606397 15.892824,5.39227197 15.861144,5.40419997 C15.811512,5.42299197 15.754008,5.45419197 15.724632,5.50043997 C15.685704,5.56185597 15.72036,5.58710397 15.732768,5.64506397 C15.764304,5.79079197 15.834816,5.64093597 15.85764,5.83636797 Z M7.93264798,16.919568 C7.72892266,16.692062 7.65767339,16.3752189 7.74439198,16.0824 C7.57696501,16.1325152 7.39838955,16.1315124 7.23153598,16.07952 C7.21713598,16.268112 7.22277598,16.455456 7.19119198,16.64328 C7.14967198,16.890096 7.02376798,17.110008 6.93237598,17.340096 C6.90583198,17.40696 6.86971198,17.492424 6.88531198,17.566176 C6.91024798,17.683776 7.03468798,17.700576 6.96823198,17.835528 C6.92056798,17.932728 6.84686398,18.01944 6.78619198,18.108912 C6.75259198,18.158136 6.72119998,18.212904 6.72208798,18.274512 C6.72268798,18.320112 6.75031198,18.360192 6.74491198,18.405408 C6.73754398,18.467664 6.68104798,18.509928 6.66863998,18.570504 C6.65378398,18.644448 6.69295198,18.7368 6.72316798,18.802776 C6.85166398,19.081176 7.38059998,19.54116 7.71878398,19.439688 C7.84259998,19.402488 7.91522398,19.20396 7.90427998,19.087992 C7.88942398,18.928344 7.79507998,19.012848 7.68525598,18.974616 C7.48233598,18.903624 7.84053598,18.48192 7.82529598,18.3462 C7.81879198,18.289296 7.77249598,18.242256 7.77038398,18.181152 C7.76459998,18.015552 8.08742398,17.733336 8.22638398,17.674464 C8.36997598,17.613552 8.47427999,17.507496 8.59502399,17.419056 C8.34183914,17.3004914 8.11622506,17.1303264 7.93264798,16.919472 L7.93264798,16.919568 Z M12,1.79999996 C6.36657598,1.79999996 1.79999996,6.36667198 1.79999996,12 C1.79999996,17.633328 6.36657598,22.2 12,22.2 C17.633424,22.2 22.2,17.633352 22.2,12 C22.2,6.36664798 17.633328,1.79999996 12,1.79999996 Z M20.237616,8.84824799 C20.1747696,8.82449118 20.1084836,8.81109296 20.041344,8.80857599 C19.914144,8.80675199 19.825992,8.74917599 19.707336,8.71785599 C19.615344,8.69347199 19.510536,8.63966399 19.41648,8.63354399 C19.296816,8.62591199 19.18944,8.68413599 19.15968,8.80183199 C19.14768,8.84863199 19.14336,8.90678399 19.093848,8.93018399 C19.010928,8.96925599 18.91524,8.89027199 18.835512,8.87467199 C18.7716181,8.86635966 18.7087607,8.85143152 18.647952,8.83012799 C18.6208272,8.81900532 18.5959996,8.80295 18.574728,8.78277599 C18.55776,8.76597599 18.538728,8.71675199 18.519672,8.70736799 C18.4252488,8.66020076 18.321526,8.63460002 18.216,8.63241599 C18.118824,8.62720799 18.030648,8.60983199 17.95092,8.55081599 C17.822184,8.45524799 17.975976,8.42265599 17.952744,8.31134398 C17.949336,8.29427998 17.90928,8.24843998 17.912232,8.23694398 C17.95512,8.06195998 17.76408,8.10309598 17.6292,8.13482398 C17.377752,8.15882398 17.061552,8.07098398 16.844736,8.17082398 C16.7540808,8.17442195 16.6640222,8.18718294 16.575936,8.20891198 C16.6010573,8.22906283 16.6250911,8.25053304 16.647936,8.27323198 L17.715672,9.34099199 C18.4481497,10.0778025 18.5411115,11.2359733 17.935536,12.080184 C17.9421727,12.0858623 17.9483,12.0921101 17.953848,12.098856 C18.047832,12.217824 17.954832,12.4524 17.961216,12.586776 C17.97132,12.79776 18.021504,12.900648 18.141216,13.069608 C18.330816,13.337256 18.571992,13.615776 18.515376,13.966992 C18.467376,14.264256 18.174576,14.456592 18.286272,14.78148 C18.383544,15.064512 18.585624,15.234816 18.65604,15.54732 C18.71364,15.803232 18.774552,15.867672 18.904536,16.061736 C19.04676,16.273848 19.239144,17.18808 19.68432,16.694688 C19.77816,16.663176 19.854096,16.706688 19.939416,16.727088 C18.324552,19.429248 15.370224,21.242712 12,21.242712 C6.90350398,21.242712 2.75716793,17.096472 2.75716793,11.999928 C2.75716793,11.4110238 2.81331275,10.8234609 2.92497596,10.24524 C3.04142396,10.336632 3.18194396,10.327608 3.32001596,10.399776 C3.35169596,10.458432 3.38229596,10.45308 3.45391196,10.459776 C3.59311196,10.515552 3.73250397,10.601784 3.88497597,10.601784 C4.08026397,10.552536 4.15065597,10.478328 4.27559997,10.637784 C4.38811197,10.78128 4.67505597,10.850064 4.84372797,10.882368 C4.94087997,10.90092 5.03044797,10.895376 5.10820797,10.960608 C5.17735197,11.018952 5.21620797,11.109 5.27402397,11.177496 C5.39035197,11.315256 5.51085597,11.414688 5.68898397,11.458608 C5.81035197,11.488584 5.94007197,11.498712 6.06290398,11.528208 L6.31197598,11.279664 C5.97182397,11.22408 5.72975997,10.977792 5.47156797,10.767912 C5.32809597,10.651392 5.18337597,10.536552 5.00524797,10.477392 C5.00906397,10.478616 5.06558397,10.008024 4.98669597,9.94077599 C4.78807197,9.77123999 4.55762397,10.140816 4.39118397,10.207176 C3.98606397,10.369344 3.75009597,10.055856 3.71493597,9.66842399 C3.63239997,8.75975999 5.03683197,8.55400799 5.61539997,8.99930399 C5.67350397,9.04401599 5.87447997,9.34411199 5.94511197,9.32260799 C6.06045598,9.28756799 5.97851997,8.92708799 5.98351197,8.85263999 C5.99738397,8.62672799 6.01151998,8.52902399 6.23263198,8.39903998 C6.35668798,8.32617598 6.44193598,8.21423998 6.50311198,8.08574398 C6.54321598,8.00123998 6.56255998,7.92395998 6.62337598,7.86676798 C6.47892521,7.5939292 6.48798701,7.26535299 6.64725601,7.0008905 C6.80652501,6.736428 7.09271363,6.57474771 7.40143198,6.57482398 L8.07343198,6.57482398 C8.06051998,6.56623198 8.04775198,6.55723198 8.03447998,6.54914398 C8.02060798,6.54062398 8.00623198,6.53299198 7.99185598,6.52562398 C7.93422807,6.49167667 7.87092531,6.46845346 7.80501598,6.45707998 C7.78917598,6.45523198 7.77417598,6.45707998 7.75970398,6.45451198 C7.75329598,6.45326398 7.72910398,6.44889598 7.74004798,6.44147998 C7.74842227,6.43842772 7.75729817,6.43698641 7.76620798,6.43723198 C7.77909598,6.43533598 7.79188798,6.43312798 7.80460798,6.43091998 C7.8309383,6.4257009 7.85763494,6.42253935 7.88445598,6.42146398 C7.97779198,6.41906398 8.06954398,6.44416798 8.16059998,6.46295998 C8.20558108,6.4729703 8.25110579,6.48035875 8.29694398,6.48508798 C8.32102869,6.48846782 8.34551947,6.48759866 8.36930398,6.48251998 C8.38771198,6.47752798 8.43410399,6.49171198 8.43033599,6.47555998 C8.42114399,6.45842398 8.38454398,6.44392798 8.39534398,6.41949598 C8.40235199,6.40339198 8.42776799,6.39479998 8.44238399,6.38743198 C8.46209108,6.37823858 8.48246027,6.37053695 8.50331999,6.36439198 C8.59507199,6.33508798 8.68463999,6.30045598 8.77898399,6.27890398 C8.82379463,6.26800085 8.86967328,6.26208492 8.91578399,6.26126398 C8.93515471,6.26118305 8.95451425,6.26220872 8.97376799,6.26433598 C8.99083199,6.26625598 9.02044799,6.26575198 9.03376799,6.27796798 C9.04898399,6.29203198 9.03069599,6.31156798 9.02147999,6.32306398 C9.00719531,6.34068947 8.99439173,6.35946537 8.98319999,6.37919998 C8.95132756,6.43616343 8.92986388,6.49835203 8.91981599,6.56284798 C8.91921599,6.56678398 8.91981599,6.57093598 8.91938399,6.57501598 L9.60719999,6.57501598 C9.53183999,6.49504798 9.36861599,6.43454398 9.31574399,6.33712798 C9.25003199,6.21539998 9.30223199,6.06160798 9.20774399,5.94275997 C9.10871999,5.81827197 8.94559199,5.81894397 8.81831999,5.74271997 C8.63639999,5.63380797 8.54095199,5.42332797 8.36471998,5.30860797 C8.09865598,5.13539997 7.97090398,5.30846397 7.68983998,5.28583197 C7.51725598,5.27210397 7.42154398,5.14331997 7.29143998,5.04823197 C6.99919198,4.83463197 6.62699998,4.74119997 6.27369598,4.87521597 C6.22996798,4.89201597 6.39568798,5.42639997 6.40317598,5.45733597 C6.49161598,5.81651997 6.28034398,5.58851997 6.14227198,5.80319997 C6.08414398,5.89329597 6.20109598,5.97573597 6.16339198,6.05051998 C6.00369598,6.36676798 5.79057597,5.85575997 5.60899197,5.74195197 C5.50605597,5.67758397 5.39956797,5.66651997 5.29127997,5.64835197 C5.64191359,5.27836516 6.02226542,4.93772211 6.42851998,4.62983997 C6.53594398,4.63639197 6.68260798,4.58529597 6.78259198,4.59892797 C7.03823998,4.63358397 7.26179998,4.77079197 7.50441598,4.84756797 C7.55515198,4.86367197 7.92587998,4.89448797 7.89561598,4.87423197 C7.83247198,4.83153597 7.56515998,4.77177597 7.76361598,4.74943197 C7.85109598,4.76803197 8.06666398,4.84216797 8.10537598,4.75199997 C8.22758398,4.65921597 8.28496798,4.66154397 8.44293599,4.66154397 C8.59228799,4.55675997 8.73614399,4.47837597 8.76343199,4.30307997 C8.72176799,4.20631197 8.76772799,4.13447997 8.74183199,4.05220797 C8.54195999,4.00029597 8.57671199,3.90055197 8.60116799,3.77193597 C8.54947199,3.70567197 8.20691998,3.58780796 8.12419198,3.61003197 C8.38044798,3.49121596 8.64275199,3.38401596 8.91110399,3.28843196 C9.14239199,3.37454396 9.38949599,3.52843196 9.33623999,3.72981597 C9.41783999,3.74404797 9.50968799,3.75045597 9.58879199,3.72021597 C9.60674399,3.71335197 9.62318399,3.68786397 9.64420799,3.69141597 C9.66765599,3.69544797 9.67552799,3.73279197 9.68536799,3.75026397 C9.69039337,3.75846487 9.69490601,3.76696915 9.69887999,3.77572797 C9.69909599,3.77620797 9.75770399,3.76559997 9.76367999,3.76509597 C9.78416195,3.76348614 9.80475912,3.76414615 9.82509599,3.76706397 C9.86275224,3.77066705 9.89851269,3.78528342 9.92791199,3.80908797 C9.93823199,3.81818397 9.97912799,3.84494397 9.96871199,3.86332797 C9.96071999,3.87676797 9.92987999,3.87479997 9.91696799,3.87532797 C9.90139199,3.87614397 9.88591199,3.87631197 9.87055199,3.87851997 C9.84439199,3.88247997 9.81808799,3.88639197 9.79168799,3.88958397 C9.76872634,3.89477764 9.74517558,3.8968922 9.72165599,3.89587197 C9.68579999,3.91852797 9.80349599,3.92246397 9.84021599,3.94082397 C9.87043199,3.95618397 9.90679199,3.96002397 9.93527999,3.97847997 C9.98443199,4.01013597 9.88060799,4.02955197 9.86452799,4.03730397 C9.83092799,4.05321597 9.79819199,4.07066397 9.76612799,4.08969597 C9.72485773,4.11239961 9.68782416,4.14206869 9.65666399,4.17739197 C9.63222478,4.2055568 9.61681426,4.24041651 9.61243199,4.27744797 C9.61028999,4.32181558 9.6203152,4.36592483 9.64142399,4.40500797 C9.67063287,4.46114222 9.70483485,4.51453361 9.74361599,4.56453597 C9.74841599,4.57127997 9.75309599,4.57847997 9.75837599,4.58486397 C9.96818399,4.84036797 10.466664,5.20646397 10.8186,5.16611997 C11.205792,5.12159997 11.173488,4.62993597 11.542128,4.49171997 C11.910768,4.35350397 12.293784,4.25637597 12.678648,4.17638397 C12.7852,4.15101956 12.890265,4.11977169 12.99336,4.08278397 C13.1387642,4.03751326 13.2867185,4.00088132 13.436448,3.97307997 C13.461744,3.96789597 13.487544,3.96655197 13.513104,3.96280797 C13.521072,3.96153597 13.582008,3.95119197 13.555848,3.93604797 C13.5361992,3.9274909 13.5152672,3.92225182 13.493904,3.92054397 C13.470576,3.91646397 13.447248,3.91334397 13.424016,3.90979197 C13.380246,3.90596756 13.3372408,3.89594755 13.296288,3.88003197 C13.286328,3.87523197 13.265928,3.87081597 13.26912,3.85675197 C13.272696,3.83937597 13.29996,3.84328797 13.31232,3.84427197 C13.363176,3.84770397 13.41552,3.84199197 13.466496,3.84199197 C13.5201207,3.84326312 13.5737679,3.84072071 13.627032,3.83438397 C13.652688,3.83068797 13.678008,3.82936797 13.703568,3.82394397 C13.715976,3.82154397 13.735632,3.82492797 13.734264,3.80675997 C13.7312022,3.78129583 13.7195539,3.75763537 13.70124,3.73967997 C13.692408,3.73106397 13.680696,3.72604797 13.672728,3.71671197 C13.660728,3.70288797 13.666824,3.69405597 13.674936,3.67960797 C13.6892521,3.65858997 13.7007728,3.63579868 13.709208,3.61180797 C13.7144071,3.58443607 13.7180529,3.55679187 13.720128,3.52900796 C13.729368,3.46600796 13.843728,3.45515996 13.888704,3.44534396 C13.95024,3.43183196 14.05356,3.40235996 14.074896,3.33283196 C14.099232,3.25447196 14.015712,3.22226396 14.015064,3.15343196 C14.014584,3.10303196 14.097888,3.10017596 14.133,3.08248796 C14.16348,3.06724796 14.192592,3.07413596 14.2242,3.03671996 C14.223408,3.03335996 14.222376,3.03064796 14.221512,3.02769596 C15.4866197,3.34158621 16.6707638,3.92023897 17.695776,4.72545597 C17.428512,4.86254397 17.107512,5.19899997 17.647272,5.41372797 C17.870592,5.50252797 18.045264,5.11579197 18.258408,5.40100797 C18.302376,5.45966397 18.348936,5.54515197 18.302376,5.61395997 C18.273,5.65749597 18.18852,5.71898397 18.134376,5.68187997 C18.066072,5.63555997 18.15648,5.48239197 18.028488,5.46107997 C17.9380235,5.44960554 17.8490108,5.4911106 17.799648,5.56778397 C17.739072,5.66440797 17.89176,5.80298397 17.828616,5.89828797 C17.746464,6.02246398 17.543016,5.92646397 17.427672,5.97724797 C17.194008,6.08020798 16.990872,6.30230398 16.741104,6.41469598 C16.627848,6.46567198 16.492848,6.45549598 16.371984,6.46989598 C16.293,6.47911198 16.161912,6.48909598 16.117704,6.56719198 C16.065648,6.65932798 16.353072,6.77671198 16.406856,6.81391198 C16.553664,6.91562398 16.623072,7.04546398 16.456752,7.17309598 C16.248888,7.33204798 15.868584,7.02568798 15.63912,7.17604798 C15.6278192,7.18385637 15.6175324,7.19303872 15.608496,7.20338398 C15.608952,7.20388798 15.609456,7.20441598 15.609888,7.20496798 C15.8111861,7.43607815 15.8786804,7.75484007 15.788328,8.04770398 C15.9601314,7.99962488 16.1425301,8.00524423 16.311048,8.06380798 C16.31364,8.06227198 16.315608,8.06037598 16.31844,8.05900798 C16.352472,8.04220798 16.391016,8.03371198 16.419648,8.00716798 C16.467192,7.96307998 16.446912,7.88827198 16.466328,7.83127198 C16.48596,7.77316798 16.532064,7.74220798 16.57308,7.70044798 C16.601208,7.67195998 16.621704,7.63154398 16.65468,7.60843198 C16.707264,7.57171198 16.780368,7.58443198 16.838208,7.55843998 C16.932312,7.51562398 16.879968,7.39346398 16.963992,7.33763998 C17.023224,7.29823198 17.093832,7.32206398 17.155392,7.34073598 C17.32356,7.39151998 17.431536,7.28995198 17.591808,7.27735198 C17.607912,7.27610398 17.635008,7.24871998 17.651808,7.24197598 C17.704752,7.22023198 17.776152,7.21603198 17.821704,7.25486398 C17.859072,7.28642398 17.871576,7.34023198 17.90232,7.37757598 C17.9496,7.43500798 18.02748,7.46337598 18.088536,7.50335998 C18.15732,7.54881598 18.201648,7.55980798 18.27732,7.57994398 C18.359736,7.60211998 18.430416,7.67901598 18.507288,7.71820798 C18.56748,7.74885598 18.662784,7.79289598 18.661584,7.87336798 C18.659376,8.01448798 18.423648,7.97709598 18.341208,7.98083998 C18.311712,7.98206398 18.189528,7.99043998 18.17892,8.02125598 C18.163224,8.06714398 18.373152,8.14175998 18.405456,8.14715998 C18.496344,8.16256798 18.534552,8.09863198 18.596112,8.04458398 C18.647952,7.99927198 18.717576,7.97099998 18.756288,7.91205598 C18.788688,7.86278398 18.754584,7.80911998 18.761688,7.75701598 C18.767568,7.71316798 18.803688,7.71352798 18.81708,7.67853598 C18.841656,7.61311198 18.69744,7.55589598 18.656544,7.54058398 C18.6176605,7.52635113 18.5777437,7.51511826 18.537144,7.50698398 C18.511464,7.50167998 18.455088,7.50415198 18.433704,7.48989598 C18.356064,7.43800798 18.345984,7.35434398 18.270936,7.29463198 C17.999736,7.16167198 18.222672,6.98515198 18.34464,7.14177598 C18.534048,7.14988798 18.580128,7.34882398 18.788352,7.36497598 C18.887712,7.49092798 19.008336,7.42343998 19.080096,7.58299198 C19.092744,7.79138398 19.134648,7.78850398 19.32024,7.91884798 C19.383744,7.96348798 19.357488,8.18695198 19.491696,8.15056798 C19.534344,8.13890398 19.58424,8.08646398 19.618608,8.05955998 C19.638528,8.04395998 19.685448,8.02079998 19.698096,7.99898398 C19.737408,7.93156798 19.613952,7.92698398 19.590096,7.88560798 C19.479048,7.69286398 19.749768,7.63691998 19.884048,7.64361598 C20.010456,7.65007198 20.020152,7.80847198 20.045592,7.90113598 C20.0582713,7.95454788 20.0842529,8.00388557 20.12112,8.04455998 C20.1429025,8.06694148 20.168216,8.08559011 20.196048,8.09975998 C20.241648,8.12315998 20.289288,8.12879998 20.332296,8.15884798 C20.3617308,8.18452764 20.395853,8.20427401 20.432784,8.21699998 C20.518832,8.40813599 20.598472,8.60263199 20.671704,8.80048799 C20.669976,8.80048799 20.668008,8.80048799 20.66628,8.80048799 C20.52,8.80751999 20.386272,8.89679999 20.237616,8.84824799 Z M17.296416,9.68207999 L16.23024,8.61599999 C16.128432,8.71785599 15.316416,9.52900799 14.480976,10.364448 L11.8056,13.039704 L8.59173599,16.253568 C8.67657599,16.338408 9.06707999,16.57464 9.63280799,16.627824 C10.22784,16.703112 15.808008,16.678872 15.808008,16.678872 L13.938864,14.809728 C13.938864,14.809728 16.578936,12.16956 17.050128,11.698416 C17.752464,10.996032 17.783472,10.169112 17.296416,9.68207999 Z M6.68073598,14.34 L7.74453598,15.403776 L9.49219199,13.656 L12.167592,10.980672 C13.840392,9.30787199 15.381456,7.76680798 15.381456,7.76680798 C15.296568,7.68191998 14.908056,7.44652798 14.342376,7.39331998 C13.747344,7.31800798 8.16921598,7.34311198 8.16921598,7.34311198 L10.035576,9.20944799 L6.92303998,12.321936 C6.22079998,13.024296 6.19365598,13.8528 6.68073598,14.34 Z" fill="#000000"></path>
    </g>
</svg>