<?xml version="1.0" encoding="UTF-8"?>
<svg width="24px" height="24px" viewBox="0 0 24 24" version="1.1" xmlns="http://www.w3.org/2000/svg" xmlns:xlink="http://www.w3.org/1999/xlink">
    <title>icons/functional_UI/E-M/mdpi/ic_internet_browser</title>
    <g id="icons/functional_UI/E-M/ic_internet_browser" stroke="none" stroke-width="1" fill="none" fill-rule="evenodd">
        <path d="M14.903496,6.38399998 C15.118968,6.36395998 15.347496,6.29723998 15.347496,6.07547998 C15.397416,6.02987998 15.419016,6.05987998 15.419016,5.98756797 C15.25164,5.88532797 15.121968,5.87774397 14.993184,6.02445598 C14.84496,6.05186398 14.887584,6.06127198 14.887584,6.19099198 C14.823264,6.28559998 14.763072,6.34166398 14.903496,6.38399998 Z M15.521496,5.97347997 C15.574584,5.97669597 15.638808,5.97707997 15.6858,6.00583198 C15.69996,6.01449598 15.778824,6.11908798 15.738792,6.12897598 C15.69348,6.14020798 15.625248,6.12261598 15.6012,6.17565598 C15.589368,6.20205598 15.606,6.23284798 15.588504,6.26020798 C15.575928,6.28012798 15.533304,6.28946398 15.527952,6.31281598 C15.515376,6.37173598 15.61488,6.32786398 15.623664,6.37317598 C15.633264,6.42340798 15.484464,6.46627198 15.480576,6.54117598 C15.477528,6.60249598 15.474576,6.66160798 15.552384,6.64247998 C15.643584,6.62015998 15.705336,6.53899198 15.7902,6.50327998 C15.8166,6.49231198 15.873456,6.49629598 15.892728,6.48367198 C15.990168,6.42009598 16.117488,6.48127198 16.222608,6.46862398 C16.316736,6.45722398 16.379616,6.35421598 16.363872,6.26145598 C16.355688,6.21345598 16.337136,6.21825598 16.289472,6.21175198 C16.190688,6.19840798 16.171656,6.16279198 16.127352,6.08215198 C16.078008,5.99291997 15.960216,5.94820797 15.893568,5.87272797 C15.866688,5.84251197 15.837264,5.79871197 15.847536,5.75647197 C15.857808,5.71423197 15.94728,5.65430397 15.866544,5.62003197 C15.822264,5.60116797 15.774864,5.62471197 15.729744,5.61789597 C15.668088,5.60829597 15.711576,5.55182397 15.669744,5.52763197 C15.636528,5.50857597 15.556464,5.53454397 15.524952,5.54630397 C15.475608,5.56487997 15.418488,5.59569597 15.389304,5.64139197 C15.350592,5.70203997 15.385032,5.72697597 15.397368,5.78426397 C15.428688,5.92855197 15.498768,5.78054397 15.521496,5.97359997 L15.521496,5.97347997 Z M12.0624,1.79998751 C8.17334233,1.79392379 4.62321262,4.01202067 2.92343996,7.50995998 C2.18322859,8.93527261 1.79784376,10.5181414 1.79999096,12.1242 C1.79999096,17.688984 6.33856798,22.2000127 11.937384,22.2000127 C15.826533,22.2061145 19.3767629,19.9879853 21.076584,16.489968 C21.8167901,15.0646372 22.2021666,13.4817523 22.2000091,11.87568 C22.2000091,6.31103998 17.661312,1.79998751 12.0624,1.79998751 Z M11.937384,21.2544015 C6.87211198,21.2544015 2.75119195,17.158632 2.75119195,12.1242 C2.75119195,11.5546836 2.80466906,10.9864252 2.91098396,10.42692 C2.96269174,10.4395244 3.01285114,10.457795 3.06055196,10.4814 C3.09206396,10.53936 3.12244796,10.534056 3.19360796,10.5408 C3.33206396,10.596 3.47054396,10.681056 3.62203197,10.681056 C3.81614397,10.632408 3.88603197,10.559112 4.01025597,10.716624 C4.12209597,10.858368 4.40728797,10.926312 4.57490397,10.958208 C4.67147997,10.976544 4.76049597,10.971072 4.83777597,11.035512 C4.90648797,11.093112 4.94522397,11.18208 5.00258397,11.249736 C5.11819197,11.385816 5.23795197,11.484048 5.41499997,11.52744 C5.61436797,11.576352 5.83631997,11.57088 6.01274398,11.689056 C6.28096798,11.86956 6.10137598,12.11784 5.98185597,12.309768 C5.84193597,12.534648 5.74559997,12.751848 5.72925597,13.022136 C5.69565597,13.573296 6.07207198,14.066904 6.48717598,14.394168 C6.70996798,14.5698 6.97867198,14.7516 7.05427198,15.04044 C7.12823998,15.322728 7.03240798,15.603864 6.97624798,15.879264 C6.92361598,16.137984 6.95147998,16.392864 6.90811198,16.648752 C6.86685598,16.892592 6.74169598,17.109792 6.65087998,17.337096 C6.62447998,17.403144 6.58847998,17.487552 6.60412798,17.560296 C6.62891998,17.67636 6.75256798,17.69304 6.68654398,17.82636 C6.63916798,17.92236 6.56591998,18.00804 6.50558398,18.096432 C6.47227198,18.145032 6.44099998,18.199152 6.44186398,18.260064 C6.44246398,18.305016 6.46994398,18.344712 6.46456798,18.389352 C6.45736798,18.450888 6.40108798,18.492552 6.38875198,18.552552 C6.37399198,18.62556 6.41291998,18.716856 6.44296798,18.781992 C6.57064798,19.056984 7.09639198,19.5114 7.43248798,19.411176 C7.55555998,19.374408 7.62767998,19.178376 7.61683198,19.063752 C7.60204798,18.906024 7.50830398,18.989472 7.39915198,18.951744 C7.19755198,18.881616 7.55347198,18.465072 7.53835198,18.330984 C7.53187198,18.274776 7.48583998,18.228312 7.48375198,18.167928 C7.47801598,18.00432 7.79887198,17.725584 7.93694398,17.667408 C8.11252798,17.593344 8.22847198,17.451408 8.38903198,17.358168 C8.53466399,17.273424 8.63222399,17.134056 8.74749599,17.015808 C8.86420799,16.896024 9.00359999,16.808592 9.14695199,16.723008 C9.34667999,16.6038 9.49331999,16.512336 9.61821599,16.310208 C9.68582451,16.2020598 9.76583913,16.1021825 9.85663199,16.012608 L8.13801598,11.307864 C8.13527998,11.307024 8.13290398,11.3058 8.13021598,11.305032 C7.96490398,11.258424 7.77578398,11.25672 7.60598398,11.238936 C7.37644798,11.214936 7.15341598,11.174136 6.92179198,11.188896 C6.82437598,11.041944 6.60499198,11.179656 6.51194398,11.239728 C6.36074398,11.337288 6.22955998,11.379648 6.04862398,11.353416 C5.70285597,11.303256 5.45920797,11.055576 5.19902397,10.84524 C5.05643997,10.73004 4.91263197,10.616688 4.73558397,10.558272 C4.73937597,10.559496 4.79558397,10.094616 4.71715197,10.028184 C4.51970397,9.86073599 4.29067197,10.2258 4.12526397,10.29144 C3.72263997,10.451592 3.48808796,10.141944 3.45326396,9.75923999 C3.37123196,8.86163999 4.76704797,8.65840799 5.34206397,9.09827999 C5.39980797,9.14243999 5.59955997,9.43888799 5.66971197,9.41764799 C5.78438397,9.38299199 5.70295197,9.02692799 5.70782397,8.95339199 C5.72162397,8.73019199 5.73568797,8.63371199 5.95543197,8.50526399 C6.07874398,8.43326399 6.16346398,8.32264798 6.22423198,8.19566398 C6.27563998,8.08804798 6.29174398,7.99166398 6.40783198,7.93543198 C6.51583198,7.88303998 6.59159998,7.78814398 6.68560798,7.71667198 C6.72185874,7.68964462 6.75996019,7.66519265 6.79963198,7.64349598 L6.62872798,7.17566398 C6.50610254,6.83948617 6.60277143,6.46250801 6.87203998,6.22682398 C7.1422558,5.99021502 7.52920033,5.94170207 7.84946398,6.10427998 L8.46441599,6.41654398 C8.47173599,6.41471998 8.47881599,6.41253598 8.48627999,6.41083198 C8.53083504,6.40007526 8.57643597,6.39424034 8.62226399,6.39343198 C8.64150579,6.39334731 8.66073683,6.39435694 8.67986399,6.39645598 C8.69683199,6.39835198 8.72625599,6.39784798 8.73957599,6.40991998 C8.75469599,6.42383998 8.73652799,6.44306398 8.72735999,6.45446398 C8.71319535,6.47177941 8.70049557,6.49024307 8.68939199,6.50966398 C8.68641599,6.51513598 8.68382399,6.52089598 8.68096799,6.52646398 L9.32455199,6.85331998 C9.32673599,6.84974398 9.32935199,6.84693598 9.33146399,6.84316798 C9.42568799,6.67456798 9.09866399,6.61250398 9.01975199,6.46811998 C8.95444799,6.34785598 9.00633599,6.19593598 8.91244799,6.07852798 C8.81404799,5.95555197 8.65190399,5.95612797 8.52544799,5.88093597 C8.34463198,5.77336797 8.24975998,5.56543197 8.07455998,5.45210397 C7.81012798,5.28100797 7.68314398,5.45210397 7.40380798,5.42959197 C7.23227998,5.41605597 7.13719198,5.28883197 7.00780798,5.19491997 C6.78391198,5.03219997 6.51273598,4.94063997 6.23947198,4.96763997 C6.33179198,4.89485597 6.42561598,4.82387197 6.52094398,4.75468797 C6.76713598,4.79289597 6.98438398,4.92285597 7.21953598,4.99682397 C7.26993598,5.01271197 7.63840798,5.04316797 7.60833598,5.02322397 C7.54559998,4.98105597 7.27991998,4.92201597 7.47719998,4.89988797 C7.56415198,4.91827197 7.77839998,4.99149597 7.81684798,4.90243197 C7.93833598,4.81075197 7.99535998,4.81305597 8.15234398,4.81305597 C8.30080798,4.70954397 8.44375199,4.63214397 8.47087199,4.45898397 C8.42949599,4.36336797 8.47516799,4.29242397 8.44927199,4.21113597 C8.25062398,4.15987197 8.28518398,4.06135197 8.30949598,3.93429597 C8.28549598,3.90367197 8.19777598,3.86193597 8.10309598,3.82831197 C8.33173598,3.72344797 8.56520799,3.62778397 8.80351199,3.54131996 C8.95951199,3.62858397 9.07850399,3.74822397 9.04007999,3.89267997 C9.12129599,3.90674397 9.21249599,3.91305597 9.29109599,3.88322397 C9.30892799,3.87643197 9.32529599,3.85123197 9.34629599,3.85468797 C9.36959999,3.85869597 9.37749599,3.89548797 9.38709599,3.91281597 C9.39208244,3.92092762 9.39657073,3.92933515 9.40053599,3.93799197 C9.40075199,3.93849597 9.45899999,3.92798397 9.46485599,3.92750397 C9.4852168,3.92590246 9.50569203,3.92654634 9.52591199,3.92942397 C9.56330387,3.93297047 9.59883439,3.94740631 9.62810399,3.97094397 C9.63835199,3.97991997 9.67900799,4.00636797 9.66873599,4.02451197 C9.66081599,4.03780797 9.63016799,4.03586397 9.61735199,4.03634397 C9.60184799,4.03713597 9.58646399,4.03732797 9.57119999,4.03951197 C9.54518399,4.04339997 9.51907199,4.04726397 9.49281599,4.05043197 C9.46999107,4.05555947 9.44658761,4.05764157 9.42321599,4.05662397 C9.38759999,4.07899197 9.50455199,4.08287997 9.54105599,4.10102397 C9.57107999,4.11619197 9.60719999,4.11995997 9.63554399,4.13822397 C9.68438399,4.16942397 9.58120799,4.18862397 9.56522399,4.19632797 C9.53176799,4.21204797 9.49929599,4.22927997 9.46730399,4.24809597 C9.42632406,4.27048915 9.38952576,4.29980113 9.35853599,4.33473597 C9.3342653,4.36249348 9.31894064,4.39693214 9.31456799,4.43354397 C9.31242739,4.47739836 9.32239081,4.52099663 9.34336799,4.55956797 C9.3724025,4.61504388 9.4063971,4.66777887 9.44493599,4.71712797 C9.44973599,4.72382397 9.45434399,4.73092797 9.45957599,4.73723997 C9.66811199,4.98959997 10.163544,5.35115997 10.51332,5.31141597 C10.898136,5.26742397 10.86612,4.78175997 11.232432,4.64524797 C11.598744,4.50873597 11.97948,4.41275997 12.361968,4.33375197 C12.46785,4.30868261 12.5722653,4.27777947 12.674736,4.24118397 C12.8192769,4.19646265 12.9663228,4.16028019 13.115112,4.13282397 C13.140264,4.12773597 13.165896,4.12639197 13.191312,4.12267197 C13.199232,4.12142397 13.259784,4.11122397 13.233768,4.09627197 C13.2142464,4.08782147 13.1934623,4.08265585 13.172256,4.08098397 C13.149048,4.07690397 13.125864,4.07378397 13.102776,4.07037597 C13.059279,4.06659638 13.0165355,4.05668215 12.975816,4.04092797 C12.965928,4.03627197 12.945648,4.03185597 12.94884,4.01795997 C12.952368,4.00077597 12.979488,4.00466397 12.99168,4.00562397 C13.042224,4.00903197 13.094112,4.00339197 13.144896,4.00339197 C13.1981985,4.00464725 13.2515231,4.00213701 13.304472,3.99587997 C13.329984,3.99223197 13.355136,3.99088797 13.380552,3.98555997 C13.392864,3.98315997 13.4124,3.98651997 13.411056,3.96856797 C13.4079913,3.94338838 13.3964061,3.9200146 13.378224,3.90232797 C13.36944,3.89383197 13.357824,3.88883997 13.34988,3.87962397 C13.33788,3.86596797 13.344024,3.85723197 13.352088,3.84297597 C13.3663048,3.82222409 13.3777535,3.79970605 13.386144,3.77599197 C13.3913003,3.7489617 13.39493,3.72166247 13.397016,3.69422397 C13.406184,3.63196797 13.519824,3.62128797 13.564536,3.61156797 C13.625664,3.59822396 13.72836,3.56911196 13.749624,3.50042396 C13.773768,3.42299996 13.690752,3.39122396 13.690152,3.32320796 C13.689648,3.27340796 13.772448,3.27059996 13.807368,3.25312796 C13.837632,3.23807996 13.866576,3.24489596 13.898064,3.20793596 C13.89768,3.20635196 13.897152,3.20512796 13.896696,3.20361596 C15.1867363,3.48358055 16.4011896,4.03857489 17.457168,4.83071997 C17.192592,4.91287197 16.686072,5.31328797 17.30004,5.55604797 C17.521992,5.64376797 17.695584,5.26171197 17.907432,5.54347197 C17.951136,5.60143197 17.997408,5.68588797 17.951136,5.75383197 C17.921952,5.79683997 17.837952,5.85755997 17.78412,5.82103197 C17.716248,5.77528797 17.80608,5.62396797 17.67888,5.60296797 C17.5891282,5.59157342 17.5007663,5.63251435 17.451432,5.70835197 C17.39124,5.80379997 17.542992,5.94067197 17.480232,6.03475198 C17.398632,6.15743998 17.19636,6.06261598 17.081712,6.11279998 C16.849536,6.21446398 16.647696,6.43384798 16.399392,6.54479998 C16.286808,6.59519998 16.152624,6.58514398 16.032528,6.59935198 C15.954,6.60847198 15.823728,6.61821598 15.779784,6.69535198 C15.728016,6.78635998 16.013688,6.90230398 16.067184,6.93904798 C16.21308,7.03953598 16.282056,7.16779198 16.116744,7.29386398 C15.910176,7.45087198 15.5322,7.14825598 15.304152,7.29679198 C15.16032,7.39039198 15.076152,7.86695998 15.214896,8.02622398 C15.270096,8.08927198 15.35772,8.11982398 15.435696,8.15342398 C15.543504,8.20022398 15.778272,8.30584798 15.891936,8.23982398 C15.925032,8.22062398 15.942336,8.18723998 15.979368,8.16907198 C16.01316,8.15258398 16.051368,8.14408798 16.079952,8.11787998 C16.127208,8.07431998 16.107048,8.00042398 16.126344,7.94411998 C16.14588,7.88671198 16.191648,7.85613598 16.232448,7.81490398 C16.260408,7.78672798 16.280784,7.74681598 16.313496,7.72399198 C16.365744,7.68770398 16.438416,7.70035198 16.495896,7.67459998 C16.589496,7.63233598 16.537416,7.51163998 16.620912,7.45643998 C16.67976,7.41748798 16.74996,7.44100798 16.811136,7.45946398 C16.978272,7.50964798 17.085576,7.40930398 17.244888,7.39684798 C17.260896,7.39564798 17.287872,7.36857598 17.3046,7.36192798 C17.357232,7.34032798 17.428152,7.33631998 17.473464,7.37464798 C17.510568,7.40584798 17.523024,7.45898398 17.553552,7.49587198 C17.60052,7.55260798 17.677944,7.58061598 17.738616,7.62014398 C17.806992,7.66502398 17.85108,7.67587198 17.926272,7.69579198 C18.008208,7.71767998 18.078408,7.79366398 18.154824,7.83235198 C18.214632,7.86263998 18.309384,7.90612798 18.30816,7.98561598 C18.305952,8.12503198 18.071664,8.08809598 17.989752,8.09179198 C17.960472,8.09299198 17.838984,8.10139198 17.828496,8.13170398 C17.812848,8.17701598 18.021504,8.25074398 18.053592,8.25609598 C18.143952,8.27131198 18.18192,8.20809598 18.243192,8.15476798 C18.294696,8.10998398 18.363912,8.08207198 18.402384,8.02384798 C18.43464,7.97517598 18.40068,7.92213598 18.40776,7.87070398 C18.41364,7.82738398 18.44952,7.82774398 18.462816,7.79315998 C18.487224,7.72855198 18.343896,7.67198398 18.30324,7.65688798 C18.2645874,7.64281739 18.2249211,7.63170538 18.184584,7.62364798 C18.159072,7.61843998 18.102984,7.62086398 18.081768,7.60684798 C18.004632,7.55558398 17.994624,7.47295198 17.920008,7.41398398 C17.650464,7.28260798 17.872008,7.10827198 17.99328,7.26297598 C18.181536,7.27096798 18.227304,7.46750398 18.434256,7.48339198 C18.533016,7.60783198 18.652896,7.54113598 18.7242,7.69876798 C18.736776,7.90463998 18.778416,7.90178398 18.96288,8.03051998 C19.026,8.07463198 18.999864,8.29535998 19.13328,8.25943198 C19.17564,8.24791198 19.2252,8.19609598 19.2594,8.16952798 C19.279176,8.15409598 19.325808,8.13112798 19.338384,8.10969598 C19.377456,8.04307198 19.254744,8.03846398 19.230936,7.99768798 C19.120536,7.80731998 19.389648,7.75204798 19.523088,7.75864798 C19.648704,7.76503198 19.658376,7.92151198 19.683648,8.01304798 C19.6963038,8.06583365 19.722132,8.11455048 19.75872,8.15464798 C19.7803825,8.17672514 19.8055153,8.19510451 19.83312,8.20905598 C19.878432,8.23216798 19.925784,8.23785598 19.968528,8.26744798 C20.010024,8.29660798 20.045928,8.33138398 20.100528,8.32852798 C20.156064,8.32559998 20.203728,8.29024798 20.258016,8.28199198 C20.261784,8.28139198 20.265408,8.28139198 20.269056,8.28103198 C20.367216,8.49040799 20.457496,8.70390399 20.539896,8.92151999 C20.45232,8.91763199 20.359152,8.89840799 20.300496,8.90126399 C20.155344,8.90846399 20.022384,8.99671199 19.87464,8.94871199 C19.8121439,8.92522347 19.7462627,8.91198887 19.679544,8.90951999 C19.553088,8.90769599 19.46556,8.85083999 19.3476,8.81990399 C19.25616,8.79590399 19.152144,8.74267199 19.058496,8.73659999 C18.939576,8.72906399 18.832896,8.78659199 18.803232,8.90284799 C18.7914,8.94907199 18.786984,9.00652799 18.737784,9.02963999 C18.655392,9.06823199 18.560184,8.99020799 18.480984,8.97479999 C18.4174918,8.96659052 18.3550166,8.95184838 18.294552,8.93080799 C18.2676214,8.9198323 18.2429511,8.90397398 18.221784,8.88403199 C18.204984,8.86742399 18.185784,8.81882399 18.167112,8.80963199 C18.0731943,8.76302489 17.9701367,8.73775018 17.865312,8.73561599 C17.768712,8.73045599 17.681064,8.71327199 17.60184,8.65497599 C17.473896,8.56058399 17.626728,8.52835199 17.603664,8.41843199 C17.600256,8.40163199 17.560464,8.35629598 17.563392,8.34494398 C17.605992,8.17214398 17.416152,8.21272798 17.282088,8.24414398 C17.032176,8.26792798 16.71792,8.18109598 16.502448,8.27975998 C16.320432,8.28801598 16.122528,8.32653598 15.972048,8.43379199 C15.897336,8.48695199 15.70956,8.50579199 15.624576,8.47687199 C15.5929715,8.47047639 15.5608206,8.46716485 15.528576,8.46698399 C15.436776,8.53075199 15.272208,8.56077599 15.212736,8.62511999 C15.117024,8.72843999 15.08052,8.85484799 15.005928,8.97427199 C14.881896,9.17308799 14.633328,9.28454399 14.467416,9.44385599 C14.462352,9.44865599 14.458056,9.45319199 14.453016,9.45799199 L17.6616,11.087136 C17.9626046,11.238756 18.1484687,11.5510726 18.1381761,11.8879501 C18.1278835,12.2248276 17.9232994,12.5252148 17.6136,12.658176 C17.6256,12.85512 17.675544,12.956424 17.7912,13.118712 C17.979672,13.383144 18.21936,13.658256 18.163056,14.0052 C18.115464,14.29884 17.824416,14.4888 17.935392,14.809752 C18.032064,15.089328 18.232992,15.257568 18.302856,15.56628 C18.36012,15.819072 18.420672,15.88272 18.54984,16.074456 C18.691224,16.283928 18.882408,17.187048 19.324848,16.699632 C19.443528,16.660056 19.53312,16.741296 19.650336,16.741296 C19.70736,16.70616 19.76472,16.689048 19.807464,16.66284 C19.8366501,16.6758708 19.8692047,16.6793564 19.900488,16.6728 C18.2528599,19.5105565 15.2187765,21.256227 11.937384,21.2544015 Z M6.00542398,5.15889597 C6.04046398,5.32226397 6.11980798,5.57817597 6.12491998,5.59922397 C6.21283198,5.95403997 6.00285598,5.72882397 5.86559997,5.94088797 C5.80785597,6.02987998 5.92411197,6.11128798 5.88659997,6.18520798 C5.72788797,6.49759198 5.51608797,5.99279997 5.33563197,5.88040797 C5.31536074,5.86792429 5.29416268,5.85701235 5.27222397,5.84776797 C5.50392579,5.60499247 5.74868888,5.37502734 6.00542398,5.15889597 L6.00542398,5.15889597 Z M14.386728,12.752928 L14.796696,12.625416 L17.027664,11.934648 L17.263368,11.861664 L14.148912,10.280064 L8.05291198,7.18437598 L7.45127998,6.87890398 L7.55303998,7.15756798 L9.32831999,12.017712 L10.580736,15.4464 L11.210952,17.17152 L12.457584,14.44752 L15.178656,17.4984 C15.193568,17.516 15.20856,17.53292 15.223632,17.54916 C15.228648,17.554584 15.233712,17.559576 15.238728,17.564808 C15.248856,17.57544 15.258936,17.586 15.269136,17.596008 C15.275352,17.602128 15.281616,17.60784 15.287856,17.613768 C15.296904,17.622288 15.305928,17.630904 15.315024,17.63904 C15.321864,17.645088 15.328752,17.6508 15.335664,17.656608 C15.34428,17.663952 15.352872,17.671368 15.36156,17.678208 C15.36876,17.68392 15.375816,17.689344 15.382968,17.694768 C15.391464,17.701272 15.400008,17.707752 15.408528,17.713968 C15.41592,17.719272 15.423336,17.724216 15.430704,17.72928 C15.43908,17.734992 15.447504,17.74056 15.455784,17.745888 C15.463432,17.750688 15.471104,17.755376 15.4788,17.759952 C15.487056,17.764944 15.49524,17.76972 15.503544,17.774352 C15.511296,17.778696 15.519168,17.782896 15.526968,17.786976 C15.535224,17.791272 15.543456,17.795472 15.55176,17.799432 C15.559632,17.803256 15.567512,17.806936 15.5754,17.810472 C15.58368,17.814144 15.591912,17.817672 15.60024,17.821128 C15.60824,17.824328 15.616192,17.827488 15.624096,17.830608 C15.632472,17.833752 15.640896,17.836656 15.649176,17.839512 C15.657456,17.842368 15.665112,17.844912 15.673176,17.847408 C15.681672,17.85 15.689976,17.852376 15.698568,17.854608 C15.706512,17.856816 15.714432,17.859 15.722424,17.860944 C15.730968,17.863056 15.739584,17.864832 15.7482,17.866632 C15.756072,17.868288 15.763944,17.869968 15.771816,17.871432 C15.780648,17.872968 15.789528,17.874216 15.798384,17.87556 C15.806064,17.876616 15.813744,17.87796 15.821448,17.8788 C15.830664,17.879904 15.83988,17.880552 15.849096,17.881368 C15.856488,17.881968 15.863856,17.882808 15.871248,17.883264 C15.881448,17.883864 15.891768,17.883984 15.902016,17.884224 C15.908376,17.884224 15.91476,17.884752 15.921216,17.884752 C15.92172,17.884752 15.922128,17.884752 15.922632,17.884752 C15.9582574,17.884752 15.9938489,17.8825539 16.029216,17.878272 C16.03128,17.878032 16.033368,17.877648 16.035504,17.877432 C16.0697102,17.8731168 16.1036743,17.8670609 16.137264,17.859288 C16.140432,17.858544 16.1436,17.85768 16.14672,17.856888 C16.179696,17.849016 16.212624,17.839512 16.245504,17.828376 C16.2492,17.827152 16.252872,17.825832 16.256616,17.824536 C16.288984,17.813256 16.321336,17.80052 16.353672,17.786328 L16.36512,17.781216 C16.397424,17.76672 16.429584,17.750824 16.4616,17.733528 C16.465176,17.731632 16.4688,17.729712 16.472328,17.727768 C16.504808,17.710008 16.53712,17.690904 16.569264,17.670456 C16.57212,17.668608 16.575048,17.666856 16.577928,17.665056 C16.61108,17.643744 16.643984,17.6212 16.67664,17.597424 C16.678416,17.596128 16.680168,17.594904 16.681872,17.593632 C16.716192,17.568464 16.750216,17.542008 16.783944,17.514264 C17.41476,16.995096 17.728968,16.491168 17.130552,15.80376 L14.386728,12.752928 Z" fill="#000000"></path>
    </g>
</svg>