<?xml version="1.0" encoding="UTF-8"?>
<svg width="24px" height="24px" viewBox="0 0 24 24" version="1.1" xmlns="http://www.w3.org/2000/svg" xmlns:xlink="http://www.w3.org/1999/xlink">
    <title>icons/functional_UI/E-M/mdpi/ic_Inbox</title>
    <g id="icons/functional_UI/E-M/ic_Inbox" stroke="none" stroke-width="1" fill="none" fill-rule="evenodd">
        <path d="M19.2,13.8 L19.2,19.2 L4.79999996,19.2 L4.79999996,13.8 L1.79999996,13.8 L1.79999996,19.8 C1.79999996,21.1254834 2.87451656,22.2 4.19999997,22.2 L19.8,22.2 C21.1254834,22.2 22.2,21.1254834 22.2,19.8 L22.2,13.8 L19.2,13.8 Z M15.6,10.8 L15.6,3.59999996 C15.6,3.12261028 15.4103577,2.66477324 15.0727922,2.32720775 C14.7352267,1.98964227 14.2773897,1.79999996 13.8,1.79999996 L10.2,1.79999996 C9.20588744,1.79999996 8.39999999,2.60588741 8.39999999,3.59999996 L8.39999999,10.8 L4.79999997,10.8 L8.39999999,14.375544 L11.060592,17.017944 C11.573352,17.527224 12.426648,17.527224 12.939408,17.017944 L15.6,14.375544 L19.2,10.8 L15.6,10.8 Z" fill="#000000"></path>
    </g>
</svg>