<?xml version="1.0" encoding="UTF-8"?>
<svg width="24px" height="24px" viewBox="0 0 24 24" version="1.1" xmlns="http://www.w3.org/2000/svg" xmlns:xlink="http://www.w3.org/1999/xlink">
    <title>icons/functional_UI/E-M/mdpi/ic_Keypad_dialler</title>
    <g id="icons/functional_UI/E-M/ic_Keypad_dialler" stroke="none" stroke-width="1" fill="none" fill-rule="evenodd">
        <path d="M5.39999997,2.39999996 L7.79999997,2.39999996 C8.13137083,2.39999996 8.39999998,2.66862911 8.39999998,2.99999996 L8.39999998,5.39999996 C8.39999998,5.73137082 8.13137083,5.99999998 7.79999997,5.99999998 L5.39999997,5.99999998 C5.06862912,5.99999998 4.79999997,5.73137082 4.79999997,5.39999996 L4.79999997,2.99999996 C4.79999997,2.66862911 5.06862912,2.39999996 5.39999997,2.39999996 Z M10.8,2.39999996 L13.2,2.39999996 C13.5313709,2.39999996 13.8,2.66862911 13.8,2.99999996 L13.8,5.39999996 C13.8,5.73137082 13.5313709,5.99999998 13.2,5.99999998 L10.8,5.99999998 C10.4686291,5.99999998 10.2,5.73137082 10.2,5.39999996 L10.2,2.99999996 C10.2,2.66862911 10.4686291,2.39999996 10.8,2.39999996 Z M16.2,2.39999996 L18.6,2.39999996 C18.9313709,2.39999996 19.2,2.66862911 19.2,2.99999996 L19.2,5.39999996 C19.2,5.73137082 18.9313709,5.99999998 18.6,5.99999998 L16.2,5.99999998 C15.8686292,5.99999998 15.6,5.73137082 15.6,5.39999996 L15.6,2.99999996 C15.6,2.66862911 15.8686292,2.39999996 16.2,2.39999996 Z M5.39999997,7.79999998 L7.79999997,7.79999998 C8.13137083,7.79999998 8.39999998,8.06862913 8.39999998,8.39999999 L8.39999998,10.8 C8.39999998,11.1313708 8.13137083,11.4 7.79999997,11.4 L5.39999997,11.4 C5.06862912,11.4 4.79999997,11.1313708 4.79999997,10.8 L4.79999997,8.39999999 C4.79999997,8.06862913 5.06862912,7.79999998 5.39999997,7.79999998 Z M10.8,7.79999998 L13.2,7.79999998 C13.5313709,7.79999998 13.8,8.06862913 13.8,8.39999999 L13.8,10.8 C13.8,11.1313708 13.5313709,11.4 13.2,11.4 L10.8,11.4 C10.4686291,11.4 10.2,11.1313708 10.2,10.8 L10.2,8.39999999 C10.2,8.06862913 10.4686291,7.79999998 10.8,7.79999998 Z M16.2,7.79999998 L18.6,7.79999998 C18.9313709,7.79999998 19.2,8.06862913 19.2,8.39999999 L19.2,10.8 C19.2,11.1313708 18.9313709,11.4 18.6,11.4 L16.2,11.4 C15.8686292,11.4 15.6,11.1313708 15.6,10.8 L15.6,8.39999999 C15.6,8.06862913 15.8686292,7.79999998 16.2,7.79999998 Z M5.39999997,13.2 L7.79999997,13.2 C8.13137083,13.2 8.39999998,13.4686292 8.39999998,13.8 L8.39999998,16.2 C8.39999998,16.5313709 8.13137083,16.8 7.79999997,16.8 L5.39999997,16.8 C5.06862912,16.8 4.79999997,16.5313709 4.79999997,16.2 L4.79999997,13.8 C4.79999997,13.4686292 5.06862912,13.2 5.39999997,13.2 Z M10.8,13.2 L13.2,13.2 C13.5313709,13.2 13.8,13.4686292 13.8,13.8 L13.8,16.2 C13.8,16.5313709 13.5313709,16.8 13.2,16.8 L10.8,16.8 C10.4686291,16.8 10.2,16.5313709 10.2,16.2 L10.2,13.8 C10.2,13.4686292 10.4686291,13.2 10.8,13.2 Z M10.8,18.6 L13.2,18.6 C13.5313709,18.6 13.8,18.8686292 13.8,19.2 L13.8,21.6 C13.8,21.9313709 13.5313709,22.2 13.2,22.2 L10.8,22.2 C10.4686291,22.2 10.2,21.9313709 10.2,21.6 L10.2,19.2 C10.2,18.8686292 10.4686291,18.6 10.8,18.6 Z M16.2,13.2 L18.6,13.2 C18.9313709,13.2 19.2,13.4686292 19.2,13.8 L19.2,16.2 C19.2,16.5313709 18.9313709,16.8 18.6,16.8 L16.2,16.8 C15.8686292,16.8 15.6,16.5313709 15.6,16.2 L15.6,13.8 C15.6,13.4686292 15.8686292,13.2 16.2,13.2 Z" fill="#000000"></path>
    </g>
</svg>