<?xml version="1.0" encoding="UTF-8"?>
<svg width="24px" height="24px" viewBox="0 0 24 24" version="1.1" xmlns="http://www.w3.org/2000/svg" xmlns:xlink="http://www.w3.org/1999/xlink">
    <title>icons/functional_UI/E-M/mdpi/ic_Keypad_button</title>
    <g id="icons/functional_UI/E-M/ic_Keypad_button" stroke="none" stroke-width="1" fill="none" fill-rule="evenodd">
        <path d="M7.79999998,5.99999997 L8.99999999,5.99999997 C9.33137084,5.99999997 9.59999999,6.26862913 9.59999999,6.59999998 L9.59999999,7.79999998 C9.59999999,8.13137083 9.33137084,8.39999998 8.99999999,8.39999998 L7.79999998,8.39999998 C7.46862913,8.39999998 7.19999998,8.13137083 7.19999998,7.79999998 L7.19999998,6.59999998 C7.19999998,6.26862913 7.46862913,5.99999997 7.79999998,5.99999997 Z M11.4,5.99999997 L12.6,5.99999997 C12.9313709,5.99999997 13.2,6.26862913 13.2,6.59999998 L13.2,7.79999998 C13.2,8.13137083 12.9313709,8.39999998 12.6,8.39999998 L11.4,8.39999998 C11.0686291,8.39999998 10.8,8.13137083 10.8,7.79999998 L10.8,6.59999998 C10.8,6.26862913 11.0686291,5.99999997 11.4,5.99999997 Z M15,5.99999997 L16.2,5.99999997 C16.5313709,5.99999997 16.8,6.26862913 16.8,6.59999998 L16.8,7.79999998 C16.8,8.13137083 16.5313709,8.39999998 16.2,8.39999998 L15,8.39999998 C14.6686292,8.39999998 14.4,8.13137083 14.4,7.79999998 L14.4,6.59999998 C14.4,6.26862913 14.6686292,5.99999997 15,5.99999997 Z M7.79999998,9.59999999 L8.99999999,9.59999999 C9.33137084,9.59999999 9.59999999,9.86862914 9.59999999,10.2 L9.59999999,11.4 C9.59999999,11.7313708 9.33137084,12 8.99999999,12 L7.79999998,12 C7.46862913,12 7.19999998,11.7313708 7.19999998,11.4 L7.19999998,10.2 C7.19999998,9.86862914 7.46862913,9.59999999 7.79999998,9.59999999 Z M11.4,9.59999999 L12.6,9.59999999 C12.9313709,9.59999999 13.2,9.86862914 13.2,10.2 L13.2,11.4 C13.2,11.7313708 12.9313709,12 12.6,12 L11.4,12 C11.0686291,12 10.8,11.7313708 10.8,11.4 L10.8,10.2 C10.8,9.86862914 11.0686291,9.59999999 11.4,9.59999999 Z M15,9.59999999 L16.2,9.59999999 C16.5313709,9.59999999 16.8,9.86862914 16.8,10.2 L16.8,11.4 C16.8,11.7313708 16.5313709,12 16.2,12 L15,12 C14.6686292,12 14.4,11.7313708 14.4,11.4 L14.4,10.2 C14.4,9.86862914 14.6686292,9.59999999 15,9.59999999 Z M7.79999998,13.2 L8.99999999,13.2 C9.33137084,13.2 9.59999999,13.4686292 9.59999999,13.8 L9.59999999,15 C9.59999999,15.3313709 9.33137084,15.6 8.99999999,15.6 L7.79999998,15.6 C7.46862913,15.6 7.19999998,15.3313709 7.19999998,15 L7.19999998,13.8 C7.19999998,13.4686292 7.46862913,13.2 7.79999998,13.2 Z M11.4,13.2 L12.6,13.2 C12.9313709,13.2 13.2,13.4686292 13.2,13.8 L13.2,15 C13.2,15.3313709 12.9313709,15.6 12.6,15.6 L11.4,15.6 C11.0686291,15.6 10.8,15.3313709 10.8,15 L10.8,13.8 C10.8,13.4686292 11.0686291,13.2 11.4,13.2 Z M11.4,16.8 L12.6,16.8 C12.9313709,16.8 13.2,17.0686292 13.2,17.4 L13.2,18.6 C13.2,18.9313709 12.9313709,19.2 12.6,19.2 L11.4,19.2 C11.0686291,19.2 10.8,18.9313709 10.8,18.6 L10.8,17.4 C10.8,17.0686292 11.0686291,16.8 11.4,16.8 Z M15,13.2 L16.2,13.2 C16.5313709,13.2 16.8,13.4686292 16.8,13.8 L16.8,15 C16.8,15.3313709 16.5313709,15.6 16.2,15.6 L15,15.6 C14.6686292,15.6 14.4,15.3313709 14.4,15 L14.4,13.8 C14.4,13.4686292 14.6686292,13.2 15,13.2 Z M12,1.79999996 C17.633304,1.79999996 22.2,6.36669598 22.2,12 C22.2,17.633304 17.633304,22.2 12,22.2 C6.36669598,22.2 1.79999996,17.633304 1.79999996,12 C1.79999996,6.36669598 6.36669598,1.79999996 12,1.79999996 Z M12,2.39999996 C17.301936,2.39999996 21.6,6.69806398 21.6,12 C21.6,17.301936 17.301936,21.6 12,21.6 C6.69806398,21.6 2.39999996,17.301936 2.39999996,12 C2.39999996,6.69806398 6.69806398,2.39999996 12,2.39999996 Z" fill="#000000"></path>
    </g>
</svg>