<?xml version="1.0" encoding="UTF-8"?>
<svg width="24px" height="24px" viewBox="0 0 24 24" version="1.1" xmlns="http://www.w3.org/2000/svg" xmlns:xlink="http://www.w3.org/1999/xlink">
    <title>icons/functional_UI/E-M/mdpi/ic_Key</title>
    <g id="icons/functional_UI/E-M/ic_Key" stroke="none" stroke-width="1" fill="none" fill-rule="evenodd">
        <path d="M21.602664,18.53376 C21.6253165,18.3506632 21.5624749,18.1673249 21.432264,18.036624 L14.312136,10.914672 C14.1233675,10.7260507 14.0548558,10.4482598 14.134272,10.193496 C14.3179383,9.6043619 14.4096482,8.99042608 14.406168,8.37333598 C14.390712,5.04607197 11.643048,2.35199996 8.31698398,2.39999996 C5.04650397,2.44727996 2.40931196,5.11154397 2.404626,8.39303998 C2.39999996,11.638776 5.09440797,14.3688 8.33899198,14.403936 C8.84830773,14.4098263 9.35630671,14.3509545 9.85077599,14.228736 C10.0439802,14.181813 10.2476536,14.2393655 10.387728,14.380464 L11.601288,15.59436 C11.8001002,15.7931605 12.0697493,15.9048308 12.350904,15.9048 L14.042904,15.9048 C14.1478321,15.9048318 14.2484495,15.9465465 14.3226201,16.0207666 C14.3967907,16.0949867 14.4384382,16.195632 14.4384,16.30056 L14.4384,17.51016 C14.4384,17.78376 14.56464,18.005616 14.838192,18.005616 L16.450608,18.005616 C16.5450017,18.0056288 16.6355238,18.0431403 16.7022589,18.109898 C16.7689941,18.1766556 16.8064751,18.2671904 16.806456,18.361584 L16.806456,19.9212 C16.8064266,20.1001438 16.8774856,20.2717698 17.004,20.39832 L18.037512,21.43212 C18.2080733,21.5405384 18.4046875,21.6010166 18.606696,21.6072 L21.0072,21.6072 C21.3382267,21.6061454 21.6062778,21.3379871 21.6072086,21.00696 L21.6072086,18.605976 C21.6072086,18.5818345 21.6056323,18.5577184 21.602664,18.53376 L21.602664,18.53376 Z M4.80525597,6.63532798 C4.79149706,5.90113178 5.22504351,5.23216586 5.90082745,4.9448517 C6.57661139,4.65753754 7.35916795,4.80946896 7.87834717,5.32878226 C8.39752639,5.84809555 8.54925573,6.63069131 8.26176709,7.30640104 C7.97427844,7.98211077 7.3052006,8.41548447 6.57100798,8.40153599 C5.60340822,8.38301648 4.82352563,7.60293248 4.80525597,6.63532798 Z M15.35856,14.756616 L13.381464,12.779016 C13.294237,12.6912756 13.2495083,12.5699207 13.2589279,12.4465586 C13.2683475,12.3231966 13.3309827,12.2100396 13.43052,12.13656 C13.592088,12.01704 13.846248,12.04344 13.988352,12.185592 L15.958752,14.1564 L20.107104,18.306 C20.1931664,18.3925722 20.237914,18.5119301 20.2299759,18.6337432 C20.2220377,18.7555564 20.162178,18.8680974 20.065608,18.942768 C19.8926957,19.0719124 19.6509187,19.0532447 19.49988,18.899088 L19.20708,18.60612 L15.35856,14.756616 Z" fill="#000000"></path>
    </g>
</svg>