<svg width="24" height="24"><path fill-rule="evenodd" d="M19.059 7H4.94c-.519 0-.94.407-.94.91v8.18c0 .503.421.91.941.91H19.06c.52 0 .941-.407.941-.91V7.91c0-.503-.421-.91-.941-.91Zm-4.236 1.136c0-.125.106-.227.236-.227H16c.13 0 .235.102.235.227v.91a.231.231 0 0 1-.235.227h-.941a.231.231 0 0 1-.236-.228v-.909Zm0 2.273c0-.125.106-.227.236-.227H16c.13 0 .235.102.235.227v.91a.231.231 0 0 1-.235.226h-.941a.231.231 0 0 1-.236-.227v-.909Zm.01 2.045c.13 0 .235.102.235.228v.909a.231.231 0 0 1-.235.227h-.941a.231.231 0 0 1-.236-.227v-.91c0-.125.106-.226.236-.226h.94ZM12.47 8.137c0-.125.105-.227.235-.227h.941c.13 0 .235.102.235.227v.91a.231.231 0 0 1-.235.227h-.941a.231.231 0 0 1-.235-.228v-.909Zm0 2.273c0-.125.105-.227.235-.227h.941c.13 0 .235.102.235.227v.91a.231.231 0 0 1-.235.226h-.941a.231.231 0 0 1-.235-.227v-.909Zm.009 2.045c.13 0 .235.102.235.228v.909a.231.231 0 0 1-.235.227h-.941a.231.231 0 0 1-.236-.227v-.91c0-.125.106-.226.236-.226h.941Zm-2.362-4.318c0-.125.105-.227.235-.227h.941c.13 0 .235.102.235.227v.91a.231.231 0 0 1-.235.227h-.941a.231.231 0 0 1-.235-.228v-.909Zm0 2.273c0-.125.105-.227.235-.227h.941c.13 0 .235.102.235.227v.91a.231.231 0 0 1-.235.226h-.941a.231.231 0 0 1-.235-.227v-.909Zm.01 2.045c.129 0 .234.102.234.228v.909a.231.231 0 0 1-.235.227h-.941a.231.231 0 0 1-.235-.227v-.91a.23.23 0 0 1 .235-.226h.941ZM7.764 8.137c0-.125.105-.227.235-.227h.941c.13 0 .235.102.235.227v.91a.231.231 0 0 1-.235.227H8a.231.231 0 0 1-.235-.228v-.909Zm0 2.273c0-.125.105-.227.235-.227h.941c.13 0 .235.102.235.227v.91a.231.231 0 0 1-.235.226H8a.231.231 0 0 1-.235-.227v-.909ZM5.412 8.136c0-.125.105-.227.235-.227h.941c.13 0 .236.102.236.227v.91a.231.231 0 0 1-.236.227h-.94a.231.231 0 0 1-.236-.228v-.909Zm0 2.273c0-.125.105-.227.235-.227h.941c.13 0 .236.102.236.227v.91a.231.231 0 0 1-.236.226h-.94a.231.231 0 0 1-.236-.227v-.909Zm1.412 5.455a.231.231 0 0 1-.236.227h-.94a.231.231 0 0 1-.236-.227v-.91c0-.125.105-.227.235-.227h.941c.13 0 .236.102.236.227v.91Zm.705-2.046H5.647a.231.231 0 0 1-.235-.227v-.91a.23.23 0 0 1 .235-.226H7.53c.13 0 .236.101.236.227v.909a.231.231 0 0 1-.236.227Zm8.706 2.046a.231.231 0 0 1-.235.227H8a.231.231 0 0 1-.235-.227v-.91c0-.125.105-.227.235-.227h8c.13 0 .235.102.235.227v.91Zm2.353 0a.231.231 0 0 1-.235.227h-.941a.231.231 0 0 1-.235-.227v-.91c0-.125.105-.227.235-.227h.94c.13 0 .236.102.236.227v.91Zm0-2.273a.231.231 0 0 1-.235.227H16.47a.231.231 0 0 1-.236-.227v-.91c0-.125.106-.226.236-.226h1.882a.23.23 0 0 1 .235.227v.909Zm0-2.273a.231.231 0 0 1-.235.228h-.941a.231.231 0 0 1-.235-.228v-.909c0-.125.105-.227.235-.227h.94c.13 0 .236.102.236.227v.91Zm0-2.273a.231.231 0 0 1-.235.228h-.941a.231.231 0 0 1-.235-.228v-.909c0-.125.105-.227.235-.227h.94c.13 0 .236.102.236.227v.91Z"/></svg>