<svg width="24" height="24"><path d="m7.457 0-.012 15.291L0 15.332l.01 1.912 7.433-.04-.005 6.91 1.89.001.006-6.922 7.627-.043v1.106h.078v2.035h1.586v-3.15l5.385-.03L24 15.2l-5.375.03v-.577q.091.054.19.102.38.185.722.195a2.4 2.4 0 0 0 1.303-.375q.596-.38.947-1.082.35-.702.35-1.619 0-.881-.256-1.553-.255-.675-.766-1.05-.506-.381-1.238-.381a2 2 0 0 0-.637.045q-.255.063-.515.295c-.033.028-.066.063-.1.097v-.431h-1.586v.148h-.078v6.195l-7.625.043L9.35.002zM4.373 4.596v1.496h-.066v3.092a2.6 2.6 0 0 0-.618-.211 3.4 3.4 0 0 0-.755-.084q-.732 0-1.334.39-.596.39-.936 1.096-.341.702-.342 1.594 0 1.237.49 2.039.533.746 1.82.847h1.741v.086h1.701V4.596zm6.11.06v1.637h-.038v8.547h.037v.162h1.641v-.318q.086.056.176.105.382.206.783.207 1.067 0 1.818-.838.758-.847.758-2.26 0-.885-.256-1.562-.255-.681-.767-1.063-.512-.385-1.242-.384a5 5 0 0 0-1.27.16V4.656zM3.092 9.95q.642 0 1.214.262v2.986q-.327.51-1.159.535-.755-.055-1.146-.486-.391-.436-.457-1.287 0-.961.39-1.482.396-.527 1.159-.528m10.07.035q.43 0 .71.211.28.206.422.637.14.426.139 1.092 0 1.058-.385 1.584-.386.525-1.143.44a1.43 1.43 0 0 1-.783-.358v-3.516a6 6 0 0 1 1.04-.09m6.468 0q.65.001.967.467.316.461.316 1.447.001.972-.385 1.489-.381.515-1.158.515a1.5 1.5 0 0 1-.746-.218v-2.928c.016-.023.033-.053.049-.074q.256-.351.492-.522.24-.176.465-.176"/></svg>