<?xml version="1.0" encoding="UTF-8"?>
<svg width="24px" height="24px" viewBox="0 0 24 24" version="1.1" xmlns="http://www.w3.org/2000/svg" xmlns:xlink="http://www.w3.org/1999/xlink">
    <title>icons/functional_UI/E-M/mdpi/ic_Livebox_info</title>
    <g id="icons/functional_UI/E-M/ic_Livebox_info" stroke="none" stroke-width="1" fill="none" fill-rule="evenodd">
        <path d="M1.79999996,4.79999997 L1.79999996,16.8 L4.19999997,19.2 L22.2,19.2 L22.2,4.79999997 L1.79999996,4.79999997 Z M12,5.99999997 C12.4970563,5.99999997 12.9,6.4029437 12.9,6.89999998 C12.9,7.39705626 12.4970563,7.79999998 12,7.79999998 C11.5029437,7.79999998 11.1,7.39705626 11.1,6.89999998 C11.1,6.4029437 11.5029437,5.99999997 12,5.99999997 Z M10.2,14.01228 L10.423632,14.009712 C10.657968,14.0022 10.83216,13.935624 10.941384,13.811856 C10.980216,13.76712 11.046144,13.614504 11.046144,13.101456 L11.046144,9.67883999 C11.046144,9.19082399 10.978056,9.00683999 10.920936,8.93851199 C10.840272,8.84224799 10.672128,8.78565599 10.421304,8.77051199 L10.2,8.76580799 L10.2,8.39999998 L12.965904,8.39999998 L12.965904,13.1016 C12.965904,13.589928 13.033848,13.7736 13.090896,13.841904 C13.171368,13.938168 13.3416,13.994664 13.59684,14.009904 L13.8,14.016 L13.8,14.4 L10.2,14.4 L10.2,14.01228 Z M20.7,18 C20.5343146,18 20.4,17.8656854 20.4,17.7 C20.4,17.5343146 20.5343146,17.4 20.7,17.4 C20.8656855,17.4 21,17.5343146 21,17.7 C21,17.8656854 20.8656855,18 20.7,18 Z M21,16.2 L4.79999997,16.2 L4.79999997,15.6 L21,15.6 L21,16.2 Z" fill="#000000"></path>
    </g>
</svg>