<svg width="24" height="24"><path d="M12 0C5.373 0 0 5.375 0 12s5.373 12 12 12 12-5.375 12-12S18.625 0 12 0m0 1.83c5.61 0 10.172 4.56 10.172 10.17 0 5.608-4.563 10.17-10.172 10.17S1.83 17.61 1.83 12 6.39 1.83 12 1.83"/><path d="M12.12 2.492c-1.738 0-3.141 1.484-3.141 3.301 0 1.29.723 2.385 1.755 2.928a.6.6 0 0 1-.058.103c-.029.042-.06.084-.086.115l-.033.04-.008.01-.004.001a1 1 0 0 1-.09.041l-.01.004q-.254.12-.49.276a3 3 0 0 1-.262.156c-.034.014.004.013-.025.002l-.014-.004a2 2 0 0 0-.38-.07H9.27a.8.8 0 0 1-.253-.057 4 4 0 0 1-.438-.236l-.49-.286a.146.146 0 0 0-.22.123l-.01.387c-.003.099-.008.15-.012.203-.07-.024-.158-.056-.252-.091a7 7 0 0 0-.266-.098l-.08-.03-.01-.001.018.011.021.02.018.023.016.047a.15.15 0 0 0-.073-.101l-.002-.002a.146.146 0 0 0-.217.123l-.01.369a5 5 0 0 1-.007.203l-.03-.006-.335-.07a9 9 0 0 0-.34-.067l-.113-.015q-.022-.004-.043-.004a.2.2 0 0 0-.084.017l-.036.028-.025.033-.01.02-.006.023-.003.023q-.004.022-.006.047l-.006.139a16 16 0 0 0-.004.426v.511l-.346.225c-.92.6-1.387.905-1.658 1.113s-.355.342-.443.518a.3.3 0 0 1-.047.074c-.004.003.005-.006-.035.02a.2.2 0 0 0-.067.072.2.2 0 0 0-.023.086c-.006.051-.003.104.002.195.02.395.117.675.33.955.22.294.502.461 1.088.668l.9.32.299.108v3.67a.15.15 0 0 0 .088.135l.08.033c.12.05.306.086 2.816.62h.002q.91.189 1.817.4c.029.008.04.007.062.01l.098.007q.119.005.308.008c.252.004.587.006.948.004l1.295-.008.03-.004 2.274-.496 2.356-.516h.002l.08-.02a.146.146 0 0 0 .111-.142v-3.701l.24-.08.024-.01c.27-.145.546-.246.773-.322q.172-.056.301-.1c.085-.03.15-.052.213-.095.412-.286.658-.68.703-1.098s-.116-.85-.475-1.201c-.07-.07-.197-.16-.379-.287a22 22 0 0 0-.638-.432l-.764-.492V9.957a.146.146 0 0 0-.18-.14l-.084.02.002-.001q-.305.069-.61.135l-.35.074v-.217c0-.112.003-.193 0-.264a.4.4 0 0 0-.016-.107.2.2 0 0 0-.088-.12.22.22 0 0 0-.14-.024.5.5 0 0 0-.104.025c-.07.024-.152.06-.266.103-.04.016-.054.018-.082.028-.005-.067-.013-.133-.014-.2v-.003l-.01-.323a.146.146 0 0 0-.218-.12l-.508.294-.473.274-.224.002c-.24 0-.205.01-.4-.11-.1-.061-.225-.095-.358-.135a7 7 0 0 1-.287-.09h-.002c-.062-.028-.109-.037-.187-.062a2 2 0 0 1-.243-.092.4.4 0 0 1-.12-.084c.001-.003 0 0 .013-.013l-.018.011-.002-.002.02-.01c1.108-.511 1.88-1.666 1.88-3.013 0-1.796-1.374-3.255-3.083-3.29a.2.2 0 0 0-.057-.01m-1.366 6.246c.023.012.035.041.059.053l-.051-.041c-.01-.013-.006-.004-.008-.012m2.603.078v.004l-.02.014c.009-.004.012-.014.02-.018m-5.068.6.08.047h.002l1.316.756c-.429-.16-.89-.332-1.181-.444l-.207-.08-.008-.222zM16 9.418v.035l-.006.174-.871.326-.236.088c.316-.18.632-.357.87-.49.1-.056.174-.095.243-.133m.674.404v.32l-.33.069c-.237.048-.982.21-1.67.357l.885-.33 1.023-.38zm-9.219.004.16.063c.17.065.863.324 1.531.574l-.818-.174a39 39 0 0 1-.875-.197 2 2 0 0 1-.002-.188zm10.338.627-.008.996-.008 1.08-.797.287c-.5.179-.832.36-.888.39h-.002c-.39.207-.7.686-.785 1.175-.07.4.039.74.271.984s.572.398.963.498c.17.044.31.06.465.037.155-.022.316-.077.558-.164l.223-.08.002.44c.001.373 0 .856-.002 1.29l-.008 1.464-.341.074-1.032.219c-.318.067-1.093.233-1.722.369l-.823.174-.228.046a12 12 0 0 1-.016-.543c-.007-.595-.01-1.68-.01-3.623v-4.214l2.05-.44c.594-.127 1.144-.244 1.55-.332l.49-.105zm-11.246.006c.04.009.08.02.137.031l.55.117 1.418.303 1.393.297a31 31 0 0 1 .654.147l.006.214c.004.208.007.512.01.895.005.765.008 1.847.008 3.117v4.158q-.516-.092-1.028-.209h-.002a411 411 0 0 0-2.906-.625l-.234-.049-.01-1.396v-1.797c.372.141.736.26 1.078.244.345-.016.666-.2.858-.597.12-.25.14-.343.138-.676 0-.435-.097-.729-.342-1.031h-.002c-.115-.143-.205-.262-.367-.373-.162-.112-.382-.21-.771-.346l-.6-.21v-1.15c0-.514 0-.819.006-.992.001-.038.004-.046.006-.072m4.713.941h1.808v4.196a397 397 0 0 1-.01 3.46c-.003.327-.006.548-.011.682l-.004.055q-.879.012-1.758.002l-.006-.135a59 59 0 0 1-.01-.818c-.005-.726-.01-1.812-.01-3.25z"/></svg>