<?xml version="1.0" encoding="UTF-8"?>
<svg width="24px" height="24px" viewBox="0 0 24 24" version="1.1" xmlns="http://www.w3.org/2000/svg" xmlns:xlink="http://www.w3.org/1999/xlink">
    <title>icons/functional_UI/E-M/mdpi/ic_Lock_screen_settings</title>
    <g id="icons/functional_UI/E-M/ic_Lock_screen_settings" stroke="none" stroke-width="1" fill="none" fill-rule="evenodd">
        <path d="M12,3.59998122 C16.2970316,3.60679805 19.8904955,6.8671081 20.3140242,11.143222 C20.7375528,15.419336 17.8534695,19.3212161 13.6412597,20.1708137 C9.42905002,21.0204114 5.25797829,18.5415477 3.99085228,14.4355864 C2.72372627,10.329625 4.77245106,5.93129224 8.73088799,4.25937597 C9.76513436,3.82188849 10.8770329,3.59761988 12,3.59998122 L12,3.59998122 Z M12,1.79999996 C6.36669598,1.79999996 1.79999996,6.36669598 1.79999996,12 C1.79999996,17.633304 6.36669598,22.2 12,22.2 C17.633304,22.2 22.2,17.633304 22.2,12 C22.2,6.36669598 17.633304,1.79999996 12,1.79999996 L12,1.79999996 Z M15,10.2 L10.2,10.2 L10.2,8.39999997 C10.2,7.40588743 11.0058874,6.59999998 12,6.59999998 C12.9941126,6.59999998 13.8,7.40588743 13.8,8.39999997 L13.8,8.99999999 L15,8.99999999 L15,8.39999997 C15,6.74314573 13.6568543,5.39999997 12,5.39999997 L12,5.39999997 C10.3431457,5.39999997 8.99999999,6.74314573 8.99999999,8.39999997 L8.99999999,10.2 L7.79999998,10.2 L7.79999998,16.2 C7.79999998,16.8627417 8.33725828,17.4 8.99999999,17.4 L16.2,17.4 L16.2,11.4 C16.2,10.7372583 15.6627417,10.2 15,10.2 Z M12.4656,13.807464 L12.6,15.6 L11.4,15.6 L11.5344,13.807464 C11.1152651,13.5924314 10.8979068,13.1183424 11.0085153,12.6604354 C11.1191237,12.2025284 11.5289235,11.8799307 12,11.8799307 C12.4710765,11.8799307 12.8808763,12.2025284 12.9914847,12.6604354 C13.1020932,13.1183424 12.8847349,13.5924314 12.4656,13.807464 Z" fill="#000000"></path>
    </g>
</svg>