<?xml version="1.0" encoding="UTF-8"?>
<svg width="24px" height="24px" viewBox="0 0 24 24" version="1.1" xmlns="http://www.w3.org/2000/svg" xmlns:xlink="http://www.w3.org/1999/xlink">
    <title>icons/functional_UI/E-M/mdpi/ic_Lifestyle</title>
    <g id="icons/functional_UI/E-M/ic_Lifestyle" stroke="none" stroke-width="1" fill="none" fill-rule="evenodd">
        <path d="M18.312,3.59999996 L16.43556,3.59999996 C16.167384,2.56785596 15.225024,1.79999996 14.112,1.79999996 C13.7806292,1.79999996 13.512,2.06862911 13.512,2.39999996 L13.512,3.59999996 L5.71199997,3.59999996 C5.38102851,3.60096219 5.1129622,3.8690285 5.11199997,4.19999997 L5.11199997,21.6 C5.1129622,21.9309715 5.38102851,22.1990378 5.71199997,22.2 L18.312,22.2 C18.6429715,22.1990378 18.9110378,21.9309715 18.912,21.6 L18.912,4.19999997 C18.9110378,3.8690285 18.6429715,3.60096219 18.312,3.59999996 Z M13.512,12.030504 L13.512,16.473912 L13.512,16.473912 C13.0560374,16.6939312 12.5561664,16.807828 12.049896,16.8070599 C10.206432,16.8070599 8.71199999,15.328008 8.71199999,13.503528 C8.71199999,11.679048 10.206432,10.1999961 12.049896,10.1999961 C12.5561664,10.199228 13.0560374,10.3131249 13.512,10.533144 L13.512,10.533144 L13.512,12.030504 Z M8.11199998,5.99999997 L10.5,5.99999997 C10.790952,5.99999997 11.07072,6.23452798 11.1072,6.52319998 C11.128776,6.69422063 11.075944,6.86627958 10.9621088,6.99572121 C10.8482736,7.12516284 10.6843757,7.19954678 10.512,7.19999998 L8.12399998,7.19999998 C7.83304798,7.19999998 7.55327998,6.96547198 7.51679998,6.67679998 C7.49522398,6.50577933 7.54805597,6.33372037 7.66189116,6.20427874 C7.77572635,6.07483711 7.93962429,6.00045317 8.11199998,5.99999997 L8.11199998,5.99999997 Z M8.11199998,7.79999998 L13.512,7.79999998 L13.512,8.99999999 L8.12399998,8.99999999 C7.83304798,8.99999999 7.55327998,8.76547199 7.51679998,8.47679999 C7.49522398,8.30577934 7.54805597,8.13372038 7.66189116,8.00427875 C7.77572635,7.87483712 7.93962429,7.80045318 8.11199998,7.79999998 L8.11199998,7.79999998 Z M15.3120002,19.8 L15.3120002,19.8 C15.3120002,19.8809745 15.3038379,19.9617428 15.28752,20.041056 C15.27952,20.080016 15.269616,20.118272 15.257808,20.155824 C15.249024,20.183952 15.239224,20.21164 15.228408,20.238888 C15.217592,20.266136 15.205856,20.292856 15.1932,20.319048 C15.176288,20.354024 15.157768,20.388016 15.13764,20.421024 C15.127592,20.437536 15.117192,20.453768 15.10644,20.46972 C15.084808,20.50172 15.06172,20.532536 15.037176,20.562168 C14.9881546,20.6215094 14.9336054,20.6760586 14.874264,20.72508 C14.8446,20.749608 14.813784,20.772696 14.781816,20.794344 C14.765816,20.805144 14.749584,20.815544 14.73312,20.825544 C14.700144,20.845624 14.666152,20.864144 14.631144,20.881104 C14.604936,20.893776 14.578216,20.905512 14.550984,20.916312 C14.523752,20.927112 14.496064,20.936912 14.46792,20.945712 C14.430416,20.957456 14.39216,20.96736 14.353152,20.975424 C14.333664,20.97944 14.314016,20.982968 14.294208,20.986008 C14.2339174,20.9953089 14.1730038,21 14.112,21 L6.91199998,21 L6.91199998,20.110584 C6.9231142,19.6407512 7.02129544,19.1770574 7.20155998,18.74304 C7.58399998,17.8152 8.30942398,17.046648 9.17085599,16.576104 L9.17085599,16.576104 C10.3329303,17.6700825 12.0123206,18.015791 13.512,17.469744 L13.512,17.469744 L13.512,18 C13.512,18.3313709 13.7806292,18.6 14.112,18.6 C14.1701545,18.6000437 14.2282284,18.6043271 14.28576,18.612816 L14.28576,18.612816 C14.300904,18.615048 14.315904,18.617616 14.330856,18.620496 C14.334504,18.621168 14.338056,18.621744 14.341776,18.622464 C14.355504,18.625152 14.369112,18.6282 14.382576,18.631368 C14.387376,18.632472 14.392032,18.633504 14.396736,18.634656 C14.409696,18.637848 14.422536,18.641328 14.435328,18.644928 C14.440488,18.646392 14.445648,18.647832 14.45076,18.649344 C14.46324,18.65304 14.475616,18.656936 14.487888,18.661032 C14.493136,18.662776 14.498368,18.66456 14.503584,18.666384 C14.515776,18.67064 14.527864,18.675056 14.539848,18.679632 C14.544936,18.6816 14.549952,18.683616 14.555016,18.685656 C14.567016,18.690456 14.579016,18.6954 14.590848,18.700584 C14.595528,18.702648 14.60016,18.704808 14.604816,18.706944 C14.616816,18.712416 14.628816,18.717984 14.640816,18.723744 C14.64468,18.725664 14.648448,18.72768 14.652264,18.729624 C14.664816,18.736008 14.67732,18.742464 14.689608,18.749256 C14.691024,18.750048 14.692416,18.750888 14.693832,18.751656 C14.7370413,18.7758099 14.7787203,18.8026048 14.818632,18.831888 C14.820216,18.83304 14.821824,18.83412 14.823432,18.835272 C14.833704,18.84288 14.843736,18.8508 14.853768,18.858744 C14.858184,18.862224 14.862648,18.865632 14.867016,18.86916 C14.876016,18.876504 14.8848,18.884064 14.893584,18.891648 C14.898744,18.896088 14.903928,18.90048 14.909016,18.904992 C14.917224,18.912336 14.92524,18.919824 14.933256,18.927384 C14.938656,18.932448 14.944032,18.937536 14.949336,18.94272 C14.956944,18.950136 14.964384,18.957672 14.971776,18.96528 C14.977232,18.970896 14.982624,18.976552 14.987952,18.982248 C14.995008,18.989784 15.001968,18.997416 15.008832,19.005144 C15.014232,19.011216 15.019536,19.017384 15.024816,19.023576 C15.031344,19.031232 15.037848,19.038936 15.044184,19.04676 C15.049512,19.053312 15.054672,19.059984 15.059832,19.066656 C15.06588,19.074432 15.071832,19.082184 15.07776,19.090104 C15.082992,19.09716 15.087984,19.104504 15.093048,19.11156 C15.098544,19.11936 15.104136,19.127112 15.10944,19.135032 C15.114744,19.142952 15.119688,19.15092 15.124776,19.158888 C15.129576,19.1664 15.134376,19.17384 15.139176,19.181496 C15.146376,19.193496 15.153432,19.205832 15.16032,19.218168 C15.165384,19.227216 15.170256,19.23636 15.17508,19.245552 C15.180648,19.25616 15.186264,19.266744 15.19152,19.277544 C15.195,19.284744 15.198192,19.291944 15.201528,19.299144 C15.20604,19.308888 15.210576,19.318584 15.214824,19.328472 C15.218088,19.336008 15.221088,19.343688 15.224208,19.351296 C15.228168,19.36104 15.232104,19.37076 15.2358,19.3806 C15.238752,19.388424 15.241488,19.39632 15.244272,19.404216 C15.247752,19.414104 15.25116,19.423968 15.254376,19.433952 C15.256968,19.441968 15.259416,19.450032 15.26184,19.45812 C15.264864,19.468184 15.267752,19.478296 15.270504,19.488456 C15.272712,19.496592 15.274824,19.504728 15.276864,19.512936 C15.279432,19.523304 15.281808,19.53372 15.284064,19.544136 C15.28584,19.552248 15.287616,19.560384 15.289224,19.568592 C15.29136,19.579392 15.293256,19.590192 15.29508,19.60116 C15.296448,19.609152 15.29784,19.617144 15.299016,19.62516 C15.30072,19.636608 15.302088,19.648152 15.303456,19.65972 C15.304344,19.667352 15.305376,19.674936 15.30612,19.682616 C15.307368,19.695456 15.308256,19.708416 15.309096,19.7214 C15.309528,19.72788 15.310128,19.734312 15.31044,19.740816 C15.3114,19.760352 15.3120002,19.779984 15.3120002,19.799736 L15.3120002,19.799736 L15.3120002,19.8 Z M15.312,4.19999997 L15.312,17.723784 L15.312,17.723784 C15.1241944,17.6144027 14.9223287,17.5311856 14.712,17.47644 L14.712,17.47644 L14.712,3.16223996 L14.712,3.16223996 C15.0824662,3.37669693 15.3109828,3.77193925 15.312,4.19999997 L15.312,4.19999997 L15.312,4.19999997 Z M17.712,21 L16.512,21 L16.512,19.8 L16.512,19.8 L16.512,4.79999997 L17.712,4.79999997 L17.712,21 Z" fill="#000000"></path>
    </g>
</svg>