<svg width="24" height="24"><path fill-rule="evenodd" d="M8.333 1h1.223v14.667h2.825a1.84 1.84 0 0 1-.691-.451l-1.1-.682-.121-7.073h1.33l-.088 2.629c.407-.407.902-.572 1.573-.572 1.496 0 2.497 1.287 2.497 3.146 0 1.494-.646 2.619-1.677 3.003h2.408l.08-.65.132-5.367h1.342l-.033.385c.396-.341.89-.517 1.518-.517 1.474 0 2.497 1.298 2.497 3.146 0 1.494-.661 2.619-1.687 3.003H23v1.222h-5.123l-.031.912H16.25l.111-.912H9.556V23H8.333v-6.111H1v-1.222h2.481c-1.031-.384-1.678-1.509-1.678-3.003 0-1.86 1.001-3.146 2.497-3.146.671 0 1.21.198 1.617.605l.088-2.662h1.32l-.099 8.206h1.107zM5.895 15.667v-.451a1.8 1.8 0 0 1-.687.45zm12.023 0h.744a2 2 0 0 1-.728-.462zm-15.07-3.135c.011-.616.143-1.1.385-1.452v.01q.363-.494.99-.494c.407 0 .715.187.913.506.209.33.319.814.341 1.397-.033 1.078-.396 1.232-1.276 1.232-.44 0-.748-.088-.946-.264s-.341-.484-.407-.935m11.955-.088c-.089.506-.232.858-.43 1.023a1.65 1.65 0 0 1-.89.297c-.815 0-1.222-.43-1.354-1.298.011-.605.144-1.09.386-1.42.242-.296.571-.472.99-.472.406 0 .725.154.923.473.22.319.352.78.374 1.397m6.255.055c0-.638-.132-1.122-.385-1.463a1.15 1.15 0 0 0-.99-.506c-.407 0-.737.165-.99.506v-.011c-.242.352-.374.847-.374 1.474 0 1.22.528 1.397 1.419 1.397.89 0 1.32-.165 1.32-1.397" clip-rule="evenodd"/></svg>