<svg width="24" height="24">
<path fill-rule="evenodd" clip-rule="evenodd" d="M12.7261 12.7382C13.0112 12.4958 13.3741 12.1885 13.5819 12.0141C14.2424 11.4823 14.2888 11.4498 15.9691 10.549C17.1048 9.93047 17.3945 9.75684 17.661 9.50724C17.9044 9.27935 18.0203 8.99719 17.9971 8.74759C17.9739 8.58481 17.8812 8.43288 17.7421 8.34607C17.1743 7.98795 16.4095 8.498 16.1661 8.67163C15.666 9.00788 15.0709 9.29202 14.4858 9.47468C14.915 9.14579 15.3035 8.76765 15.6562 8.36777C15.8532 8.13988 16.1082 7.85772 16.2125 7.7492C16.5138 7.43449 16.9078 6.94615 16.9889 6.7074C17.0584 6.50121 17.0468 6.37099 16.9194 6.17565C16.7803 5.96946 16.6644 5.9152 16.3979 5.85009C16.1313 5.79583 16.0155 5.78498 15.7953 5.88265C15.494 6.01287 15.3086 6.1865 14.9145 6.64229C14.7755 6.79422 14.5785 6.9787 14.3815 7.16318C14.4626 7.05466 14.5553 6.9353 14.648 6.81592C14.8914 6.51207 15.2158 6.12139 15.3665 5.98031C15.5983 5.76327 15.7142 5.6222 15.7837 5.42686C15.8996 5.09044 15.8069 4.8734 15.7142 4.75403C15.5751 4.56954 15.3433 4.48273 15.0188 4.48273C14.8914 4.49358 14.6712 4.50443 14.5437 4.54784C14.3004 4.63466 13.8716 4.99277 13.5934 5.27493C13.466 5.40515 13.269 5.58964 13.1647 5.67646C13.014 5.79583 12.7823 6.04543 12.6316 6.21906C12.6283 6.22218 12.9174 5.75622 12.9908 5.6656C13.3617 5.19896 13.6514 4.78659 13.4312 4.39591C13.3269 4.22228 13.1531 4.09205 12.9329 4.03779C12.678 3.96183 12.3998 4.00524 12.1681 4.12461C11.7856 4.3308 11.5191 4.64551 10.7311 5.68731C10.4993 5.98031 10.1285 6.56633 9.86194 7.04382C9.74605 7.25001 9.54905 7.52131 9.42157 7.67324C9.14871 7.97135 8.95933 8.26105 8.54084 8.37862C8.54816 8.22106 8.56933 7.98134 8.59269 7.71677C8.60634 7.56223 8.62073 7.39922 8.63355 7.23916C8.67991 6.72911 8.64514 6.15395 8.10048 5.78498C7.81077 5.57879 7.4747 5.50282 7.1734 5.56793C6.95321 5.6222 6.77939 5.74157 6.67509 5.9152C6.52444 6.17565 6.44332 6.88104 6.42014 7.26086C6.38538 7.85772 6.32743 8.21584 6.16519 8.99719C6.09566 9.33361 6.00295 9.80025 6.00295 9.99558C5.97978 10.5924 6.09566 11.7211 6.2579 12.09C6.45118 12.5576 6.70602 12.8942 7.04187 13.2126C6.67893 13.6383 6.32629 14.1202 6.23089 14.3439C5.97278 14.9703 5.96303 15.4629 6.04735 16.1761C6.31789 16.7982 6.54076 17.071 7.79015 18.0325C8.64186 18.5907 9.36131 18.4651 9.65299 18.4518C9.87811 18.4415 10.8934 18.4138 11.3477 18.4071C12.243 18.394 12.3207 18.4033 14.2256 18.7505C15.4811 18.9794 15.7989 19.0195 16.1466 18.9928C16.5506 18.9617 16.8507 18.7309 16.7928 18.4958C16.7195 18.1976 16.3399 18.023 15.6488 17.9695C15.0676 17.9245 14.6139 17.8278 13.9692 17.6117C13.7016 17.5219 13.3677 17.4158 13.2272 17.3758C13.0277 17.319 12.9626 17.2834 12.9299 17.2136C12.9031 17.1562 12.9123 17.1106 12.9555 17.0862C13.0243 17.0476 13.6514 17.0101 14.4632 16.996C14.7139 16.9917 15.1799 16.9399 15.5108 16.8797C15.8386 16.82 16.2391 16.7577 16.4007 16.7413C16.8621 16.6943 17.4405 16.5627 17.6135 16.4654C17.7451 16.3914 17.7783 16.3472 17.8116 16.2015C17.8474 16.0451 17.8372 16.0061 17.7154 15.8332C17.5938 15.6607 17.5607 15.6348 17.4085 15.5929C17.1643 15.5256 16.9641 15.534 16.3418 15.6374C15.8175 15.7245 14.8503 15.767 14.5346 15.7168C14.4557 15.7043 14.1664 15.694 13.8916 15.6939C13.6169 15.6939 13.431 15.6864 13.4785 15.6773C13.5261 15.6683 13.8686 15.5785 14.2397 15.4779C14.6108 15.3772 14.97 15.2858 15.0377 15.2747C15.1055 15.2636 15.5053 15.1751 15.9261 15.078C16.3469 14.981 16.8796 14.8859 17.1098 14.8669C17.4302 14.8404 17.5672 14.8104 17.6939 14.7391C18.0731 14.5258 18.101 14.2553 17.7719 13.9802C17.6784 13.9019 17.5461 13.8193 17.478 13.7966C17.3013 13.7378 16.7949 13.7318 16.3729 13.7835C16.1738 13.8079 15.8846 13.8291 15.7303 13.8307C15.5759 13.8323 15.2475 13.8694 15.0004 13.9132C14.7533 13.9569 14.4567 14.001 14.3413 14.0111C14.1273 14.0298 13.8719 14.0814 13.207 14.2403C12.944 14.3032 12.8417 14.3133 12.8629 14.2745C12.8914 14.2222 13.1513 14.11 14.1034 13.7388C14.3157 13.656 14.6068 13.5223 14.7503 13.4416C14.969 13.3186 15.1033 13.2761 15.5819 13.1783C16.2837 13.0349 16.5426 12.9115 16.6051 12.6903C16.6857 12.405 16.4494 12.0988 16.0979 12.0332C15.745 11.9674 15.3884 12.021 14.03 12.3443C13.718 12.4185 13.1979 12.5765 12.7261 12.7382ZM11.3937 13.1025C11.5865 12.9822 11.75 12.8288 11.9131 12.676C12.0754 12.535 12.8286 11.8947 13.1763 11.6125C13.86 11.0482 13.9295 11.0048 15.6562 10.0824C16.7455 9.49639 17.0005 9.34446 17.2207 9.13827C17.3829 8.98634 17.4061 8.83441 17.3945 8.80185C17.2438 8.71504 16.9078 8.82356 16.479 9.11656C15.9807 9.45298 15.5519 9.67002 14.8798 9.90877C14.6132 10.0064 14.2888 10.1258 14.1613 10.1801C13.9643 10.2669 13.7905 10.3211 13.5934 10.2452C13.3964 10.1584 13.3037 9.98473 13.3501 9.8111C13.3733 9.74599 13.4196 9.61576 14.5089 8.70419C14.6828 8.55226 14.9841 8.2484 15.1811 8.02051C15.3897 7.77091 15.6562 7.4779 15.7721 7.35853C16.085 7.04382 16.3863 6.63144 16.4211 6.52292C16.4 6.36548 16.1712 6.28179 16.027 6.34928C15.8532 6.42525 15.7373 6.51207 15.3549 6.957C15.0304 7.32597 14.3004 7.98795 13.9643 8.17243C13.9179 8.19414 13.7209 8.34607 13.5007 8.5197C13.1415 8.81271 12.9793 8.93208 12.7823 8.75845L12.5968 8.58481C12.9796 8.12398 13.2684 7.60262 13.6514 7.14149C13.6862 7.09808 13.9179 6.79422 14.1729 6.47951C14.4278 6.1431 14.7755 5.74157 14.9493 5.57879C15.1579 5.38345 15.2043 5.30749 15.2274 5.24237C15.3029 5.04808 15.2211 5.00363 15.0188 5.00363C14.9145 5.00363 14.7987 5.02533 14.7639 5.03618C14.6596 5.06874 14.3119 5.32919 14.0338 5.6222C13.8948 5.77412 13.6746 5.96946 13.5587 6.06713C13.3579 6.23429 13.1855 6.43057 13.0154 6.62465C12.873 6.78714 12.7229 6.95828 12.6548 7.02211C12.3901 7.26996 12.1938 7.58487 11.9777 7.86851C11.7744 8.13546 11.6335 8.23118 11.2989 8.17243C11.1217 7.64131 11.5629 7.12916 11.8088 6.66399C11.9015 6.49036 12.0174 6.22991 12.0638 6.09969C12.1565 5.82838 12.2608 5.68731 12.5505 5.32919C12.6646 5.18994 13.1931 4.66886 12.8054 4.54784C12.7011 4.52614 12.5852 4.53699 12.4809 4.59125C12.2144 4.73232 11.9942 4.98192 11.2294 5.99117C11.0092 6.27332 10.6615 6.83763 10.395 7.29342C10.2559 7.53216 10.0474 7.83602 9.8967 8.00965C9.75764 8.16158 9.5954 8.35692 9.52587 8.44374C9.44475 8.5414 9.30569 8.67163 9.1898 8.73674C9.01597 8.84526 8.50608 8.99719 8.29749 8.95378C7.93824 8.88867 7.93824 8.80185 8.08889 7.19575C8.14683 6.58803 8.01936 6.38184 7.79918 6.22991C7.74672 6.19614 7.21975 5.981 7.21975 6.1865C7.16181 6.28417 7.0691 6.72911 7.03433 7.30427C6.99957 7.92284 6.94163 8.30266 6.77939 9.10571C6.69827 9.49639 6.64032 9.89791 6.62873 10.0281C6.60556 10.625 6.72144 11.6451 6.83733 11.9055C6.98777 12.2648 7.17726 12.528 7.43433 12.7813C7.70994 12.5019 8.03849 12.2673 8.35958 12.0366C9.07225 11.5243 9.37847 11.2777 9.8515 10.8352C10.2737 10.4403 10.7378 10.0907 10.9257 10.026C11.254 9.91312 11.5987 10.1783 11.6877 10.6123C11.769 11.009 11.6 11.3463 11.0952 11.7945C10.0376 12.7336 9.93595 12.8359 9.99211 12.9047C10.058 12.9854 10.4677 13.1693 10.6256 13.189C10.7138 13.2 10.8796 13.1919 10.9941 13.171C11.0751 13.1562 11.233 13.1292 11.3937 13.1025Z"/>
</svg>
