<?xml version="1.0" encoding="UTF-8"?>
<svg width="24px" height="24px" viewBox="0 0 24 24" version="1.1" xmlns="http://www.w3.org/2000/svg" xmlns:xlink="http://www.w3.org/1999/xlink">
    <title>icons/functional_UI/E-M/mdpi/ic_Left_boxed_arrow</title>
    <g id="icons/functional_UI/E-M/ic_Left_boxed_arrow" stroke="none" stroke-width="1" fill="none" fill-rule="evenodd">
        <path d="M21.024,7.51199996 L21.024,20.712 C21.024,21.7061126 20.2181126,22.512 19.224,22.512 L7.82471998,22.512 C7.49322151,22.512 7.22437084,22.2434983 7.22399998,21.912 L7.22399998,17.712 C7.22437084,17.3805018 7.49322151,17.1119733 7.82471998,17.112 L15.62424,17.112 L15.62424,11.112 L9.59999999,11.112 L9.59999999,15.312 L3.41807996,9.38783999 C3.14905479,9.13457524 2.99651989,8.78148284 2.99651989,8.41199999 C2.99651989,8.04251713 3.14905479,7.68942473 3.41807996,7.43615998 L9.59999999,1.51199996 L9.59999999,5.71199997 L19.224,5.71199997 C20.2181126,5.71199997 21.024,6.51788743 21.024,7.51199996 Z" fill="#000000"></path>
    </g>
</svg>