<?xml version="1.0" encoding="UTF-8"?>
<svg width="24px" height="24px" viewBox="0 0 24 24" version="1.1" xmlns="http://www.w3.org/2000/svg" xmlns:xlink="http://www.w3.org/1999/xlink">
    <title>icons/functional_UI/E-M/mdpi/ic_Logout</title>
    <g id="icons/functional_UI/E-M/ic_Logout" stroke="none" stroke-width="1" fill="none" fill-rule="evenodd">
        <path d="M12,10.44 C14.3858701,10.44 16.32,8.5058701 16.32,6.11999998 C16.32,3.73412985 14.3858701,1.79999996 12,1.79999996 C9.61412987,1.79999996 7.67999998,3.73412985 7.67999998,6.11999998 C7.67999998,8.5058701 9.61412987,10.44 12,10.44 Z M15.7848,10.137816 C13.6591681,12.1406499 10.3411735,12.140734 8.21543998,10.138008 C6.51736344,11.0635019 5.44400166,12.8265576 5.40153597,14.76 L5.39999997,14.76 L5.39999997,19.8 C5.39999997,21.1254834 6.47451658,22.2 7.79999998,22.2 L18.6000003,22.2 L18.6000003,14.88 C18.6006486,12.9030559 17.5206854,11.0838658 15.7848,10.137816 Z M12,20.405448 C10.0117749,20.405448 8.39999999,18.7936731 8.39999999,16.805448 C8.39999999,14.8172229 10.0117749,13.205448 12,13.205448 C13.9882251,13.205448 15.6,14.8172229 15.6,16.805448 C15.6,17.7602274 15.2207154,18.6759015 14.5455844,19.3510324 C13.8704535,20.0261634 12.9547794,20.405448 12,20.405448 L12,20.405448 Z M12.892248,16.805448 L14.007576,15.690096 C14.0667441,15.6309432 14.0999857,15.5507056 14.0999857,15.46704 C14.0999857,15.3833745 14.0667441,15.3031368 14.007576,15.243984 L13.56144,14.797848 C13.5022913,14.7386813 13.4220576,14.7054383 13.338396,14.7054383 C13.2547344,14.7054383 13.1745007,14.7386813 13.115352,14.797848 L12,15.9132 L10.884648,14.797848 C10.8254952,14.7386799 10.7452575,14.7054383 10.661592,14.7054383 C10.5779264,14.7054383 10.4976888,14.7386799 10.438536,14.797848 L9.99242399,15.243984 C9.93325586,15.3031368 9.90001426,15.3833745 9.90001426,15.46704 C9.90001426,15.5507056 9.93325586,15.6309432 9.99242399,15.690096 L11.107752,16.805448 L9.99242399,17.9208 C9.93325586,17.9799528 9.90001426,18.0601905 9.90001426,18.143856 C9.90001426,18.2275216 9.93325586,18.3077592 9.99242399,18.366912 L10.438536,18.813048 C10.4976888,18.8722162 10.5779264,18.9054578 10.661592,18.9054578 C10.7452575,18.9054578 10.8254952,18.8722162 10.884648,18.813048 L12,17.6976 L13.115352,18.812952 C13.1745007,18.8721187 13.2547344,18.9053597 13.338396,18.9053597 C13.4220576,18.9053597 13.5022913,18.8721187 13.56144,18.812952 L14.007576,18.366816 C14.0667441,18.3076632 14.0999857,18.2274256 14.0999857,18.14376 C14.0999857,18.0600945 14.0667441,17.9798568 14.007576,17.920704 L12.892248,16.805448 Z" fill="#000000"></path>
    </g>
</svg>