<svg width="24" height="24"><path fill-rule="evenodd" d="M9.857 6.568q.755-1.053 2-1.14l.06-.085a19 19 0 0 1-.985-.496L6.837 2 8 .5l10.7 6.87-.95 1.327-.991-.29-.054.074q.538 1.17-.267 2.292-.758 1.059-2.06 1.11-1.301.048-2.853-.928-1.021-.643-1.571-1.4-.554-.753-.576-1.52-.023-.766.48-1.467m5.565 2.805q.432-.604.232-1.134-.194-.527-1.1-1.112l-.188-.118q-1.026-.646-1.674-.643-.652.008-1.096.63-.786 1.095 1.143 2.31.94.593 1.604.614.665.03 1.079-.547m-9.774 5.515q.798 0 1.168-.425.372-.432.406-1.501v-.239q0-1.16-.385-1.662-.378-.503-1.223-.503-1.477 0-1.477 2.178 0 1.082.364 1.617.371.535 1.147.535m-.749 1.54q-1.36 0-2.13-.98Q2 14.463 2 12.71q0-1.765.783-2.757.79-.993 2.158-.993.728 0 1.27.258.543.258.956.799h.055l.185-.921H9.18V23H7.077v-6.553q0-.393.09-1.082h-.09a2.2 2.2 0 0 1-.893.792q-.556.27-1.285.271M16.19 14.98q.571.123.925.793.345.652-.001 1.202-.35.543-1.383 1.024-2.081.967-2.737-.274-.375-.71-.063-1.25.309-.547 1.417-1.062l.228-.106q1.037-.447 1.614-.327m2.74 2.963q.593-1.082-.01-2.225a2.6 2.6 0 0 0-.83-.96 2.3 2.3 0 0 0-1.154-.397l-.04-.076q.699-.231 1.074-.405L24 10.955l-.934-1.766-13.053 6.19.787 1.489.963-.253.024.046q-.335.587-.339 1.157t.318 1.183q.607 1.148 1.907 1.371 1.296.217 2.982-.566 1.674-.78 2.274-1.863" clip-rule="evenodd"/></svg>