<?xml version="1.0" encoding="UTF-8"?>
<svg width="24px" height="24px" viewBox="0 0 24 24" version="1.1" xmlns="http://www.w3.org/2000/svg" xmlns:xlink="http://www.w3.org/1999/xlink">
    <title>icons/functional_UI/E-M/mdpi/ic_Lightbulb</title>
    <g id="icons/functional_UI/E-M/ic_Lightbulb" stroke="none" stroke-width="1" fill="none" fill-rule="evenodd">
        <path d="M9.93854399,19.802568 C9.93854399,19.961021 10.0014908,20.1129838 10.1135363,20.2250247 C10.2255817,20.3370657 10.377547,20.4000064 10.536,20.4 L10.945776,20.4 C10.9716323,20.4001895 10.99556,20.4137095 11.009064,20.43576 C11.2282236,20.7867397 11.6127954,21 12.02658,21 C12.4403646,21 12.8249364,20.7867397 13.044096,20.43576 C13.0575955,20.4137167 13.0815123,20.4001977 13.10736,20.4 L13.49868,20.4 C13.6620173,20.4 13.8186647,20.3351145 13.9341616,20.2196176 C14.0496585,20.1041207 14.114544,19.9474733 14.114544,19.784136 L14.114544,18.58212 C14.114544,18.4277344 14.0532254,18.2796698 13.9440605,18.1705005 C13.8348957,18.0613311 13.6868336,18 13.532448,18 L10.520664,18 C10.199168,18 9.93854399,18.260624 9.93854399,18.58212 L9.93854399,19.802568 L9.93854399,19.802568 Z M12,2.99999996 C9.01766399,2.99999996 6.59999377,5.41766397 6.59999377,8.39999998 C6.59834522,9.48935997 6.92776158,10.5535059 7.54459198,11.451408 C9.20968799,14.010216 9.55579199,16.207416 9.60223199,16.560384 C9.63400331,17.0328563 10.0264607,17.4 10.5,17.4 L13.5,17.4 C13.9543663,17.4 14.3374014,17.0611549 14.39304,16.610208 L14.393304,16.610208 C14.393304,16.610208 14.6448,14.183544 16.529712,11.3406 L16.529496,11.3406 C17.0991063,10.4657501 17.4015914,9.44394235 17.4000063,8.39999998 C17.4000063,5.41766397 14.982336,2.99999996 12,2.99999996 Z" fill="#000000"></path>
    </g>
</svg>