<?xml version="1.0" encoding="UTF-8"?>
<svg width="24px" height="24px" viewBox="0 0 24 24" version="1.1" xmlns="http://www.w3.org/2000/svg" xmlns:xlink="http://www.w3.org/1999/xlink">
    <title>icons/functional_UI/E-M/mdpi/ic_Location_Pin_tick</title>
    <g id="icons/functional_UI/E-M/ic_Location_Pin_tick" stroke="none" stroke-width="1" fill="none" fill-rule="evenodd">
        <path d="M18.6000081,8.39999998 C18.6000081,4.75499997 15.645048,1.79999996 12,1.79999996 C8.35495198,1.79999996 5.39999223,4.75499997 5.39999223,8.39999998 C5.39823548,9.54949471 5.69809885,10.6793346 6.26963998,11.676672 L6.26963998,11.676672 L12,22.2 L17.730456,11.676672 L17.730456,11.676672 C18.3019741,10.6793296 18.601805,9.54948748 18.6000081,8.39999998 Z M12,13.2 C9.34903199,13.2 7.19999998,11.050968 7.19999998,8.39999998 C7.19999998,5.74903197 9.34903199,3.59999996 12,3.59999996 C14.650968,3.59999996 16.8,5.74903197 16.8,8.39999998 C16.8,11.050968 14.650968,13.2 12,13.2 Z M15.3000141,6.02399998 C15.3016658,5.77584654 15.1551663,5.5506173 14.9276443,5.4515382 C14.7001224,5.3524591 14.4354364,5.39862916 14.254896,5.56888797 L14.254896,5.56888797 L10.582752,9.14399999 L9.37291199,7.79661598 L9.37291199,7.79675998 C9.12714779,7.5844061 8.75893392,7.59856293 8.53019999,7.82915998 L8.28191998,8.07875998 C8.05822709,8.30412509 8.03862992,8.66124739 8.23631998,8.90973599 L8.23619998,8.90973599 L10.222416,11.405736 L10.222416,11.405736 C10.3396936,11.5537222 10.5181654,11.6400057 10.706988,11.6400057 C10.8958105,11.6400057 11.0742824,11.5537222 11.19156,11.405736 L11.19156,11.405736 L15.163968,6.41373598 L15.163968,6.41373598 C15.2522746,6.30305225 15.3002525,6.16559406 15.3000141,6.02399998 L15.3000141,6.02399998 Z" fill="#000000"></path>
    </g>
</svg>