<svg width="24" height="24">
<path d="M10.3967 9.09056C11.1998 9.31127 11.7594 9.88773 12.6552 9.46361C13.4209 9.10094 14.0813 8.85686 14.8954 9.09402C15.6611 9.31733 16.2477 9.8635 17.0943 9.48438C17.4452 9.32743 17.6688 9.22933 17.765 9.1901C18.6496 8.83522 19.4653 9.02564 20.2842 9.46361C20.4147 9.53343 20.6277 9.58652 20.9231 9.62287C20.9466 9.62554 20.9643 9.64687 20.9643 9.67221V11.3159C20.9643 11.3459 20.9506 11.3603 20.9231 11.3592C20.5357 11.343 20.2107 11.2729 19.9481 11.1489C19.2568 10.8225 18.7265 10.562 18.0432 10.8987C17.1419 11.3445 16.3547 11.5479 15.4106 11.1203C15.1337 10.9945 14.8962 10.895 14.698 10.8217C14.1978 10.6356 13.7071 10.7966 13.1918 11.0554C12.452 11.4264 11.7015 11.4486 10.9405 11.122C10.2747 10.8355 9.75069 10.5456 9.01189 10.9307C8.13753 11.3869 7.26556 11.5081 6.43718 11.1367C5.69996 10.8052 5.23623 10.5603 4.51011 10.9221C3.98903 11.1812 3.5039 11.3321 3.0547 11.3748C3.01823 11.3782 3 11.3598 3 11.3194L3.00079 9.67308C3.00079 9.6448 3.01374 9.62893 3.03964 9.62547C3.3044 9.58681 3.47113 9.55132 3.53983 9.51901C4.33967 9.14076 5.05073 8.84301 5.91399 9.09315C6.57115 9.28444 7.12604 9.77002 7.89576 9.56142C8.02893 9.52507 8.29608 9.41687 8.69719 9.23684C9.26107 8.98294 9.82759 8.93418 10.3967 9.09056Z" fill="black"/>
<path d="M20.5 13.3076H3.52454C3.24839 13.3076 3.02454 13.5314 3.02454 13.8076C3.02454 14.0837 3.24839 14.3076 3.52454 14.3076H20.5C20.7761 14.3076 21 14.0837 21 13.8076C21 13.5314 20.7761 13.3076 20.5 13.3076Z" fill="black"/>
</svg>
