<svg width="24" height="24"><path d="M12 0C5.372 0 0 5.372 0 12s5.372 12 12 12 12-5.372 12-12S18.628 0 12 0m0 1.561c1.41 0 2.775.277 4.064.82a10.48 10.48 0 0 1 5.56 5.555q.29.69.48 1.411a2 2 0 0 0-.467-.053q-.51 0-.902.203-.393.2-.715.624v-.71h-1.561v5.276l-.374.002V9.21h-1.38v.774q-.575-.688-1.46-.689-.51 0-.902.203-.393.2-.715.624v-2.6h-1.2V5.545h-1.427v8.944h1.427v-.227h1.2v-.702q.322.425.715.629.392.199.903.199.885-.001 1.459-.685v.994l-6.704.038.01-12.984A10.5 10.5 0 0 1 12 1.561m-3.63.649-.01 12.534-6.422.036A10.4 10.4 0 0 1 1.561 12c0-1.41.277-2.775.82-4.064a10.47 10.47 0 0 1 5.99-5.726M5.686 5.493v4.393a2 2 0 0 0-.51-.389 1.9 1.9 0 0 0-.895-.203q-.901 0-1.482.715-.58.71-.58 1.832t.58 1.836q.58.71 1.482.71.51 0 .898-.198.27-.14.507-.39v.638h1.48v-.175h.294v-6.74h-.294v-2.03ZM4.86 10.42q.501 0 .763.364c.024.032.042.072.062.108v1.898c-.02.036-.038.075-.062.108q-.261.364-.763.364-.497 0-.763-.364-.261-.364-.261-1.057t.261-1.057q.266-.364.763-.364m9.806 0q.5 0 .763.364.266.364.266 1.057-.001.693-.266 1.057-.263.364-.763.364-.502 0-.772-.364-.266-.369-.266-1.057 0-.69.266-1.053.27-.368.772-.368m6.391 0q.502 0 .763.364.267.364.266 1.057 0 .693-.266 1.057-.26.364-.763.364-.501 0-.771-.364-.267-.369-.266-1.057 0-.69.266-1.053.27-.368.771-.368m-1.037 3.14q.322.425.715.629.392.198.902.199.288 0 .542-.073-.037.178-.08.352l-2.08.012zm1.492 2.75a10.4 10.4 0 0 1-2.13 3.073c-.96.96-2.076 1.71-3.318 2.24-1.284.544-2.653.82-4.064.82q-1.021 0-2.005-.193L10 16.376l6.705-.038v2.724h1.38V16.33zm-13.153.075-.005 5.403q-.21-.077-.418-.165a10.4 10.4 0 0 1-3.319-2.24 10.4 10.4 0 0 1-2.076-2.965Z"/></svg>