<svg width="24" height="24"><path fill-rule="evenodd" d="M12.726 12.738c.285-.242.648-.55.856-.724.66-.532.707-.564 2.387-1.465 1.136-.619 1.426-.792 1.692-1.042.243-.228.36-.51.336-.76a.57.57 0 0 0-.255-.4c-.568-.359-1.332.151-1.576.325a6.6 6.6 0 0 1-1.68.803c.429-.33.817-.707 1.17-1.107.197-.228.452-.51.556-.619.302-.315.696-.803.777-1.042.07-.206.058-.336-.07-.531-.139-.207-.255-.26-.521-.326-.267-.054-.383-.065-.603.033-.301.13-.486.303-.88.76-.14.151-.336.336-.533.52.08-.108.173-.228.266-.347.243-.304.568-.695.719-.836.231-.217.347-.358.417-.553.116-.337.023-.554-.07-.673-.139-.184-.37-.271-.695-.271-.128.01-.348.021-.475.065-.244.087-.672.445-.95.727-.128.13-.325.315-.43.401-.15.12-.382.37-.532.543-.004.003.285-.463.359-.553.37-.467.66-.88.44-1.27a.8.8 0 0 0-.498-.358 1.04 1.04 0 0 0-.765.087c-.382.206-.649.52-1.437 1.562-.232.293-.602.88-.87 1.357a5 5 0 0 1-.44.63c-.272.297-.462.587-.88.705.007-.158.028-.398.052-.662.013-.155.028-.318.04-.478.047-.51.012-1.085-.533-1.454-.29-.206-.625-.282-.927-.217a.78.78 0 0 0-.498.347c-.15.26-.232.966-.255 1.346-.035.597-.093.955-.255 1.736-.07.337-.162.803-.162.999-.023.596.093 1.725.255 2.094.193.468.448.804.784 1.123-.363.425-.716.907-.811 1.13-.258.627-.268 1.12-.184 1.833.27.622.494.895 1.743 1.857.852.558 1.571.432 1.863.419.225-.01 1.24-.038 1.695-.045.895-.013.973-.004 2.878.343 1.255.23 1.573.27 1.92.243.405-.031.705-.262.647-.497q-.108-.447-1.144-.526c-.581-.046-1.035-.142-1.68-.358a22 22 0 0 0-.742-.236c-.2-.057-.264-.093-.297-.162q-.04-.089.026-.128c.068-.038.695-.076 1.507-.09.25-.004.717-.056 1.048-.116.328-.06.728-.122.89-.139.461-.047 1.04-.178 1.212-.276.132-.074.165-.118.199-.264.035-.156.025-.195-.097-.368-.121-.172-.154-.198-.306-.24-.245-.067-.445-.059-1.067.044-.524.088-1.492.13-1.807.08a7 7 0 0 0-.643-.023c-.275 0-.461-.008-.413-.017.047-.009.39-.098.76-.2.372-.1.731-.191.799-.202.067-.011.467-.1.888-.197.42-.097.954-.192 1.184-.211.32-.027.457-.057.584-.128.38-.213.407-.484.078-.759a1.2 1.2 0 0 0-.294-.183c-.177-.06-.683-.065-1.105-.014-.2.025-.488.046-.643.048a6 6 0 0 0-.73.082c-.247.044-.543.088-.659.098-.214.019-.47.07-1.134.23-.263.062-.365.072-.344.034.028-.053.288-.165 1.24-.536.213-.083.504-.217.647-.297.219-.123.353-.166.832-.264.702-.143.96-.267 1.023-.488.08-.285-.156-.591-.507-.657-.353-.066-.71-.012-2.068.311-.312.075-.832.232-1.304.394m-1.332.364c.192-.12.356-.273.52-.426.161-.141.915-.781 1.262-1.063.684-.565.754-.608 2.48-1.53 1.09-.587 1.344-.739 1.565-.945.162-.152.185-.304.174-.336-.151-.087-.487.022-.916.315-.498.336-.927.553-1.6.792-.266.097-.59.217-.718.271-.197.087-.37.141-.568.065-.197-.087-.29-.26-.243-.434.023-.065.07-.195 1.159-1.107.174-.152.475-.456.672-.683.209-.25.475-.543.591-.662.313-.315.614-.728.65-.836-.022-.158-.25-.241-.395-.174-.174.076-.29.163-.672.608-.325.369-1.055 1.03-1.39 1.215a6 6 0 0 0-.464.348c-.36.293-.522.412-.719.238l-.185-.173c.383-.461.671-.982 1.054-1.444.035-.043.267-.347.522-.661.255-.337.602-.738.776-.901.209-.196.255-.272.278-.337.076-.194-.006-.238-.208-.238-.104 0-.22.021-.255.032-.104.033-.452.293-.73.586-.14.152-.36.347-.475.445-.201.167-.373.364-.544.558a8 8 0 0 1-.36.397c-.265.248-.461.563-.677.847-.204.266-.344.362-.68.303-.176-.53.265-1.043.51-1.508.094-.174.21-.434.256-.564.092-.272.197-.413.486-.77.115-.14.643-.661.255-.782a.5.5 0 0 0-.324.043c-.267.141-.487.39-1.252 1.4-.22.282-.567.847-.834 1.302-.14.24-.348.543-.498.717-.14.152-.302.347-.371.434-.081.097-.22.228-.336.293-.174.108-.684.26-.893.217-.359-.065-.359-.152-.208-1.758.058-.608-.07-.814-.29-.966-.052-.034-.58-.249-.58-.044-.057.098-.15.543-.185 1.118-.034.619-.092.999-.255 1.802-.08.39-.139.792-.15.922-.023.597.092 1.617.208 1.877.15.36.34.623.597.876.276-.28.604-.514.926-.744.712-.513 1.018-.76 1.492-1.202.422-.395.886-.744 1.074-.809.328-.113.673.152.762.586.081.397-.088.734-.593 1.182-1.057.94-1.16 1.042-1.103 1.11.066.081.476.265.634.285.088.011.254.003.368-.018.081-.015.239-.042.4-.069" clip-rule="evenodd"/></svg>