<?xml version="1.0" encoding="UTF-8"?>
<svg width="24px" height="24px" viewBox="0 0 24 24" version="1.1" xmlns="http://www.w3.org/2000/svg" xmlns:xlink="http://www.w3.org/1999/xlink">
    <title>icons/functional_UI/E-M/mdpi/ic_Lock_open</title>
    <g id="icons/functional_UI/E-M/ic_Lock_open" stroke="none" stroke-width="1" fill="none" fill-rule="evenodd">
        <path d="M17.4,10.2 L8.99999999,10.2 L8.99999999,5.99999998 C8.99999999,4.34314572 10.3431457,2.99999996 12,2.99999996 C13.6568543,2.99999996 15,4.34314572 15,5.99999997 L15,8.99999999 L16.8,8.99999999 L16.8,5.99999998 C16.8,3.35999996 14.64,1.19999995 12,1.19999995 C9.35999999,1.19999995 7.19999998,3.35999996 7.19999998,5.99999998 L7.19999998,10.2 L4.79999997,10.2 L4.79999997,21 C4.79999997,21.9941126 5.60588742,22.8 6.59999998,22.8 L19.2,22.8 L19.2,12 C19.2,11.0058874 18.3941126,10.2 17.4,10.2 L17.4,10.2 Z M12.877176,16.571712 L13.2,19.8 L10.8,19.8 L11.122824,16.571712 C10.4071549,16.1723184 10.0516396,15.339894 10.2579833,14.5467233 C10.4643271,13.7535526 11.1804285,13.1999098 12,13.1999098 C12.8195715,13.1999098 13.5356729,13.7535526 13.7420167,14.5467233 C13.9483604,15.339894 13.5928451,16.1723184 12.877176,16.571712 L12.877176,16.571712 Z" fill="#000000"></path>
    </g>
</svg>