<?xml version="1.0" encoding="UTF-8"?>
<svg width="24px" height="24px" viewBox="0 0 24 24" version="1.1" xmlns="http://www.w3.org/2000/svg" xmlns:xlink="http://www.w3.org/1999/xlink">
    <title>icons/functional_UI/E-M/mdpi/ic_Light</title>
    <g id="icons/functional_UI/E-M/ic_Light" stroke="none" stroke-width="1" fill="none" fill-rule="evenodd">
        <path d="M9.59999999,19.8 C9.59999999,20.1313709 9.86862914,20.4 10.2,20.4 L10.960944,20.4 C11.1752226,20.7712782 11.5713244,21 12,21 C12.4286756,21 12.8247774,20.7712782 13.039056,20.4 L13.8,20.4 C14.1313709,20.4 14.4,20.1313709 14.4,19.8 L14.4,18 L9.59999999,18 L9.59999999,19.8 Z M12,2.99999996 C9.01766399,2.99999996 6.59999374,5.41766397 6.59999374,8.39999998 C6.59834067,9.48936066 6.92775745,10.5535079 7.54459198,11.451408 C9.20968799,14.010216 9.55579199,16.20744 9.60223199,16.560384 C9.63400331,17.0328563 10.0264607,17.4 10.5,17.4 L13.5,17.4 C13.9543663,17.4 14.3374014,17.0611549 14.39304,16.610208 L14.393304,16.610208 C14.393304,16.610208 14.6448,14.183544 16.529712,11.3406 L16.529496,11.3406 C17.0991088,10.4657513 17.4015942,9.44394275 17.4000063,8.39999998 C17.4000063,5.41766397 14.982336,2.99999996 12,2.99999996 Z" fill="#000000"></path>
    </g>
</svg>