<svg width="24" height="24">
<path fill-rule="evenodd" clip-rule="evenodd" d="M20.8889 12C20.8889 16.9092 16.9092 20.8889 12 20.8889C7.0908 20.8889 3.11111 16.9092 3.11111 12C3.11111 7.0908 7.0908 3.11111 12 3.11111C16.9092 3.11111 20.8889 7.0908 20.8889 12ZM22 12C22 17.5228 17.5228 22 12 22C6.47715 22 2 17.5228 2 12C2 6.47715 6.47715 2 12 2C17.5228 2 22 6.47715 22 12ZM13.95 12.0141C13.7596 12.1885 13.4269 12.4958 13.1656 12.7382C13.5981 12.5765 14.0748 12.4185 14.3608 12.3443C15.606 12.021 15.9329 11.9674 16.2564 12.0332C16.5786 12.0988 16.7953 12.405 16.7213 12.6903C16.664 12.9115 16.4267 13.0349 15.7834 13.1783C15.3447 13.2761 15.2216 13.3186 15.0211 13.4416C14.8896 13.5223 14.6227 13.656 14.4281 13.7388C13.5553 14.11 13.3171 14.2222 13.291 14.2745C13.2715 14.3133 13.3653 14.3032 13.6064 14.2403C14.2159 14.0814 14.45 14.0298 14.6462 14.0111C14.752 14.001 15.0238 13.9569 15.2503 13.9132C15.4769 13.8694 15.7779 13.8323 15.9194 13.8307C16.0609 13.8291 16.326 13.8079 16.5085 13.7835C16.8954 13.7318 17.3595 13.7378 17.5215 13.7966C17.5839 13.8193 17.7052 13.9019 17.7909 13.9802C18.0925 14.2553 18.067 14.5258 17.7194 14.7391C17.6032 14.8104 17.4777 14.8404 17.184 14.8669C16.973 14.8859 16.4847 14.981 16.0989 15.078C15.7132 15.1751 15.3467 15.2636 15.2846 15.2747C15.2225 15.2858 14.8933 15.3772 14.5531 15.4779C14.2129 15.5785 13.8989 15.6683 13.8553 15.6773C13.8117 15.6864 13.9821 15.6939 14.234 15.6939C14.4858 15.694 14.7511 15.7043 14.8234 15.7168C15.1128 15.767 15.9994 15.7245 16.48 15.6374C17.0504 15.534 17.234 15.5256 17.4578 15.5929C17.5973 15.6348 17.6276 15.6607 17.7391 15.8332C17.8508 16.0061 17.8602 16.0451 17.8273 16.2015C17.7968 16.3472 17.7664 16.3914 17.6457 16.4654C17.4871 16.5627 16.957 16.6943 16.5339 16.7413C16.3858 16.7577 16.0187 16.82 15.7182 16.8797C15.4149 16.9399 14.9878 16.9917 14.758 16.996C14.0138 17.0101 13.4389 17.0476 13.3759 17.0862C13.3362 17.1106 13.3278 17.1562 13.3524 17.2136C13.3824 17.2834 13.4421 17.319 13.625 17.3758C13.7538 17.4158 14.0598 17.5219 14.3051 17.6117C14.896 17.8278 15.312 17.9245 15.8448 17.9695C16.4783 18.023 16.8262 18.1976 16.8934 18.4958C16.9464 18.7309 16.6714 18.9617 16.301 18.9928C15.9824 19.0195 15.691 18.9794 14.5402 18.7505C12.794 18.4033 12.7227 18.394 11.902 18.4071C11.4856 18.4138 10.5549 18.4415 10.3486 18.4518C10.3208 18.4531 10.2887 18.4557 10.2527 18.4587C9.94267 18.4838 9.34048 18.5326 8.64097 18.0325C7.49569 17.071 7.2914 16.7982 7.04341 16.1761C6.96611 15.4629 6.97505 14.9703 7.21165 14.3439C7.2991 14.1202 7.62236 13.6383 7.95505 13.2126C7.64719 12.8942 7.41358 12.5576 7.23641 12.09C7.08769 11.7211 6.98146 10.5924 7.00271 9.99558C7.00271 9.80025 7.08769 9.33361 7.15143 8.99719C7.30015 8.21584 7.35326 7.85772 7.38513 7.26086C7.40637 6.88104 7.48073 6.17565 7.61883 5.9152C7.71444 5.74157 7.87378 5.6222 8.07561 5.56793C8.35181 5.50282 8.65987 5.57879 8.92544 5.78498C9.42471 6.15395 9.45658 6.72911 9.41409 7.23916C9.40234 7.39919 9.38915 7.56218 9.37664 7.71669L9.37663 7.71677C9.35522 7.98134 9.33581 8.22106 9.32911 8.37862C9.43534 8.34607 9.56281 8.30266 9.6053 8.28095C9.64779 8.25925 9.73277 8.17243 9.78589 8.10732C9.84963 8.0205 10.009 7.82517 10.1364 7.67324C10.2533 7.52131 10.4339 7.25001 10.5401 7.04382C10.7844 6.56633 11.1244 5.98031 11.3368 5.68731C12.0592 4.64551 12.3035 4.3308 12.6541 4.12461C12.8665 4.00524 13.1215 3.96183 13.3552 4.03779C13.557 4.09205 13.7163 4.22228 13.8119 4.39591C14.0138 4.78659 13.7482 5.19896 13.4083 5.6656C13.1746 5.98031 13.1108 6.08883 13.0683 6.22991C13.0683 6.22991 13.5333 5.70611 13.5676 5.67646C13.6632 5.58964 13.8438 5.40515 13.9607 5.27493C14.2156 4.99277 14.6087 4.63466 14.8317 4.54784C14.9308 4.51103 15.091 4.49763 15.2087 4.48779C15.2298 4.48603 15.2495 4.48438 15.2673 4.48273C15.5647 4.48273 15.7772 4.56954 15.9046 4.75403C15.9896 4.8734 16.0746 5.09044 15.9684 5.42686C15.9046 5.6222 15.7984 5.76327 15.586 5.98031C15.2717 6.30132 15.0091 6.68581 14.7543 7.05899L14.7543 7.059L14.683 7.16319C14.8636 6.97871 15.0442 6.79422 15.1717 6.64229C15.5328 6.1865 15.7028 6.01287 15.979 5.88265C16.1808 5.78498 16.2871 5.79583 16.5314 5.85009C16.7757 5.9152 16.8819 5.96946 17.0094 6.17565C17.1263 6.37099 17.1369 6.50121 17.0732 6.7074C16.9988 6.94615 16.6376 7.43449 16.3614 7.7492C16.2658 7.85772 16.0321 8.13988 15.8515 8.36777C15.6497 8.61737 15.3523 8.95378 15.1717 9.11656C15.1019 9.17762 15.0369 9.23868 14.9754 9.29639C14.9057 9.36175 14.8407 9.42281 14.7786 9.47468C15.3245 9.2888 15.8548 9.01206 16.3189 8.67163C16.542 8.498 17.2431 7.98795 17.7636 8.34607C17.8911 8.43288 17.9761 8.58481 17.9973 8.74759C18.0186 8.99719 17.9124 9.27935 17.6893 9.50724C17.445 9.75684 17.1794 9.93047 16.1383 10.549C14.598 11.4498 14.5555 11.4823 13.95 12.0141ZM12.3367 12.7615C12.2455 12.8547 12.1207 12.9823 11.9442 13.1025C11.7969 13.1292 11.6522 13.1562 11.5779 13.171C11.473 13.1919 11.321 13.2 11.2401 13.189C11.0954 13.1693 10.7198 12.9854 10.6594 12.9047C10.608 12.8359 10.7012 12.7336 11.6706 11.7945C12.1333 11.3463 12.2883 11.009 12.2137 10.6123C12.1321 10.1783 11.8162 9.91312 11.5153 10.026C11.343 10.0907 10.9175 10.4403 10.5305 10.8352C10.0969 11.2777 9.81623 11.5243 9.16295 12.0366C8.8614 12.273 8.52193 12.5628 8.40858 12.6806C8.37829 12.7121 8.34695 12.7457 8.31481 12.7813C8.07915 12.528 7.90545 12.2648 7.76755 11.9055C7.66132 11.6451 7.55509 10.625 7.57634 10.0281C7.58696 9.89791 7.64008 9.49639 7.71444 9.10571C7.86316 8.30266 7.91627 7.92284 7.94814 7.30427C7.98001 6.72911 8.06499 6.28417 8.1181 6.1865C8.1181 6.17565 8.14997 6.13224 8.22433 6.11054C8.31994 6.08883 8.47928 6.11054 8.64925 6.22991C8.85108 6.38184 8.96793 6.58803 8.91482 7.19575C8.77672 8.80185 8.77672 8.88867 9.10603 8.95378C9.29724 8.99719 9.76464 8.84526 9.92399 8.73674C10.0302 8.67163 10.1577 8.5414 10.232 8.44374C10.2958 8.35692 10.4445 8.16158 10.572 8.00965C10.7101 7.83602 10.9013 7.53216 11.0288 7.29342C11.2731 6.83763 11.5918 6.27332 11.7936 5.99117C12.4947 4.98192 12.6965 4.73232 12.9409 4.59125C13.0365 4.53699 13.1427 4.52614 13.2383 4.54784C13.2702 4.55869 13.3339 4.5804 13.3658 4.64551C13.3977 4.69977 13.3552 4.86255 13.0046 5.32919C12.739 5.68731 12.6434 5.82838 12.5584 6.09969C12.516 6.22991 12.4097 6.49036 12.3247 6.664C11.783 7.78176 11.7617 7.84687 11.8042 7.9988L12.0273 8.20499C12.2227 8.23651 12.3285 8.08497 12.4796 7.86851L12.4947 7.84687C12.8346 7.34768 12.9727 7.15234 13.1002 7.02211C13.1627 6.95828 13.3002 6.78718 13.4307 6.62469L13.4308 6.62467L13.5039 6.53377C13.642 6.36014 13.8332 6.15395 13.9288 6.06713C14.035 5.96946 14.2369 5.77412 14.3643 5.6222C14.6193 5.32919 14.938 5.06874 15.0336 5.03618C15.0654 5.02533 15.1717 5.00363 15.2673 5.00363C15.416 5.00363 15.4797 5.03618 15.4797 5.04703C15.4797 5.04861 15.4802 5.05132 15.4808 5.05517C15.4845 5.0779 15.4948 5.1403 15.4585 5.24237C15.4372 5.30748 15.3947 5.38345 15.2035 5.57879C15.0442 5.74157 14.7255 6.1431 14.4918 6.47951C14.3147 6.71795 14.1499 6.95016 14.0665 7.06759L14.0665 7.06763C14.0398 7.10517 14.0215 7.13097 14.0138 7.14149C13.9727 7.19542 13.8572 7.37507 13.7548 7.53431C13.6717 7.66345 13.5973 7.77916 13.5782 7.80346C13.3977 8.08562 13.1958 8.38948 13.1958 8.38948L13.0471 8.58481L13.2171 8.75845C13.3977 8.93208 13.5464 8.81271 13.8757 8.5197C14.0775 8.34607 14.2581 8.19414 14.3006 8.17243C14.6087 7.98795 15.2779 7.32597 15.5753 6.957C15.9259 6.51207 16.0321 6.42525 16.1915 6.34928C16.2552 6.31673 16.2552 6.31673 16.3933 6.34928C16.457 6.37099 16.542 6.4361 16.542 6.4361C16.5752 6.70741 16.2558 7.04366 16.0458 7.26472L16.0457 7.26479C16.0132 7.29903 15.9833 7.33049 15.9578 7.35853C15.8515 7.4779 15.6072 7.77091 15.416 8.0205C15.2354 8.2484 14.9592 8.55226 14.7999 8.70419C13.8013 9.61576 13.7588 9.74599 13.7376 9.8111C13.6951 9.98473 13.7801 10.1584 13.9607 10.2452C14.1412 10.3211 14.3006 10.2669 14.4812 10.1801C14.598 10.1258 14.8955 10.0064 15.1398 9.90877C15.7559 9.67002 16.149 9.45298 16.6057 9.11656C16.9988 8.82356 17.3069 8.71504 17.445 8.80185C17.4556 8.83441 17.4343 8.98634 17.2856 9.13827C17.0838 9.34446 16.8501 9.49639 15.8515 10.0824C14.2687 11.0048 14.205 11.0482 13.5782 11.6125C13.2596 11.8947 12.5691 12.535 12.4204 12.676L12.346 12.752L12.3367 12.7615Z"/>
</svg>
