<?xml version="1.0" encoding="UTF-8"?>
<svg width="24px" height="24px" viewBox="0 0 24 24" version="1.1" xmlns="http://www.w3.org/2000/svg" xmlns:xlink="http://www.w3.org/1999/xlink">
    <title>icons/functional_UI/E-M/mdpi/ic_Location_pin_compass</title>
    <g id="icons/functional_UI/E-M/ic_Location_pin_compass" stroke="none" stroke-width="1" fill="none" fill-rule="evenodd">
        <path d="M18.6000081,8.39999998 C18.6000081,4.75499997 15.645048,1.79999996 12,1.79999996 C8.35495198,1.79999996 5.39999223,4.75499997 5.39999223,8.39999998 C5.39823548,9.54949471 5.69809885,10.6793346 6.26963998,11.676672 L6.26963998,11.676672 L12,22.2 L17.730456,11.676672 L17.730456,11.676672 C18.3019741,10.6793296 18.601805,9.54948748 18.6000081,8.39999998 Z M12,13.2 C9.34903199,13.2 7.19999998,11.050968 7.19999998,8.39999998 C7.19999998,5.74903197 9.34903199,3.59999996 12,3.59999996 C14.650968,3.59999996 16.8,5.74903197 16.8,8.39999998 C16.8,11.050968 14.650968,13.2 12,13.2 Z M14.962968,5.62420797 L8.04335998,8.69207999 L10.516584,9.42189599 L10.895016,12.246504 L14.962968,5.62420797 Z" fill="#000000"></path>
    </g>
</svg>