<svg width="24" height="24"><path fill-rule="evenodd" d="M20.889 12A8.889 8.889 0 1 1 3.11 12a8.889 8.889 0 0 1 17.778 0M22 12c0 5.523-4.477 10-10 10S2 17.523 2 12 6.477 2 12 2s10 4.477 10 10m-8.05.014-.784.724c.432-.162.909-.32 1.195-.394 1.245-.323 1.572-.377 1.895-.31.323.065.54.371.465.656-.057.222-.294.345-.938.488-.438.098-.561.14-.762.264-.131.08-.398.214-.593.297-.873.371-1.11.483-1.137.535-.02.04.074.03.315-.034.61-.159.844-.21 1.04-.229.106-.01.378-.054.604-.098a5 5 0 0 1 .67-.082 6 6 0 0 0 .589-.047c.386-.052.85-.046 1.012.013.063.022.184.105.27.183.302.275.276.546-.072.76-.116.07-.241.1-.535.127a9 9 0 0 0-1.085.211 29 29 0 0 1-.814.197c-.062.01-.392.102-.732.203-.34.1-.654.19-.698.2-.043.008.127.016.379.016s.517.01.59.023c.289.05 1.175.008 1.656-.08.57-.103.754-.111.978-.044.14.042.17.068.281.24.112.173.121.212.088.368-.03.146-.06.19-.181.264-.159.098-.689.23-1.112.276-.148.017-.515.079-.816.139-.303.06-.73.112-.96.116-.744.014-1.32.052-1.382.09q-.06.04-.024.128c.03.07.09.105.273.162.129.04.435.146.68.236.591.216 1.007.313 1.54.358q.948.08 1.048.526c.053.235-.222.466-.592.497-.319.027-.61-.014-1.76-.242-1.747-.348-1.818-.357-2.639-.344-.416.007-1.347.035-1.553.045q-.042.002-.096.007c-.31.025-.913.074-1.612-.427-1.145-.961-1.35-1.234-1.598-1.856-.077-.713-.068-1.206.169-1.832.087-.224.41-.706.743-1.131a3.1 3.1 0 0 1-.719-1.123c-.148-.369-.255-1.498-.233-2.094 0-.196.085-.662.148-.999.15-.781.202-1.14.234-1.736.021-.38.096-1.085.234-1.346a.72.72 0 0 1 .457-.347c.276-.065.584.01.85.217.499.369.53.944.488 1.454l-.037.478c-.022.264-.041.504-.048.662a3 3 0 0 0 .276-.098 1 1 0 0 0 .18-.174c.065-.086.224-.282.351-.434.117-.152.298-.423.404-.63.244-.477.584-1.063.797-1.356.722-1.041.966-1.356 1.317-1.562a.88.88 0 0 1 .701-.087.73.73 0 0 1 .457.358c.202.39-.064.803-.404 1.27-.233.314-.297.423-.34.564 0 0 .465-.524.5-.554.095-.086.276-.27.393-.401.255-.282.648-.64.87-.727.1-.037.26-.05.378-.06l.058-.005c.298 0 .51.087.638.271.085.12.17.336.063.673-.063.195-.17.336-.382.553-.314.321-.577.706-.832 1.079l-.071.104c.18-.184.361-.369.489-.52.36-.457.53-.63.807-.76.202-.098.308-.087.552-.033.245.065.35.12.478.326a.56.56 0 0 1 .064.531c-.074.24-.435.727-.712 1.042-.095.109-.329.39-.51.619-.201.25-.499.586-.68.749q-.104.091-.196.18-.104.099-.196.178a5.8 5.8 0 0 0 1.54-.803c.223-.174.924-.684 1.445-.326a.58.58 0 0 1 .233.402c.022.25-.085.531-.308.76-.244.249-.51.422-1.55 1.041-1.541.9-1.583.933-2.189 1.465m-1.613.748c-.091.093-.216.22-.393.34-.147.027-.292.054-.366.069a1.3 1.3 0 0 1-.338.018c-.145-.02-.52-.204-.58-.284-.052-.07.041-.171 1.01-1.11.463-.449.618-.786.544-1.183-.082-.434-.398-.699-.699-.586-.172.065-.598.414-.985.81-.433.442-.714.688-1.367 1.2a10 10 0 0 0-.754.645l-.094.1a2.6 2.6 0 0 1-.547-.876c-.107-.26-.213-1.28-.192-1.877.011-.13.064-.532.138-.922.15-.803.202-1.183.234-1.802.032-.575.117-1.02.17-1.118 0-.01.032-.054.106-.075.096-.022.255 0 .425.119.202.152.319.358.266.966-.138 1.606-.138 1.693.191 1.758.191.043.659-.109.818-.217a1.3 1.3 0 0 0 .308-.293c.064-.087.213-.282.34-.434.138-.174.33-.478.457-.717.244-.455.563-1.02.765-1.302.7-1.01.902-1.259 1.147-1.4a.4.4 0 0 1 .297-.043c.032.01.096.032.128.098.032.054-.01.217-.361.683-.266.358-.362.5-.447.77-.042.13-.148.391-.233.565-.542 1.118-.563 1.183-.52 1.335l.222.206c.196.032.302-.12.453-.336l.015-.022c.34-.5.478-.695.605-.825a8 8 0 0 0 .33-.397l.074-.091c.138-.174.33-.38.425-.467a6 6 0 0 0 .435-.445c.255-.293.574-.553.67-.586a1 1 0 0 1 .233-.032c.149 0 .213.032.213.043v.008a.34.34 0 0 1-.021.187c-.022.065-.064.141-.255.337-.16.163-.479.564-.712.9-.177.239-.342.471-.426.589l-.052.073c-.041.054-.157.234-.26.393-.082.13-.157.245-.176.27-.18.282-.382.585-.382.585l-.149.196.17.173c.18.174.33.055.659-.238a5 5 0 0 1 .425-.348c.308-.184.977-.846 1.274-1.215.35-.445.457-.532.617-.608.063-.032.063-.032.201 0a.7.7 0 0 1 .149.087c.033.271-.286.608-.496.829q-.05.05-.088.094c-.107.119-.35.412-.542.662-.18.227-.457.531-.616.683-.999.912-1.041 1.042-1.062 1.107-.043.174.042.347.223.434.18.076.34.022.52-.065.117-.054.415-.174.659-.271a5.7 5.7 0 0 0 1.466-.792c.393-.293.7-.402.839-.315.01.032-.01.184-.16.336-.201.206-.435.358-1.434.944-1.582.923-1.646.966-2.273 1.53a83 83 0 0 0-1.158 1.064l-.074.076z" clip-rule="evenodd"/></svg>