<svg width="24" height="24"><path d="m8.247 0-.011 14.562-8.236.04.004.883.005.884 8.226-.039-.006 7.669h.888l.887.001.005-7.679 6.716-.032v2.666h1.395v-2.672l5.88-.028-.004-.884-.005-.884-3.917.018V13.44q.326.426.722.63a2 2 0 0 0 .912.2q.912 0 1.498-.712.585-.717.586-1.841 0-1.125-.586-1.837-.585-.716-1.498-.716-.514 0-.912.204a2.1 2.1 0 0 0-.722.625v-.712h-1.577v5.232l-.377.002V9.079h-1.395v.774a1.85 1.85 0 0 0-1.475-.689q-.515 0-.911.204a2.1 2.1 0 0 0-.723.625V7.388h-1.212V5.407h-1.442v8.964h1.442v-.227h1.212v-.704q.325.426.723.63a2 2 0 0 0 .911.2 1.85 1.85 0 0 0 1.475-.686v.937l-6.714.032.01-14.552h-.887ZM5.59 5.354v4.403a2 2 0 0 0-.516-.389 1.9 1.9 0 0 0-.903-.204q-.912 0-1.498.716-.585.712-.586 1.837 0 1.125.586 1.84.585.713 1.498.713.515 0 .907-.2a2 2 0 0 0 .512-.391v.64h1.496v-.175h.296V7.388h-.296V5.354Zm-.833 4.939q.506 0 .77.365c.025.032.043.072.063.108v1.902c-.02.036-.038.076-.062.108q-.265.365-.771.365-.503 0-.771-.365-.264-.364-.264-1.06 0-.693.264-1.058.269-.365.77-.365m9.907 0q.506 0 .77.365.27.365.27 1.059t-.27 1.06q-.264.364-.77.364-.507 0-.78-.365-.27-.369-.269-1.06 0-.69.269-1.054.273-.37.78-.37m6.457 0q.507 0 .771.365.27.365.269 1.059 0 .694-.269 1.06-.264.364-.77.364-.507 0-.78-.365-.27-.369-.27-1.06 0-.69.27-1.054.273-.37.78-.37"/></svg>