<?xml version="1.0" encoding="UTF-8"?>
<svg width="24px" height="24px" viewBox="0 0 24 24" version="1.1" xmlns="http://www.w3.org/2000/svg" xmlns:xlink="http://www.w3.org/1999/xlink">
    <title>icons/functional_UI/E-M/mdpi/ic_Link</title>
    <g id="icons/functional_UI/E-M/ic_Link" stroke="none" stroke-width="1" fill="none" fill-rule="evenodd">
        <path d="M14.098128,3.19015196 L9.90321599,7.38506398 C10.9187326,7.24070194 11.9543217,7.36114561 12.9096,7.73471998 L15.776208,4.86820797 C16.7029794,3.9414366 18.2055727,3.9414366 19.132344,4.86820797 C20.0591154,5.79497934 20.0591154,7.29757261 19.132344,8.22434398 L14.937144,12.419544 C14.010376,13.3463008 12.5078,13.3463008 11.581032,12.419544 C11.2817047,12.1176547 10.8437445,11.9989679 10.4329458,12.1084138 C10.0221471,12.2178597 9.70128998,12.5387123 9.59183821,12.9495094 C9.48238644,13.3603065 9.60106695,13.7982684 9.90295199,14.0976 L9.90295199,14.0976 C11.756496,15.951144 14.76168,15.951144 16.615224,14.0976 L20.8104,9.90239999 C22.663944,8.04885598 22.663944,5.04367197 20.8104,3.19012796 L20.8104,3.19012796 C18.956856,1.33660796 15.951672,1.33660796 14.098128,3.19015196 Z M9.90292799,20.809848 L14.097912,16.614912 C13.0823643,16.759315 12.0467339,16.6388704 11.091432,16.265256 L8.22479998,19.131792 C7.29664752,20.0504153 5.8007114,20.0465452 4.87732445,19.1231318 C3.95393751,18.1997184 3.95011017,16.7037822 4.86875997,15.775656 L9.06395999,11.580456 C9.99074176,10.6537097 11.4933142,10.6537097 12.420096,11.580456 C12.7196008,11.8814579 13.1571213,11.9994697 13.567367,11.889908 C13.9776126,11.7803462 14.2980405,11.4599138 14.4075964,11.0496665 C14.5171523,10.6394193 14.3991342,10.2019005 14.098128,9.90239999 L14.098128,9.90239999 C12.244608,8.04887998 9.23942399,8.04887998 7.38587998,9.90239999 L3.19067996,14.0976 C1.33713596,15.951144 1.33713596,18.956328 3.19067996,20.809872 L3.19067996,20.809872 C5.04424797,22.663392 8.04943198,22.663392 9.90297599,20.809848 L9.90292799,20.809848 Z" fill="#000000"></path>
    </g>
</svg>