<svg width="24" height="24"><path d="M12.001 0C5.372 0 0 5.372 0 12s5.372 12.001 12.001 12.001 12.002-5.372 12.002-12S18.63 0 12 0m0 1.561c1.411 0 2.776.277 4.065.82a10.48 10.48 0 0 1 5.56 5.555c.543 1.285.82 2.654.82 4.065a10.4 10.4 0 0 1-.345 2.667l-4.014.023v-.503a3 3 0 0 0 .164.089q.332.16.628.168.62 0 1.134-.324.519-.33.824-.936t.305-1.4q0-.762-.222-1.342-.222-.585-.667-.91-.44-.33-1.077-.33-.332-.02-.554.04-.222.056-.45.255-.041.038-.085.084V9.21h-1.38v.128h-.07V14.7l-6.635.037.01-12.985a10.5 10.5 0 0 1 1.99-.19m-3.63.649-.01 12.536-6.424.036a10.4 10.4 0 0 1-.377-2.78c0-1.412.277-2.776.82-4.065a10.466 10.466 0 0 1 5.99-5.727M5.687 5.493v1.293h-.058V9.46q-.21-.108-.536-.181a3 3 0 0 0-.659-.074q-.636 0-1.16.338-.519.338-.815.948-.297.607-.296 1.378 0 1.07.427 1.763.462.646 1.583.732h1.514v.075h1.48V5.493Zm5.316.052V6.96h-.033v7.39h.033v.14h1.427v-.283c.052.033.1.072.154.1q.331.177.68.177.929 0 1.583-.723.658-.732.658-1.954 0-.766-.222-1.351-.222-.59-.667-.919-.445-.333-1.082-.333-.4 0-.802.074a5 5 0 0 0-.302.064V5.545zm-6.43 4.577q.559 0 1.056.225v2.582q-.283.442-1.007.464-.659-.048-.999-.42-.34-.377-.397-1.114 0-.831.34-1.282.345-.455 1.008-.455m8.76.03q.375 0 .619.182.244.178.366.55.122.369.122.945 0 .914-.335 1.369-.336.455-.995.381a1.25 1.25 0 0 1-.68-.309v-3.034c.302-.05.604-.083.903-.083m5.63 0q.566 0 .84.402.275.399.275 1.252 0 .84-.335 1.287-.332.446-1.008.446a1.34 1.34 0 0 1-.648-.189v-2.532c.014-.02.028-.045.042-.064q.223-.304.428-.45.209-.152.405-.152m2.552 6.16a10.4 10.4 0 0 1-2.13 3.072 10.5 10.5 0 0 1-3.318 2.24c-1.285.544-2.654.821-4.065.821a10.5 10.5 0 0 1-2.005-.194L10 16.377l6.637-.037v.965h.069v1.76h1.38v-2.733zm-13.154.073-.005 5.404q-.21-.078-.418-.164a10.4 10.4 0 0 1-3.32-2.241 10.4 10.4 0 0 1-2.076-2.966z"/></svg>