<?xml version="1.0" encoding="UTF-8"?>
<svg width="24px" height="24px" viewBox="0 0 24 24" version="1.1" xmlns="http://www.w3.org/2000/svg" xmlns:xlink="http://www.w3.org/1999/xlink">
    <title>icons/functional_UI/E-M/mdpi/ic_Live_chat</title>
    <g id="icons/functional_UI/E-M/ic_Live_chat" stroke="none" stroke-width="1" fill="none" fill-rule="evenodd">
        <path d="M19.8,2.99999996 L2.39999996,2.99999996 L2.39999996,15.6 C2.39999996,16.5941126 3.20588741,17.4 4.19999997,17.4 L6.59999998,17.4 L6.59999998,21.6 L10.8,17.4 L21.6,17.4 L21.6,4.79999997 C21.6,3.80588742 20.7941126,2.99999996 19.8,2.99999996 Z M16.129416,8.29411198 L15.864816,8.29411198 C15.275688,6.25228798 13.767552,4.79999997 12,4.79999997 C10.232448,4.79999997 8.72431199,6.25228798 8.13518398,8.29411198 L7.87058398,8.29411198 C7.1688653,8.29412524 6.59999998,8.86297731 6.59999998,9.56469599 L6.59999998,10.835304 C6.59999998,11.5370227 7.1688653,12.1058747 7.87058398,12.105888 L8.13518398,12.105888 C8.72431199,14.147712 10.232448,15.6 12,15.6 C13.767552,15.6 15.275688,14.147712 15.864816,12.105888 L16.129416,12.105888 C16.8311347,12.1058747 17.4,11.5370227 17.4,10.835304 L17.4,9.56469599 C17.4,8.86297731 16.8311347,8.29412524 16.129416,8.29411198 L16.129416,8.29411198 Z M14.951592,12.741168 L12.898512,12.741168 C12.7438037,12.3035806 12.2963439,12.0410913 11.8388971,12.1195758 C11.3814502,12.1980602 11.0470757,12.5946892 11.0470757,13.05882 C11.0470757,13.5229508 11.3814502,13.9195798 11.8388971,13.9980643 C12.2963439,14.0765487 12.7438037,13.8140594 12.898512,13.376472 L14.597328,13.376472 C14.5392,13.464472 14.47852,13.5498 14.415288,13.632456 C14.089656,14.058288 13.714488,14.390448 13.299864,14.61972 C12.4943242,15.0796875 11.5056758,15.0796875 10.700136,14.61972 C10.285632,14.390448 9.91034399,14.058288 9.58471199,13.632456 C9.24943199,13.194024 8.98526399,12.680592 8.79955199,12.106416 C8.40800013,10.8656293 8.40800013,9.53437071 8.79955199,8.29358398 C8.85105599,8.13441598 8.90855999,7.98001598 8.97206399,7.83038398 C9.04934865,7.64909752 9.23890742,7.54246948 9.43396799,7.57055998 C9.92639999,7.64095198 10.809984,7.91059198 12,8.85302399 C13.4418,9.99484799 14.973744,9.68020799 15.445632,9.40852799 C15.4779954,9.67110929 15.494155,9.93543181 15.494155,10.2 C15.4965251,10.8469192 15.3974324,11.490212 15.200448,12.106416 C15.1306507,12.3229243 15.0475403,12.5349123 14.951592,12.741168 Z" fill="#000000"></path>
    </g>
</svg>