<?xml version="1.0" encoding="UTF-8"?>
<svg width="24px" height="24px" viewBox="0 0 24 24" version="1.1" xmlns="http://www.w3.org/2000/svg" xmlns:xlink="http://www.w3.org/1999/xlink">
    <title>icons/functional_UI/E-M/mdpi/ic_Laptop_settings</title>
    <g id="icons/functional_UI/E-M/ic_Laptop_settings" stroke="none" stroke-width="1" fill="none" fill-rule="evenodd">
        <path d="M13.8,18 C13.8,18.3313709 13.5313709,18.6 13.2,18.6 L10.8,18.6 C10.4686291,18.6 10.2,18.3313709 10.2,18 L1.79999996,18 L1.79999996,19.2 C1.79999996,19.5313709 2.06862911,19.8 2.39999996,19.8 L21.6,19.8 C21.9313709,19.8 22.2,19.5313709 22.2,19.2 L22.2,18 L13.8,18 Z M21,5.99999998 C21,5.33725827 20.4627417,4.79999997 19.8,4.79999997 L4.19999997,4.79999997 C3.53725826,4.79999997 2.99999996,5.33725827 2.99999996,5.99999998 L2.99999996,15.576 C2.99999996,15.58404 3.00045596,15.591984 3.00059996,15.6 L2.99999996,15.6 L2.99999996,17.4 L21,17.4 L21,15.6 L20.9994,15.6 C20.999544,15.591984 21,15.58404 21,15.576 L21,5.99999998 Z M4.19999997,5.99999998 L4.19999997,16.2 L19.8,16.2 L19.8,5.99999998 L4.19999997,5.99999998 Z M14.898264,11.088 C14.898264,10.110768 15.964704,10.850136 15.46824,9.65140799 C14.971776,8.45267999 14.74032,9.72923999 14.04936,9.03842399 C13.3584,8.34760798 14.63532,8.11634398 13.436616,7.61975998 C12.237912,7.12317598 12.977016,8.18949598 12,8.18949598 C11.022984,8.18949598 11.76216,7.12331998 10.563432,7.61978398 C9.36470399,8.11624798 10.6416,8.34741598 9.95039999,9.03839999 C9.25919999,9.72938399 9.02841599,8.45279999 8.53199999,9.65143199 C8.03558398,10.850064 9.10168799,10.110792 9.10168799,11.088024 C9.10168799,12.065256 8.03519998,11.32584 8.53199999,12.524616 C9.02879999,13.723392 9.25960799,12.446664 9.95061599,13.137384 C10.641624,13.828104 9.36487199,14.059656 10.5636,14.556144 C11.762328,15.052632 11.022792,13.986552 12,13.986552 C12.977208,13.986552 12.2376,15.052728 13.436568,14.556144 C14.635536,14.05956 13.3584,13.82832 14.04936,13.137384 C14.74032,12.446448 14.97144,13.723368 15.46824,12.524616 C15.96504,11.325864 14.898264,12.065304 14.898264,11.088 Z M12,12.84 C11.0390245,12.84 10.26,12.0609755 10.26,11.1 C10.26,10.1390245 11.0390245,9.35999999 12,9.35999999 C12.9609755,9.35999999 13.74,10.1390245 13.74,11.1 C13.7400382,11.5614884 13.5567296,12.0040864 13.230408,12.330408 C12.9040864,12.6567296 12.4614884,12.8400382 12,12.84 L12,12.84 Z" fill="#000000"></path>
    </g>
</svg>