<svg width="24" height="24" viewBox="0 0 24 24" fill="none" xmlns="http://www.w3.org/2000/svg">
<path fill-rule="evenodd" clip-rule="evenodd" d="M3 4.5C3 3.67157 3.67157 3 4.5 3H11.5C12.3284 3 13 3.67157 13 4.5C13 5.32843 12.3284 6 11.5 6H4.5C3.67157 6 3 5.32843 3 4.5ZM3 18.5C3 17.6716 3.67157 17 4.5 17H19.5C20.3284 17 21 17.6716 21 18.5C21 19.3284 20.3284 20 19.5 20H4.5C3.67157 20 3 19.3284 3 18.5ZM10.5 7C12.4593 7 14.1262 8.25222 14.7439 10L19.5 10C20.3284 10 21 10.6716 21 11.5C21 12.3284 20.3284 13 19.5 13H14.7439C14.1262 14.7478 12.4593 16 10.5 16C8.54067 16 6.87381 14.7478 6.25606 13H4.5C3.67157 13 3 12.3284 3 11.5C3 10.6716 3.67157 10 4.5 10H6.25606C6.87381 8.25221 8.54067 7 10.5 7ZM10.5 7.9C8.51178 7.9 6.9 9.51178 6.9 11.5C6.9 13.4882 8.51178 15.1 10.5 15.1V7.9Z" fill="black"/>
</svg>
