<?xml version="1.0" encoding="UTF-8"?>
<svg width="24px" height="24px" viewBox="0 0 24 24" version="1.1" xmlns="http://www.w3.org/2000/svg" xmlns:xlink="http://www.w3.org/1999/xlink">
    <title>icons/functional_UI/E-M/mdpi/ic_Lock</title>
    <g id="icons/functional_UI/E-M/ic_Lock" stroke="none" stroke-width="1" fill="none" fill-rule="evenodd">
        <path d="M17.399592,9.59999999 L16.799592,9.59999999 L16.799592,6.59999998 C16.799592,3.95999997 14.639592,1.79999996 11.999592,1.79999996 C9.35959199,1.79999996 7.19959198,3.95999997 7.19959198,6.59999998 L7.19959198,9.59999999 L4.79959197,9.59999999 L4.79959197,20.4 C4.79959197,21.3941126 5.60547942,22.2 6.59959198,22.2 L19.199592,22.2 L19.199592,11.4 C19.199592,10.4058874 18.3937046,9.59999999 17.399592,9.59999999 Z M12.876768,15.971712 L13.199592,19.2 L10.799592,19.2 L11.12244,15.971712 C10.4067656,15.5723226 10.0512443,14.7398972 10.2575856,13.9467232 C10.463927,13.1535493 11.1800299,12.5999031 11.999604,12.5999031 C12.8191781,12.5999031 13.535281,13.1535493 13.7416224,13.9467232 C13.9479637,14.7398972 13.5924424,15.5723226 12.876768,15.971712 L12.876768,15.971712 Z M14.999592,9.59999997 L8.99959199,9.59999997 L8.99959199,6.59999997 C8.99959199,4.94314572 10.3427377,3.59999997 11.999592,3.59999997 C13.6564463,3.59999997 14.999592,4.94314572 14.999592,6.59999997 L14.999592,9.59999997 Z" fill="#000000"></path>
    </g>
</svg>