<svg width="24" height="24"><path d="M256.703-.26c-141.4 0-256 114.6-256 256s114.6 256 256 256 256-114.6 256-256-114.6-256-256-256m0 33.301c30.1 0 59.2 5.9 86.7 17.5 26.5 11.2 50.3 27.3 70.8 47.7 20.5 20.5 36.499 44.3 47.799 70.8 11.6 27.4 17.5 56.6 17.5 86.7a222.3 222.3 0 0 1-7.365 56.892l-85.616.482v-10.72a54 54 0 0 0 3.502 1.882q7.07 3.419 13.395 3.604 13.208 0 24.184-6.93 11.068-7.022 17.578-19.959t6.511-29.847q0-16.264-4.744-28.647-4.743-12.474-14.23-19.404-9.395-7.023-22.975-7.024-7.068-.462-11.812.832-4.744 1.203-9.58 5.453c-.593.52-1.21 1.147-1.829 1.774v-7.932h-29.445v2.739h-1.467v114.353l-141.552.797.23-276.986a224 224 0 0 1 42.416-4.059M179.28 46.885l-.224 267.398-137.018.772a222.5 222.5 0 0 1-8.035-59.315c0-30.1 5.9-59.199 17.5-86.699 11.2-26.5 27.201-50.3 47.701-70.8 20.5-20.4 44.299-36.5 70.799-47.7 3.068-1.299 6.166-2.5 9.277-3.656m-57.29 70.037v27.582l-1.235.006v57.014q-4.464-2.31-11.44-3.881a63.8 63.8 0 0 0-14.044-1.573q-13.581 0-24.743 7.21-11.068 7.207-17.392 20.236-6.325 12.937-6.324 29.385 0 22.824 9.115 37.609 9.858 13.768 33.762 15.615h32.3v1.596h31.576v-190.8Zm113.402 1.113v30.17h-.698v157.643h.698v2.988h30.445v-6.041c1.091.707 2.131 1.525 3.271 2.129q7.07 3.789 14.512 3.789 19.81 0 33.762-15.432 14.045-15.615 14.045-41.674 0-16.355-4.742-28.832-4.745-12.567-14.233-19.59-9.487-7.115-23.066-7.115-8.557 0-17.114 1.573c-2.3.397-4.386.88-6.435 1.378v-80.986zM98.246 215.66q11.905 0 22.508 4.807v55.072q-6.045 9.426-21.484 9.889-14.047-1.017-21.301-8.965-7.256-8.04-8.465-23.748.001-17.742 7.256-27.352 7.347-9.703 21.486-9.703m186.86.649q7.999 0 13.208 3.88 5.21 3.789 7.813 11.735 2.605 7.854 2.605 20.144 0 19.499-7.162 29.202-7.162 9.702-21.207 8.13c-5.206-.558-10.044-2.775-14.527-6.593v-64.721c6.458-1.08 12.888-1.777 19.27-1.777m120.08 0q12.09 0 17.95 8.593 5.86 8.502 5.86 26.705 0 17.927-7.162 27.444-7.07 9.517-21.486 9.517c-4.818-.11-9.423-1.474-13.827-4.033v-54.012c.297-.422.604-.968.899-1.37q4.743-6.47 9.115-9.61 4.465-3.234 8.65-3.234m54.441 131.396c-11.06 24.382-26.299 46.41-45.424 65.535-20.5 20.5-44.3 36.501-70.8 47.801-27.4 11.6-56.6 17.5-86.7 17.5a223.5 223.5 0 0 1-42.781-4.129l.105-125.326 141.582-.797v20.58h1.467v37.535h29.445v-58.289zm-280.6 1.578-.097 115.268c-2.991-1.115-5.973-2.264-8.928-3.51-26.5-11.2-50.299-27.3-70.799-47.8-18.53-18.53-33.346-39.78-44.3-63.259z" transform="matrix(.04688 0 0 .04688 -.033 .012)"/></svg>