<svg width="24" height="24"><path d="M12.177 2c-2.013 0-3.64 1.662-3.64 3.697 0 1.446.823 2.7 2.022 3.307-.012.023-.018.039-.038.067a2 2 0 0 1-.11.141l-.042.051-.012.014-.003.002a4 4 0 0 0-.684.358c-.168.105-.264.16-.304.176s.004.014-.03.002a1 1 0 0 0-.198-.047 4 4 0 0 0-.26-.036 1 1 0 0 1-.297-.063c-.1-.04-.245-.118-.508-.266l-.568-.319a.17.163 0 0 0-.254.137l-.012.432c-.003.11-.008.168-.013.228a10 10 0 0 1-.292-.102c-.119-.044-.23-.082-.309-.11l-.111-.039.007.004.02.013a.15.15 0 0 1 .046.053l.011.025.008.033a.17.163 0 0 0-.092-.128.17.163 0 0 0-.246.14l-.011.412a6 6 0 0 1-.01.228l-.033-.006-.391-.078a10 10 0 0 0-.524-.092l-.085-.002c-.016.001-.04-.014-.104.048-.067.064-.045.072-.048.084l-.005.028-.005.052-.007.155c-.003.126-.006.294-.006.477v.572l-.4.252c-1.067.673-1.61 1.015-1.923 1.248-.314.233-.41.384-.513.58a.3.3 0 0 1-.055.083c-.004.003.007-.007-.04.022a.24.24 0 0 0-.077.082.3.3 0 0 0-.027.094c-.007.058-.004.118.002.22.025.441.136.755.381 1.069.257.328.584.517 1.263.75q.523.177 1.045.358l.344.12v4.11a.17.163 0 0 0 .105.151l.091.037c.14.055.356.097 3.266.696a230 230 0 0 1 1.91.402l.134.03c.032.008.065.018.043.01.058.02.064.014.094.017l.113.006q.137.006.358.01c.291.005.679.006 1.097.004l1.502-.01a.17.163 0 0 0 .035-.003l2.637-.556 1.89-.399c.495-.105.793-.167.842-.179l.092-.02a.17.163 0 0 0 .13-.16v-4.147l.28-.09a.17.163 0 0 0 .026-.01c.313-.163.632-.275.896-.36l.349-.112c.099-.034.175-.06.248-.108.477-.32.763-.761.815-1.229s-.135-.953-.55-1.346a4 4 0 0 0-.44-.322 25 25 0 0 0-.74-.481l-.884-.553v-1.552a.17.163 0 0 0-.21-.159l-.099.024c-.036.009-.369.08-.705.15l-.407.084v-.244c0-.126.004-.218 0-.296a.4.4 0 0 0-.017-.118.24.24 0 0 0-.102-.134.26.26 0 0 0-.162-.03.6.6 0 0 0-.12.03c-.08.026-.176.065-.307.113-.05.019-.067.022-.102.033l-.01-.228-.011-.36a.17.163 0 0 0-.255-.137l-.588.33-.55.308h-.258c-.278.001-.238.012-.465-.122-.115-.069-.26-.105-.414-.15a9 9 0 0 1-.334-.101c-.039-.017-.063-.023-.102-.035l-.135-.04a2 2 0 0 1-.297-.115c-.076-.04-.1-.075-.104-.073.001-.002.009-.007.01-.01a3.7 3.7 0 0 0 2.184-3.385C15.818 3.66 14.191 2 12.178 2m4.5 7.755v.042l-.007.194-1.01.366-.275.099a153 153 0 0 1 1.292-.701m-8.94 0 .094.052 1.527.846c-.498-.179-1.033-.372-1.37-.496l-.24-.089-.008-.249zm9.72.454v.358l-.383.077c-.272.055-1.135.233-1.933.4l1.022-.37 1.187-.426zm-10.688.006.185.068c.196.073 1 .363 1.775.643l-.95-.195a47 47 0 0 1-1.012-.22 2 2 0 0 1-.001-.21zm11.986.7-.01 1.116-.009 1.21-.923.32c-.581.2-.963.402-1.033.437-.453.232-.81.77-.91 1.317-.082.448.046.83.315 1.102.27.273.662.445 1.115.557.196.048.36.067.54.042s.367-.087.648-.184c.099-.035.18-.062.257-.088l.003.491c.001.419 0 .96-.002 1.446l-.01 1.64-.395.081-1.196.247c-.37.075-1.267.261-1.997.413a114 114 0 0 1-1.22.246 11 11 0 0 1-.018-.607 398 398 0 0 1-.01-4.058v-4.722l2.375-.49 2.366-.492zm-13.042.008.162.034.638.132 1.643.338 1.617.334a42 42 0 0 1 .757.163l.006.24c.005.234.009.574.012 1.003.006.857.01 2.069.01 3.49v4.662l-.047-.008-.286-.055a65 65 0 0 1-.862-.176q-1.683-.355-3.369-.7l-.272-.055-.01-1.562V16.75c.431.158.853.291 1.25.273.4-.019.77-.225.992-.67.14-.281.163-.385.162-.757-.002-.488-.114-.817-.398-1.155-.134-.16-.238-.292-.425-.417-.188-.125-.445-.237-.896-.389l-.694-.233v-1.288c0-.66 0-1.012.01-1.186zm5.468 1.054h2.096v4.698c0 1.93-.003 3.146-.01 3.878-.004.365-.01.61-.016.761l-.004.062a129 129 0 0 1-2.038.006c-.002-.044-.004-.085-.005-.155q-.009-.306-.013-.916a474 474 0 0 1-.01-3.64z"/></svg>