<?xml version="1.0" encoding="UTF-8"?>
<svg width="24px" height="24px" viewBox="0 0 24 24" version="1.1" xmlns="http://www.w3.org/2000/svg" xmlns:xlink="http://www.w3.org/1999/xlink">
    <title>icons/functional_UI/M-S/mdpi/ic_Modifier_remove</title>
    <g id="icons/functional_UI/M-S/ic_Modifier_remove" stroke="none" stroke-width="1" fill="none" fill-rule="evenodd">
        <path d="M21.813048,9.20759999 C22.0705713,10.1160212 22.2007971,11.0557825 22.2000037,12 C22.2000037,17.633304 17.633304,22.2 12,22.2 L12,22.2 C8.31859198,22.2 5.09313597,20.249472 3.29961596,17.325792 C3.29205596,17.31348 3.28418396,17.301408 3.27667196,17.289048 C3.26128796,17.263704 3.24655196,17.237904 3.23135996,17.212392 C2.29194272,15.6362149 1.79728682,13.8348928 1.79998886,12 C1.79974016,11.394615 1.85305209,10.7903945 1.95931196,10.194408 C2.81169596,5.42229597 6.98275198,1.79999996 12,1.79999996 L12,1.79999996 C12.018024,1.79999996 12.036,1.80059996 12.053928,1.80067196 C16.695312,1.82476796 20.603376,4.94827197 21.813048,9.20759999 Z M19.8,12 C19.8,7.69219198 16.307808,4.19999997 12,4.19999997 C7.69219198,4.19999997 4.19999997,7.69219198 4.19999997,12 C4.19999997,16.307808 7.69219198,19.8 12,19.8 C16.307808,19.8 19.8,16.307808 19.8,12 Z M6.59999998,13.8 C6.22432798,13.8 5.99999997,13.575552 5.99999997,13.2 L5.99999997,10.8 C5.99999997,10.424448 6.22432798,10.2 6.59999998,10.2 L17.4,10.2 C17.775672,10.2 18,10.424448 18,10.8 L18,13.2 C18,13.575552 17.775672,13.8 17.4,13.8 L6.59999998,13.8 Z" fill="#000000"></path>
    </g>
</svg>