<?xml version="1.0" encoding="UTF-8"?>
<svg width="24px" height="24px" viewBox="0 0 24 24" version="1.1" xmlns="http://www.w3.org/2000/svg" xmlns:xlink="http://www.w3.org/1999/xlink">
    <title>icons/functional_UI/E-M/mdpi/ic_Message_compose</title>
    <g id="icons/functional_UI/E-M/ic_Message_compose" stroke="none" stroke-width="1" fill="none" fill-rule="evenodd">
        <path d="M22.535856,11.053536 C22.5286425,10.8243902 22.4338895,10.6067212 22.271088,10.445304 L21.6,9.77954399 L21.6,4.80105597 C21.6013388,4.32402904 21.412849,3.86606615 21.0761088,3.52818677 C20.7393685,3.19030739 20.2820448,3.00027219 19.805016,2.99999996 L2.39999996,2.99999996 L2.39999996,15.6072 C2.39999996,16.0838928 2.59002855,16.5409222 2.9277761,16.8773188 C3.26552365,17.2137153 3.7233105,17.4017928 4.19999997,17.4 L6.59999998,17.4 L6.60119998,21.010368 L10.2,17.4 L12.48,17.4 L11.143512,19.893744 L10.22724,21.6 L11.947632,20.711256 L14.5806,19.351056 L14.663592,19.308192 C14.663592,19.308192 15.774768,18.185496 16.56,17.4 L21.6,17.4 L21.6,12.368568 L22.262016,11.71236 C22.271016,11.703888 22.279944,11.695056 22.288896,11.685768 C22.4533495,11.5171071 22.5424479,11.28901 22.535856,11.053536 Z M7.79999998,13.8 C7.48171092,13.8000955 7.17643071,13.673698 6.95136635,13.4486336 C6.72630198,13.2235693 6.59990445,12.9182891 6.59999998,12.6 L6.59563198,10.804512 L6.57599998,5.39999997 L6.59999998,4.19999997 L19.2,4.19999997 C19.5183935,4.20023539 19.8236529,4.32694254 20.0486246,4.55224726 C20.2735962,4.77755199 20.3998516,5.08299849 20.3996164,5.40139197 L20.3996164,9.40079999 L14.895,14.904 L13.8,13.8 L7.79999998,13.8 Z M20.510184,12.61056 C20.5068001,12.6145796 20.5030654,12.6182902 20.499024,12.621648 C18.846168,14.275248 15.375744,17.746632 14.305224,18.817656 L11.672232,20.177832 L13.067472,17.579664 L19.455912,11.197368 L20.498688,12.212568 C20.5521296,12.2650967 20.5838984,12.3357777 20.587704,12.410616 C20.591252,12.4852195 20.5630942,12.5578458 20.510184,12.61056 Z M21.858072,11.267688 C21.8546928,11.2713968 21.8510858,11.2748916 21.847272,11.278152 L21.117672,12.007512 L19.879728,10.769112 L20.813184,9.83591999 L21.846384,10.869456 C21.961272,10.984584 21.966408,11.1594 21.858072,11.267688 L21.858072,11.267688 Z" fill="#000000"></path>
    </g>
</svg>