<?xml version="1.0" encoding="UTF-8"?>
<svg width="24px" height="24px" viewBox="0 0 24 24" version="1.1" xmlns="http://www.w3.org/2000/svg" xmlns:xlink="http://www.w3.org/1999/xlink">
    <title>icons/functional_UI/E-M/mdpi/ic_Message_alert</title>
    <g id="icons/functional_UI/E-M/ic_Message_alert" stroke="none" stroke-width="1" fill="none" fill-rule="evenodd">
        <path d="M19.8,2.99999996 L2.39999996,2.99999996 L2.39999996,15.6 C2.39999996,16.5941126 3.20588741,17.4 4.19999997,17.4 L6.59999998,17.4 L6.59999998,21 L10.2,17.4 L21.6,17.4 L21.6,4.79999997 C21.6,3.80588742 20.7941126,2.99999996 19.8,2.99999996 Z M16.2,15 L7.79999998,15 C7.37031331,15 6.97339895,14.7703362 6.75939813,14.3977314 C6.54539731,14.0251267 6.54698476,13.5665303 6.76355998,13.195416 L6.76355998,13.195416 L6.77342398,13.178496 C6.77359198,13.178232 6.77373598,13.177968 6.77387998,13.177704 L10.96356,5.99541597 L10.96356,5.99541597 C11.1785504,5.62673214 11.5732112,5.4000108 12,5.4000108 C12.4267888,5.4000108 12.8214496,5.62673214 13.03644,5.99541597 L13.03644,5.99541597 L17.23644,13.195416 L17.23632,13.195416 C17.4528844,13.5665118 17.4544832,14.0250825 17.2405117,14.3976794 C17.0265402,14.7702762 16.6296652,15 16.2,15 Z M12.3,7.79999998 L11.7,7.79999998 C11.5343146,7.79999998 11.4,7.93431456 11.4,8.09999998 L11.4,9.59999999 L11.76,12 L12.24,12 L12.6,9.59999999 L12.6,8.09999998 C12.6,7.93431456 12.4656854,7.79999998 12.3,7.79999998 Z M12.6,13.8 L11.4,13.8 L11.4,12.6 L12.6,12.6 L12.6,13.8 Z" fill="#000000"></path>
    </g>
</svg>