<svg width="24" height="24"><path fill-rule="evenodd" d="M20.889 12a8.889 8.889 0 1 1-2.382-6.056c-.43.105-1.103.376-2.231 1.043-.833.493-1.534.978-1.616 1.035l-.007.004a1 1 0 0 0-.089.074 2.66 2.66 0 0 1-.998.618l-2.047.68a1.8 1.8 0 0 0-.559.32l-.42-.15a1.1 1.1 0 0 0-.366-.064v.001a1.1 1.1 0 0 0-.883.475.46.46 0 0 0-.074.208L6.63 9.232l-.007-.003a1.3 1.3 0 0 0-.443-.078c-.207 0-.412.053-.594.153a1.27 1.27 0 0 0-.535 1.741c.15.278.396.49.692.6l5.83 2.143a3.47 3.47 0 0 0 2.241.05 99 99 0 0 0 3.188-.72 40 40 0 0 0 2.379-.646c.911-.287 1.297-.484 1.506-.646zm-.07-1.125a3 3 0 0 1-.295.354c-.644.66-6.885 1.938-6.885 1.938a2.789 2.789 0 0 1-1.827-.03L5.98 10.992a.61.61 0 0 1-.381-.706.58.58 0 0 1 .307-.379.54.54 0 0 1 .274-.074q.11 0 .211.039l4.296 1.591a1.53 1.53 0 0 0 1.604.547l5.806-1.568a.51.51 0 0 0 .36-.613c-.024-.077-.058-.108-.1-.108-.052 0-.115.04-.19.088a1 1 0 0 1-.25.128l-5.997 1.326a.4.4 0 0 1-.085.01c-.269 0-.65-.25-.728-.477-.09-.274.354-.657.628-.747l2.05-.681a3.3 3.3 0 0 0 1.261-.78s2.899-2.022 3.939-2.022l.052.002a8.85 8.85 0 0 1 1.781 4.307M22 12c0 5.523-4.477 10-10 10S2 17.523 2 12 6.477 2 12 2s10 4.477 10 10M9.672 10.235l.755.282c.036-.166.112-.312.194-.432l-.236-.084a.6.6 0 0 0-.212-.04v.002a.65.65 0 0 0-.5.272M9.1 15.09v1.788q0 .036-.03.063a.1.1 0 0 1-.073.026h-.894a.1.1 0 0 0-.05.012.1.1 0 0 0-.038.032.08.08 0 0 0 0 .09l1.897 2.855a.1.1 0 0 0 .038.033.12.12 0 0 0 .102 0 .1.1 0 0 0 .038-.033l1.897-2.855a.08.08 0 0 0 0-.09.1.1 0 0 0-.037-.032.1.1 0 0 0-.051-.012h-.894a.1.1 0 0 1-.073-.026.08.08 0 0 1-.03-.063v-1.788a.1.1 0 0 0-.007-.034.1.1 0 0 0-.023-.029.116.116 0 0 0-.073-.026H9.203a.1.1 0 0 0-.04.007.1.1 0 0 0-.033.019.1.1 0 0 0-.022.029.1.1 0 0 0-.008.034m5 1.788v-1.788a.1.1 0 0 1 .008-.034.1.1 0 0 1 .022-.029.1.1 0 0 1 .033-.02.1.1 0 0 1 .04-.006h1.597a.12.12 0 0 1 .072.026q.014.012.023.029a.1.1 0 0 1 .007.034v1.788q0 .036.03.063.031.025.073.026h.893q.028 0 .052.012t.037.032a.08.08 0 0 1 0 .09l-1.897 2.855a.1.1 0 0 1-.038.033.12.12 0 0 1-.102 0 .1.1 0 0 1-.038-.033L13.014 17.1a.08.08 0 0 1 0-.09.1.1 0 0 1 .037-.032.1.1 0 0 1 .051-.012h.894q.043 0 .073-.027.03-.026.03-.062" clip-rule="evenodd"/></svg>