<?xml version="1.0" encoding="UTF-8"?>
<svg width="24px" height="24px" viewBox="0 0 24 24" version="1.1" xmlns="http://www.w3.org/2000/svg" xmlns:xlink="http://www.w3.org/1999/xlink">
    <title>icons/functional_UI/E-M/mdpi/ic_Manage_equipment</title>
    <g id="icons/functional_UI/E-M/ic_Manage_equipment" stroke="none" stroke-width="1" fill="none" fill-rule="evenodd">
        <path d="M19.8984,12.012 C19.8984,9.35296799 22.8,11.364864 21.449232,8.10309598 C20.097504,4.84127997 19.468776,8.31515998 17.588664,6.43509598 C15.708552,4.55503197 19.183032,3.92611197 15.921312,2.57507996 C12.658824,1.22399996 14.670648,4.12511997 12.012384,4.12511997 C9.35337599,4.12511997 11.365296,1.22399996 8.10355198,2.57505596 C4.84180797,3.92611197 8.31571198,4.55479197 6.43555198,6.43507198 C4.55539197,8.31535198 3.92675997,4.84123197 2.57582396,8.10307198 C1.22399996,11.364816 4.12579197,9.35291999 4.12579197,12.012 C4.12579197,14.67108 1.22399996,12.65916 2.57572796,15.920904 C3.92666397,19.182816 4.55539197,15.708936 6.43545598,17.588232 C8.31571198,19.468488 4.84185597,20.098056 8.10345598,21.449016 C11.365056,22.799976 9.35327999,19.898904 12.012288,19.898904 C14.670552,19.898904 12.658728,22.8 15.92112,21.449016 C19.18272,20.098056 15.70836,19.468488 17.588472,17.588232 C19.468584,15.709032 20.097312,19.182816 21.44904,15.920904 C22.8,12.65916 19.8984,14.6712 19.8984,12.012 Z M13.2072,16.43592 C13.1560149,16.4416317 13.1043532,16.4416317 13.053168,16.43592 C10.9371139,16.3999524 9.14278937,14.8706092 8.77199999,12.786984 L7.91575198,12.786984 L7.91575198,12.78648 C7.52590381,12.7846697 7.21049625,12.4687463 7.20931963,12.0788957 C7.20814958,11.6890451 7.52164977,11.3712289 7.91147998,11.367072 L7.91147998,11.36664 L8.75039999,11.36664 C9.0664542,9.22910812 10.8800736,7.63243191 13.040424,7.58978398 C13.0992931,7.58171988 13.1589869,7.58171988 13.217856,7.58978398 C13.583889,7.63516727 13.8558403,7.95074629 13.8466635,8.31946787 C13.8374867,8.68818944 13.5501735,8.9898494 13.182336,9.01696799 C13.164648,9.01826399 13.147008,9.01963199 13.12896,9.01963199 C13.110912,9.01963199 13.09296,9.01826399 13.075032,9.01689599 C11.4322593,9.04760279 10.1205695,10.3954051 10.1344794,12.038406 C10.1483893,13.6814068 11.4827108,15.0068076 13.125768,15.009696 C13.127136,15.009696 13.128456,15.009456 13.129848,15.009456 C13.13124,15.009456 13.131816,15.009648 13.132752,15.009648 C13.5123866,15.0108425 13.8249403,15.3084431 13.8447295,15.6875635 C13.8645186,16.0666839 13.5846472,16.3952077 13.2072,16.43592 L13.2072,16.43592 Z M16.113,12.786552 L16.113,12.786984 L15.18144,12.786984 C14.7992079,13.7433706 13.7840878,14.285839 12.7765654,14.0721212 C11.769043,13.8584035 11.0615714,12.9505353 11.1005267,11.9213321 C11.1394821,10.8921289 11.9135567,10.0403372 12.9343518,9.90339123 C13.9551468,9.76644523 14.9263563,10.3840962 15.2352,11.36664 L16.1088,11.36664 L16.1088,11.367096 C16.4986558,11.3689338 16.8140495,11.6848816 16.8152062,12.0747401 C16.8163566,12.4645985 16.5028381,12.7824071 16.113,12.786552 L16.113,12.786552 Z" fill="#000000"></path>
    </g>
</svg>