<?xml version="1.0" encoding="UTF-8"?>
<svg width="24px" height="24px" viewBox="0 0 24 24" version="1.1" xmlns="http://www.w3.org/2000/svg" xmlns:xlink="http://www.w3.org/1999/xlink">
    <title>icons/functional_UI/M-S/mdpi/ic_Modifier_no_access</title>
    <g id="icons/functional_UI/M-S/ic_Modifier_no_access" stroke="none" stroke-width="1" fill="none" fill-rule="evenodd">
        <path d="M12,1.79999996 C17.633304,1.79999996 22.2,6.36669598 22.2,12 C22.2,17.633304 17.633304,22.2 12,22.2 C6.36669598,22.2 1.79999996,17.633304 1.79999996,12 C1.79999996,6.36669598 6.36669598,1.79999996 12,1.79999996 Z M19.8000138,12 C19.8023683,9.15326165 18.2532049,6.53146541 15.7585036,5.16019219 C13.2638023,3.78891896 10.2200752,3.88612126 7.81795198,5.41377597 L18.586224,16.182048 C19.3816217,14.9324281 19.8027945,13.4812831 19.8000138,12 L19.8000138,12 Z M4.81199997,15.035376 C5.70366138,17.1504907 7.48192015,18.765318 9.67294026,19.4495702 C11.8639604,20.1338223 14.2451618,19.8179877 16.182048,18.586224 L5.41377597,7.81795198 C4.0441621,9.98031772 3.81939649,12.6760528 4.81199997,15.035376 L4.81199997,15.035376 Z" fill="#000000"></path>
    </g>
</svg>