<?xml version="1.0" encoding="UTF-8"?>
<svg width="24px" height="24px" viewBox="0 0 24 24" version="1.1" xmlns="http://www.w3.org/2000/svg" xmlns:xlink="http://www.w3.org/1999/xlink">
    <title>icons/functional_UI/M-S/mdpi/ic_Microphone_mute</title>
    <g id="icons/functional_UI/M-S/ic_Microphone_mute" stroke="none" stroke-width="1" fill="none" fill-rule="evenodd">
        <path d="M16.079568,4.99864797 C15.6179572,3.12058599 13.93396,1.80022213 12,1.79999996 L12,1.79999996 C9.68040404,1.79999996 7.79999919,3.68040402 7.79999919,5.99999997 L7.79999919,12 C7.79976618,12.3803339 7.851147,12.7589405 7.95273598,13.125456 L16.079568,4.99864797 Z M12,16.2000012 C14.319596,16.2000012 16.2,14.319596 16.2,12 L16.2,10.817808 L10.950096,16.067688 C11.2930998,16.155808 11.6458579,16.2002636 12,16.2000012 L12,16.2000012 Z M18.3,10.2 C17.8029437,10.2 17.4,10.6029437 17.4,11.1 L17.4,12 C17.4,14.982336 14.982336,17.4 12,17.4 L12,17.4 C11.3151948,17.4007817 10.6365248,17.2709418 10.000368,17.01744 L8.64583199,18.372 C8.82523999,18.4664 9.00891999,18.55356 9.19687199,18.63348 C9.80830805,18.8925152 10.4528996,19.0649621 11.112,19.145832 L11.112,21 L8.99999999,21 C8.33725828,21 7.79999998,21.5372583 7.79999998,22.2 L7.79999998,22.8 L16.2,22.8 L16.2,22.2 C16.2,21.5372583 15.6627417,21 15,21 L12.888,21 L12.888,19.145832 C16.4945515,18.6994584 19.202247,15.6340691 19.2000014,12 L19.2000014,11.1 C19.2000014,10.6029437 18.7970563,10.2 18.3,10.2 L18.3,10.2 Z M5.66111997,15.417096 L7.01039998,14.067792 C6.73865595,13.4123124 6.59918198,12.7095757 6.59999998,12 L6.59999998,11.1 C6.59999998,10.6029437 6.19705625,10.2 5.69999997,10.2 C5.2029437,10.2 4.79998913,10.6029437 4.79998913,11.1 L4.79998913,12 C4.79832418,12.9630005 4.991019,13.9164341 5.36654397,14.8032 C5.45539197,15.0132 5.55358397,15.217832 5.66111997,15.417096 Z M2.42474396,22.896 L1.15199995,21.623256 L21.551256,1.22399996 L22.824,2.49674396 L2.42474396,22.896 Z" fill="#000000"></path>
    </g>
</svg>