<?xml version="1.0" encoding="UTF-8"?>
<svg width="24px" height="24px" viewBox="0 0 24 24" version="1.1" xmlns="http://www.w3.org/2000/svg" xmlns:xlink="http://www.w3.org/1999/xlink">
    <title>icons/functional_UI/M-S/mdpi/ic_My_Account</title>
    <g id="icons/functional_UI/M-S/ic_My_Account" stroke="none" stroke-width="1" fill="none" fill-rule="evenodd">
        <path d="M15.7848,10.137816 C13.6591681,12.1406499 10.3411735,12.140734 8.21543998,10.138008 C6.51734565,11.0634832 5.44397692,12.8265504 5.40153597,14.76 L5.39999997,14.76 L5.39999997,19.8 C5.39999997,21.1254834 6.47451658,22.2 7.79999998,22.2 L18.6000003,22.2 L18.6000003,14.88 C18.6006591,12.9030531 17.520693,11.083858 15.7848,10.137816 Z M16.32,6.11999998 C16.32,8.5058701 14.3858701,10.44 12,10.44 C9.61412987,10.44 7.67999998,8.5058701 7.67999998,6.11999998 C7.67999998,3.73412985 9.61412987,1.79999996 12,1.79999996 C14.3858701,1.79999996 16.32,3.73412985 16.32,6.11999998 Z M14.329032,21.001176 L14.329032,20.653704 L14.400408,20.651448 C14.610432,20.644656 14.76648,20.58504 14.8644,20.474088 C14.8992,20.433984 14.958312,20.297232 14.958312,19.837488 L14.958312,16.770288 C14.958312,16.33296 14.897256,16.168104 14.846112,16.106832 C14.773752,16.020432 14.623128,15.969864 14.398296,15.956208 L14.327544,15.952032 L14.327544,15.599232 L16.703664,15.599232 L16.703664,19.837632 C16.703664,20.275272 16.817832,20.440032 16.868904,20.501088 C16.940904,20.587344 17.068608,20.637888 17.297376,20.65164 L17.375688,20.655768 L17.375688,21.001368 L14.329032,21.001368 L14.329032,21.001176 Z M15.705144,14.915352 C15.1395369,14.915352 14.681016,14.4568392 14.681016,13.891232 C14.681016,13.3256249 15.1395209,12.867096 15.705128,12.867096 C16.2707352,12.867096 16.729272,13.3255929 16.729272,13.8912 C16.729272,14.1628198 16.6213823,14.4233169 16.4293204,14.6153834 C16.2372584,14.8074498 15.9767638,14.915352 15.705144,14.915352 Z" fill="#000000"></path>
    </g>
</svg>