<?xml version="1.0" encoding="UTF-8"?>
<svg width="24px" height="24px" viewBox="0 0 24 24" version="1.1" xmlns="http://www.w3.org/2000/svg" xmlns:xlink="http://www.w3.org/1999/xlink">
    <title>icons/functional_UI/M-S/mdpi/ic_Mute_speaker_button</title>
    <g id="icons/functional_UI/M-S/ic_Mute_speaker_button" stroke="none" stroke-width="1" fill="none" fill-rule="evenodd">
        <path d="M12.97464,7.60463998 L12.97464,9.56927999 L8.36111998,14.1828 L7.61663998,14.1828 C7.28676705,14.1817461 7.01961389,13.9145929 7.01855998,13.58472 L7.01855998,10.5948 C7.01945663,10.2648616 7.28670163,9.99761664 7.61663998,9.99671999 L10.25472,9.99671999 L12.97464,7.60463998 Z M12.97464,12.5292 L12.97464,16.57464 L10.85352,14.65032 L12.97464,12.5292 Z M16.8856844,11.994 C16.8871001,12.964882 16.5237376,13.9008702 15.8676,14.61648 L15.19224,14.0256 C16.1919332,12.9495018 16.2601356,11.3060279 15.35304,10.1508 L15.99072,9.51311999 C16.5703218,10.2097805 16.8870464,11.0877593 16.8856844,11.994 L16.8856844,11.994 Z M15.3907228,11.994 C15.3915342,12.6026556 15.1594247,13.188554 14.742,13.63152 L14.0664,13.0404 C14.5427451,12.5539926 14.6306301,11.8073153 14.28024,11.2236 L14.92632,10.57776 C15.2287206,10.9879622 15.3915016,11.4843812 15.3907228,11.994 L15.3907228,11.994 Z M17.4,7.23431998 L7.23431998,17.4 L6.59999998,16.76568 L16.76568,6.59999998 L17.4,7.23431998 Z M7.01855998,13.58472 L7.01855998,10.5948 C7.01945663,10.2648616 7.28670163,9.99761664 7.61663998,9.99671999 L10.25472,9.99671999 L12.97464,7.60463998 L12.97464,9.56927999 L8.36111998,14.1828 L7.61663998,14.1828 C7.28676705,14.1817461 7.01961389,13.9145929 7.01855998,13.58472 L7.01855998,13.58472 Z M10.85352,14.65032 L12.97464,12.5292 L12.97464,16.57464 L10.85352,14.65032 Z M15.3907228,11.994 C15.3915342,12.6026556 15.1594247,13.188554 14.742,13.63152 L14.0664,13.0404 C14.5427451,12.5539926 14.6306301,11.8073153 14.28024,11.2236 L14.92632,10.57776 C15.2287206,10.9879622 15.3915016,11.4843812 15.3907228,11.994 L15.3907228,11.994 Z M15.99072,9.51311999 C17.2292882,11.0064959 17.1767416,13.1845683 15.8676,14.61648 L15.19224,14.0256 C16.1919332,12.9495018 16.2601356,11.3060279 15.35304,10.1508 L15.99072,9.51311999 Z M16.76568,6.59999998 L17.4,7.23431998 L7.23431998,17.4 L6.59999998,16.76568 L16.76568,6.59999998 Z M12,1.79999996 C6.36671998,1.79999996 1.79999996,6.36671998 1.79999996,12 C1.79999996,17.63328 6.36671998,22.2 12,22.2 C17.63328,22.2 22.2,17.63328 22.2,12 C22.2,6.36671998 17.63328,1.79999996 12,1.79999996 Z M12,21.6 C6.69815998,21.6 2.39999996,17.30184 2.39999996,12 C2.39999996,6.69815998 6.69815998,2.39999996 12,2.39999996 C17.30184,2.39999996 21.6,6.69815998 21.6,12 C21.6,17.30184 17.30184,21.6 12,21.6 Z M7.01855998,13.58472 L7.01855998,10.5948 C7.01945663,10.2648616 7.28670163,9.99761664 7.61663998,9.99671999 L10.25472,9.99671999 L12.97464,7.60463998 L12.97464,9.56927999 L8.36111998,14.1828 L7.61663998,14.1828 C7.28676705,14.1817461 7.01961389,13.9145929 7.01855998,13.58472 L7.01855998,13.58472 Z M10.85352,14.65032 L12.97464,12.5292 L12.97464,16.57464 L10.85352,14.65032 Z M15.3907228,11.994 C15.3915342,12.6026556 15.1594247,13.188554 14.742,13.63152 L14.0664,13.0404 C14.5427451,12.5539926 14.6306301,11.8073153 14.28024,11.2236 L14.92632,10.57776 C15.2287206,10.9879622 15.3915016,11.4843812 15.3907228,11.994 L15.3907228,11.994 Z M15.99072,9.51311999 C17.2292882,11.0064959 17.1767416,13.1845683 15.8676,14.61648 L15.19224,14.0256 C16.1919332,12.9495018 16.2601356,11.3060279 15.35304,10.1508 L15.99072,9.51311999 Z M17.4,7.23431998 L7.23431998,17.4 L6.59999998,16.76568 L16.76568,6.59999998 L17.4,7.23431998 Z" fill="#000000"></path>
    </g>
</svg>