<?xml version="1.0" encoding="UTF-8"?>
<svg width="24px" height="24px" viewBox="0 0 24 24" version="1.1" xmlns="http://www.w3.org/2000/svg" xmlns:xlink="http://www.w3.org/1999/xlink">
    <title>icons/functional_UI/M-S/mdpi/ic_Modifier_done</title>
    <g id="icons/functional_UI/M-S/ic_Modifier_done" stroke="none" stroke-width="1" fill="none" fill-rule="evenodd">
        <path d="M17.105952,9.33263999 L11.48556,16.429032 C11.48556,16.429032 10.843272,17.307984 9.93700799,16.360032 C9.11911199,15.504816 6.85473598,12.804408 6.85473598,12.804408 C6.85473598,12.804408 6.33895198,12.1488 7.10572798,11.42424 C7.75262398,10.813032 8.24911198,11.0616 8.40285599,11.214984 C8.65413599,11.465736 10.271808,13.097016 10.271808,13.097016 C10.271808,13.097016 10.466904,13.292232 10.759632,12.971592 L15.69708,8.03625598 C15.69708,8.03625598 16.297368,7.47803998 16.96668,8.07767998 C17.658624,8.69738399 17.105952,9.33263999 17.105952,9.33263999 Z M12,4.19998123 C15.9889444,4.20675391 19.3244488,7.23363853 19.7172453,11.203202 C20.1100418,15.1727655 17.4324477,18.7946586 13.5221851,19.5830554 C9.6119225,20.3714522 5.74006418,18.0700758 4.56399559,14.2584376 C3.38792701,10.4467994 5.28994188,6.36391321 8.96462399,4.81199997 C9.92493716,4.40586235 10.9573381,4.19770713 12,4.19998123 L12,4.19998123 Z M12,1.79999996 C6.36669598,1.79999996 1.79999996,6.36669598 1.79999996,12 C1.79999996,17.633304 6.36669598,22.2 12,22.2 C17.633304,22.2 22.2,17.633304 22.2,12 C22.2,6.36669598 17.633304,1.79999996 12,1.79999996 L12,1.79999996 Z" fill="#000000"></path>
    </g>
</svg>