<?xml version="1.0" encoding="UTF-8"?>
<svg width="24px" height="24px" viewBox="0 0 24 24" version="1.1" xmlns="http://www.w3.org/2000/svg" xmlns:xlink="http://www.w3.org/1999/xlink">
    <title>icons/functional_UI/M-S/mdpi/ic_Missed</title>
    <g id="icons/functional_UI/M-S/ic_Missed" stroke="none" stroke-width="1" fill="none" fill-rule="evenodd">
        <path d="M22.512,7.82471998 L22.512,19.224 C22.512,20.2181126 21.7061126,21.024 20.712,21.024 L7.51199996,21.024 C6.51788743,21.024 5.71199997,20.2181126 5.71199997,19.224 L5.71199997,9.59999999 L1.51199996,9.59999999 L7.43615998,3.41807996 C7.68942473,3.14905479 8.04251713,2.99651989 8.41199999,2.99651989 C8.78148284,2.99651989 9.13457524,3.14905479 9.38783999,3.41807996 L15.312,9.59999999 L11.112,9.59999999 L11.112,15.62424 L17.112,15.62424 L17.112,7.82471998 C17.1119733,7.49322151 17.3805018,7.22437084 17.712,7.22399998 L21.912,7.22399998 C22.2434983,7.22437084 22.512,7.49322151 22.512,7.82471998 Z" id="Combined-Shape" fill="#000000"></path>
    </g>
</svg>