<?xml version="1.0" encoding="UTF-8"?>
<svg width="24px" height="24px" viewBox="0 0 24 24" version="1.1" xmlns="http://www.w3.org/2000/svg" xmlns:xlink="http://www.w3.org/1999/xlink">
    <title>icons/functional_UI/M-S/mdpi/ic_Mute_call_button</title>
    <g id="icons/functional_UI/M-S/ic_Mute_call_button" stroke="none" stroke-width="1" fill="none" fill-rule="evenodd">
        <path d="M12,1.79999996 C17.633304,1.79999996 22.2,6.36669598 22.2,12 C22.2,17.633304 17.633304,22.2 12,22.2 C6.36669598,22.2 1.79999996,17.633304 1.79999996,12 C1.79999996,6.36669598 6.36669598,1.79999996 12,1.79999996 Z M12,2.39999996 C17.301936,2.39999996 21.6,6.69806398 21.6,12 C21.6,17.301936 17.301936,21.6 12,21.6 C6.69806398,21.6 2.39999996,17.301936 2.39999996,12 C2.39999996,6.69806398 6.69806398,2.39999996 12,2.39999996 Z M14.038992,8.50504799 C13.8089454,7.56913857 12.9697435,6.91115333 12.005976,6.91103998 L12.005976,6.91103998 C10.8500352,6.91103998 9.91295962,7.84811516 9.91295962,9.00405599 L9.91295962,11.994096 C9.9128473,12.1836294 9.93844876,12.372302 9.98906399,12.554952 L14.038992,8.50504799 Z M12.005976,14.0871127 C13.1619168,14.0871127 14.098992,13.1500368 14.098992,11.994096 L14.098992,11.404968 L11.482776,14.021184 C11.6537047,14.0651003 11.8294958,14.0872516 12.005976,14.0871127 L12.005976,14.0871127 Z M15.145512,11.097096 C15.0265614,11.097096 14.9124806,11.1443381 14.8283676,11.2284466 C14.7442546,11.3125551 14.697,11.4266334 14.697,11.545584 L14.697,11.994096 C14.6970064,12.7078019 14.4134906,13.3922781 13.9088244,13.8969444 C13.4041581,14.4016106 12.7196819,14.6851264 12.005976,14.68512 L12.005976,14.68512 C11.664717,14.6855078 11.3265152,14.6208079 11.009496,14.494488 L10.3344,15.169512 C10.423792,15.216552 10.515328,15.259984 10.609008,15.299808 C10.9137082,15.428905 11.2349345,15.5148459 11.563392,15.555144 L11.563392,16.479144 L10.510968,16.479144 C10.1806973,16.479144 9.91295999,16.7468813 9.91295999,17.077152 L9.91295999,17.376168 L14.098992,17.376168 L14.098992,17.077152 C14.098992,16.7468813 13.8312547,16.479144 13.500984,16.479144 L12.448512,16.479144 L12.448512,15.555144 C14.2457855,15.3326764 15.595123,13.8050854 15.5940247,11.994096 L15.5940247,11.545584 C15.5940247,11.4266334 15.5467694,11.3125551 15.4626564,11.2284466 C15.3785434,11.1443381 15.2644626,11.097096 15.145512,11.097096 L15.145512,11.097096 Z M8.84707199,13.696968 L9.51947999,13.02456 C9.38405785,12.6979082 9.31454932,12.3477065 9.31495199,11.994096 L9.31495199,11.545584 C9.31314938,11.2991646 9.11287802,11.1003529 8.86645199,11.1003529 C8.62002595,11.1003529 8.4197546,11.2991646 8.41794687,11.545584 L8.41794687,11.994096 C8.41713932,12.4739461 8.51315946,12.9490265 8.70026399,13.390896 C8.74455199,13.495632 8.79348799,13.597656 8.84707199,13.696968 Z M7.23424798,17.424 L6.59999998,16.789728 L16.765728,6.62399998 L17.4,7.25827198 L7.23424798,17.424 Z" fill="#000000"></path>
    </g>
</svg>