<?xml version="1.0" encoding="UTF-8"?>
<svg width="24px" height="24px" viewBox="0 0 24 24" version="1.1" xmlns="http://www.w3.org/2000/svg" xmlns:xlink="http://www.w3.org/1999/xlink">
    <title>icons/functional_UI/M-S/mdpi/ic_Mobile_synced</title>
    <g id="icons/functional_UI/M-S/ic_Mobile_synced" stroke="none" stroke-width="1" fill="none" fill-rule="evenodd">
        <path d="M14.886648,10.4448 L11.576304,14.604864 L11.576304,14.604864 C11.4785645,14.7281825 11.3298345,14.8000821 11.17248,14.8000821 C11.0151255,14.8000821 10.8663955,14.7281825 10.768656,14.604864 L10.768656,14.604864 L9.11349599,12.524856 L9.11349599,12.524856 C8.94879264,12.3177625 8.96515037,12.0201775 9.15155999,11.832384 L9.35846399,11.6244 C9.54908507,11.432232 9.8559393,11.4204348 10.060752,11.5974 L10.060752,11.5974 L11.068968,12.72 L14.128968,9.74063999 L14.128968,9.74063999 C14.2794283,9.59867783 14.5000705,9.56016873 14.6897247,9.64277025 C14.8793785,9.72537177 15.0014635,9.91315196 15.000013,10.120008 C15.0001698,10.2380033 14.9601677,10.3525416 14.886576,10.444776 L14.886648,10.4448 Z M16.801224,1.79999996 L7.19882398,1.79999996 C6.88071915,1.79999996 6.57570409,1.92666747 6.35088028,2.15171182 C6.12605647,2.37675618 5.99984081,2.68189513 5.99999982,2.99999996 L5.99999982,21 C5.99966852,21.662401 6.53637499,22.1996555 7.19877598,22.2 L16.801176,22.2 C17.1192809,22.2 17.4242959,22.0733325 17.6491197,21.8482882 C17.8739435,21.6232438 18.0001592,21.3181049 17.9999998,21 L17.9999998,2.99999996 C18.0003315,2.33759896 17.463625,1.8003445 16.801224,1.79999996 Z M11.1,2.39999996 L12.9,2.39999996 C13.0656854,2.39999996 13.2,2.53431454 13.2,2.69999996 C13.2,2.86568539 13.0656854,2.99999996 12.9,2.99999996 L11.1,2.99999996 C10.9343146,2.99999996 10.8,2.86568539 10.8,2.69999996 C10.8,2.53431454 10.9343146,2.39999996 11.1,2.39999996 Z M12,21.6 C11.6686291,21.6 11.4,21.3313709 11.4,21 C11.4,20.6686292 11.6686291,20.4 12,20.4 C12.3313709,20.4 12.6,20.6686292 12.6,21 C12.6,21.3313709 12.3313709,21.6 12,21.6 Z M16.8,19.8 L7.19999998,19.8 L7.19999998,3.59999996 L16.8,3.59999996 L16.8,19.8 Z" fill="#000000"></path>
    </g>
</svg>