<?xml version="1.0" encoding="UTF-8"?>
<svg width="24px" height="24px" viewBox="0 0 24 24" version="1.1" xmlns="http://www.w3.org/2000/svg" xmlns:xlink="http://www.w3.org/1999/xlink">
    <title>icons/functional_UI/M-S/mdpi/ic_Mobile_unsynced</title>
    <g id="icons/functional_UI/M-S/ic_Mobile_unsynced" stroke="none" stroke-width="1" fill="none" fill-rule="evenodd">
        <path d="M16.801224,1.79999996 L7.19882398,1.79999996 C6.88071915,1.79999996 6.57570409,1.92666747 6.35088028,2.15171182 C6.12605647,2.37675618 5.99984081,2.68189513 5.99999982,2.99999996 L5.99999982,21 C5.99966852,21.662401 6.53637499,22.1996555 7.19877598,22.2 L16.801176,22.2 C17.1192809,22.2 17.4242959,22.0733325 17.6491197,21.8482882 C17.8739435,21.6232438 18.0001592,21.3181049 17.9999998,21 L17.9999998,2.99999996 C18.0003315,2.33759896 17.463625,1.8003445 16.801224,1.79999996 Z M11.1,2.39999996 L12.9,2.39999996 C13.0656854,2.39999996 13.2,2.53431454 13.2,2.69999996 C13.2,2.86568539 13.0656854,2.99999996 12.9,2.99999996 L11.1,2.99999996 C10.9343146,2.99999996 10.8,2.86568539 10.8,2.69999996 C10.8,2.53431454 10.9343146,2.39999996 11.1,2.39999996 Z M12,21.6 C11.6686291,21.6 11.4,21.3313709 11.4,21 C11.4,20.6686292 11.6686291,20.4 12,20.4 C12.3313709,20.4 12.6,20.6686292 12.6,21 C12.6,21.3313709 12.3313709,21.6 12,21.6 Z M16.8,19.8 L7.19999998,19.8 L7.19999998,3.59999996 L16.8,3.59999996 L16.8,19.8 Z M14.78328,14.783136 C14.6444943,14.9219889 14.4562202,15.0000013 14.2599,15.0000013 C14.0635799,15.0000013 13.8753057,14.9219889 13.73652,14.783136 L12,13.045728 L10.263432,14.783136 C10.0765911,14.9712996 9.80338026,15.0451605 9.54718153,14.97677 C9.29098279,14.9083795 9.09092944,14.708184 9.02272102,14.4519367 C8.9545126,14.1956894 9.02856766,13.9225311 9.21686399,13.735824 L10.953384,11.998584 L9.27859199,10.323072 C9.09094118,10.1361924 9.01739966,9.86331404 9.08572894,9.60744702 C9.15405823,9.35158001 9.35385102,9.1516956 9.60968668,9.08324903 C9.86552235,9.01480246 10.1384344,9.08821887 10.3254,9.27578399 L12,10.951368 L13.67472,9.27578399 C13.8618,9.08877688 14.1344361,9.01578116 14.389929,9.08429363 C14.6454219,9.1528061 14.8449561,9.35241807 14.913369,9.60793764 C14.9817819,9.86345722 14.90868,10.1360649 14.7216,10.323072 L13.04688,11.998584 L14.783376,13.735824 C15.0723147,14.0251579 15.0722718,14.4938551 14.78328,14.783136 Z" fill="#000000"></path>
    </g>
</svg>