<?xml version="1.0" encoding="UTF-8"?>
<svg width="24px" height="24px" viewBox="0 0 24 24" version="1.1" xmlns="http://www.w3.org/2000/svg" xmlns:xlink="http://www.w3.org/1999/xlink">
    <title>icons/functional_UI/M-S/mdpi/ic_Microphone</title>
    <g id="icons/functional_UI/M-S/ic_Microphone" stroke="none" stroke-width="1" fill="none" fill-rule="evenodd">
        <path d="M18.299999,9.91199999 C17.8029437,9.91199999 17.4,10.3149437 17.4,10.812 L17.4,11.712 C17.4,14.694336 14.982336,17.112 12,17.112 L12,17.112 C9.01766399,17.112 6.59999998,14.694336 6.59999998,11.712 L6.59999998,10.812 C6.59999998,10.3149437 6.19705625,9.91199999 5.69999997,9.91199999 C5.2029437,9.91199999 4.799999,10.3149437 4.799999,10.812 L4.799999,11.712 C4.79812816,15.3459273 7.50563555,18.4111036 11.112,18.857832 L11.112,20.712 L8.99999999,20.712 C8.33725828,20.712 7.799999,21.2492583 7.799999,21.912 L7.799999,22.512 L16.2,22.512 L16.2,21.912 C16.2,21.2492583 15.6627417,20.712 15,20.712 L12.888,20.712 L12.888,18.857832 C16.4945515,18.4114584 19.202247,15.3460691 19.2000014,11.712 L19.2000014,10.812 C19.2000014,10.3149437 18.7970563,9.91199999 18.299999,9.91199999 L18.299999,9.91199999 Z M12,1.51199996 C9.68040404,1.51199996 7.79999998,3.39240401 7.79999998,5.71199997 L7.79999998,11.712 C7.79999998,14.031596 9.68040404,15.912 12,15.912 C14.319596,15.912 16.2,14.031596 16.2,11.712 L16.2,5.71199997 C16.2,3.39240401 14.319596,1.51199996 12,1.51199996 Z M8.99999999,9.31199999 L8.99999999,5.71199996 C8.99999999,4.05514572 10.3431457,2.71199996 12,2.71199996 C13.6568543,2.71199996 15,4.05514572 15,5.71199996 L15,9.31199999 L8.99999999,9.31199999 Z" fill="#000000"></path>
    </g>
</svg>