<?xml version="1.0" encoding="UTF-8"?>
<svg width="24px" height="24px" viewBox="0 0 24 24" version="1.1" xmlns="http://www.w3.org/2000/svg" xmlns:xlink="http://www.w3.org/1999/xlink">
    <title>icons/functional_UI/E-M/mdpi/ic_Micro_SD_card</title>
    <g id="icons/functional_UI/E-M/ic_Micro_SD_card" stroke="none" stroke-width="1" fill="none" fill-rule="evenodd">
        <path d="M18,2.39999996 L7.67999998,2.39999996 C7.01725828,2.39999996 6.47999998,2.93725826 6.47999998,3.59999996 L6.47999998,10.8 L4.79999997,12.6 L4.79999997,19.2 C4.79999997,20.5254834 5.87451657,21.6 7.19999998,21.6 L16.8,21.6 C18.1254834,21.6 19.2,20.5254834 19.2,19.2 L19.2,3.59999996 C19.2,2.93725826 18.6627417,2.39999996 18,2.39999996 Z M9.83999999,8.03999998 L7.91999998,8.03999998 L7.91999998,3.83999997 L9.83999999,3.83999997 L9.83999999,8.03999998 Z M12.48,8.03999998 L10.56,8.03999998 L10.56,3.83999997 L12.48,3.83999997 L12.48,8.03999998 Z M15.12,8.03999998 L13.2,8.03999998 L13.2,3.83999997 L15.12,3.83999997 L15.12,8.03999998 Z M17.76,8.03999998 L15.84,8.03999998 L15.84,3.83999997 L17.76,3.83999997 L17.76,8.03999998 Z" fill="#000000"></path>
    </g>
</svg>