<?xml version="1.0" encoding="UTF-8"?>
<svg width="24px" height="24px" viewBox="0 0 24 24" version="1.1" xmlns="http://www.w3.org/2000/svg" xmlns:xlink="http://www.w3.org/1999/xlink">
    <title>icons/functional_UI/M-S/mdpi/ic_Money_box</title>
    <g id="icons/functional_UI/M-S/ic_Money_box" stroke="none" stroke-width="1" fill="none" fill-rule="evenodd">
        <path d="M22.2,12.299208 C22.2,7.56259198 18.065304,3.83999997 12.952008,3.83999997 C11.686656,3.83999997 10.378632,4.09439997 9.28000799,4.51999197 C9.41637599,3.11519996 8.59999199,1.79999996 8.59999199,1.79999996 C6.68507998,3.43413596 6.57993598,4.91745597 6.54230398,5.59679997 C6.54098398,5.62096797 6.54031198,5.64319197 6.53963998,5.66527197 L6.53882398,5.66361597 C6.53882398,5.66361597 6.53222398,5.97520797 6.54571198,6.18201598 C5.43359997,7.19944798 4.28481597,8.49071999 3.83999997,9.90559199 L2.91983996,9.90148799 C2.30303996,9.90148799 1.79999996,10.4856 1.79999996,11.197968 L1.79999996,14.679648 C1.79999996,15.392016 2.30296796,15.96912 2.91983996,15.96912 L3.83999997,15.971208 C4.34656797,16.95072 5.72253597,17.841456 6.57599998,18.576 C6.57446398,18.60372 6.59999998,18.619824 6.59999998,18.648 L6.59999998,20.88 C6.59999998,21.592296 7.06305598,22.2 7.67999998,22.2 L8.85599999,22.2 C9.47303999,22.2 9.95759999,21.546048 9.95759999,20.833728 L9.95759999,20.315688 C10.90932,20.617728 11.895096,20.839992 12.951936,20.839992 C14.16768,20.839992 15.804048,20.564688 16.864536,20.170152 L16.864536,20.833728 C16.864608,21.546048 17.3712,22.2 17.988,22.2 L19.03968,22.2 C19.656744,22.2 20.16,21.544296 20.16,20.832 C20.16,20.832 20.153184,18.117432 20.16,18.12 C21.765336,16.577688 22.2,14.610912 22.2,12.299208 Z M10.63752,5.00368797 C10.63752,5.00368797 12.758448,3.94939197 16.07592,5.00368797 L16.07592,5.87452797 C16.07592,5.87452797 13.302384,4.68827997 10.63752,5.87452797 L10.63752,5.00368797 Z" fill="#000000"></path>
    </g>
</svg>