<?xml version="1.0" encoding="UTF-8"?>
<svg width="24px" height="24px" viewBox="0 0 24 24" version="1.1" xmlns="http://www.w3.org/2000/svg" xmlns:xlink="http://www.w3.org/1999/xlink">
    <title>icons/functional_UI/M-S/mdpi/ic_Modifier_wizard</title>
    <g id="icons/functional_UI/M-S/ic_Modifier_wizard" stroke="none" stroke-width="1" fill="none" fill-rule="evenodd">
        <path d="M12,1.79999996 C6.36669598,1.79999996 1.79999996,6.36669598 1.79999996,12 C1.79999996,17.633304 6.36669598,22.2 12,22.2 C17.633304,22.2 22.2,17.633304 22.2,12 C22.2,6.36669598 17.633304,1.79999996 12,1.79999996 Z M12,19.8 C7.69216798,19.8 4.19999997,16.307808 4.19999997,12 C4.19999997,7.69219198 7.69216798,4.19999997 12,4.19999997 C16.307832,4.19999997 19.8,7.69216798 19.8,12 C19.8,16.307832 16.307808,19.8 12,19.8 Z M16.347408,12 C16.347408,10.534224 17.94708,11.643216 17.20236,9.84525599 C16.457184,8.04727198 16.110552,9.96215999 15.074064,8.92581599 C14.037576,7.88947198 15.953064,7.54281598 14.154864,6.79811998 C12.356664,6.05342398 13.465464,7.65251998 12.000024,7.65251998 C10.534176,7.65251998 11.643288,6.05335198 9.84518399,6.79811998 C8.04707998,7.54288798 9.96213599,7.88935198 8.92562399,8.92581599 C7.88911198,9.96227999 7.54252798,8.04727198 6.79778398,9.84525599 C6.05263198,11.643216 7.65218398,10.534224 7.65218398,12 C7.65218398,13.465776 6.05251198,12.356712 6.79778398,14.154696 C7.54252798,15.95268 7.88915998,14.037792 8.92562399,15.073728 C9.96213599,16.110192 8.04703198,16.45716 9.84518399,17.201904 C11.643336,17.946648 10.534176,16.347504 12.000024,16.347504 C13.465464,16.347504 12.3564,17.946624 14.154864,17.201904 C15.953328,16.457184 14.037528,16.110192 15.074064,15.073728 C16.110552,14.037792 16.457184,15.95268 17.20236,14.154696 C17.9472,12.356712 16.347408,13.465728 16.347408,12 Z M12.006624,14.6568 C10.5430495,14.656694 9.35665898,13.4701745 9.35671199,12.0066 C9.35676501,10.5430255 10.5432415,9.356592 12.006816,9.356592 C13.4703905,9.356592 14.656867,10.5430255 14.65692,12.0066 C14.65692,12.7094934 14.3776901,13.3835967 13.8806605,13.8806083 C13.3836308,14.37762 12.7095174,14.6568 12.006624,14.6568 L12.006624,14.6568 Z" fill="#000000"></path>
    </g>
</svg>