<?xml version="1.0" encoding="UTF-8"?>
<svg width="24px" height="24px" viewBox="0 0 24 24" version="1.1" xmlns="http://www.w3.org/2000/svg" xmlns:xlink="http://www.w3.org/1999/xlink">
    <title>icons/functional_UI/M-S/mdpi/ic_Modifier_add</title>
    <g id="icons/functional_UI/M-S/ic_Modifier_add" stroke="none" stroke-width="1" fill="none" fill-rule="evenodd">
        <path d="M17.4,10.2 L13.8,10.2 L13.8,6.59999998 C13.8,6.22444798 13.575672,5.99999997 13.2,5.99999997 L10.8,5.99999997 C10.424328,5.99999997 10.2,6.22444798 10.2,6.59999998 L10.2,10.2 L6.59999998,10.2 C6.22432798,10.2 5.99999997,10.424448 5.99999997,10.8 L5.99999997,13.2 C5.99999997,13.575552 6.22432798,13.8 6.59999998,13.8 L10.2,13.8 L10.2,17.4 C10.2,17.775552 10.424328,18 10.8,18 L13.2,18 C13.575672,18 13.8,17.775552 13.8,17.4 L13.8,13.8 L17.4,13.8 C17.775672,13.8 18,13.575552 18,13.2 L18,10.8 C18,10.424448 17.775672,10.2 17.4,10.2 Z M12,1.79999996 C6.36671998,1.79999996 1.79999996,6.36671998 1.79999996,12 C1.79999996,17.63328 6.36671998,22.2 12,22.2 C17.63328,22.2 22.2,17.63328 22.2,12 C22.2,6.36671998 17.63328,1.79999996 12,1.79999996 Z M19.8,12 C19.8,16.30776 16.30776,19.8 12,19.8 C7.69223998,19.8 4.19999997,16.30776 4.19999997,12 C4.19999997,7.69223998 7.69223998,4.19999997 12,4.19999997 C16.30776,4.19999997 19.8,7.69223998 19.8,12 Z" fill="#000000"></path>
    </g>
</svg>