<?xml version="1.0" encoding="UTF-8"?>
<svg width="24px" height="24px" viewBox="0 0 24 24" version="1.1" xmlns="http://www.w3.org/2000/svg" xmlns:xlink="http://www.w3.org/1999/xlink">
    <title>icons/functional_UI/M-S/mdpi/ic_Motion_and_fitness</title>
    <g id="icons/functional_UI/M-S/ic_Motion_and_fitness" stroke="none" stroke-width="1" fill="none" fill-rule="evenodd">
        <path d="M20.456928,3.97355997 C18.1272,1.64555996 14.359008,1.63199996 12.012,3.93201597 L12.012,3.93201597 L12.012,3.93201597 C9.66499199,1.63199996 5.89679997,1.64555996 3.56707196,3.97355997 C1.26153596,6.27741598 1.22399996,9.98927999 3.45429596,12.339072 L3.45429596,12.339072 L12.012,21.768 L12.012,21.768 L12.012,21.768 L20.569776,12.339144 L20.569776,12.339144 C22.8,9.98927999 22.762464,6.27741598 20.456928,3.97355997 Z M17.617728,11.117808 L16.535688,11.117808 C16.4969644,11.1178526 16.4598094,11.1025108 16.4323984,11.0751583 C16.4049874,11.0478058 16.3895662,11.0106837 16.389528,10.97196 L16.389528,9.32061599 C16.389528,9.31487999 16.389264,9.30921599 16.389072,9.30355199 C16.3945233,9.15799627 16.3390504,9.01675679 16.236,8.91381599 L15.089352,7.76966398 C14.9806082,7.66148201 14.8300743,7.60613287 14.677152,7.61810398 C14.664096,7.61711998 14.650944,7.61647198 14.637648,7.61647198 L12.705096,7.61647198 C12.70236,7.61647198 12.699672,7.61663998 12.696936,7.61666398 C12.691224,7.61666398 12.685512,7.61683198 12.679824,7.61711998 C12.674136,7.61740798 12.669072,7.61783998 12.66372,7.61824798 C12.660528,7.61851198 12.657312,7.61867998 12.65412,7.61899198 C12.648936,7.61949598 12.643824,7.62016798 12.638688,7.62081598 C12.63516,7.62127198 12.631632,7.62165598 12.628128,7.62215998 C12.62388,7.62280798 12.619656,7.62357598 12.615432,7.62429598 C12.611208,7.62501598 12.606288,7.62585598 12.601752,7.62669598 C12.598896,7.62724798 12.596088,7.62791998 12.593256,7.62851998 C12.587112,7.62983998 12.580992,7.63123198 12.574896,7.63276798 L12.571896,7.63358398 C12.4817304,7.65684553 12.3994294,7.70380484 12.333528,7.76959198 L11.09292,9.00748799 C10.8882175,9.21275996 10.8882175,9.54496802 11.09292,9.75023999 L11.09292,9.75023999 C11.2990021,9.95449909 11.6311979,9.95449909 11.83728,9.75023999 L12.858984,8.73076799 C12.9000708,8.68979346 12.9557339,8.6667911 13.01376,8.66680799 L14.2416,8.66680799 L12.178776,10.72512 C12.171576,10.73232 12.164808,10.73952 12.15816,10.747032 C12.150696,10.753656 12.143352,10.760472 12.136224,10.7676 L10.811664,12.08928 C10.7610139,12.1397927 10.692397,12.1681543 10.620864,12.168144 L8.49446399,12.168144 C8.20436078,12.1686172 7.96912188,12.4033306 7.96799998,12.693432 L7.96799998,12.693432 C7.96916114,12.9834547 8.20431949,13.2180983 8.49434399,13.218624 L10.950624,13.218624 C10.953456,13.218624 10.956264,13.218456 10.959096,13.218408 C10.964712,13.218408 10.970304,13.218264 10.975896,13.217976 C10.981488,13.217688 10.9866,13.217256 10.991928,13.216848 C10.995144,13.216584 10.998384,13.216416 11.001528,13.216104 C11.006712,13.2156 11.011824,13.214928 11.01696,13.214256 C11.020464,13.213824 11.023992,13.21344 11.027472,13.212912 C11.031768,13.212288 11.036016,13.21152 11.040264,13.210776 C11.044512,13.210032 11.049336,13.20924 11.053872,13.208376 C11.056752,13.207776 11.059584,13.207128 11.06244,13.206504 C11.068536,13.205184 11.074632,13.203816 11.080704,13.20228 L11.083752,13.20144 C11.1739069,13.1781824 11.2561992,13.1312317 11.322096,13.065456 L12.529584,11.860656 L13.963656,13.291632 C13.9908061,13.3186954 14.0060661,13.3554533 14.0060661,13.393788 C14.0060661,13.4321227 13.9908061,13.4688806 13.963656,13.495944 L12.705024,14.75184 C12.5003215,14.957112 12.5003215,15.28932 12.705024,15.494592 L12.705024,15.494592 C12.9111061,15.6988511 13.2433019,15.6988511 13.449384,15.494592 L15.161544,13.786152 C15.168912,13.7796 15.17616,13.772856 15.183144,13.7658 L15.183144,13.7658 C15.3878064,13.5600245 15.3878064,13.2275755 15.183144,13.0218 L15.183144,13.0218 C15.175944,13.014744 15.168744,13.008 15.161544,13.001448 L13.779,11.621904 L15.336768,10.06752 L15.336768,11.643144 L15.336768,11.643144 C15.3379292,11.9331666 15.5730875,12.1678103 15.863112,12.168336 L17.617512,12.168336 C17.9076394,12.1678891 18.1429044,11.9331496 18.144,11.643024 L18.144,11.643024 C18.1428389,11.3529974 17.9076844,11.1183469 17.617656,11.117808 L17.617728,11.117808 Z M16.72044,8.31655198 C17.1486716,8.32376388 17.5383962,8.07025896 17.7053952,7.67586624 C17.8723942,7.28147352 17.7832191,6.82518654 17.4800221,6.52268721 C17.1768251,6.22018787 16.7203339,6.13206425 16.3263269,6.29997142 C15.93232,6.46787859 15.6797136,6.85818616 15.687912,7.28639998 C15.6993399,7.85145676 16.1553584,8.30642591 16.72044,8.31655198 Z M7.09199998,7.58399998 L10.692,7.58399998 C10.8576854,7.58399998 10.992,7.71831456 10.992,7.88399998 C10.992,8.04968541 10.8576854,8.18399998 10.692,8.18399998 L7.09199998,8.18399998 C6.92631455,8.18399998 6.79199998,8.04968541 6.79199998,7.88399998 C6.79199998,7.71831456 6.92631455,7.58399998 7.09199998,7.58399998 Z M5.29199997,9.98399999 L8.89199999,9.98399999 C9.05768541,9.98399999 9.19199999,10.1183146 9.19199999,10.284 C9.19199999,10.4496854 9.05768541,10.584 8.89199999,10.584 L5.29199997,10.584 C5.12631455,10.584 4.99199997,10.4496854 4.99199997,10.284 C4.99199997,10.1183146 5.12631455,9.98399999 5.29199997,9.98399999 Z" fill="#000000"></path>
    </g>
</svg>