<svg width="24" height="24"><path fill-rule="evenodd" d="M18 4a2 2 0 0 1 2 2v12.221h-1.779v1.78H5.847A1.846 1.846 0 0 1 4 18.153V5.778h1.777V4H18ZM9.634 17.653a.471.471 0 0 0 .371.558.483.483 0 0 0 .574-.36s.813-3.945.976-3.945c.164 0 .975 3.945.975 3.945a.483.483 0 0 0 .574.36.471.471 0 0 0 .371-.558c-.842-5.682-.964-6.355-.98-6.76l-.002-.047v-.067l-.001-.048c0-.265 2.367-1.06 2.76-1.191l.056-.018a.392.392 0 0 0 .216-.208.375.375 0 0 0 .001-.296.4.4 0 0 0-.515-.208s-.77.293-1.595.576l-.353.12c-.648.214-1.266.395-1.505.395-.588 0-3.45-1.097-3.45-1.097a.406.406 0 0 0-.521.214.388.388 0 0 0 .214.51s2.577.97 2.817 1.203c.145.14-.062 1.672-.323 3.262l-.088.53a132.582 132.582 0 0 1-.57 3.122l-.002.008ZM18 5H6.778v.777h9.598a1.846 1.846 0 0 1 1.846 1.847v9.597H19V6a1 1 0 0 0-.884-.993L18 5Zm-6.447 2.555a.828.828 0 0 0-.84.817c0 .45.376.816.84.816.464 0 .84-.365.84-.816a.827.827 0 0 0-.84-.817Z"/></svg>