<?xml version="1.0" encoding="UTF-8"?>
<svg width="24px" height="24px" viewBox="0 0 24 24" version="1.1" xmlns="http://www.w3.org/2000/svg" xmlns:xlink="http://www.w3.org/1999/xlink">
    <title>icons/functional_UI/M-S/mdpi/ic_Motion</title>
    <g id="icons/functional_UI/M-S/ic_Motion" stroke="none" stroke-width="1" fill="none" fill-rule="evenodd">
        <path d="M3.43259996,11.988 C3.42969177,10.0971116 3.89311643,8.23468326 4.78183197,6.56565598 C5.03731197,6.08606398 4.69327197,5.50682384 4.15041597,5.50682384 L4.15041597,5.50682384 C3.88603231,5.50666535 3.64303364,5.65207527 3.51820796,5.88513597 C1.4845683,9.70595465 1.48320103,14.2877203 3.51455996,18.109752 C3.63932183,18.3430128 3.88243003,18.4885825 4.14695997,18.4884242 L4.16073597,18.4884242 C4.70414397,18.4884242 5.04818397,17.908128 4.79159997,17.428512 C3.89655794,15.7549505 3.42967465,13.8858672 3.43259996,11.988 L3.43259996,11.988 Z M6.31377598,12.000816 C6.31068768,10.0696416 6.95600049,8.19333685 8.14629598,6.67259998 C8.51637599,6.19907998 8.17951198,5.50682397 7.57900798,5.50682397 L7.57900798,5.50682397 C7.35726915,5.50682397 7.14787403,5.60889533 7.01131198,5.78359197 C4.16245423,9.43564969 4.16025872,14.5567009 7.00598398,18.2112 C7.14252632,18.3861609 7.35208108,18.488424 7.57401598,18.488424 L7.57401598,18.488424 C8.17423198,18.488424 8.51116799,17.796744 8.14168798,17.323128 C6.95429145,15.8033833 6.3106925,13.929423 6.31377598,12.000816 Z M22.152,11.988 C22.152,15.971088 18.92712,19.2 14.949048,19.2 C10.970976,19.2 7.74609598,15.971088 7.74609598,11.988 C7.74609598,8.00491198 10.970952,4.77599997 14.949048,4.77599997 C18.927144,4.77599997 22.152,8.00491198 22.152,11.988 Z" fill="#000000"></path>
    </g>
</svg>