<?xml version="1.0" encoding="UTF-8"?>
<svg width="24px" height="24px" viewBox="0 0 24 24" version="1.1" xmlns="http://www.w3.org/2000/svg" xmlns:xlink="http://www.w3.org/1999/xlink">
    <title>icons/functional_UI/E-M/mdpi/ic_Message_instant</title>
    <g id="icons/functional_UI/E-M/ic_Message_instant" stroke="none" stroke-width="1" fill="none" fill-rule="evenodd">
        <path d="M19.8,2.99999996 L2.39999996,2.99999996 L2.39999996,15.6 C2.39999996,16.5941126 3.20588741,17.4 4.19999997,17.4 L6.59999998,17.4 L6.59999998,21.6 L10.8,17.4 L21.6,17.4 L21.6,4.79999997 C21.6,3.80588742 20.7941126,2.99999996 19.8,2.99999996 Z M15.312,8.03999998 C15.312,9.03411254 14.5061126,9.83999999 13.512,9.83999999 C12.5178875,9.83999999 11.712,9.03411254 11.712,8.03999998 C11.712,7.04588743 12.5178875,6.23999998 13.512,6.23999998 C13.9893897,6.23999998 14.4472267,6.42964229 14.7847922,6.76720777 C15.1223577,7.10477325 15.312,7.5626103 15.312,8.03999998 L15.312,8.03999998 Z M10.512,4.55999997 C11.3613838,4.56011347 12.0951472,5.15385229 12.272472,5.98451997 C11.5519609,6.41877092 11.1116073,7.19874497 11.112,8.03999998 C11.112,8.04571198 11.112192,8.05139998 11.112216,8.05711198 C10.4367309,8.2958614 9.68397186,8.11129424 9.19553496,7.58716564 C8.70709806,7.06303703 8.57599082,6.29915085 8.86170866,5.64215259 C9.1474265,4.98515432 9.79556341,4.56014873 10.512,4.55999997 L10.512,4.55999997 Z M10.2006,13.2 L10.2,13.2 L10.2,14.52 L8.95199999,14.52 L8.95199999,14.518776 C8.30851089,14.4931025 7.80005484,13.9640011 7.79999998,13.32 L7.79999998,11.52 L7.80059998,11.52 C7.80033598,11.504016 7.79999998,11.488056 7.79999998,11.472 C7.80067719,10.6211989 8.20026564,9.81994624 8.87943906,9.30751438 C9.55861248,8.79508253 10.4387713,8.63077433 11.25708,8.86365599 C11.4435953,9.37207394 11.7961184,9.80273542 12.257664,10.086024 C11.0130073,10.5955861 10.1999427,11.8070748 10.2,13.152 C10.2,13.168056 10.200384,13.184016 10.2006,13.2 Z M16.224,13.2 L16.224,16.2 L11.952,16.2 L11.952,16.198776 C11.3085109,16.1731025 10.8000548,15.6440011 10.8,15 L10.8,13.2 L10.8006,13.2 C10.800336,13.184016 10.8,13.168056 10.8,13.152 C10.8,11.6542038 12.0142038,10.4400001 13.512,10.4400001 C15.0097962,10.4400001 16.224,11.6542038 16.224,13.152 C16.224,13.168056 16.223664,13.184016 16.2234,13.2 L16.224,13.2 Z" fill="#000000"></path>
    </g>
</svg>