<?xml version="1.0" encoding="UTF-8"?>
<svg width="24px" height="24px" viewBox="0 0 24 24" version="1.1" xmlns="http://www.w3.org/2000/svg" xmlns:xlink="http://www.w3.org/1999/xlink">
    <title>icons/functional_UI/M-S/mdpi/ic_Modifier_download</title>
    <g id="icons/functional_UI/M-S/ic_Modifier_download" stroke="none" stroke-width="1" fill="none" fill-rule="evenodd">
        <path d="M12,4.19998123 C15.9889444,4.20675391 19.3244488,7.23363853 19.7172453,11.203202 C20.1100418,15.1727655 17.4324477,18.7946586 13.5221851,19.5830554 C9.6119225,20.3714522 5.74006418,18.0700758 4.56399559,14.2584376 C3.38792701,10.4467994 5.28994188,6.36391321 8.96462399,4.81199997 C9.92493716,4.40586235 10.9573381,4.19770713 12,4.19998123 L12,4.19998123 Z M12,1.79999996 C6.36669598,1.79999996 1.79999996,6.36669598 1.79999996,12 C1.79999996,17.633304 6.36669598,22.2 12,22.2 C17.633304,22.2 22.2,17.633304 22.2,12 C22.2,6.36669598 17.633304,1.79999996 12,1.79999996 L12,1.79999996 Z M7.25519998,12.322224 L9.59999999,12.288 L9.59999999,8.08799998 C9.59844768,7.85201529 9.691506,7.62524597 9.85837599,7.45837598 C10.025246,7.29150599 10.2520153,7.19844767 10.488,7.19998087 L13.512,7.19998087 C13.7479847,7.19844767 13.974754,7.29150599 14.141624,7.45837598 C14.308494,7.62524597 14.4015523,7.85201529 14.4,8.08799998 L14.4,12.288 L17.088,12.288 L12.802344,16.474344 L12.802344,16.474344 C12.5904,16.676112 12.339696,16.8000008 12.024,16.8000008 L11.976,16.8000008 C11.6762986,16.8003558 11.3883485,16.6834581 11.173704,16.474296 L11.173704,16.474296 L6.88799998,12.288 L9.59999999,12.288 L7.25519998,12.322224 Z" fill="#000000"></path>
    </g>
</svg>