<?xml version="1.0" encoding="UTF-8"?>
<svg width="24px" height="24px" viewBox="0 0 24 24" version="1.1" xmlns="http://www.w3.org/2000/svg" xmlns:xlink="http://www.w3.org/1999/xlink">
    <title>icons/functional_UI/M-S/mdpi/ic_Modifier_sync</title>
    <g id="icons/functional_UI/M-S/ic_Modifier_sync" stroke="none" stroke-width="1" fill="none" fill-rule="evenodd">
        <path d="M12,4.19998123 C15.9889444,4.20675391 19.3244488,7.23363853 19.7172453,11.203202 C20.1100418,15.1727655 17.4324477,18.7946586 13.5221851,19.5830554 C9.6119225,20.3714522 5.74006418,18.0700758 4.56399559,14.2584376 C3.38792701,10.4467994 5.28994188,6.36391321 8.96462399,4.81199997 C9.92493716,4.40586235 10.9573381,4.19770713 12,4.19998123 L12,4.19998123 Z M12,1.79999996 C6.36669598,1.79999996 1.79999996,6.36669598 1.79999996,12 C1.79999996,17.633304 6.36669598,22.2 12,22.2 C17.633304,22.2 22.2,17.633304 22.2,12 C22.2,6.36669598 17.633304,1.79999996 12,1.79999996 L12,1.79999996 Z M16.2648,8.68799999 C15.2428668,7.36958531 13.6681015,6.59859725 12,6.59999807 C9.34281599,6.59999807 7.13392798,8.51920799 6.68383198,11.047056 L8.30786398,11.047056 C8.64884495,9.72131862 9.67475561,8.68036089 10.995388,8.320114 C12.3160203,7.95986711 13.7284075,8.33569711 14.695344,9.30465599 C14.8551159,9.46433708 15.0004801,9.63781036 15.129744,9.82305599 L13.905864,11.047056 L16.701192,11.047056 C17.0871369,11.047056 17.4,10.7341689 17.4,10.348224 L17.4,7.55294398 L16.2648,8.68799999 Z M15.692136,12.952944 C15.3511503,14.2786715 14.3252444,15.31962 13.0046205,15.6798659 C11.6839965,16.0401119 10.2716175,15.6642901 9.30467999,14.695344 C9.14490293,14.5356245 8.99953863,14.3621109 8.87027999,14.176824 L10.09428,12.952944 L7.29883198,12.952944 C6.91288709,12.952944 6.59999998,13.2658071 6.59999998,13.651752 L6.59999998,16.447056 L7.73519998,15.312 C8.75712846,16.6304205 10.3318968,17.40141 12,17.400002 C14.657184,17.400002 16.866072,15.480792 17.316168,12.952944 L15.692136,12.952944 Z" fill="#000000"></path>
    </g>
</svg>