<?xml version="1.0" encoding="UTF-8"?>
<svg width="24px" height="24px" viewBox="0 0 24 24" version="1.1" xmlns="http://www.w3.org/2000/svg" xmlns:xlink="http://www.w3.org/1999/xlink">
    <title>icons/functional_UI/M-S/mdpi/ic_My_calls</title>
    <g id="icons/functional_UI/M-S/ic_My_calls" stroke="none" stroke-width="1" fill="none" fill-rule="evenodd">
        <path d="M15.7608,10.137816 C13.6351681,12.1406499 10.3171735,12.140734 8.19143998,10.138008 C6.49334565,11.0634832 5.41997692,12.8265504 5.37753597,14.76 L5.37599997,14.76 L5.37599997,19.8 C5.37599997,21.1254834 6.45051658,22.2 7.77599998,22.2 L18.5760003,22.2 L18.5760003,14.88 C18.5766591,12.9030531 17.496693,11.083858 15.7608,10.137816 Z M16.296,6.11999998 C16.296,8.5058701 14.3618701,10.44 11.976,10.44 C9.59012987,10.44 7.65599998,8.5058701 7.65599998,6.11999998 C7.65599998,3.73412985 9.59012987,1.79999996 11.976,1.79999996 C14.3618701,1.79999996 16.296,3.73412985 16.296,6.11999998 Z M11.381112,17.426256 C10.686288,16.731096 10.02216,15.92592 10.340256,15.60768 C11.138472,14.808912 11.192016,14.871024 10.385376,13.866528 C9.57830399,12.86208 9.61067999,13.042584 8.59936799,14.074896 C8.06743198,14.648088 8.57263199,16.4832 10.447872,18.36 C12.32352,20.236584 14.205936,20.719512 14.730144,20.209752 C15.807744,19.138944 15.892392,19.198656 14.938152,18.422952 C13.934736,17.615328 13.993176,17.672736 13.198536,18.467976 C12.880368,18.786072 12.076056,18.121632 11.381112,17.426256 Z" fill="#000000"></path>
    </g>
</svg>