<svg width="24" height="24"><path fill-rule="evenodd" d="M22.765 7.917q.07.371.05.748a.5.5 0 0 0 .044.221.43.43 0 0 0 .141.169c-.202.509-.49.973-.85 1.37-.21.232-.591.51-1.94.966-.726.246-1.677.524-2.826.826-1.773.467-3.488.852-3.787.918a3.86 3.86 0 0 1-2.662-.064l-6.927-2.736a1.57 1.57 0 0 1-.823-.764 1.76 1.76 0 0 1-.133-1.208c.055-.217.152-.42.285-.594.132-.175.297-.318.484-.42.217-.128.46-.195.706-.195q.272 0 .526.099l.009.003 3.073 1.22a.6.6 0 0 1 .089-.265 1.35 1.35 0 0 1 .456-.438c.182-.105.385-.163.591-.168l.001-.002q.224.001.434.083l.5.192c.209-.186.444-.333.664-.41l2.432-.868c.445-.164.85-.434 1.186-.788a1 1 0 0 1 .106-.094l.008-.006c.097-.072.93-.692 1.92-1.32C18.144 3.359 18.975 3.07 19.46 3q.189.1.39.17.441.528.905 1.04a3.1 3.1 0 0 0-.866-.34.7.7 0 0 0-.15-.016c-1.235 0-4.678 2.581-4.678 2.581a3.9 3.9 0 0 1-1.5.995l-2.434.869c-.326.115-.854.604-.747.954.093.288.546.608.865.608a.4.4 0 0 0 .102-.012l7.124-1.692c.11-.035.21-.103.298-.164.088-.06.164-.112.224-.112.051 0 .091.039.119.138a.7.7 0 0 1-.065.485.6.6 0 0 1-.362.297l-6.897 2.001a1.67 1.67 0 0 1-1.271-.135 1.85 1.85 0 0 1-.636-.563l-5.103-2.03a.7.7 0 0 0-.25-.05.6.6 0 0 0-.327.094.7.7 0 0 0-.232.198.8.8 0 0 0-.133.286.83.83 0 0 0 .07.542c.083.165.22.293.383.359l6.929 2.737a3.1 3.1 0 0 0 2.17.038s7.416-1.63 8.18-2.472a3.6 3.6 0 0 0 .868-1.734q.086-.435.066-.88l.041.094.051.115q.112.248.171.516m-13.192.98-.897-.36a.8.8 0 0 1 .26-.247.7.7 0 0 1 .335-.1v-.002a.7.7 0 0 1 .252.05l.28.107c-.098.153-.188.34-.23.552m-1.578 8.117v-2.282q0-.023.01-.043a.11.11 0 0 1 .065-.062.1.1 0 0 1 .047-.009h1.897a.13.13 0 0 1 .087.034.1.1 0 0 1 .035.08v2.282q0 .047.036.08a.13.13 0 0 0 .086.033h1.062q.032 0 .06.016.03.015.045.041a.11.11 0 0 1 0 .114l-2.254 3.645a.1.1 0 0 1-.045.042.13.13 0 0 1-.122 0 .1.1 0 0 1-.044-.042l-2.255-3.645a.11.11 0 0 1 0-.114.1.1 0 0 1 .045-.041.13.13 0 0 1 .061-.016h1.062a.13.13 0 0 0 .086-.033.11.11 0 0 0 .036-.08m5.94-2.282v2.282a.11.11 0 0 1-.036.08.13.13 0 0 1-.086.033h-1.062a.13.13 0 0 0-.06.016.1.1 0 0 0-.045.041.11.11 0 0 0 0 .114l2.254 3.645q.016.026.045.042a.13.13 0 0 0 .122 0 .1.1 0 0 0 .044-.042l2.255-3.645a.11.11 0 0 0-.045-.155.13.13 0 0 0-.06-.016h-1.062a.13.13 0 0 1-.087-.033.1.1 0 0 1-.035-.08v-2.282a.11.11 0 0 0-.036-.08.12.12 0 0 0-.086-.034h-1.898a.13.13 0 0 0-.086.034.1.1 0 0 0-.036.08" clip-rule="evenodd"/></svg>