<?xml version="1.0" encoding="UTF-8"?>
<svg width="24px" height="24px" viewBox="0 0 24 24" version="1.1" xmlns="http://www.w3.org/2000/svg" xmlns:xlink="http://www.w3.org/1999/xlink">
    <title>icons/functional_UI/M-S/mdpi/ic_Modifier_upload</title>
    <g id="icons/functional_UI/M-S/ic_Modifier_upload" stroke="none" stroke-width="1" fill="none" fill-rule="evenodd">
        <path d="M12,19.8000188 C8.01105557,19.7932461 4.67555117,16.7663615 4.28275466,12.796798 C3.88995815,8.82723452 6.56755226,5.20534138 10.4778149,4.41694458 C14.3880775,3.62854778 18.2599358,5.92992416 19.4360044,9.74156239 C20.612073,13.5532006 18.7100581,17.6360868 15.035376,19.188 C14.0750628,19.5941377 13.0426619,19.8022929 12,19.8000188 L12,19.8000188 Z M12,22.2 C17.633304,22.2 22.2,17.633304 22.2,12 C22.2,6.36669598 17.633304,1.79999996 12,1.79999996 C6.36669598,1.79999996 1.79999996,6.36669598 1.79999996,12 C1.79999996,17.633304 6.36669598,22.2 12,22.2 L12,22.2 Z M16.7448,11.677776 L14.4,11.712 L14.4,15.912 C14.4015523,16.1479847 14.308494,16.374754 14.141624,16.541624 C13.974754,16.708494 13.7479847,16.8015523 13.512,16.8000191 L10.488,16.8000191 C10.2520153,16.8015523 10.025246,16.708494 9.85837599,16.541624 C9.691506,16.374754 9.59844768,16.1479847 9.59999999,15.912 L9.59999999,11.712 L6.91199998,11.712 L11.197656,7.52565598 L11.197656,7.52565598 C11.4096,7.32388798 11.660304,7.19999917 11.976,7.19999917 L12.024,7.19999917 C12.3237014,7.19964424 12.6116515,7.31654189 12.826296,7.52570398 L12.826296,7.52570398 L17.112,11.712 L14.4,11.712 L16.7448,11.677776 Z" fill="#000000"></path>
    </g>
</svg>