<svg width="24" height="24">
<path fill-rule="evenodd" clip-rule="evenodd" d="M22.7653 7.91714C22.811 8.16326 22.8275 8.41458 22.8146 8.66516C22.8114 8.74177 22.8268 8.81797 22.8593 8.88624C22.8918 8.95452 22.9403 9.01252 23 9.05453C22.7984 9.56378 22.5104 10.0283 22.1506 10.4243C21.9394 10.6571 21.5585 10.9355 20.2107 11.3912C19.4839 11.6369 18.5326 11.9149 17.384 12.2175C15.6109 12.6842 13.8955 13.0691 13.5967 13.1355C13.1954 13.2729 12.7766 13.3426 12.3554 13.342C11.8705 13.3425 11.3894 13.2509 10.9342 13.0716L4.0081 10.3351C3.65618 10.1968 3.36347 9.92507 3.18511 9.57104C3.00675 9.21702 2.95505 8.80515 3.03974 8.41301C3.04342 8.39667 3.04757 8.37982 3.05172 8.36347C3.10729 8.14617 3.20443 7.94371 3.33695 7.76902C3.46946 7.59433 3.63444 7.45126 3.82134 7.34894C4.03763 7.22109 4.28046 7.15396 4.52732 7.15376C4.70671 7.15398 4.88471 7.1875 5.05347 7.25283L5.06177 7.2563L8.13474 8.47673C8.13541 8.46956 8.13621 8.46241 8.13713 8.45527C8.14841 8.36786 8.17794 8.28433 8.22352 8.21092C8.34149 8.02852 8.49784 7.8786 8.67989 7.77333C8.86193 7.66806 9.06452 7.61041 9.2712 7.60507L9.27212 7.60309C9.42027 7.60359 9.56722 7.63158 9.7065 7.68582L10.2062 7.87763C10.4147 7.69227 10.6502 7.54545 10.8701 7.46733L13.3016 6.59992C13.7469 6.4356 14.1523 6.1663 14.4881 5.81177C14.5206 5.77707 14.5559 5.74557 14.5937 5.71765L14.6019 5.71159C14.6987 5.63955 15.5317 5.02011 16.5212 4.39152C18.1453 3.35915 18.9762 3.07084 19.4595 3C19.5856 3.06702 19.7164 3.12365 19.8505 3.16942C20.1429 3.52312 20.4472 3.8684 20.7552 4.20972C20.4831 4.05229 20.1913 3.93768 19.8888 3.86939C19.8398 3.85868 19.7899 3.85353 19.7398 3.85403C18.504 3.85403 15.0608 6.43496 15.0608 6.43496C14.6369 6.88339 14.1243 7.22339 13.5612 7.42968L11.1269 8.29858C10.8014 8.41351 10.2729 8.90294 10.3804 9.25268C10.4735 9.54149 10.9259 9.86101 11.2455 9.86101C11.2796 9.86128 11.3137 9.85712 11.3469 9.84862L18.4713 8.1569C18.5813 8.1223 18.6815 8.05353 18.7693 7.99331C18.8574 7.93284 18.933 7.88098 18.9933 7.88098C19.044 7.88098 19.0841 7.91961 19.1118 8.01869C19.1502 8.18317 19.127 8.35725 19.0472 8.50358C18.9675 8.64991 18.8375 8.75683 18.6853 8.80139L11.7877 10.8022C11.6349 10.8469 11.4772 10.8696 11.3188 10.8696C11.0405 10.869 10.7661 10.7997 10.5168 10.667C10.2675 10.5343 10.05 10.3417 9.88099 10.1042L4.77818 8.07318C4.69785 8.04123 4.61298 8.02447 4.52732 8.02364C4.41274 8.02333 4.30016 8.056 4.20131 8.11826C4.11125 8.16529 4.03187 8.23295 3.96878 8.31648C3.90568 8.40002 3.86039 8.49739 3.8361 8.60175C3.79736 8.78545 3.82195 8.978 3.9053 9.1437C3.98866 9.3094 4.12512 9.43701 4.28938 9.50285L11.2178 12.2403C11.5827 12.3836 11.9682 12.4569 12.3568 12.4568C12.7073 12.4572 13.0556 12.397 13.3883 12.2785C13.3883 12.2785 20.8037 10.6477 21.5682 9.80602C22.0053 9.32856 22.3065 8.72709 22.4365 8.07219C22.4934 7.78334 22.5155 7.4878 22.502 7.19289C22.5156 7.22385 22.5293 7.25482 22.5431 7.28582L22.5432 7.28606C22.5603 7.32443 22.5774 7.36286 22.5942 7.40145C22.6685 7.56618 22.7258 7.73909 22.7653 7.91714ZM9.57293 8.897L8.67589 8.53688C8.74401 8.43422 8.83304 8.34962 8.93621 8.28952C9.03938 8.22943 9.15395 8.19543 9.2712 8.19011V8.18813C9.357 8.189 9.44202 8.20575 9.52251 8.23767L9.80264 8.34529C9.70525 8.49796 9.61547 8.68506 9.57293 8.897ZM7.9948 17.0135V14.7321C7.9948 14.7171 7.99797 14.7023 8.00411 14.6885C8.01026 14.6747 8.01926 14.6621 8.03061 14.6515C8.04196 14.641 8.05544 14.6326 8.07026 14.6269C8.08508 14.6212 8.10096 14.6183 8.11699 14.6184H10.0141C10.0302 14.6183 10.046 14.6212 10.0609 14.6269C10.0757 14.6326 10.0892 14.641 10.1005 14.6515C10.1119 14.6621 10.1209 14.6747 10.127 14.6885C10.1331 14.7023 10.1363 14.7171 10.1363 14.7321V17.0135C10.1363 17.0437 10.1491 17.0726 10.172 17.0939C10.1948 17.1153 10.2258 17.1273 10.2581 17.1273H11.3197C11.3411 17.1273 11.3621 17.1326 11.3806 17.1427C11.3991 17.1527 11.4145 17.1671 11.4252 17.1844C11.4359 17.2017 11.4415 17.2213 11.4415 17.2413C11.4415 17.2612 11.4359 17.2809 11.4253 17.2982L9.17087 20.9431C9.16018 20.9604 9.14481 20.9748 9.12628 20.9848C9.10776 20.9947 9.08675 21 9.06536 21C9.04398 21 9.02296 20.9947 9.00444 20.9848C8.98592 20.9748 8.97055 20.9604 8.95986 20.9431L6.70548 17.2982C6.69481 17.2809 6.68921 17.2612 6.68922 17.2413C6.68923 17.2213 6.69486 17.2017 6.70554 17.1844C6.71622 17.1671 6.73158 17.1527 6.75009 17.1427C6.76859 17.1326 6.78959 17.1273 6.81098 17.1273H7.87301C7.90528 17.1272 7.9362 17.1151 7.95902 17.0938C7.98184 17.0725 7.9947 17.0437 7.9948 17.0135ZM13.9352 14.7321V17.0135C13.9351 17.0437 13.9223 17.0725 13.8994 17.0938C13.8766 17.1151 13.8457 17.1272 13.8134 17.1273H12.7514C12.73 17.1273 12.709 17.1326 12.6905 17.1427C12.672 17.1527 12.6566 17.1671 12.646 17.1844C12.6353 17.2017 12.6297 17.2213 12.6296 17.2413C12.6296 17.2612 12.6352 17.2809 12.6459 17.2982L14.9003 20.9431C14.911 20.9604 14.9264 20.9748 14.9449 20.9848C14.9634 20.9947 14.9844 21 15.0058 21C15.0272 21 15.0482 20.9947 15.0667 20.9848C15.0852 20.9748 15.1006 20.9604 15.1113 20.9431L17.3657 17.2982C17.3763 17.2809 17.3819 17.2612 17.3819 17.2413C17.3819 17.2213 17.3763 17.2017 17.3656 17.1844C17.3549 17.1671 17.3396 17.1527 17.3211 17.1427C17.3026 17.1326 17.2816 17.1273 17.2602 17.1273H16.1985C16.1662 17.1273 16.1353 17.1153 16.1124 17.0939C16.0896 17.0726 16.0767 17.0437 16.0767 17.0135V14.7321C16.0767 14.7171 16.0736 14.7023 16.0674 14.6885C16.0613 14.6747 16.0523 14.6621 16.0409 14.6515C16.0296 14.641 16.0161 14.6326 16.0013 14.6269C15.9865 14.6212 15.9706 14.6183 15.9546 14.6184H14.0574C14.0414 14.6183 14.0255 14.6212 14.0107 14.6269C13.9959 14.6326 13.9824 14.641 13.971 14.6515C13.9597 14.6621 13.9507 14.6747 13.9445 14.6885C13.9384 14.7023 13.9352 14.7171 13.9352 14.7321Z"/>
</svg>
