<?xml version="1.0" encoding="UTF-8"?>
<svg width="24px" height="24px" viewBox="0 0 24 24" version="1.1" xmlns="http://www.w3.org/2000/svg" xmlns:xlink="http://www.w3.org/1999/xlink">
    <title>icons/functional_UI/M-S/mdpi/ic_More_add</title>
    <g id="icons/functional_UI/M-S/ic_More_add" stroke="none" stroke-width="1" fill="none" fill-rule="evenodd">
        <path d="M12,1.79999996 C6.37989598,1.79999996 1.79999996,6.35999998 1.79999996,12 C1.79999996,17.64 6.37989598,22.2 12,22.2 C17.620104,22.2 22.2,17.64 22.2,12 C22.2,6.35999998 17.620056,1.79999996 12,1.79999996 Z M18.6,13.2 C18.6,13.5313709 18.3313709,13.8 18,13.8 L13.8,13.8 L13.8,18 C13.8,18.3313709 13.5313709,18.6 13.2,18.6 L10.8,18.6 C10.4686291,18.6 10.2,18.3313709 10.2,18 L10.2,13.8 L5.99999997,13.8 C5.66862912,13.8 5.39999997,13.5313709 5.39999997,13.2 L5.39999997,10.8 C5.39999997,10.4686291 5.66862912,10.2 5.99999997,10.2 L10.2,10.2 L10.2,5.99999997 C10.2,5.66862912 10.4686291,5.39999997 10.8,5.39999997 L13.2,5.39999997 C13.5313709,5.39999997 13.8,5.66862912 13.8,5.99999997 L13.8,10.2 L18,10.2 C18.3313709,10.2 18.6,10.4686291 18.6,10.8 L18.6,13.2 Z" fill="#000000"></path>
    </g>
</svg>