<?xml version="1.0" encoding="UTF-8"?>
<svg width="24px" height="24px" viewBox="0 0 24 24" version="1.1" xmlns="http://www.w3.org/2000/svg" xmlns:xlink="http://www.w3.org/1999/xlink">
    <title>icons/functional_UI/M-S/mdpi/ic_Mobile_messaging</title>
    <g id="icons/functional_UI/M-S/ic_Mobile_messaging" stroke="none" stroke-width="1" fill="none" fill-rule="evenodd">
        <path d="M16.801224,1.79999996 L7.19882398,1.79999996 C6.88071915,1.79999996 6.57570409,1.92666747 6.35088028,2.15171182 C6.12605647,2.37675618 5.99984081,2.68189513 5.99999982,2.99999996 L5.99999982,21 C5.99966852,21.662401 6.53637499,22.1996555 7.19877598,22.2 L16.801176,22.2 C17.1192809,22.2 17.4242959,22.0733325 17.6491197,21.8482882 C17.8739435,21.6232438 18.0001592,21.3181049 17.9999998,21 L17.9999998,2.99999996 C18.0003315,2.33759896 17.463625,1.8003445 16.801224,1.79999996 Z M11.1,2.39999996 L12.9,2.39999996 C13.0656854,2.39999996 13.2,2.53431454 13.2,2.69999996 C13.2,2.86568539 13.0656854,2.99999996 12.9,2.99999996 L11.1,2.99999996 C10.9343146,2.99999996 10.8,2.86568539 10.8,2.69999996 C10.8,2.53431454 10.9343146,2.39999996 11.1,2.39999996 Z M12,21.6 C11.6686291,21.6 11.4,21.3313709 11.4,21 C11.4,20.6686292 11.6686291,20.4 12,20.4 C12.3313709,20.4 12.6,20.6686292 12.6,21 C12.6,21.3313709 12.3313709,21.6 12,21.6 Z M16.8,19.8 L7.19999998,19.8 L7.19999998,3.59999996 L16.8,3.59999996 L16.8,19.8 Z M14.779464,8.97599999 L8.37599998,8.97599999 L8.37599998,13.58772 C8.37599998,14.02692 8.73203999,14.4 9.17131199,14.4 L15.576,14.4 L15.576,9.75237599 C15.576,9.31334399 15.218928,8.97599999 14.779464,8.97599999 Z M14.901,10.664136 L12.774816,12.709536 L12.77304,12.709536 C12.564672,12.916464 12.282168,13.023936 11.970888,13.023936 C11.659608,13.023936 11.377248,12.91644 11.168472,12.709536 L11.16288,12.709536 L9.05099999,10.6656 L9.05099999,9.88699199 C9.89668799,10.722624 11.43588,12.214728 11.43588,12.214728 L11.43636,12.214728 C11.574096,12.358728 11.76156,12.419832 11.96844,12.419832 C12.1795431,12.4220259 12.3816268,12.3343778 12.52428,12.178752 L12.525264,12.178752 L14.901,9.87599999 L14.901,10.66404 L14.901,10.664136 Z" fill="#000000"></path>
    </g>
</svg>