<?xml version="1.0" encoding="UTF-8"?>
<svg width="24px" height="24px" viewBox="0 0 24 24" version="1.1" xmlns="http://www.w3.org/2000/svg" xmlns:xlink="http://www.w3.org/1999/xlink">
    <title>icons/functional_UI/M-S/mdpi/ic_Modifier_new</title>
    <g id="icons/functional_UI/M-S/ic_Modifier_new" stroke="none" stroke-width="1" fill="none" fill-rule="evenodd">
        <path d="M12,4.17598136 C15.9889444,4.18275391 19.3244488,7.20963853 19.7172453,11.179202 C20.1100418,15.1487655 17.4324477,18.7706586 13.5221851,19.5590554 C9.6119225,20.3474522 5.74006418,18.0460758 4.56399559,14.2344376 C3.38792701,10.4227994 5.28994188,6.33991321 8.96462399,4.78799997 C9.9249395,4.38186994 10.9573389,4.17371503 12,4.17598136 L12,4.17598136 Z M12,1.77599996 C6.36669598,1.77599996 1.79999996,6.34267198 1.79999996,11.976 C1.79999996,17.609328 6.36669598,22.176 12,22.176 C17.633304,22.176 22.2,17.609304 22.2,11.976 C22.2,6.34269598 17.633304,1.77599996 12,1.77599996 L12,1.77599996 Z M17.081184,11.252016 L16.624152,9.94847999 C16.5835247,9.83164002 16.4973115,9.73623374 16.3851711,9.6840161 C16.2730307,9.63179845 16.1445234,9.62722117 16.028952,9.67132799 L13.167552,10.756656 L13.167552,7.67006398 C13.1668802,7.41066971 12.9568578,7.20050792 12.697464,7.19966398 L11.361312,7.19966398 C11.1018674,7.20044199 10.8917653,7.41061917 10.89108,7.67006398 L10.89108,10.756656 L8.11360798,9.67538399 C7.99883587,9.6300805 7.87053958,9.63361957 7.7584395,9.68518134 C7.64633942,9.73674312 7.5601625,9.83185358 7.51987198,9.94847999 L7.06276798,11.252016 C7.02175511,11.3692007 7.0293622,11.4979271 7.0838915,11.6094658 C7.1384208,11.7210044 7.23533336,11.8060709 7.35299998,11.84568 L10.208112,12.80568 L8.38581598,15.21888 C8.31100785,15.3178669 8.27905896,15.442737 8.29713376,15.5654887 C8.31520856,15.6882403 8.38179453,15.7986015 8.48195999,15.871824 L9.62930399,16.710936 C9.72855326,16.7842502 9.8534476,16.8138312 9.97503712,16.7928223 C10.0966266,16.7718134 10.2043538,16.7020389 10.273248,16.599672 L12.000984,14.057472 L13.832352,16.60668 C13.9046942,16.7074635 14.0144678,16.7749863 14.1370458,16.7940999 C14.2596239,16.8132135 14.3847439,16.7823178 14.484336,16.708344 L15.6072,15.874512 C15.7069063,15.8002759 15.7728927,15.689344 15.7905387,15.5662953 C15.8081846,15.4432466 15.7760332,15.3182411 15.701208,15.218976 L13.879032,12.805776 L16.790232,11.843376 C16.907995,11.8045999 17.0051975,11.7200616 17.0599316,11.6088146 C17.1146656,11.4975676 17.1223252,11.3689737 17.081184,11.252016 Z" fill="#000000"></path>
    </g>
</svg>