<?xml version="1.0" encoding="UTF-8"?>
<svg width="24px" height="24px" viewBox="0 0 24 24" version="1.1" xmlns="http://www.w3.org/2000/svg" xmlns:xlink="http://www.w3.org/1999/xlink">
    <title>icons/functional_UI/M-S/mdpi/ic_Mobile_Applications</title>
    <g id="icons/functional_UI/M-S/ic_Mobile_Applications" stroke="none" stroke-width="1" fill="none" fill-rule="evenodd">
        <path d="M16.822776,1.79999985 L7.20117598,1.79999985 C6.53813966,1.79974804 6.00039751,2.33696371 5.99999998,2.99999996 L5.99999998,21 C6.00039751,21.6630457 6.53815429,22.2002652 7.20119998,22.2000001 L16.8228,22.2000001 C17.4858457,22.2002652 18.0236025,21.6630457 18.024,21 L18.024,2.99999996 C18.0236025,2.33694496 17.4858311,1.79972152 16.822776,1.79999985 Z M11.117112,2.39999996 L12.918912,2.39999996 C13.0845974,2.39999996 13.218912,2.53431454 13.218912,2.69999996 C13.218912,2.86568539 13.0845974,2.99999996 12.918912,2.99999996 L11.117112,2.99999996 C10.9514266,2.99999996 10.817112,2.86568539 10.817112,2.69999996 C10.817112,2.53431454 10.9514266,2.39999996 11.117112,2.39999996 Z M12.018,21.6000002 C11.6867075,21.5996687 11.4183793,21.3308931 11.4186,20.9996004 C11.4188209,20.6683078 11.6875071,20.39989 12.0187998,20.4000003 C12.3500925,20.4001107 12.6186,20.6687073 12.6186,21 C12.6185427,21.1592163 12.5552279,21.3118864 12.4425887,21.424413 C12.3299495,21.5369397 12.1772163,21.6001019 12.018,21.6000002 L12.018,21.6000002 Z M16.8228,19.8 L7.21319998,19.8 L7.21319998,3.59999997 L16.8228,3.59999997 L16.8228,19.8 Z M10.096104,6.35999998 L10.096104,7.07999998 C10.0960467,7.23921629 10.0327319,7.3918863 9.92009268,7.50441296 C9.80745349,7.61693962 9.65472027,7.68010185 9.49550399,7.68000011 L8.77478399,7.68000011 C8.6155677,7.68010185 8.46283448,7.61693962 8.3501953,7.50441296 C8.23755611,7.3918863 8.17424125,7.23921629 8.17418398,7.07999998 L8.17418398,6.35999998 C8.17424125,6.20078367 8.23755611,6.04811366 8.3501953,5.935587 C8.46283448,5.82306034 8.6155677,5.7598981 8.77478399,5.75999985 L9.49550399,5.75999985 C9.65472027,5.7598981 9.80745349,5.82306034 9.92009268,5.935587 C10.0327319,6.04811366 10.0960467,6.20078367 10.096104,6.35999998 L10.096104,6.35999998 Z M12.97896,6.35999998 L12.97896,7.07999998 C12.9789027,7.23921629 12.9155879,7.3918863 12.8029487,7.50441296 C12.6903095,7.61693962 12.5375763,7.68010185 12.37836,7.68000011 L11.65764,7.68000011 C11.4984237,7.68010185 11.3456905,7.61693962 11.2330513,7.50441296 C11.1204121,7.3918863 11.0570973,7.23921629 11.05704,7.07999998 L11.05704,6.35999998 C11.0570973,6.20078367 11.1204121,6.04811366 11.2330513,5.935587 C11.3456905,5.82306034 11.4984237,5.7598981 11.65764,5.75999985 L12.37836,5.75999985 C12.5375763,5.7598981 12.6903095,5.82306034 12.8029487,5.935587 C12.9155879,6.04811366 12.9789027,6.20078367 12.97896,6.35999998 Z M15.861816,6.35999998 L15.861816,7.07999998 C15.8617651,7.23921408 15.7984556,7.39188415 15.6858202,7.5044115 C15.5731848,7.61693885 15.4204541,7.68010185 15.26124,7.68000011 L14.54052,7.68000011 C14.3813037,7.68010185 14.2285705,7.61693962 14.1159313,7.50441296 C14.0032921,7.3918863 13.9399773,7.23921629 13.93992,7.07999998 L13.93992,6.35999998 C13.9399773,6.20078367 14.0032921,6.04811366 14.1159313,5.935587 C14.2285705,5.82306034 14.3813037,5.7598981 14.54052,5.75999985 L15.26124,5.75999985 C15.4204541,5.7598981 15.5731848,5.8230611 15.6858202,5.93558845 C15.7984556,6.0481158 15.8617651,6.20078588 15.861816,6.35999998 Z M10.096104,9.59999999 L10.096104,10.32 C10.0960467,10.4792163 10.0327319,10.6318863 9.92009268,10.744413 C9.80745349,10.8569396 9.65472027,10.9201019 9.49550399,10.9200001 L8.77478399,10.9200001 C8.6155677,10.9201019 8.46283448,10.8569396 8.3501953,10.744413 C8.23755611,10.6318863 8.17424125,10.4792163 8.17418398,10.32 L8.17418398,9.59999999 C8.17424125,9.44078368 8.23755611,9.28811367 8.3501953,9.17558701 C8.46283448,9.06306035 8.6155677,8.99989812 8.77478399,8.99999986 L9.49550399,8.99999986 C9.65472027,8.99989812 9.80745349,9.06306035 9.92009268,9.17558701 C10.0327319,9.28811367 10.0960467,9.44078368 10.096104,9.59999999 L10.096104,9.59999999 Z M12.97896,9.59999999 L12.97896,10.32 C12.9789027,10.4792163 12.9155879,10.6318863 12.8029487,10.744413 C12.6903095,10.8569396 12.5375763,10.9201019 12.37836,10.9200001 L11.65764,10.9200001 C11.4984237,10.9201019 11.3456905,10.8569396 11.2330513,10.744413 C11.1204121,10.6318863 11.0570973,10.4792163 11.05704,10.32 L11.05704,9.59999999 C11.0570973,9.44078368 11.1204121,9.28811367 11.2330513,9.17558701 C11.3456905,9.06306035 11.4984237,8.99989812 11.65764,8.99999986 L12.37836,8.99999986 C12.5375763,8.99989812 12.6903095,9.06306035 12.8029487,9.17558701 C12.9155879,9.28811367 12.9789027,9.44078368 12.97896,9.59999999 Z M15.861816,9.59999999 L15.861816,10.32 C15.8617651,10.4792141 15.7984556,10.6318842 15.6858202,10.7444115 C15.5731848,10.8569389 15.4204541,10.9201019 15.26124,10.9200001 L14.54052,10.9200001 C14.3813037,10.9201019 14.2285705,10.8569396 14.1159313,10.744413 C14.0032921,10.6318863 13.9399773,10.4792163 13.93992,10.32 L13.93992,9.59999999 C13.9399773,9.44078368 14.0032921,9.28811367 14.1159313,9.17558701 C14.2285705,9.06306035 14.3813037,8.99989812 14.54052,8.99999986 L15.26124,8.99999986 C15.4204541,8.99989811 15.5731848,9.06306112 15.6858202,9.17558847 C15.7984556,9.28811582 15.8617651,9.44078589 15.861816,9.59999999 Z M10.096104,12.84 L10.096104,13.56 C10.0960467,13.7192163 10.0327319,13.8718863 9.92009268,13.984413 C9.80745349,14.0969396 9.65472027,14.1601019 9.49550399,14.1600001 L8.77478399,14.1600001 C8.6155677,14.1601019 8.46283448,14.0969396 8.3501953,13.984413 C8.23755611,13.8718863 8.17424125,13.7192163 8.17418398,13.56 L8.17418398,12.84 C8.17424125,12.6807837 8.23755611,12.5281137 8.3501953,12.415587 C8.46283448,12.3030604 8.6155677,12.2398981 8.77478399,12.2399999 L9.49550399,12.2399999 C9.65472027,12.2398981 9.80745349,12.3030604 9.92009268,12.415587 C10.0327319,12.5281137 10.0960467,12.6807837 10.096104,12.84 L10.096104,12.84 Z M12.97896,12.84 L12.97896,13.56 C12.9789027,13.7192163 12.9155879,13.8718863 12.8029487,13.984413 C12.6903095,14.0969396 12.5375763,14.1601019 12.37836,14.1600001 L11.65764,14.1600001 C11.4984237,14.1601019 11.3456905,14.0969396 11.2330513,13.984413 C11.1204121,13.8718863 11.0570973,13.7192163 11.05704,13.56 L11.05704,12.84 C11.0570973,12.6807837 11.1204121,12.5281137 11.2330513,12.415587 C11.3456905,12.3030604 11.4984237,12.2398981 11.65764,12.2399999 L12.37836,12.2399999 C12.5375763,12.2398981 12.6903095,12.3030604 12.8029487,12.415587 C12.9155879,12.5281137 12.9789027,12.6807837 12.97896,12.84 Z M15.861816,12.84 L15.861816,13.56 C15.8617651,13.7192141 15.7984556,13.8718842 15.6858202,13.9844115 C15.5731848,14.0969389 15.4204541,14.1601019 15.26124,14.1600001 L14.54052,14.1600001 C14.3813037,14.1601019 14.2285705,14.0969396 14.1159313,13.984413 C14.0032921,13.8718863 13.9399773,13.7192163 13.93992,13.56 L13.93992,12.84 C13.9399773,12.6807837 14.0032921,12.5281137 14.1159313,12.415587 C14.2285705,12.3030604 14.3813037,12.2398981 14.54052,12.2399999 L15.26124,12.2399999 C15.4204541,12.2398981 15.5731848,12.3030611 15.6858202,12.4155885 C15.7984556,12.5281158 15.8617651,12.6807859 15.861816,12.84 Z M10.096104,16.08 L10.096104,16.8 C10.0960467,16.9592163 10.0327319,17.1118863 9.92009268,17.224413 C9.80745349,17.3369397 9.65472027,17.4001019 9.49550399,17.4000001 L8.77478399,17.4000001 C8.6155677,17.4001019 8.46283448,17.3369397 8.3501953,17.224413 C8.23755611,17.1118863 8.17424125,16.9592163 8.17418398,16.8 L8.17418398,16.08 C8.17424125,15.9207837 8.23755611,15.7681137 8.3501953,15.655587 C8.46283448,15.5430604 8.6155677,15.4798981 8.77478399,15.4799999 L9.49550399,15.4799999 C9.65472027,15.4798981 9.80745349,15.5430604 9.92009268,15.655587 C10.0327319,15.7681137 10.0960467,15.9207837 10.096104,16.08 L10.096104,16.08 Z M12.97896,16.08 L12.97896,16.8 C12.9789027,16.9592163 12.9155879,17.1118863 12.8029487,17.224413 C12.6903095,17.3369397 12.5375763,17.4001019 12.37836,17.4000001 L11.65764,17.4000001 C11.4984237,17.4001019 11.3456905,17.3369397 11.2330513,17.224413 C11.1204121,17.1118863 11.0570973,16.9592163 11.05704,16.8 L11.05704,16.08 C11.0570973,15.9207837 11.1204121,15.7681137 11.2330513,15.655587 C11.3456905,15.5430604 11.4984237,15.4798981 11.65764,15.4799999 L12.37836,15.4799999 C12.5375763,15.4798981 12.6903095,15.5430604 12.8029487,15.655587 C12.9155879,15.7681137 12.9789027,15.9207837 12.97896,16.08 L12.97896,16.08 Z M15.861816,16.08 L15.861816,16.8 C15.8617651,16.9592141 15.7984556,17.1118842 15.6858202,17.2244115 C15.5731848,17.3369389 15.4204541,17.4001019 15.26124,17.4000001 L14.54052,17.4000001 C14.3813037,17.4001019 14.2285705,17.3369397 14.1159313,17.224413 C14.0032921,17.1118863 13.9399773,16.9592163 13.93992,16.8 L13.93992,16.08 C13.9399773,15.9207837 14.0032921,15.7681137 14.1159313,15.655587 C14.2285705,15.5430604 14.3813037,15.4798981 14.54052,15.4799999 L15.26124,15.4799999 C15.4204541,15.4798981 15.5731848,15.5430611 15.6858202,15.6555885 C15.7984556,15.7681158 15.8617651,15.9207859 15.861816,16.08 Z" fill="#000000"></path>
    </g>
</svg>