<?xml version="1.0" encoding="UTF-8"?>
<svg width="24px" height="24px" viewBox="0 0 24 24" version="1.1" xmlns="http://www.w3.org/2000/svg" xmlns:xlink="http://www.w3.org/1999/xlink">
    <title>icons/functional_UI/M-S/mdpi/ic_Modifier_favorite</title>
    <g id="icons/functional_UI/M-S/ic_Modifier_favorite" stroke="none" stroke-width="1" fill="none" fill-rule="evenodd">
        <path d="M12,1.79999996 C6.36669598,1.79999996 1.79999996,6.36669598 1.79999996,12 C1.79999996,17.633304 6.36669598,22.2 12,22.2 C17.633304,22.2 22.2,17.633304 22.2,12 C22.2,6.36669598 17.633304,1.79999996 12,1.79999996 Z M12,19.8 C7.69216798,19.8 4.19999997,16.307808 4.19999997,12 C4.19999997,7.69219198 7.69216798,4.19999997 12,4.19999997 C16.307832,4.19999997 19.8,7.69216798 19.8,12 C19.8,16.307832 16.307808,19.8 12,19.8 Z M6.62399998,10.792944 L9.48283199,13.334112 L8.52988799,17.145888 L12.024,15.24 L15.518112,17.145888 L14.565168,13.334112 L17.424,10.792944 L13.612224,10.15764 L12.024,6.85411198 L10.435776,10.15764 L6.62399998,10.792944 Z" fill="#000000"></path>
    </g>
</svg>