<?xml version="1.0" encoding="UTF-8"?>
<svg width="24px" height="24px" viewBox="0 0 24 24" version="1.1" xmlns="http://www.w3.org/2000/svg" xmlns:xlink="http://www.w3.org/1999/xlink">
    <title>icons/functional_UI/M-S/mdpi/ic_Music_Favourite</title>
    <g id="icons/functional_UI/M-S/ic_Music_Favourite" stroke="none" stroke-width="1" fill="none" fill-rule="evenodd">
        <path d="M17.1192,13.739784 C18.606976,12.416168 20.095168,11.09304 21.583776,9.77039999 C21.785952,9.59068799 21.987456,9.41020799 22.200912,9.21971999 C22.151208,9.20649599 22.121544,9.19591199 22.090944,9.19091999 C21.012224,9.01179999 19.933456,8.83295999 18.85464,8.65439999 C17.61464,8.44828799 16.37464,8.24192798 15.13464,8.03531998 C15.049872,8.02130398 14.99784,7.98856798 14.957616,7.90471198 C14.001024,5.90755997 13.042128,3.91151197 12.080928,1.91656796 C12.061368,1.87576796 12.03972,1.83619196 12.011328,1.78108796 C11.981064,1.84000796 11.960424,1.87799996 11.941728,1.91690396 C10.982016,3.91256797 10.022848,5.90848797 9.06422399,7.90466398 C9.03062399,7.97476798 8.99416799,8.02022398 8.91170399,8.03236798 C8.65509599,8.07014398 8.39939998,8.11427998 8.14348798,8.15683198 C7.21049598,8.31187198 6.27750398,8.46714399 5.34451197,8.62264799 C4.40371197,8.77944799 3.46291196,8.93629599 2.52211196,9.09319199 C2.29497596,9.13111199 2.06800796,9.17023199 1.84096796,9.20879999 L1.82308796,9.23999999 C1.85629266,9.26112915 1.88833879,9.28402611 1.91908796,9.30859199 C2.16775996,9.52838399 2.41589596,9.74879199 2.66349596,9.96981599 C4.14880797,11.290152 5.63465597,12.609888 7.12103998,13.929024 C7.19051998,13.990608 7.20743998,14.042832 7.18504798,14.132088 C6.59239198,16.491288 6.00145598,18.850904 5.41223997,21.210936 L5.43623997,21.210936 C5.50696797,21.168336 5.57623197,21.123096 5.64866397,21.083568 C7.73200798,19.946528 9.81520799,18.809176 11.898264,17.671512 C11.981232,17.626128 12.04152,17.625912 12.124584,17.671512 C14.245528,18.831304 16.367408,19.989416 18.490224,21.145848 C18.524112,21.164304 18.554544,21.189048 18.586584,21.210936 L18.610584,21.210936 C18.044424,18.947768 17.478312,16.684568 16.912248,14.421336 C16.879416,14.289936 16.796256,14.14164 16.83108,14.030928 C16.867488,13.915032 17.015472,13.832064 17.1192,13.739784 Z M14.671488,13.881384 C14.67036,14.422128 14.296296,14.8506 13.770504,14.926392 C13.254,15.000792 12.761112,14.647776 12.635616,14.113464 C12.497328,13.524552 12.869112,12.936336 13.459824,12.820176 C13.571952,12.79812 13.69008,12.806592 13.81716,12.8004 L13.81716,10.89456 L10.9344,11.683632 L10.9344,11.835432 C10.9344,12.923016 10.9326,14.010648 10.93524,15.098232 C10.936296,15.537432 10.773864,15.886248 10.384416,16.10448 C9.77642399,16.44528 8.99344799,16.055472 8.88623999,15.365064 C8.79311999,14.76528 9.13725599,14.234664 9.70324799,14.118624 C9.82269599,14.094096 9.94869599,14.101584 10.091808,14.093136 L10.091808,13.962024 C10.091808,12.818448 10.09308,11.674824 10.089648,10.53132 C10.089336,10.431648 10.1148,10.386888 10.216272,10.359696 C11.417784,10.038096 12.617808,9.71075999 13.818456,9.38579999 C14.223144,9.27623999 14.563248,9.46075199 14.655792,9.84069599 C14.6680874,9.89927161 14.6734363,9.95909223 14.671728,10.01892 C14.672576,11.306424 14.672504,12.593984 14.671512,13.8816 L14.671488,13.881384 Z" fill="#000000"></path>
    </g>
</svg>