<?xml version="1.0" encoding="UTF-8"?>
<svg width="24px" height="24px" viewBox="0 0 24 24" version="1.1" xmlns="http://www.w3.org/2000/svg" xmlns:xlink="http://www.w3.org/1999/xlink">
    <title>icons/functional_UI/M-S/mdpi/ic_Modifier_delete</title>
    <g id="icons/functional_UI/M-S/ic_Modifier_delete" stroke="none" stroke-width="1" fill="none" fill-rule="evenodd">
        <path d="M16.330656,14.221032 L14.1216,12.012 L16.327632,9.80596799 C16.4717096,9.66190224 16.5526525,9.46650007 16.5526525,9.26275199 C16.5526525,9.05900391 16.4717096,8.86360174 16.327632,8.71953599 L15.30444,7.69634398 C15.1603743,7.55226644 14.9649721,7.47132353 14.761224,7.47132353 C14.5574759,7.47132353 14.3620738,7.55226644 14.218008,7.69634398 L12.012,9.90239999 L9.81796799,7.70836798 C9.67390224,7.56429044 9.47850007,7.48334753 9.27475199,7.48334753 C9.07100391,7.48334753 8.87560174,7.56429044 8.73153599,7.70836798 L7.70834398,8.73155999 C7.56426644,8.87562574 7.48332353,9.07102791 7.48332353,9.27477599 C7.48332353,9.47852407 7.56426644,9.67392624 7.70834398,9.81799199 L9.90239999,12.012 L7.69036798,14.224032 C7.54629044,14.3680978 7.46534753,14.5634999 7.46534753,14.767248 C7.46534753,14.9709961 7.54629044,15.1663983 7.69036798,15.310464 L8.71355999,16.333656 C8.85762574,16.4777336 9.05302791,16.5586765 9.25677599,16.5586765 C9.46052407,16.5586765 9.65592624,16.4777336 9.79999199,16.333656 L12.012,14.1216 L14.221032,16.330632 C14.3650978,16.4747096 14.5604999,16.5556525 14.764248,16.5556525 C14.9679961,16.5556525 15.1633983,16.4747096 15.307464,16.330632 L16.330656,15.30744 C16.4747262,15.1633752 16.5556645,14.9679782 16.5556645,14.764236 C16.5556645,14.5604938 16.4747262,14.3650968 16.330656,14.221032 L16.330656,14.221032 Z M19.2246,4.79939997 C15.2412,0.815999953 8.78279999,0.815999953 4.79939997,4.79939997 C0.815999953,8.78279999 0.815999953,15.2412 4.79939997,19.2246 C8.78279999,23.208 15.2412,23.208 19.2246,19.2246 C23.208,15.2412 23.208,8.78279999 19.2246,4.79939997 Z M17.527512,17.527512 C14.481432,20.573616 9.54256799,20.573616 6.49648798,17.527512 C3.45040796,14.481408 3.45038396,9.54256799 6.49648798,6.49648798 C9.54259199,3.45040796 14.481432,3.45038396 17.527512,6.49648798 C20.573592,9.54259199 20.573616,14.481432 17.527512,17.527512 Z" fill="#000000"></path>
    </g>
</svg>