<?xml version="1.0" encoding="UTF-8"?>
<svg width="24px" height="24px" viewBox="0 0 24 24" version="1.1" xmlns="http://www.w3.org/2000/svg" xmlns:xlink="http://www.w3.org/1999/xlink">
    <title>icons/functional_UI/M-S/mdpi/ic_Music_player</title>
    <g id="icons/functional_UI/M-S/ic_Music_player" stroke="none" stroke-width="1" fill="none" fill-rule="evenodd">
        <path d="M22.1568,10.46436 L17.11548,5.43578397 C13.47468,1.80407996 7.57154398,1.80407996 3.93067197,5.43578397 C0.289799951,9.06748799 0.289871951,14.955696 3.93067197,18.587472 C7.57147198,22.219248 13.474608,22.219176 17.11548,18.587472 L22.1568,13.558872 C22.5681364,13.1490343 22.7993492,12.5922748 22.7993492,12.011616 C22.7993492,11.4309572 22.5681364,10.8741977 22.1568,10.46436 Z M17.399448,15.311496 L17.399448,8.71175999 L20.999304,12.01176 L17.399448,15.311496 Z M14.99952,13.564656 C14.99952,14.510256 14.225184,15.277176 13.269048,15.277176 C12.313536,15.277176 11.538888,14.510256 11.538888,13.564656 C11.538888,12.618264 12.313536,11.851224 13.269048,11.851224 C13.3691616,11.8518047 13.4690639,11.8604891 13.567776,11.877192 L13.567776,8.79295199 L8.74079999,10.059936 L8.74079999,15.638832 C8.74079999,16.584768 7.96588798,17.3514 7.01039998,17.3514 C6.05491198,17.3514 5.27980797,16.584768 5.27980797,15.638832 C5.27980797,14.692536 6.05500798,13.926048 7.01039998,13.926048 C7.11795999,13.9259479 7.22530086,13.9357492 7.33106398,13.955328 L7.33106398,7.99423198 L7.33516798,7.99423198 L13.666368,6.34886398 C13.666368,6.34886398 13.850664,6.3118423 13.947504,6.3118423 C14.5255288,6.30893238 14.9965056,6.7750957 14.99952,7.35311998 L14.99952,13.564656 L14.99952,13.564656 Z" fill="#000000"></path>
    </g>
</svg>