<?xml version="1.0" encoding="UTF-8"?>
<svg width="24px" height="24px" viewBox="0 0 24 24" version="1.1" xmlns="http://www.w3.org/2000/svg" xmlns:xlink="http://www.w3.org/1999/xlink">
    <title>icons/functional_UI/M-S/mdpi/ic_Movie</title>
    <g id="icons/functional_UI/M-S/ic_Movie" stroke="none" stroke-width="1" fill="none" fill-rule="evenodd">
        <path d="M5.72764797,10.2 L16.311648,7.36401598 L17.977248,6.91761598 L18.556752,6.76231198 L20.802096,6.16079998 L20.875128,6.14121598 L20.719824,5.56168797 C20.3767669,4.28137203 19.0607652,3.5215716 17.780448,3.86462397 L2.71199996,7.90223998 L3.32767196,10.2 L3.31199996,10.2 L3.31199996,18.6 C3.31199996,19.9254834 4.38651657,21 5.71199996,21 L21.312,21 L21.312,10.2 L5.72764797,10.2 Z M18.515304,4.28894397 L20.140296,5.71694397 L17.822064,6.33811198 L16.197048,4.91011197 L18.515304,4.28894397 Z M13.87884,5.53127997 L15.503832,6.95927998 L13.1856,7.58051998 L11.560632,6.15251998 L13.87884,5.53127997 Z M9.24239999,6.77359198 L10.867392,8.20159198 L8.54918399,8.82275999 L6.92419198,7.39475998 L9.24239999,6.77359198 Z M4.60593597,8.01599998 L6.23095198,9.44399999 L3.91271997,10.065192 L3.44685596,8.32651198 L4.60593597,8.01599998 Z M5.11199997,12.6 L3.91199997,12.6 L3.91199997,10.8 L6.31199998,10.8 L5.11199997,12.6 Z M7.51199998,12.6 L8.71199999,10.8 L11.112,10.8 L9.91199999,12.6 L7.51199998,12.6 Z M14.712,12.6 L12.312,12.6 L13.512,10.8 L15.912,10.8 L14.712,12.6 Z M19.512,12.6 L17.112,12.6 L18.312,10.8 L20.712,10.8 L19.512,12.6 Z" fill="#000000"></path>
    </g>
</svg>