<svg width="24" height="24">
<path fill-rule="evenodd" clip-rule="evenodd" d="M20.8889 12C20.8889 16.9092 16.9092 20.8889 12 20.8889C7.0908 20.8889 3.11111 16.9092 3.11111 12C3.11111 7.0908 7.0908 3.11111 12 3.11111C14.5692 3.11111 16.8839 4.20113 18.5067 5.94394C18.0772 6.04928 17.4037 6.31976 16.2756 6.98729C15.4427 7.47977 14.7416 7.96509 14.6601 8.02155L14.6532 8.02631C14.6214 8.04818 14.5917 8.07286 14.5643 8.10005C14.2817 8.37783 13.9404 8.58882 13.5656 8.71757L11.519 9.39718C11.334 9.45838 11.1357 9.57341 10.9602 9.71864L10.5396 9.56836C10.4224 9.52586 10.2987 9.50393 10.174 9.50354L10.1732 9.50509C9.99928 9.50928 9.82875 9.55444 9.67553 9.63692C9.5223 9.7194 9.3907 9.83687 9.29141 9.97977C9.25304 10.0373 9.22818 10.1027 9.21869 10.1712C9.21792 10.1768 9.21725 10.1824 9.21668 10.188L6.63016 9.23184L6.62318 9.22912C6.48113 9.17793 6.33131 9.15167 6.18032 9.15149C5.97254 9.15165 5.76815 9.20425 5.5861 9.30442C5.42879 9.38458 5.28992 9.49668 5.17838 9.63355C5.06684 9.77042 4.98508 9.92905 4.93831 10.0993C4.93482 10.1121 4.93133 10.1253 4.92822 10.1381C4.85694 10.4454 4.90046 10.7681 5.05058 11.0454C5.20071 11.3228 5.44708 11.5357 5.74329 11.6441L11.573 13.7881C11.9561 13.9286 12.3611 14.0003 12.7692 14C13.1238 14.0004 13.4762 13.9458 13.814 13.8381C14.0655 13.7861 15.5094 13.4846 17.0017 13.1189C17.9686 12.8818 18.7693 12.6641 19.381 12.4715C20.2923 12.1847 20.6784 11.9875 20.8872 11.8265C20.8883 11.8842 20.8889 11.942 20.8889 12ZM20.8184 10.8748C20.7305 11.0006 20.6321 11.1193 20.5236 11.2295C19.8801 11.889 13.6386 13.1667 13.6386 13.1667C13.3586 13.2596 13.0654 13.3068 12.7704 13.3064C12.4433 13.3065 12.1188 13.2491 11.8117 13.1368L5.98005 10.992C5.84179 10.9404 5.72693 10.8404 5.65677 10.7106C5.58661 10.5808 5.56591 10.4299 5.59852 10.286C5.61897 10.2042 5.65708 10.1279 5.71019 10.0625C5.7633 9.99704 5.83011 9.94403 5.90592 9.90718C5.98912 9.8584 6.08387 9.8328 6.18032 9.83305C6.25242 9.83369 6.32385 9.84682 6.39147 9.87186L10.6865 11.4632C10.8287 11.6493 11.0118 11.8001 11.2217 11.9041C11.4315 12.0081 11.6625 12.0624 11.8967 12.0628C12.03 12.0628 12.1628 12.0451 12.2914 12.0101L18.097 10.4424C18.2252 10.4075 18.3346 10.3237 18.4017 10.2091C18.4688 10.0944 18.4884 9.95803 18.4561 9.82917C18.4328 9.75154 18.399 9.72127 18.3563 9.72127C18.3055 9.72127 18.2419 9.7619 18.1677 9.80928C18.0939 9.85647 18.0095 9.91034 17.9169 9.93745L11.9204 11.2629C11.8924 11.2696 11.8637 11.2728 11.835 11.2726C11.566 11.2726 11.1852 11.0223 11.1068 10.796C11.0164 10.522 11.4612 10.1385 11.7352 10.0485L13.7842 9.36768C14.2581 9.20605 14.6895 8.93966 15.0463 8.58832C15.0463 8.58832 17.9445 6.56617 18.9847 6.56617C19.002 6.56601 19.0193 6.56659 19.0365 6.56792C19.9815 7.79021 20.6151 9.26547 20.8184 10.8748ZM22 12C22 17.5228 17.5228 22 12 22C6.47715 22 2 17.5228 2 12C2 6.47715 6.47715 2 12 2C17.5228 2 22 6.47715 22 12ZM9.67216 10.2352L10.4272 10.5173C10.463 10.3513 10.5386 10.2047 10.6206 10.0851L10.3848 10.0007C10.317 9.97573 10.2455 9.9626 10.1732 9.96192V9.96347C10.0745 9.96764 9.97811 9.99428 9.89128 10.0414C9.80444 10.0884 9.7295 10.1547 9.67216 10.2352ZM9.09891 15.0891V16.8766C9.09882 16.9002 9.088 16.9228 9.06879 16.9395C9.04958 16.9562 9.02356 16.9656 8.9964 16.9657H8.10249C8.08448 16.9658 8.06681 16.9699 8.05123 16.9778C8.03566 16.9856 8.02273 16.9969 8.01374 17.0105C8.00475 17.024 8.00001 17.0394 8 17.055C7.99999 17.0707 8.00471 17.0861 8.01369 17.0996L9.9112 19.9554C9.92019 19.969 9.93313 19.9802 9.94872 19.9881C9.96431 19.9959 9.982 20 10 20C10.018 20 10.0357 19.9959 10.0513 19.9881C10.0669 19.9802 10.0798 19.969 10.0888 19.9554L11.9863 17.0996C11.9953 17.0861 12 17.0707 12 17.055C12 17.0394 11.9953 17.024 11.9863 17.0105C11.9773 16.9969 11.9643 16.9856 11.9488 16.9778C11.9332 16.9699 11.9155 16.9658 11.8975 16.9657H11.0039C10.9767 16.9657 10.9507 16.9563 10.9314 16.9396C10.9122 16.9229 10.9014 16.9002 10.9014 16.8766V15.0891C10.9014 15.0774 10.8988 15.0658 10.8936 15.0549C10.8884 15.0441 10.8808 15.0343 10.8713 15.026C10.8617 15.0177 10.8504 15.0112 10.8379 15.0067C10.8254 15.0022 10.8121 15 10.7986 15H9.20175C9.18826 15 9.1749 15.0022 9.16242 15.0067C9.14995 15.0112 9.13861 15.0177 9.12905 15.026C9.1195 15.0343 9.11192 15.0441 9.10675 15.0549C9.10157 15.0658 9.09891 15.0774 9.09891 15.0891ZM14.0989 16.8766V15.0891C14.0989 15.0774 14.1016 15.0658 14.1067 15.0549C14.1119 15.0441 14.1195 15.0343 14.1291 15.026C14.1386 15.0177 14.1499 15.0112 14.1624 15.0067C14.1749 15.0022 14.1883 15 14.2018 15H15.7986C15.8121 15 15.8254 15.0022 15.8379 15.0067C15.8504 15.0112 15.8617 15.0177 15.8713 15.026C15.8808 15.0343 15.8884 15.0441 15.8936 15.0549C15.8988 15.0658 15.9014 15.0774 15.9014 15.0891V16.8766C15.9014 16.9002 15.9122 16.9229 15.9314 16.9396C15.9507 16.9563 15.9767 16.9657 16.0039 16.9657H16.8975C16.9155 16.9658 16.9332 16.9699 16.9488 16.9778C16.9643 16.9856 16.9773 16.9969 16.9863 17.0105C16.9953 17.024 17 17.0394 17 17.055C17 17.0707 16.9953 17.0861 16.9863 17.0996L15.0888 19.9554C15.0798 19.969 15.0669 19.9802 15.0513 19.9881C15.0357 19.9959 15.018 20 15 20C14.982 20 14.9643 19.9959 14.9487 19.9881C14.9331 19.9802 14.9202 19.969 14.9112 19.9554L13.0137 17.0996C13.0047 17.0861 13 17.0707 13 17.055C13 17.0394 13.0047 17.024 13.0137 17.0105C13.0227 16.9969 13.0357 16.9856 13.0512 16.9778C13.0668 16.9699 13.0845 16.9658 13.1025 16.9657H13.9964C14.0236 16.9656 14.0496 16.9562 14.0688 16.9395C14.088 16.9228 14.0988 16.9002 14.0989 16.8766Z"/>
</svg>
