<?xml version="1.0" encoding="UTF-8"?>
<svg width="24px" height="24px" viewBox="0 0 24 24" version="1.1" xmlns="http://www.w3.org/2000/svg" xmlns:xlink="http://www.w3.org/1999/xlink">
    <title>icons/functional_UI/E-M/mdpi/ic_Menu_grid</title>
    <g id="icons/functional_UI/E-M/ic_Menu_grid" stroke="none" stroke-width="1" fill="none" fill-rule="evenodd">
        <path d="M7.19999998,7.79999998 L3.59999996,7.79999998 C3.26862911,7.79999998 2.99999996,7.53137083 2.99999996,7.19999998 L2.99999996,3.59999996 C2.99999996,3.26862911 3.26862911,2.99999996 3.59999996,2.99999996 L7.19999998,2.99999996 C7.53137083,2.99999996 7.79999998,3.26862911 7.79999998,3.59999996 L7.79999998,7.19999998 C7.79999998,7.53137083 7.53137083,7.79999998 7.19999998,7.79999998 Z M13.8,7.79999998 L10.2,7.79999998 C9.86862914,7.79999998 9.59999999,7.53137083 9.59999999,7.19999998 L9.59999999,3.59999996 C9.59999999,3.26862911 9.86862914,2.99999996 10.2,2.99999996 L13.8,2.99999996 C14.1313709,2.99999996 14.4,3.26862911 14.4,3.59999996 L14.4,7.19999998 C14.4,7.53137083 14.1313709,7.79999998 13.8,7.79999998 Z M20.4,7.79999998 L16.8,7.79999998 C16.4686292,7.79999998 16.2,7.53137083 16.2,7.19999998 L16.2,3.59999996 C16.2,3.26862911 16.4686292,2.99999996 16.8,2.99999996 L20.4,2.99999996 C20.7313709,2.99999996 21,3.26862911 21,3.59999996 L21,7.19999998 C21,7.53137083 20.7313709,7.79999998 20.4,7.79999998 Z M7.19999998,14.4 L3.59999996,14.4 C3.26862911,14.4 2.99999996,14.1313709 2.99999996,13.8 L2.99999996,10.2 C2.99999996,9.86862914 3.26862911,9.59999999 3.59999996,9.59999999 L7.19999998,9.59999999 C7.53137083,9.59999999 7.79999998,9.86862914 7.79999998,10.2 L7.79999998,13.8 C7.79999998,14.1313709 7.53137083,14.4 7.19999998,14.4 Z M13.8,14.4 L10.2,14.4 C9.86862914,14.4 9.59999999,14.1313709 9.59999999,13.8 L9.59999999,10.2 C9.59999999,9.86862914 9.86862914,9.59999999 10.2,9.59999999 L13.8,9.59999999 C14.1313709,9.59999999 14.4,9.86862914 14.4,10.2 L14.4,13.8 C14.4,14.1313709 14.1313709,14.4 13.8,14.4 Z M20.4,14.4 L16.8,14.4 C16.4686292,14.4 16.2,14.1313709 16.2,13.8 L16.2,10.2 C16.2,9.86862914 16.4686292,9.59999999 16.8,9.59999999 L20.4,9.59999999 C20.7313709,9.59999999 21,9.86862914 21,10.2 L21,13.8 C21,14.1313709 20.7313709,14.4 20.4,14.4 Z M7.19999998,21 L3.59999996,21 C3.26862911,21 2.99999996,20.7313709 2.99999996,20.4 L2.99999996,16.8 C2.99999996,16.4686292 3.26862911,16.2 3.59999996,16.2 L7.19999998,16.2 C7.53137083,16.2 7.79999998,16.4686292 7.79999998,16.8 L7.79999998,20.4 C7.79999998,20.7313709 7.53137083,21 7.19999998,21 Z M13.8,21 L10.2,21 C9.86862914,21 9.59999999,20.7313709 9.59999999,20.4 L9.59999999,16.8 C9.59999999,16.4686292 9.86862914,16.2 10.2,16.2 L13.8,16.2 C14.1313709,16.2 14.4,16.4686292 14.4,16.8 L14.4,20.4 C14.4,20.7313709 14.1313709,21 13.8,21 Z M20.4,21 L16.8,21 C16.4686292,21 16.2,20.7313709 16.2,20.4 L16.2,16.8 C16.2,16.4686292 16.4686292,16.2 16.8,16.2 L20.4,16.2 C20.7313709,16.2 21,16.4686292 21,16.8 L21,20.4 C21,20.7313709 20.7313709,21 20.4,21 Z" fill="#000000"></path>
    </g>
</svg>