<?xml version="1.0" encoding="UTF-8"?>
<svg width="24px" height="24px" viewBox="0 0 24 24" version="1.1" xmlns="http://www.w3.org/2000/svg" xmlns:xlink="http://www.w3.org/1999/xlink">
    <title>icons/functional_UI/M-S/mdpi/ic_Mirroring</title>
    <g id="icons/functional_UI/M-S/ic_Mirroring" stroke="none" stroke-width="1" fill="none" fill-rule="evenodd">
        <path d="M20.4,1.79999996 L14.4,1.79999996 C13.73736,1.79999996 13.2,2.34935996 13.2,3.01199996 L13.2,6.59999998 L10.8,8.99999999 L13.2,11.4 L13.2,16.2 C13.2000663,16.8627143 13.7372858,17.4 14.4,17.4 L20.4,17.4 C21.0627143,17.4 21.6,16.8627143 21.6,16.2 L21.6,3.01199996 C21.6,2.34935996 21.06264,1.79999996 20.4,1.79999996 Z M17.4,16.8 C17.0686292,16.8 16.8,16.5313709 16.8,16.2 C16.8,15.8686292 17.0686292,15.6 17.4,15.6 C17.7313709,15.6 18,15.8686292 18,16.2 C18,16.5313709 17.7313709,16.8 17.4,16.8 Z M20.4,15 L14.4,15 L14.4,2.99999996 L20.4,2.99999996 L20.4,15 Z M16.8,18 L16.8,19.8 L3.59999997,19.8 L3.59999997,2.99999996 L12.6,2.99999996 C12.6007621,2.77559815 12.6459512,2.55356825 12.73296,2.34671996 C12.8173577,2.1464102 12.934655,1.96162234 13.08,1.79999996 L3.59999997,1.79999996 C2.93728571,1.79999996 2.39999996,2.33728571 2.39999996,2.99999996 L2.39999996,21 C2.39999996,21.6627143 2.93728571,22.2 3.59999997,22.2 L16.8,22.2 C17.4627143,22.2 18,21.6627143 18,21 L18,18 L16.8,18 Z M10.2,21.6 C9.86862914,21.6 9.59999999,21.3313709 9.59999999,21 C9.59999999,20.6686292 9.86862914,20.4 10.2,20.4 C10.5313708,20.4 10.8,20.6686292 10.8,21 C10.8,21.3313709 10.5313708,21.6 10.2,21.6 Z" fill="#000000"></path>
    </g>
</svg>