<?xml version="1.0" encoding="UTF-8"?>
<svg width="24px" height="24px" viewBox="0 0 24 24" version="1.1" xmlns="http://www.w3.org/2000/svg" xmlns:xlink="http://www.w3.org/1999/xlink">
    <title>icons/functional_UI/E-M/mdpi/ic_Message</title>
    <g id="icons/functional_UI/E-M/ic_Message" stroke="none" stroke-width="1" fill="none" fill-rule="evenodd">
        <path d="M19.80504,2.99999996 L2.39999996,2.99999996 L2.39999996,15.6 C2.39999996,16.5942529 3.20627509,17.4001326 4.20052797,17.4 L6.59999998,17.4 L6.59999998,21 L10.202256,17.4 L21.6000057,17.4 L21.6000057,4.79999997 C21.6011921,4.32311909 21.4126247,3.86535355 21.0758911,3.52767437 C20.7391574,3.1899952 20.2819224,2.99999996 19.80504,2.99999996 Z M17.4,13.8 L17.4,16.2 L15.003648,13.8 L7.79599198,13.8 C7.47813885,13.7998739 7.1733991,13.6732769 6.94901926,13.4481451 C6.72463942,13.2230134 6.59906271,12.9178518 6.59999998,12.6 L6.59565598,10.8 L6.59565598,5.39999997 L6.59999998,4.19999996 L19.199304,4.19999996 C19.5176084,4.19999996 19.8228935,4.32635858 20.0480002,4.55140224 C20.2731068,4.7764459 20.3995955,5.08169563 20.39964,5.39999997 L20.39964,9.39700799 L20.405208,13.8 L17.4,13.8 Z" fill="#000000"></path>
    </g>
</svg>