<?xml version="1.0" encoding="UTF-8"?>
<svg width="24px" height="24px" viewBox="0 0 24 24" version="1.1" xmlns="http://www.w3.org/2000/svg" xmlns:xlink="http://www.w3.org/1999/xlink">
    <title>icons/functional_UI/M-S/mdpi/ic_More_dots</title>
    <g id="icons/functional_UI/M-S/ic_More_dots" stroke="none" stroke-width="1" fill="none" fill-rule="evenodd">
        <path d="M14.4,12 C14.4,13.3254834 13.3254834,14.4 12,14.4 C10.6745166,14.4 9.59999999,13.3254834 9.59999999,12 C9.59999999,10.6745166 10.6745166,9.59999999 12,9.59999999 C13.3254834,9.59999999 14.4,10.6745166 14.4,12 Z M7.19999998,12 C7.19999998,13.3254834 6.12548338,14.4 4.79999997,14.4 C3.47451656,14.4 2.39999996,13.3254834 2.39999996,12 C2.39999996,10.6745166 3.47451656,9.59999999 4.79999997,9.59999999 C5.43651955,9.59999999 6.04696894,9.85285641 6.49705625,10.3029437 C6.94714356,10.753031 7.19999998,11.3634804 7.19999998,12 Z M21.6,12 C21.6,13.3254834 20.5254834,14.4 19.2,14.4 C17.8745166,14.4 16.8,13.3254834 16.8,12 C16.8,10.6745166 17.8745166,9.59999999 19.2,9.59999999 C20.5254834,9.59999999 21.6,10.6745166 21.6,12 Z" fill="#000000"></path>
    </g>
</svg>