<?xml version="1.0" encoding="UTF-8"?>
<svg width="24px" height="24px" viewBox="0 0 24 24" version="1.1" xmlns="http://www.w3.org/2000/svg" xmlns:xlink="http://www.w3.org/1999/xlink">
    <title>icons/functional_UI/M-S/mdpi/ic_Music</title>
    <g id="icons/functional_UI/M-S/ic_Music" stroke="none" stroke-width="1" fill="none" fill-rule="evenodd">
        <path d="M20.399736,14.99016 C20.399736,16.634784 19.051896,17.99256 17.387736,17.99256 C15.724368,17.99256 14.399856,16.634688 14.399856,14.99016 C14.3986287,14.1980463 14.7132957,13.4381381 15.2741504,12.8787745 C15.8350052,12.3194108 16.5957483,12.0067679 17.387856,12.010104 C17.586012,12.0111372 17.7838449,12.0262311 17.979864,12.055272 L17.979864,6.69098398 L9.60069599,8.89459199 L9.60069599,18.5976 C9.60069599,20.242824 8.25175198,21.600192 6.58838398,21.600192 C4.92501597,21.600192 3.59975996,20.242896 3.59975996,18.5976 C3.59975996,16.951752 4.92506397,15.594648 6.58838398,15.594648 C6.77884798,15.594648 7.01901598,15.638304 7.19999998,15.671928 L7.19999998,5.30399997 L18.0792,2.44010396 C18.0792,2.44010396 18.400008,2.39973596 18.568584,2.39973596 C19.580448,2.39973596 20.399736,3.18748796 20.399736,4.18675197 L20.399736,14.99016 L20.399736,14.99016 Z" fill="#000000"></path>
    </g>
</svg>