<?xml version="1.0" encoding="UTF-8"?>
<svg width="24px" height="24px" viewBox="0 0 24 24" version="1.1" xmlns="http://www.w3.org/2000/svg" xmlns:xlink="http://www.w3.org/1999/xlink">
    <title>icons/functional_UI/M-S/mdpi/ic_Notification_off</title>
    <g id="icons/functional_UI/M-S/ic_Notification_off" stroke="none" stroke-width="1" fill="none" fill-rule="evenodd">
        <path d="M12.036,22.1760001 C12.6726278,22.1761083 13.283224,21.9233126 13.7334643,21.4732253 C14.1837046,21.023138 14.4367078,20.4126278 14.436816,19.776 L9.63518399,19.776 C9.63529219,20.4126278 9.88829537,21.023138 10.3385357,21.4732253 C10.788776,21.9233126 11.3993722,22.1761083 12.036,22.1760001 Z M16.789992,4.80199197 C15.9445688,4.04774655 14.9328673,3.50396912 13.837368,3.21499196 L13.837368,2.98300796 C13.8337468,1.99112366 13.0286469,1.18895775 12.036756,1.18895775 C11.0448651,1.18895775 10.2397652,1.99112366 10.236144,2.98300796 L10.236144,3.21021596 C7.12975198,4.00953597 4.83674397,6.82814398 4.83674397,10.183008 L4.83674397,16.183008 L3.96371997,17.63472 L16.789992,4.80199197 Z M6.64574398,19.1871841 L19.978728,19.1871841 C20.1949515,19.1871841 20.3944966,19.0710079 20.5010509,18.8828622 C20.6076051,18.6947165 20.6046853,18.4637914 20.493408,18.2784 L19.235808,16.187088 L19.235808,10.235088 C19.2364054,9.20206694 19.0149905,8.18098146 18.58656,7.24099198 L6.64574398,19.1871841 Z M21.599256,0.839999953 L1.19999995,21.239256 L2.47274396,22.512 L22.872,2.11274396 L21.599256,0.839999953 Z" fill="#000000"></path>
    </g>
</svg>