<?xml version="1.0" encoding="UTF-8"?>
<svg width="24px" height="24px" viewBox="0 0 24 24" version="1.1" xmlns="http://www.w3.org/2000/svg" xmlns:xlink="http://www.w3.org/1999/xlink">
    <title>icons/functional_UI/M-S/mdpi/ic_Network_add</title>
    <g id="icons/functional_UI/M-S/ic_Network_add" stroke="none" stroke-width="1" fill="none" fill-rule="evenodd">
        <path d="M8.53919999,9.02399999 L7.63919998,10.5828 L8.15879998,10.8828 L9.05879999,9.32399999 L8.53919999,9.02399999 Z M7.59551998,8.47919999 C7.7699739,7.48565798 7.30448921,6.48907602 6.43061423,5.98518872 C5.55673925,5.48130143 4.46103763,5.57768374 3.68854955,6.22639174 C2.91606148,6.87509974 2.63170551,7.93764069 2.97693021,8.88546968 C3.32215491,9.83329867 4.22325823,10.4640636 5.23199997,10.4640024 C5.73821832,10.4647182 6.23156544,10.3045275 6.64079998,10.00656 L7.11959998,10.2828 L8.01959998,8.72399999 L7.59551998,8.47919999 Z M20.4,17.724 L20.4,18.324 C20.4,18.53112 20.22312,18.624 20.016,18.624 L18.6,18.624 L18.6,20.04 C18.6,20.24712 18.50712,20.424 18.3,20.424 L17.7,20.424 C17.49288,20.424 17.4,20.19912 17.4,19.992 L17.4,18.624 L15.984,18.624 C15.77688,18.624 15.6,18.53112 15.6,18.324 L15.6,17.724 C15.6,17.51688 15.77688,17.424 15.984,17.424 L17.4,17.424 L17.4,16.008 C17.4,15.80088 17.49288,15.624 17.7,15.624 L18.3,15.624 C18.50712,15.624 18.6,15.80088 18.6,16.008 L18.6,17.424 L20.016,17.424 C20.22312,17.424 20.4,17.51688 20.4,17.724 Z M18,13.824 C15.6804041,13.824 13.8,15.7044041 13.8,18.024 C13.8,18.09768 13.80192,18.17088 13.80576,18.2436 C13.5540855,17.9565203 13.2377984,17.7333508 12.88296,17.59248 L12.8892,14.89008 C14.3732655,14.4283958 15.2597728,12.9105579 14.9328,11.39112 L17.35224,10.00152 C18.2486824,10.6563301 19.4772449,10.6107932 20.3227528,9.89141726 C21.1682606,9.17204133 21.4099793,7.96663204 20.9071987,6.97688614 C20.4044181,5.98714025 19.2883978,5.47144818 18.2087993,5.73000626 C17.1292008,5.98856435 16.3678719,6.95387149 16.368,8.06399998 C16.3681737,8.20172948 16.3801374,8.33919132 16.40376,8.47487999 L14.04528,9.82967999 C12.8903801,8.7526717 11.0981485,8.75582038 9.94703999,9.83687999 L9.57839999,9.62399999 L8.67839999,11.1828 L9.06407999,11.40552 C8.74735131,12.91399 9.62413306,14.4172963 11.09304,14.88432 L11.0868,17.60424 C10.0106096,18.0469982 9.40708526,19.1979859 9.65491689,20.3349996 C9.90274852,21.4720133 10.9305252,22.2674309 12.0933541,22.2221564 C13.2561829,22.176882 14.2190033,21.303961 14.37768,20.15112 C15.4078315,21.9054786 17.5471735,22.669353 19.4555143,21.9642137 C21.3638552,21.2590745 22.4924999,19.2876665 22.1344085,17.2849791 C21.7763172,15.2822918 20.0344499,13.8241469 18,13.824 Z M10.2,12.024 C10.2,11.0298874 11.0058874,10.224 12,10.224 C12.9941126,10.224 13.8,11.0298874 13.8,12.024 C13.8,13.0181126 12.9941126,13.824 12,13.824 C11.0058874,13.824 10.2,13.0181126 10.2,12.024 L10.2,12.024 Z M18,21.024 C16.3431458,21.024 15,19.6808543 15,18.024 C15,16.3671458 16.3431458,15.024 18,15.024 C19.6568543,15.024 21,16.3671458 21,18.024 C21,18.8196612 20.68398,19.5827451 20.1213626,20.1453626 C19.5587451,20.70798 18.7956612,21.024 18,21.024 Z M20.4,17.724 L20.4,18.324 C20.4,18.53112 20.22312,18.624 20.016,18.624 L18.6,18.624 L18.6,20.04 C18.6,20.24712 18.50712,20.424 18.3,20.424 L17.7,20.424 C17.49288,20.424 17.4,20.19912 17.4,19.992 L17.4,18.624 L15.984,18.624 C15.77688,18.624 15.6,18.53112 15.6,18.324 L15.6,17.724 C15.6,17.51688 15.77688,17.424 15.984,17.424 L17.4,17.424 L17.4,16.008 C17.4,15.80088 17.49288,15.624 17.7,15.624 L18.3,15.624 C18.50712,15.624 18.6,15.80088 18.6,16.008 L18.6,17.424 L20.016,17.424 C20.22312,17.424 20.4,17.51688 20.4,17.724 Z M20.4,17.724 L20.4,18.324 C20.4,18.53112 20.22312,18.624 20.016,18.624 L18.6,18.624 L18.6,20.04 C18.6,20.24712 18.50712,20.424 18.3,20.424 L17.7,20.424 C17.49288,20.424 17.4,20.19912 17.4,19.992 L17.4,18.624 L15.984,18.624 C15.77688,18.624 15.6,18.53112 15.6,18.324 L15.6,17.724 C15.6,17.51688 15.77688,17.424 15.984,17.424 L17.4,17.424 L17.4,16.008 C17.4,15.80088 17.49288,15.624 17.7,15.624 L18.3,15.624 C18.50712,15.624 18.6,15.80088 18.6,16.008 L18.6,17.424 L20.016,17.424 C20.22312,17.424 20.4,17.51688 20.4,17.724 Z" fill="#000000"></path>
    </g>
</svg>