<?xml version="1.0" encoding="UTF-8"?>
<svg width="24px" height="24px" viewBox="0 0 24 24" version="1.1" xmlns="http://www.w3.org/2000/svg" xmlns:xlink="http://www.w3.org/1999/xlink">
    <title>icons/functional_UI/M-S/mdpi/ic_Network_livebox</title>
    <g id="icons/functional_UI/M-S/ic_Network_livebox" stroke="none" stroke-width="1" fill="none" fill-rule="evenodd">
        <path d="M8.54183999,9.51662399 L7.87538398,11.045232 L8.73043199,11.41932 L9.39688799,9.89075999 L8.54183999,9.51662399 Z M7.39403998,9.01439999 C7.49681764,7.82238437 6.72776725,6.72903523 5.57117086,6.42285019 C4.41457447,6.11666515 3.20528605,6.6862899 2.70481184,7.77302356 C2.20433764,8.85975722 2.55757329,10.1489723 3.54208124,10.8288315 C4.52658919,11.5086907 5.85733797,11.3823635 6.69633598,10.5294 L7.31759998,10.801176 L7.98407998,9.27249599 L7.39403998,9.01439999 Z M20.86236,6.94367998 C20.179809,5.9770873 18.9046979,5.63521518 17.8301448,6.13070785 C16.7555918,6.62620052 16.1876488,7.81793279 16.479576,8.96464799 L14.975448,10.028856 C13.6749893,8.97774382 11.7701521,9.17234874 10.709112,10.46472 L9.95311199,10.133976 L9.28655999,11.662632 L10.043328,11.993664 C9.82936835,13.5589061 10.8460863,15.0284407 12.386256,15.380064 L12.378696,17.218032 C11.2230362,17.6111399 10.5189074,18.7799167 10.7115517,19.9853094 C10.9041959,21.1907022 11.9375311,22.0817998 13.158148,22.0952858 C14.3787649,22.1084688 15.4313205,21.2401583 15.650252,20.0392617 C15.8691835,18.8383652 15.1907561,17.6544848 14.04396,17.236224 L14.047608,16.347768 L14.051952,15.290784 C14.8207104,15.0260211 15.4520222,14.4654146 15.8058149,13.7333493 C16.1596076,13.0012841 16.2066239,12.1582991 15.936432,11.391432 L17.412,10.347144 C18.3840972,11.055711 19.7263823,10.9557376 20.5827881,10.1109836 C21.4391939,9.26622964 21.5575447,7.92544001 20.86236,6.94372798 L20.86236,6.94367998 Z M13.070904,14.2169545 C12.3456288,14.2181659 11.6910937,13.7822048 11.4127014,13.1124859 C11.1343091,12.4427671 11.2869275,11.6712842 11.7993455,11.1580071 C12.3117635,10.64473 13.0829897,10.4908197 13.7531739,10.7680898 C14.4233582,11.0453599 14.8604167,11.6991638 14.8604167,12.42444 C14.8608172,12.8994469 14.6725044,13.3551578 14.3369051,13.6913198 C14.0013058,14.0274817 13.545911,14.2165575 13.070904,14.2169545 Z" fill="#000000"></path>
    </g>
</svg>