<?xml version="1.0" encoding="UTF-8"?>
<svg width="24px" height="24px" viewBox="0 0 24 24" version="1.1" xmlns="http://www.w3.org/2000/svg" xmlns:xlink="http://www.w3.org/1999/xlink">
    <title>icons/functional_UI/M-S/mdpi/ic_New</title>
    <g id="icons/functional_UI/M-S/ic_New" stroke="none" stroke-width="1" fill="none" fill-rule="evenodd">
        <path d="M20.083776,6.80942398 L14.208,8.97599999 L14.208,2.78399996 C14.208,2.26480796 13.7736,1.84785596 13.255056,1.84785596 L10.717896,1.84785596 C10.199184,1.84785596 9.76799999,2.26480796 9.76799999,2.78399996 L9.76799999,8.97599999 L4.20134397,6.81794398 C3.97106754,6.72696083 3.71361565,6.73401081 3.48866349,6.8374598 C3.26371132,6.94090879 3.09079099,7.13177455 3.00998396,7.36581598 L2.09279996,9.98282399 C2.01043942,10.2180524 2.02567565,10.4764623 2.13510826,10.7003823 C2.24454087,10.9243023 2.439061,11.0950938 2.67525596,11.17464 L8.40383999,13.102128 L4.74751197,17.94696 C4.59748484,18.1457089 4.5334299,18.3963221 4.56968979,18.6426846 C4.60594969,18.889047 4.7394952,19.1105772 4.94042397,19.257672 L7.24283998,20.941944 C7.4419002,21.0891742 7.69250385,21.1486112 7.93648101,21.1064587 C8.18045817,21.0643061 8.39659139,20.9242298 8.53471199,20.718744 L12.0018,15.615048 L15.675936,20.732616 C15.8210764,20.934967 16.0413935,21.0705605 16.2874362,21.1089616 C16.5334789,21.1473628 16.7846367,21.0853549 16.984536,20.936856 L19.237488,19.262544 C19.4375651,19.1135308 19.5699455,18.8908717 19.6052885,18.643917 C19.6406315,18.3969623 19.5760176,18.1461103 19.425768,17.94696 L15.76956,13.102128 L21.611448,11.169888 C21.8477964,11.0920261 22.0428427,10.922285 22.1525928,10.6989513 C22.2623429,10.4756176 22.2775529,10.2175018 22.194792,9.98282399 L21.277824,7.36581598 C21.1964102,7.1313413 21.0234897,6.93984456 20.798509,6.83501004 C20.5735283,6.73017553 20.315677,6.72094494 20.083776,6.80942398 Z" fill="#000000"></path>
    </g>
</svg>