<svg width="24" height="24">
<path d="M15 3H3V11H15V3ZM4.33333 9.4V4.6H13.6667V9.4H4.33333ZM19.084 6.28911C18.7056 6.1419 18.3355 6.07094 18.0658 6.03596C17.9101 6.01578 17.7537 6.00272 17.597 6.00001C17.2805 5.99852 17.009 6.28857 17.009 6.63379C17.009 6.63379 16.9913 7.27071 17.6734 7.27071C17.7169 7.27071 17.8212 7.28082 17.9277 7.29464C18.1439 7.32268 18.4218 7.37776 18.6914 7.48264C18.9642 7.58878 19.1947 7.73285 19.3522 7.91663C19.4975 8.08616 19.6008 8.31103 19.6008 8.65044C19.6008 8.99814 19.4937 9.41031 19.2971 9.86074C19.1029 10.3056 18.8383 10.7495 18.5642 11.1499C18.2913 11.5485 18.017 11.8923 17.8105 12.1368C17.7076 12.2587 17.6222 12.3549 17.5634 12.42C17.3117 12.6981 17.0507 12.967 16.79 13.2357C16.6705 13.3587 16.5511 13.4818 16.4327 13.6056C16.6004 13.6056 16.7687 13.6025 16.9373 13.5993C17.5282 13.5882 18.1218 13.5771 18.703 13.7017C18.9278 13.7499 19.1497 13.8185 19.3371 13.9122C19.5276 14.0076 19.6471 14.1112 19.7116 14.208C19.8753 14.4535 19.9024 14.7979 19.6165 15.3685C19.4014 15.7978 18.2579 17.4011 17.8105 17.8842L16.5542 16.3521L15 21L19.4991 20.2115L18.4969 18.8873C19.0507 18.3083 20.3272 16.5993 20.64 15.975C21.0245 15.2078 21.2007 14.2823 20.6555 13.4642C20.432 13.1289 20.1195 12.9084 19.8242 12.7606C19.5764 12.6367 19.3153 12.5513 19.0741 12.4916C19.21 12.3148 19.3544 12.1182 19.4991 11.9069C19.801 11.466 20.1123 10.9491 20.3501 10.4043C20.5854 9.86519 20.7664 9.25905 20.7664 8.65044C20.7664 7.98152 20.5457 7.45014 20.205 7.0525C19.8765 6.6691 19.4591 6.43505 19.084 6.28911Z"/>
</svg>
