<svg xmlns="http://www.w3.org/2000/svg" viewBox="0 0 512 512">
  <path d="M128.78 139.954c-5.787-6.375-15.167-6.375-20.953 0L22.34 234.153l-11.5 12.658c-5.23 5.763-5.23 15.106 0 20.87l11.487 12.652 85.503 94.199c5.784 6.38 15.168 6.38 20.953 0 5.79-6.374 17.79-16.714 12-23.088l-85.49-94.199 85.485-94.212c5.788-6.377-6.212-16.717-12-23.093zM384.284 139.155c5.786-6.375 15.166-6.375 20.952 0l85.486 94.198 11.5 12.658c5.23 5.763 5.23 15.107 0 20.87l-11.487 12.653-85.503 94.198c-5.784 6.38-15.169 6.38-20.953 0-5.79-6.373-17.79-16.714-12-23.088l85.49-94.198-85.485-94.213c-5.788-6.376 6.212-16.716 12-23.093z" style="stroke-width:.455;stroke-dasharray:none"/>
  <path d="M157.662 380.377c-5.709 6.093-11.709 9.978-6 16.07l84.278 90.046 11.326 12.1c5.157 5.509 13.516 5.509 18.673 0l11.325-12.1 84.279-90.046c5.708-6.092-.292-9.977-6-16.07-5.703-6.099-6.407-6.154-14.658-6l-76.873.002-91.692-.002c-8.817.695-8.955-.099-14.658 6zM156.71 128.622c-5.709-6.092-11.709-9.977-6-16.07l84.278-90.046 11.326-12.1c5.157-5.508 13.516-5.508 18.673 0l11.325 12.1 84.279 90.046c5.708 6.093-.292 9.978-6 16.07-5.703 6.1-6.407 6.155-14.658 6l-76.873-.002-91.692.002c-8.817-.694-8.955.1-14.658-6z" style="stroke-width:.441381;stroke-dasharray:none;paint-order:fill markers stroke"/>
</svg>
