<svg width="24" height="24"><path d="M15 3H3v8h12zM4.333 9.4V4.6h9.334v4.8zm14.751-3.11A4.4 4.4 0 0 0 17.597 6c-.317-.001-.588.289-.588.634 0 0-.018.637.664.637.044 0 .148.01.255.024.216.028.494.083.763.188.273.106.504.25.661.434.145.17.249.394.249.733 0 .348-.107.76-.304 1.21a8 8 0 0 1-.733 1.29 12.5 12.5 0 0 1-1 1.27c-.252.278-.513.547-.774.816q-.18.184-.357.37.251-.001.504-.007c.591-.01 1.185-.022 1.766.103.225.048.447.117.634.21.19.096.31.2.375.296.163.245.19.59-.096 1.16-.215.43-1.358 2.033-1.805 2.516l-1.257-1.532L15 21l4.5-.788-1.003-1.325c.554-.579 1.83-2.288 2.143-2.912.384-.767.56-1.693.015-2.51a2.1 2.1 0 0 0-.83-.704 3.7 3.7 0 0 0-.75-.27c.135-.176.28-.373.424-.584.302-.441.613-.958.851-1.503.235-.539.416-1.145.416-1.754 0-.668-.22-1.2-.561-1.598-.328-.383-.746-.617-1.121-.763"/></svg>