<svg width="24" height="24">
<path fill-rule="evenodd" clip-rule="evenodd" d="M19.4574 11.2C19.085 7.7024 16.2976 4.915 12.8 4.5426V3H11.2V4.5426C7.702 4.915 4.915 7.7022 4.5426 11.2H3V12.8H4.5426C4.915 16.2978 7.702 19.085 11.2 19.4574V21H12.8V19.4574C16.2976 19.085 19.085 16.2976 19.4574 12.8H21V11.2H19.4574ZM17.9468 12.8C17.5896 15.4698 15.4698 17.5896 12.8 17.9468V16.5H11.2V17.9468C8.5302 17.5896 6.4104 15.4698 6.0532 12.8H7.5V11.2H6.0532C6.4104 8.5302 8.5302 6.4104 11.2 6.0532V7.5H12.8V6.0532C15.4698 6.4104 17.5896 8.5302 17.9468 11.2H16.5V12.8H17.9468Z"/>
</svg>
