<?xml version="1.0" encoding="UTF-8"?>
<svg width="24px" height="24px" viewBox="0 0 24 24" version="1.1" xmlns="http://www.w3.org/2000/svg" xmlns:xlink="http://www.w3.org/1999/xlink">
    <title>icons/functional_UI/M-S/mdpi/ic_Notification_Alert</title>
    <g id="icons/functional_UI/M-S/ic_Notification_Alert" stroke="none" stroke-width="1" fill="none" fill-rule="evenodd">
        <path d="M12,22.2000001 C12.6366278,22.2001083 13.247224,21.9473126 13.6974643,21.4972253 C14.1477046,21.047138 14.4007078,20.4366278 14.400816,19.8 L9.59918399,19.8 C9.59929219,20.4366278 9.85229537,21.047138 10.3025357,21.4972253 C10.752776,21.9473126 11.3633722,22.2001083 12,22.2000001 L12,22.2000001 Z M20.4576,18.291312 L19.2,16.2 L19.2,10.248 C19.2,6.89999998 16.900392,4.04469597 13.800624,3.23198396 L13.800624,2.99999996 C13.7970028,2.00811566 12.9919029,1.20594975 12.000012,1.20594975 C11.0081211,1.20594975 10.2030212,2.00811566 10.1994,2.99999996 L10.1994,3.22720796 C7.09298398,4.02652797 4.79999997,6.84513598 4.79999997,10.2 L4.79999997,16.2 L3.54239996,18.291312 C3.43117952,18.4766871 3.4282802,18.7075608 3.53481041,18.8956705 C3.64134063,19.0837801 3.84082767,19.2 4.05700797,19.2 L19.942992,19.2 C20.1591723,19.2 20.3586594,19.0837801 20.4651896,18.8956705 C20.5717198,18.7075608 20.5688205,18.4766871 20.4576,18.291312 Z" fill="#000000"></path>
    </g>
</svg>