<?xml version="1.0" encoding="UTF-8"?>
<svg width="24px" height="24px" viewBox="0 0 24 24" version="1.1" xmlns="http://www.w3.org/2000/svg" xmlns:xlink="http://www.w3.org/1999/xlink">
    <title>icons/functional_UI/M-S/mdpi/ic_Notification</title>
    <g id="icons/functional_UI/M-S/ic_Notification" stroke="none" stroke-width="1" fill="none" fill-rule="evenodd">
        <path d="M17.400216,3.35999996 C13.800216,3.35999996 13.800216,2.39999996 10.200216,2.39999996 C8.00661598,2.39999996 7.14940798,2.72159996 6.00021598,2.99999996 L4.19999997,2.99999996 L4.19999997,21.6 L5.99999997,21.6 L5.99999997,14.07492 C7.14931198,13.796424 8.00639998,13.44 10.20012,13.44 C13.80012,13.44 13.80012,14.4 17.40012,14.4 C18.8064,14.4 19.6632,14.2536 20.4,14.075016 L20.4,3.03501596 C19.6632,3.21359996 18.8064,3.35999996 17.400216,3.35999996 Z M15.981984,7.99247998 L13.980384,8.65415999 L15.233184,10.313232 C15.2846386,10.3814664 15.3067504,10.4674066 15.2946178,10.5520016 C15.2824852,10.6365966 15.2371104,10.7128578 15.168552,10.76388 L14.396568,11.33724 C14.3280959,11.3880867 14.2420789,11.4093195 14.1578112,11.3961758 C14.0735434,11.3830321 13.9980786,11.336612 13.948344,11.267328 L12.689304,9.51475199 L11.50152,11.262528 C11.454154,11.3329017 11.3800927,11.3808687 11.2965019,11.395311 C11.2129112,11.4097534 11.1270488,11.3894172 11.058816,11.339016 L10.270032,10.762128 C10.2011926,10.7117931 10.1554293,10.6359407 10.1429997,10.5515726 C10.1305701,10.4672045 10.1525137,10.3813771 10.203912,10.313328 L11.456712,8.65425599 L9.49382399,7.99425598 C9.41292443,7.96702988 9.34629297,7.90854742 9.30880301,7.83186299 C9.27131305,7.75517857 9.26608576,7.66667645 9.29428799,7.58611198 L9.60854399,6.68992798 C9.6362437,6.6097477 9.69549018,6.54435962 9.77255871,6.50891118 C9.84962724,6.47346273 9.93783056,6.4710298 10.016736,6.50217598 L11.926272,7.24555198 L11.926272,5.12330397 C11.9267862,4.94495214 12.0712481,4.80050089 12.2496,4.79999997 L13.168176,4.79999997 C13.3464771,4.80056681 13.4908594,4.94500269 13.49136,5.12330397 L13.49136,7.24535998 L15.458544,6.49919998 C15.5379995,6.46883755 15.6263669,6.47196465 15.7034774,6.50786757 C15.780588,6.54377049 15.8398609,6.60938518 15.867768,6.68973598 L16.181976,7.58591998 C16.2102566,7.66632372 16.2049932,7.75472532 16.1673718,7.83120526 C16.1297503,7.9076852 16.062936,7.96580912 15.981984,7.99247998 L15.981984,7.99247998 Z" fill="#000000"></path>
    </g>
</svg>