<?xml version="1.0" encoding="UTF-8"?>
<svg width="24px" height="24px" viewBox="0 0 24 24" version="1.1" xmlns="http://www.w3.org/2000/svg" xmlns:xlink="http://www.w3.org/1999/xlink">
    <title>icons/functional_UI/M-S/mdpi/ic_Outbox</title>
    <g id="icons/functional_UI/M-S/ic_Outbox" stroke="none" stroke-width="1" fill="none" fill-rule="evenodd">
        <path d="M19.2,13.8 L19.2,19.2 L4.79999996,19.2 L4.79999996,13.8 L1.79999996,13.8 L1.79999996,19.8 C1.79999996,21.1254834 2.87451656,22.2 4.19999997,22.2 L19.8,22.2 C21.1254834,22.2 22.2,21.1254834 22.2,19.8 L22.2,13.8 L19.2,13.8 Z M19.2,8.39999998 L15.6,4.82426397 L12.939408,2.18159996 C12.426648,1.67231996 11.573352,1.67231996 11.060592,2.18159996 L8.39999999,4.82426397 L4.79999997,8.39983198 L8.39999999,8.39983198 L8.39999999,15.6 C8.39999999,16.5941126 9.20588744,17.4 10.2,17.4 L13.8,17.4 C14.2773897,17.4 14.7352267,17.2103577 15.0727922,16.8727922 C15.4103577,16.5352267 15.6,16.0773897 15.6,15.6 L15.6,8.39999998 L19.2,8.39999998 Z" fill="#000000"></path>
    </g>
</svg>