<?xml version="1.0" encoding="UTF-8"?>
<svg width="24px" height="24px" viewBox="0 0 24 24" version="1.1" xmlns="http://www.w3.org/2000/svg" xmlns:xlink="http://www.w3.org/1999/xlink">
    <title>icons/functional_UI/M-S/mdpi/ic_Orange_games</title>
    <g id="icons/functional_UI/M-S/ic_Orange_games" stroke="none" stroke-width="1" fill="none" fill-rule="evenodd">
        <path d="M21.913488,14.079024 L19.128552,7.38513598 C18.6623825,6.18841863 17.5098437,5.40020551 16.225536,5.39978397 L7.72646398,5.39978397 C6.44199127,5.40042832 5.28927888,6.188493 4.82246397,7.38513598 L2.03846396,14.079024 C1.86481769,14.4746729 1.77546499,14.9021469 1.77609264,15.334224 C1.77609264,17.057664 3.17049596,18.600336 4.89273597,18.600336 C6.21211198,18.600336 7.34126398,17.730024 7.79575198,16.56792 L7.87447198,16.37832 C8.17624798,15.653496 8.88602399,15 9.71999999,15 L14.256,15 C15.089976,15 15.775776,15.654432 16.0776,16.38 L16.156296,16.567728 C16.609896,17.729832 17.738064,18.600144 19.059288,18.600144 C20.779752,18.600144 22.1759548,17.057472 22.1759548,15.334032 C22.1765275,14.9020126 22.0871425,14.4746061 21.913488,14.079024 Z M10.2,11.4 L8.99999999,11.4 L8.99999999,12.6 C8.99999999,13.099968 8.59439999,13.512 8.10019198,13.512 C7.60415998,13.512 7.19999998,13.099968 7.19999998,12.6 L7.19999998,11.4 L5.99999997,11.4 C5.76262419,11.3993735 5.5353253,11.3039882 5.36858919,11.1350305 C5.20185308,10.9660727 5.10948462,10.7375313 5.11194991,10.500168 C5.11194991,10.000152 5.50495197,9.59999999 5.99999997,9.59999999 L7.19999998,9.59999999 L7.19999998,8.39999999 C7.19999998,7.90101598 7.60415998,7.48828798 8.10019198,7.48828798 C8.59439999,7.48828798 8.99999999,7.90101598 8.99999999,8.39999999 L8.99999999,9.59999999 L10.2,9.59999999 C10.695048,9.59999999 11.0884308,10.000152 11.0884308,10.500168 C11.0908157,10.7375727 10.9983674,10.9661239 10.8315663,11.1350745 C10.6647652,11.304025 10.4374164,11.3993919 10.2,11.4 Z M13.788792,11.4003126 C13.4245276,11.4007392 13.0959028,11.1816135 12.9562558,10.84518 C12.8166088,10.5087465 12.8934631,10.1213143 13.1509581,9.86366119 C13.4084531,9.60600813 13.7958381,9.52891608 14.1323572,9.66835659 C14.4688763,9.80779711 14.6882037,10.1362874 14.6880002,10.500552 C14.6874715,10.9970412 14.2852808,11.3994788 13.788792,11.4003126 L13.788792,11.4003126 Z M15.900984,13.4880007 C15.5369601,13.4884466 15.208523,13.2695331 15.0688627,12.9333656 C14.9292024,12.597198 15.0058317,12.2100004 15.2630089,11.9523699 C15.5201862,11.6947394 15.9072482,11.6174285 16.2436612,11.7564966 C16.5800742,11.8955647 16.7995656,12.2236159 16.7997601,12.58764 C16.7999592,13.0843592 16.3977028,13.4873245 15.900984,13.4880007 Z M15.900984,9.31175999 C15.5369617,9.31216779 15.2085571,9.0931986 15.0689713,8.7570019 C14.9293856,8.4208052 15.0061227,8.03362495 15.2633846,7.77608137 C15.5206466,7.51853779 15.9077426,7.44137708 16.2440919,7.58059484 C16.5804411,7.71981261 16.79976,8.04797746 16.79976,8.41199999 C16.7996546,8.90850369 16.3974873,9.31113275 15.900984,9.31180799 L15.900984,9.31175999 Z M17.9868,11.400264 C17.4896483,11.399747 17.0870264,10.9963443 17.0874722,10.4991925 C17.0879187,10.0020407 17.4912641,9.59936137 17.9884159,9.59973647 C18.4855678,9.6001121 18.8883046,10.0034001 18.8880002,10.500552 C18.8878601,10.7393898 18.7928216,10.9683842 18.6238027,11.137133 C18.4547839,11.3058818 18.2256378,11.400554 17.9868,11.4003125 L17.9868,11.400264 Z" fill="#000000"></path>
    </g>
</svg>