<?xml version="1.0" encoding="UTF-8"?>
<svg width="24px" height="24px" viewBox="0 0 24 24" version="1.1" xmlns="http://www.w3.org/2000/svg" xmlns:xlink="http://www.w3.org/1999/xlink">
    <title>icons/functional_UI/M-S/mdpi/ic_Online_information</title>
    <g id="icons/functional_UI/M-S/ic_Online_information" stroke="none" stroke-width="1" fill="none" fill-rule="evenodd">
        <path d="M13.8,18 C13.8,18.3313709 13.5313709,18.6 13.2,18.6 L10.8,18.6 C10.4686291,18.6 10.2,18.3313709 10.2,18 L1.79999996,18 L1.79999996,19.2 C1.79999996,19.5313709 2.06862911,19.8 2.39999996,19.8 L21.6,19.8 C21.9313709,19.8 22.2,19.5313709 22.2,19.2 L22.2,18 L13.8,18 Z M21,5.99999998 C21,5.33725827 20.4627417,4.79999997 19.8,4.79999997 L4.19999997,4.79999997 C3.53725826,4.79999997 2.99999996,5.33725827 2.99999996,5.99999998 L2.99999996,15.576 C2.99999996,15.58404 3.00045596,15.591984 3.00059996,15.6 L2.99999996,15.6 L2.99999996,17.4 L21,17.4 L21,15.6 L20.9994,15.6 C20.999544,15.591984 21,15.58404 21,15.576 L21,5.99999998 Z M4.19999997,5.99999998 L4.19999997,16.2 L19.8,16.2 L19.8,5.99999998 L4.19999997,5.99999998 Z M11.1864,7.48286398 C11.3445454,7.32386286 11.5595508,7.23446468 11.783808,7.23446468 C12.0080652,7.23446468 12.2230706,7.32386286 12.381216,7.48286398 C12.7085678,7.81230796 12.7074374,8.34457335 12.3786893,8.672624 C12.0499413,9.00067464 11.5176747,9.00067464 11.1889267,8.672624 C10.8601786,8.34457335 10.8590482,7.81230796 11.1864,7.48286398 L11.1864,7.48286398 Z M13.2,14.4 L10.50288,14.4 L10.50288,14.119056 L10.56072,14.11728 C10.6551453,14.1163061 10.7486434,14.0985329 10.83684,14.064792 C10.8927839,14.0423014 10.9433203,14.0081987 10.985112,13.964736 C11.01648,13.930968 11.080368,13.812816 11.080368,13.41852 L11.080368,10.787688 C11.080368,10.412736 11.015256,10.271064 10.968264,10.218576 C10.9323539,10.1818313 10.8880865,10.1543206 10.83924,10.138392 C10.7483577,10.1089728 10.6537754,10.0925385 10.558296,10.089576 L10.50288,10.085976 L10.50288,9.76281599 L12.622488,9.76281599 L12.622488,13.41852 C12.622488,13.79472 12.679176,13.935768 12.724968,13.987632 C12.790032,14.062392 12.929928,14.105784 13.137288,14.117232 L13.2,14.120856 L13.2,14.4 Z" fill="#000000"></path>
    </g>
</svg>