<?xml version="1.0" encoding="UTF-8"?>
<svg width="24px" height="24px" viewBox="0 0 24 24" version="1.1" xmlns="http://www.w3.org/2000/svg" xmlns:xlink="http://www.w3.org/1999/xlink">
    <title>icons/functional_UI/M-S/mdpi/ic_Pull_from_Mobile</title>
    <g id="icons/functional_UI/M-S/ic_Pull_from_Mobile" stroke="none" stroke-width="1" fill="none" fill-rule="evenodd">
        <path d="M7.19999998,16.2 L7.19999998,19.8 L16.799568,19.8 L16.799568,3.59999996 L7.19999998,3.59999996 L7.19999998,8.08799998 C6.97123198,8.17900798 6.35541598,8.51786399 5.99999267,8.92799999 L5.99999267,2.99999996 C5.99889042,2.6823077 6.12424367,2.37723161 6.34839606,2.15209763 C6.57254846,1.92696366 6.8770739,1.80027857 7.19476798,1.79999996 L16.800768,1.79999996 C17.118926,1.79999996 17.4240125,1.9265872 17.6489122,2.15163086 C17.8738118,2.37667452 17.9999927,2.68184201 17.9999927,2.99999996 L17.9999927,21 C17.9999927,21.318158 17.8738118,21.6233255 17.6489122,21.8483691 C17.4240125,22.0734128 17.118926,22.2 16.800768,22.2 L7.19476798,22.2 C6.8770739,22.1997214 6.57254846,22.0730363 6.34839606,21.8479024 C6.12424367,21.6227684 5.99889042,21.3176923 5.99999267,21 L5.99999267,16.2 L7.19999998,16.2 L7.19999998,16.2 Z M12.898104,2.39999996 L11.097456,2.39999996 C10.9317706,2.39999996 10.797456,2.53431454 10.797456,2.69999996 C10.797456,2.86568539 10.9317706,2.99999996 11.097456,2.99999996 L12.898104,2.99999996 C13.0637894,2.99999996 13.198104,2.86568539 13.198104,2.69999996 C13.198104,2.53431454 13.0637894,2.39999996 12.898104,2.39999996 Z M11.997768,21.6 C12.329117,21.5999073 12.5976618,21.331237 12.5976,20.9998881 C12.5975381,20.6685391 12.328893,20.3999691 11.997544,20.4000001 C11.666195,20.400031 11.3976,20.6686511 11.3976,21 C11.3976663,21.331409 11.666359,21.6000266 11.997768,21.6 Z M6.41519998,9.36386399 L4.60715997,11.1744 L2.99999982,9.56503199 L2.99999982,14.746632 C2.99973478,15.217641 3.38132702,15.5996952 3.85233597,15.6 L9.02685599,15.6 L7.41969598,13.99068 L9.22775999,12.180192 L9.62954399,11.777856 C9.94901447,11.4577746 10.3826763,11.2779032 10.834908,11.2779032 C11.2871397,11.2779032 11.7208015,11.4577746 12.040272,11.777856 L12.692496,12.430944 C12.8867749,10.8656141 12.0656366,9.34963651 10.6484168,8.65718445 C9.23119701,7.96473239 7.53064827,8.2486165 6.41519998,9.36386399 Z" fill="#000000"></path>
    </g>
</svg>