<?xml version="1.0" encoding="UTF-8"?>
<svg width="24px" height="24px" viewBox="0 0 24 24" version="1.1" xmlns="http://www.w3.org/2000/svg" xmlns:xlink="http://www.w3.org/1999/xlink">
    <title>icons/functional_UI/M-S/mdpi/ic_Power</title>
    <g id="icons/functional_UI/M-S/ic_Power" stroke="none" stroke-width="1" fill="none" fill-rule="evenodd">
        <path d="M11.952,20.35128 C7.31279998,20.35128 3.55089596,16.59048 3.55199972,11.95128 C3.55262396,9.32301599 4.71391197,6.96151198 6.59999998,5.42399997 C6.61683124,5.41228378 6.63623223,5.40478513 6.65656798,5.40213597 C6.98837109,5.09963942 7.46134843,5.00781579 7.88223562,5.16418535 C8.30312282,5.3205549 8.60141293,5.69892264 8.65522096,6.14468285 C8.70902898,6.59044306 8.509341,7.02892208 8.13775198,7.28095198 C8.12479707,7.30459348 8.10798134,7.32590313 8.08799998,7.34399998 C6.88605598,8.36337598 5.95199997,10.019544 5.95199997,11.95128 C5.95199997,15.264984 8.63831999,17.95128 11.952,17.95128 C15.26568,17.95128 17.952,15.264984 17.952,11.95128 C17.952,10.1112 17.072064,8.49254399 15.768,7.39199998 C15.7151214,7.34534059 15.6652534,7.29537642 15.618696,7.24240798 C15.1041246,6.85246696 14.9907263,6.12508406 15.3621804,5.59701249 C15.7336345,5.06894093 16.4565401,4.92982778 16.997448,5.28232797 L17.016,5.27999997 C19.054872,6.81261598 20.352,9.20421599 20.352,11.95128 C20.352,16.590456 16.5912,20.35128 11.952,20.35128 Z M11.976,13.2 C11.3132583,13.2 10.776,12.6627417 10.776,12 L10.776,3.59999997 C10.776,2.93725826 11.3132583,2.39999996 11.976,2.39999996 C12.6387417,2.39999996 13.176,2.93725826 13.176,3.59999997 L13.176,12 C13.176,12.6627417 12.6387417,13.2 11.976,13.2 Z" fill="#000000"></path>
    </g>
</svg>