<?xml version="1.0" encoding="UTF-8"?>
<svg width="24px" height="24px" viewBox="0 0 24 24" version="1.1" xmlns="http://www.w3.org/2000/svg" xmlns:xlink="http://www.w3.org/1999/xlink">
    <title>icons/functional_UI/M-S/mdpi/ic_Personal_hotspot</title>
    <g id="icons/functional_UI/M-S/ic_Personal_hotspot" stroke="none" stroke-width="1" fill="none" fill-rule="evenodd">
        <path d="M16.801224,1.79999996 L7.19882398,1.79999996 C6.88071915,1.79999996 6.57570409,1.92666747 6.35088028,2.15171182 C6.12605647,2.37675618 5.99984081,2.68189513 5.99999982,2.99999996 L5.99999982,21 C5.99966852,21.662401 6.53637499,22.1996555 7.19877598,22.2 L16.801176,22.2 C17.1192809,22.2 17.4242959,22.0733325 17.6491197,21.8482882 C17.8739435,21.6232438 18.0001592,21.3181049 17.9999998,21 L17.9999998,2.99999996 C18.0003315,2.33759896 17.463625,1.8003445 16.801224,1.79999996 Z M11.1,2.39999996 L12.9,2.39999996 C13.0656854,2.39999996 13.2,2.53431454 13.2,2.69999996 C13.2,2.86568539 13.0656854,2.99999996 12.9,2.99999996 L11.1,2.99999996 C10.9343146,2.99999996 10.8,2.86568539 10.8,2.69999996 C10.8,2.53431454 10.9343146,2.39999996 11.1,2.39999996 Z M12,21.6 C11.6686291,21.6 11.4,21.3313709 11.4,21 C11.4,20.6686292 11.6686291,20.4 12,20.4 C12.3313709,20.4 12.6,20.6686292 12.6,21 C12.6,21.3313709 12.3313709,21.6 12,21.6 Z M16.8,19.8 L7.19999998,19.8 L7.19999998,3.59999996 L16.8,3.59999996 L16.8,19.8 Z M9.47999999,11.854416 C10.1450034,11.1798066 11.0527263,10.7999969 12,10.7999969 C12.9472737,10.7999969 13.8549966,11.1798066 14.52,11.854416 L15.079992,11.288736 C14.267221,10.464199 13.1577815,9.99997689 12,9.99997689 C10.8422185,9.99997689 9.73277897,10.464199 8.92000799,11.288736 L9.47999999,11.854416 Z M10.600008,12.9858 C10.9694487,12.6110126 11.4737377,12.4000039 12,12.4000039 C12.5262623,12.4000039 13.0305513,12.6110126 13.399992,12.9858 L13.960008,12.42 C13.4427786,11.8953062 12.7367699,11.5999006 12,11.5999006 C11.2632301,11.5999006 10.5572214,11.8953062 10.039992,12.42 L10.600008,12.9858 Z M8.35999198,10.723032 C9.32056135,9.7486066 10.631717,9.20000017 12,9.20000017 C13.368283,9.20000017 14.6794387,9.7486066 15.640008,10.723032 L16.2,10.157352 C15.0916599,9.03300499 13.5787888,8.3999903 12,8.3999903 C10.4212112,8.3999903 8.90834012,9.03300499 7.79999998,10.157352 L8.35999198,10.723032 Z M13.197384,14.4 C13.197384,15.0627417 12.6601257,15.6 11.997384,15.6 C11.3346423,15.6 10.797384,15.0627417 10.797384,14.4 C10.797384,13.7372583 11.3346423,13.2 11.997384,13.2 C12.6601257,13.2 13.197384,13.7372583 13.197384,14.4 Z" fill="#000000"></path>
    </g>
</svg>