<?xml version="1.0" encoding="UTF-8"?>
<svg width="24px" height="24px" viewBox="0 0 24 24" version="1.1" xmlns="http://www.w3.org/2000/svg" xmlns:xlink="http://www.w3.org/1999/xlink">
    <title>icons/functional_UI/M-S/mdpi/ic_Poll</title>
    <g id="icons/functional_UI/M-S/ic_Poll" stroke="none" stroke-width="1" fill="none" fill-rule="evenodd">
        <path d="M20.4,4.19999997 L1.79999996,4.19999997 L1.79999996,18 C1.79999996,18.884136 2.71574396,19.8 3.59999996,19.8 L22.2,19.8 L22.2,5.99999997 C22.2,5.11591197 21.284112,4.19999997 20.4,4.19999997 Z M4.79191197,10.779744 C4.79191197,10.448544 5.06872797,10.200192 5.39999997,10.2 L8.99999999,10.2 C9.15914745,10.1999427 9.31179311,10.2631384 9.42432736,10.3756726 C9.53686162,10.4882069 9.60005731,10.6408525 9.60000003,10.8 L9.60000003,10.8 C9.59988078,11.1313215 9.33132145,11.3998808 8.99999999,11.4000001 L5.39999997,11.4000001 C5.06851197,11.400192 4.79191197,11.111208 4.79191197,10.779744 L4.79191197,10.779744 L4.79191197,10.779744 Z M11.3880566,15.612 C11.3901865,15.7686074 11.3289391,15.9194413 11.2181902,16.0301902 C11.1074412,16.1409391 10.9566074,16.2021865 10.8,16.2 L5.39999997,16.2 C5.06848797,16.200192 4.79200797,15.946848 4.79200797,15.615336 L4.79200797,15.615336 C4.79200797,15.284136 5.06877597,15.000192 5.39999997,14.9999999 L10.8,14.9999999 C11.131512,14.999808 11.3880566,15.28056 11.3880566,15.612 L11.3880566,15.612 Z M11.388,8.41228799 C11.388,8.74348799 11.119584,8.98809599 10.78836,8.98828799 L5.39999997,9.0000001 C5.06848797,9.00019199 4.79200797,8.74715999 4.79200797,8.41564799 C4.79200797,8.08413598 5.06879997,7.80019198 5.39999997,7.79999988 L10.8,7.79999988 C11.131512,7.79980798 11.388,8.08079998 11.388,8.41235999 L11.388,8.41235999 L11.388,8.41228799 Z M16.93452,17.091744 L16.93452,17.091744 C16.7003239,17.326002 16.3205977,17.3261524 16.086216,17.09208 L15.455496,16.462224 L14.82564,17.092944 C14.7131575,17.2055772 14.5605274,17.2688964 14.4013466,17.268964 C14.2421658,17.2690315 14.089482,17.2058417 13.976904,17.093304 L13.976904,17.093304 C13.7426394,16.8591145 13.7424782,16.4793883 13.976544,16.245 L14.6064,15.6144 L13.97568,14.98452 C13.7412086,14.7503601 13.7409561,14.3704594 13.975116,14.135988 C14.2092759,13.9015166 14.5891766,13.9012641 14.823648,14.135424 L15.454368,14.76528 L16.084224,14.134584 C16.1967065,14.0219508 16.3493366,13.9586316 16.5085174,13.958564 C16.6676983,13.9584966 16.820382,14.0216863 16.93296,14.134224 L16.93296,14.134224 C17.1672247,14.3684135 17.1673858,14.7481397 16.93332,14.982528 L16.303464,15.613248 L16.934184,16.243104 C17.0467846,16.3555858 17.1100809,16.5081971 17.110144,16.6673544 C17.1102069,16.8265117 17.0470315,16.9791731 16.93452,17.091744 Z M18.968784,8.40345599 L16.24092,11.795016 C16.2186824,11.8223612 16.1940925,11.847706 16.167432,11.87076 L16.167432,11.87076 C15.9165573,12.0870367 15.5378828,12.0591053 15.321456,11.80836 L13.940136,10.208208 C13.8361084,10.0877014 13.7842362,9.93079259 13.7959396,9.77202665 C13.807643,9.61326071 13.8819626,9.46565415 14.002536,9.36170399 L14.002536,9.36170399 C14.2534073,9.14544354 14.6320633,9.17337436 14.848488,9.42410399 L15.607608,10.303464 C15.6502571,10.3528648 15.7122494,10.3813206 15.7775131,10.3814541 C15.8427769,10.3815877 15.9048851,10.3533858 15.947736,10.30416 L18.327672,7.78355998 C18.545304,7.53355198 18.780408,7.45939198 19.030344,7.67711998 L19.030344,7.67711998 C19.280136,7.89472798 19.186296,8.15359198 18.968784,8.40345599 L18.968784,8.40345599 Z" fill="#000000"></path>
    </g>
</svg>