<?xml version="1.0" encoding="UTF-8"?>
<svg width="24px" height="24px" viewBox="0 0 24 24" version="1.1" xmlns="http://www.w3.org/2000/svg" xmlns:xlink="http://www.w3.org/1999/xlink">
    <title>icons/functional_UI/M-S/mdpi/ic_Photo_Burst_mode</title>
    <g id="icons/functional_UI/M-S/ic_Photo_Burst_mode" stroke="none" stroke-width="1" fill="none" fill-rule="evenodd">
        <path d="M21.6,8.11199998 L21,8.11199998 L21,18.912 C21,19.2302598 20.8735718,19.5354845 20.6485282,19.7605282 C20.4234845,19.9855718 20.1182598,20.112 19.8,20.112 L7.19999998,20.112 L7.19999998,20.712 C7.19999998,21.3747417 7.73725828,21.912 8.39999998,21.912 L21.6,21.912 C22.2627417,21.912 22.8,21.3747417 22.8,20.712 L22.8,9.31199999 C22.8,8.64925829 22.2627417,8.11199998 21.6,8.11199998 Z M18.6,5.11199997 L18,5.11199997 L18,15.912 C18,16.5747417 17.4627417,17.112 16.8,17.112 L4.19999997,17.112 L4.19999997,17.712 C4.19999997,18.3747417 4.73725827,18.912 5.39999997,18.912 L18.6,18.912 C19.2627417,18.912 19.8,18.3747417 19.8,17.712 L19.8,6.31199998 C19.8,5.64925827 19.2627417,5.11199997 18.6,5.11199997 Z M15,3.91199997 L15,14.112 L2.99999996,14.112 L2.99999996,3.91199997 L15,3.91199997 L15,3.91199997 Z M15.6,2.11199996 L2.39999996,2.11199996 C1.73725826,2.11199996 1.19999995,2.64925826 1.19999995,3.31199996 L1.19999995,14.712 C1.19999995,15.3747417 1.73725826,15.912 2.39999996,15.912 L15.6,15.912 C16.2627417,15.912 16.8,15.3747417 16.8,14.712 L16.8,3.31199996 C16.8,2.64925826 16.2627417,2.11199996 15.6,2.11199996 L15.6,2.11199996 Z" fill="#000000"></path>
    </g>
</svg>