<?xml version="1.0" encoding="UTF-8"?>
<svg width="24px" height="24px" viewBox="0 0 24 24" version="1.1" xmlns="http://www.w3.org/2000/svg" xmlns:xlink="http://www.w3.org/1999/xlink">
    <title>icons/functional_UI/M-S/mdpi/ic_Payment_card</title>
    <g id="icons/functional_UI/M-S/ic_Payment_card" stroke="none" stroke-width="1" fill="none" fill-rule="evenodd">
        <path d="M20.4,18.6 L3.59999996,18.6 C2.60588741,18.6 1.79999996,17.7941126 1.79999996,16.8 L1.79999996,7.19999998 C1.79999996,6.20588743 2.60588741,5.39999997 3.59999996,5.39999997 L20.4,5.39999997 C21.3941126,5.39999997 22.2,6.20588743 22.2,7.19999998 L22.2,16.8 C22.2,17.7941126 21.3941126,18.6 20.4,18.6 Z M3.59999996,17.4 L20.4,17.4 C20.7313709,17.4 21,17.1313709 21,16.8 L21,11.4 L2.99999996,11.4 L2.99999996,16.8 C2.99999996,17.1313709 3.26862911,17.4 3.59999996,17.4 Z M20.4,6.59999998 L3.59999996,6.59999998 C3.26862911,6.59999998 2.99999996,6.86862913 2.99999996,7.19999998 L2.99999996,8.99999999 L21,8.99999999 L21,7.19999998 C21,6.86862913 20.7313709,6.59999998 20.4,6.59999998 Z M5.09999997,14.4 L6.29999998,14.4 C6.79705625,14.4 7.19999997,14.8029437 7.19999997,15.3 C7.19999997,15.7970563 6.79705625,16.2 6.29999998,16.2 L5.09999997,16.2 C4.60294369,16.2 4.19999997,15.7970563 4.19999997,15.3 C4.19999997,14.8029437 4.60294369,14.4 5.09999997,14.4 Z M9.29999999,14.4 L10.5,14.4 C10.9970563,14.4 11.4,14.8029437 11.4,15.3 C11.4,15.7970563 10.9970563,16.2 10.5,16.2 L9.29999999,16.2 C8.80294371,16.2 8.39999999,15.7970563 8.39999999,15.3 C8.39999999,14.8029437 8.80294371,14.4 9.29999999,14.4 Z M13.5,14.4 L14.7,14.4 C15.1970563,14.4 15.6,14.8029437 15.6,15.3 C15.6,15.7970563 15.1970563,16.2 14.7,16.2 L13.5,16.2 C13.0029437,16.2 12.6,15.7970563 12.6,15.3 C12.6,14.8029437 13.0029437,14.4 13.5,14.4 L13.5,14.4 Z" fill="#000000"></path>
    </g>
</svg>