<?xml version="1.0" encoding="UTF-8"?>
<svg width="24px" height="24px" viewBox="0 0 24 24" version="1.1" xmlns="http://www.w3.org/2000/svg" xmlns:xlink="http://www.w3.org/1999/xlink">
    <title>icons/functional_UI/M-S/mdpi/ic_Picture_Message</title>
    <g id="icons/functional_UI/M-S/ic_Picture_Message" stroke="none" stroke-width="1" fill="none" fill-rule="evenodd">
        <path d="M19.8,2.99999996 L2.39999996,2.99999996 L2.39999996,15.6 C2.39999996,16.5941126 3.20588741,17.4 4.19999997,17.4 L6.59999998,17.4 L6.59999998,21 L10.2,17.4 L21.6,17.4 L21.6,4.79999997 C21.6,3.80588742 20.7941126,2.99999996 19.8,2.99999996 Z M3.63685996,14.811 C3.63685996,14.8441126 3.63885996,14.8777219 3.63985996,14.911 L3.63685996,14.911 L3.63685996,14.811 Z M3.63674596,15.66892 L3.63674596,15.56892 C3.63674596,15.6024335 3.63894596,15.6355609 3.64004596,15.66892 L3.63674596,15.66892 Z M20.4,15 L15.021024,8.87644799 C14.827056,8.61451199 14.513088,8.61451199 14.31936,8.87644799 L10.8,13.8 L8.11075198,10.479576 C7.91716798,10.21776 7.60291198,10.21776 7.40959198,10.479576 L4.19999997,14.4 C3.87179997,14.143824 3.61120797,13.798392 3.59999996,13.216008 L3.59999996,4.19999997 L19.840008,4.19999997 C20.1491405,4.20034386 20.3996561,4.45085948 20.4,4.75999197 L20.4,15 Z M6.59999998,8.99999999 C7.59411253,8.99999999 8.39999998,8.19411253 8.39999998,7.19999998 C8.39999998,6.20588743 7.59411253,5.39999997 6.59999998,5.39999997 C5.60588742,5.39999997 4.79999997,6.20588743 4.79999997,7.19999998 C4.79999997,8.19411253 5.60588742,8.99999999 6.59999998,8.99999999 Z" fill="#000000"></path>
    </g>
</svg>