<?xml version="1.0" encoding="UTF-8"?>
<svg width="24px" height="24px" viewBox="0 0 24 24" version="1.1" xmlns="http://www.w3.org/2000/svg" xmlns:xlink="http://www.w3.org/1999/xlink">
    <title>icons/functional_UI/M-S/mdpi/ic_Pencil</title>
    <g id="icons/functional_UI/M-S/ic_Pencil" stroke="none" stroke-width="1" fill="none" fill-rule="evenodd">
        <path d="M21.0288,5.71958397 L19.802952,4.49299197 L18.270648,2.95977596 C17.840884,2.52904187 17.2343901,2.32411265 16.631448,2.40590396 C16.61436,2.40818396 16.597344,2.41070396 16.580304,2.41358396 C16.524336,2.42258396 16.468704,2.43381596 16.413552,2.44771196 C16.357992,2.46170396 16.302888,2.47795196 16.248504,2.49688796 C16.247784,2.49715196 16.24704,2.49734396 16.24632,2.49760796 C15.9699853,2.59437512 15.7191063,2.75237028 15.512448,2.95977596 L4.47991197,13.999008 L3.19528796,18.233184 L3.19528796,18.233184 L2.87721596,19.281456 L2.42879996,20.759616 C2.42435996,20.774256 2.42054396,20.788896 2.41715996,20.803464 C2.41607996,20.808072 2.41528796,20.812656 2.41430396,20.817264 C2.41221596,20.827224 2.41022396,20.837184 2.40859196,20.847072 C2.40770396,20.85252 2.40700796,20.857944 2.40619196,20.863392 C2.40494396,20.872464 2.40379196,20.881512 2.40295196,20.890536 C2.40242396,20.896176 2.40199196,20.901768 2.40158396,20.907336 C2.40098396,20.916192 2.40055196,20.925 2.40031196,20.933736 C2.39999996,20.939256 2.39999996,20.944776 2.39999996,20.950272 C2.39999996,20.959296 2.40023996,20.968272 2.40059996,20.977224 C2.40079196,20.982288 2.40091196,20.987352 2.40124796,20.992392 C2.40189596,21.002592 2.40290396,21.01272 2.40403196,21.0228 C2.40446396,21.026448 2.40470396,21.03012 2.40518396,21.033744 C2.40695996,21.047424 2.40916796,21.060968 2.41180796,21.074376 C2.41231196,21.076968 2.41300796,21.079512 2.41353596,21.082104 C2.41581596,21.092856 2.41833596,21.10356 2.42104796,21.11412 C2.42227196,21.118704 2.42368796,21.123216 2.42500796,21.127752 C2.42740796,21.136248 2.42997596,21.144672 2.43275996,21.153024 C2.43443996,21.157992 2.43623996,21.162912 2.43801596,21.167832 C2.44084796,21.175656 2.44377596,21.183408 2.44689596,21.191088 C2.44891196,21.196056 2.45099996,21.200976 2.45311196,21.205896 C2.45642396,21.213464 2.45987196,21.220944 2.46345596,21.228336 C2.46573596,21.233136 2.46796796,21.237768 2.47036796,21.242424 C2.47430396,21.250152 2.47850396,21.257736 2.48275196,21.265272 C2.48503196,21.269376 2.48726396,21.273504 2.48963996,21.277536 C2.49508796,21.286776 2.50084796,21.2958 2.50675196,21.304752 C2.50816796,21.306912 2.50948796,21.309144 2.51095196,21.311304 C2.51837596,21.322264 2.52612796,21.332992 2.53420796,21.343488 C2.53660796,21.346536 2.53900796,21.34944 2.54140796,21.35244 C2.54731196,21.359832 2.55323996,21.367176 2.55945596,21.374304 C2.56269596,21.378048 2.56610396,21.381672 2.56941596,21.385344 C2.57503196,21.391512 2.58069596,21.397632 2.58652796,21.403584 C2.59024796,21.407376 2.59403996,21.411072 2.59785596,21.414792 C2.60363996,21.420408 2.60951996,21.425952 2.61551996,21.431352 C2.61947996,21.434952 2.62343996,21.438552 2.62751996,21.441984 C2.63373596,21.44736 2.64009596,21.452568 2.64652796,21.457704 C2.65053596,21.460872 2.65447196,21.464088 2.65852796,21.467184 C2.66572796,21.472656 2.67292796,21.477864 2.68041596,21.483024 C2.68394396,21.485424 2.68737596,21.488064 2.69092796,21.49044 C2.70194396,21.497832 2.71315196,21.50496 2.72464796,21.51168 C2.72515196,21.511992 2.72567996,21.512256 2.72620796,21.512544 C2.73719996,21.518944 2.74839996,21.525016 2.75980796,21.53076 C2.76369596,21.532728 2.76770396,21.534504 2.77166396,21.5364 C2.77975196,21.540312 2.78791196,21.544152 2.79619196,21.547728 C2.80099196,21.549744 2.80567196,21.551616 2.81039996,21.553512 C2.81817596,21.556656 2.82599996,21.55968 2.83389596,21.562512 C2.83891196,21.564312 2.84395196,21.566016 2.84903996,21.567696 C2.85692796,21.570288 2.86488796,21.572736 2.87291996,21.57504 C2.87800796,21.576504 2.88309596,21.577968 2.88823196,21.579288 C2.89667996,21.581496 2.90517596,21.583416 2.91371996,21.585264 C2.91851996,21.58632 2.92331996,21.587448 2.92811996,21.58836 C2.93807996,21.59028 2.94815996,21.59184 2.95826396,21.593304 C2.96179196,21.593808 2.96524796,21.594456 2.96877596,21.594912 C2.98247196,21.596608 2.99627996,21.59788 3.01019996,21.598728 C3.01300796,21.598896 3.01586396,21.598872 3.01867196,21.598992 C3.02827196,21.599448 3.03787196,21.59988 3.04766396,21.59988 C3.04900796,21.59988 3.05037596,21.59988 3.05171996,21.59988 C3.06031196,21.59988 3.06897596,21.599184 3.07763996,21.598776 C3.08443196,21.598464 3.09119996,21.59832 3.09803996,21.597792 C3.10708796,21.597072 3.11623196,21.595848 3.12532796,21.594744 C3.13185596,21.593952 3.13833596,21.5934 3.14486396,21.592344 C3.15496796,21.590808 3.16514396,21.588672 3.17531996,21.586656 C3.18091196,21.585528 3.18650396,21.584688 3.19211996,21.583416 C3.20752796,21.579912 3.22296796,21.575832 3.23843996,21.571176 C3.23884796,21.571176 3.23925596,21.570984 3.23966396,21.57084 L3.75849597,21.413256 L5.76458397,20.803872 L5.76458397,20.803872 L9.99619199,19.518432 L9.99619199,19.518432 L16.300512,13.21032 L21.0288,8.47939199 C21.2999101,8.2088315 21.4849712,7.86415165 21.560712,7.48869598 C21.562888,7.47799198 21.564968,7.46728798 21.566952,7.45658398 C21.576728,7.40387998 21.584328,7.35091998 21.589752,7.29770398 C21.590376,7.29175198 21.591024,7.28570398 21.591576,7.27984798 C21.597048,7.22064798 21.5999779,7.16127198 21.5999779,7.10171998 C21.5999779,7.10097598 21.5999779,7.10023198 21.5999779,7.09948798 C21.6006865,6.58186089 21.3951396,6.0852801 21.0288,5.71958397 Z M8.61712799,18.138696 L9.51518399,19.037304 L5.28355197,20.32272 L3.67629597,18.71448 L4.96094397,14.480304 L5.85899997,15.378888 L16.89156,4.33967997 L17.351256,4.79963997 L6.31867198,15.838872 L8.15743198,17.678736 L19.190016,6.63950398 L19.649712,7.09948798 L8.61712799,18.138696 Z" fill="#000000"></path>
    </g>
</svg>