<?xml version="1.0" encoding="UTF-8"?>
<svg width="24px" height="24px" viewBox="0 0 24 24" version="1.1" xmlns="http://www.w3.org/2000/svg" xmlns:xlink="http://www.w3.org/1999/xlink">
    <title>icons/functional_UI/M-S/mdpi/ic_Parking</title>
    <g id="icons/functional_UI/M-S/ic_Parking" stroke="none" stroke-width="1" fill="none" fill-rule="evenodd">
        <path d="M20.2032,13.526784 L20.203056,13.526616 L17.76,13.05984 L14.22,9.29949599 C14.0301739,9.10667645 13.7705772,8.99860636 13.4999986,8.99975085 L6.99998398,8.99975085 C6.68359752,8.99948557 6.38579031,9.14912814 6.19718398,9.40315199 L3.20023196,13.405824 L3.19715996,13.409928 L3.19528796,13.412328 L3.19528796,13.412328 C3.06812663,13.58399 2.99964851,13.7920501 2.99999862,14.00568 L2.99999862,14.00568 L2.99999862,17.499936 C2.99999862,18.0521593 3.44778466,18.4997851 3.99999862,18.499944 L4.49999862,18.499944 C4.49999862,19.8806603 5.61929168,20.999952 6.99999862,20.999952 C8.38072428,20.999952 9.50001599,19.8806603 9.50001599,18.499944 L14.000016,18.499944 C14.000016,19.8806603 15.1193077,20.999952 16.500024,20.999952 C17.8807403,20.999952 19.000032,19.8806603 19.000032,18.499944 L20.00004,18.499944 C20.5522501,18.4997718 20.9999986,18.0521461 20.9999986,17.499936 L20.9999986,14.505288 L20.9999986,14.505288 C20.9999986,14.0315158 20.6671137,13.6229306 20.2032,13.526784 Z M9.73999199,12.999288 L4.96675197,12.999288 L7.14691198,10.0824 L7.14916798,10.079688 L9.73999199,10.079688 L9.73999199,12.999288 L9.73999199,12.999288 Z M11.239968,12.999264 L11.239968,10.0796587 L13.463832,10.0796587 C13.4659308,10.079621 13.4680268,10.0798386 13.470072,10.080312 L16.213272,12.999264 L11.239968,12.999264 L11.239968,12.999264 Z M18.844536,5.07729597 C18.808852,5.00991366 18.755752,4.95333283 18.690768,4.91344797 C18.6225672,4.87329387 18.5472227,4.84675538 18.468912,4.83530397 C18.3821824,4.82166009 18.294508,4.81491096 18.206712,4.81511526 L17.591592,4.81511526 L17.591592,5.89411822 L18.206712,5.89411822 C18.2945083,5.89435316 18.3821846,5.88761191 18.468912,5.87395197 C18.5472406,5.86255872 18.6225975,5.8360077 18.690768,5.79578397 C18.7557678,5.75591839 18.8088722,5.69933274 18.844536,5.63193597 C18.883144,5.56132797 18.902472,5.46888797 18.9025201,5.35461597 C18.902568,5.24034397 18.88324,5.14790397 18.844536,5.07729597 Z M20.200008,2.99999996 L15.799992,2.99999996 C15.3581686,2.99999996 15,3.35816858 15,3.79999197 L15,8.20000798 C15,8.64183137 15.3581686,8.99999996 15.799992,8.99999996 L20.200008,8.99999996 C20.6418314,8.99999996 21,8.64183137 21,8.20000798 L21,3.79999197 C21,3.35816858 20.6418314,2.99999996 20.200008,2.99999996 Z M19.6008,5.78066397 C19.5563843,5.91851027 19.4823867,6.04498759 19.383984,6.15124798 C19.2759042,6.26491462 19.1442559,6.35354848 18.99828,6.41092798 C18.840232,6.47652798 18.648632,6.50932798 18.42348,6.50932798 L17.591592,6.50932798 L17.591592,7.79999998 L16.8,7.79999998 L16.8,4.19999997 L18.423528,4.19999997 C18.648696,4.19999997 18.840296,4.23279997 18.998328,4.29839997 C19.1442807,4.35582363 19.27592,4.44445143 19.384032,4.55807997 C19.4820014,4.66369661 19.5559647,4.78925585 19.600848,4.92614397 C19.6915645,5.20376368 19.6915477,5.50305445 19.6008,5.78066397 L19.6008,5.78066397 Z" fill="#000000"></path>
    </g>
</svg>