<svg width="24" height="24">
<path fill-rule="evenodd" clip-rule="evenodd" d="M12 20.8889C16.9092 20.8889 20.8889 16.9092 20.8889 12C20.8889 7.0908 16.9092 3.11111 12 3.11111C9.05374 3.11111 6.44228 4.54452 4.82494 6.752C5.64152 6.15657 6.94194 5.93529 8.15653 6.01602C9.08132 6.07655 10.0722 6.42658 10.8078 6.95294C11.6365 7.54773 12.0569 8.29517 11.9938 9.06103C11.9488 9.57687 11.6845 10.098 11.2402 10.5612C11.1621 10.5322 11.075 10.5243 10.991 10.5348C11.4624 10.0795 11.7446 9.55844 11.7866 9.04787C11.8437 8.34254 11.4503 7.64774 10.6757 7.09243C9.97309 6.58449 9.02728 6.25288 8.14152 6.19498C6.33698 6.07918 4.34028 6.63976 4.21417 8.14516C4.08205 9.71635 5.95866 11.7034 7.67312 11.8139C7.78537 11.8211 7.8686 11.8334 7.94139 11.8442C8.03862 11.8585 8.11721 11.8702 8.22141 11.8632L7.814 10.9702C7.69558 10.9899 7.57838 11 7.46388 11C6.92466 11 6.30031 10.7042 5.79721 10.2073C5.29928 9.71273 5 9.10909 5 8.58788C5 7.49697 6.27709 7 7.46388 7C8.0418 7 8.67389 7.18909 9.15635 7.50909C9.70072 7.8703 10 8.3503 10 8.86182C10 9.20848 9.86068 9.56485 9.61042 9.89212C9.57157 9.87934 9.53126 9.87619 9.49169 9.87955C9.709 10.3154 9.94702 10.7921 10.1635 11.2245C10.2842 10.9698 10.4982 10.7624 10.7643 10.6468C10.8878 10.5917 11.0195 10.5602 11.1567 10.5602C11.4502 10.5602 11.7191 10.7072 11.9029 10.9698C11.977 10.7912 12.1307 10.5891 12.4517 10.4446C12.5834 10.3842 12.726 10.3501 12.8714 10.3501C13.4147 10.3501 13.7137 10.7939 13.8427 11.0565C13.9003 11.1641 13.9662 11.2691 14.0347 11.3716C14.0402 11.3164 14.0457 11.2639 14.0567 11.2114C14.1225 10.9094 14.3119 10.7834 14.4216 10.7335C14.5725 10.6626 14.7399 10.6258 14.9072 10.6232C15.2968 10.6232 15.6316 10.8464 15.8236 11.235C15.9937 11.5685 17.4259 14.3965 17.596 14.8508C17.7771 15.3418 17.8759 16.2293 17.7085 16.9435L17.9362 17.4057C17.9966 17.5317 18.0707 17.7864 17.8621 18.0989C17.5384 18.5899 16.5699 19.0862 16.0211 19.3383C15.6864 19.4932 14.5341 20 13.8235 20C13.3269 20 13.1293 19.7505 13.058 19.6035L12.9099 19.3042C12.4078 19.1624 10.4104 18.5558 9.40897 17.6C8.79165 17.0092 8.39382 16.505 8.04263 16.056C7.77924 15.7199 7.55152 15.4311 7.29636 15.2026C7.022 14.9558 6.9342 14.6512 7.04943 14.3414C7.16192 14.042 7.4308 13.8319 7.63109 13.7427C7.71065 13.7059 7.79571 13.6849 7.8835 13.6797H7.91368H7.93014C8.31151 13.6928 8.97273 14.0683 9.39525 14.4359L8.30243 12.0407C8.15055 12.0632 8.06642 12.0489 7.95126 12.0293C7.876 12.0165 7.78747 12.0014 7.65811 11.9929C6.79337 11.9376 5.82955 11.4297 5.08491 10.6349C4.34628 9.84794 3.94093 8.91102 4.00699 8.132L4.00993 8.10041C3.43424 9.27775 3.11111 10.6011 3.11111 12C3.11111 16.9092 7.0908 20.8889 12 20.8889ZM7.3688 9.99449L7.76067 10.8534C7.65889 10.8685 7.5587 10.8764 7.4613 10.8764C6.39061 10.8764 5.12642 9.63515 5.12642 8.58545C5.12642 7.57939 6.33643 7.12121 7.4613 7.12121C8.01342 7.12121 8.61713 7.30303 9.07895 7.60848C9.58978 7.94545 9.86842 8.38909 9.86842 8.86182C9.86842 9.19262 9.73069 9.53703 9.47862 9.85333C9.2942 9.48343 9.12542 9.14445 8.99843 8.88912C8.98726 8.743 8.91683 8.60282 8.79376 8.4771C8.77933 8.44795 8.77018 8.4294 8.76696 8.42276C8.72854 8.34661 8.67093 8.28096 8.59959 8.23107C8.41577 8.08403 8.18256 8.00263 7.94386 8L7.94661 8.00263C7.88353 8.00263 7.82095 8.00834 7.75972 8.01956C7.66528 8.0067 7.57093 8 7.47901 8C6.7679 8 6 8.24758 6 8.79304C6 9.05416 6.18025 9.3559 6.47901 9.60348C6.74658 9.8234 7.0726 9.96548 7.3688 9.99449ZM7.91248 9.93889C7.92274 9.93613 7.93299 9.93329 7.94321 9.93037C7.9284 9.91296 7.91852 9.89555 7.90864 9.87621C7.90133 9.87818 7.894 9.88011 7.88667 9.882L7.52957 9.09497C7.52134 8.98468 7.52134 8.64595 7.74358 8.54617C7.80668 8.51729 7.87527 8.50153 7.94661 8.50416C8.13108 8.50416 8.26263 8.61178 8.28987 8.63407L8.29179 8.63564C8.29373 8.63722 8.29483 8.63807 8.29505 8.63807C8.31108 8.67156 8.46694 8.9851 8.68719 9.42751C8.68287 9.43202 8.6785 9.43652 8.67407 9.44101C8.68028 9.43988 8.68648 9.43906 8.69266 9.4385C9.30253 10.6635 10.3967 12.8578 10.3967 12.8578C10.468 13.0022 10.6518 13.0652 10.8027 12.9943C10.9399 12.9313 11.0085 12.779 10.9591 12.6398L10.5915 11.5869C10.6271 11.3716 10.7726 11.1904 10.9811 11.1037C11.0332 11.0775 11.0936 11.0643 11.1512 11.0643C11.3268 11.0643 11.4338 11.2009 11.4832 11.2849L12.18 12.2775C12.2377 12.3589 12.3337 12.4061 12.4352 12.4061C12.4873 12.4061 12.5422 12.393 12.5861 12.3667C12.726 12.2906 12.7782 12.1225 12.7041 11.9834L12.3529 11.3059C12.3502 11.2245 12.3748 11.0328 12.6657 10.9015C12.7288 10.8726 12.7974 10.8569 12.866 10.8543C13.1047 10.8543 13.2665 11.0696 13.3653 11.2744C13.5217 11.5921 14.0869 12.3457 14.15 12.4298C14.2076 12.5059 14.2981 12.5505 14.3969 12.5505C14.4463 12.5505 14.4929 12.54 14.5368 12.5164C14.6713 12.4508 14.7344 12.2985 14.6823 12.1619C14.5396 11.7759 14.4875 11.2534 14.6329 11.1877C14.7152 11.1484 14.8057 11.1274 14.8963 11.1247C15.124 11.1247 15.2639 11.2902 15.3435 11.453C15.3435 11.453 16.9293 14.5777 17.0939 15.0214C17.2585 15.4652 17.3354 16.2871 17.1735 16.8989C17.157 16.9646 17.1625 17.0328 17.1927 17.0932L17.4506 17.621C17.692 18.112 14.7783 19.5011 13.807 19.5011C13.6561 19.5011 13.5519 19.467 13.5135 19.3908L13.3241 19.0074C13.2857 18.9313 13.2144 18.8735 13.1293 18.8499C13.1074 18.8446 10.7918 18.2302 9.7629 17.2481C9.17027 16.6836 8.78616 16.1926 8.44595 15.7567C8.1661 15.3996 7.92466 15.0923 7.63657 14.835C7.48293 14.6958 7.49665 14.5882 7.52409 14.5094C7.5817 14.3571 7.74083 14.2389 7.83686 14.1943C7.85607 14.1838 7.87802 14.1786 7.89996 14.1759C8.13043 14.1838 8.88219 14.5934 9.21417 14.9847C9.33763 15.1317 9.45012 15.284 9.55164 15.4442C9.73272 15.7147 9.87813 15.9274 10.1251 15.9825C10.147 15.9877 10.1717 15.9904 10.1936 15.9904C10.361 15.9904 10.4982 15.8591 10.4982 15.6989C10.4982 15.6595 10.49 15.6201 10.4735 15.5834L7.91248 9.93889ZM7.60122 8.06203C7.57411 8.07171 7.54746 8.08255 7.52134 8.09453C7.16467 8.2547 6.9781 8.6302 7.00828 9.12385C7.01102 9.18162 7.02749 9.23939 7.04943 9.29453L7.33785 9.92665C6.73108 9.84663 6.07901 9.27727 6.07901 8.7911C6.07901 8.2882 6.80494 8.05803 7.47901 8.05803C7.51934 8.05803 7.56015 8.05938 7.60122 8.06203ZM12 22C17.5228 22 22 17.5228 22 12C22 6.47715 17.5228 2 12 2C6.47715 2 2 6.47715 2 12C2 17.5228 6.47715 22 12 22Z"/>
</svg>
