<svg xmlns="http://www.w3.org/2000/svg" width="24" height="24"><path fill-rule="evenodd" d="M16.387 4H5.032c-.57.002-1.03.478-1.032 1.067V15.2c.002.588.463 1.065 1.032 1.067h1.549v-3.2H5.409a.383.383 0 0 1-.377-.39V7.59c0-.215.169-.389.377-.389h12.01V5.067c-.001-.589-.463-1.065-1.032-1.067ZM5.357 14.053h.46c.18 0 .325.15.325.336v.555a.33.33 0 0 1-.325.336h-.46a.32.32 0 0 1-.23-.098.342.342 0 0 1-.095-.238v-.555a.33.33 0 0 1 .325-.336Zm.897-8.236a.34.34 0 0 1-.095.238.32.32 0 0 1-.23.098h-.572a.32.32 0 0 1-.23-.098.342.342 0 0 1-.095-.238v-.555a.33.33 0 0 1 .325-.336h.572c.18 0 .325.15.325.336v.555Zm2.03-.02a.33.33 0 0 1-.325.336h-.537a.32.32 0 0 1-.23-.098.342.342 0 0 1-.095-.238v-.554a.34.34 0 0 1 .095-.238.32.32 0 0 1 .23-.098h.537c.18 0 .325.15.325.336v.554Zm2.064 0a.33.33 0 0 1-.325.336h-.537a.32.32 0 0 1-.23-.098.342.342 0 0 1-.095-.238v-.554c0-.09.035-.175.095-.238a.32.32 0 0 1 .23-.098h.537c.18 0 .325.15.325.336v.554Zm2.065 0a.34.34 0 0 1-.095.238.32.32 0 0 1-.23.098h-.537a.32.32 0 0 1-.23-.098.342.342 0 0 1-.095-.238v-.554a.34.34 0 0 1 .095-.238.32.32 0 0 1 .23-.098h.537c.18 0 .325.15.325.336v.554Zm2.064 0a.33.33 0 0 1-.325.336h-.537a.33.33 0 0 1-.325-.336v-.554a.33.33 0 0 1 .325-.336h.537c.18 0 .325.15.325.336v.554Zm2.065 0a.33.33 0 0 1-.325.336h-.537a.32.32 0 0 1-.23-.098.342.342 0 0 1-.095-.238v-.554a.34.34 0 0 1 .095-.238.32.32 0 0 1 .23-.098h.537c.18 0 .325.15.325.336v.554Zm3.452 2.888a1.05 1.05 0 0 0-1.026-.952H8.129c-.57.002-1.03.479-1.032 1.067v10.133c0 .59.462 1.066 1.032 1.067h10.839c.57-.002 1.03-.478 1.032-1.067V8.823c0-.046-.002-.092-.006-.138Zm-1.026 4.382v4.266l-1.58-1.874-1.902-2.257a.37.37 0 0 0-.556-.016l-2.223 2.375-.138.148a.369.369 0 0 1-.542 0l-.729-.779a.366.366 0 0 0-.52-.021l-1.484 1.358-1.165 1.066V8.8h10.839v4.267Zm-6.71-1.334c0-.736-.578-1.333-1.29-1.333-.713 0-1.29.597-1.29 1.333 0 .737.577 1.334 1.29 1.334.342 0 .67-.14.912-.39s.378-.59.378-.944Z"/></svg>