<?xml version="1.0" encoding="UTF-8"?>
<svg width="24px" height="24px" viewBox="0 0 24 24" version="1.1" xmlns="http://www.w3.org/2000/svg" xmlns:xlink="http://www.w3.org/1999/xlink">
    <title>icons/functional_UI/M-S/mdpi/ic_Picture_document</title>
    <g id="icons/functional_UI/M-S/ic_Picture_document" stroke="none" stroke-width="1" fill="none" fill-rule="evenodd">
        <path d="M15,1.79999996 L15,5.39999997 C15,6.06273598 15.4776,6.59999998 16.066632,6.59999998 L19.8,6.59999998 L15,1.79999996 Z M15.674976,11.4 L7.79999998,11.4 L7.79999998,16.548456 C7.80559198,16.829592 7.91589598,16.965432 8.08000798,17.08908 L9.70480799,15.268632 C9.80147999,15.142272 9.95860799,15.142272 10.0554,15.268632 L11.16,16.818768 L13.15968,14.494824 C13.256544,14.368392 13.413504,14.368392 13.510512,14.494824 L16.2,17.55 L16.2,11.925 C16.2,11.7857572 16.1446844,11.6522177 16.0462226,11.5537605 C15.9477608,11.4553032 15.8142188,11.4 15.674976,11.4 Z M9.87055199,14.39952 C9.38140924,14.3835056 8.99471653,13.9795595 9.00005551,13.4901838 C9.00539448,13.000808 9.40080803,12.6053945 9.89018374,12.6000555 C10.3795595,12.5947165 10.7835056,12.9814093 10.79952,13.470552 C10.8067125,13.7190648 10.7111509,13.9595535 10.5353522,14.1353522 C10.3595535,14.3111509 10.1190648,14.4067125 9.87055199,14.39952 Z M16.2,7.79999996 C14.8745166,7.79999996 13.8,6.72548338 13.8,5.39999997 L13.8,1.79999996 L4.19999997,1.79999996 L4.19999997,21 C4.19999997,21.6627143 4.73728572,22.2 5.39999997,22.2 L19.8,22.2 L19.8,7.79999996 L16.2,7.79999996 Z M16.8,19.2 L8.22863998,19.2 C7.66054329,19.2 7.19999998,18.7394567 7.19999998,18.17136 L7.19999998,10.8 L15.77136,10.8 C16.3394567,10.8 16.8,11.2605433 16.8,11.82864 L16.8,19.2 Z" fill="#000000"></path>
    </g>
</svg>