<svg width="24" height="24"><path fill-rule="evenodd" d="M3.275 5.758c-.17 2.02 2.243 4.575 4.448 4.717.144.01.25.025.345.039.125.018.226.033.36.024L7.904 9.39a3 3 0 0 1-.45.039c-.694 0-1.496-.38-2.143-1.02-.64-.635-1.025-1.412-1.025-2.082 0-1.402 1.642-2.041 3.168-2.041a4.1 4.1 0 0 1 2.176.654c.7.465 1.084 1.082 1.084 1.74 0 .445-.179.903-.5 1.324a.4.4 0 0 0-.153-.016l.864 1.73a1.53 1.53 0 0 1 .772-.744c.159-.07.328-.11.504-.11.378 0 .724.188.96.526.095-.23.293-.49.705-.675.17-.078.353-.122.54-.122.699 0 1.083.57 1.249.908q.113.208.247.405a2 2 0 0 1 .028-.206c.085-.388.328-.55.47-.614a1.5 1.5 0 0 1 .624-.142c.5 0 .93.287 1.178.787.218.428 2.06 4.065 2.279 4.649.232.63.36 1.772.144 2.69l.293.595c.078.162.173.489-.095.89-.416.632-1.662 1.27-2.367 1.594-.43.2-1.912.851-2.826.851-.638 0-.892-.32-.984-.51l-.19-.385c-.646-.182-3.214-.962-4.502-2.19-.793-.76-1.305-1.408-1.756-1.986-.339-.432-.632-.803-.96-1.097-.353-.317-.465-.709-.317-1.107.144-.385.49-.655.748-.77a.9.9 0 0 1 .324-.081h.06c.49.017 1.34.5 1.884.972l-1.405-3.08c-.196.03-.304.011-.452-.014a3 3 0 0 0-.377-.047c-1.112-.07-2.35-.724-3.308-1.746-.95-1.012-1.47-2.216-1.386-3.218.178-2.094 2.891-2.883 5.335-2.72 1.19.077 2.463.527 3.409 1.204 1.065.765 1.606 1.726 1.525 2.71-.058.664-.398 1.334-.97 1.93a.7.7 0 0 0-.32-.034c.607-.586.97-1.256 1.023-1.912.074-.907-.432-1.8-1.428-2.514-.903-.654-2.12-1.08-3.258-1.154-2.32-.15-4.887.572-5.05 2.507m4.056 2.378.504 1.104q-.196.03-.385.03c-1.376 0-3.002-1.596-3.002-2.946 0-1.293 1.556-1.882 3.002-1.882.71 0 1.486.233 2.08.626.657.433 1.015 1.004 1.015 1.611 0 .426-.177.869-.501 1.275l-.617-1.24a.85.85 0 0 0-.264-.53l-.034-.069a.7.7 0 0 0-.215-.246 1.38 1.38 0 0 0-.843-.298l.003.004q-.12 0-.24.022a3 3 0 0 0-.361-.026c-.914 0-1.902.319-1.902 1.02 0 .336.232.724.616 1.042.344.283.763.465 1.144.503m.7-.072.039-.01a.3.3 0 0 1-.045-.07l-.028.007-.459-1.012c-.01-.142-.01-.577.275-.705a.6.6 0 0 1 .261-.054c.237 0 .407.138.442.167l.006.005c.02.043.221.446.504 1.015l-.016.017.023-.003 2.191 4.396a.4.4 0 0 0 .522.176.37.37 0 0 0 .201-.456l-.472-1.354a.82.82 0 0 1 .5-.621.5.5 0 0 1 .22-.05c.225 0 .363.175.426.283l.896 1.276a.4.4 0 0 0 .522.115.363.363 0 0 0 .152-.493l-.452-.871c-.003-.105.029-.351.403-.52a.7.7 0 0 1 .257-.06c.307 0 .515.276.642.54.201.408.928 1.377 1.009 1.485a.395.395 0 0 0 .497.111.363.363 0 0 0 .187-.456c-.183-.496-.25-1.168-.063-1.252a.8.8 0 0 1 .338-.081c.293 0 .473.213.575.422 0 0 2.04 4.017 2.251 4.588.212.57.31 1.627.102 2.414a.36.36 0 0 0 .025.25l.332.678c.31.632-3.436 2.418-4.685 2.418-.194 0-.328-.044-.377-.142l-.244-.493a.4.4 0 0 0-.25-.203c-.028-.006-3.006-.797-4.329-2.06-.762-.725-1.255-1.356-1.693-1.917-.36-.459-.67-.854-1.04-1.185-.198-.179-.18-.317-.145-.418.074-.196.279-.348.402-.405a.2.2 0 0 1 .081-.024c.297.01 1.263.537 1.69 1.04q.238.283.434.59c.233.348.42.622.737.693a.385.385 0 0 0 .48-.365q0-.076-.032-.149zm-.4-2.413q-.053.02-.104.042c-.458.206-.698.689-.66 1.323a.7.7 0 0 0 .054.22l.37.813c-.78-.103-1.618-.835-1.618-1.46 0-.647.933-.943 1.8-.943q.078 0 .157.005" clip-rule="evenodd"/></svg>