<?xml version="1.0" encoding="UTF-8"?>
<svg width="24px" height="24px" viewBox="0 0 24 24" version="1.1" xmlns="http://www.w3.org/2000/svg" xmlns:xlink="http://www.w3.org/1999/xlink">
    <title>icons/functional_UI/M-S/mdpi/ic_Push_to_Mobile</title>
    <g id="icons/functional_UI/M-S/ic_Push_to_Mobile" stroke="none" stroke-width="1" fill="none" fill-rule="evenodd">
        <path d="M7.19999998,16.752 L7.19999998,19.8 L16.799568,19.8 L16.799568,3.59999996 L7.19999998,3.59999996 L7.19999998,12.528 C6.97600798,12.713568 6.46029598,12.8094 5.99999267,12.6 L5.99999267,2.99999996 C5.99889042,2.6823077 6.12424367,2.37723161 6.34839606,2.15209763 C6.57254846,1.92696366 6.8770739,1.80027857 7.19476798,1.79999996 L16.800768,1.79999996 C17.118926,1.79999996 17.4240125,1.9265872 17.6489122,2.15163086 C17.8738118,2.37667452 17.9999927,2.68184201 17.9999927,2.99999996 L17.9999927,21 C17.9999927,21.318158 17.8738118,21.6233255 17.6489122,21.8483691 C17.4240125,22.0734128 17.118926,22.2 16.800768,22.2 L7.19476798,22.2 C6.8770739,22.1997214 6.57254846,22.0730363 6.34839606,21.8479024 C6.12424367,21.6227684 5.99889042,21.3176923 5.99999267,21 L5.99999267,16.2 C6.37735198,16.5054 6.97979998,16.704 7.19999998,16.752 Z M12.898104,2.39999996 L11.097456,2.39999996 C10.9317706,2.39999996 10.797456,2.53431454 10.797456,2.69999996 C10.797456,2.86568539 10.9317706,2.99999996 11.097456,2.99999996 L12.898104,2.99999996 C13.0637894,2.99999996 13.198104,2.86568539 13.198104,2.69999996 C13.198104,2.53431454 13.0637894,2.39999996 12.898104,2.39999996 Z M11.997768,21.6 C12.329117,21.5999073 12.5976618,21.331237 12.5976,20.9998881 C12.5975381,20.6685391 12.328893,20.3999691 11.997544,20.4000001 C11.666195,20.400031 11.3976,20.6686511 11.3976,21 C11.3976663,21.331409 11.666359,21.6000266 11.997768,21.6 Z M10.984512,15.236136 L12.79272,13.4256 L14.4000001,15.034968 L14.4000001,9.85336799 C14.4002519,9.38234577 14.0186382,9.00029151 13.547616,8.99999999 L8.37268798,8.99999999 L9.97996799,10.60932 L8.17175998,12.419808 L7.76995198,12.822144 C7.45044243,13.1422253 7.01675118,13.3220932 6.56449198,13.3220932 C6.11223277,13.3220932 5.67854153,13.1422253 5.35903197,12.822144 L4.70675997,12.169056 C4.51254523,13.7344719 5.3337792,15.2504892 6.75108847,15.9429346 C8.16839774,16.6353801 9.86902032,16.3514497 10.984512,15.236136 L10.984512,15.236136 Z" fill="#000000"></path>
    </g>
</svg>