<svg width="24" height="24">
<path fill-rule="evenodd" clip-rule="evenodd" d="M3.27536 5.75806C3.1055 7.77817 5.51827 10.3329 7.72258 10.475C7.8669 10.4843 7.97392 10.5001 8.0675 10.5139C8.19252 10.5324 8.29355 10.5474 8.42753 10.5384L7.90372 9.39032C7.75147 9.41552 7.60078 9.42857 7.45356 9.42857C6.76028 9.42857 5.95754 9.04831 5.3107 8.40935C4.6705 7.77351 4.28571 6.9974 4.28571 6.32727C4.28571 4.92468 5.92769 4.28571 7.45356 4.28571C8.19659 4.28571 9.00929 4.52883 9.62959 4.94026C10.3295 5.40468 10.7143 6.02182 10.7143 6.67948C10.7143 7.12519 10.5352 7.58338 10.2134 8.00416C10.1635 7.98773 10.1116 7.98367 10.0607 7.98799C10.3401 8.54837 10.6462 9.16131 10.9245 9.71722C11.0797 9.38975 11.3548 9.12304 11.697 8.97449C11.8557 8.90359 12.0251 8.86308 12.2014 8.86308C12.5789 8.86308 12.9246 9.05214 13.1609 9.38975C13.2562 9.16018 13.4537 8.90022 13.8664 8.71454C14.0358 8.63689 14.2192 8.593 14.4061 8.593C15.1046 8.593 15.4891 9.16355 15.6549 9.50116C15.729 9.63958 15.8136 9.77462 15.9018 9.90628C15.9089 9.83539 15.9159 9.76786 15.93 9.70034C16.0147 9.3121 16.2581 9.15005 16.3992 9.0859C16.5932 8.99475 16.8084 8.94748 17.0236 8.94411C17.5245 8.94411 17.9548 9.23107 18.2018 9.73073C18.4205 10.1595 20.2619 13.7955 20.4806 14.3796C20.7134 15.0109 20.8404 16.152 20.6252 17.0703L20.918 17.6645C20.9956 17.8265 21.0908 18.154 20.8227 18.5557C20.4065 19.1871 19.1613 19.8251 18.4558 20.1492C18.0254 20.3484 16.5438 21 15.6302 21C14.9917 21 14.7377 20.6793 14.646 20.4902L14.4555 20.1053C13.81 19.923 11.2419 19.1432 9.95439 17.9143C9.16069 17.1547 8.6492 16.5065 8.19767 15.9292C7.85903 15.497 7.56624 15.1257 7.23818 14.8319C6.88543 14.5146 6.77254 14.123 6.9207 13.7246C7.06533 13.3397 7.41103 13.0696 7.66854 12.9549C7.77084 12.9076 7.88019 12.8806 7.99307 12.8738H8.03188H8.05304C8.54337 12.8907 9.39351 13.3735 9.93675 13.8461L8.53169 10.7666C8.33642 10.7956 8.22826 10.7772 8.0802 10.7519C7.98342 10.7355 7.86961 10.7161 7.70328 10.7051C6.59148 10.6341 5.35227 9.981 4.39489 8.9591C3.44522 7.94735 2.92406 6.74273 3.00899 5.74114C3.18657 3.64659 5.90046 2.85817 8.34411 3.02059C9.53313 3.09842 10.8071 3.54846 11.7529 4.22521C12.8184 4.98994 13.3588 5.95093 13.2778 6.93561C13.2198 7.59883 12.8801 8.26881 12.3088 8.86435C12.2084 8.82713 12.0965 8.81698 11.9884 8.83052C12.5945 8.24513 12.9573 7.57514 13.0114 6.91869C13.0847 6.01184 12.579 5.11853 11.583 4.40455C10.6797 3.75149 9.46364 3.32513 8.32481 3.25069C6.00469 3.1018 3.4375 3.82254 3.27536 5.75806ZM7.33132 8.13577L7.83515 9.24004C7.70428 9.25952 7.57547 9.26961 7.45024 9.26961C6.07364 9.26961 4.44825 7.67377 4.44825 6.32416C4.44825 5.03065 6.00398 4.44156 7.45024 4.44156C8.16011 4.44156 8.93631 4.67532 9.53007 5.06805C10.1869 5.5013 10.5451 6.07169 10.5451 6.67948C10.5451 7.10479 10.368 7.54762 10.0439 7.95428C9.80683 7.4787 9.58983 7.04287 9.42655 6.71458C9.41219 6.52671 9.32164 6.34648 9.16341 6.18484C9.14485 6.14737 9.13308 6.12351 9.12894 6.11497C9.07956 6.01707 9.00548 5.93267 8.91376 5.86852C8.67742 5.67946 8.37758 5.5748 8.07068 5.57143L8.07421 5.5748C7.99311 5.5748 7.91265 5.58215 7.83392 5.59657C7.71251 5.58004 7.59119 5.57143 7.47302 5.57143C6.55873 5.57143 5.57143 5.88975 5.57143 6.59105C5.57143 6.92678 5.80317 7.31473 6.1873 7.63305C6.53132 7.91579 6.95048 8.09847 7.33132 8.13577ZM8.03033 8.06428C8.04352 8.06074 8.05669 8.05709 8.06984 8.05333C8.05079 8.03095 8.03809 8.00857 8.0254 7.9837C8.01599 7.98624 8.00657 7.98872 7.99714 7.99114L7.53802 6.97924C7.52744 6.83745 7.52744 6.40194 7.81317 6.27365C7.8943 6.23651 7.98249 6.21626 8.07421 6.21963C8.31139 6.21963 8.48052 6.35801 8.51554 6.38666C8.51958 6.38996 8.52184 6.39181 8.5222 6.39181C8.54282 6.43486 8.74321 6.83798 9.02639 7.4068C9.02084 7.4126 9.01522 7.41839 9.00952 7.42415C9.0175 7.42271 9.02547 7.42164 9.03342 7.42093C9.81754 8.99594 11.2243 11.8171 11.2243 11.8171C11.316 12.0028 11.5524 12.0838 11.7464 11.9927C11.9228 11.9117 12.0109 11.7158 11.9474 11.5369L11.4748 10.1831C11.5206 9.90628 11.7076 9.67334 11.9757 9.56193C12.0427 9.52816 12.1203 9.51128 12.1944 9.51128C12.4201 9.51128 12.5577 9.68684 12.6212 9.79487L13.5172 11.071C13.5913 11.1757 13.7147 11.2364 13.8453 11.2364C13.9123 11.2364 13.9828 11.2196 14.0393 11.1858C14.2192 11.0879 14.2862 10.8718 14.191 10.6929L13.7394 9.82188C13.7359 9.71722 13.7677 9.47077 14.1416 9.30197C14.2227 9.26483 14.3109 9.24458 14.3991 9.2412C14.706 9.2412 14.9141 9.51804 15.0411 9.78137C15.2422 10.1899 15.9688 11.1588 16.05 11.2668C16.1241 11.3647 16.2405 11.4221 16.3675 11.4221C16.431 11.4221 16.4909 11.4086 16.5474 11.3782C16.7202 11.2938 16.8013 11.098 16.7343 10.9225C16.5509 10.4262 16.4839 9.75436 16.6708 9.66996C16.7767 9.61932 16.8931 9.59231 17.0095 9.58893C17.3023 9.58893 17.4822 9.80163 17.5845 10.0109C17.5845 10.0109 19.6234 14.0284 19.835 14.599C20.0467 15.1696 20.1455 16.2263 19.9373 17.0129C19.9162 17.0973 19.9232 17.1851 19.962 17.2627L20.2936 17.9413C20.604 18.5726 16.8578 20.3585 15.609 20.3585C15.415 20.3585 15.281 20.3147 15.2316 20.2168L14.9882 19.7239C14.9388 19.6259 14.8471 19.5517 14.7377 19.5213C14.7095 19.5145 11.7323 18.7245 10.4094 17.4619C9.64749 16.736 9.15363 16.1047 8.71622 15.5443C8.35641 15.0852 8.04599 14.6902 7.67559 14.3593C7.47805 14.1804 7.49569 14.042 7.53097 13.9407C7.60504 13.7449 7.80964 13.5929 7.93311 13.5355C7.9578 13.522 7.98602 13.5153 8.01424 13.5119C8.31055 13.522 9.2771 14.0487 9.70393 14.5517C9.86267 14.7408 10.0073 14.9366 10.1378 15.1425C10.3706 15.4903 10.5576 15.7637 10.8751 15.8346C10.9033 15.8414 10.935 15.8448 10.9633 15.8448C11.1784 15.8448 11.3548 15.676 11.3548 15.47C11.3548 15.4194 11.3442 15.3687 11.3231 15.3215L8.03033 8.06428ZM7.63015 5.65118C7.59529 5.66363 7.56102 5.67757 7.52744 5.69297C7.06886 5.89891 6.82899 6.38168 6.86779 7.01638C6.87132 7.09065 6.89248 7.16493 6.9207 7.23582L7.29152 8.04855C6.51139 7.94566 5.67302 7.21363 5.67302 6.58856C5.67302 5.94197 6.60635 5.64603 7.47302 5.64603C7.52487 5.64603 7.57734 5.64777 7.63015 5.65118Z"/>
</svg>
