<svg width="24" height="24"><path fill-rule="evenodd" d="m18.948 11.663-2.316-3.11c-.337-.447-1.004-.543-1.49-.212-.36.245-.52.655-.44 1.034l-.27-.36c-.382-.507-1.144-.61-1.704-.23-.418.284-.604.758-.511 1.192l-.01.005-.118-.158c-.39-.518-1.168-.623-1.739-.235-.49.333-.667.922-.46 1.41L6.05 5.887c-.394-.524-1.16-.645-1.71-.27a1.129 1.129 0 0 0-.285 1.625l3.841 5.11a1.16 1.16 0 0 0 .005 1.27l2.093 3.192c.1.17.348.523.357.534l.02.026c1.697 2.186 4.93 2.681 7.262 1.097 2.306-1.567 2.875-4.583 1.316-6.809Z"/></svg>