<?xml version="1.0" encoding="UTF-8"?>
<svg width="24px" height="24px" viewBox="0 0 24 24" version="1.1" xmlns="http://www.w3.org/2000/svg" xmlns:xlink="http://www.w3.org/1999/xlink">
    <title>icons/functional_UI/M-S/mdpi/ic_Photo</title>
    <g id="icons/functional_UI/M-S/ic_Photo" stroke="none" stroke-width="1" fill="none" fill-rule="evenodd">
        <path d="M20.4,5.39999997 C20.4,4.40588742 19.5941126,3.59999996 18.6,3.59999996 L3.59999996,3.59999996 L3.59999996,18.6 C3.59999996,19.5941126 4.40588742,20.4 5.39999997,20.4 L20.4,20.4 L20.4,5.39999997 Z M4.79999997,4.79999997 L18.3,4.79999997 C18.7970563,4.79999997 19.2,5.2029437 19.2,5.69999997 L19.2,15 L14.589456,9.76255199 C14.423184,9.54580799 14.154096,9.54580799 13.98804,9.76255199 L10.56,13.746456 L8.66639999,11.089104 C8.50048799,10.872456 8.23111198,10.872456 8.06541598,11.089104 L5.27999997,14.209848 C4.99867197,13.997856 4.80959997,13.765008 4.79999997,13.283064 L4.79999997,4.79999997 Z M9.59920799,8.05089598 C9.61935687,8.66620728 9.2614868,9.23135451 8.69664061,9.47622742 C8.13179441,9.72110033 7.47467538,9.59597259 7.03935138,9.16064859 C6.60402738,8.72532459 6.47889964,8.06820556 6.72377255,7.50335936 C6.96864546,6.93851317 7.53379269,6.5806431 8.14910398,6.60079198 C8.93901217,6.62665818 9.57334179,7.2609878 9.59920799,8.05089598 L9.59920799,8.05089598 Z" id="icons/functional_UI/M-S/ic_Picture" fill="#000000"></path>
    </g>
</svg>