<?xml version="1.0" encoding="UTF-8"?>
<svg width="24px" height="24px" viewBox="0 0 24 24" version="1.1" xmlns="http://www.w3.org/2000/svg" xmlns:xlink="http://www.w3.org/1999/xlink">
    <title>icons/functional_UI/M-S/mdpi/ic_Payment_euro</title>
    <g id="icons/functional_UI/M-S/ic_Payment_euro" stroke="none" stroke-width="1" fill="none" fill-rule="evenodd">
        <path d="M12,8.39999999 C10.0117749,8.39999999 8.39999999,10.0117749 8.39999999,12 C8.39999999,13.9882251 10.0117749,15.6 12,15.6 C13.9882251,15.6 15.6,13.9882251 15.6,12 C15.6,11.0452206 15.2207154,10.1295465 14.5455844,9.45441558 C13.8704535,8.77928461 12.9547794,8.39999999 12,8.39999999 Z M13.7688,13.3824 C13.509432,13.990584 13.059672,14.269608 12.310728,14.269608 C11.83212,14.269608 11.439024,14.138544 11.142336,13.849896 C10.867248,13.582248 10.698336,13.237632 10.61652,12.828984 L10.3668,12.828984 C10.188312,12.828984 10.0716,12.708672 10.0716,12.533784 C10.0716,12.356184 10.1856,12.215928 10.3668,12.215928 L10.571136,12.215928 C10.570416,12.147816 10.571136,12.067992 10.571136,12.034296 C10.571136,11.98488 10.568592,11.966184 10.571136,11.875368 L10.3668,11.875368 C10.188312,11.875368 10.0716,11.73252 10.0716,11.557512 C10.0716,11.382504 10.188264,11.216952 10.3668,11.216952 L10.6392,11.216952 C10.732464,10.785576 10.909176,10.406736 11.184288,10.143552 C11.479488,9.86109599 11.868936,9.73051199 12.310704,9.73051199 C13.034208,9.73051199 13.504296,10.0224 13.747968,10.619784 C13.7725398,10.6716271 13.7848574,10.7284275 13.783968,10.785792 C13.783968,10.923408 13.701312,11.04216 13.557192,11.101992 L13.551888,11.114808 L13.546272,11.114808 C13.505016,11.137488 13.450704,11.128392 13.398168,11.128392 C13.258848,11.128392 13.146792,11.034792 13.090536,10.899528 C12.935352,10.526472 12.73116,10.385328 12.310728,10.385328 C11.824344,10.385328 11.475312,10.649328 11.320344,11.216952 L12.86424,11.216952 C13.045392,11.216952 13.152096,11.377968 13.152096,11.552064 C13.152096,11.730408 13.042776,11.875368 12.86424,11.875368 L11.2296,11.875368 C11.22696,11.966184 11.2296,11.981328 11.2296,12.034296 C11.2296,12.066456 11.228784,12.147816 11.2296,12.215928 L12.59184,12.215928 C12.775704,12.215928 12.873456,12.353592 12.873456,12.533784 C12.873456,12.706032 12.76764,12.828984 12.59184,12.828984 L11.297664,12.828984 C11.437032,13.373784 11.795472,13.610808 12.310752,13.610808 C12.755808,13.610808 12.951096,13.467888 13.084728,13.13508 L13.085208,13.133832 L13.08576,13.132632 C13.149648,12.984432 13.264464,12.902832 13.408896,12.902832 C13.4500465,12.9034252 13.4908789,12.910147 13.530048,12.922776 C13.686672,12.965304 13.800026,13.101768 13.800026,13.2432 C13.8006263,13.2914012 13.7899402,13.3390775 13.7688,13.3824 L13.7688,13.3824 Z M6.29999998,11.1 C5.93598395,11.1 5.60781129,11.319278 5.46850839,11.6555849 C5.32920549,11.9918919 5.40620567,12.3789979 5.66360387,12.6363961 C5.92100207,12.8937943 6.30810811,12.9707945 6.64441507,12.8314916 C6.98072202,12.6921887 7.19999998,12.364016 7.19999998,12 C7.19999998,11.5029437 6.79705625,11.1 6.29999998,11.1 L6.29999998,11.1 Z M17.7,11.1 C17.2029437,11.1 16.8,11.5029437 16.8,12 C16.8,12.4970563 17.2029437,12.9 17.7,12.9 C18.1970563,12.9 18.6,12.4970563 18.6,12 C18.6,11.5029437 18.1970563,11.1 17.7,11.1 Z M21.6,5.99999997 L2.39999996,5.99999997 L2.39999996,18 L21.6,18 L21.6,5.99999997 Z M20.4,15 C19.4058875,15 18.6,15.8058875 18.6,16.8 L5.39999997,16.8 C5.39999997,15.8058875 4.59411252,15 3.59999996,15 L3.59999996,8.99999999 C4.59411252,8.99999999 5.39999997,8.19411253 5.39999997,7.19999998 L18.6,7.19999998 C18.6,8.19411253 19.4058875,8.99999999 20.4,8.99999999 L20.4,15 Z" fill="#000000"></path>
    </g>
</svg>