<?xml version="1.0" encoding="UTF-8"?>
<svg width="24px" height="24px" viewBox="0 0 24 24" version="1.1" xmlns="http://www.w3.org/2000/svg" xmlns:xlink="http://www.w3.org/1999/xlink">
    <title>icons/functional_UI/M-S/mdpi/ic_Pause_call_button</title>
    <g id="icons/functional_UI/M-S/ic_Pause_call_button" stroke="none" stroke-width="1" fill="none" fill-rule="evenodd">
        <path d="M12,1.79999996 C17.633304,1.79999996 22.2,6.36669598 22.2,12 C22.2,17.633304 17.633304,22.2 12,22.2 C6.36669598,22.2 1.79999996,17.633304 1.79999996,12 C1.79999996,6.36669598 6.36669598,1.79999996 12,1.79999996 Z M12,2.39999996 C17.301936,2.39999996 21.6,6.69806398 21.6,12 C21.6,17.301936 17.301936,21.6 12,21.6 C6.69806398,21.6 2.39999996,17.301936 2.39999996,12 C2.39999996,6.69806398 6.69806398,2.39999996 12,2.39999996 Z M10.8,16.2 L7.77599998,16.2 L7.77599998,7.79999998 L10.8,7.79999998 L10.8,16.2 Z M16.176,16.2 L13.2,16.2 L13.2,7.79999998 L16.176,7.79999998 L16.176,16.2 Z" fill="#000000"></path>
    </g>
</svg>