<?xml version="1.0" encoding="UTF-8"?>
<svg width="24px" height="24px" viewBox="0 0 24 24" version="1.1" xmlns="http://www.w3.org/2000/svg" xmlns:xlink="http://www.w3.org/1999/xlink">
    <title>icons/functional_UI/M-S/mdpi/ic_Photo_Edit</title>
    <g id="icons/functional_UI/M-S/ic_Photo_Edit" stroke="none" stroke-width="1" fill="none" fill-rule="evenodd">
        <path d="M21,12.3816 C20.992753,12.1525976 20.8980162,11.935081 20.73528,11.7738 L20.40024,11.438856 L20.40024,4.19968797 C20.4001473,3.20566431 19.5942637,2.39999996 18.60024,2.39999996 L3.59999997,2.39999996 L3.59999997,17.397312 C3.59999997,18.391926 4.40538687,19.1986757 5.39999997,19.2 L10.704,19.2 L9.61063199,21.21504 L8.69462399,22.92 L10.414536,22.032 L13.046784,20.672832 L13.129752,20.630016 L13.195776,20.563992 C13.494792,20.264976 13.986384,19.781592 14.568,19.200072 L20.4,19.200072 L20.40024,13.365672 C20.577528,13.188624 20.748624,13.017672 20.752896,13.013304 C20.9173465,12.8448458 21.0065007,12.6169293 21,12.3816 Z M10.56,12.544656 L8.66639999,9.88785599 C8.50046399,9.67125599 8.23111198,9.67125599 8.06539198,9.88785599 L5.27999997,13.008 C4.99867197,12.796056 4.80959997,12.563232 4.79999997,12.081384 L4.79999997,3.59978396 L18.300216,3.59978396 C18.7972067,3.59978396 19.200216,4.0026253 19.200216,4.49961597 L19.200216,10.39416 L17.605944,11.987256 L14.5896,8.56144799 C14.423328,8.34475198 14.154216,8.34475198 13.988184,8.56144799 L10.56,12.544656 Z M18.97464,13.937352 C18.971262,13.9413697 18.9675267,13.9450728 18.96348,13.948416 C17.311104,15.600768 13.841616,19.069536 12.77148,20.139768 L10.139208,21.498912 L11.534088,18.902688 L17.9208,12.525216 L18.963312,13.5396 C19.0167198,13.592091 19.0484785,13.6627173 19.052304,13.737504 C19.0558513,13.8120883 19.0276718,13.8846908 18.974736,13.937352 L18.97464,13.937352 Z M20.322168,12.595488 C20.3187888,12.5991968 20.3151818,12.6026916 20.311368,12.605952 L19.58208,13.334736 L18.344496,12.097368 L19.277688,11.1648 L20.3106,12.197544 C20.42544,12.3126 20.430576,12.4872 20.322264,12.595488 L20.322168,12.595488 Z M9.59927999,6.85010398 C9.61952843,7.4654311 9.26172667,8.0306497 8.69689379,8.27560132 C8.13206092,8.52055295 7.47490498,8.39549204 7.03952785,7.96019418 C6.60415073,7.52489632 6.47897018,6.86776315 6.72381896,6.30288569 C6.96866774,5.73800823 7.53382118,5.38010357 8.14915198,5.40023997 C8.93898012,5.42608672 9.57328944,6.06028056 9.59927999,6.85010398 Z" id="icons/functional_UI/M-S/ic_Picture_Edit" fill="#000000"></path>
    </g>
</svg>