<?xml version="1.0" encoding="UTF-8"?>
<svg width="24px" height="24px" viewBox="0 0 24 24" version="1.1" xmlns="http://www.w3.org/2000/svg" xmlns:xlink="http://www.w3.org/1999/xlink">
    <title>icons/functional_UI/M-S/mdpi/ic_Printer</title>
    <g id="icons/functional_UI/M-S/ic_Printer" stroke="none" stroke-width="1" fill="none" fill-rule="evenodd">
        <path d="M21,19.8 L2.99999996,19.8 C2.33725826,19.8 1.79999996,19.2627417 1.79999996,18.6 L1.79999996,12.6 C1.79999996,11.9372583 2.33725826,11.4 2.99999996,11.4 L5.39999997,11.4 L5.39999997,4.19999997 L13.8,4.19999997 L18.6,8.99999999 L18.6,11.4 L21,11.4 C21.662736,11.4 22.2,11.925264 22.2,12.588 L22.2,18.6 C22.2,19.2627417 21.6627417,19.8 21,19.8 Z M12,18.6 C12.3313709,18.6 12.6,18.3313709 12.6,18 C12.6,17.6686292 12.3313709,17.4 12,17.4 C11.6686291,17.4 11.4,17.6686292 11.4,18 C11.4,18.3313709 11.6686291,18.6 12,18.6 Z M6.59999998,14.4 L17.4,14.4 L17.4,9.59999999 L14.4,9.59999999 C13.7372583,9.59999999 13.2,9.06274169 13.2,8.39999997 L13.2,5.39999997 L6.59999998,5.39999997 L6.59999998,14.4 Z" fill="#000000"></path>
    </g>
</svg>