<?xml version="1.0" encoding="UTF-8"?>
<svg width="24px" height="24px" viewBox="0 0 24 24" version="1.1" xmlns="http://www.w3.org/2000/svg" xmlns:xlink="http://www.w3.org/1999/xlink">
    <title>icons/functional_UI/M-S/mdpi/ic_Parents_space</title>
    <g id="icons/functional_UI/M-S/ic_Parents_space" stroke="none" stroke-width="1" fill="none" fill-rule="evenodd">
        <path d="M5.61359997,9.51410399 C5.92700006,10.5953723 6.85953846,11.3823427 7.97810398,11.509512 C9.33313926,11.6636151 10.6006691,10.8145197 10.97376,9.50277599 C11.0419137,9.262116 11.0773837,9.01338155 11.079216,8.76326399 C11.079216,8.75536799 11.079516,8.74751999 11.079516,8.73959999 C11.0824319,7.74176807 10.5517756,6.81847809 9.68811248,6.31871501 C8.82444937,5.81895193 7.7595266,5.81895193 6.89586349,6.31871501 C6.03220038,6.81847809 5.50154408,7.74176807 5.50445992,8.73959999 C5.50445992,8.75217599 5.50478397,8.76470399 5.50495197,8.77725599 C5.50803475,9.02662699 5.54457704,9.27445584 5.61359997,9.51410399 Z M18.175992,11.07816 C17.612928,11.60904 16.878792,12.025032 16.064976,12.105216 C15.947536,12.116752 15.828552,12.122592 15.708024,12.122736 C15.602232,12.122736 15.497616,12.117936 15.394152,12.10896 C14.563176,12.037104 13.813008,11.618376 13.240056,11.07816 C12.7445374,11.3229048 12.318213,11.6878661 12,12.139728 C11.681787,11.6878661 11.2554626,11.3229048 10.759944,11.07816 C10.196904,11.60904 9.46276799,12.025032 8.64892799,12.105216 C8.53151999,12.116752 8.41253599,12.122592 8.29197598,12.122736 C8.18620798,12.122736 8.08156798,12.117936 7.97810398,12.10896 C7.14715198,12.037104 6.39698398,11.618376 5.82400797,11.07816 C4.69733414,11.6324983 3.98375666,12.7791069 3.9839999,14.034768 L3.9839999,14.468304 C4.75584869,16.9172888 6.6027598,18.8803747 9.00016799,19.8 L9.00016799,18.780192 C9.0000041,17.9058189 9.49690238,17.1073863 10.281456,16.721376 C10.5906,17.01288 10.973904,17.2536 11.4,17.37036 C11.5247882,17.4048065 11.6524496,17.4278373 11.781408,17.439168 C11.853408,17.445408 11.92632,17.448768 11.999976,17.448768 C12.083864,17.448768 12.16672,17.444696 12.248544,17.436552 C12.3673304,17.4247259 12.4849023,17.4028638 12.6,17.3712 C13.02612,17.254608 13.4094,17.012976 13.718568,16.721448 C14.5031216,17.1074583 15.0000199,17.9058909 14.999856,18.780264 L14.999856,19.8 C17.397255,18.8803686 19.2441564,16.9172837 20.0160001,14.468304 L20.0160001,14.034768 C20.0162433,12.7791069 19.3026659,11.6324983 18.175992,11.07816 Z M13.940856,15.109416 C13.9327832,16.1753355 13.0659497,17.0349337 12,17.0340727 C11.9269717,17.0340727 11.8540021,17.0299282 11.781432,17.02176 C10.80962,16.9127961 10.0711796,16.0969891 10.059264,15.11916 C10.059144,15.110424 10.058928,15.101712 10.058928,15.092952 C10.058928,14.0209275 10.9279755,13.15188 12,13.15188 C13.0720245,13.15188 13.941072,14.0209275 13.941072,15.092952 C13.941072,15.0984 13.940904,15.10392 13.940856,15.109416 Z M13.0296,9.51410399 C13.4127238,10.8451782 14.7151774,11.6929501 16.0874042,11.5044402 C17.459631,11.3159303 18.4852242,10.1483425 18.495216,8.76326399 C18.495216,8.75536799 18.4955161,8.74751999 18.4955161,8.73959999 C18.4984319,7.74176807 17.9677756,6.81847809 17.1041125,6.31871501 C16.2404494,5.81895193 15.1755266,5.81895193 14.3118635,6.31871501 C13.4482004,6.81847809 12.9175441,7.74176807 12.92046,8.73959999 C12.92046,8.75217599 12.920784,8.76470399 12.920952,8.77725599 C12.9240348,9.02662699 12.9605771,9.27445584 13.0296,9.51410399 Z M12,1.79999996 C6.36669598,1.79999996 1.79999996,6.36669598 1.79999996,12 C1.79999996,15.6441091 3.74410892,19.0114047 6.89999993,20.8334593 C10.055891,22.6555138 13.944109,22.6555138 17.1000001,20.8334593 C20.2558911,19.0114047 22.2,15.6441091 22.2,12 C22.2,6.36669598 17.633304,1.79999996 12,1.79999996 Z M14.9999985,20.487816 C14.750528,20.575992 14.496192,20.653296 14.236992,20.719728 C12.7689907,21.0934719 11.2307453,21.0934719 9.76274399,20.719728 C9.50381599,20.653488 9.24956799,20.576208 8.99999853,20.487888 C5.40252364,19.2170879 2.99785821,15.8153328 2.99999853,12 C2.99999853,7.02943198 7.02943198,2.99999996 11.9999985,2.99999996 C16.970568,2.99999996 20.9999985,7.02943198 20.9999985,12 C21.0021112,15.8153064 18.5974514,19.2170247 14.9999985,20.487816 Z" fill="#000000"></path>
    </g>
</svg>