<?xml version="1.0" encoding="UTF-8"?>
<svg width="24px" height="24px" viewBox="0 0 24 24" version="1.1" xmlns="http://www.w3.org/2000/svg" xmlns:xlink="http://www.w3.org/1999/xlink">
    <title>icons/functional_UI/M-S/mdpi/ic_Publish</title>
    <g id="icons/functional_UI/M-S/ic_Publish" stroke="none" stroke-width="1" fill="none" fill-rule="evenodd">
        <path d="M2.60435996,4.5730501 C2.63742448,4.5720501 2.67048899,4.5716501 2.70435996,4.5716501 C2.6987148,4.5716501 2.69315028,4.5716501 2.68766641,4.5716501 C2.6596019,4.5711501 2.6321019,4.5720501 2.60435996,4.5730501 Z M3.18961196,12.577352 C3.19181196,12.577352 3.19351196,12.577352 3.19541196,12.577352 L3.17881196,12.577352 L3.18961196,12.577352 Z M21.362526,4.66104352 C21.374526,4.66104352 21.386226,4.66104352 21.398026,4.66104352 L21.388026,4.66104352 C21.379726,4.66064352 21.371126,4.66104352 21.362526,4.66104352 Z M20.746412,12.5920284 C20.750512,12.5920284 20.754612,12.5920284 20.758712,12.5920284 C20.751912,12.5920284 20.745912,12.5920284 20.739512,12.5920284 C20.741912,12.5915284 20.744012,12.5920284 20.746412,12.5920284 Z M21.981216,4.72257597 C21.836616,4.56201597 21.622368,4.48075197 21.344232,4.48075197 C21.2901313,4.4808953 21.2360716,4.48374687 21.182256,4.48929597 C21.101544,4.49755197 20.834448,4.52131197 20.464848,4.55409597 C18.876624,4.69569597 15.157416,5.02727997 14.457432,5.16849597 C14.13444,5.23375197 13.940376,5.36426397 13.880808,5.55638397 C13.793016,5.83879197 14.04348,6.10737598 14.072232,6.13718398 L15.101208,7.18931998 L12.5712,9.65726399 C12.1841339,9.61446305 11.7933702,9.61746781 11.407008,9.66621599 L8.81131199,7.14059998 L9.81105599,6.12837598 C9.84045599,6.09825598 10.090848,5.83111197 9.99758399,5.55820797 C9.93235199,5.36716797 9.72364799,5.24553597 9.37727999,5.19650397 C9.33379199,5.19033597 5.00303997,4.57828797 2.76878396,4.39773597 C2.72078396,4.39384797 2.67386396,4.39187997 2.62915196,4.39187997 C2.33395196,4.39187997 2.10945596,4.47655197 1.96195196,4.64361597 C1.80571196,4.82066397 1.74770396,5.07659997 1.78941596,5.40415197 C1.79951996,5.48431197 1.82978396,5.74883997 1.87151996,6.11486398 C2.05233596,7.69759198 2.47569596,11.404128 2.63447996,12.099864 C2.74430396,12.580584 2.97527996,12.681456 3.14968796,12.681456 C3.38968796,12.681456 3.59143196,12.483096 3.61367997,12.460536 L4.64217597,11.407848 L7.11208798,13.8114 C7.07068694,14.0701508 7.0497102,14.3317582 7.04935198,14.5938 C7.04935195,16.370882 7.99741387,18.0129734 9.53641197,18.9015144 C11.0754101,19.7900554 12.9715339,19.7900554 14.510532,18.9015144 C16.0495301,18.0129734 16.997592,16.370882 16.997592,14.5938 C16.9975555,14.3091785 16.9731948,14.0250808 16.924776,13.744608 L19.271424,11.455632 L20.260416,12.478248 C20.282736,12.501168 20.48004,12.696024 20.710464,12.696024 C20.8878,12.696024 21.11724,12.58716 21.203832,12.068304 C21.211032,12.025104 21.92988,7.72190398 22.165896,5.49182397 C22.201512,5.15699997 22.139376,4.89815997 21.981216,4.72257597 Z M2.60435996,4.57318597 C2.6321019,4.57218597 2.65927932,4.57128597 2.68766641,4.57128597 C2.69315028,4.57128597 2.6987148,4.57128597 2.70435996,4.57128597 C2.67048899,4.57178597 2.63742448,4.57218597 2.60435996,4.57318597 L2.60435996,4.57318597 Z M3.18945996,12.5774027 L3.17865996,12.5774027 L3.19565996,12.5774027 C3.19335996,12.5771027 3.19165996,12.5774027 3.18945996,12.5774027 Z M11.975496,17.583649 C10.3352987,17.581104 9.00747865,16.2498512 9.00916795,14.6096528 C9.01086049,12.9694544 10.3414226,11.6409421 11.9816216,11.6417796 C13.6218207,11.6426178 14.95104,12.9724888 14.95104,14.612688 C14.9504546,15.4012504 14.6366264,16.1572803 14.0785988,16.7144482 C13.5205712,17.2716162 12.7640583,17.5842784 11.975496,17.583649 L11.975496,17.583649 Z M20.746412,12.5919947 C20.744012,12.5919947 20.741912,12.5919947 20.739512,12.5919947 C20.745912,12.5919947 20.751912,12.5919947 20.758712,12.5919947 C20.754612,12.5916947 20.750512,12.5919947 20.746412,12.5919947 Z M21.362374,4.66104352 C21.370974,4.66104352 21.379574,4.66104352 21.388274,4.66104352 L21.398274,4.66104352 C21.386074,4.66064352 21.373974,4.66104352 21.362374,4.66104352 L21.362374,4.66104352 Z" fill="#000000"></path>
    </g>
</svg>