<svg width="24" height="24"><path fill-rule="evenodd" d="M12 20.889A8.889 8.889 0 1 0 4.825 6.752c.817-.595 2.117-.817 3.332-.736.924.06 1.915.41 2.65.937.83.595 1.25 1.342 1.187 2.108-.045.516-.31 1.037-.754 1.5a.5.5 0 0 0-.249-.026c.471-.456.754-.977.796-1.487.057-.705-.337-1.4-1.111-1.956-.703-.508-1.649-.84-2.534-.897-1.805-.116-3.802.445-3.928 1.95-.132 1.571 1.745 3.558 3.46 3.669.111.007.195.02.267.03.098.014.176.026.28.02l-.407-.894q-.178.03-.35.03c-.54 0-1.164-.296-1.667-.793C5.3 9.713 5 9.11 5 8.587 5 7.498 6.277 7 7.464 7c.578 0 1.21.19 1.692.51.545.36.844.84.844 1.352 0 .346-.14.703-.39 1.03a.3.3 0 0 0-.118-.012l.672 1.345a1.2 1.2 0 0 1 .6-.578 1 1 0 0 1 .393-.087c.293 0 .562.147.746.41.074-.179.228-.38.549-.525.131-.06.274-.095.42-.095.543 0 .842.444.97.707q.088.16.193.315a2 2 0 0 1 .022-.16.65.65 0 0 1 .365-.479c.15-.07.318-.107.485-.11.39 0 .725.223.917.612.17.334 1.602 3.162 1.772 3.616.181.49.28 1.378.113 2.092l.227.463c.06.126.135.38-.074.693-.324.49-1.292.987-1.84 1.24-.336.154-1.488.661-2.198.661-.497 0-.695-.25-.766-.396l-.148-.3c-.502-.142-2.5-.748-3.501-1.704a13.3 13.3 0 0 1-1.366-1.544c-.264-.336-.491-.625-.747-.853-.274-.247-.362-.552-.247-.862.113-.299.382-.51.582-.598a.7.7 0 0 1 .252-.063h.047c.382.013 1.043.388 1.465.756L8.302 12.04a1 1 0 0 1-.35-.012c-.076-.012-.165-.028-.294-.036-.865-.055-1.828-.563-2.573-1.358-.739-.787-1.144-1.724-1.078-2.503L4.01 8.1A8.889 8.889 0 0 0 12 20.888M7.369 9.994l.392.86a2 2 0 0 1-.3.022c-1.07 0-2.335-1.24-2.335-2.29 0-1.007 1.21-1.465 2.335-1.465.552 0 1.156.182 1.618.487.51.337.79.781.79 1.254 0 .33-.138.675-.39.991l-.48-.964a.66.66 0 0 0-.205-.412l-.027-.054A.5.5 0 0 0 8.6 8.23 1.07 1.07 0 0 0 7.944 8l.003.003q-.095 0-.187.017A2 2 0 0 0 7.479 8C6.768 8 6 8.248 6 8.793c0 .261.18.563.479.81.268.22.594.362.89.391m.543-.055.031-.009a.3.3 0 0 1-.034-.054l-.022.006-.357-.787c-.009-.11-.009-.45.214-.549a.45.45 0 0 1 .203-.042c.184 0 .316.108.343.13l.002.002.003.002.392.79-.013.013.019-.003 1.704 3.42a.31.31 0 0 0 .406.136.286.286 0 0 0 .156-.354l-.367-1.053a.64.64 0 0 1 .39-.483.4.4 0 0 1 .17-.04c.175 0 .282.137.331.22l.697.993a.31.31 0 0 0 .406.09.28.28 0 0 0 .118-.384l-.351-.677c-.003-.081.022-.273.313-.404a.5.5 0 0 1 .2-.048c.239 0 .4.216.5.42.156.318.72 1.072.784 1.156a.31.31 0 0 0 .387.086.283.283 0 0 0 .145-.354c-.142-.386-.194-.909-.05-.974a.7.7 0 0 1 .264-.063c.228 0 .368.165.447.328 0 0 1.586 3.125 1.75 3.568.166.444.242 1.266.08 1.878a.28.28 0 0 0 .02.194l.258.528c.241.491-2.673 1.88-3.644 1.88-.15 0-.255-.034-.293-.11l-.19-.384a.31.31 0 0 0-.195-.157c-.022-.005-2.337-.62-3.366-1.602-.593-.564-.977-1.055-1.317-1.491-.28-.357-.521-.665-.81-.922-.153-.14-.14-.247-.112-.326.058-.152.217-.27.313-.315a.2.2 0 0 1 .063-.018c.23.008.982.417 1.314.809q.186.22.338.46c.18.27.326.482.573.537a.3.3 0 0 0 .373-.284.3.3 0 0 0-.025-.115zm-.31-1.877-.08.033c-.357.16-.544.535-.514 1.029.003.058.02.115.041.17l.289.633c-.607-.08-1.259-.65-1.259-1.136 0-.503.726-.733 1.4-.733q.06 0 .122.004M12 22c5.523 0 10-4.477 10-10S17.523 2 12 2 2 6.477 2 12s4.477 10 10 10" clip-rule="evenodd"/></svg>