<?xml version="1.0" encoding="UTF-8"?>
<svg width="24px" height="24px" viewBox="0 0 24 24" version="1.1" xmlns="http://www.w3.org/2000/svg" xmlns:xlink="http://www.w3.org/1999/xlink">
    <title>icons/functional_UI/M-S/mdpi/ic_QR_code_Reader</title>
    <g id="icons/functional_UI/M-S/ic_QR_code_Reader" stroke="none" stroke-width="1" fill="none" fill-rule="evenodd">
        <path d="M19.8,18.6 C19.7980625,19.2619375 19.2619375,19.7980625 18.6,19.8 L17.4,19.8 C17.0686292,19.8 16.8,20.0686292 16.8,20.4 L16.8,20.4 C16.8,20.7313709 17.0686292,21 17.4,21 L18.609936,21 C19.924464,21 21,19.924464 21,18.609936 L21,17.4 C21,17.0686292 20.7313709,16.8 20.4,16.8 L20.4,16.8 C20.0686292,16.8 19.8,17.0686292 19.8,17.4 L19.8,18.6 Z M18.6,4.19999997 C19.2619375,4.20193753 19.7980625,4.7380625 19.8,5.39999997 L19.8,6.59999998 C19.8,6.93137083 20.0686292,7.19999998 20.4,7.19999998 L20.4,7.19999998 C20.7313709,7.19999998 21,6.93137083 21,6.59999998 L21,5.39006397 C21,4.07553597 19.924464,2.99999996 18.609936,2.99999996 L17.4,2.99999996 C17.0686292,2.99999996 16.8,3.26862911 16.8,3.59999997 L16.8,3.59999997 C16.8,3.93137082 17.0686292,4.19999997 17.4,4.19999997 L18.6,4.19999997 Z M5.39999997,19.8 C4.7380625,19.7980625 4.20193753,19.2619375 4.19999997,18.6 L4.19999997,17.4 C4.19999997,17.0686292 3.93137082,16.8 3.59999996,16.8 L3.59999996,16.8 C3.26862911,16.8 2.99999996,17.0686292 2.99999996,17.4 L2.99999996,18.609936 C2.99999996,19.924464 4.07553597,21 5.39006397,21 L6.59999998,21 C6.93137083,21 7.19999998,20.7313709 7.19999998,20.4 L7.19999998,20.4 C7.19999998,20.0686292 6.93137083,19.8 6.59999998,19.8 L5.39999997,19.8 Z M4.19999997,5.39999997 C4.20193753,4.7380625 4.7380625,4.20193753 5.39999997,4.19999997 L6.59999998,4.19999997 C6.93137083,4.19999997 7.19999998,3.93137082 7.19999998,3.59999996 L7.19999998,3.59999996 C7.19999998,3.26862911 6.93137083,2.99999996 6.59999998,2.99999996 L5.39006397,2.99999996 C4.07553597,2.99999996 2.99999996,4.07553597 2.99999996,5.39006397 L2.99999996,6.59999998 C2.99999996,6.93137083 3.26862911,7.19999998 3.59999997,7.19999998 L3.59999997,7.19999998 C3.93137082,7.19999998 4.19999997,6.93137083 4.19999997,6.59999998 L4.19999997,5.39999997 Z M11.695992,9.86011199 L12.160008,9.86011199 L12.160008,8.96212799 L12.618,8.96212799 L12.618,8.51011199 L12.154008,8.51011199 L12.154008,8.95612799 L11.695992,8.95612799 L11.695992,9.86011199 Z M8.50612799,10.784448 L8.97011999,10.784448 L8.97011999,10.3272 L9.42400799,10.3272 L9.42400799,9.87520799 L8.03200798,9.87520799 L8.03200798,10.3272 L8.50612799,10.3272 L8.50612799,10.784448 L8.50612799,10.784448 Z M8.51212799,11.25228 L8.51212799,10.818288 L8.04811198,10.818288 L8.04811198,11.722272 L8.50612799,11.722272 L8.50612799,12.174288 L9.42400799,12.174288 L9.42400799,11.722272 L8.97011999,11.722272 L8.97011999,11.25228 L8.51212799,11.25228 Z M11.695992,7.56400798 L12.160008,7.56400798 L12.160008,6.65999998 L11.263992,6.65999998 L11.263992,7.11199198 L11.695992,7.11199198 L11.695992,7.56400798 Z M12.160008,8.05211998 L11.695992,8.05211998 L11.695992,8.50411199 L12.160008,8.50411199 L12.160008,8.05211998 Z M7.12000798,11.24628 L7.12000798,10.794288 L6.65599198,10.794288 L6.65599198,11.2464 L7.12000798,11.2464 L7.12000798,11.24628 Z M13.104,15.392448 L13.104,14.940432 L12.640056,14.940432 L12.640056,15.392448 L13.104,15.392448 Z M14.463936,14.922816 L14.928,14.922816 L14.928,14.470824 L14.464008,14.470824 L14.464008,14.922816 L14.463936,14.922816 Z M10.8,15.86244 L10.336008,15.86244 L10.336008,16.314432 L10.8,16.314432 L10.8,15.86244 Z M11.719992,17.688552 L12.184008,17.688552 L12.184008,17.23656 L11.719992,17.23656 L11.719992,17.688552 L11.719992,17.688552 Z M13.096008,16.788312 L12.631992,16.788312 L12.631992,17.240328 L13.096008,17.240328 L13.096008,17.688552 L13.56,17.688552 L13.56,17.23656 L13.096008,17.23656 L13.096008,16.788312 L13.096008,16.788312 Z M13.543992,16.77552 L14.008008,16.77552 L14.008008,16.323528 L13.543992,16.323528 L13.543992,16.77552 L13.543992,16.77552 Z M10.32,16.765944 L9.85600799,16.765944 L9.85600799,17.687712 L9.87199199,17.687712 L9.87199199,17.688552 L10.8,17.688552 L10.8,17.23656 L10.32,17.23656 L10.32,16.765944 Z M9.88799999,10.800288 L8.97011999,10.800288 L8.97011999,11.25228 L9.88799999,11.25228 L9.88799999,10.800288 Z M10.344,14.928984 L9.88000799,14.928984 L9.88000799,15.855888 L10.344,15.855888 L10.344,14.928984 L10.344,14.928984 Z M7.12000798,9.87520799 L6.19199998,9.87520799 L6.19199998,10.3272 L7.12000798,10.3272 L7.12000798,9.87520799 L7.12000798,9.87520799 Z M7.12000798,10.784448 L8.04799198,10.784448 L8.04799198,10.332432 L7.12000798,10.332432 L7.12000798,10.784448 Z M7.12000798,13.55592 L7.12000798,14.00784 L6.19199998,14.00784 L6.19199998,13.55592 L7.12007998,13.55592 L7.12000798,13.55592 Z M8.49599999,14.009352 L9.42400799,14.009352 L9.42400799,13.55736 L8.49599999,13.55736 L8.49599999,14.009352 Z M11.728008,17.227992 L11.728008,16.776 L11.72004,16.776 L11.72004,16.77552 L12.65604,16.77552 L12.65604,16.323528 L12.64404,16.323528 L12.64404,16.314504 L13.104,16.314504 L13.104,15.862488 L12.176064,15.862488 L12.176064,16.314504 L12.18,16.314504 L12.18,16.323528 L11.72004,16.323528 L11.72004,15.862488 L11.256,15.862488 L11.256,16.776 L10.8,16.776 L10.8,17.227992 L11.728008,17.227992 Z M13.108992,14.012448 L12.181008,14.012448 L12.181008,14.036448 L12.175008,14.036448 L12.175008,14.940432 L12.639,14.940432 L12.639,14.46444 L13.108992,14.46444 L13.108992,14.012448 L13.108992,14.012448 Z M11.72808,14.01816 L11.72808,14.94048 L11.25192,14.94048 L11.25192,15.84264 L10.788,15.84264 L10.788,14.48064 L9.87695999,14.48064 L9.87695999,14.02848 L10.33608,14.02848 L10.33608,13.55976 L9.87191999,13.55976 L9.87383999,13.10352 L8.49599999,13.10352 L8.49599999,13.10784 L8.04815998,13.10784 L8.04815998,13.55976 L7.12007998,13.55976 L7.12007998,13.10784 L7.56791998,13.10784 L7.56791998,12.6432 L6.19199998,12.6432 L6.19199998,11.2524 L6.65591998,11.2524 L6.65591998,11.71512 L7.12007998,11.71512 L7.12007998,11.2524 L7.58399998,11.2524 L7.58399998,12.18912 L8.49599999,12.18912 L8.49599999,12.6516 L10.344,12.6516 L10.344,13.0896 L10.8,13.0896 L10.8,13.09056 L10.80192,13.09056 L10.8,13.55976 L11.26392,13.55976 L11.26392,14.01816 L11.72808,14.01816 L11.72808,14.01816 Z M12.192,13.10784 L12.192,13.55976 L11.26392,13.55976 L11.26392,13.09056 L10.8,13.09056 L10.8,12.17208 L12.15408,12.17208 L12.15408,12.62424 L11.72808,12.62424 L11.72808,13.10784 L12.192,13.10784 Z M10.336008,10.332432 L9.87199199,10.332432 L9.87199199,10.784448 L10.336008,10.784448 L10.336008,10.332432 Z M14.49,10.332432 L14.026008,10.332432 L14.026008,10.784448 L14.49,10.784448 L14.49,10.332432 Z M17.23992,17.24016 L17.23992,16.31448 L17.69088,16.31448 L17.69088,15.86232 L17.25096,15.86232 L17.25096,14.93736 L16.32288,14.93736 L16.32288,14.94048 L15.85608,14.94048 L15.85608,14.00784 L16.776,14.00784 L16.776,14.00112 L16.78896,14.00112 L16.78896,13.55976 L17.26392,13.55976 L17.26392,13.10784 L16.78896,13.10784 L16.78896,12.6516 L16.776,12.6516 L16.776,12.6324 L17.23992,12.6324 L17.23992,12.17424 L17.69592,12.17424 L17.69592,11.72232 L17.23992,11.72232 L17.23992,11.27256 L16.776,11.27256 L16.776,10.82064 L16.32,10.82064 L16.32,10.3272 L16.776,10.3272 L16.776,10.7844 L17.23992,10.7844 L17.23992,10.3272 L17.69592,10.3272 L17.69592,9.87527999 L15.85608,9.87527999 L15.85608,10.33248 L15.39192,10.33248 L15.39192,10.7844 L15.85608,10.7844 L15.85608,11.27256 L16.32504,11.27256 L16.32504,11.72232 L15.85608,11.72232 L15.85608,12.17424 L16.776,12.17424 L16.776,12.6276 L15.85608,12.6276 L15.85608,12.17976 L15.39192,12.17976 L15.39192,12.624 L14.928,12.624 L14.928,12.6276 L14.02608,12.6276 L14.02608,12.17424 L14.93256,12.17424 L14.93256,11.72448 L15.39192,11.72448 L15.39192,11.27256 L14.49,11.27256 L14.49,11.72232 L14.02608,11.72232 L14.02608,10.7844 L13.55328,10.7844 L13.554,9.88031999 L13.10904,9.88031999 L13.10904,8.96615999 L12.64512,8.96615999 L12.64512,10.82064 L12.192,10.82064 L12.192,10.33248 L11.26392,10.33248 L11.26392,10.82064 L10.33608,10.82064 L10.33608,11.72448 L10.8,11.72448 L10.8,11.27256 L11.72496,11.27256 L11.72496,11.68848 L12.18912,11.68848 L12.18912,11.27256 L12.64512,11.27256 L12.64512,11.69856 L13.10904,11.69856 L13.10904,11.27256 L13.56192,11.27256 L13.56192,12.18912 L12.64008,12.18912 L12.64008,13.56624 L13.56192,13.56624 L13.56192,15.86256 L13.5864,15.86256 L13.5864,15.86832 L14.004,15.86832 L14.004,16.31664 L14.49,16.31664 L14.49,16.77552 L14.95392,16.77552 L14.95392,16.31664 L15.38808,16.31664 L15.38808,15.86832 L16.32288,15.86832 L16.32288,16.31448 L16.776,16.31448 L16.776,16.78992 L16.32096,16.78992 L16.32096,16.34904 L15.85704,16.34904 L15.85704,16.78992 L14.928,16.78992 L14.928,17.2356 L14.47608,17.2356 L14.47608,17.68776 L14.94,17.68776 L14.94,17.24184 L16.32,17.24184 L16.32,17.69592 L17.70408,17.69592 L17.70408,17.24016 L17.23992,17.24016 Z M15.85608,13.07952 L16.32504,13.07952 L16.32504,13.55592 L15.85608,13.55592 L15.85608,13.07952 Z M13.56816,13.55592 L13.56816,12.63672 L14.01888,12.63672 L14.01888,13.07952 L14.928,13.07952 L14.928,13.55592 L13.56816,13.55592 L13.56816,13.55592 Z M15.39192,15.4164 L14.02608,15.4164 L14.02608,14.00784 L15.39192,14.00784 L15.39192,15.4164 L15.39192,15.4164 Z M15.39192,9.86011199 L14.928,9.86011199 L14.928,10.312128 L15.391992,10.312128 L15.391992,9.86011199 L15.39192,9.86011199 Z M13.56192,9.40811999 L14.025936,9.40811999 L14.025936,8.95612799 L13.561992,8.95612799 L13.561992,9.40811999 L13.56192,9.40811999 Z M9.42393599,9.40811999 L9.42393599,6.20800798 L6.19199998,6.20800798 L6.19199998,9.40811999 L9.42400799,9.40811999 L9.42400799,9.40811999 L9.42393599,9.40811999 Z M6.65599198,6.65999998 L8.95999199,6.65999998 L8.95999199,8.95612799 L6.65599198,8.95612799 L6.65599198,6.65999998 Z M12.640056,8.50411199 L14.008056,8.50411199 L14.008056,6.20800798 L12.640056,6.20800798 L12.640056,6.65999998 L13.543992,6.65999998 L13.543992,7.58205598 L13.104,7.58205598 L13.104,7.11199198 L12.640056,7.11199198 L12.640056,7.58205598 L12.172056,7.58205598 L12.172056,8.03407198 L12.640056,8.03407198 L12.640056,8.50411199 L12.640056,8.50411199 Z M7.12005598,7.11211198 L7.12005598,8.50423199 L8.51217599,8.50423199 L8.51217599,7.11223198 L7.12000798,7.11223198 L7.12005598,7.11211198 Z M6.65599198,14.48844 L6.19199998,14.48844 L6.19199998,17.688552 L9.42400799,17.688552 L9.42400799,14.48844 L6.65599198,14.48844 Z M8.95999199,17.23656 L6.65599198,17.23656 L6.65599198,14.940432 L8.95999199,14.940432 L8.95999199,17.23656 L8.95999199,17.23656 Z M8.51212799,16.784568 L8.51212799,15.392568 L7.12000798,15.392568 L7.12000798,16.784688 L8.51212799,16.784688 L8.51212799,16.784568 Z M17.695992,9.40799999 L17.695992,6.20800798 L14.464008,6.20800798 L14.464008,9.40811999 L17.695992,9.40811999 L17.695992,9.40811999 L17.695992,9.40799999 Z M14.928,6.65999998 L17.232,6.65999998 L17.232,8.95612799 L14.928,8.95612799 L14.928,6.65999998 Z M15.391992,7.11199198 L15.391992,8.50411199 L16.784112,8.50411199 L16.784112,7.11211198 L15.392112,7.11211198 L15.391992,7.11199198 Z M10.8,7.60012798 L10.8,7.13599198 L10.336008,7.13599198 L10.336008,6.20800798 L9.87199199,6.20800798 L9.87199199,8.01599998 L10.336008,8.01599998 L10.336008,8.51428799 L9.87199199,8.51428799 L9.87199199,9.41827199 L10.336008,9.41827199 L10.336008,8.94400799 L10.8,8.94400799 L10.8,10.332432 L11.263992,10.332432 L11.263992,7.60012798 L10.8,7.60012798 Z" fill="#000000"></path>
    </g>
</svg>