<?xml version="1.0" encoding="UTF-8"?>
<svg width="24px" height="24px" viewBox="0 0 24 24" version="1.1" xmlns="http://www.w3.org/2000/svg" xmlns:xlink="http://www.w3.org/1999/xlink">
    <title>icons/functional_UI/M-S/mdpi/ic_Quirky_stories</title>
    <g id="icons/functional_UI/M-S/ic_Quirky_stories" stroke="none" stroke-width="1" fill="none" fill-rule="evenodd">
        <path d="M14.001864,11.20932 L17.589096,18.847464 C15.16248,20.302776 8.51555999,20.441976 6.28475998,18.844608 L9.87705599,11.194992 C5.90359197,10.422912 3.03119996,7.73311198 2.97645596,7.68143998 C3.04036796,7.62119998 6.94468798,3.96062397 11.959968,3.96062397 L11.992032,3.96062397 C17.007528,3.96062397 20.911752,7.62119998 20.975544,7.68143998 C20.920392,7.73342398 18.01332,10.456368 14.001864,11.20932 Z M9.93235199,15.129816 L11.088,16.296 L11.088,18.888 C11.088,19.06344 11.2374,19.2 11.411712,19.2 L12.516312,19.2 C12.6906,19.2 12.84,19.06344 12.84,18.888 L12.84,16.296 L13.995552,15.129192 C14.1187577,15.0047907 14.1187577,14.8043613 13.995552,14.67996 C13.9365519,14.6203953 13.856191,14.5868843 13.772352,14.5868843 C13.6885131,14.5868843 13.6081521,14.6203953 13.549152,14.67996 L12.7392,15.49536 L12.738888,15.494184 L12.737328,15.494184 L12.737328,15.496584 L12.732528,15.494184 C12.5253545,15.6915244 12.2501189,15.8014657 11.964,15.801168 C11.666544,15.801168 11.195592,15.494088 11.195592,15.494088 L11.193672,15.501288 L10.378512,14.6808 C10.3195371,14.6212795 10.2392218,14.5877949 10.155432,14.5877949 C10.0716422,14.5877949 9.99132688,14.6212795 9.93235199,14.6808 C9.80917153,14.8051275 9.80917153,15.0054885 9.93235199,15.129816 Z M12.8319168,14.6736 C12.8287887,14.1949988 12.4388235,13.809253 11.9602166,13.8113278 C11.4816098,13.8134195 11.0950174,14.2025455 11.0960584,14.6811557 C11.0971037,15.159766 11.4853886,15.5472 11.964,15.5472 C12.1949422,15.5464565 12.416129,15.4539965 12.5788964,15.2901623 C12.7416638,15.1263282 12.8326771,14.9045421 12.8319168,14.6736 Z M10.227912,10.447776 L10.62516,9.60184799 L10.625568,9.60472799 L10.626168,9.61089599 L10.630608,9.61089599 C11.01576,9.45136799 11.461776,9.38500799 11.93772,9.38500799 C12.413664,9.38500799 12.859704,9.45136799 13.244856,9.61089599 L13.247592,9.61089599 L13.248168,9.60472799 L13.65276,10.466328 C14.322072,10.300728 14.756616,9.99167999 14.756616,9.69806399 C14.756616,9.19967999 13.51164,8.79566399 11.975928,8.79566399 C10.440216,8.79566399 9.19521599,9.19955999 9.19521599,9.69806399 C9.19528799,9.98097599 9.59942399,10.27824 10.227984,10.447704 L10.227912,10.447776 Z M12.074568,5.18313597 L12.003048,5.18313597 C8.59811999,5.18313597 5.78659197,6.56123998 4.71950397,7.16404798 C5.78659197,6.89284798 8.59811999,6.27321598 12.003048,6.27321598 L12.074568,6.27321598 C15.479088,6.27321598 18.290928,6.89289598 19.358088,7.16404798 C18.291,6.56116798 15.47916,5.18306397 12.07464,5.18306397 L12.074568,5.18313597 Z M12.072,19.2 L11.928,19.2 L11.928,17.784 L12.072,17.784 L12.072,19.2 Z" fill="#000000"></path>
    </g>
</svg>