<svg width="24" height="24">
<path fill-rule="evenodd" clip-rule="evenodd" d="M14.556 4V7C14.556 7.55228 14.9501 8 15.436 8H18.516L14.556 4ZM15.546 9C14.4525 9 13.566 8.10457 13.566 7V4H5.64605V11H3.35C2.60442 11 2 11.6044 2 12.35V15.65C2 16.3956 2.60442 17 3.35 17H5.64605V19.9955V20C5.64605 20.5523 6.08928 21 6.63605 21H18.516V17H20.65C21.3956 17 22 16.3956 22 15.65V12.35C22 11.6044 21.3956 11 20.65 11H18.516V9H15.546ZM3.35 11.9C3.10147 11.9 2.9 12.1015 2.9 12.35V15.65C2.9 15.8985 3.10147 16.1 3.35 16.1H20.65C20.8985 16.1 21.1 15.8985 21.1 15.65V12.35C21.1 12.1015 20.8985 11.9 20.65 11.9H3.35ZM17.25 13.25H6.75C6.33579 13.25 6 13.5858 6 14C6 14.4142 6.33579 14.75 6.75 14.75H17.25C17.6642 14.75 18 14.4142 18 14C18 13.5858 17.6642 13.25 17.25 13.25Z" fill="black"/>
</svg>
