<?xml version="1.0" encoding="UTF-8"?>
<svg width="24px" height="24px" viewBox="0 0 24 24" version="1.1" xmlns="http://www.w3.org/2000/svg" xmlns:xlink="http://www.w3.org/1999/xlink">
    <title>icons/functional_UI/M-S/mdpi/ic_Restore_to_Phone</title>
    <g id="icons/functional_UI/M-S/ic_Restore_to_Phone" stroke="none" stroke-width="1" fill="none" fill-rule="evenodd">
        <path d="M7.25855798,5.7332723 L7.20445798,5.78686346 L7.25855798,5.83290397 L7.25855798,5.73290397 L7.25855798,5.7332723 Z M15.6,5.39999997 L12.6168,8.75495999 C12.45576,8.90687999 12.28992,8.99999999 12,8.99999999 C11.72928,8.99999999 11.54424,8.90687999 11.3832,8.75495999 L8.39999999,5.39999997 L10.2,5.39999997 L10.2,2.09999996 C10.2,1.60294368 10.6029437,1.19999995 11.1,1.19999995 L12.9,1.19999995 C13.3970563,1.19999995 13.8,1.60294368 13.8,2.09999996 L13.8,5.39999997 L15.6,5.39999997 Z M16.801224,1.79999996 L14.4,1.79999996 L14.4,3.59999996 L16.8,3.59999996 L16.8,19.8 L7.19999998,19.8 L7.19999998,3.59999996 L9.59999999,3.59999996 L9.59999999,1.79999996 L7.19877598,1.79999996 C6.53637499,1.8003445 5.99966852,2.33759896 5.99999982,2.99999996 L5.99999982,21 C5.99966852,21.662401 6.53637499,22.1996555 7.19877598,22.2 L16.801176,22.2 C17.1192809,22.2 17.4242959,22.0733325 17.6491197,21.8482882 C17.8739435,21.6232438 18.0001592,21.3181049 17.9999998,21 L17.9999998,2.99999996 C18.0003315,2.33759896 17.463625,1.8003445 16.801224,1.79999996 Z M12,21.6 C11.6686291,21.6 11.4,21.3313709 11.4,21 C11.4,20.6686292 11.6686291,20.4 12,20.4 C12.3313709,20.4 12.6,20.6686292 12.6,21 C12.6,21.3313709 12.3313709,21.6 12,21.6 Z" fill="#000000"></path>
    </g>
</svg>