<?xml version="1.0" encoding="UTF-8"?>
<svg width="24px" height="24px" viewBox="0 0 24 24" version="1.1" xmlns="http://www.w3.org/2000/svg" xmlns:xlink="http://www.w3.org/1999/xlink">
    <title>icons/functional_UI/M-S/mdpi/ic_Remote_Desktop_Protocol</title>
    <g id="icons/functional_UI/M-S/ic_Remote_Desktop_Protocol" stroke="none" stroke-width="1" fill="none" fill-rule="evenodd">
        <path d="M16.8,19.8 L13.8,19.8 L13.8,18 L10.2,18 L10.2,19.8 L7.19999998,19.8 C6.86862913,19.8 6.59999998,20.0686292 6.59999998,20.4 L6.59999998,21 L17.4,21 L17.4,20.4 C17.4,20.0686292 17.1313709,19.8 16.8,19.8 Z M20.4,2.99999996 L3.59999996,2.99999996 C2.93725826,2.99999996 2.39999996,3.53725826 2.39999996,4.19999997 L2.39999996,16.2 C2.39999996,16.8627417 2.93725826,17.4 3.59999996,17.4 L20.4,17.4 C21.0627417,17.4 21.6,16.8627417 21.6,16.2 L21.6,4.19999997 C21.6,3.53725826 21.0627417,2.99999996 20.4,2.99999996 Z M3.59999996,4.19999997 L3.59999996,15 L20.4,15 L20.4,4.19999997 L3.59999996,4.19999997 Z M12,15.6 C11.6686291,15.6 11.4,15.8686292 11.4,16.2 C11.4,16.5313709 11.6686291,16.8 12,16.8 C12.3313709,16.8 12.6,16.5313709 12.6,16.2 C12.6,15.8686292 12.3313709,15.6 12,15.6 Z M14.549544,6.43199998 L15.576,7.45713598 L14.036304,8.99486399 L15.576,10.532568 L14.549544,11.557704 L11.983392,8.99486399 L14.549544,6.43199998 Z M9.42645599,13.344 L8.39999998,12.318864 L9.93969599,10.781136 L8.39999998,9.24343199 L9.42645599,8.21829598 L11.992608,10.781136 L9.42645599,13.344 Z" fill="#000000"></path>
    </g>
</svg>