<?xml version="1.0" encoding="UTF-8"?>
<svg width="24px" height="24px" viewBox="0 0 24 24" version="1.1" xmlns="http://www.w3.org/2000/svg" xmlns:xlink="http://www.w3.org/1999/xlink">
    <title>icons/functional_UI/M-S/mdpi/ic_Restricted</title>
    <g id="icons/functional_UI/M-S/ic_Restricted" stroke="none" stroke-width="1" fill="none" fill-rule="evenodd">
        <path d="M12,1.79999996 C6.36669598,1.79999996 1.79999996,6.36669598 1.79999996,12 C1.79999996,17.633304 6.36669598,22.2 12,22.2 C17.633304,22.2 22.2,17.633304 22.2,12 C22.2,6.36669598 17.633304,1.79999996 12,1.79999996 Z M4.19998615,12 C4.19763168,9.15326165 5.74679511,6.53146541 8.24149642,5.16019219 C10.7361977,3.78891896 13.7799248,3.88612126 16.182048,5.41377597 L5.41377597,16.182048 C4.6183783,14.9324281 4.19720545,13.4812831 4.19998615,12 Z M19.188,15.035376 C18.2963386,17.1504907 16.5180799,18.765318 14.3270597,19.4495702 C12.1360396,20.1338223 9.75483821,19.8179877 7.81795198,18.586224 L18.586224,7.81795198 C19.9558379,9.98031772 20.1806035,12.6760528 19.188,15.035376 L19.188,15.035376 Z" fill="#000000"></path>
    </g>
</svg>