<?xml version="1.0" encoding="UTF-8"?>
<svg width="24px" height="24px" viewBox="0 0 24 24" version="1.1" xmlns="http://www.w3.org/2000/svg" xmlns:xlink="http://www.w3.org/1999/xlink">
    <title>icons/functional_UI/M-S/mdpi/ic_Ratings_stars</title>
    <g id="icons/functional_UI/M-S/ic_Ratings_stars" stroke="none" stroke-width="1" fill="none" fill-rule="evenodd">
        <path d="M6.13545598,11.4 L5.39999996,9.23999999 L4.72027197,11.4 L2.39999996,11.4 L4.25279997,12.737808 L3.59999996,15 L5.40787197,13.596528 L7.19999998,15 L6.57698398,12.737808 L8.39999996,11.39856 M12.735456,11.4 L12,9.23999999 L11.320272,11.4 L8.99999999,11.4 L10.8528,12.737808 L10.2,15 L12.007872,13.596528 L13.8,15 L13.176984,12.737808 L15,11.39856 M19.335456,11.4 L18.6,9.23999999 L17.920272,11.4 L15.6,11.4 L17.4528,12.737808 L16.8,15 L18.607872,13.596528 L20.4,15 L19.776984,12.737808 L21.6,11.39856" fill="#000000"></path>
    </g>
</svg>