<svg width="24" height="24"><path fill-rule="evenodd" d="M8.412 6c2.385 0 4.327 1.845 4.408 4.15l.003 1.053 1.091 1.503a.372.372 0 0 1-.096.558.387.387 0 0 1-.205.057h-.79v2.038a.765.765 0 0 1-.773.754h-1.935V18H5.858a.765.765 0 0 1-.774-.755v-3.147a3.24 3.24 0 0 0-.282-1.322A4.209 4.209 0 0 1 4 10.302C4 7.926 5.975 6 8.412 6Zm7.077 6.798a.449.449 0 0 0-.388.221.435.435 0 0 0 .002.442 3.052 3.052 0 0 1-.035 3.16.434.434 0 0 0-.014.443.449.449 0 0 0 .777.017 3.924 3.924 0 0 0 .044-4.064.448.448 0 0 0-.386-.219ZM18.579 19a.448.448 0 0 1-.445-.442c0-.077.022-.154.061-.22a6.537 6.537 0 0 0-.012-6.673.435.435 0 0 1 .159-.604.45.45 0 0 1 .611.157 7.4 7.4 0 0 1 .015 7.564.448.448 0 0 1-.388.218Zm-1.44-.885a.453.453 0 0 1-.47-.16.437.437 0 0 1-.028-.49 4.787 4.787 0 0 0 0-4.905.435.435 0 0 1 .158-.606.447.447 0 0 1 .447-.003.449.449 0 0 1 .166.162 5.657 5.657 0 0 1 0 5.799.446.446 0 0 1-.273.203Z"/></svg>