<?xml version="1.0" encoding="UTF-8"?>
<svg width="24px" height="24px" viewBox="0 0 24 24" version="1.1" xmlns="http://www.w3.org/2000/svg" xmlns:xlink="http://www.w3.org/1999/xlink">
    <title>icons/functional_UI/M-S/mdpi/ic_Restricted_content</title>
    <g id="icons/functional_UI/M-S/ic_Restricted_content" stroke="none" stroke-width="1" fill="none" fill-rule="evenodd">
        <path d="M19.2,4.19999997 L4.79999996,4.19999997 C4.00432971,4.19999997 3.24124978,4.51608696 2.67863719,5.07872205 C2.1160246,5.64135715 1.79999996,6.40444972 1.79999996,7.20011998 L1.79999996,19.8 L22.2,19.8 L22.2,7.20011998 C22.2,6.40444972 21.8839754,5.64135715 21.3213628,5.07872205 C20.7587502,4.51608696 19.9956703,4.19999997 19.2,4.19999997 Z M10.395024,7.23278398 C10.551768,6.58492798 11.10504,6.11327998 11.789616,6.01485598 C12.652296,5.89101597 13.495032,6.53548798 13.612656,7.39406398 C13.702176,8.04863998 13.477512,8.56300799 12.95712,8.95785599 C12.84456,9.04331999 12.792456,9.14265599 12.808056,9.28550399 C12.87576,9.91509599 13.054104,11.714136 13.080744,11.999904 L10.8984,11.999904 L11.174928,9.28564799 C11.190528,9.14330399 11.149464,9.04946399 11.029464,8.96404799 C10.424328,8.53300799 10.241664,7.86741598 10.395024,7.23278398 Z M7.01443198,16.288128 L7.82863198,17.468352 C8.05364775,17.7980142 7.97001228,18.2475329 7.64148724,18.4742057 C7.3129622,18.7008786 6.86302812,18.6195076 6.63470398,18.292128 L6.07015198,17.473728 L5.50535997,18.292128 C5.2778805,18.6218155 4.82620746,18.7046715 4.49651998,18.477192 C4.1668325,18.2497125 4.08397652,17.7980395 4.31145597,17.468352 L5.12563197,16.288128 C5.16379376,16.2329561 5.16379376,16.159916 5.12563197,16.104744 L4.31145597,14.92452 C4.08397652,14.5948325 4.1668325,14.1431595 4.49651998,13.91568 C4.82620746,13.6882006 5.2778805,13.7710565 5.50535997,14.100744 L6.07015198,14.919144 L6.63470398,14.100744 C6.86302812,13.7733645 7.3129622,13.6919935 7.64148724,13.9186663 C7.97001228,14.1453391 8.05364775,14.5948578 7.82863198,14.92452 L7.01443198,16.104744 C6.97627019,16.159916 6.97627019,16.2329561 7.01443198,16.288128 L7.01443198,16.288128 Z M12.93192,16.288128 L13.746336,17.468352 C13.9738155,17.7980395 13.8909595,18.2497125 13.561272,18.477192 C13.2315845,18.7046715 12.7799115,18.6218155 12.552432,18.292128 L11.98788,17.473728 L11.423088,18.292128 C11.1947639,18.6195076 10.7448298,18.7008786 10.4163047,18.4742057 C10.0877797,18.2475329 10.0041442,17.7980142 10.22916,17.468352 L11.04336,16.288128 C11.0815218,16.2329561 11.0815218,16.159916 11.04336,16.104744 L10.22916,14.92452 C10.0041442,14.5948578 10.0877797,14.1453391 10.4163047,13.9186663 C10.7448298,13.6919935 11.1947639,13.7733645 11.423088,14.100744 L11.98788,14.919144 L12.552432,14.100744 C12.7799115,13.7710565 13.2315845,13.6882006 13.561272,13.91568 C13.8909595,14.1431595 13.9738155,14.5948325 13.746336,14.92452 L12.93192,16.104744 C12.8939984,16.1599907 12.8939984,16.2328813 12.93192,16.288128 L12.93192,16.288128 Z M18.848208,16.288128 L19.662624,17.468352 C19.8901035,17.7980395 19.8072475,18.2497125 19.47756,18.477192 C19.1478725,18.7046715 18.6961995,18.6218155 18.46872,18.292128 L17.904168,17.473728 L17.339376,18.292128 C17.1110519,18.6195076 16.6611178,18.7008786 16.3325928,18.4742057 C16.0040677,18.2475329 15.9204322,17.7980142 16.145448,17.468352 L16.959648,16.288128 C16.9978098,16.2329561 16.9978098,16.159916 16.959648,16.104744 L16.145448,14.92452 C15.9204322,14.5948578 16.0040677,14.1453391 16.3325928,13.9186663 C16.6611178,13.6919935 17.1110519,13.7733645 17.339376,14.100744 L17.904168,14.919144 L18.46872,14.100744 C18.6961995,13.7710565 19.1478725,13.6882006 19.47756,13.91568 C19.8072475,14.1431595 19.8901035,14.5948325 19.662624,14.92452 L18.848208,16.104744 C18.8102864,16.1599907 18.8102864,16.2328813 18.848208,16.288128 L18.848208,16.288128 Z" fill="#000000"></path>
    </g>
</svg>