<?xml version="1.0" encoding="UTF-8"?>
<svg width="24px" height="24px" viewBox="0 0 24 24" version="1.1" xmlns="http://www.w3.org/2000/svg" xmlns:xlink="http://www.w3.org/1999/xlink">
    <title>icons/functional_UI/M-S/mdpi/ic_Report</title>
    <g id="icons/functional_UI/M-S/ic_Report" stroke="none" stroke-width="1" fill="none" fill-rule="evenodd">
        <path d="M12,2.39999996 C6.36669598,2.39999996 1.79999996,6.02639998 1.79999996,10.5 C1.79999996,13.967136 4.54319997,16.925376 8.39999998,18.080952 L8.39999998,22.2 L12,18.6 C17.633328,18.6 22.2,14.9736 22.2,10.5 C22.2,6.02639998 17.633328,2.39999996 12,2.39999996 Z M12,13.8 L7.79999998,13.8 C7.46862913,13.8 7.19999998,13.5313709 7.19999998,13.2 C7.19999998,12.8686292 7.46862913,12.6 7.79999998,12.6 L12,12.6 C12.3313709,12.6 12.6,12.8686292 12.6,13.2 C12.6,13.5313709 12.3313709,13.8 12,13.8 Z M16.2,10.8 L7.79999998,10.8 C7.46862913,10.8 7.19999998,10.5313708 7.19999998,10.2 C7.19999998,9.86862914 7.46862913,9.59999999 7.79999998,9.59999999 L16.2,9.59999999 C16.5313709,9.59999999 16.8,9.86862914 16.8,10.2 C16.8,10.5313708 16.5313709,10.8 16.2,10.8 Z M16.2,7.79999998 L7.79999998,7.79999998 C7.46862913,7.79999998 7.19999998,7.53137083 7.19999998,7.19999998 C7.19999998,6.86862913 7.46862913,6.59999998 7.79999998,6.59999998 L16.2,6.59999998 C16.5313709,6.59999998 16.8,6.86862913 16.8,7.19999998 C16.8,7.53137083 16.5313709,7.79999998 16.2,7.79999998 Z" fill="#000000"></path>
    </g>
</svg>