<?xml version="1.0" encoding="UTF-8"?>
<svg width="24px" height="24px" viewBox="0 0 24 24" version="1.1" xmlns="http://www.w3.org/2000/svg" xmlns:xlink="http://www.w3.org/1999/xlink">
    <title>icons/functional_UI/M-S/mdpi/ic_Ringtone</title>
    <g id="icons/functional_UI/M-S/ic_Ringtone" stroke="none" stroke-width="1" fill="none" fill-rule="evenodd">
        <path d="M8.99591999,13.40724 C8.84355514,13.2550807 8.59674084,13.2550807 8.44437599,13.40724 C7.78613047,14.0650155 7.41629245,14.9574326 7.41629245,15.888 C7.41629245,16.8185674 7.78613047,17.7109846 8.44437599,18.36876 C8.59718929,18.5174013 8.84105158,18.5157563 8.99184577,18.3650671 C9.14263995,18.2143779 9.14445475,17.9705168 8.99591999,17.8176 C8.48396232,17.3060105 8.19631653,16.6119252 8.19631653,15.888168 C8.19631653,15.1644108 8.48396232,14.4703255 8.99591999,13.958736 C9.06908589,13.8856206 9.11019432,13.7864245 9.11019432,13.682988 C9.11019432,13.5795515 9.06908589,13.4803554 8.99591999,13.40724 Z M6.58403998,15.888 C6.58098747,14.7500561 7.03347879,13.6582208 7.84058398,12.856032 C7.99062461,12.7033597 7.9895246,12.4582731 7.83811958,12.3069537 C7.68671455,12.1556343 7.4416274,12.154673 7.28903998,12.3048 C6.33828337,13.2549232 5.80410058,14.543947 5.80410058,15.888072 C5.80410058,17.2321971 6.33828337,18.5212209 7.28903998,19.471344 C7.38751238,19.5698722 7.53106876,19.6083815 7.66563283,19.572366 C7.8001969,19.5363504 7.90532517,19.4312816 7.94141683,19.296738 C7.9775085,19.1621943 7.93908038,19.0186162 7.84060798,18.920088 C7.03348478,18.1178603 6.58098584,17.0259842 6.58403998,15.888 L6.58403998,15.888 Z M4.97999997,15.888 C4.97582973,14.3362424 5.59284785,12.8473544 6.69343198,11.753424 C6.79190009,11.6549002 6.83032654,11.5113282 6.79423644,11.3767904 C6.75814635,11.2422526 6.65302265,11.1371884 6.51846444,11.1011744 C6.38390623,11.0651605 6.24035609,11.1036681 6.14188798,11.202192 C4.89734441,12.4440143 4.19793789,14.1299208 4.19793789,15.888048 C4.19793789,17.6461752 4.89734441,19.3320818 6.14188798,20.573904 C6.29413963,20.7262087 6.54103131,20.7262517 6.69333598,20.574 C6.84564065,20.4217484 6.84568363,20.1748567 6.69343198,20.022552 C5.59283562,18.9286396 4.97581472,17.4397536 4.97999997,15.888 L4.97999997,15.888 Z M15.6,3.59999996 L13.8,3.59999996 L13.8,13.35384 C12.691066,12.9616629 11.4558388,13.3324221 10.746175,14.2704599 C10.0365112,15.2084977 10.0156834,16.4979995 10.6946828,17.4584668 C11.3736822,18.418934 12.5962912,18.8293919 13.7173123,18.4732327 C14.8383334,18.1170734 15.5998528,17.0762388 15.6,15.9 L15.6,5.99999997 C17.928,5.99999997 18.84,7.63199998 19.2,8.39999998 L19.8,8.39999998 C19.8,4.36799997 16.968,3.59999996 15.6,3.59999996 Z" fill="#000000"></path>
    </g>
</svg>