<?xml version="1.0" encoding="UTF-8"?>
<svg width="24px" height="24px" viewBox="0 0 24 24" version="1.1" xmlns="http://www.w3.org/2000/svg" xmlns:xlink="http://www.w3.org/1999/xlink">
    <title>icons/functional_UI/M-S/mdpi/ic_Reminders</title>
    <g id="icons/functional_UI/M-S/ic_Reminders" stroke="none" stroke-width="1" fill="none" fill-rule="evenodd">
        <path d="M18.6,22.2 L5.39999997,22.2 C4.73725827,22.2 4.19999997,21.6627417 4.19999997,21 L4.19999997,4.79999997 C4.19999997,4.13725827 4.73725827,3.59999996 5.39999997,3.59999996 L7.79999998,3.59999996 L7.79999998,4.79999997 L5.39999997,4.79999997 L5.39999997,21 L18.6,21 L18.6,4.79999997 L16.2,4.79999997 L16.2,3.59999996 L18.6,3.59999996 C19.2627417,3.59999996 19.8,4.13725827 19.8,4.79999997 L19.8,21 C19.8,21.6627417 19.2627417,22.2 18.6,22.2 Z M11.7,8.99999999 L16.5,8.99999999 C16.6656854,8.99999999 16.8,9.13431456 16.8,9.29999999 C16.8,9.46568541 16.6656854,9.59999999 16.5,9.59999999 L11.7,9.59999999 C11.5343146,9.59999999 11.4,9.46568541 11.4,9.29999999 C11.4,9.13431456 11.5343146,8.99999999 11.7,8.99999999 Z M11.7,12 L16.5,12 C16.6656854,12 16.8,12.1343146 16.8,12.3 C16.8,12.4656854 16.6656854,12.6 16.5,12.6 L11.7,12.6 C11.5343146,12.6 11.4,12.4656854 11.4,12.3 C11.4,12.1343146 11.5343146,12 11.7,12 Z M11.7,18 L16.5,18 C16.6656854,18 16.8,18.1343146 16.8,18.3 C16.8,18.4656855 16.6656854,18.6 16.5,18.6 L11.7,18.6 C11.5343146,18.6 11.4,18.4656855 11.4,18.3 C11.4,18.1343146 11.5343146,18 11.7,18 Z M11.7,15 L16.5,15 C16.6656854,15 16.8,15.1343146 16.8,15.3 C16.8,15.4656854 16.6656854,15.6 16.5,15.6 L11.7,15.6 C11.5343146,15.6 11.4,15.4656854 11.4,15.3 C11.4,15.1343146 11.5343146,15 11.7,15 Z M15,5.99999997 L8.99999999,5.99999997 C8.66862914,5.99999997 8.39999999,5.73137082 8.39999999,5.39999997 L8.39999999,5.39999997 L8.39999999,2.99999996 C8.39999999,2.66862911 8.66862914,2.39999996 8.99999999,2.39999996 L10.30284,2.39999996 C10.5571568,1.68080567 11.2371649,1.19999457 12,1.19999457 C12.7628351,1.19999457 13.4428432,1.68080567 13.69716,2.39999996 L15,2.39999996 C15.3313709,2.39999996 15.6,2.66862911 15.6,2.99999996 L15.6,5.39999997 L15.6,5.39999997 C15.6,5.73137082 15.3313709,5.99999997 15,5.99999997 Z M12,2.39999996 C11.6686291,2.39999996 11.4,2.66862911 11.4,2.99999996 C11.4,3.33137081 11.6686291,3.59999996 12,3.59999996 C12.3313709,3.59999996 12.6,3.33137081 12.6,2.99999996 C12.6,2.66862911 12.3313709,2.39999996 12,2.39999996 Z M7.27574398,8.23029598 L7.37920798,8.13429598 C7.47772359,8.04550282 7.62576805,8.04025094 7.73032798,8.12183998 L7.73032798,8.12183998 L8.23439998,8.63999999 L9.76442399,7.26479998 L9.76442399,7.26479998 C9.81365602,7.22255474 9.87650503,7.19953936 9.94137599,7.1999932 C10.0842,7.1999932 10.2,7.30744798 10.2,7.43999998 C10.1998124,7.49517583 10.1796687,7.54842077 10.143288,7.58990398 L10.143288,7.58990398 L8.48810399,9.50990399 L8.48810399,9.50990399 C8.43666257,9.56726359 8.36325165,9.60003541 8.28620398,9.60003541 C8.20915632,9.60003541 8.13574539,9.56726359 8.08430398,9.50990399 L8.08430398,9.50990399 L7.25671198,8.54990399 L7.25671198,8.54990399 C7.22033132,8.50842077 7.20018758,8.45517583 7.19999998,8.39999998 C7.20037365,8.33532197 7.22784892,8.27376377 7.27574398,8.23029598 L7.27574398,8.23029598 Z M7.25174398,11.230296 L7.35520798,11.134296 C7.45372359,11.0455028 7.60176805,11.0402509 7.70632798,11.12184 L7.70632798,11.12184 L8.21039998,11.64 L9.74042399,10.2648 L9.74042399,10.2648 C9.78965602,10.2225547 9.85250503,10.1995394 9.91737599,10.1999932 C10.0602,10.1999932 10.176,10.307448 10.176,10.44 C10.1758124,10.4951758 10.1556687,10.5484208 10.119288,10.589904 L10.119288,10.589904 L8.46410399,12.509904 L8.46410399,12.509904 C8.41266257,12.5672636 8.33925165,12.6000354 8.26220398,12.6000354 C8.18515632,12.6000354 8.11174539,12.5672636 8.06030398,12.509904 L8.06030398,12.509904 L7.23271198,11.549904 L7.23271198,11.549904 C7.19633132,11.5084208 7.17618758,11.4551758 7.17599998,11.4 C7.17637365,11.335322 7.20384892,11.2737638 7.25174398,11.230296 L7.25174398,11.230296 Z M7.27574398,14.230296 L7.37920798,14.134296 C7.47772359,14.0455028 7.62576805,14.040251 7.73032798,14.12184 L7.73032798,14.12184 L8.23439998,14.64 L9.76442399,13.26492 L9.76442399,13.26492 C9.8136388,13.2226314 9.87648962,13.1995728 9.94137599,13.1999942 C10.0842,13.1999942 10.2,13.307448 10.2,13.44 C10.1998124,13.4951759 10.1796687,13.5484208 10.143288,13.589904 L10.143288,13.589904 L8.48810399,15.509904 L8.48810399,15.509904 C8.43666257,15.5672636 8.36325165,15.6000354 8.28620398,15.6000354 C8.20915632,15.6000354 8.13574539,15.5672636 8.08430398,15.509904 L8.08430398,15.509904 L7.25671198,14.549904 L7.25671198,14.549904 C7.22033132,14.5084208 7.20018758,14.4551759 7.19999998,14.4 C7.20037365,14.335322 7.22784892,14.2737638 7.27574398,14.230296 Z M7.19999998,17.4 C7.20037365,17.335322 7.22784892,17.2737638 7.27574398,17.230296 L7.37920798,17.134296 C7.47772359,17.0455029 7.62576805,17.040251 7.73032798,17.12184 L7.73032798,17.12184 L8.23439998,17.64 L9.76442399,16.26492 L9.76442399,16.26492 C9.8136388,16.2226314 9.87648962,16.1995728 9.94137599,16.1999942 C10.0842,16.1999942 10.2,16.307448 10.2,16.44 C10.1998124,16.4951759 10.1796687,16.5484208 10.143288,16.589904 L10.143288,16.589904 L8.48810399,18.509904 L8.48810399,18.509904 C8.43666257,18.5672636 8.36325165,18.6000354 8.28620398,18.6000354 C8.20915632,18.6000354 8.13574539,18.5672636 8.08430398,18.509904 L8.08430398,18.509904 L7.25671198,17.549904 L7.25671198,17.549904 C7.22033132,17.5084208 7.20018758,17.4551759 7.19999998,17.4 L7.19999998,17.4 Z" fill="#000000"></path>
    </g>
</svg>