<svg width="24" height="24">
<path d="M10.8475 19.8212L17.0601 11.9361L10.8964 4.11487C10.4448 3.54177 10.5519 2.71774 11.1357 2.27436C11.7195 1.83098 12.5588 1.93614 13.0105 2.50924L19.6524 10.9374C20.1158 11.5254 20.1159 12.3465 19.6526 12.9345L12.9617 21.4267C12.5101 21.9998 11.6707 22.105 11.0869 21.6617C10.5031 21.2184 10.3959 20.3944 10.8475 19.8212Z"/>
<path d="M4.27938 19.8852L10.492 12.0001L4.32837 4.17887C3.87672 3.60577 3.98384 2.78174 4.56762 2.33836C5.1514 1.89498 5.99077 2.00014 6.44241 2.57324L13.0844 11.0014C13.5477 11.5894 13.5478 12.4105 13.0845 12.9985L6.39361 21.4907C5.94203 22.0638 5.10267 22.1691 4.51884 21.7257C3.93501 21.2824 3.8278 20.4584 4.27938 19.8852Z"/>
</svg>
