<svg width="24" height="24">
<path fill-rule="evenodd" clip-rule="evenodd" d="M12 2C6.47715 2 2 6.47715 2 12C2 17.5228 6.47715 22 12 22C17.5228 22 22 17.5228 22 12C21.9918 6.48054 17.5195 2.00816 12 2ZM12 19.7778C7.70445 19.7778 4.22222 16.2955 4.22222 12C4.22222 7.70445 7.70445 4.22222 12 4.22222C16.2955 4.22222 19.7778 7.70445 19.7778 12C19.7737 16.2939 16.2939 19.7737 12 19.7778ZM8.66658 16.2001C8.37215 16.199 8.09002 16.0819 7.88139 15.8741C7.67148 15.6668 7.55334 15.384 7.55334 15.089C7.55334 14.7939 7.67148 14.5111 7.88139 14.3038L10.1851 12.0001L7.88139 9.69637C7.67148 9.48901 7.55334 9.20624 7.55334 8.91118C7.55334 8.61613 7.67148 8.33336 7.88139 8.126C8.31686 7.69677 9.01629 7.69677 9.45176 8.126L12.5406 11.2149C12.9739 11.6487 12.9739 12.3515 12.5406 12.7853L9.45176 15.8741C9.24313 16.0819 8.961 16.199 8.66658 16.2001ZM12.9407 15.8741C13.1502 16.0805 13.4318 16.1974 13.7259 16.2C14.0206 16.2006 14.3034 16.0832 14.5111 15.8741L17.6 12.7852C18.0332 12.3514 18.0332 11.6486 17.6 11.2148L14.5111 8.12595C14.2341 7.82869 13.8169 7.70632 13.4232 7.80686C13.0296 7.9074 12.7222 8.21481 12.6216 8.60848C12.5211 9.00216 12.6434 9.41933 12.9407 9.69632L15.2444 12L12.9407 14.3037C12.5115 14.7392 12.5115 15.4386 12.9407 15.8741Z" fill="black"/>
</svg>
