<?xml version="1.0" encoding="UTF-8"?>
<svg width="24px" height="24px" viewBox="0 0 24 24" version="1.1" xmlns="http://www.w3.org/2000/svg" xmlns:xlink="http://www.w3.org/1999/xlink">
    <title>icons/functional_UI/M-S/mdpi/ic_Reload</title>
    <g id="icons/functional_UI/M-S/ic_Reload" stroke="none" stroke-width="1" fill="none" fill-rule="evenodd">
        <path d="M18.788544,5.21207997 C18.7884284,5.21198831 18.7883237,5.21188362 18.788232,5.21176797 C16.9878822,3.41141451 14.5460817,2.39998616 12,2.39998616 C9.45391831,2.39998616 7.01211777,3.41141451 5.21176797,5.21176797 C1.46272796,8.96080799 1.46272796,15.039192 5.21176797,18.788232 C7.01211777,20.5885855 9.45391831,21.6000138 12,21.6000138 C14.5460817,21.6000138 16.9878822,20.5885855 18.788232,18.788232 L16.242648,16.242648 C13.8995001,18.5857878 10.100514,18.5857835 7.75737148,16.2426383 C5.41422897,13.8994931 5.41422897,10.1005069 7.75737148,7.75736173 C10.100514,5.41421653 13.8995001,5.41421216 16.242648,7.75735198 L16.24332,7.75799998 L13.801992,10.2 L19.8,10.2 C20.4627417,10.2 21,9.66274169 21,8.99999999 L21,8.99999999 L21,2.99999996 L18.788544,5.21207997 Z" fill="#000000"></path>
    </g>
</svg>