<?xml version="1.0" encoding="UTF-8"?>
<svg width="24px" height="24px" viewBox="0 0 24 24" version="1.1" xmlns="http://www.w3.org/2000/svg" xmlns:xlink="http://www.w3.org/1999/xlink">
    <title>icons/functional_UI/M-S/mdpi/ic_Religious_Donation</title>
    <g id="icons/functional_UI/M-S/ic_Religious_Donation" stroke="none" stroke-width="1" fill="none" fill-rule="evenodd">
        <path d="M13.079832,6.69623998 C13.3026139,6.69623998 13.5162711,6.78473972 13.6738017,6.94227028 C13.8313323,7.09980084 13.919832,7.31345813 13.919832,7.53623998 L13.920432,11.256 C13.920432,11.3885483 14.0278837,11.496 14.160432,11.496 C14.2929803,11.496 14.400432,11.3885483 14.400432,11.256 L14.4,5.85655197 C14.4,5.85638397 14.4,5.85623997 14.4,5.85609597 C14.4,5.39217678 14.7760808,5.01609597 15.24,5.01609597 C15.7039192,5.01609597 16.08,5.39217678 16.08,5.85609597 L16.080432,10.536096 C16.080432,10.6686443 16.1878837,10.776096 16.320432,10.776096 C16.4529804,10.776096 16.560432,10.6686443 16.560432,10.536096 L16.56,4.89645597 L16.56,4.89599997 C16.56,4.43208078 16.9360808,4.05599997 17.4,4.05599997 C17.8639192,4.05599997 18.24,4.43208078 18.24,4.89599997 L18.240192,10.296 C18.240192,10.4285483 18.3476437,10.536 18.480192,10.536 C18.6127404,10.536 18.720192,10.4285483 18.720192,10.296 L18.720192,5.61599997 C18.720192,5.15208078 19.0962728,4.77599997 19.560192,4.77599997 C20.0241112,4.77599997 20.400192,5.15208078 20.400192,5.61599997 L20.400192,12.456 L19.920192,12.456 C19.8912,12.456 19.862296,12.45636 19.83348,12.45708 C19.740432,12.45948 19.648392,12.465768 19.55748,12.475536 C19.515432,12.48008 19.473624,12.485376 19.432056,12.491424 C19.415016,12.49392 19.398024,12.496528 19.38108,12.499248 C19.279368,12.515696 19.179216,12.536536 19.080624,12.561768 C19.078416,12.562344 19.076232,12.562992 19.074024,12.563568 C19.032672,12.574272 18.991704,12.585936 18.950976,12.598176 C18.928576,12.604912 18.906336,12.611864 18.884256,12.619032 C18.837408,12.6342 18.791008,12.650352 18.745056,12.667488 C18.714512,12.67888 18.684192,12.690728 18.654096,12.703032 C18.604176,12.723368 18.554864,12.744848 18.50616,12.767472 C18.48016,12.779536 18.45436,12.791936 18.42876,12.804672 C18.367432,12.835072 18.307152,12.867224 18.24792,12.901128 C18.239976,12.905712 18.232176,12.910488 18.22428,12.91512 C18.171592,12.945984 18.119856,12.978232 18.069072,13.011864 C18.047712,13.025992 18.026528,13.040392 18.00552,13.055064 C17.973336,13.077408 17.941416,13.100136 17.910048,13.123584 C17.87868,13.147032 17.848392,13.17084 17.818152,13.195128 C17.800552,13.209192 17.78316,13.223432 17.765976,13.237848 C17.730776,13.267304 17.696136,13.297416 17.662056,13.328184 C17.661792,13.328448 17.661504,13.328688 17.661216,13.328928 C17.0041219,13.9245143 16.6098919,14.7562723 16.564896,15.641976 L16.564896,15.643152 C16.562304,15.694632 16.561032,15.746352 16.560744,15.798504 C16.560744,15.80436 16.560528,15.810192 16.560528,15.816072 C16.560528,15.9486204 16.6679797,16.056072 16.800528,16.056072 C16.9330764,16.056072 17.040528,15.9486204 17.040528,15.816072 C17.0404882,14.2256138 18.3296858,12.9362121 19.920144,12.936 L20.640144,12.936 C20.7726924,12.936 20.880144,12.8285483 20.880144,12.696 L20.880144,9.81599999 C20.880144,9.28580663 21.3099507,8.85599999 21.840144,8.85599999 C22.3703374,8.85599999 22.8001445,9.28580663 22.8001445,9.81599999 L22.8001445,13.896 C22.8009346,15.7827587 21.7944557,17.5264254 20.160264,18.46944 L20.160264,21.576 C20.160264,21.8410967 19.9453607,22.056 19.680264,22.056 L15.120384,22.056 C14.8552873,22.056 14.640384,21.8410967 14.640384,21.576 L14.640384,18.321744 C13.1426397,17.3480769 12.2394283,15.6825551 12.240384,13.896144 C12.240384,13.815696 12.239736,13.896144 12.239736,13.896144 L12.239736,7.53623998 C12.239736,7.31344149 12.3282489,7.09976966 12.4858002,6.94223634 C12.6433516,6.78470302 12.8570335,6.69621452 13.079832,6.69623998 Z M10.920168,6.69623998 C10.4562488,6.69623998 10.080168,7.07232079 10.080168,7.53623998 L10.079568,11.256 C10.079568,11.3885483 9.97211633,11.496 9.83956799,11.496 C9.70701965,11.496 9.59956799,11.3885483 9.59956799,11.256 L9.59999999,5.85655197 C9.59999999,5.85638397 9.59999999,5.85623997 9.59999999,5.85609597 C9.59999999,5.39217678 9.22391918,5.01609597 8.75999999,5.01609597 C8.29608079,5.01609597 7.91999998,5.39217678 7.91999998,5.85609597 L7.91956798,10.536096 C7.91956798,10.6686443 7.81211632,10.776096 7.67956798,10.776096 C7.54701964,10.776096 7.43956798,10.6686443 7.43956798,10.536096 L7.43999998,4.89645597 L7.43999998,4.89599997 C7.43999998,4.43208078 7.06391917,4.05599997 6.59999998,4.05599997 C6.13608079,4.05599997 5.75999997,4.43208078 5.75999997,4.89599997 L5.75980797,10.296 C5.75980797,10.4285483 5.65235631,10.536 5.51980797,10.536 C5.38725963,10.536 5.27980797,10.4285483 5.27980797,10.296 L5.27980797,5.61599997 C5.27980797,5.15208078 4.90372716,4.77599997 4.43980797,4.77599997 C3.97588878,4.77599997 3.59980796,5.15208078 3.59980796,5.61599997 L3.59980796,12.456 L4.07980797,12.456 C4.10879997,12.456 4.13770397,12.45636 4.16651997,12.45708 C4.25956797,12.45948 4.35160797,12.465768 4.44251997,12.475536 C4.48456797,12.48008 4.52637597,12.485376 4.56794397,12.491424 C4.58498397,12.49392 4.60197597,12.496528 4.61891997,12.499248 C4.72063197,12.515696 4.82078397,12.536536 4.91937597,12.561768 C4.92158397,12.562344 4.92376797,12.562992 4.92597597,12.563568 C4.96735197,12.574272 5.00829597,12.585936 5.04902397,12.598176 C5.07142397,12.604912 5.09366397,12.611864 5.11574397,12.619032 C5.16259197,12.6342 5.20899197,12.650352 5.25494397,12.667488 C5.28550397,12.67888 5.31582397,12.690728 5.34590397,12.703032 C5.39582397,12.723368 5.44513597,12.744848 5.49383997,12.767472 C5.51983997,12.779536 5.54563997,12.791936 5.57123997,12.804672 C5.63256797,12.835072 5.69284797,12.867224 5.75207997,12.901128 C5.76002397,12.905712 5.76782397,12.910488 5.77571997,12.91512 C5.82839197,12.945984 5.88012797,12.978232 5.93092797,13.011864 C5.95228797,13.025992 5.97347197,13.040392 5.99447997,13.055064 C6.02666398,13.077408 6.05858398,13.100136 6.08995198,13.123584 C6.12131998,13.147032 6.15160798,13.17084 6.18184798,13.195128 C6.19944798,13.209192 6.21683998,13.223432 6.23402398,13.237848 C6.26922398,13.267304 6.30386398,13.297416 6.33794398,13.328184 C6.33820798,13.328448 6.33849598,13.328688 6.33878398,13.328928 C6.99587807,13.9245143 7.39010805,14.7562723 7.43510398,15.641976 L7.43510398,15.643152 C7.43769598,15.694624 7.43907998,15.746408 7.43925598,15.798504 C7.43925598,15.80436 7.43947198,15.810192 7.43947198,15.816072 C7.43947198,15.9486204 7.33202032,16.056072 7.19947198,16.056072 C7.06692364,16.056072 6.95947198,15.9486204 6.95947198,15.816072 C6.95951175,14.2256138 5.67031421,12.9362121 4.07985597,12.936 L3.35999996,12.936 C3.22745162,12.936 3.11999996,12.8285483 3.11999996,12.696 L3.11999996,9.81599999 C3.11999996,9.28580663 2.69019332,8.85599999 2.15999996,8.85599999 C1.6298066,8.85599999 1.19999952,9.28580663 1.19999952,9.81599999 L1.19999952,13.896 C1.19923909,15.7827821 2.20576577,17.5264523 3.83999997,18.46944 L3.83999997,21.576 C3.83999997,21.8410967 4.05490329,22.056 4.31999997,22.056 L8.87975999,22.056 C9.0070639,22.056 9.12915378,22.0054288 9.21917124,21.9154113 C9.30918871,21.8253938 9.35975999,21.703304 9.35975999,21.576 L9.35975999,18.321744 C10.8575043,17.3480769 11.7607157,15.6825551 11.75976,13.896144 C11.75976,13.815696 11.760408,13.896144 11.760408,13.896144 L11.760408,7.53623998 C11.760408,7.31341654 11.6718753,7.09972287 11.5142928,6.94218541 C11.3567104,6.78464795 11.1429914,6.69617631 10.920168,6.69623998 Z" fill="#000000"></path>
    </g>
</svg>