<svg xmlns="http://www.w3.org/2000/svg" width="24" height="24"><path fill-rule="evenodd" d="M10.222 12.778h.033l.026.001.026.003.031.003.032.005.029.003.024.006.028.005.033.01.03.008.024.009.021.005.028.011.04.016.02.011.014.006.04.02.032.018.01.006.015.01.045.03.032.024.008.006c.061.05.114.102.16.158l.002.004.007.009.022.031.033.046.008.015.007.01.016.03.022.041.005.013.012.022.015.04.012.028.005.02.01.025.006.029.011.034.004.028.007.024.002.028.006.033.002.03.004.027-.001.025.002.034v5.333a1 1 0 0 1-2 0v-2.92l-4.515 4.516c-.36.36-.928.388-1.32.084l-.094-.084a1 1 0 0 1 0-1.414l4.515-4.516h-2.92a1 1 0 0 1-.993-.883l-.006-.116a1 1 0 0 1 1-1h5.333Zm9.071-9.485a1.002 1.002 0 0 1 1.632.325 1.002 1.002 0 0 1-.218 1.09l-4.516 4.514h2.92a1 1 0 0 1 .994.884l.006.116a1 1 0 0 1-1 1h-5.333l-.034-.002h-.025l-.027-.003-.03-.002-.033-.006-.027-.002-.026-.007-.028-.004-.033-.011-.029-.007-.025-.009-.02-.005-.028-.012-.04-.015-.022-.012-.013-.005-.04-.022-.031-.017-.01-.006-.015-.01-.047-.03-.03-.023-.01-.007a.988.988 0 0 1-.157-.157l-.004-.005-.006-.008-.023-.032-.032-.045-.009-.016-.005-.009-.018-.032-.021-.04-.006-.013-.01-.021-.017-.041-.01-.027-.007-.021-.01-.024-.006-.03-.01-.033-.005-.028-.006-.024-.003-.028-.005-.033-.003-.03-.003-.027V4.89a1 1 0 1 1 1.999 0v2.92l4.515-4.516Z"/></svg>