<?xml version="1.0" encoding="UTF-8"?>
<svg width="24px" height="24px" viewBox="0 0 24 24" version="1.1" xmlns="http://www.w3.org/2000/svg" xmlns:xlink="http://www.w3.org/1999/xlink">
    <title>icons/functional_UI/M-S/mdpi/ic_Shopping</title>
    <g id="icons/functional_UI/M-S/ic_Shopping" stroke="none" stroke-width="1" fill="none" fill-rule="evenodd">
        <path d="M16.2,5.99999997 C16.2,5.99949597 16.2,5.99901597 16.2,5.99851197 L16.2,5.99131197 C16.2,5.98538397 16.199736,5.97952797 16.199688,5.97359997 C16.185288,3.67562397 14.301168,1.79999996 12,1.79999996 L11.994048,1.79999996 L11.988,1.79999996 C9.67473599,1.79999996 7.79999998,3.69575997 7.79999998,5.99980797 L7.79999998,5.99999997 L4.19999997,5.99999997 L4.19999997,20.4 C4.19999997,21.3941126 5.00588742,22.2 5.99999997,22.2 L18,22.2 C18.9941126,22.2 19.8,21.3941126 19.8,20.4 L19.8,5.99999997 L16.2,5.99999997 Z M9.88228799,3.88228797 C10.4423353,3.31762125 11.2047004,3.00000358 11.9999993,3.00000358 C12.7952996,3.00000358 13.5576647,3.31762125 14.117712,3.88228797 C14.151408,3.91588797 14.18416,3.95020797 14.215968,3.98524797 C14.7127315,4.53596829 14.9904421,5.24964838 14.996568,5.99128797 L14.996568,6.00000358 L8.99999932,6.00000358 C8.99946939,5.2045936 9.31717022,4.4420321 9.88228799,3.88228797 L9.88228799,3.88228797 Z M7.79999998,19.8 L7.19999998,19.8 L7.19999998,12 L7.79999998,12 L7.79999998,19.8 Z M9.59999999,19.2 L8.39999999,19.2 L8.39999999,12 L9.59999999,12 L9.59999999,19.2 Z M8.39999999,9.59999999 C7.85699416,9.59986331 7.38174756,9.23510609 7.24119709,8.71060546 C7.10064662,8.18610483 7.32982207,7.63258358 7.79999998,7.36094398 L7.79999998,8.39999998 C7.79999998,8.73137084 8.06862913,8.99999999 8.39999998,8.99999999 C8.73137084,8.99999999 8.99999999,8.73137084 8.99999999,8.39999998 L8.99999999,7.36094398 C9.4701779,7.63258358 9.69935335,8.18610483 9.55880288,8.71060546 C9.41825241,9.23510609 8.94300581,9.59986331 8.39999999,9.59999999 L8.39999999,9.59999999 Z M10.8,19.2 L10.2,19.2 L10.2,12 L10.8,12 L10.8,19.2 Z M12.6,19.2 L11.4,19.2 L11.4,12 L12.6,12 L12.6,19.2 Z M13.8,19.2 L13.2,19.2 L13.2,12 L13.8,12 L13.8,19.2 Z M15.6,19.2 L14.4,19.2 L14.4,12 L15.6,12 L15.6,19.2 Z M16.8,19.8 L16.2,19.8 L16.2,12 L16.8,12 L16.8,19.8 Z M15.6,9.59999999 C15.057704,9.59988863 14.5828763,9.23608788 14.4416518,8.71250349 C14.3004273,8.1889191 14.5279072,7.63568747 14.996592,7.36288798 C14.996592,7.90444798 14.996592,8.39999999 14.996592,8.39999999 L15,8.39999999 C15,8.40026399 15,8.40052799 15,8.40079199 C15,8.73216284 15.2686292,9.00079199 15.6,9.00079199 C15.9313709,9.00079199 16.2,8.73216284 16.2,8.40079199 C16.2,8.40052799 16.2,8.40026399 16.2,8.39999999 L16.2,7.36094398 C16.6701779,7.63258358 16.8993534,8.18610483 16.7588029,8.71060546 C16.6182524,9.23510609 16.1430058,9.59986331 15.6,9.59999999 L15.6,9.59999999 Z" fill="#000000"></path>
    </g>
</svg>