<?xml version="1.0" encoding="UTF-8"?>
<svg width="24px" height="24px" viewBox="0 0 24 24" version="1.1" xmlns="http://www.w3.org/2000/svg" xmlns:xlink="http://www.w3.org/1999/xlink">
    <title>icons/functional_UI/M-S/mdpi/ic_Session_enter</title>
    <g id="icons/functional_UI/M-S/ic_Session_enter" stroke="none" stroke-width="1" fill="none" fill-rule="evenodd">
        <path d="M6.57055198,20.4 L17.429448,20.4 C17.7445497,20.3999868 17.9999868,20.1445497 18,19.829448 L18,4.17055197 C17.9999868,3.85545029 17.7445497,3.60001322 17.429448,3.59999996 L6.57055198,3.59999996 C6.2554503,3.60001322 6.00001323,3.85545029 5.99999998,4.17055197 L5.99999998,5.42944797 C5.99998672,5.74454965 5.74454965,5.99998672 5.42944797,5.99999997 L4.77055197,5.99999997 C4.45545029,5.99998672 4.19999997,5.74454965 4.19999997,5.42944797 L4.19999997,3.05344796 C4.19999997,2.3611761 4.76124811,1.79999996 5.45351997,1.79999996 L18.618288,1.79999996 C19.2709295,1.79999996 19.8,2.32907044 19.8,2.98171196 L19.8,20.898648 C19.8,21.24379 19.6629021,21.5747977 19.4188499,21.8188499 C19.1747977,22.0629021 18.84379,22.2 18.498648,22.2 L5.45635197,22.2 C4.76248792,22.2 4.19999997,21.6375121 4.19999997,20.943648 L4.19999997,18.570552 C4.19999997,18.2554503 4.45545029,18.0000133 4.77055197,18 L5.42944797,18 C5.74454965,18.0000133 5.99998672,18.2554503 5.99999997,18.570552 L5.99999997,19.829448 C6.00001323,20.1445497 6.2554503,20.3999868 6.57055198,20.4 Z M9.59999999,8.99999997 L5.39999997,8.99999997 C4.79661597,8.99999997 4.19999997,9.61648799 4.19999997,10.2 L4.19999997,13.8 C4.19999997,14.383512 4.79661597,15 5.39999997,15 L9.59999999,15 L9.59999999,18 L15.20304,12.948 L15.20304,12.948 C15.4568817,12.6929368 15.5995747,12.3478509 15.6,11.988 L15.6,11.988 C15.5995358,11.6281475 15.4568291,11.2830702 15.202992,11.028 L15.202992,11.028 L9.59999999,5.99999997 L9.59999999,8.99999997 Z" fill="#000000"></path>
    </g>
</svg>