<svg width="24" height="24"><path fill-rule="evenodd" d="M19.862 12.012c0-2.655 2.897-.646 1.548-3.902-1.35-3.257-1.977.211-3.855-1.666-1.877-1.877 1.592-2.504-1.664-3.853-3.257-1.349-1.249 1.547-3.903 1.547-2.655 0-.646-2.896-3.902-1.547-3.257 1.349.211 1.976-1.666 3.853-1.877 1.877-2.505-1.59-3.854 1.666-1.35 3.256 1.548 1.247 1.548 3.902 0 2.655-2.897.646-1.548 3.902 1.35 3.257 1.977-.211 3.854 1.665 1.877 1.877-1.591 2.505 1.666 3.854 3.256 1.349 1.247-1.547 3.902-1.547 2.654 0 .646 2.896 3.903 1.547 3.256-1.349-.213-1.977 1.664-3.854 1.878-1.876 2.505 1.592 3.855-1.665 1.349-3.256-1.548-1.247-1.548-3.902ZM12 7.224a4.8 4.8 0 1 1 0 9.6 4.8 4.8 0 0 1 0-9.6Z" clip-rule="evenodd"/></svg>