<?xml version="1.0" encoding="UTF-8"?>
<svg width="24px" height="24px" viewBox="0 0 24 24" version="1.1" xmlns="http://www.w3.org/2000/svg" xmlns:xlink="http://www.w3.org/1999/xlink">
    <title>icons/functional_UI/S-Z/mdpi/ic_Start_services</title>
    <g id="icons/functional_UI/S-Z/ic_Start_services" stroke="none" stroke-width="1" fill="none" fill-rule="evenodd">
        <path d="M12,1.79999996 C6.36669598,1.79999996 1.79999996,6.36669598 1.79999996,12 C1.79999996,17.633304 6.36669598,22.2 12,22.2 C17.633304,22.2 22.2,17.633304 22.2,12 C22.2,6.36669598 17.633304,1.79999996 12,1.79999996 Z M11.112,6.88799998 C11.112,6.39757112 11.5095711,5.99999997 12,5.99999997 L12,5.99999997 C12.4904289,5.99999997 12.888,6.39757112 12.888,6.88799998 L12.888,11.112 C12.888,11.6024289 12.4904289,12 12,12 L12,12 C11.5095711,12 11.112,11.6024289 11.112,11.112 L11.112,6.88799998 Z M12,17.1 C9.18784799,17.1 6.89997443,14.812152 6.89997443,12 C6.8956455,10.6284995 7.4480188,9.31393787 8.43069599,8.35718398 C8.66035202,8.13213666 8.99262427,8.0467044 9.30234898,8.13306871 C9.6120737,8.21943301 9.85219633,8.46447309 9.932265,8.77588472 C10.0123337,9.08729635 9.92018404,9.41776868 9.69052799,9.64281599 C9.05464214,10.2619019 8.69719575,11.1125259 8.69999999,12 C8.69999999,13.819632 10.180392,15.3 12,15.3 C13.819608,15.3 15.3,13.819632 15.3,12 C15.3028052,11.1125187 14.9453592,10.2618868 14.309472,9.64279199 C13.9544479,9.29490561 13.9486617,8.7250841 14.296548,8.37006 C14.6444344,8.0150359 15.2142559,8.00924962 15.56928,8.35713598 C16.5519594,9.31391011 17.1043391,10.6284838 17.1000254,12 C17.1000254,14.812152 14.812152,17.1 12,17.1 Z" fill="#000000"></path>
    </g>
</svg>