<?xml version="1.0" encoding="UTF-8"?>
<svg width="24px" height="24px" viewBox="0 0 24 24" version="1.1" xmlns="http://www.w3.org/2000/svg" xmlns:xlink="http://www.w3.org/1999/xlink">
    <title>icons/functional_UI/S-Z/mdpi/ic_Stocks</title>
    <g id="icons/functional_UI/S-Z/ic_Stocks" stroke="none" stroke-width="1" fill="none" fill-rule="evenodd">
        <path d="M19.8,4.19999997 L3.59999996,4.19999997 L3.59999996,17.7 C3.59999996,17.8656854 3.46568539,18 3.29999996,18 C3.13431454,18 2.99999996,17.8656854 2.99999996,17.7 L2.99999996,6.83999998 L1.79999996,6.83999998 L1.79999996,18 C1.79999996,18.9941126 2.60588741,19.8 3.59999996,19.8 L20.4,19.8 C21.3941126,19.8 22.2,18.9941126 22.2,18 L22.2,6.59999998 C22.2,5.27451657 21.1254834,4.19999997 19.8,4.19999997 Z M19.776,17.4 L6.59999998,17.4 L6.59999998,18 L5.99999997,18 L5.99999997,17.4 L5.39999997,17.4 L5.39999997,16.8 L5.99999997,16.8 L5.99999997,8.99999999 L6.59999998,8.99999999 L6.59999998,16.8 L19.776,16.8 L19.776,17.4 Z M19.776,16.2 L7.19999998,16.2 L8.99999999,13.8 L10.2,15 L12.6,12.6 L13.8,13.8 L19.776,8.99999999 L19.776,16.2 Z M19.5,7.79999998 L6.29999998,7.79999998 C5.8029437,7.79999998 5.39999997,7.39705626 5.39999997,6.89999998 C5.39999997,6.4029437 5.8029437,5.99999998 6.29999998,5.99999998 L19.5,5.99999998 C19.9970563,5.99999998 20.4,6.40294371 20.4,6.89999998 C20.4,7.39705625 19.9970563,7.79999998 19.5,7.79999998 L19.5,7.79999998 Z" fill="#000000"></path>
    </g>
</svg>