<svg width="24" height="24">
<path d="M6.77505 6.07761C6.91877 6.3536 7 6.66732 7 7.00002C7 8.10458 6.10457 9.00001 5 9.00001C3.89543 9.00001 3 8.10458 3 7.00002C3 5.89545 3.89543 5.00002 5 5.00002C5.40753 5.00002 5.78659 5.1219 6.10271 5.33121C6.98306 4.66578 8.28718 4.16715 10.0929 4.50869C11.5 4.77482 12 5.5 12.5 6.5L13.5 6V9.5L10.5 7.5L11.5 7C11.1121 6.07761 10.3344 5.57209 9.90708 5.49126C8.45976 5.21752 7.45437 5.5881 6.77505 6.07761ZM9 12.75C9 12.3358 9.33579 12 9.75 12H15.25C15.6642 12 16 12.3358 16 12.75C16 13.1642 15.6642 13.5 15.25 13.5H9.75C9.33579 13.5 9 13.1642 9 12.75ZM9 15.75C9 15.3358 9.33579 15 9.75 15H20.25C20.6642 15 21 15.3358 21 15.75C21 16.1642 20.6642 16.5 20.25 16.5H9.75C9.33579 16.5 9 16.1642 9 15.75ZM9.75 18C9.33579 18 9 18.3358 9 18.75C9 19.1642 9.33579 19.5 9.75 19.5H20.25C20.6642 19.5 21 19.1642 21 18.75C21 18.3358 20.6642 18 20.25 18H9.75Z"/>
</svg>
