<svg width="24" height="24"><path fill-rule="evenodd" d="M19.89 5.172 18.562 6.5l1.328 1.328a.376.376 0 0 1 0 .53l-.532.532a.376.376 0 0 1-.53 0L17.5 7.563 16.172 8.89a.376.376 0 0 1-.531 0l-.531-.532a.376.376 0 0 1 0-.53L16.437 6.5 15.11 5.172a.376.376 0 0 1 0-.531l.532-.531a.376.376 0 0 1 .53 0L17.5 5.438l1.328-1.328a.376.376 0 0 1 .531 0l.531.531a.376.376 0 0 1 0 .531"/><path fill-rule="evenodd" d="M13.51 4.716c.025-.251.101-.495.223-.716l-.09.002a6.183 6.183 0 0 0-5.99 5.713 4.73 4.73 0 0 0-1.757 2.883 4 4 0 1 0 5.507 5.506 4.73 4.73 0 0 0 2.883-1.758 6.18 6.18 0 0 0 5.713-6.078v-.086.086c-.45.247-.979.297-1.46.147a4.727 4.727 0 0 1-9.448-.233 4.726 4.726 0 0 1 4.492-4.72 1.9 1.9 0 0 1-.073-.746M5.46 16.205a2.55 2.55 0 0 1 .476-1.695 4.73 4.73 0 0 0 3.555 3.554 2.545 2.545 0 0 1-4.031-1.86Zm1.813-2.75a3.25 3.25 0 0 1 .539-1.802 6.19 6.19 0 0 0 4.535 4.534 3.273 3.273 0 0 1-5.074-2.733Z" clip-rule="evenodd"/></svg>