<?xml version="1.0" encoding="UTF-8"?>
<svg width="24px" height="24px" viewBox="0 0 24 24" version="1.1" xmlns="http://www.w3.org/2000/svg" xmlns:xlink="http://www.w3.org/1999/xlink">
    <title>icons/functional_UI/M-S/mdpi/ic_SMS_Message</title>
    <g id="icons/functional_UI/M-S/ic_SMS_Message" stroke="none" stroke-width="1" fill="none" fill-rule="evenodd">
        <path d="M19.8,2.99999996 L2.39999996,2.99999996 L2.39999996,15.6 C2.39999996,16.5941126 3.20588741,17.4 4.19999997,17.4 L6.59999998,17.4 L6.59999998,21 L10.2,17.4 L21.6,17.4 L21.6,4.79999997 C21.6,3.80588742 20.7941126,2.99999996 19.8,2.99999996 Z M17.4,6.59999998 L6.59999998,6.59999998 C6.26862913,6.59999998 5.99999997,6.86862913 5.99999997,7.19999998 C5.99999997,7.53137083 6.26862913,7.79999998 6.59999998,7.79999998 L17.4,7.79999998 C17.7313709,7.79999998 18,7.53137083 18,7.19999998 C18,6.86862913 17.7313709,6.59999998 17.4,6.59999998 Z M17.4,9.59999999 L6.59999998,9.59999999 C6.26862913,9.59999999 5.99999997,9.86862914 5.99999997,10.2 C5.99999997,10.5313708 6.26862913,10.8 6.59999998,10.8 L17.4,10.8 C17.7313709,10.8 18,10.5313708 18,10.2 C18,9.86862914 17.7313709,9.59999999 17.4,9.59999999 Z M12,12.6 L6.59999998,12.6 C6.26862913,12.6 5.99999997,12.8686292 5.99999997,13.2 C5.99999997,13.5313709 6.26862913,13.8 6.59999998,13.8 L12,13.8 C12.3313709,13.8 12.6,13.5313709 12.6,13.2 C12.6,12.8686292 12.3313709,12.6 12,12.6 Z" fill="#000000"></path>
    </g>
</svg>