<?xml version="1.0" encoding="UTF-8"?>
<svg width="24px" height="24px" viewBox="0 0 24 24" version="1.1" xmlns="http://www.w3.org/2000/svg" xmlns:xlink="http://www.w3.org/1999/xlink">
    <title>icons/functional_UI/S-Z/mdpi/ic_Speaker_call_button</title>
    <g id="icons/functional_UI/S-Z/ic_Speaker_call_button" stroke="none" stroke-width="1" fill="none" fill-rule="evenodd">
        <path d="M12,1.79999996 C17.633304,1.79999996 22.2,6.36669598 22.2,12 C22.2,17.633304 17.633304,22.2 12,22.2 C6.36669598,22.2 1.79999996,17.633304 1.79999996,12 C1.79999996,6.36669598 6.36669598,1.79999996 12,1.79999996 Z M12,2.39999996 C17.301936,2.39999996 21.6,6.69806398 21.6,12 C21.6,17.301936 17.301936,21.6 12,21.6 C6.69806398,21.6 2.39999996,17.301936 2.39999996,12 C2.39999996,6.69806398 6.69806398,2.39999996 12,2.39999996 Z M16.452936,16.012536 L15.700344,15.353472 C17.4362655,13.4455967 17.4362655,10.5304033 15.700344,8.62252799 L16.452936,7.96346398 C18.5156856,10.2500197 18.5156856,13.7259803 16.452936,16.012536 Z M15.19836,14.913912 L14.4456,14.254632 C15.6316525,12.9762771 15.6316525,10.9997229 14.4456,9.72136799 L15.198456,9.06208799 C16.7117435,10.719207 16.7117019,13.2568426 15.19836,14.913912 L15.19836,14.913912 Z M13.943568,13.815072 L13.190256,13.155408 C13.8254572,12.5067438 13.8254572,11.4692562 13.190256,10.820592 L13.943568,10.160928 C14.9076977,11.18819 14.9076977,12.78781 13.943568,13.815072 L13.943568,13.815072 Z M6.59999998,14.4 C6.23181598,14.4 5.99999997,14.168472 5.99999997,13.8 L5.99999997,10.2 C5.99999997,9.83152799 6.23181598,9.59999999 6.59999998,9.59999999 L9.59999999,9.59999999 L12.6,7.19999998 L12.6,16.8 L9.59999999,14.4 L6.59999998,14.4 Z" fill="#000000"></path>
    </g>
</svg>