<?xml version="1.0" encoding="UTF-8"?>
<svg width="24px" height="24px" viewBox="0 0 24 24" version="1.1" xmlns="http://www.w3.org/2000/svg" xmlns:xlink="http://www.w3.org/1999/xlink">
    <title>icons/functional_UI/M-S/mdpi/ic_SIM_inactive</title>
    <g id="icons/functional_UI/M-S/ic_SIM_inactive" stroke="none" stroke-width="1" fill="none" fill-rule="evenodd">
        <path d="M12,20.924928 L12,21.024928 L12.1,21.024928 C12.0660238,20.9918398 12.0329552,20.9583999 12,20.924928 Z M12.042312,21 L5.99999998,21 C5.66862912,21 5.39999997,20.7313709 5.39999997,20.4 L5.39999997,18 L8.39999999,18 L8.39999999,21 L8.99999999,21 L8.99999999,18 L11.437272,18 C11.4624241,17.797775 11.5004859,17.5973658 11.551224,17.4 L5.39999997,17.4 L5.39999997,14.4 L8.99999999,14.4 L8.99999999,10.8 L12,10.8 L12,16.275072 C12.1687108,15.9710222 12.369886,15.686158 12.6,15.425472 L12.6,14.4 L13.875072,14.4 C14.5863381,14.0053523 15.3865844,13.7988307 16.2,13.8 C16.4005788,13.799989 16.6009647,13.8124369 16.8,13.837272 L16.8,5.99999997 L16.8,5.99999997 L12.6,1.79999996 L5.39999997,1.79999996 C4.73725827,1.79999996 4.19999997,2.33725826 4.19999997,2.99999996 L4.19999997,21 C4.19999997,21.6627417 4.73725827,22.2 5.39999997,22.2 L13.02552,22.2 C12.6351555,21.8556972 12.303122,21.4504521 12.042312,21 Z M12.6,10.8 L15,10.8 C15.3313709,10.8 15.6,11.0686291 15.6,11.4 L15.6,13.8 L12.6,13.8 L12.6,10.8 Z M5.39999997,11.4 C5.39999997,11.0686291 5.66862912,10.8 5.99999998,10.8 L8.39999997,10.8 L8.39999997,13.8 L5.39999997,13.8 L5.39999997,11.4 Z M16.2,14.4 C13.8804041,14.4 12,16.2804041 12,18.6 C12,20.919596 13.8804041,22.8 16.2,22.8 C18.519596,22.8 20.4,20.919596 20.4,18.6 C20.4,16.2804041 18.519596,14.4 16.2,14.4 Z M18.745584,20.297064 L17.897064,21.145584 L16.2,19.448544 L14.50296,21.145584 L13.654416,20.297064 L15.35148,18.6 L13.654416,16.902936 L14.50296,16.054416 L16.2,17.75148 L17.897064,16.054416 L18.745584,16.902936 L17.048544,18.6 L18.745584,20.297064 Z" fill="#000000"></path>
    </g>
</svg>