<?xml version="1.0" encoding="UTF-8"?>
<svg width="24px" height="24px" viewBox="0 0 24 24" version="1.1" xmlns="http://www.w3.org/2000/svg" xmlns:xlink="http://www.w3.org/1999/xlink">
    <title>icons/functional_UI/M-S/mdpi/ic_Social_network</title>
    <g id="icons/functional_UI/M-S/ic_Social_network" stroke="none" stroke-width="1" fill="none" fill-rule="evenodd">
        <path d="M16.8,12.6 C15.5867633,12.5987143 14.4325357,13.1233879 13.635792,14.038344 L11.799792,13.031448 C12.0438467,12.2384617 12.065308,11.3936594 11.861832,10.589304 L13.499136,9.79706399 C14.8225442,11.4757864 17.1978852,11.8883136 19.0098166,10.7541077 C20.821748,9.61990188 21.488603,7.30306614 20.5568893,5.37915664 C19.6251756,3.45524714 17.393992,2.54187783 15.3806473,3.26018236 C13.3673026,3.97848689 12.2181212,6.09787494 12.7146,8.17706398 L11.076888,8.96949599 C10.2263756,7.85341207 8.90321534,7.19884118 7.49999996,7.19999998 C5.01472797,7.19999998 2.99999996,9.21472799 2.99999996,11.7 C2.99999996,14.185272 5.01472797,16.2 7.49999996,16.2 C8.82281818,16.201302 10.0788944,15.6192029 10.932984,14.609064 L12.769464,15.616152 C12.259484,17.3515251 12.9176666,19.2184957 14.4032117,20.2503655 C15.8887567,21.2822354 17.8680396,21.2472665 19.3162079,20.1635655 C20.7643763,19.0798645 21.3561996,17.1908096 20.7852379,15.4745339 C20.2142762,13.7582583 18.6087563,12.6002041 16.8,12.6 L16.8,12.6 Z M16.8,4.79999997 C17.4248727,4.79999997 17.931432,5.30655933 17.931432,5.93143197 C17.931432,6.55630462 17.4248727,7.06286398 16.8,7.06286398 C16.1751274,7.06286398 15.668568,6.55630462 15.668568,5.93143197 C15.668568,5.30655933 16.1751274,4.79999997 16.8,4.79999997 Z M15,7.88570398 C14.9998896,7.50957913 15.2051411,7.16340362 15.5352,6.98303998 C15.8474091,7.35939361 16.3110045,7.57716047 16.8,7.57716047 C17.2889955,7.57716047 17.7525909,7.35939361 18.0648,6.98303998 C18.3948627,7.16339974 18.6001156,7.50957771 18.6000001,7.88570398 L18.6000001,9.60047999 C17.5331203,10.3998406 16.0668797,10.3998406 15,9.60047999 L15,7.88570398 L15,7.88570398 Z M7.49999998,8.99999999 C8.22901585,8.99999999 8.81999999,9.59098412 8.81999999,10.32 C8.81999999,11.0490159 8.22901585,11.64 7.49999998,11.64 C6.77098411,11.64 6.17999998,11.0490159 6.17999998,10.32 C6.17999998,9.59098412 6.77098411,8.99999999 7.49999998,8.99999999 L7.49999998,8.99999999 Z M9.60000004,14.245848 C8.38055428,15.2513847 6.61944568,15.2513847 5.39999993,14.245848 L5.39999993,12.6 C5.39987841,12.161178 5.63935089,11.7573018 6.02443198,11.54688 C6.38867072,11.9859453 6.9295193,12.2399979 7.49999998,12.2399979 C8.07048066,12.2399979 8.61132924,11.9859453 8.97556799,11.54688 C9.36065658,11.757294 9.60013197,12.1611751 9.60000004,12.6 L9.60000004,14.245848 L9.60000004,14.245848 Z M16.8,14.4 C17.4248727,14.4 17.931432,14.9065594 17.931432,15.531432 C17.931432,16.1563047 17.4248727,16.662864 16.8,16.662864 C16.1751274,16.662864 15.668568,16.1563047 15.668568,15.531432 C15.668568,14.9065594 16.1751274,14.4 16.8,14.4 L16.8,14.4 Z M18.6000001,19.20048 C17.5331203,19.9998406 16.0668797,19.9998406 15,19.20048 L15,17.485704 C14.9998896,17.1095792 15.2051411,16.7634037 15.5352,16.58304 C15.8474091,16.9593937 16.3110045,17.1771605 16.8,17.1771605 C17.2889955,17.1771605 17.7525909,16.9593937 18.0648,16.58304 C18.3948627,16.7633998 18.6001156,17.1095777 18.6000001,17.485704 L18.6000001,19.20048 L18.6000001,19.20048 Z" fill="#000000"></path>
    </g>
</svg>