<?xml version="1.0" encoding="UTF-8"?>
<svg width="24px" height="24px" viewBox="0 0 24 24" version="1.1" xmlns="http://www.w3.org/2000/svg" xmlns:xlink="http://www.w3.org/1999/xlink">
    <title>icons/functional_UI/S-Z/mdpi/ic_Street_light</title>
    <g id="icons/functional_UI/S-Z/ic_Street_light" stroke="none" stroke-width="1" fill="none" fill-rule="evenodd">
        <path d="M20.28,4.19999997 L16.32,4.19999997 C16.2537258,4.19999997 16.2,4.14627414 16.2,4.07999997 L16.2,3.59999996 L15,3.59999996 C13.68,3.59999996 12.6,4.67999997 12.6,5.99999997 L12.6,14.56224 C12.9704662,14.776697 13.1989828,15.1719393 13.2,15.6 L13.2,21 L14.04,21 C14.2385818,21.00058 14.3994201,21.1614183 14.4,21.36 L14.4,21.6 L9.59999997,21.6 L9.59999997,21.36 C9.60057995,21.1614183 9.7614182,21.00058 9.95999999,21 L10.8,21 L10.8,15.6 C10.8010172,15.1719393 11.0295338,14.776697 11.4,14.56224 L11.4,5.99999997 C11.4,4.67999997 10.32,3.59999996 8.99999999,3.59999996 L7.79999998,3.59999996 L7.79999998,4.07999997 C7.79999998,4.14627414 7.74627415,4.19999997 7.67999998,4.19999997 L3.71999997,4.19999997 C3.6537258,4.19999997 3.59999996,4.14627414 3.59999996,4.07999997 L3.59999996,3.59999996 C3.60193753,2.93806249 4.13806249,2.40193752 4.79999997,2.39999996 L9.19934399,2.39999996 C10.3191997,2.40192736 11.3664489,2.95460182 12,3.87801597 C12.6335511,2.95460182 13.6808003,2.40192736 14.800656,2.39999996 L19.2,2.39999996 C19.8619375,2.40193752 20.3980625,2.93806249 20.4,3.59999996 L20.4,4.07999997 C20.4,4.14627414 20.3462742,4.19999997 20.28,4.19999997 Z M5.69999997,5.99999997 C6.52843198,5.99999997 7.19999997,5.46273597 7.19999997,4.79999997 L4.19999997,4.79999997 C4.19999997,5.46273597 4.87156797,5.99999997 5.69999997,5.99999997 Z M18.3,5.99999997 C19.128432,5.99999997 19.8,5.46273597 19.8,4.79999997 L16.8,4.79999997 C16.8,5.46273597 17.471568,5.99999997 18.3,5.99999997 Z" fill="#000000"></path>
    </g>
</svg>