<?xml version="1.0" encoding="UTF-8"?>
<svg width="24px" height="24px" viewBox="0 0 24 24" version="1.1" xmlns="http://www.w3.org/2000/svg" xmlns:xlink="http://www.w3.org/1999/xlink">
    <title>icons/functional_UI/M-S/mdpi/ic_Share_wifi</title>
    <g id="icons/functional_UI/M-S/ic_Share_wifi" stroke="none" stroke-width="1" fill="none" fill-rule="evenodd">
        <path d="M12.209496,14.65956 C12.368651,14.7474239 12.5157616,14.8555223 12.64716,14.98116 L17.5056,14.225256 C17.2324504,13.9017852 16.8089479,13.7463596 16.3914,13.816344 L11.911392,14.489184 L12.209496,14.65956 Z M13.257384,16.093704 L19.478784,15.112104 C19.2056362,14.7884668 18.7820177,14.6329317 18.364344,14.702928 L13.044864,15.501912 C13.1452118,15.687299 13.2168664,15.8868313 13.257384,16.093704 Z M21.682128,16.35708 L21.682128,16.35708 C21.639364,16.1010477 21.4966311,15.8724945 21.285336,15.7217109 C21.0740409,15.5709273 20.8114963,15.5102679 20.555472,15.55308 L13.28844,16.687584 C13.223778,17.4069105 12.7940135,18.042538 12.1505578,18.3705268 C11.5071022,18.6985156 10.7402512,18.6728393 10.120176,18.302544 L7.45651198,16.764288 C7.45411198,16.762968 7.45171198,16.76148 7.44931198,16.760112 L7.44331198,16.756632 L7.44331198,16.756632 C7.30482475,16.6738796 7.25669697,16.4963481 7.33442652,16.3549805 C7.41215607,16.2136129 7.58784613,16.1591455 7.73191198,16.231752 L10.45308,17.802144 L10.45308,17.801976 C10.9183084,18.0677816 11.4900028,18.0651997 11.9528114,17.7952029 C12.41562,17.5252061 12.6992312,17.0288133 12.6968114,16.4930109 C12.6943916,15.9572085 12.4063084,15.4633976 11.94108,15.197592 L11.94108,15.197448 L7.74170398,12.797448 L7.74170398,12.79764 C7.51527683,12.6677582 7.25873743,12.5995518 6.99770398,12.5998311 L2.39999996,12.5998311 C2.06862911,12.5998311 1.79999996,12.8684612 1.79999996,13.199832 L1.79999996,17.399496 C1.79999996,17.5758442 1.87760049,17.7432584 2.01215195,17.8572522 C2.14670341,17.9712461 2.32459049,18.0202755 2.49854396,17.991312 L4.89818397,17.39964 L10.524192,20.706528 C11.1415033,21.0432916 11.8754714,21.0923064 12.53208,20.840616 L21.043608,17.44116 C21.4912593,17.2825555 21.7604684,16.8254921 21.682128,16.35708 L21.682128,16.35708 Z M8.51899199,7.58143198 C9.51628127,6.56955301 10.877682,5.99984268 12.298416,5.99984268 C13.71915,5.99984268 15.0805507,6.56955301 16.07784,7.58143198 L16.91784,6.73291198 C15.6989285,5.49616939 14.0349914,4.79985593 12.298536,4.79985593 C10.5620806,4.79985593 8.8981435,5.49616939 7.67923198,6.73291198 L8.51899199,7.58143198 Z M10.198728,9.27847199 C10.7527778,8.71631138 11.5091152,8.39980201 12.298416,8.39980201 C13.0877168,8.39980201 13.8440542,8.71631138 14.398104,9.27847199 L15.23796,8.42995199 C14.4622921,7.64292919 13.4034224,7.19981725 12.298404,7.19981725 C11.1933856,7.19981725 10.1345159,7.64292919 9.35884799,8.42995199 L10.198728,9.27847199 Z M6.83923198,5.88441597 C8.27976573,4.42280978 10.2462391,3.59989318 12.298416,3.59989318 C14.3505929,3.59989318 16.3170663,4.42280978 17.7576,5.88441597 L18.597456,5.03589597 C16.9353115,3.34942299 14.6663086,2.39990021 12.298416,2.39990021 C9.93052338,2.39990021 7.66152048,3.34942299 5.99937597,5.03589597 L6.83923198,5.88441597 Z M14.094216,11.39976 C14.0940702,12.3936955 13.2882315,13.1993336 12.294296,13.199232 C11.3003605,13.1991304 10.4946866,12.3933275 10.494744,11.399392 C10.4948014,10.4054565 11.3005685,9.59975999 12.294504,9.59975999 C12.7718574,9.59975999 13.2296464,9.78945354 13.5671592,10.1270204 C13.9046721,10.4645873 14.0942606,10.9224066 14.094216,11.39976 Z" fill="#000000"></path>
    </g>
</svg>