<?xml version="1.0" encoding="UTF-8"?>
<svg width="24px" height="24px" viewBox="0 0 24 24" version="1.1" xmlns="http://www.w3.org/2000/svg" xmlns:xlink="http://www.w3.org/1999/xlink">
    <title>icons/functional_UI/M-S/mdpi/ic_Save</title>
    <g id="icons/functional_UI/M-S/ic_Save" stroke="none" stroke-width="1" fill="none" fill-rule="evenodd">
        <path d="M13.8,2.99999996 L13.8,8.39999998 C13.7990378,8.73097145 13.5309715,8.99903776 13.2,8.99999996 L5.39999997,8.99999996 C5.06902851,8.99903776 4.8009622,8.73097145 4.79999997,8.39999998 L4.79999997,2.99999996 C3.80709103,3.00289975 3.00289975,3.80709103 2.99999996,4.79999997 L2.99999996,19.2 C3.00289975,20.192909 3.80709103,20.9971002 4.79999997,21 L19.2,21 C20.192909,20.9971002 20.9971002,20.192909 21,19.2 L21,8.32600798 C21,8.0631425 20.8954963,7.81105961 20.7096,7.62520798 L16.330224,3.24566396 C16.1729272,3.08836754 15.959587,2.99999996 15.737136,2.99999996 L13.8,2.99999996 Z M19.2,11.4 L19.2,18.6 C19.1990378,18.9309715 18.9309715,19.1990378 18.6,19.2 L5.39999997,19.2 C5.06902851,19.1990378 4.8009622,18.9309715 4.79999997,18.6 L4.79999997,11.4 C4.8009622,11.0690285 5.06902851,10.8009622 5.39999997,10.8 L18.6,10.8 C18.9309715,10.8009622 19.1990378,11.0690285 19.2,11.4 L19.2,11.4 Z M12,7.79999998 L11.4,7.79999998 C11.0690285,7.79903775 10.8009622,7.53097144 10.8,7.19999997 L10.8,4.79999997 C10.8009622,4.46902851 11.0690285,4.2009622 11.4,4.19999997 L12,4.19999997 C12.3309715,4.2009622 12.5990378,4.46902851 12.6,4.79999997 L12.6,7.19999997 C12.5990378,7.53097144 12.3309715,7.79903775 12,7.79999998 Z" fill="#000000"></path>
    </g>
</svg>