<?xml version="1.0" encoding="UTF-8"?>
<svg width="24px" height="24px" viewBox="0 0 24 24" version="1.1" xmlns="http://www.w3.org/2000/svg" xmlns:xlink="http://www.w3.org/1999/xlink">
    <title>icons/functional_UI/M-S/mdpi/ic_Send_to_person</title>
    <g id="icons/functional_UI/M-S/ic_Send_to_person" stroke="none" stroke-width="1" fill="none" fill-rule="evenodd">
        <path d="M16.283352,6.09878398 C16.283352,8.48637599 14.346384,10.421928 11.957016,10.421928 C9.56764799,10.421928 7.63070398,8.48639999 7.63070398,6.09878398 C7.63070398,3.71116797 9.56767199,1.77566396 11.957016,1.77566396 C14.34636,1.77566396 16.283352,3.71123997 16.283352,6.09878398 Z M15.732672,10.105392 C13.6033549,12.1096962 10.2816667,12.1097804 8.15224798,10.105584 C6.50541598,11.00448 5.37158397,12.7152 5.32799997,14.712 L5.32799997,15 L4.07999997,15 C3.35644796,15.000792 2.75915996,15.543696 2.75999908,16.26672 L2.75999908,18.24 C2.76079196,18.962976 3.35644796,19.536864 4.07999997,19.536 L5.32799997,19.536 L5.32799997,19.776 C5.32799997,21.102456 6.40053598,22.2 7.72799998,22.2 L18.5520001,22.2 L18.5520001,14.851032 C18.5523601,12.8721706 17.4707149,11.051489 15.732672,10.105392 L15.732672,10.105392 Z M10.41288,17.7948 L7.36799998,20.832 L7.36799998,18.888 L4.07999997,18.888 C3.73149597,18.888408 3.40840796,18.564192 3.40799958,18.216 L3.40799958,16.224 C3.40759196,15.875856 3.73154397,15.600408 4.07999997,15.6 L7.36799998,15.6 L7.36799998,13.632 L10.414128,16.649352 C10.5578918,16.799352 10.6362512,17.0002744 10.632,17.208 C10.631712,17.430048 10.5552,17.645928 10.412808,17.7948 L10.412808,17.7948 L10.41288,17.7948 Z" fill="#000000"></path>
    </g>
</svg>