<?xml version="1.0" encoding="UTF-8"?>
<svg width="24px" height="24px" viewBox="0 0 24 24" version="1.1" xmlns="http://www.w3.org/2000/svg" xmlns:xlink="http://www.w3.org/1999/xlink">
    <title>icons/functional_UI/S-Z/mdpi/ic_Stop_video</title>
    <g id="icons/functional_UI/S-Z/ic_Stop_video" stroke="none" stroke-width="1" fill="none" fill-rule="evenodd">
        <path d="M2.15464796,18.851544 L16.206192,4.79999997 L2.99999996,4.79999997 C2.33725826,4.79999997 1.79999905,5.33725827 1.79999905,5.99999997 L1.79999905,18 C1.79960655,18.3198487 1.92733242,18.6265308 2.15464796,18.851544 Z M21.356568,6.73463998 L18.910344,8.99543999 L18,9.83683199 L18,8.94580799 L7.74580798,19.2 L16.8,19.2 C17.4627417,19.2 18,18.6627417 18,18 L18,14.234856 L18.910344,15.0762 L21.356472,17.265336 C21.66684,17.55216 22.2,17.350416 22.2,16.94616 L22.2,7.05379198 C22.2,6.64955998 21.666888,6.44783998 21.356568,6.73463998 Z M2.42474396,22.824 L1.15199995,21.551256 L21.551256,1.15199995 L22.824,2.42474396 L2.42474396,22.824 Z" fill="#000000"></path>
    </g>
</svg>