<?xml version="1.0" encoding="UTF-8"?>
<svg width="24px" height="24px" viewBox="0 0 24 24" version="1.1" xmlns="http://www.w3.org/2000/svg" xmlns:xlink="http://www.w3.org/1999/xlink">
    <title>icons/functional_UI/M-S/mdpi/ic_Sort_by</title>
    <g id="icons/functional_UI/M-S/ic_Sort_by" stroke="none" stroke-width="1" fill="none" fill-rule="evenodd">
        <path d="M20.4,19.8 L10.176,19.8 C9.51325829,19.8 8.97599999,19.2627417 8.97599999,18.6 C8.97599999,17.9372583 9.51325829,17.4 10.176,17.4 L20.4,17.4 C21.0627417,17.4 21.6,17.9372583 21.6,18.6 C21.6,19.2627417 21.0627417,19.8 20.4,19.8 Z M16.776,16.176 L10.152,16.176 C9.48925829,16.176 8.95199999,15.6387417 8.95199999,14.976 C8.95199999,14.3132583 9.48925829,13.776 10.152,13.776 L16.776,13.776 C17.4387417,13.776 17.976,14.3132583 17.976,14.976 C17.976,15.6387417 17.4387417,16.176 16.776,16.176 Z M13.2,12.6 L10.2,12.6 C9.53725829,12.6 8.99999999,12.0627417 8.99999999,11.4 C8.99999999,10.7372583 9.53725829,10.2 10.2,10.2 L13.2,10.2 C13.8627417,10.2 14.4,10.7372583 14.4,11.4 C14.4,12.0627417 13.8627417,12.6 13.2,12.6 Z M8.98319999,8.65965599 L7.79999998,7.47659998 L7.79999998,18.564 C7.79999998,19.2333691 7.2573691,19.776 6.58799998,19.776 C5.91863997,19.776 5.39999997,19.23336 5.39999997,18.564 L5.39999997,7.47688798 L4.21516797,8.66171999 C3.92111409,8.95577816 3.49251894,9.07062324 3.09083016,8.9629942 C2.68914137,8.85536515 2.37538504,8.5416134 2.26775014,8.13992618 C2.16011524,7.73823897 2.27495407,7.30964214 2.56900796,7.01558398 L5.64772797,3.93686397 C5.89025101,3.69410081 6.22776103,3.57108872 6.56961598,3.60086397 C6.57974398,3.60059997 6.58979998,3.60009597 6.59999998,3.60009597 C6.62311198,3.60009597 6.64922398,3.59879996 6.67199998,3.60009597 C7.00058307,3.58305846 7.32082294,3.70704031 7.55227198,3.94089597 L10.6272,7.01558398 C10.9242303,7.30858037 11.0414732,7.73828034 10.9344129,8.14153212 C10.8273525,8.54478391 10.5124087,8.85974155 10.1091616,8.96681954 C9.70591449,9.07389752 9.27620939,8.9566735 8.98319999,8.65965599 L8.98319999,8.65965599 Z" fill="#000000"></path>
    </g>
</svg>