<?xml version="1.0" encoding="UTF-8"?>
<svg width="24px" height="24px" viewBox="0 0 24 24" version="1.1" xmlns="http://www.w3.org/2000/svg" xmlns:xlink="http://www.w3.org/1999/xlink">
    <title>icons/functional_UI/M-S/mdpi/ic_Set_wallpaper</title>
    <g id="icons/functional_UI/M-S/ic_Set_wallpaper" stroke="none" stroke-width="1" fill="none" fill-rule="evenodd">
        <path d="M20.155992,12.801288 L17.461152,10.127832 L19.19556,8.39999999 L13.79736,8.39999999 C13.4660829,8.4001325 13.1976,8.66872284 13.1976,8.99999999 L13.1976,14.4 L14.917992,12.67344 L18.049992,15.780576 C19.3486668,17.0696717 19.6645032,19.0506729 18.831072,20.679696 C18.8080166,20.723608 18.8205729,20.7777805 18.8605956,20.807072 C18.9006183,20.8363636 18.9560516,20.8319507 18.990936,20.796696 L20.18628,19.589496 C22.0506,17.706576 22.03704,14.667432 20.155992,12.801288 Z M16.796352,15.384 L16.796352,18.264 L13.486752,14.954544 L13.14768,15.293976 L16.796352,18.936 L16.796352,19.8 L14.731032,19.8 L12.6,17.664 L12.6,16.8 L11.733912,16.8 L8.99999938,14.064 L8.99999938,13.2 L8.13736798,13.2 L7.19959198,12.264 L7.19959198,9.33599999 L12.597768,14.736 L12.597768,14.064 L7.19959198,8.66399999 L7.19959198,5.73599997 L7.79827198,6.33943198 L7.79827198,7.19999998 L8.65802399,7.19999998 L11.4,9.93599999 L11.4,10.8 L12.6,10.8 L12.6,9.59999999 L11.736,9.59999999 L8.99999938,6.86399998 L8.99999938,5.99999997 L8.13736798,5.99999997 L7.19959198,5.06399997 L7.19959198,3.59999996 L8.65802399,3.59999996 L13.085472,8.03171998 C13.2252651,7.92895631 13.3857996,7.85793619 13.555872,7.82361598 L9.33621599,3.59999996 L12.254616,3.59999996 L14.996976,6.33599998 L14.996976,7.19999998 L15.851112,7.19999998 L16.450536,7.79999996 L17.9999994,7.79999996 L17.9999994,2.99999996 C17.9999994,2.33726396 17.452272,1.79999996 16.790856,1.79999996 L7.19759998,1.79999996 C6.53552638,1.80067562 5.99935016,2.33792634 5.99999938,2.99999996 L5.99999938,21 C5.99935016,21.6620737 6.53552638,22.1993244 7.19759998,22.2 L16.790856,22.2 C17.452272,22.2 17.9999994,21.662736 17.9999994,21 L17.9999994,16.584 L16.796352,15.384 Z M16.8,7.46399998 L16.2,6.86399998 L16.2,5.99999997 L15.330456,5.99999997 L12.932856,3.59999996 L16.8,3.59999996 L16.8,7.46399998 Z M11.0952,2.39999996 L12.893472,2.39999996 C13.0591574,2.39999996 13.193472,2.53431454 13.193472,2.69999996 C13.193472,2.86568539 13.0591574,2.99999996 12.893472,2.99999996 L11.0952,2.99999996 C10.9295146,2.99999996 10.7952,2.86568539 10.7952,2.69999996 C10.7952,2.53431454 10.9295146,2.39999996 11.0952,2.39999996 Z M7.19959198,19.8 L7.19959198,16.536 L10.456392,19.8 L7.19959198,19.8 Z M11.99424,21.6000003 C11.7515104,21.6002331 11.5325519,21.4541956 11.4395018,21.2300095 C11.3464517,21.0058234 11.3976428,20.7476583 11.5691962,20.57594 C11.7407496,20.4042218 11.9988655,20.3527827 12.2231408,20.4456174 C12.4474162,20.5384522 12.5936641,20.7572703 12.5936641,21 C12.5937404,21.1590536 12.5306299,21.311623 12.4182161,21.4241448 C12.3058023,21.5366667 12.1532935,21.5999237 11.99424,21.6000003 L11.99424,21.6000003 Z M11.134488,19.8 L7.19959198,15.864 L7.19959198,12.936 L7.79827198,13.539432 L7.79827198,14.4 L8.65802399,14.4 L11.398176,17.136 L11.398176,18 L12.254568,18 L14.05284,19.8 L11.13444,19.8 L11.134488,19.8 Z" fill="#000000"></path>
    </g>
</svg>