<?xml version="1.0" encoding="UTF-8"?>
<svg width="24px" height="24px" viewBox="0 0 24 24" version="1.1" xmlns="http://www.w3.org/2000/svg" xmlns:xlink="http://www.w3.org/1999/xlink">
    <title>icons/functional_UI/M-S/mdpi/ic_SMS_Message_compose</title>
    <g id="icons/functional_UI/M-S/ic_SMS_Message_compose" stroke="none" stroke-width="1" fill="none" fill-rule="evenodd">
        <path d="M22.529112,11.053536 C22.5219031,10.8244036 22.4271787,10.6067411 22.264416,10.445304 L21.6,9.76799999 L21.6,4.79999997 C21.5999046,4.32249817 21.4101196,3.86459293 21.0723983,3.52702468 C20.734677,3.18945644 20.2766858,2.9999999 19.799184,2.9999999 L2.39999996,2.9999999 L2.39999996,15.6072 C2.39999996,16.0838751 2.59010459,16.5408709 2.9278396,16.877255 C3.26557462,17.2136391 3.72332799,17.4017351 4.19999997,17.4 L6.59999998,17.4 L6.59980798,21.010368 L10.2,17.4 L12.48,17.4 L11.140584,19.893744 L10.224624,21.6 L11.94444,20.711256 L14.57652,19.351056 L14.659488,19.308192 L14.725488,19.24212 C15.101328,18.865992 15.775032,18.185496 16.56,17.4 L21.6,17.4 L21.6,12.36 L22.2552,11.71236 C22.2642,11.703888 22.273128,11.695056 22.28208,11.685768 C22.4465456,11.5171098 22.5356681,11.2890175 22.529112,11.053536 Z M6.59980798,6.60208798 L17.4,6.59999998 C17.7313709,6.59999998 18,6.86862913 18,7.19999998 C18,7.53137083 17.7313709,7.79999998 17.4,7.79999998 L6.59999998,7.79999998 C6.38511084,7.80139426 6.18594222,7.68756414 6.07807328,7.50170511 C5.97020435,7.31584608 5.97016758,7.08644374 6.07797693,6.90055014 C6.18578628,6.71465654 6.3849184,6.60076259 6.59980798,6.60208798 Z M6.59999998,9.59999999 L17.4,9.59999999 C17.7313709,9.59999999 18,9.86862914 18,10.2 C18,10.5313708 17.7313709,10.8 17.4,10.8 L6.59999998,10.8 C6.26862913,10.8 5.99999998,10.5313708 5.99999998,10.2 C5.99999998,9.86862914 6.26862913,9.59999999 6.59999998,9.59999999 Z M12,13.8 L6.59999998,13.8 C6.26862913,13.8 5.99999998,13.5313709 5.99999998,13.2 C5.99999998,12.8686292 6.26862913,12.6 6.59999998,12.6 L12,12.6 C12.3313709,12.6 12.6,12.8686292 12.6,13.2 C12.6,13.5313709 12.3313709,13.8 12,13.8 Z M20.504112,12.61056 C20.5007281,12.6145796 20.4969934,12.6182902 20.492952,12.621648 C18.840672,14.275248 15.371352,17.746632 14.301216,18.817656 L11.669112,20.177832 L13.063896,17.579664 L19.450296,11.197368 L20.492712,12.212568 C20.5461369,12.2651059 20.5778955,12.3357832 20.581704,12.410616 C20.5852361,12.4852308 20.5570511,12.5578599 20.504112,12.61056 Z M21.851568,11.267688 C21.8481745,11.2713912 21.8445598,11.2748856 21.840744,11.278152 L21.111408,12.007512 L19.873896,10.769112 L20.80704,9.83591999 L21.84,10.8696 C21.95472,10.984584 21.959856,11.1594 21.851568,11.267688 L21.851568,11.267688 Z" fill="#000000"></path>
    </g>
</svg>