<?xml version="1.0" encoding="UTF-8"?>
<svg width="24px" height="24px" viewBox="0 0 24 24" version="1.1" xmlns="http://www.w3.org/2000/svg" xmlns:xlink="http://www.w3.org/1999/xlink">
    <title>icons/functional_UI/M-S/mdpi/ic_Settings</title>
    <g id="icons/functional_UI/M-S/ic_Settings" stroke="none" stroke-width="1" fill="none" fill-rule="evenodd">
        <path d="M19.861632,12.012 C19.861632,9.35735999 22.758792,11.365896 21.410016,8.10959998 C20.060472,4.85325597 19.432632,8.32135198 17.555472,6.44438398 C15.678312,4.56741597 19.147464,3.93962397 15.890832,2.59089596 C12.6336,1.24209596 14.642256,4.13843997 11.988192,4.13843997 C9.33333599,4.13843997 11.342088,1.24211996 8.08550398,2.59089596 C4.82891997,3.93967197 8.29735198,4.56727197 6.42011998,6.44438398 C4.54288797,8.32149598 3.91519197,4.85318397 2.56631996,8.10959998 C1.21679996,11.365896 4.11398397,9.35735999 4.11398397,12.012 C4.11398397,14.66664 1.21679996,12.658056 2.56631996,15.9144 C3.91511997,19.170744 4.54293597,15.702648 6.42011998,17.578848 C8.29735198,19.455984 4.82891997,20.084448 8.08550398,21.433248 C11.342088,22.782048 9.33333599,19.885656 11.988192,19.885656 C14.642256,19.885656 12.6336,22.781928 15.890832,21.433248 C19.147464,20.084448 15.678336,19.456032 17.555472,17.578848 C19.432632,15.702648 20.060472,19.170744 21.410016,15.9144 C22.758792,12.658056 19.861632,14.66664 19.861632,12.012 Z M12,7.22435998 C14.650968,7.22435998 16.8,9.37324799 16.8,12.024 C16.8,14.674752 14.650968,16.82364 12,16.82364 C9.34903199,16.82364 7.19999998,14.674752 7.19999998,12.024 C7.19999998,9.37324799 9.34903199,7.22435998 12,7.22435998 Z" fill="#000000"></path>
    </g>
</svg>