<?xml version="1.0" encoding="UTF-8"?>
<svg width="24px" height="24px" viewBox="0 0 24 24" version="1.1" xmlns="http://www.w3.org/2000/svg" xmlns:xlink="http://www.w3.org/1999/xlink">
    <title>icons/functional_UI/S-Z/mdpi/ic_Speech_recognition</title>
    <g id="icons/functional_UI/S-Z/ic_Speech_recognition" stroke="none" stroke-width="1" fill="none" fill-rule="evenodd">
        <path d="M12,2.11199996 C6.36669598,2.11199996 1.79999996,5.73839997 1.79999996,10.212 C1.79999996,13.679136 4.54319997,16.6374 8.39999998,17.792976 L8.39999998,21.912 L12,18.312 C17.633304,18.312 22.2,14.6856 22.2,10.212 C22.2,5.73839997 17.633304,2.11199996 12,2.11199996 Z M18.3,11.088 L18,11.088 L18,11.1 C18,11.2656854 17.8656854,11.4 17.7,11.4 C17.5343146,11.4 17.4,11.2656854 17.4,11.1 L17.4,11.088 L16.8,11.088 L16.8,12.3 C16.8,12.4656854 16.6656854,12.6 16.5,12.6 C16.3343146,12.6 16.2,12.4656854 16.2,12.3 L16.2,11.7 C16.2,11.8656854 16.0656854,12 15.9,12 C15.7343146,12 15.6,11.8656854 15.6,11.7 L15.6,11.088 L15,11.088 L15,11.1 C15,11.2656854 14.8656854,11.4 14.7,11.4 C14.5343146,11.4 14.4,11.2656854 14.4,11.1 L14.4,12.3 C14.4,12.4656854 14.2656854,12.6 14.1,12.6 C13.9343146,12.6 13.8,12.4656854 13.8,12.3 L13.8,11.088 L13.8,11.088 L13.8,14.1 C13.8,14.2656854 13.6656854,14.4 13.5,14.4 C13.3343146,14.4 13.2,14.2656854 13.2,14.1 L13.2,12.9 C13.2,13.0656854 13.0656854,13.2 12.9,13.2 C12.7343146,13.2 12.6,13.0656854 12.6,12.9 L12.6,14.7 C12.6,14.8656854 12.4656854,15 12.3,15 C12.1343146,15 12,14.8656854 12,14.7 L12,11.088 L11.4,11.088 L11.4,12.3 C11.4,12.4656854 11.2656854,12.6 11.1,12.6 C10.9343146,12.6 10.8,12.4656854 10.8,12.3 L10.8,11.7 C10.8,11.8656854 10.6656854,12 10.5,12 C10.3343146,12 10.2,11.8656854 10.2,11.7 L10.2,14.1 C10.2,14.2656854 10.0656854,14.4 9.89999997,14.4 C9.73431457,14.4 9.59999999,14.2656854 9.59999999,14.1 L9.59999999,11.7 C9.59999999,11.8656854 9.46568541,12 9.29999999,12 C9.13431456,12 8.99999999,11.8656854 8.99999999,11.7 L8.99999999,11.088 L8.39999997,11.088 L8.39999997,12.3 C8.39999997,12.4656854 8.26568541,12.6 8.09999998,12.6 C7.93431456,12.6 7.79999998,12.4656854 7.79999998,12.3 L7.79999998,11.1 C7.79999998,11.2656854 7.66568541,11.4 7.49999998,11.4 C7.33431456,11.4 7.19999998,11.2656854 7.19999998,11.1 L7.19999998,11.7 C7.19999998,11.8656854 7.0656854,12 6.89999997,12 C6.73431455,12 6.59999998,11.8656854 6.59999998,11.7 L6.59999998,11.1 C6.59999998,11.2656854 6.4656854,11.4 6.29999998,11.4 C6.13431455,11.4 5.99999997,11.2656854 5.99999997,11.1 L5.99999997,11.088 L5.69999997,11.088 C5.53431455,11.088 5.39999997,10.9536854 5.39999997,10.788 C5.39999997,10.6223146 5.53431455,10.488 5.69999997,10.488 L6.00059998,10.488 C6.00671411,10.3270687 6.13895258,10.1997589 6.29999998,10.1997589 C6.46104737,10.1997589 6.59328585,10.3270687 6.59939998,10.488 L6.59999998,10.488 L6.59999998,9.89999997 C6.59999998,9.73431457 6.73431455,9.59999999 6.89999997,9.59999999 C7.0656854,9.59999999 7.19999998,9.73431457 7.19999998,9.89999997 L7.19999998,10.488 L7.20059998,10.488 C7.20671411,10.3270687 7.33895259,10.1997589 7.49999998,10.1997589 C7.66104737,10.1997589 7.79328585,10.3270687 7.79939998,10.488 L7.79999998,10.488 L7.79999998,9.29999999 C7.79999998,9.13431456 7.93431456,8.99999999 8.09999998,8.99999999 C8.26568541,8.99999999 8.39999997,9.13431456 8.39999997,9.29999999 L8.39999997,10.488 L8.99999999,10.488 L8.99999999,9.89999997 C8.99999999,9.73431457 9.13431456,9.59999999 9.29999999,9.59999999 C9.46568541,9.59999999 9.59999999,9.73431457 9.59999999,9.89999997 L9.59999999,7.49999998 C9.59999999,7.33431456 9.73431457,7.19999998 9.89999997,7.19999998 C10.0656854,7.19999998 10.2,7.33431456 10.2,7.49999998 L10.2,9.89999997 C10.2,9.73431457 10.3343146,9.59999999 10.5,9.59999999 C10.6656854,9.59999999 10.8,9.73431457 10.8,9.89999997 L10.8,9.29999999 C10.8,9.13431456 10.9343146,8.99999999 11.1,8.99999999 C11.2656854,8.99999999 11.4,9.13431456 11.4,9.29999999 L11.4,10.488 L12,10.488 L12,5.69999997 C12,5.53431455 12.1343146,5.39999997 12.3,5.39999997 C12.4656854,5.39999997 12.6,5.53431455 12.6,5.69999997 L12.6,8.69999999 C12.6,8.53431456 12.7343146,8.39999997 12.9,8.39999997 C13.0656854,8.39999997 13.2,8.53431456 13.2,8.69999999 L13.2,7.49999998 C13.2,7.33431456 13.3343146,7.19999998 13.5,7.19999998 C13.6656854,7.19999998 13.8,7.33431456 13.8,7.49999998 L13.8,10.488 L13.8,10.488 L13.8,9.29999999 C13.8,9.13431456 13.9343146,8.99999999 14.1,8.99999999 C14.2656854,8.99999999 14.4,9.13431456 14.4,9.29999999 L14.4,10.488 L14.4006,10.488 C14.4067141,10.3270687 14.5389526,10.1997589 14.7,10.1997589 C14.8610474,10.1997589 14.9932859,10.3270687 14.9994,10.488 L15.6,10.488 L15.6,9.89999997 C15.6,9.73431457 15.7343146,9.59999999 15.9,9.59999999 C16.0656854,9.59999999 16.2,9.73431457 16.2,9.89999997 L16.2,9.29999999 C16.2,9.13431456 16.3343146,8.99999999 16.5,8.99999999 C16.6656854,8.99999999 16.8,9.13431456 16.8,9.29999999 L16.8,10.488 L17.4006,10.488 C17.4067142,10.3270687 17.5389526,10.1997589 17.7,10.1997589 C17.8610474,10.1997589 17.9932859,10.3270687 17.9994,10.488 L18.3,10.488 C18.4656855,10.488 18.6,10.6223146 18.6,10.788 C18.6,10.9536854 18.4656855,11.088 18.3,11.088 Z" fill="#000000"></path>
    </g>
</svg>