<?xml version="1.0" encoding="UTF-8"?>
<svg width="24px" height="24px" viewBox="0 0 24 24" version="1.1" xmlns="http://www.w3.org/2000/svg" xmlns:xlink="http://www.w3.org/1999/xlink">
    <title>icons/functional_UI/M-S/mdpi/ic_Show_front_back_camera</title>
    <g id="icons/functional_UI/M-S/ic_Show_front_back_camera" stroke="none" stroke-width="1" fill="none" fill-rule="evenodd">
        <path d="M21.356568,6.73463998 L18.910344,8.99543999 L18,9.83683199 L18,5.99999997 C18,5.33725827 17.4627417,4.79999997 16.8,4.79999997 L2.99999996,4.79999997 C2.33725826,4.79999997 1.79999996,5.33725827 1.79999996,5.99999997 L1.79999996,18 C1.79999996,18.6627417 2.33725826,19.2 2.99999996,19.2 L16.8,19.2 C17.4627417,19.2 18,18.6627417 18,18 L18,14.234856 L18.910344,15.0762 L21.356472,17.265336 C21.66684,17.55216 22.2,17.350416 22.2,16.94616 L22.2,7.05379198 C22.2,6.64955998 21.666888,6.44783998 21.356568,6.73463998 Z M5.65641597,10.8 C6.25259476,9.11474328 7.78952991,7.94198579 9.5723931,7.81191587 C11.3552563,7.68184595 13.0461299,8.61911659 13.880592,10.2 L12.44568,10.2 C11.7380205,9.34238801 10.6461396,8.89868342 9.54084943,9.01957211 C8.43555931,9.1404608 7.46540376,9.80969612 6.95985598,10.8 L8.15999998,10.8 L6.35999998,12.6 L4.55999997,10.8 L5.65641597,10.8 Z M14.309904,13.2 C13.892952,15.253992 12.07704,16.8 9.89999999,16.8 C7.9927857,16.7999108 6.29261503,15.5979759 5.65641597,13.8 L6.95985598,13.8 C7.57709058,15.0088982 8.87139675,15.7167635 10.2222668,15.5842359 C11.5731368,15.4517083 12.7051992,14.5058031 13.075728,13.2 L11.76,13.2 L13.56,11.4 L15.36,13.2 L14.309904,13.2 Z" fill="#000000"></path>
    </g>
</svg>