<?xml version="1.0" encoding="UTF-8"?>
<svg width="24px" height="24px" viewBox="0 0 24 24" version="1.1" xmlns="http://www.w3.org/2000/svg" xmlns:xlink="http://www.w3.org/1999/xlink">
    <title>icons/functional_UI/S-Z/mdpi/ic_SSH_Secure_Shell</title>
    <g id="icons/functional_UI/S-Z/ic_SSH_Secure_Shell" stroke="none" stroke-width="1" fill="none" fill-rule="evenodd">
        <path d="M2.99999996,4.19999997 L21,4.19999997 C21.6627417,4.19999997 22.2,4.73725827 22.2,5.39999997 L22.2,18.6 C22.2,19.2627417 21.6627417,19.8 21,19.8 L2.99999996,19.8 C2.33725826,19.8 1.79999996,19.2627417 1.79999996,18.6 L1.79999996,5.39999997 C1.79999996,4.73725827 2.33725826,4.19999997 2.99999996,4.19999997 Z M2.99999996,7.79999998 L21,7.79999998 L21,18.6 L2.99999996,18.6 L2.99999996,7.79999998 Z M3.59999996,5.39999997 C3.93137082,5.39999997 4.19999997,5.66862912 4.19999997,5.99999997 C4.19999997,6.33137083 3.93137082,6.59999998 3.59999996,6.59999998 C3.26862911,6.59999998 2.99999996,6.33137083 2.99999996,5.99999997 C2.99999996,5.66862912 3.26862911,5.39999997 3.59999996,5.39999997 Z M5.99999997,8.99999999 L5.99999997,10.797336 L10.2,12.6 L5.99999997,14.392008 L5.99999997,16.189344 L12.293544,13.493328 L12.293544,11.695992 L5.99999997,8.99999999 Z M12.576,16.2 L18.6,16.2 L18.6,17.4 L12.576,17.4 L12.576,16.2 Z" fill="#000000"></path>
    </g>
</svg>