<?xml version="1.0" encoding="UTF-8"?>
<svg width="24px" height="24px" viewBox="0 0 24 24" version="1.1" xmlns="http://www.w3.org/2000/svg" xmlns:xlink="http://www.w3.org/1999/xlink">
    <title>icons/functional_UI/S-Z/mdpi/ic_Statistics</title>
    <g id="icons/functional_UI/S-Z/ic_Statistics" stroke="none" stroke-width="1" fill="none" fill-rule="evenodd">
        <path d="M21,10.2 L18.6,7.19999998 L12,13.8 L8.99999996,10.8 L2.99999996,16.8 L2.99999996,12.6 L8.99999996,6.59999998 L12,9.59999999 L18.6,2.99999996 L21,5.99999996 L21,10.2 Z M17.4,10.2 L18.6,8.99999999 L20.4,11.4 L20.4,21 L17.4,21 L17.4,10.2 Z M12.6,15 L15.6,11.976 L15.6,21 L12.6,21 L12.6,15 Z M7.79999998,13.8 L8.99999999,12.6 L10.8,14.4 L10.8,21 L7.79999998,21 L7.79999998,13.8 Z M2.99999996,18.6 L5.99999996,15.6 L5.99999996,21 L2.99999996,21 L2.99999996,18.6 Z" fill="#000000"></path>
    </g>
</svg>