<?xml version="1.0" encoding="UTF-8"?>
<svg width="24px" height="24px" viewBox="0 0 24 24" version="1.1" xmlns="http://www.w3.org/2000/svg" xmlns:xlink="http://www.w3.org/1999/xlink">
    <title>icons/functional_UI/M-S/mdpi/ic_Share</title>
    <g id="icons/functional_UI/M-S/ic_Share" stroke="none" stroke-width="1" fill="none" fill-rule="evenodd">
        <path d="M21,18.6 C20.9987203,19.9753069 20.2139762,21.2297127 18.977794,21.8324765 C17.7416118,22.4352403 16.2700226,22.2810251 15.1856578,21.4350797 C14.101293,20.5891343 13.5936526,19.1992931 13.87752,17.8536 L8.87039999,14.7936 C7.4018577,15.9872314 5.25986492,15.8400585 3.96837725,14.45679 C2.67688958,13.0735214 2.67688958,10.9264786 3.96837725,9.54321003 C5.25986492,8.15994146 7.4018577,8.01276861 8.87039999,9.20639999 L13.87752,6.14639998 C13.512947,4.43018196 14.4379335,2.70094118 16.0678647,2.05160141 C17.6977958,1.40226164 19.5584746,2.02173578 20.473905,3.51850056 C21.3893355,5.01526534 21.0931908,6.95386586 19.7726419,8.10905771 C18.4520929,9.26424956 16.491328,9.29995192 15.1296,8.19359998 L10.12248,11.2536 C10.2258399,11.7458326 10.2258399,12.2541674 10.12248,12.7464 L15.1296,15.8064 C16.2073542,14.9303785 17.6929212,14.7524971 18.9470313,15.3493017 C20.2011413,15.9461063 21.0000615,17.2111272 21,18.6 Z" fill="#000000"></path>
    </g>
</svg>