<?xml version="1.0" encoding="UTF-8"?>
<svg width="24px" height="24px" viewBox="0 0 24 24" version="1.1" xmlns="http://www.w3.org/2000/svg" xmlns:xlink="http://www.w3.org/1999/xlink">
    <title>icons/functional_UI/M-S/mdpi/ic_Shuffle</title>
    <g id="icons/functional_UI/M-S/ic_Shuffle" stroke="none" stroke-width="1" fill="none" fill-rule="evenodd">
        <path d="M8.54044799,9.45955199 C8.80771736,9.7260472 9.03198866,10.0324245 9.20524799,10.367736 C9.43322622,9.48360263 9.84204704,8.65634254 10.405896,7.93819198 C9.30751199,6.74831998 7.73699998,5.99999997 5.99999997,5.99999997 L1.79999996,5.99999997 L1.79999996,8.39999998 L5.99999997,8.39999998 C6.95433587,8.39973614 7.86911666,8.78126641 8.54044799,9.45955199 Z M21.896016,16.129392 L21.896016,16.129392 L18,12.6 L18,15.6 L15.6,15.6 C14.6456647,15.6002612 13.7308849,15.2187313 13.059552,14.540448 C12.7922826,14.2739528 12.5680113,13.9675755 12.394752,13.632264 C12.1667738,14.5163974 11.757953,15.3436575 11.194104,16.061808 C12.292488,17.25168 13.863,18 15.6,18 L18,18 L18,21 L21.896064,17.470632 L21.896064,17.470632 C22.084368,17.296128 22.2,17.059992 22.2,16.8 C22.2,16.540008 22.084368,16.303872 21.896016,16.129392 Z M22.2,7.19999998 C22.2,6.94000798 22.084368,6.70387198 21.896016,6.52939198 L21.896016,6.52939198 L18,2.99999996 L18,5.99999996 L15.6,5.99999996 C12.3,5.99999996 9.59999999,8.69999999 9.59999999,12 C9.59032209,13.9842026 7.98420254,15.5903221 5.99999997,15.6 L1.79999996,15.6 L1.79999996,18 L5.99999997,18 C9.29999996,18 12,15.3 12,12 C12.0096779,10.0157974 13.6157974,8.40967788 15.6,8.39999998 L18,8.39999998 L18,11.4 L21.896064,7.87063198 L21.896064,7.87063198 C22.084368,7.69612798 22.2,7.45999198 22.2,7.19999998 Z" fill="#000000"></path>
    </g>
</svg>