<?xml version="1.0" encoding="UTF-8"?>
<svg width="24px" height="24px" viewBox="0 0 24 24" version="1.1" xmlns="http://www.w3.org/2000/svg" xmlns:xlink="http://www.w3.org/1999/xlink">
    <title>icons/functional_UI/M-S/mdpi/ic_Session_leave</title>
    <g id="icons/functional_UI/M-S/ic_Session_leave" stroke="none" stroke-width="1" fill="none" fill-rule="evenodd">
        <path d="M17.429448,20.4 L6.57055198,20.4 C6.2554503,20.3999868 6.00001323,20.1445497 5.99999998,19.829448 L5.99999998,4.17055197 C6.00001323,3.85545029 6.2554503,3.60001322 6.57055198,3.59999996 L17.429448,3.59999996 C17.7445497,3.60001322 17.9999868,3.85545029 18,4.17055197 L18,5.42944797 C18.0000133,5.74454965 18.2554503,5.99998672 18.570552,5.99999997 L19.229448,5.99999997 C19.5445497,5.99998672 19.8,5.74454965 19.8,5.42944797 L19.8,3.05344796 C19.8,2.3611761 19.2387519,1.79999996 18.54648,1.79999996 L5.38171197,1.79999996 C4.72907045,1.79999996 4.19999997,2.32907044 4.19999997,2.98171196 L4.19999997,20.898648 C4.19999997,21.24379 4.33709789,21.5747977 4.58115012,21.8188499 C4.82520234,22.0629021 5.15621001,22.2 5.50135197,22.2 L18.543648,22.2 C19.2375121,22.2 19.8,21.6375121 19.8,20.943648 L19.8,18.570552 C19.8,18.2554503 19.5445497,18.0000133 19.229448,18 L18.570552,18 C18.2554503,18.0000133 18.0000133,18.2554503 18,18.570552 L18,19.829448 C17.9999868,20.1445497 17.7445497,20.3999868 17.429448,20.4 Z M13.8,15 L9.59999999,15 C8.99661599,15 8.39999998,14.383512 8.39999998,13.8 L8.39999998,10.2 C8.39999998,9.61648799 8.99661599,8.99999997 9.59999999,8.99999997 L13.8,8.99999997 L13.8,5.99999997 L19.40304,11.052 L19.40304,11.052 C19.6568817,11.3070632 19.7995747,11.6521491 19.8,12.012 L19.8,12.012 C19.7995358,12.3718525 19.6568291,12.7169298 19.402992,12.972 L19.402992,12.972 L13.8,18 L13.8,15 Z" fill="#000000"></path>
    </g>
</svg>