<?xml version="1.0" encoding="UTF-8"?>
<svg width="24px" height="24px" viewBox="0 0 24 24" version="1.1" xmlns="http://www.w3.org/2000/svg" xmlns:xlink="http://www.w3.org/1999/xlink">
    <title>icons/functional_UI/M-S/mdpi/ic_Search</title>
    <g id="icons/functional_UI/M-S/ic_Search" stroke="none" stroke-width="1" fill="none" fill-rule="evenodd">
        <path d="M21.41484,19.665192 L15.999144,14.249472 C16.9076652,12.9799185 17.3949509,11.4573039 17.392344,9.89615999 C17.392344,5.75615997 14.036208,2.39999996 9.89615999,2.39999996 C5.75611197,2.39999996 2.39999996,5.75611197 2.39999996,9.89615999 C2.39999996,14.036208 5.75611197,17.392344 9.89615999,17.392344 C11.4573711,17.3948108 12.9800355,16.9075414 14.24976,15.999144 L19.665192,21.4146 C19.8997589,21.6480022 20.2788331,21.6480022 20.5134,21.4146 L21.41484,20.5134 C21.6480059,20.2787357 21.6480059,19.8998564 21.41484,19.665192 Z M9.89615999,14.993568 C7.08095998,14.993568 4.79877597,12.71136 4.79877597,9.89615999 C4.79877597,7.08095998 7.08095998,4.79877597 9.89615999,4.79877597 C12.71136,4.79877597 14.993568,7.08095998 14.993568,9.89615999 C14.993568,12.71136 12.71136,14.993568 9.89615999,14.993568 Z" fill="#000000"></path>
    </g>
</svg>