<?xml version="1.0" encoding="UTF-8"?>
<svg width="24px" height="24px" viewBox="0 0 24 24" version="1.1" xmlns="http://www.w3.org/2000/svg" xmlns:xlink="http://www.w3.org/1999/xlink">
    <title>icons/functional_UI/S-Z/mdpi/ic_Start_over</title>
    <g id="icons/functional_UI/S-Z/ic_Start_over" stroke="none" stroke-width="1" fill="none" fill-rule="evenodd">
        <path d="M12.603216,22.2 C8.10719998,22.2 4.38131997,18.900696 3.71315997,14.590296 C3.65833374,14.2431825 3.75806984,13.8894537 3.98614715,13.6221067 C4.21422446,13.3547597 4.54782369,13.2005426 4.89923997,13.2 L4.89923997,13.2 C5.49101148,13.2005295 5.99392633,13.6326535 6.08354398,14.2176 C6.57273598,17.379528 9.30539999,19.8 12.603216,19.8 C16.16532,19.8 19.082016,16.9536 19.197312,13.417464 C19.319184,9.68051999 16.285128,6.59999998 12.547536,6.59999998 L11.403672,6.59999998 L11.403672,9.59999999 L9.00453599,7.21137598 L7.20518398,5.41991997 L9.00453599,3.61137597 L11.403672,1.19999995 L11.403672,4.19999995 L12.60324,4.19999995 C17.572008,4.19999995 21.6,8.22943198 21.6,13.2 C21.6,18.170568 17.571888,22.2 12.603216,22.2 Z M7.80496798,7.21137598 L7.80496798,9.59999999 L3.60647997,5.41991997 L7.80496798,1.19999995 L7.80496798,3.61137597 L6.00561598,5.41991997 L7.80496798,7.21137598 Z" fill="#000000"></path>
    </g>
</svg>