<?xml version="1.0" encoding="UTF-8"?>
<svg width="24px" height="24px" viewBox="0 0 24 24" version="1.1" xmlns="http://www.w3.org/2000/svg" xmlns:xlink="http://www.w3.org/1999/xlink">
    <title>icons/functional_UI/M-S/mdpi/ic_Scan_ticket</title>
    <g id="icons/functional_UI/M-S/ic_Scan_ticket" stroke="none" stroke-width="1" fill="none" fill-rule="evenodd">
        <path d="M16.8012,1.79999996 L7.19879998,1.79999996 C6.53639511,1.8003445 5.99968178,2.33759508 5.99999983,2.99999996 L5.99999983,21 C5.99968178,21.6624049 6.53639511,22.1996555 7.19879998,22.2 L16.8012,22.2 C17.4636049,22.1996555 18.0003182,21.6624049 17.9999998,21 L17.9999998,2.99999996 C18.0003182,2.33759508 17.4636049,1.8003445 16.8012,1.79999996 L16.8012,1.79999996 Z M11.1,2.39999996 L12.9,2.39999996 C13.0656854,2.39999996 13.2,2.53431454 13.2,2.69999996 C13.2,2.86568539 13.0656854,2.99999996 12.9,2.99999996 L11.1,2.99999996 C10.9343146,2.99999996 10.8,2.86568539 10.8,2.69999996 C10.8,2.53431454 10.9343146,2.39999996 11.1,2.39999996 Z M12,21.6 C11.6686291,21.6 11.4,21.3313709 11.4,21 C11.4,20.6686292 11.6686291,20.4 12,20.4 C12.3313709,20.4 12.6,20.6686292 12.6,21 C12.6,21.3313709 12.3313709,21.6 12,21.6 Z M16.8,19.8 L7.19999998,19.8 L7.19999998,3.59999996 L16.8,3.59999996 L16.8,19.8 Z M1.79999996,5.99999997 L1.79999996,10.2 C2.46274166,10.2 2.99999996,10.7372583 2.99999996,11.4 C2.99999996,12.0627417 2.46274166,12.6 1.79999996,12.6 L1.79999996,16.8 L5.39999997,16.8 L5.39999997,5.99999997 L1.79999996,5.99999997 Z M21,11.4 C21,10.7372583 21.5372583,10.2 22.2,10.2 L22.2,5.99999997 L18.6,5.99999997 L18.6,16.8 L22.2,16.8 L22.2,12.6 C21.5372583,12.6 21,12.0627417 21,11.4 Z M9.83999999,12.96 L9.35999999,12.96 L9.35999999,9.59999999 L9.83999999,9.59999999 L9.83999999,12.96 Z M13.44,12.96 L12.96,12.96 L12.96,9.59999999 L13.44,9.59999999 L13.44,12.96 Z M12.72,12.96 L12.48,12.96 L12.48,9.59999999 L12.72,9.59999999 L12.72,12.96 Z M12,12.96 L11.52,12.96 L11.52,9.59999999 L12,9.59999999 L12,12.96 Z M14.64,12.96 L13.68,12.96 L13.68,9.59999999 L14.64,9.59999999 L14.64,12.96 Z M11.04,12.96 L10.08,12.96 L10.08,9.59999999 L11.04,9.59999999 L11.04,12.96 Z M9.59999999,13.68 L9.59999999,14.16 L8.15999998,14.16 L8.15999998,12.72 L8.63999999,12.72 L8.63999999,13.68 L9.59999999,13.68 Z M15.84,12.72 L15.84,14.16 L14.4,14.16 L14.4,13.68 L15.36,13.68 L15.36,12.72 L15.84,12.72 Z M15.84,8.39999998 L15.84,9.83999999 L15.36,9.83999999 L15.36,8.87999999 L14.4,8.87999999 L14.4,8.39999998 L15.84,8.39999998 Z M9.59999999,8.39999998 L9.59999999,8.87999999 L8.63999999,8.87999999 L8.63999999,9.83999999 L8.15999998,9.83999999 L8.15999998,8.39999998 L9.59999999,8.39999998 Z" fill="#000000"></path>
    </g>
</svg>