<?xml version="1.0" encoding="UTF-8"?>
<svg width="24px" height="24px" viewBox="0 0 24 24" version="1.1" xmlns="http://www.w3.org/2000/svg" xmlns:xlink="http://www.w3.org/1999/xlink">
    <title>icons/functional_UI/S-Z/mdpi/ic_Syncronise</title>
    <g id="icons/functional_UI/S-Z/ic_Syncronise" stroke="none" stroke-width="1" fill="none" fill-rule="evenodd">
        <path d="M18.788232,5.21217597 C16.9898426,3.40884301 14.5468027,2.39675942 12,2.3999922 C7.31301598,2.3999922 3.41059196,5.75846397 2.56799996,10.2 L6.27338398,10.2 C6.90348639,8.19872448 8.53276553,6.67166843 10.5706182,6.17237981 C12.6084709,5.67309118 14.7591257,6.27403613 16.242984,7.75737598 L13.80012,10.2 L19.80048,10.2 C20.4632217,10.2 21.00048,9.66274169 21.00048,8.99999999 L21.00048,2.99999996 L18.788232,5.21217597 Z M17.726616,13.8 C17.0965194,15.8012794 15.4672427,17.3283415 13.4293893,17.8276352 C11.3915358,18.3269289 9.24087773,17.7259873 7.75701598,16.242648 L10.2,13.8 L4.19951997,13.8 C3.53677826,13.8 2.99951996,14.3372583 2.99951996,15 L2.99951996,21 L5.21183997,18.787824 C7.01021181,20.5911393 9.45322227,21.6032214 12,21.6000077 C16.686984,21.6000077 20.589408,18.241536 21.432,13.8 L17.726616,13.8 Z" fill="#000000"></path>
    </g>
</svg>