<?xml version="1.0" encoding="UTF-8"?>
<svg width="24px" height="24px" viewBox="0 0 24 24" version="1.1" xmlns="http://www.w3.org/2000/svg" xmlns:xlink="http://www.w3.org/1999/xlink">
    <title>icons/functional_UI/S-Z/mdpi/ic_Target_Location</title>
    <g id="icons/functional_UI/S-Z/ic_Target_Location" stroke="none" stroke-width="1" fill="none" fill-rule="evenodd">
        <path d="M20.94888,11.04 C20.502,6.84287998 17.15712,3.49799996 12.96,3.05111996 L12.96,1.19999995 L11.04,1.19999995 L11.04,3.05111996 C6.84239998,3.49799996 3.49799996,6.84263998 3.05111996,11.04 L1.19999995,11.04 L1.19999995,12.96 L3.05111996,12.96 C3.49799996,17.15736 6.84239998,20.502 11.04,20.94888 L11.04,22.8 L12.96,22.8 L12.96,20.94888 C17.15712,20.502 20.502,17.15712 20.94888,12.96 L22.8,12.96 L22.8,11.04 L20.94888,11.04 Z M19.13616,12.96 C18.70752,16.16376 16.16376,18.70752 12.96,19.13616 L12.96,17.4 L11.04,17.4 L11.04,19.13616 C7.83623998,18.70752 5.29247997,16.16376 4.86383997,12.96 L6.59999998,12.96 L6.59999998,11.04 L4.86383997,11.04 C5.29247997,7.83623998 7.83623998,5.29247997 11.04,4.86383997 L11.04,6.59999998 L12.96,6.59999998 L12.96,4.86383997 C16.16376,5.29247997 18.70752,7.83623998 19.13616,11.04 L17.4,11.04 L17.4,12.96 L19.13616,12.96 Z" fill="#000000"></path>
    </g>
</svg>