<?xml version="1.0" encoding="UTF-8"?>
<svg width="24px" height="24px" viewBox="0 0 24 24" version="1.1" xmlns="http://www.w3.org/2000/svg" xmlns:xlink="http://www.w3.org/1999/xlink">
    <title>icons/functional_UI/S-Z/mdpi/ic_TV_recording_service</title>
    <g id="icons/functional_UI/S-Z/ic_TV_recording_service" stroke="none" stroke-width="1" fill="none" fill-rule="evenodd">
        <path d="M1.79999996,4.79999997 L1.79999996,17.28 L5.39999997,17.28 L5.39999997,19.2 L18.6,19.2 L18.6,17.28 L22.2,17.28 L22.2,4.79999997 L1.79999996,4.79999997 Z M12,18.12 C11.602355,18.12 11.28,17.797645 11.28,17.4 C11.28,17.002355 11.602355,16.68 12,16.68 C12.397645,16.68 12.72,17.002355 12.72,17.4 C12.72,17.797645 12.397645,18.12 12,18.12 L12,18.12 Z M20.76,15.84 L3.23999996,15.84 L3.23999996,6.23999998 L20.76,6.23999998 L20.76,15.84 Z M11.988,8.39999998 C13.4791688,8.39999998 14.688,9.60883117 14.688,11.1 C14.688,12.5911688 13.4791688,13.8 11.988,13.8 C10.4968312,13.8 9.28799999,12.5911688 9.28799999,11.1 C9.28799999,9.60883117 10.4968312,8.39999998 11.988,8.39999998 L11.988,8.39999998 Z" fill="#000000"></path>
    </g>
</svg>