<svg width="24" height="24"><path fill-rule="evenodd" d="M11.632 6h7.736c.35 0 .632.283.632.632v.736a.632.632 0 0 1-.632.632h-7.736A.632.632 0 0 1 11 7.368v-.736c0-.35.283-.632.632-.632Zm-4 12h11.736c.35 0 .632.283.632.632v.736a.632.632 0 0 1-.632.632H7.632A.632.632 0 0 1 7 19.368v-.736c0-.35.283-.632.632-.632Zm0-8h11.736c.35 0 .632.283.632.632v.736a.632.632 0 0 1-.632.632H7.632A.632.632 0 0 1 7 11.368v-.736c0-.35.283-.632.632-.632Zm0 4h11.736c.35 0 .632.283.632.632v.736a.632.632 0 0 1-.632.632H7.632A.632.632 0 0 1 7 15.368v-.736c0-.35.283-.632.632-.632Zm-.913-7-2.54 2.117a.5.5 0 0 0 .641.768l3-2.5a.5.5 0 0 0 0-.769l-3-2.5a.5.5 0 0 0-.64.768L6.719 7Z"/></svg>