<?xml version="1.0" encoding="UTF-8"?>
<svg width="24px" height="24px" viewBox="0 0 24 24" version="1.1" xmlns="http://www.w3.org/2000/svg" xmlns:xlink="http://www.w3.org/1999/xlink">
    <title>icons/functional_UI/S-Z/mdpi/ic_Timezones</title>
    <g id="icons/functional_UI/S-Z/ic_Timezones" stroke="none" stroke-width="1" fill="none" fill-rule="evenodd">
        <path d="M15,9.91199999 C14.5095712,9.91199999 14.112,10.3095711 14.112,10.8 L14.112,13.935192 L12.383592,15.6636 C12.0321136,16.0150784 12.0321136,16.5849376 12.383592,16.936416 C12.7350704,17.2878945 13.3049296,17.2878945 13.656408,16.936416 L15.530976,15.0618 C15.7558274,14.894327 15.888222,14.6303744 15.8880003,14.350008 L15.8880003,10.8 C15.8880003,10.5644878 15.7944431,10.3386215 15.6279108,10.1720892 C15.4613785,10.0055569 15.2355123,9.91199999 15,9.91199999 Z M16.629096,7.37090398 C15.879864,3.84518397 12.749064,1.19999995 8.99999999,1.19999995 C4.69216797,1.19999995 1.19999995,4.69216797 1.19999995,8.99999999 C1.19999995,12.749064 3.84518397,15.879864 7.37090398,16.629096 C8.12013598,20.154816 11.250936,22.8 15,22.8 C19.307832,22.8 22.8,19.307832 22.8,15 C22.8,11.250936 20.154816,8.12013598 16.629096,7.37090398 Z M7.01999998,11.2000087 C6.65597656,11.2000087 6.32779297,10.9807395 6.18848594,10.6444263 C6.0491789,10.3081131 6.12618374,9.9209986 6.38359198,9.66359999 L8.11199998,7.93519198 L8.11199998,4.19999997 C8.11199998,3.70957111 8.50957113,3.31199996 8.99999999,3.31199996 C9.49042885,3.31199996 9.88800028,3.70957111 9.88800028,4.19999997 L9.88800028,8.35000798 C9.88822572,8.63038189 9.75583112,8.8943434 9.53097599,9.06182399 L7.65640798,10.936392 C7.48779375,11.1054355 7.25876006,11.2003069 7.01999998,11.2000087 L7.01999998,11.2000087 Z M15,21 C11.686296,21 8.99999999,18.313704 8.99999999,15 C8.99999999,11.686296 11.686296,8.99999999 15,8.99999999 C18.313704,8.99999999 21,11.686296 21,15 C21,18.313704 18.313704,21 15,21 Z" fill="#000000"></path>
    </g>
</svg>