<?xml version="1.0" encoding="UTF-8"?>
<svg width="24px" height="24px" viewBox="0 0 24 24" version="1.1" xmlns="http://www.w3.org/2000/svg" xmlns:xlink="http://www.w3.org/1999/xlink">
    <title>icons/functional_UI/S-Z/mdpi/ic_Top_up_Mobile</title>
    <g id="icons/functional_UI/S-Z/ic_Top_up_Mobile" stroke="none" stroke-width="1" fill="none" fill-rule="evenodd">
        <path d="M10.104,19.152 L10.104,19.632 C10.104,20.406048 9.46286399,21 8.68799999,21 L7.91999998,21 C8.47636799,21.71088 9.80066399,22.2 10.773984,22.2 C12.452832,22.2 13.8,20.82912 13.8,19.152 L13.8,13.32 L15.696,13.32 L12.450288,10.034568 C12.1762163,9.76090876 11.7322957,9.76090876 11.458224,10.034568 L8.23199998,13.32 L10.104,13.32 L10.104,19.152 Z M16.407552,1.7999918 L7.49635198,1.7999918 C6.88433781,1.79772909 6.38634168,2.29198606 6.38399296,2.90399996 L6.38399296,19.28928 C6.38295444,19.583017 6.49871796,19.8651218 6.70579147,20.0734558 C6.91286498,20.2817897 7.19426212,20.399263 7.48799998,20.4 L8.68799999,20.4 C9.13981243,20.2778927 9.45339992,19.8677017 9.45273599,19.39968 L9.45273599,18.359808 L7.48799998,18.36 L7.48799998,3.59999996 L16.416,3.59999996 L16.416,18.36 L14.4,18.36 L14.4,19.056 C14.4,19.581792 14.3112,19.92372 14.10936,20.393232 L16.407552,20.393232 C17.021952,20.393232 17.52,19.826976 17.52,19.217232 L17.52,2.90399996 C17.5176584,2.29194843 17.0196036,1.79767593 16.407552,1.7999918 Z M12.9,2.99999996 L11.10024,2.99999996 C10.9345546,2.99999996 10.80024,2.86568539 10.80024,2.69999996 C10.80024,2.53431454 10.9345546,2.39999996 11.10024,2.39999996 L12.9,2.39999996 C13.0656854,2.39999996 13.2,2.53431454 13.2,2.69999996 C13.2,2.86568539 13.0656854,2.99999996 12.9,2.99999996 Z" fill="#000000"></path>
    </g>
</svg>