<?xml version="1.0" encoding="UTF-8"?>
<svg width="24px" height="24px" viewBox="0 0 24 24" version="1.1" xmlns="http://www.w3.org/2000/svg" xmlns:xlink="http://www.w3.org/1999/xlink">
    <title>icons/functional_UI/S-Z/mdpi/ic_TV_replay_service</title>
    <g id="icons/functional_UI/S-Z/ic_TV_replay_service" stroke="none" stroke-width="1" fill="none" fill-rule="evenodd">
        <path d="M1.79999996,4.79999997 L1.79999996,17.28 L5.39999997,17.28 L5.39999997,19.2 L18.6,19.2 L18.6,17.28 L22.2,17.28 L22.2,4.79999997 L1.79999996,4.79999997 Z M12,18.12 C11.602355,18.12 11.28,17.797645 11.28,17.4 C11.28,17.002355 11.602355,16.68 12,16.68 C12.397645,16.68 12.72,17.002355 12.72,17.4 C12.72,17.797645 12.397645,18.12 12,18.12 L12,18.12 Z M20.76,15.84 L3.23999996,15.84 L3.23999996,6.23999998 L20.76,6.23999998 L20.76,15.84 Z M12.17736,14.736 C10.5459953,14.7356516 9.15783433,13.5474141 8.90582399,11.935632 C8.88564796,11.8078922 8.9223522,11.677718 9.00628686,11.5793335 C9.09022152,11.480949 9.21298875,11.4241977 9.34231199,11.424 L9.34231199,11.424 C9.56005539,11.4241944 9.74511367,11.5831739 9.77812799,11.7984 C9.97101697,13.0364966 11.0743628,13.9244706 12.3250704,13.8481822 C13.575778,13.7718937 14.5630196,12.7564018 14.604,11.50404 C14.648832,10.12884 13.532304,8.99519999 12.156864,8.99519999 L10.451448,8.99519999 L10.451448,10.0992 L9.56855999,9.22017599 L8.90639999,8.56091999 L9.56855999,7.89539998 L10.451448,7.00799998 L10.451448,8.11199998 L12.17736,8.11199998 C14.0065271,8.11199998 15.48936,9.5948329 15.48936,11.424 C15.48936,13.2531671 14.0065271,14.736 12.17736,14.736 Z" fill="#000000"></path>
    </g>
</svg>