<svg width="24" height="24"><path fill-rule="evenodd" d="m6 4 2 3H7v10H5V7H4zm0 16-2-3h4zm4.631-15h8.738a.63.63 0 0 1 .631.632v.736a.63.63 0 0 1-.63.632h-8.74a.63.63 0 0 1-.63-.632v-.736A.63.63 0 0 1 10.63 5Zm0 12h8.738a.63.63 0 0 1 .631.632v.736a.63.63 0 0 1-.631.632H10.63a.63.63 0 0 1-.631-.632v-.736A.63.63 0 0 1 10.63 17Zm0-8h8.738a.63.63 0 0 1 .631.632v.737a.63.63 0 0 1-.631.631H10.63a.63.63 0 0 1-.63-.63v-.737A.63.63 0 0 1 10.63 9Zm0 4h8.738a.63.63 0 0 1 .631.631v.737a.63.63 0 0 1-.631.632H10.63a.63.63 0 0 1-.631-.632v-.737A.63.63 0 0 1 10.63 13Z"/></svg>