<?xml version="1.0" encoding="UTF-8"?>
<svg width="24px" height="24px" viewBox="0 0 24 24" version="1.1" xmlns="http://www.w3.org/2000/svg" xmlns:xlink="http://www.w3.org/1999/xlink">
    <title>icons/functional_UI/S-Z/mdpi/ic_Task_list</title>
    <g id="icons/functional_UI/S-Z/ic_Task_list" stroke="none" stroke-width="1" fill="none" fill-rule="evenodd">
        <path d="M15,2.39999996 L13.69716,2.39999996 C13.4428432,1.68080567 12.7628351,1.19999457 12,1.19999457 C11.2371649,1.19999457 10.5571568,1.68080567 10.30284,2.39999996 L8.99999999,2.39999996 C8.66862914,2.39999996 8.39999999,2.66862911 8.39999999,2.99999996 L8.39999999,5.39999997 L15.6,5.39999997 L15.6,2.99999996 C15.6,2.66862911 15.3313709,2.39999996 15,2.39999996 Z M12,3.59999996 C11.6686291,3.59999996 11.4,3.33137081 11.4,2.99999996 C11.4,2.66862911 11.6686291,2.39999996 12,2.39999996 C12.3313709,2.39999996 12.6,2.66862911 12.6,2.99999996 C12.6,3.33137081 12.3313709,3.59999996 12,3.59999996 Z M18.6,3.59999996 L16.2,3.59999996 L16.2,5.99999997 L7.79999998,5.99999997 L7.79999998,3.59999996 L5.39999997,3.59999996 C4.73725827,3.59999996 4.19999997,4.13725827 4.19999997,4.79999997 L4.19999997,21 C4.19999997,21.6627417 4.73725827,22.2 5.39999997,22.2 L18.6,22.2 C19.2627417,22.2 19.8,21.6627417 19.8,21 L19.8,4.79999997 C19.8,4.13725827 19.2627417,3.59999996 18.6,3.59999996 Z M13.2,19.2 L7.19999998,19.2 C6.86862913,19.2 6.59999998,18.9313709 6.59999998,18.6 C6.59999998,18.2686292 6.86862913,18 7.19999998,18 L13.2,18 C13.5313709,18 13.8,18.2686292 13.8,18.6 C13.8,18.9313709 13.5313709,19.2 13.2,19.2 Z M13.2,16.2 L7.19999998,16.2 C6.86862913,16.2 6.59999998,15.9313709 6.59999998,15.6 C6.59999998,15.2686292 6.86862913,15 7.19999998,15 L13.2,15 C13.5313709,15 13.8,15.2686292 13.8,15.6 C13.8,15.9313709 13.5313709,16.2 13.2,16.2 Z M13.2,13.2 L7.19999998,13.2 C6.86862913,13.2 6.59999998,12.9313709 6.59999998,12.6 C6.59999998,12.2686292 6.86862913,12 7.19999998,12 L13.2,12 C13.5313709,12 13.8,12.2686292 13.8,12.6 C13.8,12.9313709 13.5313709,13.2 13.2,13.2 Z M13.2,10.2 L7.19999998,10.2 C6.86862913,10.2 6.59999998,9.93137084 6.59999998,9.59999999 C6.59999998,9.26862914 6.86862913,8.99999999 7.19999998,8.99999999 L13.2,8.99999999 C13.5313709,8.99999999 13.8,9.26862914 13.8,9.59999999 C13.8,9.93137084 13.5313709,10.2 13.2,10.2 Z M16.2,19.2 L15,19.2 L15,18 L16.2,18 L16.2,19.2 Z M16.2,16.2 L15,16.2 L15,15 L16.2,15 L16.2,16.2 Z M17.943336,11.789928 L16.288152,13.709928 L16.288152,13.709928 C16.2367106,13.7672876 16.1632997,13.8000594 16.086252,13.8000594 C16.0092044,13.8000594 15.9357934,13.7672876 15.884352,13.709928 L15.884352,13.709928 L15.05676,12.749928 L15.05676,12.749928 C15.0203565,12.7084455 15.0001951,12.6551903 15,12.6 C15.0003737,12.535322 15.027849,12.4737638 15.075744,12.430296 L15.179184,12.334296 C15.2777074,12.2454992 15.4257604,12.2402473 15.530328,12.32184 L15.530328,12.32184 L16.0344,12.84 L17.564424,11.4648 L17.564424,11.4648 C17.6136561,11.4225548 17.6765051,11.3995394 17.741376,11.3999932 C17.8842,11.3999932 18,11.507448 18,11.64 C17.9998124,11.6951758 17.9796687,11.7484208 17.943288,11.789904 L17.943288,11.789904 L17.943336,11.789928 Z M17.943336,8.78992799 L17.943336,8.78992799 L16.288152,10.709928 L16.288152,10.709928 C16.2367106,10.7672876 16.1632997,10.8000594 16.086252,10.8000594 C16.0092044,10.8000594 15.9357934,10.7672876 15.884352,10.709928 L15.884352,10.709928 L15.05676,9.74992799 L15.05676,9.74992799 C15.0203565,9.7084455 15.0001951,9.65519031 15,9.59999999 C15.0003737,9.53532197 15.027849,9.47376378 15.075744,9.43029599 L15.179184,9.33429599 C15.2777074,9.24549915 15.4257604,9.24024732 15.530328,9.32183999 L15.530328,9.32183999 L16.0344,9.83999999 L17.564424,8.46479999 L17.564424,8.46479999 C17.6136561,8.42255474 17.6765051,8.39953937 17.741376,8.3999932 C17.8842,8.3999932 18,8.50744799 18,8.63999999 C17.9998124,8.69517583 17.9796687,8.74842078 17.943288,8.78990399 L17.943336,8.78992799 Z" fill="#000000"></path>
    </g>
</svg>