<svg width="24" height="24" viewBox="0 0 24 24">
<path fill-rule="evenodd" clip-rule="evenodd" d="M12 3.99982C12.6127 3.99982 13.1533 4.18108 13.62 4.54297C14.0868 4.9055 14.4285 5.38929 14.6457 5.99308L16.7649 11.7677C15.5567 13.3971 14.265 15.4086 14.0358 16.8202H9.00003L8.62866 18.1642C8.30024 19.3882 7.76972 20.0002 7.03456 20.0002C6.53119 20.0002 6.0834 19.8783 5.69119 19.6346C5.50367 19.5236 5.34395 19.3713 5.22421 19.1893C5.10447 19.0073 5.02787 18.8004 5.00024 18.5842C5.00024 18.1017 5.04761 17.7297 5.14298 17.4695L9.35372 5.99308C9.57098 5.39687 9.91267 4.91561 10.3794 4.54929C10.8461 4.18297 11.3868 3.99982 12 3.99982ZM12.0228 7.75266L10.1198 13.6402H13.92L12.0228 7.75266ZM19 22C20.6569 22 22 20.5225 22 18.7C22 16.8775 19 13 19 13C19 13 16 16.8775 16 18.7C16 20.5225 17.3431 22 19 22Z"/>
</svg>
