<?xml version="1.0" encoding="UTF-8"?>
<svg width="24px" height="24px" viewBox="0 0 24 24" version="1.1" xmlns="http://www.w3.org/2000/svg" xmlns:xlink="http://www.w3.org/1999/xlink">
    <title>icons/functional_UI/S-Z/mdpi/ic_Tick</title>
    <g id="icons/functional_UI/S-Z/ic_Tick" stroke="none" stroke-width="1" fill="none" fill-rule="evenodd">
        <path d="M21.0000349,5.75999997 C21.0041489,5.13962962 20.6379044,4.57657423 20.0691136,4.32887769 C19.5003228,4.08118115 18.8386222,4.19658792 18.387264,4.62220797 L18.387,4.62191997 L9.20690399,13.56 L6.18225598,10.191552 L6.18199198,10.191888 C5.5675571,9.66103446 4.64703825,9.69642532 4.07517597,10.272888 L3.45448796,10.896888 C2.89522393,11.4602623 2.84614948,12.3530502 3.34029596,12.974328 L3.34003196,12.97452 L8.30563198,19.21452 L8.30587198,19.214328 C8.59907608,19.5842815 9.04525481,19.7999807 9.51730799,19.7999807 C9.98936116,19.7999807 10.4355399,19.5842815 10.728744,19.214328 L10.729008,19.214544 L20.66004,6.73454398 L20.659776,6.73435198 C20.8805867,6.45765298 21.0005817,6.11400469 21.0000349,5.75999997 Z" fill="#000000"></path>
    </g>
</svg>