<?xml version="1.0" encoding="UTF-8"?>
<svg width="24px" height="24px" viewBox="0 0 24 24" version="1.1" xmlns="http://www.w3.org/2000/svg" xmlns:xlink="http://www.w3.org/1999/xlink">
    <title>icons/functional_UI/S-Z/mdpi/ic_Trash</title>
    <g id="icons/functional_UI/S-Z/ic_Trash" stroke="none" stroke-width="1" fill="none" fill-rule="evenodd">
        <path d="M18,3.59901596 L15,3.59901596 L15,2.99999996 C15,2.33725826 14.4627417,1.79999996 13.8,1.79999996 L10.2,1.79999996 C9.53725829,1.79999996 8.99999999,2.33725826 8.99999999,2.99999996 L8.99999999,3.59901596 L5.99999997,3.59901596 C5.00588742,3.59901596 4.19999997,4.40490342 4.19999997,5.39901597 L4.19999997,6.59999998 L19.8,6.59999998 L19.8,5.39901597 C19.8,4.40490342 18.9941126,3.59901596 18,3.59901596 Z M10.2,2.99999996 L13.8,2.99999996 L13.8,3.59901596 L10.2,3.59901596 L10.2,2.99999996 Z M5.39999997,7.19901598 L5.39999997,22.2 L18.6,22.2 L18.6,7.19901598 L5.39999997,7.19901598 Z M8.99999999,9.59999999 L8.99999999,19.79676 L8.99999999,19.79676 C8.99999999,19.79784 8.99999999,19.79892 8.99999999,19.8 C8.99999999,20.1313709 8.73137084,20.4 8.39999998,20.4 C8.06862913,20.4 7.79999998,20.1313709 7.79999998,19.8 C7.79999998,19.79892 7.79999998,19.79784 7.79999998,19.79676 L7.79999998,19.79676 L7.79999998,9.59999999 L7.79999998,9.59999999 C7.79999998,9.59966399 7.79999998,9.59935199 7.79999998,9.59901599 C7.79999998,9.26764514 8.06862913,8.99901599 8.39999998,8.99901599 C8.73137084,8.99901599 8.99999999,9.26764514 8.99999999,9.59901599 C8.99999999,9.59935199 8.99999999,9.59966399 8.99999999,9.59999999 L8.99999999,9.59999999 Z M12.6,9.59999999 L12.6,19.796736 L12.6,19.796736 C12.6,19.79784 12.6,19.798896 12.6,19.8 C12.6,20.1313709 12.3313709,20.4 12,20.4 C11.6686291,20.4 11.4,20.1313709 11.4,19.8 C11.4,19.798896 11.4,19.79784 11.4,19.796736 L11.4,19.796736 L11.4,9.59999999 L11.4,9.59999999 C11.4,9.59966399 11.4,9.59932799 11.4,9.59901599 C11.4,9.26764514 11.6686291,8.99901599 12,8.99901599 C12.3313709,8.99901599 12.6,9.26764514 12.6,9.59901599 C12.6,9.59932799 12.6,9.59966399 12.6,9.59999999 L12.6,9.59999999 Z M16.2,9.59999999 L16.2,19.79676 L16.2,19.79676 C16.2,19.79784 16.2,19.79892 16.2,19.8 C16.2,20.1313709 15.9313709,20.4 15.6,20.4 C15.2686292,20.4 15,20.1313709 15,19.8 C15,19.79892 15,19.79784 15,19.79676 L15,19.79676 L15,9.59999999 L15,9.59999999 C15,9.59966399 15,9.59935199 15,9.59901599 C15,9.26764514 15.2686292,8.99901599 15.6,8.99901599 C15.9313709,8.99901599 16.2,9.26764514 16.2,9.59901599 C16.2,9.59935199 16.2,9.59966399 16.2,9.59999999 L16.2,9.59999999 Z" fill="#000000"></path>
    </g>
</svg>