<?xml version="1.0" encoding="UTF-8"?>
<svg width="24px" height="24px" viewBox="0 0 24 24" version="1.1" xmlns="http://www.w3.org/2000/svg" xmlns:xlink="http://www.w3.org/1999/xlink">
    <title>icons/functional_UI/S-Z/mdpi/ic_Ticket</title>
    <g id="icons/functional_UI/S-Z/ic_Ticket" stroke="none" stroke-width="1" fill="none" fill-rule="evenodd">
        <path d="M22.2,9.59999999 L22.2,5.86358397 C22.2,5.27618397 21.684144,4.79999997 21.047784,4.79999997 L16.652736,4.79999997 C16.652736,5.13137082 16.3841069,5.39999997 16.052736,5.39999997 C15.7213652,5.39999997 15.452736,5.13137082 15.452736,4.79999997 L2.95221596,4.79999997 C2.31587996,4.79999997 1.79999996,5.27618397 1.79999996,5.86358397 L1.79999996,9.59999999 C3.12549596,9.59999999 4.19999997,10.77648 4.19999997,12 C4.19999997,13.22352 3.12549596,14.4 1.79999996,14.4 L1.79999996,18.136416 C1.79999996,18.723816 2.31587996,19.2 2.95221596,19.2 L15.452712,19.2 C15.452712,18.8686292 15.7213412,18.6 16.052712,18.6 C16.3840829,18.6 16.652712,18.8686292 16.652712,19.2 L21.047784,19.2 C21.684144,19.2 22.2,18.723816 22.2,18.136416 L22.2,14.4 C20.874504,14.4 19.8,13.22352 19.8,12 C19.8,10.77648 20.874504,9.59999999 22.2,9.59999999 Z M16.052712,18 C15.7213412,18 15.452712,17.7313709 15.452712,17.4 C15.452712,17.0686292 15.7213412,16.8 16.052712,16.8 C16.3840829,16.8 16.652712,17.0686292 16.652712,17.4 C16.652712,17.7313709 16.3840829,18 16.052712,18 Z M16.052712,16.2 C15.7213412,16.2 15.452712,15.9313709 15.452712,15.6 C15.452712,15.2686292 15.7213412,15 16.052712,15 C16.3840829,15 16.652712,15.2686292 16.652712,15.6 C16.652712,15.9313709 16.3840829,16.2 16.052712,16.2 Z M16.052712,14.4 C15.7213412,14.4 15.452712,14.1313709 15.452712,13.8 C15.452712,13.4686292 15.7213412,13.2 16.052712,13.2 C16.3840829,13.2 16.652712,13.4686292 16.652712,13.8 C16.652712,14.1313709 16.3840829,14.4 16.052712,14.4 Z M16.052712,12.6 C15.7213412,12.6 15.452712,12.3313709 15.452712,12 C15.452712,11.6686291 15.7213412,11.4 16.052712,11.4 C16.3840829,11.4 16.652712,11.6686291 16.652712,12 C16.652712,12.3313709 16.3840829,12.6 16.052712,12.6 Z M16.052712,10.8 C15.7213412,10.8 15.452712,10.5313708 15.452712,10.2 C15.452712,9.86862914 15.7213412,9.59999999 16.052712,9.59999999 C16.3840829,9.59999999 16.652712,9.86862914 16.652712,10.2 C16.652712,10.5313708 16.3840829,10.8 16.052712,10.8 Z M16.052712,8.99999999 C15.7213412,8.99999999 15.452712,8.73137084 15.452712,8.39999999 C15.452712,8.06862913 15.7213412,7.79999998 16.052712,7.79999998 C16.3840829,7.79999998 16.652712,8.06862913 16.652712,8.39999999 C16.652712,8.73137084 16.3840829,8.99999999 16.052712,8.99999999 Z M16.052712,7.19999998 C15.7213412,7.19999998 15.452712,6.93137083 15.452712,6.59999998 C15.452712,6.26862913 15.7213412,5.99999997 16.052712,5.99999997 C16.3840829,5.99999997 16.652712,6.26862913 16.652712,6.59999998 C16.652712,6.93137083 16.3840829,7.19999998 16.052712,7.19999998 Z" fill="#000000"></path>
    </g>
</svg>