<?xml version="1.0" encoding="UTF-8"?>
<svg width="24px" height="24px" viewBox="0 0 24 24" version="1.1" xmlns="http://www.w3.org/2000/svg" xmlns:xlink="http://www.w3.org/1999/xlink">
    <title>icons/functional_UI/S-Z/mdpi/ic_Tickets</title>
    <g id="icons/functional_UI/S-Z/ic_Tickets" stroke="none" stroke-width="1" fill="none" fill-rule="evenodd">
        <path d="M4.63257597,5.99949597 L20.544,5.99949597 L20.544,5.77869597 C20.544,5.23819197 20.07,4.79999997 19.485312,4.79999997 L15.447024,4.79999997 C15.4483293,4.99782424 15.34354,5.18118246 15.1724334,5.2804733 C15.0013268,5.37976415 14.7901372,5.37976415 14.6190306,5.2804733 C14.447924,5.18118246 14.3431348,4.99782424 14.34444,4.79999997 L2.97868796,4.79999997 C2.39399996,4.79999997 1.79999996,5.43019197 1.79999996,5.97069597 L1.79999996,9.21683999 C2.18174396,9.21683999 2.66080796,9.32323199 2.97393596,9.50395199 L2.97393596,7.57900798 C2.97393596,6.70799998 3.71800797,5.99949597 4.63257597,5.99949597 Z M2.99951996,14.790696 L3.60033597,14.790696 C4.01630397,14.790696 4.41784797,14.6136 4.73097597,14.292024 C5.03409597,13.980744 5.20799997,13.577928 5.20799997,13.186872 C5.20799997,12.795816 5.03414397,12.393 4.73102397,12.081744 C4.5662668,11.9104824 4.36693652,11.7762592 4.14628797,11.688 C4.06161597,12.754056 2.96399996,13.7376 1.79999996,13.7376 L1.79999996,17.167752 C1.79999996,17.70552 2.41615196,18.1416 2.99951996,18.144 L2.99951996,14.790696 Z M22.2,10.984008 L22.2,7.55279998 C22.2,7.01335198 21.726,6.57599998 21.141312,6.57599998 L17.103024,6.57599998 C17.1010245,6.87905061 16.8547893,7.12366651 16.551732,7.12366651 C16.2486748,7.12366651 16.0024396,6.87905061 16.00044,6.57599998 L4.65868797,6.57599998 C4.07399997,6.57599998 3.59999996,7.01327998 3.59999996,7.55279998 L3.59999996,10.98408 C4.81787997,10.98408 5.80516797,12.064464 5.80516797,13.188072 C5.80516797,14.31168 4.81787997,15.392016 3.59999996,15.392016 L3.59999996,18.8232 C3.59999996,19.362648 4.07399997,19.8 4.65868797,19.8 L16.00044,19.8 C16.0024396,19.4969494 16.2486748,19.2523335 16.551732,19.2523335 C16.8547893,19.2523335 17.1010245,19.4969494 17.103024,19.8 L21.141312,19.8 C21.726,19.8 22.2,19.36272 22.2,18.8232 L22.2,15.392016 C20.98212,15.392016 19.994832,14.311608 19.994832,13.188 C19.994832,12.064392 20.98212,10.984008 22.2,10.984008 Z M16.551744,18.698016 C16.2474576,18.6978702 16.0008904,18.4511026 16.000992,18.1468161 C16.0010936,17.8425296 16.2478255,17.5959267 16.552112,17.5959841 C16.8563985,17.5960415 17.1030372,17.8427375 17.103024,18.147024 C17.1029313,18.4514025 16.8561225,18.6980823 16.551744,18.698016 Z M16.551744,17.045016 C16.2474607,17.0448702 16.0008949,16.7981074 16.000992,16.4938241 C16.0010892,16.1895408 16.2478126,15.9429355 16.552096,15.9429841 C16.8563793,15.9430327 17.103024,16.1897167 17.103024,16.494 C17.1029445,16.7983879 16.8561319,17.0450823 16.551744,17.045016 Z M16.551744,15.392016 C16.2474607,15.3918702 16.0008949,15.1451074 16.000992,14.8408241 C16.0010892,14.5365408 16.2478126,14.2899355 16.552096,14.2899841 C16.8563793,14.2900327 17.103024,14.5367167 17.103024,14.841 C17.1029445,15.1453879 16.8561319,15.3920823 16.551744,15.392016 Z M16.551744,13.739016 C16.2474607,13.7388702 16.0008949,13.4921074 16.000992,13.1878241 C16.0010892,12.8835407 16.2478126,12.6369355 16.552096,12.6369841 C16.8563793,12.6370326 17.103024,12.8837166 17.103024,13.188 C17.1029445,13.4923879 16.8561319,13.7390823 16.551744,13.739016 Z M16.551744,12.085992 C16.2474771,12.085833 16.000934,11.8390751 16.00104,11.5348081 C16.0011461,11.2305411 16.247861,10.9839551 16.552128,10.9840081 C16.8563949,10.9840611 17.103024,11.230733 17.103024,11.535 C17.1029858,11.6811704 17.0448833,11.8213388 16.9414982,11.9246698 C16.8381131,12.0280009 16.6979144,12.0860302 16.551744,12.085992 Z M16.551744,10.432992 C16.2474576,10.4328462 16.0008904,10.1860785 16.000992,9.88179208 C16.0010936,9.57750561 16.2478255,9.33090265 16.552112,9.33096005 C16.8563985,9.33101747 17.1030372,9.57771351 17.103024,9.88199999 C17.1029313,10.1863785 16.8561225,10.4330583 16.551744,10.432992 Z M16.551744,8.779992 C16.2474576,8.7798462 16.0008904,8.53307854 16.000992,8.22879207 C16.0010936,7.9245056 16.2478255,7.67790265 16.552112,7.67796005 C16.8563985,7.67801746 17.1030372,7.9247135 17.103024,8.22899998 C17.1029313,8.5333785 16.8561225,8.78005827 16.551744,8.779992 L16.551744,8.779992 Z" fill="#000000"></path>
    </g>
</svg>