<?xml version="1.0" encoding="UTF-8"?>
<svg width="24px" height="24px" viewBox="0 0 24 24" version="1.1" xmlns="http://www.w3.org/2000/svg" xmlns:xlink="http://www.w3.org/1999/xlink">
    <title>icons/functional_UI/S-Z/mdpi/ic_Top_up_sterling</title>
    <g id="icons/functional_UI/S-Z/ic_Top_up_sterling" stroke="none" stroke-width="1" fill="none" fill-rule="evenodd">
        <path d="M21.30012,10.2 L16.80012,10.2 L16.80012,17.4 C16.80012,20.050968 14.651088,22.2 12.00012,22.2 C9.34915199,22.2 7.20011996,20.050968 7.20011996,17.4 L7.20011996,10.2 L2.70011996,10.2 L10.50012,2.42990396 L10.50012,2.43052796 C10.8950348,2.02726267 11.4356905,1.79999526 12.00012,1.79999526 C12.5645495,1.79999526 13.1052052,2.02726267 13.50012,2.43052796 L13.50012,2.42990396 L21.30012,10.2 Z M15.6,17.400216 C15.6,19.3884411 13.9882251,21.000216 12,21.000216 C10.0117749,21.000216 8.39999999,19.3884411 8.39999999,17.400216 C8.39999999,15.4119909 10.0117749,13.800216 12,13.800216 C13.9882251,13.800216 15.6,15.4119909 15.6,17.400216 L15.6,17.400216 Z M13.406064,18.944736 L11.232,18.944736 C11.488056,18.583056 11.586288,18.25056 11.581296,17.685912 L11.577192,17.37744 L12.34464,17.37744 C12.546888,17.37744 12.6726,17.252808 12.6726,17.04588 C12.6726,16.832736 12.553032,16.714344 12.34464,16.714344 L11.566536,16.714344 L11.580432,16.092456 L11.580432,16.0632 C11.580432,15.5856 11.796792,15.322464 12.215952,15.322464 C12.5364,15.322464 12.726816,15.452064 12.830544,15.730248 C12.891504,15.895152 13.018608,15.98616 13.195008,15.98616 C13.2447543,15.9861347 13.2941771,15.9781622 13.341408,15.962544 C13.516896,15.913272 13.63344,15.768864 13.63344,15.601968 C13.6326541,15.5480501 13.621236,15.4948172 13.59984,15.44532 L13.599192,15.444336 L13.598664,15.443328 C13.349232,14.87124 12.919248,14.616168 12.198288,14.616168 C11.269848,14.616168 10.740096,15.127848 10.740096,16.020168 L10.740096,16.095936 L10.737408,16.105536 L10.7544,16.714464 L10.41264,16.714464 C10.22064,16.714464 10.096656,16.842216 10.096656,17.046 C10.096656,17.252928 10.217736,17.37756 10.41264,17.37756 L10.78572,17.37756 L10.800264,17.66712 L10.800264,17.765976 C10.800264,18.397392 10.628856,18.630624 10.317864,18.83748 C10.163448,18.924792 10.080264,19.056 10.080264,19.219824 C10.080264,19.445424 10.221744,19.607952 10.418664,19.607952 L13.405992,19.607952 C13.606368,19.607952 13.75176,19.489512 13.75176,19.267464 C13.75176,19.05216 13.609656,18.944736 13.405992,18.944736 L13.406064,18.944736 Z" fill="#000000"></path>
    </g>
</svg>