<?xml version="1.0" encoding="UTF-8"?>
<svg width="24px" height="24px" viewBox="0 0 24 24" version="1.1" xmlns="http://www.w3.org/2000/svg" xmlns:xlink="http://www.w3.org/1999/xlink">
    <title>icons/functional_UI/S-Z/mdpi/ic_TV_multi_room</title>
    <g id="icons/functional_UI/S-Z/ic_TV_multi_room" stroke="none" stroke-width="1" fill="none" fill-rule="evenodd">
        <path d="M21.070584,6.57599998 L5.32941597,6.57599998 C4.70822397,6.57599998 4.19999997,7.09487998 4.19999997,7.71527998 L4.19999997,18.07128 C4.19999997,18.69168 4.70822397,19.188 5.32941597,19.188 L7.19999997,19.2 L7.19999997,20.4 L19.2,20.4 L19.2,19.2 L21.070584,19.188 C21.691776,19.188 22.2,18.69168 22.2,18.07128 L22.2,7.71527998 C22.2,7.09487998 21.691776,6.57599998 21.070584,6.57599998 Z M21,18 L5.39999997,18 L5.39999997,7.79999998 L21,7.79999998 L21,18 Z M13.176,18.6 C13.5073709,18.6 13.776,18.8686292 13.776,19.2 C13.776,19.5313709 13.5073709,19.8 13.176,19.8 C12.8446292,19.8 12.576,19.5313709 12.576,19.2 C12.576,18.8686292 12.8446292,18.6 13.176,18.6 Z M2.99999996,15.6 L2.99999996,5.39999997 L18.6,5.39999997 L18.6,5.99999997 L19.8,5.99999997 L19.8,5.41199997 C19.8,4.75199997 19.26,4.19999997 18.6,4.19999997 L2.99999996,4.19999997 C2.33999996,4.19999997 1.79999996,4.75199997 1.79999996,5.41199997 L1.79999996,15.612 C1.79999996,16.272 2.33999996,16.8 2.99999996,16.8 L3.59999996,16.8 L3.59999996,15.6 L2.99999996,15.6 Z" fill="#000000"></path>
    </g>
</svg>