<?xml version="1.0" encoding="UTF-8"?>
<svg width="24px" height="24px" viewBox="0 0 24 24" version="1.1" xmlns="http://www.w3.org/2000/svg" xmlns:xlink="http://www.w3.org/1999/xlink">
    <title>icons/functional_UI/S-Z/mdpi/ic_Top_10</title>
    <g id="icons/functional_UI/S-Z/ic_Top_10" stroke="none" stroke-width="1" fill="none" fill-rule="evenodd">
        <path d="M21.599856,9.53404799 L14.2176,9.53404799 L11.897928,2.49616796 L9.60405599,9.53404799 L2.04014396,9.53404799 L8.08034398,13.900512 L5.83547997,21.095832 L11.845656,16.700304 L18.0372,21.095832 L15.656904,13.900512 L21.599856,9.53404799 Z M12.48,15.36 L11.52,15.36 L11.52,11.52 L10.08,11.52 L10.08,10.968 C10.295856,10.936536 10.503312,10.928832 10.71492,10.889688 C11.093448,10.8198 11.378016,10.624104 11.560296,10.272624 C11.705184,9.99335999 11.6448,10.056 11.664,10.056 C11.799504,10.056 12.48,10.056 12.48,10.056 L12.48,10.056 L12.48,15.36 Z" fill="#000000"></path>
    </g>
</svg>