<?xml version="1.0" encoding="UTF-8"?>
<svg width="24px" height="24px" viewBox="0 0 24 24" version="1.1" xmlns="http://www.w3.org/2000/svg" xmlns:xlink="http://www.w3.org/1999/xlink">
    <title>icons/functional_UI/S-Z/mdpi/ic_Top_up_Euro</title>
    <g id="icons/functional_UI/S-Z/ic_Top_up_Euro" stroke="none" stroke-width="1" fill="none" fill-rule="evenodd">
        <path d="M21.30012,10.2 L16.80012,10.2 L16.80012,17.4 C16.80012,20.050968 14.651088,22.2 12.00012,22.2 C9.34915199,22.2 7.20011996,20.050968 7.20011996,17.4 L7.20011996,10.2 L2.70011996,10.2 L10.50012,2.42990396 L10.50012,2.43052796 C10.8950348,2.02726267 11.4356905,1.79999526 12.00012,1.79999526 C12.5645495,1.79999526 13.1052052,2.02726267 13.50012,2.43052796 L13.50012,2.42990396 L21.30012,10.2 Z M15.6,17.400216 C15.6,19.3884411 13.9882251,21.000216 12,21.000216 C10.0117749,21.000216 8.39999999,19.3884411 8.39999999,17.400216 C8.39999999,15.4119909 10.0117749,13.800216 12,13.800216 C13.9882251,13.800216 15.6,15.4119909 15.6,17.400216 L15.6,17.400216 Z M13.553784,18.473928 C13.5076686,18.4588681 13.4595397,18.4508736 13.411032,18.450216 C13.240944,18.450216 13.105728,18.546984 13.030464,18.722592 L13.029792,18.724104 L13.029264,18.725568 C12.871848,19.12008 12.64188,19.277064 12.117648,19.277064 C11.51076,19.277064 11.092848,19.032648 10.928568,18.350952 L12.43956,18.350952 C12.646632,18.350952 12.78036,18.183312 12.78036,17.97912 C12.78036,17.76552 12.656208,17.607312 12.43956,17.607312 L10.84368,17.607312 C10.84272,17.54532 10.84272,17.437368 10.84272,17.399232 C10.84272,17.336424 10.844928,17.297448 10.848,17.23548 L12.76764,17.23548 C12.977952,17.23548 13.10844,17.06856 13.10844,16.85724 C13.10844,16.65084 12.980976,16.491816 12.76764,16.491816 L10.952976,16.491816 C11.13552,15.810216 11.544768,15.479016 12.117576,15.479016 C12.612816,15.479016 12.853248,15.639696 13.036104,16.081968 C13.102296,16.242264 13.23432,16.336368 13.398336,16.336368 C13.45762,16.3345337 13.516353,16.3243867 13.572816,16.306224 L13.57944,16.30476 L13.58568,16.30236 C13.755432,16.23144 13.852752,16.097208 13.852752,15.933984 C13.85373,15.8670675 13.8392243,15.8008309 13.810368,15.740448 C13.5234,15.032208 12.96972,14.687856 12.117576,14.687856 C11.597256,14.687856 11.138376,14.856888 10.79088,15.191856 C10.46688,15.503856 10.239432,15.996264 10.129584,16.492032 L9.82113599,16.492032 C9.61094399,16.492032 9.48033599,16.656528 9.48033599,16.863864 C9.48033599,17.0712 9.61091999,17.235696 9.82113599,17.235696 L10.0536,17.235696 C10.050576,17.297664 10.048488,17.340864 10.048488,17.399448 C10.048488,17.439384 10.048488,17.545536 10.049256,17.607528 L9.82125599,17.607528 C9.60787199,17.607528 9.48045599,17.768736 9.48045599,17.979336 C9.48045599,18.186672 9.61103999,18.351168 9.82125599,18.351168 L10.108224,18.351168 C10.20468,18.846936 10.417584,19.243344 10.741584,19.560648 C11.091024,19.902816 11.553984,20.064456 12.117696,20.064456 C12.999792,20.064456 13.529592,19.73688 13.835016,19.015776 C13.859916,18.96495 13.8725034,18.9089768 13.8717911,18.852384 C13.87164,18.684528 13.738176,18.524352 13.553712,18.473928 L13.553784,18.473928 Z" fill="#000000"></path>
    </g>
</svg>