<?xml version="1.0" encoding="UTF-8"?>
<svg width="24px" height="24px" viewBox="0 0 24 24" version="1.1" xmlns="http://www.w3.org/2000/svg" xmlns:xlink="http://www.w3.org/1999/xlink">
    <title>icons/functional_UI/S-Z/mdpi/ic_Tv_channel_list</title>
    <g id="icons/functional_UI/S-Z/ic_Tv_channel_list" stroke="none" stroke-width="1" fill="none" fill-rule="evenodd">
        <path d="M1.79999996,4.79999997 L1.79999996,17.28 L5.39999997,17.28 L5.39999997,19.2 L18.6,19.2 L18.6,17.28 L22.2,17.28 L22.2,4.79999997 L1.79999996,4.79999997 Z M12,18.12 C11.602355,18.12 11.28,17.797645 11.28,17.4 C11.28,17.002355 11.602355,16.68 12,16.68 C12.397645,16.68 12.72,17.002355 12.72,17.4 C12.72,17.797645 12.397645,18.12 12,18.12 L12,18.12 Z M20.76,15.84 L3.23999996,15.84 L3.23999996,6.23999998 L20.76,6.23999998 L20.76,15.84 Z M17.4,8.39999999 C17.4,8.06862913 17.1313709,7.79999998 16.8,7.79999998 L9.59999999,7.79999998 C9.26862914,7.79999998 8.99999999,8.06862913 8.99999999,8.39999999 L8.99999999,8.39999999 C8.99999999,8.73137084 9.26862914,8.99999999 9.59999999,8.99999999 L16.8,8.99999999 C17.1313709,8.99999999 17.4,8.73137084 17.4,8.39999999 L17.4,8.39999999 Z M17.4,10.224 C17.4,9.89263199 17.131368,9.59999999 16.8,9.59999999 L9.59999999,9.59999999 C9.26862914,9.59999999 8.99999999,9.86862914 8.99999999,10.2 L8.99999999,10.2 C8.99999999,10.5313708 9.26862914,10.8 9.59999999,10.8 L16.8,10.8 C17.131368,10.8 17.4,10.555368 17.4,10.224 L17.4,10.224 Z M17.4,12 C17.4,11.6686291 17.1313709,11.4 16.8,11.4 L9.59999999,11.4 C9.26862914,11.4 8.99999999,11.6686291 8.99999999,12 L8.99999999,12 C8.99999999,12.3313709 9.26862914,12.6 9.59999999,12.6 L16.8,12.6 C17.1313709,12.6 17.4,12.3313709 17.4,12 L17.4,12 Z M17.4,13.8 C17.4,13.4686292 17.1313709,13.2 16.8,13.2 L9.59999999,13.2 C9.26862914,13.2 8.99999999,13.4686292 8.99999999,13.8 L8.99999999,13.8 C8.99999999,14.1313709 9.26862914,14.4 9.59999999,14.4 L16.8,14.4 C17.1313709,14.4 17.4,14.1313709 17.4,13.8 L17.4,13.8 Z M7.18799998,8.99999999 C7.51937083,8.99999999 7.78799998,8.73137084 7.78799998,8.39999999 C7.78799998,8.06862913 7.51937083,7.79999998 7.18799998,7.79999998 C6.85662913,7.79999998 6.58799998,8.06862913 6.58799998,8.39999999 C6.58799998,8.73137084 6.85662913,8.99999999 7.18799998,8.99999999 Z M7.18799998,10.8 C7.51937083,10.8 7.78799998,10.5313708 7.78799998,10.2 C7.78799998,9.86862914 7.51937083,9.59999999 7.18799998,9.59999999 C6.85662913,9.59999999 6.58799998,9.86862914 6.58799998,10.2 C6.58799998,10.5313708 6.85662913,10.8 7.18799998,10.8 Z M7.18799998,12.6 C7.51937083,12.6 7.78799998,12.3313709 7.78799998,12 C7.78799998,11.6686291 7.51937083,11.4 7.18799998,11.4 C6.85662913,11.4 6.58799998,11.6686291 6.58799998,12 C6.58799998,12.3313709 6.85662913,12.6 7.18799998,12.6 Z M7.18799998,14.4 C7.51937083,14.4 7.78799998,14.1313709 7.78799998,13.8 C7.78799998,13.4686292 7.51937083,13.2 7.18799998,13.2 C6.85662913,13.2 6.58799998,13.4686292 6.58799998,13.8 C6.58799998,14.1313709 6.85662913,14.4 7.18799998,14.4 Z" fill="#000000"></path>
    </g>
</svg>