<?xml version="1.0" encoding="UTF-8"?>
<svg width="24px" height="24px" viewBox="0 0 24 24" version="1.1" xmlns="http://www.w3.org/2000/svg" xmlns:xlink="http://www.w3.org/1999/xlink">
    <title>icons/functional_UI/S-Z/mdpi/ic_Tag_Advertising</title>
    <g id="icons/functional_UI/S-Z/ic_Tag_Advertising" stroke="none" stroke-width="1" fill="none" fill-rule="evenodd">
        <path d="M2.11199996,3.29968796 L2.11199996,11.613432 L11.714976,21.216768 C12.1604205,21.662226 12.7645809,21.9124827 13.394544,21.9124827 C14.0245071,21.9124827 14.6286675,21.662226 15.074112,21.216768 L21.216,15.074592 C22.1435936,14.1469428 22.1435936,12.6429852 21.216,11.715336 L11.613096,2.11199996 L3.29963996,2.11199996 C2.98465189,2.11199996 2.68256743,2.23714096 2.45984172,2.45987566 C2.23711602,2.68261037 2.11199996,2.98469989 2.11199996,3.29968796 Z M14.403,7.05088798 L14.819304,8.60467199 L16.37304,9.02099999 L15.956712,10.574784 L17.09412,11.71224 L15.956736,12.8496 L16.373064,14.403384 L14.819328,14.819712 L14.403024,16.373496 L12.849288,15.957168 L11.712,17.09472 L10.5744,15.957264 L9.02068799,16.373592 L8.60435999,14.819808 L7.05062398,14.40348 L7.46702398,12.8496 L6.32961598,11.71224 L7.46702398,10.574784 L7.05069598,9.02099999 L8.60443199,8.60467199 L9.02075999,7.05088798 L10.5744,7.46721598 L11.712,6.32978398 L12.849408,7.46721598 L14.403,7.05088798 Z M6.18839998,5.02384797 C6.18842398,5.49493227 5.90465743,5.91964046 5.46943601,6.09992559 C5.03421458,6.28021071 4.53324643,6.18056731 4.20013953,5.84746041 C3.86703263,5.51435351 3.76738923,5.01338536 3.94767436,4.57816393 C4.12795948,4.14294251 4.55266767,3.85919997 5.02375197,3.85919997 C5.66696221,3.85922647 6.18838421,4.38063774 6.18842398,5.02384797 L6.18839998,5.02384797 Z" fill="#000000"></path>
    </g>
</svg>