<?xml version="1.0" encoding="UTF-8"?>
<svg width="24px" height="24px" viewBox="0 0 24 24" version="1.1" xmlns="http://www.w3.org/2000/svg" xmlns:xlink="http://www.w3.org/1999/xlink">
    <title>icons/functional_UI/S-Z/mdpi/ic_Top_up_card_Euro</title>
    <g id="icons/functional_UI/S-Z/ic_Top_up_card_Euro" stroke="none" stroke-width="1" fill="none" fill-rule="evenodd">
        <path d="M7.79999997,2.99999996 L17.4,2.99999996 C17.3980625,2.33806249 16.8619375,1.80193752 16.2,1.79999996 L5.99999997,1.79999996 C5.3380625,1.80193752 4.80193753,2.33806249 4.79999997,2.99999996 L4.79999997,19.2 C4.80193753,19.8619375 5.3380625,20.3980625 5.99999997,20.4 L5.99999997,4.79999996 C6.00289977,3.80709103 6.80709104,3.00289975 7.79999997,2.99999996 Z M18,3.59999996 L7.79999998,3.59999996 C7.13806251,3.60193753 6.60193754,4.13806249 6.59999998,4.79999997 L6.59999998,21 C6.60193754,21.6619375 7.13806251,22.1980625 7.79999998,22.2 L18,22.2 C18.6619375,22.1980625 19.1980625,21.6619375 19.2,21 L19.2,4.79999997 C19.1980625,4.13806249 18.6619375,3.60193753 18,3.59999996 Z M18,17.4 L9.59999999,4.79999997 L18,4.79999997 L18,17.4 Z M16.841304,9.55283999 C16.585848,10.14456 16.14288,10.416 15.405264,10.416 C14.93388,10.416 14.546736,10.288488 14.254536,10.007664 C13.9836,9.74728799 13.809432,9.41517599 13.728768,9.01759199 L13.49376,9.01759199 C13.31796,9.01759199 13.2,8.89737599 13.2,8.72719199 C13.2,8.55439199 13.315344,8.41401599 13.49376,8.41401599 L13.6848,8.41401599 C13.684104,8.34775198 13.6848,8.27001598 13.6848,8.23737598 C13.6848,8.18937598 13.68228,8.17852798 13.6848,8.09015998 L13.49376,8.09015998 C13.31796,8.09015998 13.2,7.94767198 13.2,7.77739198 C13.2,7.60711198 13.31796,7.44249598 13.49376,7.44249598 L13.758144,7.44249598 C13.850016,7.02280798 14.024928,6.65769598 14.295888,6.40175998 C14.58648,6.12703198 14.970168,5.99999997 15.405264,5.99999997 C16.117824,5.99999997 16.580808,6.28399198 16.820784,6.86515198 C16.844973,6.91551203 16.8571092,6.97081078 16.856232,7.02667198 C16.856232,7.16054398 16.778928,7.28131198 16.636992,7.33951198 L16.636992,7.33951198 C16.59636,7.36159198 16.527168,7.36895998 16.475424,7.36895998 C16.338216,7.36895998 16.228704,7.26887998 16.173288,7.13731198 C16.020432,6.77438398 15.819336,6.63705598 15.405288,6.63705598 C14.926272,6.63705598 14.586456,6.89035198 14.433816,7.44256798 L15.94668,7.44256798 C16.125096,7.44256798 16.24044,7.59703198 16.24044,7.76639998 C16.24044,7.93991998 16.122504,8.09023198 15.94668,8.09023198 L14.345664,8.09023198 C14.343072,8.17859998 14.345664,8.18591998 14.345664,8.23744798 C14.345664,8.26864798 14.344848,8.34784798 14.345664,8.41408799 L15.682272,8.41408799 C15.863376,8.41408799 15.961344,8.54788799 15.961344,8.72320799 C15.961344,8.89077599 15.855408,9.01759199 15.682272,9.01759199 L14.404416,9.01759199 C14.541672,9.54770399 14.89776,9.77507999 15.405216,9.77507999 C15.843552,9.77507999 16.035864,9.63602399 16.167504,9.31223999 L16.16796,9.31101599 L16.168488,9.30983999 C16.23144,9.16567199 16.344504,9.08630399 16.486752,9.08630399 C16.527265,9.08686754 16.5674734,9.09340182 16.60608,9.10569599 C16.760376,9.14711999 16.8720235,9.27988799 16.8720235,9.41759999 C16.87259,9.46447135 16.8620709,9.51081608 16.841304,9.55283999 L16.841304,9.55283999 Z" fill="#000000"></path>
    </g>
</svg>