<svg width="24" height="24"><path fill-rule="evenodd" d="M14.632 5h4.736c.35 0 .632.283.632.632v.736a.632.632 0 0 1-.632.632h-4.736A.632.632 0 0 1 14 6.368v-.736c0-.35.283-.632.632-.632Zm0 12h4.736c.35 0 .632.283.632.632v.736a.632.632 0 0 1-.632.632h-4.736a.632.632 0 0 1-.632-.632v-.736c0-.35.283-.632.632-.632Zm0-8h4.736c.35 0 .632.283.632.632v.736a.632.632 0 0 1-.632.632h-4.736a.632.632 0 0 1-.632-.632v-.736c0-.35.283-.632.632-.632Zm0 4h4.736c.35 0 .632.283.632.632v.736a.632.632 0 0 1-.632.632h-4.736a.632.632 0 0 1-.632-.632v-.736c0-.35.283-.632.632-.632Zm-4-9h.736c.35 0 .632.283.632.632v14.736a.632.632 0 0 1-.632.632h-.736a.632.632 0 0 1-.632-.632V4.632c0-.35.283-.632.632-.632Zm-3.913 8-2.54 2.117a.5.5 0 0 0 .641.768l3-2.5a.5.5 0 0 0 0-.769l-3-2.5a.5.5 0 0 0-.64.768L6.719 12Z"/></svg>