<svg xmlns="http://www.w3.org/2000/svg" width="24" height="24"><path fill-rule="evenodd" d="M19.369 6a.632.632 0 0 1 .631.632V9.43a.632.632 0 0 1-.631.631h-.36a.632.632 0 0 1-.632-.631V7.624H14.32v9.75h1.803a.632.632 0 0 1 .631.632v.362a.631.631 0 0 1-.631.632h-5.228a.632.632 0 0 1-.631-.632v-.362a.632.632 0 0 1 .631-.631h1.802v-9.75H8.622V9.46a.632.632 0 0 1-.631.631h-.36A.632.632 0 0 1 7 9.46v-2.8c0-.13.04-.251.107-.352A.632.632 0 0 1 7.65 6h11.72Zm-9.744 7c.125 0 .235.06.303.153l.03.05a.373.373 0 0 1 .042.172V14.5a.375.375 0 0 1-.749 0v-.751H7.378v4.5h.75a.375.375 0 1 1 0 .75H5.88a.375.375 0 1 1 0-.75h.748v-4.5h-1.88v.764a.374.374 0 1 1-.75 0v-1.126c0-.082.027-.16.077-.225A.373.373 0 0 1 4.384 13h5.242Z"/></svg>