<?xml version="1.0" encoding="UTF-8"?>
<svg width="24px" height="24px" viewBox="0 0 24 24" version="1.1" xmlns="http://www.w3.org/2000/svg" xmlns:xlink="http://www.w3.org/1999/xlink">
    <title>icons/functional_UI/S-Z/mdpi/ic_Top_up_Dollar</title>
    <g id="icons/functional_UI/S-Z/ic_Top_up_Dollar" stroke="none" stroke-width="1" fill="none" fill-rule="evenodd">
        <path d="M21.30012,10.2 L16.80012,10.2 L16.80012,17.4 C16.80012,20.050968 14.651088,22.2 12.00012,22.2 C9.34915199,22.2 7.20011996,20.050968 7.20011996,17.4 L7.20011996,10.2 L2.70011996,10.2 L10.50012,2.42990396 L10.50012,2.43052796 C10.8950348,2.02726267 11.4356905,1.79999526 12.00012,1.79999526 C12.5645495,1.79999526 13.1052052,2.02726267 13.50012,2.43052796 L13.50012,2.42990396 L21.30012,10.2 Z M15.6,17.400216 C15.6,19.3884411 13.9882251,21.000216 12,21.000216 C10.0117749,21.000216 8.39999999,19.3884411 8.39999999,17.400216 C8.39999999,15.4119909 10.0117749,13.800216 12,13.800216 C13.9882251,13.800216 15.6,15.4119909 15.6,17.400216 L15.6,17.400216 Z M12.22344,14.372616 L12.22344,14.743752 C12.468512,14.768888 12.67872,14.819288 12.854064,14.894952 C13.0316335,14.9721792 13.1886919,15.0898457 13.312704,15.23856 C13.4098189,15.3462732 13.4903283,15.4678664 13.551576,15.599328 C13.6035121,15.7054886 13.6322376,15.821495 13.63584,15.939624 C13.6368071,16.0517632 13.5913708,16.1593129 13.510296,16.236792 C13.4306103,16.3188224 13.3205372,16.3642294 13.206192,16.36224 C12.981632,16.36224 12.836152,16.240808 12.769752,15.997944 C12.694152,15.711544 12.512048,15.521424 12.22344,15.427584 L12.22344,16.85712 C12.507408,16.93488 12.733664,17.005904 12.902208,17.070192 C13.069085,17.1334883 13.2223891,17.2279696 13.353936,17.348592 C13.495165,17.4733291 13.6072006,17.627629 13.682088,17.800536 C13.7602273,17.9822355 13.7994687,18.1782791 13.797288,18.376056 C13.7985295,18.632148 13.7353172,18.8844362 13.613472,19.109688 C13.487125,19.3415371 13.2999685,19.5345599 13.072128,19.668 C12.833888,19.812288 12.550968,19.898208 12.223368,19.92576 L12.223368,20.347776 C12.223368,20.482928 12.210216,20.581488 12.183912,20.643456 C12.157512,20.705208 12.099696,20.736072 12.010224,20.736072 C11.927808,20.736072 11.869944,20.710728 11.836848,20.660472 C11.803752,20.610216 11.786952,20.532168 11.786952,20.426808 L11.786952,19.932744 C11.518872,19.90284 11.28464,19.839824 11.084256,19.743696 C10.8960903,19.6562605 10.7259088,19.5344523 10.582464,19.384536 C10.4572901,19.2547585 10.3566217,19.1034103 10.28532,18.9378 C10.2233769,18.7938931 10.1906471,18.6391118 10.189032,18.482448 C10.1900513,18.3700393 10.2365648,18.2628384 10.31796,18.185304 C10.4016288,18.0979074 10.5182468,18.0498052 10.6392,18.0528 C10.7315723,18.0497621 10.8226739,18.0749718 10.900344,18.125064 C10.9716525,18.173446 11.0238974,18.2451395 11.048112,18.32784 C11.0942937,18.4742917 11.1481931,18.6181969 11.209584,18.758952 C11.2590846,18.8635079 11.3299045,18.9565557 11.417496,19.03212 C11.510296,19.114712 11.63344,19.177712 11.786928,19.22112 L11.786928,17.623368 C11.48,17.538696 11.223432,17.444216 11.017224,17.339928 C10.8138414,17.238144 10.6407994,17.0846682 10.515456,16.894896 C10.387152,16.702496 10.323008,16.455088 10.323024,16.152672 C10.323024,15.75864 10.44848,15.435616 10.699392,15.1836 C10.950304,14.931584 11.312816,14.784968 11.786928,14.743752 L11.786928,14.379504 C11.786928,14.187072 11.859104,14.090832 12.003456,14.090832 C12.149984,14.090832 12.22328,14.18476 12.223344,14.372616 L12.22344,14.372616 Z M11.786928,16.729992 L11.786928,15.41376 C11.594464,15.471136 11.444408,15.54676 11.33676,15.640632 C11.229112,15.734504 11.175256,15.876536 11.175192,16.066728 C11.175192,16.247768 11.225592,16.384664 11.326392,16.477416 C11.427192,16.570168 11.580704,16.65436 11.786928,16.729992 L11.786928,16.729992 Z M12.223368,17.7504 L12.223368,19.25568 C12.454728,19.20984 12.633432,19.11704 12.75948,18.97728 C12.8826478,18.8447988 12.9503108,18.6701223 12.948528,18.48924 C12.948528,18.290008 12.887208,18.135992 12.764568,18.027192 C12.641928,17.918392 12.461528,17.826128 12.223368,17.7504 L12.223368,17.7504 Z" fill="#000000"></path>
    </g>
</svg>