<?xml version="1.0" encoding="UTF-8"?>
<svg width="24px" height="24px" viewBox="0 0 24 24" version="1.1" xmlns="http://www.w3.org/2000/svg" xmlns:xlink="http://www.w3.org/1999/xlink">
    <title>icons/functional_UI/S-Z/mdpi/ic_Temperature</title>
    <g id="icons/functional_UI/S-Z/ic_Temperature" stroke="none" stroke-width="1" fill="none" fill-rule="evenodd">
        <path d="M12,22.2 C10.3091045,22.2 8.78305568,21.186154 8.12798284,19.627306 C7.47291001,18.068458 7.81659153,16.2687869 8.99999999,15.061032 L8.99999999,4.79999996 C8.99999999,3.14314571 10.3431457,1.79999996 12,1.79999996 C13.6568543,1.79999996 15,3.14314571 15,4.79999996 L15,15.061032 C16.1834085,16.2687869 16.52709,18.068458 15.8720172,19.627306 C15.2169443,21.186154 13.6908955,22.2 12,22.2 L12,22.2 Z M13.8,15.599856 L13.8,4.79999997 C13.8,3.80588742 12.9941126,2.99999996 12,2.99999996 C11.0058874,2.99999996 10.2,3.80588742 10.2,4.79999997 L10.2,5.39999997 L11.1,5.39999997 C11.2656854,5.39999997 11.4,5.53431455 11.4,5.69999997 C11.4,5.8656854 11.2656854,5.99999996 11.1,5.99999996 L10.2,5.99999996 L10.2,6.59999998 L11.1,6.59999998 C11.2656854,6.59999998 11.4,6.73431455 11.4,6.89999998 C11.4,7.0656854 11.2656854,7.19999998 11.1,7.19999998 L10.2,7.19999998 L10.2,7.79999998 L11.1,7.79999998 C11.2656854,7.79999998 11.4,7.93431456 11.4,8.09999998 C11.4,8.26568541 11.2656854,8.39999999 11.1,8.39999999 L10.2,8.39999999 L10.2,15.599856 C9.16696701,16.3746308 8.74560795,17.7235129 9.15395009,18.9485393 C9.56229223,20.1735657 10.7087088,20.999856 12,20.999856 C13.2912912,20.999856 14.4377078,20.1735657 14.8460499,18.9485393 C15.254392,17.7235129 14.833033,16.3746308 13.8,15.599856 L13.8,15.599856 Z M12,19.8000001 C11.1877698,19.8001355 10.4760723,19.256295 10.2628371,18.4725548 C10.049602,17.6888147 10.3876626,16.8593625 11.088,16.447968 L11.088,10.512 C11.088,10.0083163 11.4963163,9.59999999 12,9.59999999 C12.5036837,9.59999999 12.912,10.0083163 12.912,10.512 L12.912,16.447968 C13.6123374,16.8593625 13.950398,17.6888147 13.7371629,18.4725548 C13.5239277,19.256295 12.8122302,19.8001355 12,19.8000001 Z" fill="#000000"></path>
    </g>
</svg>