<svg width="24" height="24"><path fill-rule="evenodd" d="M13.157 4.374A1.883 1.883 0 0 0 12 4a1.868 1.868 0 0 0-1.157.377 2.18 2.18 0 0 0-.733.993l-3.008 7.89c-.068.18-.102.435-.102.767a.983.983 0 0 0 .494.722c.29.17.622.257.959.251.525 0 .905-.42 1.139-1.262l.265-.925h4.285l.348 1.183c.077.262.216.502.404.7.19.203.407.304.649.304.37 0 .695-.085.977-.253a.94.94 0 0 0 .48-.72c0-.325-.034-.58-.102-.767L13.89 5.37a2.15 2.15 0 0 0-.733-.996Zm-2.5 6.254 1.36-4.048 1.354 4.048h-2.714ZM4.631 17h14.737c.349 0 .632.283.632.632v.737a.631.631 0 0 1-.632.631H4.631A.632.632 0 0 1 4 18.37v-.737c0-.349.283-.632.631-.632Z" clip-rule="evenodd"/></svg>