<?xml version="1.0" encoding="UTF-8"?>
<svg width="24px" height="24px" viewBox="0 0 24 24" version="1.1" xmlns="http://www.w3.org/2000/svg" xmlns:xlink="http://www.w3.org/1999/xlink">
    <title>icons/functional_UI/S-Z/mdpi/ic_Tick_confirmation</title>
    <g id="icons/functional_UI/S-Z/ic_Tick_confirmation" stroke="none" stroke-width="1" fill="none" fill-rule="evenodd">
        <path d="M12,1.79999996 C6.36669598,1.79999996 1.79999996,6.36669598 1.79999996,12 C1.79999996,17.633304 6.36669598,22.2 12,22.2 C17.633304,22.2 22.2,17.633304 22.2,12 C22.2,6.36669598 17.633304,1.79999996 12,1.79999996 Z M17.329224,8.15971198 L11.217816,15.839712 L11.217648,15.839568 C11.0372151,16.067233 10.762643,16.1999719 10.472148,16.1999719 C10.181653,16.1999719 9.90708085,16.067233 9.72664799,15.839568 L9.72650399,15.839688 L6.67079998,11.999688 L6.67094398,11.999544 C6.36686887,11.6172205 6.3970681,11.0678278 6.74121598,10.721136 L7.12317598,10.337136 C7.47508617,9.98235543 8.0415922,9.9605748 8.41970399,10.287288 L8.41984799,10.287096 L10.281168,12.36 L15.93048,6.85963198 L15.930624,6.85982398 C16.2083799,6.59788797 16.6155897,6.52685797 16.9656238,6.67928798 C17.315658,6.83171798 17.5410422,7.17822487 17.5385016,7.55999998 C17.5388022,7.77783488 17.4649408,7.98928691 17.329056,8.15954398 L17.329224,8.15971198 Z" fill="#000000"></path>
    </g>
</svg>