<?xml version="1.0" encoding="UTF-8"?>
<svg width="24px" height="24px" viewBox="0 0 24 24" version="1.1" xmlns="http://www.w3.org/2000/svg" xmlns:xlink="http://www.w3.org/1999/xlink">
    <title>icons/functional_UI/S-Z/mdpi/ic_USB_hard_drive</title>
    <g id="icons/functional_UI/S-Z/ic_USB_hard_drive" stroke="none" stroke-width="1" fill="none" fill-rule="evenodd">
        <path d="M7.19966398,1.79999996 C5.87421597,1.79999996 4.77599997,2.88633596 4.77599997,4.21175997 L4.77599997,22.2000065 L16.812,22.2000065 C17.4463726,22.2014807 18.0551405,21.9499022 18.5033954,21.5010166 C18.9516503,21.052131 19.2023726,20.4430099 19.2000167,19.80864 L19.2000167,1.79999996 L7.19966398,1.79999996 Z M9.60832799,8.62399199 C9.92488983,8.62250844 10.2289101,8.74762901 10.452724,8.97150604 C10.6765379,9.19538308 10.8015728,9.49943858 10.8,9.81599999 C10.8,10.36188 10.554864,10.822464 10.056,10.968 L10.054536,10.97712 C10.11432,11.352096 10.481496,11.665296 10.481496,11.665296 L11.712,12.812544 L11.712,6.59999998 L10.803,6.59999998 L12.048,4.19999997 L13.227,6.59999998 L12.408,6.59999998 L12.408,11.850408 L13.58928,10.74276 C13.58928,10.74276 13.863264,10.512 13.96668,10.2 L13.2,10.2 L13.2,8.13599998 L15.312,8.13599998 L15.312,10.2 L14.585304,10.2 C14.562576,10.368 14.471832,10.669896 14.154792,10.99716 C13.82544,11.337192 12.626904,12.4344 12.626904,12.4344 C12.626904,12.4344 12.432,12.581136 12.408,12.97884 L12.408,13.83456 C13.0717366,14.0046856 13.5359328,14.6028073 13.536,15.288 C13.536,16.116432 12.876432,16.8 12.048,16.8 C11.219568,16.8 10.536,16.116432 10.536,15.288 C10.5361365,14.5935831 11.0128083,13.9900093 11.688288,13.828944 C11.638128,13.512984 11.472456,13.416552 11.472456,13.416552 C11.472456,13.416552 10.230744,12.280584 9.88977599,11.928552 C9.50059199,11.526648 9.43943999,11.178624 9.43643999,11.01156 C8.84332455,10.9233015 8.40322676,10.4156374 8.39999998,9.81599999 C8.39999998,9.15326399 8.94556799,8.62399199 9.60832799,8.62399199 Z M17.7,21 C17.5343146,21 17.4,20.8656855 17.4,20.7 C17.4,20.5343146 17.5343146,20.4 17.7,20.4 C17.8656854,20.4 18,20.5343146 18,20.7 C18,20.8656855 17.8656854,21 17.7,21 Z M18,19.8 L5.99999997,19.8 L5.99999997,19.2 L18,19.2 L18,19.8 Z" fill="#000000"></path>
    </g>
</svg>