<?xml version="1.0" encoding="UTF-8"?>
<svg width="24px" height="24px" viewBox="0 0 24 24" version="1.1" xmlns="http://www.w3.org/2000/svg" xmlns:xlink="http://www.w3.org/1999/xlink">
    <title>icons/functional_UI/S-Z/mdpi/ic_USB</title>
    <g id="icons/functional_UI/S-Z/ic_USB" stroke="none" stroke-width="1" fill="none" fill-rule="evenodd">
        <path d="M12,1.79999996 C6.36669598,1.79999996 1.79999996,6.36669598 1.79999996,12 C1.79999996,17.633304 6.36669598,22.2 12,22.2 C17.633304,22.2 22.2,17.633304 22.2,12 C22.2,6.36669598 17.633304,1.79999996 12,1.79999996 Z M17.4,11.4 L16.37868,11.4 C16.358376,11.895048 16.077528,12.362952 15.61848,12.660696 L12.804696,14.485848 C12.598368,14.619696 12.48,14.807088 12.48,15 L12.48,16.2552 C13.5180977,16.4989318 14.208736,17.4819656 14.0860555,18.5412113 C13.963375,19.6004571 13.0663264,20.399607 12,20.399607 C10.9336736,20.399607 10.036625,19.6004571 9.91394454,18.5412113 C9.79126403,17.4819656 10.4819023,16.4989318 11.52,16.2552 L11.52,16.2 C11.52,16.013736 11.39136,15.829416 11.167056,15.69432 L8.13681598,13.869168 C7.62535198,13.561104 7.31999998,13.065096 7.31999998,12.5424 L7.31999998,12.534768 C6.45209713,12.2946316 5.89519931,11.4500675 6.01636944,10.5577455 C6.13753957,9.66542344 6.89948855,8.99994811 7.79999998,8.99994811 C8.70051142,8.99994811 9.4624604,9.66542344 9.58363053,10.5577455 C9.70480066,11.4500675 9.14790284,12.2946316 8.27999998,12.534768 L8.27999998,12.5424 C8.27999998,12.72816 8.40835199,12.912 8.63215199,13.046832 L11.52,14.786208 L11.52,7.19999998 L9.59999999,7.19999998 L12,3.59999996 L14.4,7.19999998 L12.48,7.19999998 L12.48,13.5522 L15.096,11.8554 C15.281256,11.735232 15.395088,11.571816 15.416112,11.400096 L14.4,11.400096 L14.4,8.39999998 L17.4,8.39999998 L17.4,11.4 Z" fill="#000000"></path>
    </g>
</svg>