<svg width="24" height="24">
<path fill-rule="evenodd" clip-rule="evenodd" d="M20.8889 12C20.8889 16.9092 16.9092 20.8889 12 20.8889C7.0908 20.8889 3.11111 16.9092 3.11111 12C3.11111 7.0908 7.0908 3.11111 12 3.11111C16.9092 3.11111 20.8889 7.0908 20.8889 12ZM22 12C22 17.5228 17.5228 22 12 22C6.47715 22 2 17.5228 2 12C2 6.47715 6.47715 2 12 2C17.5228 2 22 6.47715 22 12ZM19.7778 12C18.3938 9.27682 14.9865 7.55556 12.0175 7.55556C9.04818 7.55556 5.60816 9.27229 4.22222 12C5.61735 14.7458 9.00378 16.4106 11.9825 16.4444C14.9605 16.4107 18.3807 14.7497 19.7778 12ZM8.86509 12C8.86509 10.2329 10.2581 8.8 11.9767 8.8C13.2031 8.8 14.2632 9.52981 14.7697 10.5901L11.1026 15.0722C9.80974 14.6839 8.86509 13.4557 8.86509 12ZM5.43909 12.0006C6.12176 11.0212 7.35073 10.0157 8.70292 9.37837C8.13238 10.1335 7.82424 11.0593 7.82666 12.0112C7.82909 12.9631 8.14195 13.8873 8.71634 14.6394C7.43906 14.0406 6.27058 13.154 5.43909 12.0006ZM13.1111 12C13.1111 12.6136 12.6136 13.1111 12 13.1111C11.3864 13.1111 10.8889 12.6136 10.8889 12C10.8889 11.3864 11.3864 10.8889 12 10.8889C12.6136 10.8889 13.1111 11.3864 13.1111 12Z"/>
</svg>
