<?xml version="1.0" encoding="UTF-8"?>
<svg width="24px" height="24px" viewBox="0 0 24 24" version="1.1" xmlns="http://www.w3.org/2000/svg" xmlns:xlink="http://www.w3.org/1999/xlink">
    <title>icons/functional_UI/S-Z/mdpi/ic_Video_Live</title>
    <g id="icons/functional_UI/S-Z/ic_Video_Live" stroke="none" stroke-width="1" fill="none" fill-rule="evenodd">
        <path d="M21.356568,6.73463998 L18.910344,8.99543999 L18,9.83683199 L18,5.99999997 C18,5.33725827 17.4627417,4.79999997 16.8,4.79999997 L2.99999996,4.79999997 C2.33725826,4.79999997 1.79999996,5.33725827 1.79999996,5.99999997 L1.79999996,18 C1.79999996,18.6627417 2.33725826,19.2 2.99999996,19.2 L16.8,19.2 C17.4627417,19.2 18,18.6627417 18,18 L18,14.234856 L18.910344,15.0762 L21.356472,17.265336 C21.66684,17.55216 22.2,17.350416 22.2,16.94616 L22.2,7.05379198 C22.2,6.64955998 21.666888,6.44783998 21.356568,6.73463998 Z M6.32207998,14.4 L2.87147996,14.4 L2.87147996,9.52130399 L3.94427997,9.52130399 L3.94427997,13.498104 L6.32207998,13.498104 L6.32207998,14.4 Z M7.99605598,14.4 L6.92325598,14.4 L6.92325598,9.52130399 L7.99605598,9.52130399 L7.99605598,14.4 Z M11.20752,14.4 L9.99808799,14.4 L8.41967999,9.52130399 L9.51979199,9.52130399 L10.606224,12.951432 L10.62,12.951432 L11.720112,9.52130399 L12.82704,9.52130399 L11.20752,14.4 Z M16.947072,14.4 L13.243632,14.4 L13.243632,9.52130399 L16.892424,9.52130399 L16.892424,10.4232 L14.316408,10.4232 L14.316408,11.46864 L16.680576,11.46864 L16.680576,12.3024 L14.316408,12.3024 L14.316408,13.498152 L16.947072,13.498152 L16.947072,14.4 Z" fill="#000000"></path>
    </g>
</svg>