<svg width="24" height="24">
<path fill-rule="evenodd" clip-rule="evenodd" d="M20 12C20 16.4183 16.4183 20 12 20C7.58172 20 4 16.4183 4 12C4 7.58172 7.58172 4 12 4C16.4183 4 20 7.58172 20 12ZM21 12C21 16.9706 16.9706 21 12 21C7.02944 21 3 16.9706 3 12C3 7.02944 7.02944 3 12 3C16.9706 3 21 7.02944 21 12ZM19 12C17.7544 9.54914 14.6878 8 12.0158 8C9.34336 8 6.24734 9.54506 5 12C6.25561 14.4712 9.30341 15.9696 11.9842 16C14.6644 15.9696 17.7426 14.4747 19 12ZM9.17858 12C9.17858 10.4096 10.4323 9.12 11.979 9.12C13.0828 9.12 14.0369 9.77682 14.4928 10.7311L11.1923 14.7649C10.0288 14.4155 9.17858 13.3101 9.17858 12ZM6.09518 12.0005C6.70958 11.1191 7.81566 10.2141 9.03263 9.64053C8.51914 10.3201 8.24181 11.1534 8.244 12.0101C8.24618 12.8668 8.52776 13.6986 9.0447 14.3755C7.89515 13.8365 6.84353 13.0386 6.09518 12.0005ZM13 12C13 12.5523 12.5523 13 12 13C11.4477 13 11 12.5523 11 12C11 11.4477 11.4477 11 12 11C12.5523 11 13 11.4477 13 12Z" fill="black"/>
</svg>
