<svg width="24" height="24"><path fill-rule="evenodd" d="M12 20.889A8.889 8.889 0 1 0 12 3.11a8.889 8.889 0 0 0 0 17.778M12 22c5.523 0 10-4.477 10-10S17.523 2 12 2 2 6.477 2 12s4.477 10 10 10m8-10c-1.424-2.723-4.928-4.444-7.982-4.444S5.426 9.272 4 12c1.435 2.746 4.918 4.41 7.982 4.444C15.045 16.411 18.563 14.75 20 12M8.776 12a3.2 3.2 0 0 1 6.073-1.41l-.366.435a2.668 2.668 0 1 0-3.02 3.588l-.386.46A3.2 3.2 0 0 1 8.776 12m-3.524 0c.702-.979 1.966-1.984 3.357-2.622a4.27 4.27 0 0 0-.902 2.633c.003.952.325 1.876.916 2.628-1.314-.598-2.516-1.485-3.371-2.638" clip-rule="evenodd"/></svg>