<svg width="24" height="24">
<path fill-rule="evenodd" clip-rule="evenodd" d="M12.0203 7C15.4558 7 19.3985 8.93642 21 12C19.3834 15.0934 15.4257 16.962 11.9797 17C8.53295 16.962 4.61436 15.089 3 12C4.60372 8.93133 8.58432 7 12.0203 7ZM11.973 8.4C9.9844 8.4 8.37246 10.012 8.37246 12C8.37246 13.6376 9.46556 15.0194 10.9616 15.4562L11.3965 14.9393C10.0289 14.66 9 13.4502 9 12C9 10.3431 10.3431 9 12 9C13.2697 9 14.3552 9.78884 14.7932 10.9032L15.205 10.4138C14.6189 9.22103 13.3922 8.4 11.973 8.4ZM8.1848 9.05067C6.62013 9.76765 5.19804 10.8989 4.40809 12.0007C5.37025 13.2982 6.72234 14.2956 8.20033 14.9693C7.53569 14.1232 7.17366 13.0835 7.17085 12.0126C7.16805 10.9417 7.52461 9.90015 8.1848 9.05067Z"/>
</svg>
