<?xml version="1.0" encoding="UTF-8"?>
<svg width="24px" height="24px" viewBox="0 0 24 24" version="1.1" xmlns="http://www.w3.org/2000/svg" xmlns:xlink="http://www.w3.org/1999/xlink">
    <title>icons/functional_UI/S-Z/mdpi/ic_Video</title>
    <g id="icons/functional_UI/S-Z/ic_Video" stroke="none" stroke-width="1" fill="none" fill-rule="evenodd">
        <path d="M19.8,3.59999996 L2.39999996,3.59999996 L2.39999996,18.6 C2.39999996,19.5941126 3.20588741,20.4 4.19999997,20.4 L21.6,20.4 L21.6,5.39999997 C21.6,4.40588742 20.7941126,3.59999996 19.8,3.59999996 Z M15.6,4.79999997 L17.4,4.79999997 L17.4,6.59999998 L15.6,6.59999998 L15.6,4.79999997 Z M12.6,4.79999997 L14.4,4.79999997 L14.4,6.59999998 L12.6,6.59999998 L12.6,4.79999997 Z M6.59999998,4.79999997 L8.39999998,4.79999997 L8.39999998,6.59999998 L6.59999998,6.59999998 L6.59999998,4.79999997 Z M3.59999996,4.79999997 L5.39999997,4.79999997 L5.39999997,6.59999998 L3.59999996,6.59999998 L3.59999996,4.79999997 Z M5.39999997,19.2 L3.59999996,19.2 L3.59999996,17.4 L5.39999997,17.4 L5.39999997,19.2 Z M8.39999998,19.2 L6.59999998,19.2 L6.59999998,17.4 L8.39999998,17.4 L8.39999998,19.2 Z M11.4,19.2 L9.59999999,19.2 L9.59999999,17.4 L11.4,17.4 L11.4,19.2 Z M11.4,15.6 C11.3990378,15.9309715 11.1309715,16.1990378 10.8,16.2 L4.19999997,16.2 C3.8690285,16.1990378 3.60096219,15.9309715 3.59999996,15.6 L3.59999996,8.39999999 C3.60096219,8.06902852 3.8690285,7.80096221 4.19999997,7.79999998 L10.8,7.79999998 C11.1309715,7.80096221 11.3990378,8.06902852 11.4,8.39999999 L11.4,15.6 L11.4,15.6 Z M11.4,6.59999998 L9.59999999,6.59999998 L9.59999999,4.79999997 L11.4,4.79999997 L11.4,6.59999998 Z M14.4,19.2 L12.6,19.2 L12.6,17.4 L14.4,17.4 L14.4,19.2 Z M17.4,19.2 L15.6,19.2 L15.6,17.4 L17.4,17.4 L17.4,19.2 Z M20.4,19.2 L18.6,19.2 L18.6,17.4 L20.4,17.4 L20.4,19.2 Z M20.4,15.6 C20.3990378,15.9309715 20.1309715,16.1990378 19.8,16.2 L13.2,16.2 C12.8690285,16.1990378 12.6009622,15.9309715 12.6,15.6 L12.6,8.39999999 C12.6009622,8.06902852 12.8690285,7.80096221 13.2,7.79999998 L19.8,7.79999998 C20.1309715,7.80096221 20.3990378,8.06902852 20.4,8.39999999 L20.4,15.6 L20.4,15.6 Z M20.4,6.59999998 L18.6,6.59999998 L18.6,4.79999997 L20.4,4.79999997 L20.4,6.59999998 Z" fill="#000000"></path>
    </g>
</svg>