<svg width="24" height="24">
<path fill-rule="evenodd" clip-rule="evenodd" d="M12 20.8889C16.9092 20.8889 20.8889 16.9092 20.8889 12C20.8889 7.0908 16.9092 3.11111 12 3.11111C7.0908 3.11111 3.11111 7.0908 3.11111 12C3.11111 16.9092 7.0908 20.8889 12 20.8889ZM12 22C17.5228 22 22 17.5228 22 12C22 6.47715 17.5228 2 12 2C6.47715 2 2 6.47715 2 12C2 17.5228 6.47715 22 12 22ZM20 12C18.5764 9.27681 15.0718 7.55554 12.018 7.55554C8.96384 7.55554 5.42553 9.27228 4 12C5.43498 14.7458 8.91818 16.4106 11.982 16.4444C15.045 16.4106 18.563 14.7496 20 12ZM8.77552 12C8.77552 10.2329 10.2084 8.79999 11.976 8.79999C13.2375 8.79999 14.3279 9.52979 14.8489 10.5901L14.4828 11.0251C14.0935 10.0345 13.1286 9.33332 12 9.33332C10.5272 9.33332 9.33329 10.5272 9.33329 12C9.33329 13.289 10.2479 14.3644 11.4636 14.6127L11.0769 15.0721C9.74716 14.6839 8.77552 13.4557 8.77552 12ZM5.25163 12.0006C5.95381 11.0212 7.2179 10.0157 8.60871 9.37836C8.02188 10.1335 7.70493 11.0593 7.70743 12.0112C7.70992 12.9631 8.03172 13.8873 8.62252 14.6394C7.30874 14.0405 6.10689 13.154 5.25163 12.0006Z"/>
</svg>
