<?xml version="1.0" encoding="UTF-8"?>
<svg width="24px" height="24px" viewBox="0 0 24 24" version="1.1" xmlns="http://www.w3.org/2000/svg" xmlns:xlink="http://www.w3.org/1999/xlink">
    <title>icons/functional_UI/S-Z/mdpi/ic_Video_Record</title>
    <g id="icons/functional_UI/S-Z/ic_Video_Record" stroke="none" stroke-width="1" fill="none" fill-rule="evenodd">
        <path d="M5.91295197,10.515504 C5.78997597,10.408512 5.60548797,10.354984 5.35948797,10.35492 L4.18423197,10.35492 L4.18423197,11.728344 L5.35948797,11.728344 C5.60548797,11.728344 5.78997597,11.67368 5.91295197,11.564352 C6.03592798,11.455024 6.09743198,11.277368 6.09746398,11.031384 C6.09746398,10.794584 6.03595998,10.622624 5.91295197,10.515504 Z M21.356568,6.73463998 L18.910344,8.99543999 L18,9.83683199 L18,5.99999997 C18,5.33725827 17.4627417,4.79999997 16.8,4.79999997 L2.99999996,4.79999997 C2.33725826,4.79999997 1.79999996,5.33725827 1.79999996,5.99999997 L1.79999996,18 C1.79999996,18.6627417 2.33725826,19.2 2.99999996,19.2 L16.8,19.2 C17.4627417,19.2 18,18.6627417 18,18 L18,14.234856 L18.910344,15.0762 L21.356472,17.265336 C21.66684,17.55216 22.2,17.350416 22.2,16.94616 L22.2,7.05379198 C22.2,6.64955998 21.666888,6.44783998 21.356568,6.73463998 Z M6.24093598,14.4 C6.17700853,14.2220211 6.140158,14.0354547 6.13161598,13.846536 C6.11795198,13.632488 6.09745598,13.427496 6.07012798,13.23156 C6.03359998,12.976536 5.95615997,12.789776 5.83780797,12.67128 C5.71945597,12.552784 5.52585597,12.493584 5.25700797,12.49368 L4.18420797,12.49368 L4.18420797,14.4 L3.11140796,14.4 L3.11140796,9.52130399 L5.74214397,9.52130399 C5.94413695,9.51828022 6.14481751,9.55424089 6.33319198,9.62721599 C6.50126912,9.69317886 6.65455901,9.79189135 6.78415198,9.91761599 C6.90812817,10.0387488 7.00582235,10.1841218 7.07114398,10.344672 C7.13799077,10.5107691 7.17164868,10.6883537 7.17021598,10.867392 C7.17021598,11.154384 7.10986398,11.402648 6.98915998,11.612184 C6.86845598,11.82172 6.67143998,11.981152 6.39811198,12.09048 L6.39811198,12.10416 C6.51860347,12.1346566 6.63069068,12.191869 6.72607198,12.27156 C6.81247932,12.3465612 6.88429171,12.4368759 6.93789598,12.53796 C6.99390789,12.6443269 7.03419147,12.7582576 7.05748798,12.876192 C7.08231177,12.997983 7.09941783,13.1212203 7.10870398,13.245168 C7.11321598,13.322672 7.11778398,13.413776 7.12240798,13.51848 C7.12703198,13.623184 7.13503198,13.730232 7.14640798,13.839624 C7.15693813,13.944461 7.17520391,14.0483762 7.20105598,14.15052 C7.22224749,14.2401431 7.26054887,14.3248299 7.31385598,14.399928 L6.24105598,14.399928 L6.24093598,14.4 Z M11.679816,14.4 L7.97639998,14.4 L7.97639998,9.52130399 L11.625168,9.52130399 L11.625168,10.4232 L9.04915199,10.4232 L9.04915199,11.46864 L11.413344,11.46864 L11.413344,12.3024 L9.04915199,12.3024 L9.04915199,13.498152 L11.679816,13.498152 L11.679816,14.4 Z M16.456008,13.34772 C16.3484709,13.5848766 16.1952284,13.7985027 16.005048,13.976376 C15.8152885,14.1512698 15.5921764,14.2860578 15.34908,14.372664 C15.0836194,14.4663048 14.8037787,14.5126078 14.522304,14.509464 C14.14872,14.509464 13.812768,14.444544 13.514448,14.314704 C13.2269208,14.1926531 12.9693108,14.0096484 12.759408,13.778328 C12.5508112,13.5444028 12.3905946,13.2714914 12.288,12.975336 C12.1766635,12.6558169 12.1211887,12.3195094 12.124008,11.98116 C12.1208537,11.6360846 12.1763055,11.2929779 12.288,10.966464 C12.3905439,10.6662074 12.550697,10.3888479 12.75948,10.149936 C12.9682953,9.91485726 13.2259959,9.72829057 13.51452,9.60331199 C13.812824,9.47124799 14.148776,9.40519199 14.522376,9.40509933 C14.7808544,9.40358626 15.0379625,9.44278747 15.284232,9.52130399 C15.5165717,9.59526622 15.7339826,9.70977726 15.9264,9.85953599 C16.1174057,10.0099537 16.2765066,10.196942 16.3944,10.409568 C16.5216599,10.6419133 16.6006799,10.8975689 16.62672,11.1612 L15.58824,11.1612 C15.5710613,11.0411657 15.5291797,10.9259974 15.46524,10.822968 C15.4011906,10.7202467 15.3203465,10.6290101 15.22608,10.553064 C15.0264891,10.3931254 14.7781662,10.3063225 14.5224,10.307088 C14.280896,10.307088 14.075912,10.353776 13.907448,10.447152 C13.742352,10.5373536 13.6016504,10.6663265 13.497456,10.822968 C13.3898266,10.9867113 13.3123131,11.1683645 13.268568,11.359368 C13.2203416,11.5630998 13.196256,11.7717988 13.196808,11.98116 C13.1963741,12.1826219 13.2204714,12.3833871 13.268568,12.579024 C13.3131811,12.765486 13.3906906,12.9424972 13.497456,13.101744 C13.6023935,13.2568623 13.7429855,13.3845662 13.907448,13.474152 C14.075816,13.56756 14.2808,13.614248 14.5224,13.614216 C14.8504,13.614216 15.106632,13.514 15.291096,13.313568 C15.47556,13.113136 15.588304,12.848928 15.629328,12.520944 L16.667928,12.520944 C16.6455664,12.8067067 16.5738661,13.0864351 16.456008,13.34772 L16.456008,13.34772 Z" fill="#000000"></path>
    </g>
</svg>