<?xml version="1.0" encoding="UTF-8"?>
<svg width="24px" height="24px" viewBox="0 0 24 24" version="1.1" xmlns="http://www.w3.org/2000/svg" xmlns:xlink="http://www.w3.org/1999/xlink">
    <title>icons/functional_UI/S-Z/mdpi/ic_Volume_status_4_4</title>
    <g id="icons/functional_UI/S-Z/ic_Volume_status_4_4" stroke="none" stroke-width="1" fill="none" fill-rule="evenodd">
        <path d="M20.01528,19.2384 L18.6606,18.05304 C21.7850826,14.6225014 21.7850826,9.3775466 18.6606,5.94700797 L20.01528,4.76159997 C23.7282692,8.87297332 23.7282692,15.1270267 20.01528,19.2384 Z M17.757048,17.262456 L16.401936,16.076712 C18.5366873,13.7781172 18.5366873,10.2219308 16.401936,7.92333598 L17.757048,6.73759198 C20.4809727,9.71713957 20.4809727,14.2828844 17.757048,17.262456 L17.757048,17.262456 Z M15.498408,15.286128 L14.142408,14.099688 C15.2857946,12.9334017 15.2857946,11.0666463 14.142408,9.90035999 L15.498408,8.71391999 C17.2338537,10.5609527 17.2338537,13.4390713 15.498408,15.286128 L15.498408,15.286128 Z M2.39999996,16.2 C1.73725826,16.2 1.19999995,15.6627417 1.19999995,15 L1.19999995,8.99999996 C1.19999995,8.33725828 1.73725826,7.79999998 2.39999996,7.79999998 L7.79999998,7.79999998 L13.2,2.99999996 L13.2,21 L7.79999998,16.2 L2.39999996,16.2 Z" fill="#000000"></path>
    </g>
</svg>