<svg width="24" height="24"><path fill-rule="evenodd" d="M20.889 12A8.889 8.889 0 1 1 3.11 12a8.889 8.889 0 0 1 17.778 0M22 12c0 5.523-4.477 10-10 10S2 17.523 2 12 6.477 2 12 2s10 4.477 10 10m-2.222 0c-1.384-2.723-4.791-4.444-7.76-4.444-2.97 0-6.41 1.716-7.796 4.444 1.395 2.746 4.782 4.41 7.76 4.444 2.979-.033 6.399-1.694 7.796-4.444M8.865 12c0-1.767 1.393-3.2 3.112-3.2 1.226 0 2.286.73 2.793 1.79l-3.667 4.482C9.81 14.684 8.865 13.456 8.865 12M5.44 12c.683-.979 1.912-1.984 3.264-2.622a4.35 4.35 0 0 0-.876 2.633 4.35 4.35 0 0 0 .89 2.628c-1.278-.598-2.446-1.485-3.278-2.638m7.672 0a1.111 1.111 0 1 1-2.222 0 1.111 1.111 0 0 1 2.222 0" clip-rule="evenodd"/></svg>