<svg width="24" height="24">
<path fill-rule="evenodd" clip-rule="evenodd" d="M21 12C19.3985 8.93642 15.4558 7 12.0203 7C8.58432 7 4.60372 8.93133 3 12C4.61436 15.089 8.53295 16.962 11.9797 17C15.4257 16.962 19.3834 15.0934 21 12ZM8.37246 12C8.37246 10.012 9.9844 8.4 11.973 8.4C13.3922 8.4 14.6189 9.22103 15.205 10.4138L10.9616 15.4562C9.46556 15.0194 8.37246 13.6376 8.37246 12ZM4.40809 12.0007C5.19804 10.8989 6.62013 9.76765 8.1848 9.05067C7.52461 9.90015 7.16804 10.9417 7.17085 12.0126C7.17366 13.0835 7.53569 14.1232 8.20033 14.9693C6.72234 14.2956 5.37025 13.2982 4.40809 12.0007ZM13.2857 12C13.2857 12.6904 12.7101 13.25 12 13.25C11.2899 13.25 10.7143 12.6904 10.7143 12C10.7143 11.3096 11.2899 10.75 12 10.75C12.7101 10.75 13.2857 11.3096 13.2857 12Z"/>
</svg>
