<?xml version="1.0" encoding="UTF-8"?>
<svg width="24px" height="24px" viewBox="0 0 24 24" version="1.1" xmlns="http://www.w3.org/2000/svg" xmlns:xlink="http://www.w3.org/1999/xlink">
    <title>icons/functional_UI/S-Z/mdpi/ic_Website</title>
    <g id="icons/functional_UI/S-Z/ic_Website" stroke="none" stroke-width="1" fill="none" fill-rule="evenodd">
        <path d="M21,4.19999997 L2.99999996,4.19999997 C2.33725826,4.19999997 1.79999996,4.73725827 1.79999996,5.39999997 L1.79999996,18.6 C1.79999996,19.2627417 2.33725826,19.8 2.99999996,19.8 L21,19.8 C21.6627417,19.8 22.2,19.2627417 22.2,18.6 L22.2,5.39999997 C22.2,4.73725827 21.6627417,4.19999997 21,4.19999997 Z M3.59999996,5.39999997 C3.93137082,5.39999997 4.19999997,5.66862912 4.19999997,5.99999997 C4.19999997,6.33137083 3.93137082,6.59999998 3.59999996,6.59999998 C3.26862911,6.59999998 2.99999996,6.33137083 2.99999996,5.99999997 C2.99999996,5.66862912 3.26862911,5.39999997 3.59999996,5.39999997 Z M21,18.6 L2.99999996,18.6 L2.99999996,7.79999998 L21,7.79999998 L21,18.6 Z M12,8.99999999 C9.68040404,8.99999999 7.79999998,10.880404 7.79999998,13.2 C7.79999998,15.519596 9.68040404,17.4 12,17.4 C14.319596,17.4 16.2,15.519596 16.2,13.2 C16.2,12.0860907 15.7575013,11.0178043 14.9698485,10.2301515 C14.1821957,9.44249872 13.1139093,8.99999999 12,8.99999999 Z M15.2784,14.929416 L14.026872,14.929416 C14.141291,14.4431206 14.2059041,13.9464399 14.219712,13.447056 L15.6978,13.447056 C15.6712836,13.8585191 15.5756329,14.2625741 15.414864,14.642256 C15.373488,14.74032 15.328,14.83604 15.2784,14.929416 Z M8.58513599,14.6424 C8.42436714,14.2627181 8.32871644,13.8586631 8.30219998,13.4472 L9.78028799,13.4472 C9.79409585,13.9465839 9.85870898,14.4432646 9.97312799,14.92956 L8.72159999,14.92956 C8.67225599,14.836008 8.62676799,14.740288 8.58513599,14.6424 Z M8.72159999,11.470584 L9.97317599,11.470584 C9.85875698,11.9568794 9.79414385,12.4535601 9.78033599,12.952944 L8.30219998,12.952944 C8.32871644,12.5414809 8.42436714,12.1374259 8.58513599,11.757744 C8.62651199,11.659712 8.67199999,11.563992 8.72159999,11.470584 Z M13.566672,11.673144 C13.6594393,12.0938475 13.7125518,12.5223231 13.725312,12.952944 L12.247056,12.952944 L12.247056,11.470584 L13.517472,11.470584 C13.534784,11.537016 13.551168,11.604536 13.566624,11.673144 L13.566672,11.673144 Z M12.247104,10.976472 L12.247104,9.53798399 C12.359674,9.57961102 12.4644701,9.63981317 12.557136,9.71608799 C12.765696,9.88271999 12.965736,10.140432 13.135536,10.461336 C13.2229586,10.6277617 13.2991293,10.7998594 13.363536,10.976472 L12.247056,10.976472 L12.247104,10.976472 Z M11.443104,9.71608799 C11.535758,9.63980875 11.6405469,9.57960602 11.753112,9.53798399 L11.753112,10.976472 L10.636632,10.976472 C10.7010387,10.7998594 10.7772094,10.6277617 10.864632,10.461336 C11.034312,10.140432 11.2344,9.88271999 11.442936,9.71608799 L11.443104,9.71608799 Z M11.753112,11.470488 L11.753112,12.952848 L10.274736,12.952848 C10.2874962,12.5222271 10.3406087,12.0937515 10.433376,11.673048 C10.448768,11.604344 10.465152,11.536824 10.482528,11.470488 L11.752944,11.470488 L11.753112,11.470488 Z M10.433376,14.726856 C10.3406087,14.3061525 10.2874962,13.8776769 10.274736,13.447056 L11.752944,13.447056 L11.752944,14.929416 L10.482528,14.929416 C10.465232,14.862984 10.448848,14.795464 10.433376,14.726856 Z M11.752944,15.423528 L11.752944,16.862016 C11.6403738,16.8203941 11.5355836,16.7601825 11.442936,16.683888 C11.234376,16.51728 11.034312,16.259568 10.864536,15.938664 C10.7771134,15.7722383 10.7009427,15.6001406 10.636536,15.423528 L11.753016,15.423528 L11.752944,15.423528 Z M12.557088,16.683888 C12.4644287,16.7601785 12.3596313,16.8203895 12.247056,16.862016 L12.247056,15.423528 L13.363536,15.423528 C13.2991293,15.6001406 13.2229586,15.7722383 13.135536,15.938664 C12.965688,16.259568 12.7656,16.51728 12.557088,16.683888 Z M12.247056,14.929488 L12.247056,13.447056 L13.725264,13.447056 C13.7125038,13.8776769 13.6593913,14.3061525 13.566624,14.726856 C13.551232,14.795544 13.534848,14.863064 13.517472,14.929416 L12.247056,14.929416 L12.247056,14.929488 Z M14.219712,12.953016 C14.2059041,12.4536321 14.141291,11.9569514 14.026872,11.470656 L15.2784,11.470656 C15.327728,11.564112 15.3732,11.6598 15.414816,11.75772 C15.5755849,12.1374019 15.6712356,12.5414569 15.697752,12.95292 L14.219712,12.95292 L14.219712,12.953016 Z M14.620512,10.579608 C14.7446109,10.7036665 14.8598236,10.8363063 14.965296,10.976544 L13.886712,10.976544 C13.718928,10.469664 13.495512,10.035312 13.23252,9.70389599 C13.30308,9.72882399 13.373024,9.75592799 13.442352,9.78520799 C13.8827534,9.97126044 14.282856,10.2410248 14.620464,10.579536 L14.620512,10.579608 Z M10.5576,9.78513599 C10.626912,9.75582399 10.696856,9.72871999 10.767432,9.70382399 C10.504488,10.03524 10.281024,10.469592 10.11324,10.976472 L9.03475199,10.976472 C9.14022444,10.8362343 9.25543714,10.7035945 9.37953599,10.579536 C9.71712772,10.2410093 10.1172129,9.9712212 10.5576,9.78513599 Z M9.37953599,15.820464 C9.25543714,15.6964055 9.14022444,15.5637657 9.03475199,15.423528 L10.113288,15.423528 C10.281072,15.930408 10.504488,16.364784 10.76748,16.696176 C10.69692,16.671248 10.626976,16.644144 10.557648,16.614864 C10.1172438,16.4287842 9.71714189,16.1589958 9.37953599,15.820464 L9.37953599,15.820464 Z M13.442352,16.614864 C13.37304,16.644176 13.303096,16.67128 13.23252,16.696176 C13.495464,16.364784 13.718928,15.930408 13.886712,15.423528 L14.965248,15.423528 C14.8597756,15.5637657 14.7445629,15.6964055 14.620464,15.820464 C14.2828766,16.1589959 13.8827903,16.4287847 13.4424,16.614864 L13.442352,16.614864 Z" fill="#000000"></path>
    </g>
</svg>