<?xml version="1.0" encoding="UTF-8"?>
<svg width="24px" height="24px" viewBox="0 0 24 24" version="1.1" xmlns="http://www.w3.org/2000/svg" xmlns:xlink="http://www.w3.org/1999/xlink">
    <title>icons/functional_UI/S-Z/mdpi/ic_Water</title>
    <g id="icons/functional_UI/S-Z/ic_Water" stroke="none" stroke-width="1" fill="none" fill-rule="evenodd">
        <path d="M17.62884,11.8488 L12,1.79999996 L6.21859198,12.117144 L6.21995998,12.116832 C5.67948993,13.1266351 5.39776841,14.2546674 5.39998682,15.400008 C5.39998682,19.155552 8.35490398,22.2 12,22.2 C15.645096,22.2 18.6000179,19.155552 18.6000179,15.400008 C18.6028435,14.1503005 18.2672487,12.9231422 17.62884,11.8488 Z M11.399736,14.3496 C11.399736,15.371664 10.593984,16.200168 9.59999999,16.200168 C8.60601599,16.200168 7.80026338,15.371664 7.80026338,14.3496 C7.80000459,14.0266761 7.88293296,13.7091298 8.04105598,13.427568 L8.03949598,13.42716 L11.399736,7.19999998 L11.399736,14.3496 Z" fill="#000000"></path>
    </g>
</svg>