<?xml version="1.0" encoding="UTF-8"?>
<svg width="24px" height="24px" viewBox="0 0 24 24" version="1.1" xmlns="http://www.w3.org/2000/svg" xmlns:xlink="http://www.w3.org/1999/xlink">
    <title>icons/functional_UI/S-Z/mdpi/ic_WPS_pairing</title>
    <g id="icons/functional_UI/S-Z/ic_WPS_pairing" stroke="none" stroke-width="1" fill="none" fill-rule="evenodd">
        <path d="M22.224,10.222632 L19.824,10.654632 C19.9584,11.972232 19.86084,13.119216 19.603536,14.11716 C21.3201631,14.8264489 22.367156,16.5789457 22.1781798,18.4266977 C21.9892037,20.2744496 20.6091295,21.7787217 18.7844609,22.1258297 C16.9597924,22.4729377 15.1237835,21.5804634 14.26956,19.93116 C13.494792,20.269728 12.90396,20.433744 12.736128,20.492544 C12.074568,20.72412 11.173224,20.624544 10.05252,21.37452 C8.93181599,22.124496 6.73415998,22.656 5.30399997,21.744408 C3.87383997,20.832816 4.44647997,19.02084 4.44647997,19.02084 C2.48944796,17.277024 1.82399996,13.823568 1.82399996,13.823568 L4.22399997,13.535568 C3.46744796,5.78707197 10.631448,3.75839997 11.293968,3.52967996 C11.956488,3.30095996 12.857448,3.40439996 13.98132,2.65924796 C15.105192,1.91409596 17.30532,1.39204796 18.731424,2.30980796 C20.157528,3.22756796 19.577304,5.03695197 19.577304,5.03695197 C21.526728,6.78935998 22.224,10.222632 22.224,10.222632 Z M18,21 C19.6568543,21 21,19.6568543 21,18 C21,16.3431458 19.6568543,15 18,15 C16.3431458,15 15,16.3431458 15,18 C15,19.6568543 16.3431458,21 18,21 Z M6.62467198,13.589328 L5.11199997,13.872912 C5.95063197,17.413896 8.42879999,18.039864 8.70331199,18.109632 C9.03537599,18.194136 9.27381599,18.110616 9.47575199,17.951712 C11.710296,15.638928 11.130264,12.745272 11.130264,12.745272 L9.23123999,13.100976 C8.67259199,9.12439199 12.119616,6.30959998 12.119616,6.30959998 C5.47185597,7.80580798 6.62467198,13.589328 6.62467198,13.589328 Z M15.347328,6.03119998 C15.01536,5.94664797 14.776872,6.03021598 14.574888,6.18899998 C12.340488,8.50185599 12.9204,11.395584 12.9204,11.395584 L14.819448,11.039736 C15.378048,15.016272 11.931072,17.83104 11.931072,17.83104 C12.674112,17.663808 13.319184,17.442768 13.879872,17.182464 C14.2039227,15.5548696 15.4549247,14.2700964 17.073312,13.902816 C17.746848,12.161712 17.426112,10.551264 17.426112,10.551264 L18.938832,10.2678 C18.100056,6.72676798 15.621912,6.10094398 15.347328,6.03119998 Z M17.4,17.4 L17.4,15.984 C17.4,15.77688 17.49288,15.6 17.7,15.6 L18.3,15.6 C18.50712,15.6 18.6,15.77688 18.6,15.984 L18.6,17.4 L20.016,17.4 C20.22312,17.4 20.4,17.49288 20.4,17.7 L20.4,18.3 C20.4,18.50712 20.22312,18.6 20.016,18.6 L18.6,18.6 L18.6,20.016 C18.6,20.223096 18.50712,20.4 18.3,20.4 L17.7,20.4 C17.49288,20.4 17.4,20.175096 17.4,19.968 L17.4,18.6 L15.984,18.6 C15.77688,18.6 15.6,18.50712 15.6,18.3 L15.6,17.7 C15.6,17.49288 15.77688,17.4 15.984,17.4 L17.4,17.4 Z" fill="#000000"></path>
    </g>
</svg>