<?xml version="1.0" encoding="UTF-8"?>
<svg width="24px" height="24px" viewBox="0 0 24 24" version="1.1" xmlns="http://www.w3.org/2000/svg" xmlns:xlink="http://www.w3.org/1999/xlink">
    <title>icons/functional_UI/S-Z/mdpi/ic_Wedding</title>
    <g id="icons/functional_UI/S-Z/ic_Wedding" stroke="none" stroke-width="1" fill="none" fill-rule="evenodd">
        <path d="M10.333344,7.93343998 C10.1870938,8.57517642 10.1728859,9.23995294 10.291584,9.88735199 C12.841452,10.5258584 14.5313369,12.9452163 14.2531819,15.5590539 C13.9750269,18.1728915 11.813835,20.182432 9.18669859,20.2700206 C6.55956222,20.3576092 4.26932228,18.4964793 3.81768803,15.9069728 C3.36605378,13.3174663 4.89104258,10.7909247 7.39271998,9.98399999 C7.30967652,9.32295557 7.31182205,8.65398613 7.39910398,7.99348798 C4.19923197,8.72584799 1.81199996,11.59008 1.81199996,15.012 C1.81199996,18.98844 5.03553597,22.212 9.01199999,22.212 C12.988464,22.212 16.212,18.98844 16.212,15.012 C16.212,11.486952 13.678632,8.55400799 10.333344,7.93343998 Z M15.012,1.81199996 C11.035536,1.81199996 7.81199998,5.03553597 7.81199998,9.01199999 C7.81199998,12.537048 10.345368,15.470016 13.690656,16.09056 C13.8369062,15.4488236 13.8511141,14.7840471 13.732416,14.136648 C11.182548,13.4981416 9.49266312,11.0787837 9.77081811,8.4649461 C10.0489731,5.85110848 12.210165,3.84156799 14.8373014,3.75397938 C17.4644378,3.66639077 19.7546777,5.52752071 20.206312,8.11702718 C20.6579462,10.7065337 19.1329574,13.2330753 16.63128,14.04 C16.7143236,14.7010605 16.7121781,15.3700458 16.624896,16.03056 C19.824768,15.298152 22.212,12.43392 22.212,9.01199999 C22.212,5.03553597 18.98844,1.81199996 15.012,1.81199996 Z" fill="#000000"></path>
    </g>
</svg>