<?xml version="1.0" encoding="UTF-8"?>
<svg width="24px" height="24px" viewBox="0 0 24 24" version="1.1" xmlns="http://www.w3.org/2000/svg" xmlns:xlink="http://www.w3.org/1999/xlink">
    <title>icons/functional_UI/S-Z/mdpi/ic_WiFi_status_2_4</title>
    <g id="icons/functional_UI/S-Z/ic_WiFi_status_2_4" stroke="none" stroke-width="1" fill="none" fill-rule="evenodd">
        <path d="M14.399136,18.000264 C14.3988047,19.3252085 13.3245126,20.3990493 11.9995681,20.398824 C10.6746236,20.3985987 9.60069682,19.3243926 9.60081607,17.9994481 C9.60093533,16.6745036 10.6750555,15.600504 12,15.600504 C12.6363751,15.6005804 13.246655,15.853456 13.6965816,16.3034996 C14.1465083,16.7535433 14.3992251,17.3638889 14.399136,18.000264 L14.399136,18.000264 Z M6.82319998,13.70928 L8.23502398,15.121464 C9.23340835,14.1227223 10.5877226,13.5616051 11.999904,13.5616051 C13.4120854,13.5616051 14.7663997,14.1227223 15.764784,15.121464 L17.1768,13.70928 C15.804008,12.3359669 13.9417896,11.5644038 12,11.5644038 C10.0582104,11.5644038 8.19599203,12.3359669 6.82319998,13.70928 Z" fill="#000000"></path>
    </g>
</svg>