<?xml version="1.0" encoding="UTF-8"?>
<svg width="24px" height="24px" viewBox="0 0 24 24" version="1.1" xmlns="http://www.w3.org/2000/svg" xmlns:xlink="http://www.w3.org/1999/xlink">
    <title>icons/functional_UI/S-Z/mdpi/ic_Watch</title>
    <g id="icons/functional_UI/S-Z/ic_Watch" stroke="none" stroke-width="1" fill="none" fill-rule="evenodd">
        <path d="M13.8,22.8 L8.99999999,22.8 C8.33725828,22.8 7.79999998,22.2627417 7.79999998,21.6 L7.79999998,19.2 L15,19.2 L15,21.6 C15,22.2627417 14.4627417,22.8 13.8,22.8 Z M8.99999999,1.19999995 L13.8,1.19999995 C14.4627417,1.19999995 15,1.73725826 15,2.39999996 L15,4.79999997 L7.79999998,4.79999997 L7.79999998,2.39999996 C7.79999998,1.73725826 8.33725828,1.19999995 8.99999999,1.19999995 Z M18.9,9.59999999 L18,9.59999999 L18,6.59999998 C18,5.93725827 17.4627417,5.39999997 16.8,5.39999997 L5.99999997,5.39999997 C5.33725827,5.39999997 4.79999997,5.93725827 4.79999997,6.59999998 L4.79999997,17.4 C4.79999997,18.0627417 5.33725827,18.6 5.99999997,18.6 L16.8,18.6 C17.4627417,18.6 18,18.0627417 18,17.4 L18,11.4 L18.9,11.4 C19.0656855,11.4 19.2,11.2656854 19.2,11.1 L19.2,9.89999997 C19.2,9.73431457 19.0656855,9.59999999 18.9,9.59999999 Z M16.8,17.4 L5.99999997,17.4 L5.99999997,6.59999998 L16.8,6.59999998 L16.8,17.4 Z M14.224272,13.975728 L12,11.75148 L12,7.79999998 C12,7.46862913 11.7313708,7.19999998 11.4,7.19999998 C11.0686291,7.19999998 10.8,7.46862913 10.8,7.79999998 L10.8,12 C10.8,12.001392 10.8,12.00276 10.8,12.004128 C10.8,12.0126 10.80024,12.021072 10.800648,12.029544 C10.800912,12.034704 10.801368,12.039816 10.801752,12.044928 C10.802088,12.04956 10.802352,12.054168 10.802808,12.058776 C10.803408,12.064896 10.804224,12.070968 10.804992,12.07704 C10.805448,12.080592 10.805832,12.08424 10.80636,12.087696 C10.80732,12.094248 10.808472,12.100704 10.809648,12.107184 C10.8102,12.110256 10.81068,12.113328 10.81128,12.1164 C10.812576,12.122928 10.81404,12.129408 10.815552,12.135864 C10.816248,12.138912 10.816896,12.141984 10.817664,12.145008 C10.8192,12.151272 10.820928,12.15744 10.82268,12.163608 C10.823592,12.166896 10.82448,12.170184 10.825464,12.173448 C10.827216,12.179208 10.829088,12.184896 10.830984,12.19056 C10.832232,12.19428 10.833384,12.198 10.834752,12.201696 C10.836576,12.20676 10.838496,12.211776 10.84044,12.216768 C10.842096,12.221064 10.843752,12.22536 10.845504,12.229608 C10.847256,12.233856 10.8492,12.238176 10.851072,12.242424 C10.853208,12.247224 10.855344,12.252024 10.857624,12.256824 C10.859352,12.260448 10.861176,12.264024 10.862976,12.267648 C10.865592,12.272904 10.868232,12.27816 10.871016,12.283368 C10.872672,12.286464 10.874424,12.289488 10.876152,12.292536 C10.879224,12.298056 10.882344,12.303576 10.885632,12.309024 C10.887288,12.311784 10.889016,12.314448 10.89072,12.31716 C10.8942,12.322728 10.89768,12.328296 10.901352,12.333768 C10.903128,12.336432 10.905,12.339 10.906848,12.34164 C10.910544,12.346992 10.914264,12.352344 10.9182,12.3576 C10.920312,12.360456 10.922544,12.363216 10.924728,12.366048 C10.928496,12.370848 10.932216,12.375792 10.936152,12.380568 C10.939056,12.384096 10.942104,12.387504 10.94508,12.39096 C10.948464,12.394896 10.951776,12.39888 10.95528,12.402744 C10.960656,12.408696 10.966224,12.414456 10.97184,12.420168 C10.973136,12.421488 10.97424,12.422856 10.975632,12.424176 L13.375632,14.824176 C13.6099245,15.0585215 13.9898305,15.0585645 14.224176,14.824272 C14.4585215,14.5899796 14.4585645,14.2100735 14.224272,13.975728 Z" fill="#000000"></path>
    </g>
</svg>