<svg width="24" height="24">
<path fill-rule="evenodd" clip-rule="evenodd" d="M19.854 18.3954L15.3387 13.8801C16.0961 12.8214 16.5024 11.5519 16.5004 10.2502C16.5004 6.7983 13.7021 4 10.2502 4C6.79827 4 4 6.7983 4 10.2502C4 13.7021 6.79827 16.5004 10.2502 16.5004C11.5519 16.5024 12.8214 16.0961 13.8801 15.3387L18.3954 19.854C18.4894 19.9475 18.6165 20 18.749 20C18.8816 20 19.0087 19.9475 19.1026 19.854L19.854 19.1026C19.9475 19.0087 20 18.8816 20 18.749C20 18.6165 19.9475 18.4894 19.854 18.3954ZM10.2502 14.5003C7.9029 14.5003 6.00006 12.5975 6.00006 10.2502C6.00006 7.90293 7.9029 6.00009 10.2502 6.00009C12.5974 6.00009 14.5003 7.90293 14.5003 10.2502C14.5003 12.5975 12.5974 14.5003 10.2502 14.5003ZM12.9999 9.9999V10.4999C12.9997 10.6325 12.947 10.7596 12.8533 10.8533C12.7595 10.947 12.6324 10.9997 12.4998 10.9998H10.9998V12.4998C10.9997 12.6324 10.947 12.7596 10.8532 12.8533C10.7595 12.9471 10.6324 12.9998 10.4998 12.9998H9.99977C9.86716 12.9998 9.73999 12.9472 9.64622 12.8534C9.55245 12.7596 9.49976 12.6324 9.49974 12.4998V10.9998H7.99972C7.86711 10.9998 7.73993 10.9471 7.64616 10.8533C7.55239 10.7596 7.4997 10.6324 7.49969 10.4998V9.9998C7.49967 9.86846 7.55326 9.73907 7.64612 9.64621C7.73899 9.55334 7.86838 9.49975 7.99972 9.49977H9.49974V7.99975C9.49973 7.86841 9.55331 7.73902 9.64618 7.64615C9.73905 7.55329 9.86844 7.4997 9.99977 7.49972H10.4998C10.6324 7.49974 10.7596 7.55243 10.8533 7.6462C10.9471 7.73997 10.9998 7.86714 10.9998 7.99975V9.49977H12.4998C12.6324 9.49978 12.7596 9.55247 12.8534 9.64624C12.9472 9.74001 12.9998 9.86729 12.9999 9.9999Z" fill="black"/>
</svg>
