<?xml version="1.0" encoding="UTF-8"?>
<svg width="24px" height="24px" viewBox="0 0 24 24" version="1.1" xmlns="http://www.w3.org/2000/svg" xmlns:xlink="http://www.w3.org/1999/xlink">
    <title>icons/functional_UI/S-Z/mdpi/ic_Zoom_in</title>
    <g id="icons/functional_UI/S-Z/ic_Zoom_in" stroke="none" stroke-width="1" fill="none" fill-rule="evenodd">
        <path d="M21.4146,19.665192 L15.999144,14.249712 C16.9075414,12.9799875 17.3948108,11.4573231 17.392344,9.89611199 C17.392344,5.75611197 14.036208,2.39995196 9.89615999,2.39995196 C5.75611197,2.39995196 2.39999996,5.75611197 2.39999996,9.89615999 C2.39999996,14.036208 5.75611197,17.392344 9.89615999,17.392344 C11.4573711,17.3948108 12.9800355,16.9075414 14.24976,15.999144 L19.665192,21.4146 C19.8997589,21.6480022 20.2788331,21.6480022 20.5134,21.4146 L21.4146,20.5134 C21.6480022,20.2788331 21.6480022,19.8997589 21.4146,19.665192 L21.4146,19.665192 Z M9.89615999,14.993568 C7.08095998,14.993568 4.79877597,12.71136 4.79877597,9.89615999 C4.79877597,7.08095998 7.08095998,4.79877597 9.89615999,4.79877597 C12.71136,4.79877597 14.993568,7.08095998 14.993568,9.89615999 C14.993568,12.71136 12.71136,14.993568 9.89615999,14.993568 Z M13.194,9.59596799 L13.194,10.195656 C13.1937484,10.526727 12.925383,10.7950279 12.594312,10.7952 L10.7952,10.7952 L10.7952,12.594288 C10.7950279,12.9254152 10.5266392,13.1938039 10.195512,13.193976 L9.59584799,13.193976 C9.26465655,13.193976 8.99617575,12.9254794 8.99613599,12.594288 L8.99613599,10.7952 L7.19707198,10.7952 C6.86588054,10.7951735 6.59735997,10.5267034 6.59735997,10.195512 L6.59735997,9.59584799 C6.59735997,9.43678862 6.66051851,9.28423843 6.77299046,9.17176647 C6.88546242,9.05929452 7.03801261,8.99611689 7.19707198,8.99613599 L8.99613599,8.99613599 L8.99613599,7.19707198 C8.99611689,7.03801261 9.05929452,6.88546242 9.17176647,6.77299046 C9.28423843,6.66051851 9.43678862,6.59735997 9.59584799,6.59735997 L10.195536,6.59735997 C10.5267181,6.59735997 10.7951735,6.86588991 10.7952,7.19707198 L10.7952,8.99613599 L12.594288,8.99613599 C12.9254888,8.99616249 13.194,9.26464718 13.194,9.59584799 L13.194,9.59596799 Z" fill="#000000"></path>
    </g>
</svg>