<?xml version="1.0" encoding="UTF-8"?>
<svg width="24px" height="24px" viewBox="0 0 24 24" version="1.1" xmlns="http://www.w3.org/2000/svg" xmlns:xlink="http://www.w3.org/1999/xlink">
    <title>icons/functional_UI/S-Z/mdpi/ic_Zoom_out</title>
    <g id="icons/functional_UI/S-Z/ic_Zoom_out" stroke="none" stroke-width="1" fill="none" fill-rule="evenodd">
        <path d="M21.4146,19.665192 L15.999144,14.249712 C16.9075414,12.9799875 17.3948108,11.4573231 17.392344,9.89611199 C17.392344,5.75611197 14.036208,2.39995196 9.89615999,2.39995196 C5.75611197,2.39995196 2.39999996,5.75611197 2.39999996,9.89615999 C2.39999996,14.036208 5.75611197,17.392344 9.89615999,17.392344 C11.4573711,17.3948108 12.9800355,16.9075414 14.24976,15.999144 L19.665192,21.4146 C19.8997589,21.6480022 20.2788331,21.6480022 20.5134,21.4146 L21.4146,20.5134 C21.6480022,20.2788331 21.6480022,19.8997589 21.4146,19.665192 L21.4146,19.665192 Z M9.89615999,14.993568 C7.08095998,14.993568 4.79877597,12.71136 4.79877597,9.89615999 C4.79877597,7.08095998 7.08095998,4.79877597 9.89615999,4.79877597 C12.71136,4.79877597 14.993568,7.08095998 14.993568,9.89615999 C14.993568,12.71136 12.71136,14.993568 9.89615999,14.993568 Z M12.59424,10.7952 L7.19699998,10.7952 C6.86580144,10.7952 6.59731198,10.5267105 6.59731198,10.195512 L6.59731198,9.59577599 C6.59731198,9.26457357 6.86579756,8.99606399 7.19699998,8.99606399 L12.59424,8.99606399 C12.9254424,8.99606399 13.193928,9.26457357 13.193928,9.59577599 L13.193928,10.195464 C13.193928,10.3545195 13.1307651,10.5070648 13.0183004,10.6195385 C12.9058357,10.7320122 12.7532955,10.7952 12.59424,10.7952 L12.59424,10.7952 Z" fill="#000000"></path>
    </g>
</svg>