<svg width="512" height="512" viewBox="0 0 512 512"><g style="fill:#000;fill-opacity:1"><path d="M256.702 33.041c30.1 0 59.2 5.9 86.7 17.5 26.5 11.2 50.3 27.3 70.8 47.7 20.5 20.5 36.5 44.3 47.8 70.8 11.6 27.4 17.5 56.6 17.5 86.7s-5.9 59.2-17.5 86.7c-11.2 26.5-27.3 50.3-47.8 70.8s-44.3 36.5-70.8 47.8c-27.4 11.6-56.6 17.5-86.7 17.5s-59.2-5.9-86.7-17.5c-26.5-11.2-50.3-27.3-70.8-47.8s-36.5-44.3-47.7-70.8c-11.6-27.4-17.5-56.6-17.5-86.7s5.9-59.2 17.5-86.7c11.2-26.5 27.2-50.3 47.7-70.8 20.5-20.4 44.3-36.5 70.8-47.7 27.4-11.6 56.6-17.5 86.7-17.5m0-33.3c-141.4 0-256 114.6-256 256s114.6 256 256 256 256-114.6 256-256-114.6-256-256-256"/><text xml:space="preserve" x="39.333" y="304.997" style="font-style:normal;font-weight:400;font-size:39.5554px;line-height:1.25;font-family:sans-serif;letter-spacing:0;word-spacing:0;fill:#000;fill-opacity:1;stroke:none;stroke-width:.988884" transform="scale(1.00328 .99673)"><tspan x="39.333" y="304.997" style="font-style:normal;font-variant:normal;font-weight:700;font-stretch:normal;font-size:189.866px;font-family:&quot;Accessible DfA&quot;;-inkscape-font-specification:&quot;Accessible DfA Bold&quot;;stroke-width:.988884">d bp</tspan></text><path d="m196.792 32.156-.372 444.762m280.334-146.81L40.926 332.56" style="fill:none;stroke:#000;stroke-width:35;stroke-linecap:butt;stroke-linejoin:miter;stroke-miterlimit:4;stroke-dasharray:none;stroke-opacity:1"/><path d="M121.989 116.921h31.575v190.8h-31.575z" style="opacity:.95;fill:#000;fill-opacity:1;fill-rule:nonzero;stroke:#000;stroke-width:2.58602;stroke-linecap:round;stroke-linejoin:round;stroke-miterlimit:4;stroke-dasharray:none;stroke-dashoffset:0;stroke-opacity:1;paint-order:markers fill stroke"/><path d="M235.391 118.036h30.444v190.8h-30.444z" style="opacity:.95;fill:#000;fill-opacity:1;fill-rule:nonzero;stroke:#000;stroke-width:2.5393;stroke-linecap:round;stroke-linejoin:round;stroke-miterlimit:4;stroke-dasharray:none;stroke-dashoffset:0;stroke-opacity:1;paint-order:markers fill stroke"/><path d="M357.075 196.197h29.446v210.207h-29.446z" style="opacity:.95;fill:#000;fill-opacity:1;fill-rule:nonzero;stroke:#000;stroke-width:2.62124;stroke-linecap:round;stroke-linejoin:round;stroke-miterlimit:4;stroke-dasharray:none;stroke-dashoffset:0;stroke-opacity:1;paint-order:markers fill stroke"/></g></svg>