<?xml version="1.0" encoding="UTF-8" standalone="no"?>
<svg
   width="512"
   height="512"
   viewBox="0 0 512 512"
   version="1.1"
   id="svg14"
   sodipodi:docname="Usage mode_Reading++.svg"
   inkscape:export-filename="Usage mode_Reading++.png"
   inkscape:export-xdpi="96"
   inkscape:export-ydpi="96"
   inkscape:version="1.3.2 (091e20e, 2023-11-25, custom)"
   xmlns:inkscape="http://www.inkscape.org/namespaces/inkscape"
   xmlns:sodipodi="http://sodipodi.sourceforge.net/DTD/sodipodi-0.dtd"
   xmlns="http://www.w3.org/2000/svg"
   xmlns:svg="http://www.w3.org/2000/svg"
   xmlns:rdf="http://www.w3.org/1999/02/22-rdf-syntax-ns#"
   xmlns:cc="http://creativecommons.org/ns#"
   xmlns:dc="http://purl.org/dc/elements/1.1/">
  <metadata
     id="metadata20">
    <rdf:RDF>
      <cc:Work
         rdf:about="">
        <dc:format>image/svg+xml</dc:format>
        <dc:type
           rdf:resource="http://purl.org/dc/dcmitype/StillImage" />
        <dc:title>Usage mode_Reading++</dc:title>
      </cc:Work>
    </rdf:RDF>
  </metadata>
  <defs
     id="defs18" />
  <sodipodi:namedview
     pagecolor="#ffffff"
     bordercolor="#666666"
     borderopacity="1"
     objecttolerance="10"
     gridtolerance="10"
     guidetolerance="10"
     inkscape:pageopacity="0"
     inkscape:pageshadow="2"
     inkscape:window-width="1898"
     inkscape:window-height="952"
     id="namedview16"
     showgrid="false"
     inkscape:zoom="0.65186406"
     inkscape:cx="330.5904"
     inkscape:cy="304.51134"
     inkscape:window-x="2880"
     inkscape:window-y="1620"
     inkscape:window-maximized="0"
     inkscape:current-layer="svg14"
     inkscape:showpageshadow="2"
     inkscape:pagecheckerboard="0"
     inkscape:deskcolor="#d1d1d1" />
  <title
     id="title2">Usage mode_Reading++</title>
  <g
     id="g12"
     style="fill:#000000;fill-opacity:1">
    <g
       id="g8"
       transform="translate(0.7022894,-0.2590365)">
		<path
   d="m 256,33.3 c 30.1,0 59.2,5.9 86.7,17.5 26.5,11.2 50.3,27.3 70.8,47.7 20.5,20.5 36.5,44.3 47.8,70.8 11.6,27.4 17.5,56.6 17.5,86.7 0,30.1 -5.9,59.2 -17.5,86.7 -11.2,26.5 -27.3,50.3 -47.8,70.8 -20.5,20.5 -44.3,36.5 -70.8,47.8 -27.4,11.6 -56.6,17.5 -86.7,17.5 -30.1,0 -59.2,-5.9 -86.7,-17.5 C 142.8,450.1 119,434 98.5,413.5 78,393 62,369.2 50.8,342.7 39.2,315.3 33.3,286.1 33.3,256 33.3,225.9 39.2,196.8 50.8,169.3 62,142.8 78,119 98.5,98.5 119,78.1 142.8,62 169.3,50.8 196.7,39.2 225.9,33.3 256,33.3 M 256,0 C 114.6,0 0,114.6 0,256 0,397.4 114.6,512 256,512 397.4,512 512,397.4 512,256 512,114.6 397.4,0 256,0 Z"
   id="path6" />

	</g>
    <text
       xml:space="preserve"
       style="font-style:normal;font-weight:normal;font-size:39.5554px;line-height:1.25;font-family:sans-serif;letter-spacing:0px;word-spacing:0px;fill:#000000;fill-opacity:1;stroke:none;stroke-width:0.988884"
       x="39.332909"
       y="304.99695"
       id="text4555"
       transform="scale(1.0032786,0.99673212)"><tspan
         sodipodi:role="line"
         id="tspan4553"
         x="39.332909"
         y="304.99695"
         style="font-style:normal;font-variant:normal;font-weight:bold;font-stretch:normal;font-size:189.866px;font-family:'Accessible DfA';-inkscape-font-specification:'Accessible DfA Bold';stroke-width:0.988884">d bp</tspan></text>
    <path
       style="fill:none;stroke:#000000;stroke-width:35;stroke-linecap:butt;stroke-linejoin:miter;stroke-miterlimit:4;stroke-dasharray:none;stroke-opacity:1"
       d="M 196.79152,32.156434 196.41969,476.91801"
       id="path4557"
       inkscape:connector-curvature="0"
       sodipodi:nodetypes="cc" />
    <path
       style="fill:none;stroke:#000000;stroke-width:35;stroke-linecap:butt;stroke-linejoin:miter;stroke-miterlimit:4;stroke-dasharray:none;stroke-opacity:1"
       d="M 476.75374,330.10805 40.926069,332.56031"
       id="path4557-9"
       inkscape:connector-curvature="0"
       sodipodi:nodetypes="cc" />
    <rect
       style="opacity:0.95;fill:#000000;fill-opacity:1;fill-rule:nonzero;stroke:#000000;stroke-width:2.58602;stroke-linecap:round;stroke-linejoin:round;stroke-miterlimit:4;stroke-dasharray:none;stroke-dashoffset:0;stroke-opacity:1;paint-order:markers fill stroke"
       id="rect823"
       width="31.574921"
       height="190.80002"
       x="121.98897"
       y="116.9212" />
    <rect
       style="opacity:0.95;fill:#000000;fill-opacity:1;fill-rule:nonzero;stroke:#000000;stroke-width:2.5393;stroke-linecap:round;stroke-linejoin:round;stroke-miterlimit:4;stroke-dasharray:none;stroke-dashoffset:0;stroke-opacity:1;paint-order:markers fill stroke"
       id="rect823-6"
       width="30.444483"
       height="190.80002"
       x="235.39064"
       y="118.03587" />
    <rect
       style="opacity:0.95;fill:#000000;fill-opacity:1;fill-rule:nonzero;stroke:#000000;stroke-width:2.62124;stroke-linecap:round;stroke-linejoin:round;stroke-miterlimit:4;stroke-dasharray:none;stroke-dashoffset:0;stroke-opacity:1;paint-order:markers fill stroke"
       id="rect823-4"
       width="29.44603"
       height="210.20656"
       x="357.07535"
       y="196.19702" />
  </g>
</svg>
