<svg xmlns="http://www.w3.org/2000/svg" xmlns:xlink="http://www.w3.org/1999/xlink"><symbol viewBox="0 0 24 24" id="ic_Accessibility"><path fill-rule="evenodd" d="M12.74 5.737a1.332 1.332 0 1 1-1.48-2.215 1.332 1.332 0 0 1 1.48 2.215Zm5.224.28a.628.628 0 0 1-.006 1.162s-4.468 1.5-4.468 1.972c0 .56.022.713.6 4.683.226 1.544.535 3.666.96 6.614a.767.767 0 0 1-1.5.322s-1.288-6.437-1.547-6.437c-.26 0-1.547 6.437-1.547 6.437a.767.767 0 0 1-1.5-.322c-.123.694 2.064-10.793 1.56-11.297-.38-.381-4.47-1.963-4.47-1.963a.639.639 0 0 1 .488-1.181s4.54 1.79 5.472 1.79c.931 0 5.478-1.78 5.478-1.78a.628.628 0 0 1 .48 0Z" clip-rule="evenodd"/></symbol><symbol viewBox="0 0 24 24" id="ic_Agencement"><path fill-rule="evenodd" d="M19.333 5c.369 0 .667.298.667.667v2.666a.667.667 0 0 1-.667.667h-2.666v2.667h2.666c.369 0 .667.298.667.666V15a.667.667 0 0 1-.667.667h-2.666v2.666A.667.667 0 0 1 16 19h-5.333a.664.664 0 0 1-.334-.09A.66.66 0 0 1 10 19H4.667A.667.667 0 0 1 4 18.333v-2.666c0-.368.298-.667.667-.667h2.666v-2.667c0-.368.299-.666.667-.666h2V9c0-.368.299-.667.667-.667h2.666V5.667c0-.369.299-.667.667-.667h5.333ZM9.667 16H5v2h4.667v-2Zm6 0H11v2h4.667v-2ZM13 12.667H8.333v2H13v-2Zm6 0h-4.667v2H19v-2Zm-3.333-3.334H11v2h4.667v-2ZM19 6h-4.667v2H19V6Z"/></symbol><symbol viewBox="0 0 24 24" id="ic_Agrandir_Zone_Cliquable"><path fill-rule="evenodd" d="M18 4a2 2 0 0 1 2 2v12a2 2 0 0 1-2 2H6a2 2 0 0 1-2-2V6a2 2 0 0 1 2-2h12Zm0 1H6a1 1 0 0 0-1 1v12a1 1 0 0 0 1 1h12a1 1 0 0 0 1-1V6a1 1 0 0 0-1-1Zm-6.647 7.549.052.046a.556.556 0 0 1 0 .785l-2.508 2.51 1.621-.001c.285 0 .52.214.552.49l.004.065a.556.556 0 0 1-.556.556h-2.98l-.014-.001-.015-.001-.017-.002-.018-.003-.015-.002-.014-.003-.016-.003-.018-.005-.017-.004-.013-.005-.012-.003-.015-.006-.022-.01-.012-.006-.008-.003-.021-.012-.019-.009-.013-.009-.025-.017-.022-.016a.561.561 0 0 1-.089-.088l-.005-.007-.012-.017-.019-.026-.004-.008-.004-.005-.009-.018-.013-.022-.002-.008-.007-.012-.008-.022-.007-.015-.002-.012-.006-.013-.003-.017-.006-.018-.003-.015-.003-.014-.002-.016-.003-.018-.001-.017L7 16.477v-2.995a.556.556 0 0 1 1.111 0v1.622l2.508-2.51c.2-.2.516-.215.734-.045ZM16.444 7l.02.001h.013l.015.002h.017l.018.004.015.002.014.003.016.003.018.006.017.003.013.006.012.002.015.007.022.008.012.007.008.002.022.013.018.009.005.004.008.004.026.019.017.011.005.005a.552.552 0 0 1 .088.087l.018.025.017.025.006.009.012.023.012.021.003.008.007.012.009.022.006.015.003.012.005.013.004.017.005.018.003.016.003.014.002.015.003.018.002.017.001.015v.014l.001.019v2.962a.556.556 0 1 1-1.111 0V8.897l-2.508 2.508a.556.556 0 0 1-.786-.785l2.509-2.509h-1.622a.556.556 0 0 1-.552-.49l-.004-.065c0-.307.249-.556.556-.556h2.962Z"/></symbol><symbol viewBox="0 0 24 24" id="ic_Animation_Hide"><path fill-rule="evenodd" d="M19.89 5.172 18.562 6.5l1.328 1.328a.376.376 0 0 1 0 .53l-.532.532a.376.376 0 0 1-.53 0L17.5 7.563 16.172 8.89a.376.376 0 0 1-.531 0l-.531-.532a.376.376 0 0 1 0-.53L16.437 6.5 15.11 5.172a.376.376 0 0 1 0-.531l.532-.531a.376.376 0 0 1 .53 0L17.5 5.438l1.328-1.328a.376.376 0 0 1 .531 0l.531.531a.376.376 0 0 1 0 .531Z"/><path fill-rule="evenodd" d="M13.51 4.716c.025-.251.101-.495.223-.716l-.09.002a6.183 6.183 0 0 0-5.99 5.713 4.726 4.726 0 0 0-1.757 2.883 4 4 0 1 0 5.507 5.506 4.727 4.727 0 0 0 2.883-1.758 6.181 6.181 0 0 0 5.713-6.078v-.086.086c-.45.247-.979.297-1.46.147a4.727 4.727 0 0 1-9.448-.233 4.726 4.726 0 0 1 4.492-4.72 1.881 1.881 0 0 1-.073-.746ZM5.46 16.205a2.545 2.545 0 0 1 .476-1.695 4.732 4.732 0 0 0 3.555 3.554 2.545 2.545 0 0 1-4.031-1.86Zm1.813-2.75a3.251 3.251 0 0 1 .539-1.802 6.19 6.19 0 0 0 4.535 4.534 3.273 3.273 0 0 1-5.074-2.733Z" clip-rule="evenodd"/></symbol><symbol viewBox="0 0 24 24" id="ic_Audio"><path fill-rule="evenodd" d="m17.937 17.728-1.003-.856a6.373 6.373 0 0 0 0-8.744l1.003-.856a7.656 7.656 0 0 1 0 10.456ZM16.265 16.3l-1.004-.857a4.248 4.248 0 0 0 0-5.888l1.004-.857a5.53 5.53 0 0 1 0 7.602Zm-1.674-1.428-1.004-.857a2.128 2.128 0 0 0 0-3.032l1.004-.857a3.403 3.403 0 0 1 0 4.746Zm-9.702.66A.878.878 0 0 1 4 14.667v-4.334c0-.478.398-.866.889-.866h4l4-3.467v13l-4-3.467h-4Z"/></symbol><symbol viewBox="0 0 24 24" id="ic_Book"><path fill-rule="evenodd" d="M16.235 5.001c-1.588 0-3.032.407-4.235 1.132C10.797 5.408 9.353 5 7.765 5H3v10.552c0 .523.424.95.953.95l3.812.002c.847 0 1.655.141 2.372.44.535.224 1.472.89 1.472.89.18.123.237.165.391.165.154 0 .212-.042.391-.165 0 0 .937-.666 1.472-.89.717-.299 1.525-.441 2.372-.441h3.812a.963.963 0 0 0 .676-.28.94.94 0 0 0 .277-.671V5l-4.765.001Zm3.706 9.932c0 .29-.236.524-.53.526h-3.176c-1.059 0-1.936.169-2.784.523-.401.168-1.133.617-1.133.617a.57.57 0 0 1-.318.088.571.571 0 0 1-.318-.088s-.732-.45-1.133-.617c-.848-.354-1.725-.523-2.784-.523H4.588a.528.528 0 0 1-.53-.526v-.522h3.705c1.589 0 3.034.41 4.237 1.134 1.203-.725 2.647-1.132 4.235-1.132h3.706v.52ZM4.588 7.091h4.236c.29.003.523.237.523.523 0 .287-.233.52-.523.524H4.588a.527.527 0 0 1-.524-.524c0-.286.234-.52.524-.524Zm0 2.093h4.236c.292 0 .529.234.529.523a.526.526 0 0 1-.53.523H4.589a.526.526 0 0 1-.523-.523c0-.286.233-.52.523-.523Zm0 2.09h2.118c.293 0 .53.235.53.524 0 .29-.237.524-.53.524H4.588a.527.527 0 0 1-.524-.524c0-.287.234-.521.524-.524Zm12.253 1.418a.556.556 0 0 1-.386.152.575.575 0 0 1-.394-.15.532.532 0 0 1-.169-.42.547.547 0 0 1 .163-.402.544.544 0 0 1 .4-.164.555.555 0 0 1 .552.566.537.537 0 0 1-.166.418Zm1.384-3.518c-.08.154-.182.296-.304.42a22.37 22.37 0 0 1-.632.595 2.597 2.597 0 0 0-.202.207.845.845 0 0 0-.113.163.812.812 0 0 0-.057.148 5.9 5.9 0 0 0-.062.26c-.046.264-.193.395-.44.395a.445.445 0 0 1-.325-.129c-.087-.086-.131-.214-.131-.383 0-.213.032-.397.096-.553.06-.15.147-.29.256-.41a5.92 5.92 0 0 1 .43-.42c.158-.142.272-.249.343-.321.07-.072.13-.153.177-.241a.679.679 0 0 0-.148-.802.794.794 0 0 0-.569-.209c-.271 0-.472.07-.6.21-.128.142-.237.349-.326.622-.084.286-.244.43-.478.43a.464.464 0 0 1-.35-.15.465.465 0 0 1-.143-.326c0-.24.075-.484.226-.731.15-.247.37-.452.66-.614a2.033 2.033 0 0 1 1.011-.243c.358 0 .675.068.95.204.273.135.485.32.635.552.147.227.225.49.224.76 0 .215-.043.404-.128.566Z"/></symbol><symbol viewBox="0 0 24 24" id="ic_Brush"><path fill-rule="evenodd" d="M7.784 14.289c1.378 0 2.499 1.134 2.499 2.529 0 1.753-1.41 3.18-3.142 3.18-1.147 0-2.336-.602-3.028-1.534a.571.571 0 0 1 .458-.912c.19 0 .714-.174.714-.734 0-1.395 1.121-2.53 2.499-2.53Zm11.533-9.787.093.087c.785.787.787 2.06.004 2.848l-7.818 8.103a.571.571 0 0 1-.977-.316c-.077-.536-.712-1.159-1.307-1.28a.571.571 0 0 1-.31-.94l7.535-8.392a2.02 2.02 0 0 1 2.78-.11Z"/></symbol><symbol viewBox="0 0 24 24" id="ic_Click"><path fill-rule="evenodd" d="m8.206 9.642-3.14 3.141a3.652 3.652 0 0 0 0 5.155l.971.988A3.62 3.62 0 0 0 8.63 20a3.62 3.62 0 0 0 2.578-1.074l3.142-3.141a3.646 3.646 0 0 0 0-5.155l-.989-.989a3.652 3.652 0 0 0-5.155.001Zm3.357 2.04a.536.536 0 1 1 .757.757l-.747.762a.537.537 0 0 1-.757 0H10.8a.536.536 0 0 1 .006-.762l.757-.757Zm1.714-7.272-.012.066a.536.536 0 0 0 .473.601 5.762 5.762 0 0 1 5.187 5.128.537.537 0 0 0 .47.464l.067.003a.538.538 0 0 0 .537-.59 6.707 6.707 0 0 0-6.143-6.079.537.537 0 0 0-.58.407Zm.63 2.826a.537.537 0 0 0-.182.346l-.003.067a.537.537 0 0 0 .434.537 2.283 2.283 0 0 1 1.649 1.719c.054.273.308.46.585.43h.037a.537.537 0 0 0 .468-.613 3.222 3.222 0 0 0-2.55-2.61.537.537 0 0 0-.437.123v.001Z"/></symbol><symbol viewBox="0 0 24 24" id="ic_Contrast"><path fill-rule="evenodd" d="M12 4a8 8 0 1 0 0 16 8 8 0 0 0 0-16Zm0 14.571V5.411c3.625.015 6.588 2.96 6.588 6.589 0 3.629-2.963 6.555-6.588 6.571Z"/></symbol><symbol viewBox="0 0 24 24" id="ic_CursorSetting"><path d="m19.425 15.22-4.141 4.121-2.712-2.698L10.332 21 3 3l18 7.258-4.228 2.322 2.653 2.64Z"/></symbol><symbol viewBox="0 0 24 24" id="ic_Decouper"><path fill-rule="evenodd" d="M15.298 5.875h4.07a.632.632 0 0 1 .632.632v.486a.632.632 0 0 1-.631.631h-4.07a.632.632 0 0 1-.633-.631v-.486a.631.631 0 0 1 .632-.632Zm0 10.5h4.07a.632.632 0 0 1 .632.631v.487a.632.632 0 0 1-.631.631h-4.07a.631.631 0 0 1-.633-.631v-.486a.631.631 0 0 1 .632-.632Zm0-7h4.07a.632.632 0 0 1 .632.632v.486a.631.631 0 0 1-.631.632h-4.07a.631.631 0 0 1-.633-.632v-.486a.631.631 0 0 1 .632-.632Zm0 3.5h4.07a.632.632 0 0 1 .632.631v.487a.632.632 0 0 1-.631.632h-4.07a.632.632 0 0 1-.633-.632v-.486a.631.631 0 0 1 .632-.632Zm-10.667-7h4.07a.632.632 0 0 1 .632.632v.486a.632.632 0 0 1-.631.631h-4.07A.632.632 0 0 1 4 6.993v-.486a.632.632 0 0 1 .631-.632Zm0 10.5h4.07a.632.632 0 0 1 .632.631v.487a.631.631 0 0 1-.631.631h-4.07A.631.631 0 0 1 4 17.493v-.486a.632.632 0 0 1 .631-.632Zm0-7h4.07a.632.632 0 0 1 .632.632v.486a.631.631 0 0 1-.631.632h-4.07A.631.631 0 0 1 4 10.493v-.486a.632.632 0 0 1 .631-.632Zm0 3.5h4.07a.632.632 0 0 1 .632.631v.487a.632.632 0 0 1-.631.632h-4.07A.632.632 0 0 1 4 13.993v-.486a.631.631 0 0 1 .631-.632ZM11.743 5h.514a.632.632 0 0 1 .632.632v12.736a.631.631 0 0 1-.632.632h-.514a.631.631 0 0 1-.632-.632V5.632A.632.632 0 0 1 11.743 5Z"/></symbol><symbol viewBox="0 0 24 24" id="ic_Disclosure_closed"><path fill-rule="evenodd" d="M21.6 6.6 12 18 2.4 6.6h19.2Z" clip-rule="evenodd"/></symbol><symbol viewBox="0 0 24 24" id="ic_Disclosure_opened"><path fill-rule="evenodd" d="M21.6 17.4 12 6 2.4 17.4h19.2Z" clip-rule="evenodd"/></symbol><symbol viewBox="0 0 24 24" id="ic_Dyslexic"><path fill-rule="evenodd" d="M12.648 4c.256 0 .512.018.767.038a7.64 7.64 0 0 1 1.239.194c1.162.285 2.183.822 3.044 1.644a7.1 7.1 0 0 1 1.347 1.794c.314.584.547 1.197.688 1.843.065.295.117.593.165.89.026.158.03.317.048.476.042.377.06.756.052 1.135l-.038 1.693-.016.762-.012.468-.002.098v.436h-.099c-.5 0-1.002.002-1.503-.002-.068 0-.093.024-.117.08a7.45 7.45 0 0 1-1.549 2.389 6.68 6.68 0 0 1-3.348 1.863c-.276.063-.56.102-.84.144a5.018 5.018 0 0 1-.502.042c-.228.009-.456.012-.684.012H4.003c-.001-.03-.003-.06-.003-.091V8.548l.003-.09h1.074V4.007c.035-.002.06-.004.085-.004C7.657 4 10.153 3.999 12.648 4ZM9.77 5.75H6.864v4.461H5.79v8.035h5.768c.189 0 .379-.008.567-.029.24-.026.48-.059.714-.109a4.884 4.884 0 0 0 2.831-1.72c.54-.66.901-1.41 1.138-2.22.044-.147.079-.297.12-.452h1.255c0-.197-.002-.385 0-.574.004-.238.008-.476.014-.714.014-.45.03-.9-.027-1.348-.027-.216-.038-.434-.078-.648a10.432 10.432 0 0 0-.194-.876c-.132-.47-.33-.92-.586-1.335-.667-1.098-1.6-1.869-2.867-2.22a7.624 7.624 0 0 0-.677-.155c-.172-.03-.348-.042-.522-.055-.217-.017-.435-.038-.653-.039L9.77 5.75Zm1.09 1.757c.65 0 1.298-.003 1.947.01.328.005.655.04.976.116.88.21 1.531.717 1.987 1.477.189.314.34.644.428.998.058.236.1.475.14.715.06.355.09.714.083 1.074 0 .02-.003.04-.004.067h-1.073c-.008.08-.016.152-.022.225-.015.192-.016.386-.046.575a12.27 12.27 0 0 1-.17.828 4.27 4.27 0 0 1-.646 1.45c-.48.703-1.135 1.163-1.982 1.349a5.36 5.36 0 0 1-.608.087c-.136.015-.274.014-.412.014H7.582v-4.527H8.66V7.603c0-.096 0-.097.096-.097h2.104Zm-.27 1.563c-.021 0-.042.003-.073.005v2.89H9.442v2.958a.483.483 0 0 0 .06.005c.592 0 1.183.002 1.775-.002.125 0 .25-.013.374-.036.423-.07.805-.294 1.074-.628.338-.415.502-.902.588-1.416.039-.226.044-.457.064-.686l.01-.043.007-.155h1.055c0-.189.003-.368-.002-.546a2.833 2.833 0 0 0-.03-.38c-.03-.186-.072-.37-.111-.553a2.351 2.351 0 0 0-.223-.594 1.351 1.351 0 0 0-.666-.62c-.326-.148-.674-.189-1.025-.195-.6-.012-1.201-.004-1.803-.004Z"/></symbol><symbol viewBox="0 0 24 24" id="ic_Eye"><path fill-rule="evenodd" d="m12.018 8 .215.002c3.335 0 6.674 2.38 7.767 4.498-1.093 2.118-4.468 4.497-7.803 4.497l-.215.003-.215-.003c-3.335 0-6.674-2.38-7.767-4.497 1.093-2.118 4.468-4.498 7.803-4.498L12.018 8Zm-.042 1.26c-1.768 0-3.2 1.45-3.2 3.24 0 1.79 1.432 3.24 3.2 3.24 1.767 0 3.2-1.45 3.2-3.24 0-1.79-1.432-3.24-3.2-3.24Zm3.325.533a4.358 4.358 0 0 1 .013 5.397 9.684 9.684 0 0 0 1.071-.57c.987-.607 1.833-1.372 2.363-2.12-.528-.75-1.37-1.516-2.348-2.122a9.47 9.47 0 0 0-1.1-.585Zm-6.692.052a9.661 9.661 0 0 0-.994.535c-.987.607-1.833 1.372-2.363 2.12l.118.162c.532.698 1.322 1.398 2.23 1.96.33.204.672.388 1.023.55a4.36 4.36 0 0 1-.014-5.327Zm3.286.512c1.104 0 2 .912 2 2.036s-.896 2.036-2 2.036c-1.105 0-2-.912-2-2.036s.895-2.036 2-2.036Z"/></symbol><symbol viewBox="0 0 24 24" id="ic_Focus"><path fill-rule="evenodd" clip-rule="evenodd" d="M3 7h18v10H3V7Zm2 2v6h14V9H5Z"/></symbol><symbol viewBox="0 0 24 24" id="ic_Form_Chevron_left"><path fill-rule="evenodd" d="m15 5-5 5-2 2 2 2 5 5 2-2-5-5 5-5-2-2Z" clip-rule="evenodd"/></symbol><symbol viewBox="0 0 24 24" id="ic_Form_Chevron_right"><path fill-rule="evenodd" d="m10 19 5-5 2-2-2-2-5-5-2 2 5 5-5 5 2 2Z" clip-rule="evenodd"/></symbol><symbol viewBox="0 0 24 24" id="ic_Form_Tick"><path fill-rule="evenodd" d="m18 6-8 8-3-3-2 2 3 3 2 2 2-2 8-8-2-2Z" clip-rule="evenodd"/></symbol><symbol viewBox="0 0 24 24" id="ic_Internet"><path fill-rule="evenodd" d="M18.505 14.747a7.015 7.015 0 0 1-.26.547H15.86c.208-.87.336-1.822.367-2.824h2.816a6.984 6.984 0 0 1-.54 2.277Zm-1.514 2.244a7.033 7.033 0 0 1-2.643 1.668c.5-.63.926-1.458 1.246-2.424h2.054c-.2.266-.418.518-.657.756Zm-3.93 1.645c-.195.156-.393.27-.59.34v-2.74h2.126a7.97 7.97 0 0 1-.434.98c-.323.612-.704 1.102-1.102 1.42Zm-.59-6.166h2.815a13.133 13.133 0 0 1-.302 2.438c-.03.13-.06.26-.094.386h-2.42V12.47Zm0-3.764h2.42a13.137 13.137 0 0 1 .396 2.824H12.47V8.705Zm0-3.681c.197.07.395.183.59.339.398.317.779.808 1.102 1.42.16.303.306.63.434.98h-2.126v-2.74Zm2.277.47a7.098 7.098 0 0 1 2.9 2.269h-2.054c-.32-.965-.745-1.792-1.246-2.424.134.048.268.1.4.155Zm3.497 3.21a6.983 6.983 0 0 1 .799 2.824h-2.816a14.024 14.024 0 0 0-.367-2.823h2.384Zm-6.716-.94H9.403a8.19 8.19 0 0 1 .434-.982c.324-.61.705-1.102 1.102-1.42.196-.155.393-.269.59-.338v2.74Zm0 3.764H8.714a13.133 13.133 0 0 1 .396-2.823h2.42v2.823Zm0 3.765H9.11a13.129 13.129 0 0 1-.396-2.824h2.816v2.824Zm0 3.681a2.042 2.042 0 0 1-.59-.34c-.397-.317-.778-.807-1.102-1.419a8.02 8.02 0 0 1-.434-.98h2.126v2.74Zm-2.276-.47a7.037 7.037 0 0 1-2.244-1.514 7.188 7.188 0 0 1-.657-.756h2.054c.32.966.746 1.793 1.246 2.424a7.022 7.022 0 0 1-.4-.155Zm-3.498-3.211a7.03 7.03 0 0 1-.798-2.824h2.815a14.04 14.04 0 0 0 .367 2.824H5.755Zm-.26-6.041c.08-.187.167-.37.26-.547H8.14c-.208.87-.336 1.822-.367 2.823H4.957c.051-.787.232-1.55.539-2.276ZM7.01 7.009A7.038 7.038 0 0 1 9.652 5.34c-.5.632-.926 1.46-1.246 2.424H6.352c.2-.265.419-.518.657-.755ZM12 3.999A8 8 0 1 0 12 20a8 8 0 0 0 0-16Z"/></symbol><symbol viewBox="0 0 24 24" id="ic_Keyboard"><path fill-rule="evenodd" d="M19.059 7H4.94c-.519 0-.94.407-.94.91v8.18c0 .503.421.91.941.91H19.06c.52 0 .941-.407.941-.91V7.91c0-.503-.421-.91-.941-.91Zm-4.236 1.136c0-.125.106-.227.236-.227H16c.13 0 .235.102.235.227v.91a.231.231 0 0 1-.235.227h-.941a.231.231 0 0 1-.236-.228v-.909Zm0 2.273c0-.125.106-.227.236-.227H16c.13 0 .235.102.235.227v.91a.231.231 0 0 1-.235.226h-.941a.231.231 0 0 1-.236-.227v-.909Zm.01 2.045c.13 0 .235.102.235.228v.909a.231.231 0 0 1-.235.227h-.941a.231.231 0 0 1-.236-.227v-.91c0-.125.106-.226.236-.226h.94ZM12.47 8.137c0-.125.105-.227.235-.227h.941c.13 0 .235.102.235.227v.91a.231.231 0 0 1-.235.227h-.941a.231.231 0 0 1-.235-.228v-.909Zm0 2.273c0-.125.105-.227.235-.227h.941c.13 0 .235.102.235.227v.91a.231.231 0 0 1-.235.226h-.941a.231.231 0 0 1-.235-.227v-.909Zm.009 2.045c.13 0 .235.102.235.228v.909a.231.231 0 0 1-.235.227h-.941a.231.231 0 0 1-.236-.227v-.91c0-.125.106-.226.236-.226h.941Zm-2.362-4.318c0-.125.105-.227.235-.227h.941c.13 0 .235.102.235.227v.91a.231.231 0 0 1-.235.227h-.941a.231.231 0 0 1-.235-.228v-.909Zm0 2.273c0-.125.105-.227.235-.227h.941c.13 0 .235.102.235.227v.91a.231.231 0 0 1-.235.226h-.941a.231.231 0 0 1-.235-.227v-.909Zm.01 2.045c.129 0 .234.102.234.228v.909a.231.231 0 0 1-.235.227h-.941a.231.231 0 0 1-.235-.227v-.91a.23.23 0 0 1 .235-.226h.941ZM7.764 8.137c0-.125.105-.227.235-.227h.941c.13 0 .235.102.235.227v.91a.231.231 0 0 1-.235.227H8a.231.231 0 0 1-.235-.228v-.909Zm0 2.273c0-.125.105-.227.235-.227h.941c.13 0 .235.102.235.227v.91a.231.231 0 0 1-.235.226H8a.231.231 0 0 1-.235-.227v-.909ZM5.412 8.136c0-.125.105-.227.235-.227h.941c.13 0 .236.102.236.227v.91a.231.231 0 0 1-.236.227h-.94a.231.231 0 0 1-.236-.228v-.909Zm0 2.273c0-.125.105-.227.235-.227h.941c.13 0 .236.102.236.227v.91a.231.231 0 0 1-.236.226h-.94a.231.231 0 0 1-.236-.227v-.909Zm1.412 5.455a.231.231 0 0 1-.236.227h-.94a.231.231 0 0 1-.236-.227v-.91c0-.125.105-.227.235-.227h.941c.13 0 .236.102.236.227v.91Zm.705-2.046H5.647a.231.231 0 0 1-.235-.227v-.91a.23.23 0 0 1 .235-.226H7.53c.13 0 .236.101.236.227v.909a.231.231 0 0 1-.236.227Zm8.706 2.046a.231.231 0 0 1-.235.227H8a.231.231 0 0 1-.235-.227v-.91c0-.125.105-.227.235-.227h8c.13 0 .235.102.235.227v.91Zm2.353 0a.231.231 0 0 1-.235.227h-.941a.231.231 0 0 1-.235-.227v-.91c0-.125.105-.227.235-.227h.94c.13 0 .236.102.236.227v.91Zm0-2.273a.231.231 0 0 1-.235.227H16.47a.231.231 0 0 1-.236-.227v-.91c0-.125.106-.226.236-.226h1.882a.23.23 0 0 1 .235.227v.909Zm0-2.273a.231.231 0 0 1-.235.228h-.941a.231.231 0 0 1-.235-.228v-.909c0-.125.105-.227.235-.227h.94c.13 0 .236.102.236.227v.91Zm0-2.273a.231.231 0 0 1-.235.228h-.941a.231.231 0 0 1-.235-.228v-.909c0-.125.105-.227.235-.227h.94c.13 0 .236.102.236.227v.91Z"/></symbol><symbol viewBox="0 0 24 24" id="ic_Links"><path d="M10.397 9.09c.803.221 1.362.798 2.258.374.766-.363 1.426-.607 2.24-.37.766.223 1.353.77 2.2.39.35-.157.574-.255.67-.294.885-.355 1.7-.164 2.52.274.13.07.343.123.638.159.024.003.041.024.041.05v1.643c0 .03-.013.044-.04.043-.388-.016-.713-.086-.976-.21-.691-.326-1.221-.587-1.905-.25-.901.446-1.688.649-2.632.221a10.965 10.965 0 0 0-.713-.298c-.5-.186-.99-.025-1.506.233-.74.371-1.49.394-2.252.067-.665-.287-1.19-.576-1.928-.191-.874.456-1.746.577-2.575.206-.737-.332-1.2-.577-1.927-.215-.521.26-1.006.41-1.455.453-.037.003-.055-.015-.055-.056V9.673c0-.028.014-.044.04-.048.264-.038.431-.074.5-.106.8-.378 1.51-.676 2.374-.426.657.191 1.212.677 1.982.468.133-.036.4-.144.801-.324a2.447 2.447 0 0 1 1.7-.146ZM20.5 13.308H3.525a.5.5 0 1 0 0 1H20.5a.5.5 0 0 0 0-1Z"/></symbol><symbol viewBox="0 0 24 24" id="ic_Loupe"><path fill-rule="evenodd" d="M10.25 14.5a4.25 4.25 0 1 1-.103-8.5 4.25 4.25 0 0 1 .104 8.5Zm9.604 3.895L15.34 13.88a6.25 6.25 0 1 0-1.458 1.459l4.515 4.515a.502.502 0 0 0 .707 0l.751-.751a.502.502 0 0 0 0-.708Z"/></symbol><symbol viewBox="0 0 24 24" id="ic_Mode_Confort"><path fill-rule="evenodd" d="M18 4a2 2 0 0 1 2 2v12.221h-1.779v1.78H5.847A1.846 1.846 0 0 1 4 18.153V5.778h1.777V4H18ZM9.634 17.653a.471.471 0 0 0 .371.558.483.483 0 0 0 .574-.36s.813-3.945.976-3.945c.164 0 .975 3.945.975 3.945a.483.483 0 0 0 .574.36.471.471 0 0 0 .371-.558c-.842-5.682-.964-6.355-.98-6.76l-.002-.047v-.067l-.001-.048c0-.265 2.367-1.06 2.76-1.191l.056-.018a.392.392 0 0 0 .216-.208.375.375 0 0 0 .001-.296.4.4 0 0 0-.515-.208s-.77.293-1.595.576l-.353.12c-.648.214-1.266.395-1.505.395-.588 0-3.45-1.097-3.45-1.097a.406.406 0 0 0-.521.214.388.388 0 0 0 .214.51s2.577.97 2.817 1.203c.145.14-.062 1.672-.323 3.262l-.088.53a132.582 132.582 0 0 1-.57 3.122l-.002.008ZM18 5H6.778v.777h9.598a1.846 1.846 0 0 1 1.846 1.847v9.597H19V6a1 1 0 0 0-.884-.993L18 5Zm-6.447 2.555a.828.828 0 0 0-.84.817c0 .45.376.816.84.816.464 0 .84-.365.84-.816a.827.827 0 0 0-.84-.817Z"/></symbol><symbol viewBox="0 0 24 24" id="ic_Nav"><path fill-rule="evenodd" clip-rule="evenodd" d="M19.457 11.2A7.514 7.514 0 0 0 12.8 4.543V3h-1.6v1.543A7.513 7.513 0 0 0 4.543 11.2H3v1.6h1.543a7.513 7.513 0 0 0 6.657 6.657V21h1.6v-1.543a7.514 7.514 0 0 0 6.657-6.657H21v-1.6h-1.543Zm-1.51 1.6a6.013 6.013 0 0 1-5.147 5.147V16.5h-1.6v1.447A6.013 6.013 0 0 1 6.053 12.8H7.5v-1.6H6.053A6.013 6.013 0 0 1 11.2 6.053V7.5h1.6V6.053a6.013 6.013 0 0 1 5.147 5.147H16.5v1.6h1.447Z"/></symbol><symbol viewBox="0 0 24 24" id="ic_Pause"><path fill-rule="evenodd" d="M10.2 21H3V3h7.2v18ZM21 21h-7.2V3H21v18Z" clip-rule="evenodd"/></symbol><symbol viewBox="0 0 24 24" id="ic_Photo_Video"><path fill-rule="evenodd" d="M16.387 4H5.032c-.57.002-1.03.478-1.032 1.067V15.2c.002.588.463 1.065 1.032 1.067h1.549v-3.2H5.409a.383.383 0 0 1-.377-.39V7.59c0-.215.169-.389.377-.389h12.01V5.067c-.001-.589-.463-1.065-1.032-1.067ZM5.357 14.053h.46c.18 0 .325.15.325.336v.555a.33.33 0 0 1-.325.336h-.46a.32.32 0 0 1-.23-.098.342.342 0 0 1-.095-.238v-.555a.33.33 0 0 1 .325-.336Zm.897-8.236a.34.34 0 0 1-.095.238.32.32 0 0 1-.23.098h-.572a.32.32 0 0 1-.23-.098.342.342 0 0 1-.095-.238v-.555a.33.33 0 0 1 .325-.336h.572c.18 0 .325.15.325.336v.555Zm2.03-.02a.33.33 0 0 1-.325.336h-.537a.32.32 0 0 1-.23-.098.342.342 0 0 1-.095-.238v-.554a.34.34 0 0 1 .095-.238.32.32 0 0 1 .23-.098h.537c.18 0 .325.15.325.336v.554Zm2.064 0a.33.33 0 0 1-.325.336h-.537a.32.32 0 0 1-.23-.098.342.342 0 0 1-.095-.238v-.554c0-.09.035-.175.095-.238a.32.32 0 0 1 .23-.098h.537c.18 0 .325.15.325.336v.554Zm2.065 0a.34.34 0 0 1-.095.238.32.32 0 0 1-.23.098h-.537a.32.32 0 0 1-.23-.098.342.342 0 0 1-.095-.238v-.554a.34.34 0 0 1 .095-.238.32.32 0 0 1 .23-.098h.537c.18 0 .325.15.325.336v.554Zm2.064 0a.33.33 0 0 1-.325.336h-.537a.33.33 0 0 1-.325-.336v-.554a.33.33 0 0 1 .325-.336h.537c.18 0 .325.15.325.336v.554Zm2.065 0a.33.33 0 0 1-.325.336h-.537a.32.32 0 0 1-.23-.098.342.342 0 0 1-.095-.238v-.554a.34.34 0 0 1 .095-.238.32.32 0 0 1 .23-.098h.537c.18 0 .325.15.325.336v.554Zm3.452 2.888a1.05 1.05 0 0 0-1.026-.952H8.129c-.57.002-1.03.479-1.032 1.067v10.133c0 .59.462 1.066 1.032 1.067h10.839c.57-.002 1.03-.478 1.032-1.067V8.823c0-.046-.002-.092-.006-.138Zm-1.026 4.382v4.266l-1.58-1.874-1.902-2.257a.37.37 0 0 0-.556-.016l-2.223 2.375-.138.148a.369.369 0 0 1-.542 0l-.729-.779a.366.366 0 0 0-.52-.021l-1.484 1.358-1.165 1.066V8.8h10.839v4.267Zm-6.71-1.334c0-.736-.578-1.333-1.29-1.333-.713 0-1.29.597-1.29 1.333 0 .737.577 1.334 1.29 1.334.342 0 .67-.14.912-.39s.378-.59.378-.944Z"/></symbol><symbol viewBox="0 0 24 24" id="ic_Play"><path fill-rule="evenodd" d="M12.138 16.8 3 21.6V2.4l9.138 4.8L21 12l-8.862 4.8Z" clip-rule="evenodd"/></symbol><symbol viewBox="0 0 24 24" id="ic_Pointeur"><path fill-rule="evenodd" d="m18.948 11.663-2.316-3.11c-.337-.447-1.004-.543-1.49-.212-.36.245-.52.655-.44 1.034l-.27-.36c-.382-.507-1.144-.61-1.704-.23-.418.284-.604.758-.511 1.192l-.01.005-.118-.158c-.39-.518-1.168-.623-1.739-.235-.49.333-.667.922-.46 1.41L6.05 5.887c-.394-.524-1.16-.645-1.71-.27a1.129 1.129 0 0 0-.285 1.625l3.841 5.11a1.16 1.16 0 0 0 .005 1.27l2.093 3.192c.1.17.348.523.357.534l.02.026c1.697 2.186 4.93 2.681 7.262 1.097 2.306-1.567 2.875-4.583 1.316-6.809Z"/></symbol><symbol viewBox="0 0 24 24" id="ic_Police"><path fill-rule="evenodd" d="M12 4a2.57 2.57 0 0 1 1.62.543c.467.362.809.846 1.026 1.45l4.211 11.476c.095.271.143.644.143 1.115a1.37 1.37 0 0 1-.672 1.048c-.394.245-.85.368-1.368.368-.34 0-.643-.147-.908-.442a2.54 2.54 0 0 1-.566-1.02L15 16.82H9l-.371 1.344C8.3 19.388 7.769 20 7.035 20a2.49 2.49 0 0 1-1.344-.366 1.431 1.431 0 0 1-.69-1.05c0-.482.047-.854.142-1.114l4.21-11.477A3.169 3.169 0 0 1 10.38 4.55 2.551 2.551 0 0 1 12 4Zm.023 3.753L10.12 13.64h3.8l-1.897-5.887Z"/></symbol><symbol viewBox="0 0 24 24" id="ic_Read"><path fill-rule="evenodd" d="M8.412 6c2.385 0 4.327 1.845 4.408 4.15l.003 1.053 1.091 1.503a.372.372 0 0 1-.096.558.387.387 0 0 1-.205.057h-.79v2.038a.765.765 0 0 1-.773.754h-1.935V18H5.858a.765.765 0 0 1-.774-.755v-3.147a3.24 3.24 0 0 0-.282-1.322A4.209 4.209 0 0 1 4 10.302C4 7.926 5.975 6 8.412 6Zm7.077 6.798a.449.449 0 0 0-.388.221.435.435 0 0 0 .002.442 3.052 3.052 0 0 1-.035 3.16.434.434 0 0 0-.014.443.449.449 0 0 0 .777.017 3.924 3.924 0 0 0 .044-4.064.448.448 0 0 0-.386-.219ZM18.579 19a.448.448 0 0 1-.445-.442c0-.077.022-.154.061-.22a6.537 6.537 0 0 0-.012-6.673.435.435 0 0 1 .159-.604.45.45 0 0 1 .611.157 7.4 7.4 0 0 1 .015 7.564.448.448 0 0 1-.388.218Zm-1.44-.885a.453.453 0 0 1-.47-.16.437.437 0 0 1-.028-.49 4.787 4.787 0 0 0 0-4.905.435.435 0 0 1 .158-.606.447.447 0 0 1 .447-.003.449.449 0 0 1 .166.162 5.657 5.657 0 0 1 0 5.799.446.446 0 0 1-.273.203Z"/></symbol><symbol viewBox="0 0 24 24" id="ic_Reading_Ruler"><path fill-rule="evenodd" clip-rule="evenodd" d="M14.556 4v3c0 .552.394 1 .88 1h3.08l-3.96-4Zm.99 5a1.99 1.99 0 0 1-1.98-2V4h-7.92v7H3.35A1.35 1.35 0 0 0 2 12.35v3.3c0 .746.604 1.35 1.35 1.35h2.296v3c0 .552.443 1 .99 1h11.88v-4h2.134A1.35 1.35 0 0 0 22 15.65v-3.3A1.35 1.35 0 0 0 20.65 11h-2.134V9h-2.97ZM3.35 11.9a.45.45 0 0 0-.45.45v3.3c0 .248.201.45.45.45h17.3a.45.45 0 0 0 .45-.45v-3.3a.45.45 0 0 0-.45-.45H3.35Zm13.9 1.35H6.75a.75.75 0 0 0 0 1.5h10.5a.75.75 0 0 0 0-1.5Z"/></symbol><symbol viewBox="0 0 24 24" id="ic_Reduce"><path fill-rule="evenodd" d="M10.222 12.778h.033l.026.001.026.003.031.003.032.005.029.003.024.006.028.005.033.01.03.008.024.009.021.005.028.011.04.016.02.011.014.006.04.02.032.018.01.006.015.01.045.03.032.024.008.006c.061.05.114.102.16.158l.002.004.007.009.022.031.033.046.008.015.007.01.016.03.022.041.005.013.012.022.015.04.012.028.005.02.01.025.006.029.011.034.004.028.007.024.002.028.006.033.002.03.004.027-.001.025.002.034v5.333a1 1 0 0 1-2 0v-2.92l-4.515 4.516c-.36.36-.928.388-1.32.084l-.094-.084a1 1 0 0 1 0-1.414l4.515-4.516h-2.92a1 1 0 0 1-.993-.883l-.006-.116a1 1 0 0 1 1-1h5.333Zm9.071-9.485a1.002 1.002 0 0 1 1.632.325 1.002 1.002 0 0 1-.218 1.09l-4.516 4.514h2.92a1 1 0 0 1 .994.884l.006.116a1 1 0 0 1-1 1h-5.333l-.034-.002h-.025l-.027-.003-.03-.002-.033-.006-.027-.002-.026-.007-.028-.004-.033-.011-.029-.007-.025-.009-.02-.005-.028-.012-.04-.015-.022-.012-.013-.005-.04-.022-.031-.017-.01-.006-.015-.01-.047-.03-.03-.023-.01-.007a.988.988 0 0 1-.157-.157l-.004-.005-.006-.008-.023-.032-.032-.045-.009-.016-.005-.009-.018-.032-.021-.04-.006-.013-.01-.021-.017-.041-.01-.027-.007-.021-.01-.024-.006-.03-.01-.033-.005-.028-.006-.024-.003-.028-.005-.033-.003-.03-.003-.027V4.89a1 1 0 1 1 1.999 0v2.92l4.515-4.516Z"/></symbol><symbol viewBox="0 0 24 24" id="ic_Reduire_C+"><path d="m10.848 19.821 6.212-7.885-6.164-7.821a1.296 1.296 0 0 1 .24-1.84 1.353 1.353 0 0 1 1.875.234l6.641 8.428c.464.588.464 1.41 0 1.998l-6.69 8.492a1.353 1.353 0 0 1-1.875.235 1.296 1.296 0 0 1-.24-1.84Z"/><path d="M4.28 19.885 10.491 12 4.328 4.18a1.296 1.296 0 0 1 .24-1.84 1.353 1.353 0 0 1 1.874.234l6.642 8.428c.464.588.464 1.41 0 1.998l-6.69 8.492a1.353 1.353 0 0 1-1.875.235 1.296 1.296 0 0 1-.24-1.84Z"/></symbol><symbol viewBox="0 0 24 24" id="ic_Scroll"><path fill-rule="evenodd" clip-rule="evenodd" d="M17.834 11 12 5.167 6.167 11h11.667ZM6.167 13 12 18.833 17.833 13H6.167Z"/></symbol><symbol viewBox="0 0 24 24" id="ic_Settings"><path fill-rule="evenodd" d="M19.862 12.012c0-2.655 2.897-.646 1.548-3.902-1.35-3.257-1.977.211-3.855-1.666-1.877-1.877 1.592-2.504-1.664-3.853-3.257-1.349-1.249 1.547-3.903 1.547-2.655 0-.646-2.896-3.902-1.547-3.257 1.349.211 1.976-1.666 3.853-1.877 1.877-2.505-1.59-3.854 1.666-1.35 3.256 1.548 1.247 1.548 3.902 0 2.655-2.897.646-1.548 3.902 1.35 3.257 1.977-.211 3.854 1.665 1.877 1.877-1.591 2.505 1.666 3.854 3.256 1.349 1.247-1.547 3.902-1.547 2.654 0 .646 2.896 3.903 1.547 3.256-1.349-.213-1.977 1.664-3.854 1.878-1.876 2.505 1.592 3.855-1.665 1.349-3.256-1.548-1.247-1.548-3.902ZM12 7.224a4.8 4.8 0 1 1 0 9.6 4.8 4.8 0 0 1 0-9.6Z" clip-rule="evenodd"/></symbol><symbol viewBox="0 0 24 24" id="ic_Text"><path fill-rule="evenodd" d="M19.4 4a.6.6 0 0 1 .6.6v3.8a.6.6 0 0 1-.6.6h-.797a.6.6 0 0 1-.6-.6V6H13.01v12h2.396a.6.6 0 0 1 .6.6v.8a.6.6 0 0 1-.6.6H8.617a.6.6 0 0 1-.6-.6v-.8a.6.6 0 0 1 .6-.6h2.396V6H5.997v2.436a.6.6 0 0 1-.6.6H4.6a.6.6 0 0 1-.6-.6v-3.8c0-.126.039-.243.105-.34A.6.6 0 0 1 4.623 4H19.4Z"/></symbol><symbol viewBox="0 0 24 24" id="ic_Text_Color"><path fill-rule="evenodd" d="M13.157 4.374A1.883 1.883 0 0 0 12 4a1.868 1.868 0 0 0-1.157.377 2.18 2.18 0 0 0-.733.993l-3.008 7.89c-.068.18-.102.435-.102.767a.983.983 0 0 0 .494.722c.29.17.622.257.959.251.525 0 .905-.42 1.139-1.262l.265-.925h4.285l.348 1.183c.077.262.216.502.404.7.19.203.407.304.649.304.37 0 .695-.085.977-.253a.94.94 0 0 0 .48-.72c0-.325-.034-.58-.102-.767L13.89 5.37a2.15 2.15 0 0 0-.733-.996Zm-2.5 6.254 1.36-4.048 1.354 4.048h-2.714ZM4.631 17h14.737c.349 0 .632.283.632.632v.737a.631.631 0 0 1-.632.631H4.631A.632.632 0 0 1 4 18.37v-.737c0-.349.283-.632.631-.632Z" clip-rule="evenodd"/></symbol><symbol viewBox="0 0 24 24" id="ic_Text_Debut_Lign"><path fill-rule="evenodd" d="M11.632 6h7.736c.35 0 .632.283.632.632v.736a.632.632 0 0 1-.632.632h-7.736A.632.632 0 0 1 11 7.368v-.736c0-.35.283-.632.632-.632Zm-4 12h11.736c.35 0 .632.283.632.632v.736a.632.632 0 0 1-.632.632H7.632A.632.632 0 0 1 7 19.368v-.736c0-.35.283-.632.632-.632Zm0-8h11.736c.35 0 .632.283.632.632v.736a.632.632 0 0 1-.632.632H7.632A.632.632 0 0 1 7 11.368v-.736c0-.35.283-.632.632-.632Zm0 4h11.736c.35 0 .632.283.632.632v.736a.632.632 0 0 1-.632.632H7.632A.632.632 0 0 1 7 15.368v-.736c0-.35.283-.632.632-.632Zm-.913-7-2.54 2.117a.5.5 0 0 0 .641.768l3-2.5a.5.5 0 0 0 0-.769l-3-2.5a.5.5 0 0 0-.64.768L6.719 7Z"/></symbol><symbol viewBox="0 0 24 24" id="ic_Text_Espacement_Ligne"><path fill-rule="evenodd" d="m6 4 2 3H7v10H5V7H4l2-3Zm0 16-2-3h4l-2 3Zm4.631-15h8.738a.632.632 0 0 1 .631.632v.736a.631.631 0 0 1-.63.632h-8.74a.632.632 0 0 1-.63-.632v-.736A.631.631 0 0 1 10.63 5Zm0 12h8.738a.631.631 0 0 1 .631.632v.736a.631.631 0 0 1-.631.632H10.63a.632.632 0 0 1-.631-.632v-.736A.631.631 0 0 1 10.63 17Zm0-8h8.738a.632.632 0 0 1 .631.632v.737a.631.631 0 0 1-.631.631H10.63a.631.631 0 0 1-.63-.63v-.737A.631.631 0 0 1 10.63 9Zm0 4h8.738a.631.631 0 0 1 .631.631v.737a.631.631 0 0 1-.631.632H10.63a.631.631 0 0 1-.631-.632v-.737A.631.631 0 0 1 10.63 13Z"/></symbol><symbol viewBox="0 0 24 24" id="ic_Text_Marge"><path fill-rule="evenodd" d="M14.632 5h4.736c.35 0 .632.283.632.632v.736a.632.632 0 0 1-.632.632h-4.736A.632.632 0 0 1 14 6.368v-.736c0-.35.283-.632.632-.632Zm0 12h4.736c.35 0 .632.283.632.632v.736a.632.632 0 0 1-.632.632h-4.736a.632.632 0 0 1-.632-.632v-.736c0-.35.283-.632.632-.632Zm0-8h4.736c.35 0 .632.283.632.632v.736a.632.632 0 0 1-.632.632h-4.736a.632.632 0 0 1-.632-.632v-.736c0-.35.283-.632.632-.632Zm0 4h4.736c.35 0 .632.283.632.632v.736a.632.632 0 0 1-.632.632h-4.736a.632.632 0 0 1-.632-.632v-.736c0-.35.283-.632.632-.632Zm-4-9h.736c.35 0 .632.283.632.632v14.736a.632.632 0 0 1-.632.632h-.736a.632.632 0 0 1-.632-.632V4.632c0-.35.283-.632.632-.632Zm-3.913 8-2.54 2.117a.5.5 0 0 0 .641.768l3-2.5a.5.5 0 0 0 0-.769l-3-2.5a.5.5 0 0 0-.64.768L6.719 12Z"/></symbol><symbol viewBox="0 0 24 24" id="ic_Text_Size"><path fill-rule="evenodd" d="M19.369 6a.632.632 0 0 1 .631.632V9.43a.632.632 0 0 1-.631.631h-.36a.632.632 0 0 1-.632-.631V7.624H14.32v9.75h1.803a.632.632 0 0 1 .631.632v.362a.631.631 0 0 1-.631.632h-5.228a.632.632 0 0 1-.631-.632v-.362a.632.632 0 0 1 .631-.631h1.802v-9.75H8.622V9.46a.632.632 0 0 1-.631.631h-.36A.632.632 0 0 1 7 9.46v-2.8c0-.13.04-.251.107-.352A.632.632 0 0 1 7.65 6h11.72Zm-9.744 7c.125 0 .235.06.303.153l.03.05a.373.373 0 0 1 .042.172V14.5a.375.375 0 0 1-.749 0v-.751H7.378v4.5h.75a.375.375 0 1 1 0 .75H5.88a.375.375 0 1 1 0-.75h.748v-4.5h-1.88v.764a.374.374 0 1 1-.75 0v-1.126c0-.082.027-.16.077-.225A.373.373 0 0 1 4.384 13h5.242Z"/></symbol><symbol viewBox="0 0 24 24" id="ic_facilePlus"><path fill-rule="evenodd" clip-rule="evenodd" d="M11.256 9.769c-.195.317-.588.403-.88.194h-.001c-.64-.426-1.457-.578-2.195-.578-.737 0-1.555.152-2.195.577l.002-.001c-.292.212-.687.126-.882-.192-.193-.315-.111-.753.178-.962C6.125 8.207 7.188 8 8.18 8c.992 0 2.055.207 2.897.807.29.21.372.647.179.962ZM7.357 13.74a.6.6 0 0 0-.9 0 .744.744 0 0 0 .002.981C7.882 16.243 10.044 17 11.999 17c1.94 0 4.134-.753 5.542-2.28a.736.736 0 0 0 0-.979.6.6 0 0 0-.9 0c-1.198 1.248-3.014 1.874-4.642 1.874-1.63 0-3.441-.627-4.642-1.874ZM18.893 9.77c-.194.317-.587.403-.88.194-.638-.441-1.451-.578-2.195-.578-.738 0-1.555.152-2.195.577l.001-.001c-.292.212-.687.126-.882-.192-.192-.313-.107-.756.18-.963C13.76 8.22 14.839 8 15.819 8c1 0 2.051.196 2.899.809.292.212.371.642.176.96Z"/></symbol><symbol viewBox="0 0 24 24" id="ic_facilePlus_border"><path fill-rule="evenodd" clip-rule="evenodd" d="M12 20.889A8.889 8.889 0 1 0 12 3.11a8.889 8.889 0 0 0 0 17.778ZM12 22c5.523 0 10-4.477 10-10S17.523 2 12 2 2 6.477 2 12s4.477 10 10 10Zm-.649-11.914a.555.555 0 0 1-.767.156h-.002c-.558-.342-1.272-.464-1.915-.464-.644 0-1.357.122-1.916.463h.001a.556.556 0 1 1-.614-.926c.735-.482 1.663-.648 2.529-.648.866 0 1.793.166 2.528.648a.56.56 0 0 1 .156.77Zm-3.403 3.188a.555.555 0 1 0-.784.787c1.243 1.22 3.13 1.828 4.836 1.828 1.694 0 3.608-.605 4.837-1.83a.556.556 0 0 0-.785-.786c-1.046 1.002-2.631 1.505-4.052 1.505-1.423 0-3.004-.504-4.052-1.504Zm10.07-3.188a.556.556 0 0 1-.768.156c-.558-.354-1.267-.464-1.917-.464-.643 0-1.357.122-1.916.463h.002c-.255.17-.6.1-.77-.155a.565.565 0 0 1 .157-.773c.731-.47 1.673-.646 2.527-.646.874 0 1.79.157 2.53.649.256.17.325.515.155.77Z"/></symbol><symbol viewBox="0 0 24 24" id="ic_visionPlus"><path fill-rule="evenodd" clip-rule="evenodd" d="M21 12c-1.602-3.064-5.544-5-8.98-5C8.584 7 4.604 8.931 3 12c1.614 3.089 5.533 4.962 8.98 5 3.446-.038 7.403-1.907 9.02-5ZM8.372 12a3.6 3.6 0 0 1 6.833-1.586l-4.243 5.042A3.601 3.601 0 0 1 8.372 12Zm-3.964 0c.79-1.101 2.212-2.232 3.777-2.95a4.805 4.805 0 0 0-1.014 2.963 4.806 4.806 0 0 0 1.03 2.956c-1.479-.673-2.83-1.67-3.793-2.968Zm8.878 0c0 .69-.576 1.25-1.286 1.25-.71 0-1.286-.56-1.286-1.25s.576-1.25 1.286-1.25c.71 0 1.286.56 1.286 1.25Z"/></symbol><symbol viewBox="0 0 24 24" id="ic_visionPlus_border"><path fill-rule="evenodd" clip-rule="evenodd" d="M20.889 12A8.889 8.889 0 1 1 3.11 12a8.889 8.889 0 0 1 17.778 0ZM22 12c0 5.523-4.477 10-10 10S2 17.523 2 12 6.477 2 12 2s10 4.477 10 10Zm-2.222 0c-1.384-2.723-4.791-4.444-7.76-4.444-2.97 0-6.41 1.716-7.796 4.444 1.395 2.746 4.782 4.41 7.76 4.444 2.979-.033 6.399-1.694 7.796-4.444ZM8.865 12c0-1.767 1.393-3.2 3.112-3.2 1.226 0 2.286.73 2.793 1.79l-3.667 4.482C9.81 14.684 8.865 13.456 8.865 12ZM5.44 12c.683-.979 1.912-1.984 3.264-2.622a4.35 4.35 0 0 0-.876 2.633 4.35 4.35 0 0 0 .89 2.628c-1.278-.598-2.446-1.485-3.278-2.638Zm7.672 0a1.111 1.111 0 1 1-2.222 0 1.111 1.111 0 0 1 2.222 0Z"/></symbol></svg>