<svg xmlns="http://www.w3.org/2000/svg" xmlns:xlink="http://www.w3.org/1999/xlink"><symbol viewBox="0 0 24 24" id="ic_Accessibility"><path fill-rule="evenodd" d="M12.74 5.737a1.332 1.332 0 1 1-1.48-2.215 1.332 1.332 0 0 1 1.48 2.215Zm5.224.28a.628.628 0 0 1-.006 1.162s-4.468 1.5-4.468 1.972c0 .56.022.713.6 4.683.226 1.544.535 3.666.96 6.614a.767.767 0 0 1-1.5.322s-1.288-6.437-1.547-6.437c-.26 0-1.547 6.437-1.547 6.437a.767.767 0 0 1-1.5-.322c-.123.694 2.064-10.793 1.56-11.297-.38-.381-4.47-1.963-4.47-1.963a.639.639 0 0 1 .488-1.181s4.54 1.79 5.472 1.79c.931 0 5.478-1.78 5.478-1.78a.628.628 0 0 1 .48 0Z" clip-rule="evenodd"/></symbol><symbol viewBox="0 0 24 24" id="ic_Affichage"><path d="M5 5h14a1 1 0 0 1 1 1v10a1 1 0 0 1-1 1H5a1 1 0 0 1-1-1V6a1 1 0 0 1 1-1Zm6.646 11.354a.5.5 0 1 0 .708-.708.5.5 0 0 0-.708.708ZM5 15h14V6H5v9Zm8.5 4H16a.5.5 0 0 1 .5.5v.5h-9v-.5A.5.5 0 0 1 8 19h2.5v-1.5h3V19Z"/></symbol><symbol viewBox="0 0 24 24" id="ic_Agrandir_Zone_Cliquable"><path fill-rule="evenodd" d="M18 4a2 2 0 0 1 2 2v12a2 2 0 0 1-2 2H6a2 2 0 0 1-2-2V6a2 2 0 0 1 2-2h12Zm0 1H6a1 1 0 0 0-1 1v12a1 1 0 0 0 1 1h12a1 1 0 0 0 1-1V6a1 1 0 0 0-1-1Zm-6.647 7.549.052.046a.556.556 0 0 1 0 .785l-2.508 2.51 1.621-.001c.285 0 .52.214.552.49l.004.065a.556.556 0 0 1-.556.556h-2.98l-.014-.001-.015-.001-.017-.002-.018-.003-.015-.002-.014-.003-.016-.003-.018-.005-.017-.004-.013-.005-.012-.003-.015-.006-.022-.01-.012-.006-.008-.003-.021-.012-.019-.009-.013-.009-.025-.017-.022-.016a.561.561 0 0 1-.089-.088l-.005-.007-.012-.017-.019-.026-.004-.008-.004-.005-.009-.018-.013-.022-.002-.008-.007-.012-.008-.022-.007-.015-.002-.012-.006-.013-.003-.017-.006-.018-.003-.015-.003-.014-.002-.016-.003-.018-.001-.017L7 16.477v-2.995a.556.556 0 0 1 1.111 0v1.622l2.508-2.51c.2-.2.516-.215.734-.045ZM16.444 7l.02.001h.013l.015.002h.017l.018.004.015.002.014.003.016.003.018.006.017.003.013.006.012.002.015.007.022.008.012.007.008.002.022.013.018.009.005.004.008.004.026.019.017.011.005.005a.552.552 0 0 1 .088.087l.018.025.017.025.006.009.012.023.012.021.003.008.007.012.009.022.006.015.003.012.005.013.004.017.005.018.003.016.003.014.002.015.003.018.002.017.001.015v.014l.001.019v2.962a.556.556 0 1 1-1.111 0V8.897l-2.508 2.508a.556.556 0 0 1-.786-.785l2.509-2.509h-1.622a.556.556 0 0 1-.552-.49l-.004-.065c0-.307.249-.556.556-.556h2.962Z"/></symbol><symbol viewBox="0 0 24 24" id="ic_Audio"><path fill-rule="evenodd" d="m17.937 17.728-1.003-.856a6.373 6.373 0 0 0 0-8.744l1.003-.856a7.656 7.656 0 0 1 0 10.456ZM16.265 16.3l-1.004-.857a4.248 4.248 0 0 0 0-5.888l1.004-.857a5.53 5.53 0 0 1 0 7.602Zm-1.674-1.428-1.004-.857a2.128 2.128 0 0 0 0-3.032l1.004-.857a3.403 3.403 0 0 1 0 4.746Zm-9.702.66A.878.878 0 0 1 4 14.667v-4.334c0-.478.398-.866.889-.866h4l4-3.467v13l-4-3.467h-4Z"/></symbol><symbol viewBox="0 0 24 24" id="ic_Book"><path fill-rule="evenodd" d="M16.235 5.001c-1.588 0-3.032.407-4.235 1.132C10.797 5.408 9.353 5 7.765 5H3v10.552c0 .523.424.95.953.95l3.812.002c.847 0 1.655.141 2.372.44.535.224 1.472.89 1.472.89.18.123.237.165.391.165.154 0 .212-.042.391-.165 0 0 .937-.666 1.472-.89.717-.299 1.525-.441 2.372-.441h3.812a.963.963 0 0 0 .676-.28.94.94 0 0 0 .277-.671V5l-4.765.001Zm3.706 9.932c0 .29-.236.524-.53.526h-3.176c-1.059 0-1.936.169-2.784.523-.401.168-1.133.617-1.133.617a.57.57 0 0 1-.318.088.571.571 0 0 1-.318-.088s-.732-.45-1.133-.617c-.848-.354-1.725-.523-2.784-.523H4.588a.528.528 0 0 1-.53-.526v-.522h3.705c1.589 0 3.034.41 4.237 1.134 1.203-.725 2.647-1.132 4.235-1.132h3.706v.52ZM4.588 7.091h4.236c.29.003.523.237.523.523 0 .287-.233.52-.523.524H4.588a.527.527 0 0 1-.524-.524c0-.286.234-.52.524-.524Zm0 2.093h4.236c.292 0 .529.234.529.523a.526.526 0 0 1-.53.523H4.589a.526.526 0 0 1-.523-.523c0-.286.233-.52.523-.523Zm0 2.09h2.118c.293 0 .53.235.53.524 0 .29-.237.524-.53.524H4.588a.527.527 0 0 1-.524-.524c0-.287.234-.521.524-.524Zm12.253 1.418a.556.556 0 0 1-.386.152.575.575 0 0 1-.394-.15.532.532 0 0 1-.169-.42.547.547 0 0 1 .163-.402.544.544 0 0 1 .4-.164.555.555 0 0 1 .552.566.537.537 0 0 1-.166.418Zm1.384-3.518c-.08.154-.182.296-.304.42a22.37 22.37 0 0 1-.632.595 2.597 2.597 0 0 0-.202.207.845.845 0 0 0-.113.163.812.812 0 0 0-.057.148 5.9 5.9 0 0 0-.062.26c-.046.264-.193.395-.44.395a.445.445 0 0 1-.325-.129c-.087-.086-.131-.214-.131-.383 0-.213.032-.397.096-.553.06-.15.147-.29.256-.41a5.92 5.92 0 0 1 .43-.42c.158-.142.272-.249.343-.321.07-.072.13-.153.177-.241a.679.679 0 0 0-.148-.802.794.794 0 0 0-.569-.209c-.271 0-.472.07-.6.21-.128.142-.237.349-.326.622-.084.286-.244.43-.478.43a.464.464 0 0 1-.35-.15.465.465 0 0 1-.143-.326c0-.24.075-.484.226-.731.15-.247.37-.452.66-.614a2.033 2.033 0 0 1 1.011-.243c.358 0 .675.068.95.204.273.135.485.32.635.552.147.227.225.49.224.76 0 .215-.043.404-.128.566Z"/></symbol><symbol viewBox="0 0 24 24" id="ic_Brush"><path fill-rule="evenodd" d="M7.784 14.289c1.378 0 2.499 1.134 2.499 2.529 0 1.753-1.41 3.18-3.142 3.18-1.147 0-2.336-.602-3.028-1.534a.571.571 0 0 1 .458-.912c.19 0 .714-.174.714-.734 0-1.395 1.121-2.53 2.499-2.53Zm11.533-9.787.093.087c.785.787.787 2.06.004 2.848l-7.818 8.103a.571.571 0 0 1-.977-.316c-.077-.536-.712-1.159-1.307-1.28a.571.571 0 0 1-.31-.94l7.535-8.392a2.02 2.02 0 0 1 2.78-.11Z"/></symbol><symbol viewBox="0 0 24 24" id="ic_Click"><path fill-rule="evenodd" d="m8.206 9.642-3.14 3.141a3.652 3.652 0 0 0 0 5.155l.971.988A3.62 3.62 0 0 0 8.63 20a3.62 3.62 0 0 0 2.578-1.074l3.142-3.141a3.646 3.646 0 0 0 0-5.155l-.989-.989a3.652 3.652 0 0 0-5.155.001Zm3.357 2.04a.536.536 0 1 1 .757.757l-.747.762a.537.537 0 0 1-.757 0H10.8a.536.536 0 0 1 .006-.762l.757-.757Zm1.714-7.272-.012.066a.536.536 0 0 0 .473.601 5.762 5.762 0 0 1 5.187 5.128.537.537 0 0 0 .47.464l.067.003a.538.538 0 0 0 .537-.59 6.707 6.707 0 0 0-6.143-6.079.537.537 0 0 0-.58.407Zm.63 2.826a.537.537 0 0 0-.182.346l-.003.067a.537.537 0 0 0 .434.537 2.283 2.283 0 0 1 1.649 1.719c.054.273.308.46.585.43h.037a.537.537 0 0 0 .468-.613 3.222 3.222 0 0 0-2.55-2.61.537.537 0 0 0-.437.123v.001Z"/></symbol><symbol viewBox="0 0 24 24" id="ic_Decouper"><path fill-rule="evenodd" d="M15.298 5.875h4.07a.632.632 0 0 1 .632.632v.486a.632.632 0 0 1-.631.631h-4.07a.632.632 0 0 1-.633-.631v-.486a.631.631 0 0 1 .632-.632Zm0 10.5h4.07a.632.632 0 0 1 .632.631v.487a.632.632 0 0 1-.631.631h-4.07a.631.631 0 0 1-.633-.631v-.486a.631.631 0 0 1 .632-.632Zm0-7h4.07a.632.632 0 0 1 .632.632v.486a.631.631 0 0 1-.631.632h-4.07a.631.631 0 0 1-.633-.632v-.486a.631.631 0 0 1 .632-.632Zm0 3.5h4.07a.632.632 0 0 1 .632.631v.487a.632.632 0 0 1-.631.632h-4.07a.632.632 0 0 1-.633-.632v-.486a.631.631 0 0 1 .632-.632Zm-10.667-7h4.07a.632.632 0 0 1 .632.632v.486a.632.632 0 0 1-.631.631h-4.07A.632.632 0 0 1 4 6.993v-.486a.632.632 0 0 1 .631-.632Zm0 10.5h4.07a.632.632 0 0 1 .632.631v.487a.631.631 0 0 1-.631.631h-4.07A.631.631 0 0 1 4 17.493v-.486a.632.632 0 0 1 .631-.632Zm0-7h4.07a.632.632 0 0 1 .632.632v.486a.631.631 0 0 1-.631.632h-4.07A.631.631 0 0 1 4 10.493v-.486a.632.632 0 0 1 .631-.632Zm0 3.5h4.07a.632.632 0 0 1 .632.631v.487a.632.632 0 0 1-.631.632h-4.07A.632.632 0 0 1 4 13.993v-.486a.631.631 0 0 1 .631-.632ZM11.743 5h.514a.632.632 0 0 1 .632.632v12.736a.631.631 0 0 1-.632.632h-.514a.631.631 0 0 1-.632-.632V5.632A.632.632 0 0 1 11.743 5Z"/></symbol><symbol viewBox="0 0 24 24" id="ic_Disclosure_closed"><path fill-rule="evenodd" d="M21.6 6.6 12 18 2.4 6.6h19.2Z" clip-rule="evenodd"/></symbol><symbol viewBox="0 0 24 24" id="ic_Disclosure_opened"><path fill-rule="evenodd" d="M21.6 17.4 12 6 2.4 17.4h19.2Z" clip-rule="evenodd"/></symbol><symbol viewBox="0 0 24 24" id="ic_Dyslexic"><path fill-rule="evenodd" d="M12.648 4c.256 0 .512.018.767.038a7.64 7.64 0 0 1 1.239.194c1.162.285 2.183.822 3.044 1.644a7.1 7.1 0 0 1 1.347 1.794c.314.584.547 1.197.688 1.843.065.295.117.593.165.89.026.158.03.317.048.476.042.377.06.756.052 1.135l-.038 1.693-.016.762-.012.468-.002.098v.436h-.099c-.5 0-1.002.002-1.503-.002-.068 0-.093.024-.117.08a7.45 7.45 0 0 1-1.549 2.389 6.68 6.68 0 0 1-3.348 1.863c-.276.063-.56.102-.84.144a5.018 5.018 0 0 1-.502.042c-.228.009-.456.012-.684.012H4.003c-.001-.03-.003-.06-.003-.091V8.548l.003-.09h1.074V4.007c.035-.002.06-.004.085-.004C7.657 4 10.153 3.999 12.648 4ZM9.77 5.75H6.864v4.461H5.79v8.035h5.768c.189 0 .379-.008.567-.029.24-.026.48-.059.714-.109a4.884 4.884 0 0 0 2.831-1.72c.54-.66.901-1.41 1.138-2.22.044-.147.079-.297.12-.452h1.255c0-.197-.002-.385 0-.574.004-.238.008-.476.014-.714.014-.45.03-.9-.027-1.348-.027-.216-.038-.434-.078-.648a10.432 10.432 0 0 0-.194-.876c-.132-.47-.33-.92-.586-1.335-.667-1.098-1.6-1.869-2.867-2.22a7.624 7.624 0 0 0-.677-.155c-.172-.03-.348-.042-.522-.055-.217-.017-.435-.038-.653-.039L9.77 5.75Zm1.09 1.757c.65 0 1.298-.003 1.947.01.328.005.655.04.976.116.88.21 1.531.717 1.987 1.477.189.314.34.644.428.998.058.236.1.475.14.715.06.355.09.714.083 1.074 0 .02-.003.04-.004.067h-1.073c-.008.08-.016.152-.022.225-.015.192-.016.386-.046.575a12.27 12.27 0 0 1-.17.828 4.27 4.27 0 0 1-.646 1.45c-.48.703-1.135 1.163-1.982 1.349a5.36 5.36 0 0 1-.608.087c-.136.015-.274.014-.412.014H7.582v-4.527H8.66V7.603c0-.096 0-.097.096-.097h2.104Zm-.27 1.563c-.021 0-.042.003-.073.005v2.89H9.442v2.958a.483.483 0 0 0 .06.005c.592 0 1.183.002 1.775-.002.125 0 .25-.013.374-.036.423-.07.805-.294 1.074-.628.338-.415.502-.902.588-1.416.039-.226.044-.457.064-.686l.01-.043.007-.155h1.055c0-.189.003-.368-.002-.546a2.833 2.833 0 0 0-.03-.38c-.03-.186-.072-.37-.111-.553a2.351 2.351 0 0 0-.223-.594 1.351 1.351 0 0 0-.666-.62c-.326-.148-.674-.189-1.025-.195-.6-.012-1.201-.004-1.803-.004Z"/></symbol><symbol viewBox="0 0 24 24" id="ic_Eye"><path fill-rule="evenodd" d="m12.018 8 .215.002c3.335 0 6.674 2.38 7.767 4.498-1.093 2.118-4.468 4.497-7.803 4.497l-.215.003-.215-.003c-3.335 0-6.674-2.38-7.767-4.497 1.093-2.118 4.468-4.498 7.803-4.498L12.018 8Zm-.042 1.26c-1.768 0-3.2 1.45-3.2 3.24 0 1.79 1.432 3.24 3.2 3.24 1.767 0 3.2-1.45 3.2-3.24 0-1.79-1.432-3.24-3.2-3.24Zm3.325.533a4.358 4.358 0 0 1 .013 5.397 9.684 9.684 0 0 0 1.071-.57c.987-.607 1.833-1.372 2.363-2.12-.528-.75-1.37-1.516-2.348-2.122a9.47 9.47 0 0 0-1.1-.585Zm-6.692.052a9.661 9.661 0 0 0-.994.535c-.987.607-1.833 1.372-2.363 2.12l.118.162c.532.698 1.322 1.398 2.23 1.96.33.204.672.388 1.023.55a4.36 4.36 0 0 1-.014-5.327Zm3.286.512c1.104 0 2 .912 2 2.036s-.896 2.036-2 2.036c-1.105 0-2-.912-2-2.036s.895-2.036 2-2.036Z"/></symbol><symbol viewBox="0 0 24 24" id="ic_Form_Chevron_left"><path fill-rule="evenodd" d="m15 5-5 5-2 2 2 2 5 5 2-2-5-5 5-5-2-2Z" clip-rule="evenodd"/></symbol><symbol viewBox="0 0 24 24" id="ic_Form_Chevron_right"><path fill-rule="evenodd" d="m10 19 5-5 2-2-2-2-5-5-2 2 5 5-5 5 2 2Z" clip-rule="evenodd"/></symbol><symbol viewBox="0 0 24 24" id="ic_Form_Tick"><path fill-rule="evenodd" d="m18 6-8 8-3-3-2 2 3 3 2 2 2-2 8-8-2-2Z" clip-rule="evenodd"/></symbol><symbol viewBox="0 0 24 24" id="ic_Internet"><path fill-rule="evenodd" d="M18.505 14.747a7.015 7.015 0 0 1-.26.547H15.86c.208-.87.336-1.822.367-2.824h2.816a6.984 6.984 0 0 1-.54 2.277Zm-1.514 2.244a7.033 7.033 0 0 1-2.643 1.668c.5-.63.926-1.458 1.246-2.424h2.054c-.2.266-.418.518-.657.756Zm-3.93 1.645c-.195.156-.393.27-.59.34v-2.74h2.126a7.97 7.97 0 0 1-.434.98c-.323.612-.704 1.102-1.102 1.42Zm-.59-6.166h2.815a13.133 13.133 0 0 1-.302 2.438c-.03.13-.06.26-.094.386h-2.42V12.47Zm0-3.764h2.42a13.137 13.137 0 0 1 .396 2.824H12.47V8.705Zm0-3.681c.197.07.395.183.59.339.398.317.779.808 1.102 1.42.16.303.306.63.434.98h-2.126v-2.74Zm2.277.47a7.098 7.098 0 0 1 2.9 2.269h-2.054c-.32-.965-.745-1.792-1.246-2.424.134.048.268.1.4.155Zm3.497 3.21a6.983 6.983 0 0 1 .799 2.824h-2.816a14.024 14.024 0 0 0-.367-2.823h2.384Zm-6.716-.94H9.403a8.19 8.19 0 0 1 .434-.982c.324-.61.705-1.102 1.102-1.42.196-.155.393-.269.59-.338v2.74Zm0 3.764H8.714a13.133 13.133 0 0 1 .396-2.823h2.42v2.823Zm0 3.765H9.11a13.129 13.129 0 0 1-.396-2.824h2.816v2.824Zm0 3.681a2.042 2.042 0 0 1-.59-.34c-.397-.317-.778-.807-1.102-1.419a8.02 8.02 0 0 1-.434-.98h2.126v2.74Zm-2.276-.47a7.037 7.037 0 0 1-2.244-1.514 7.188 7.188 0 0 1-.657-.756h2.054c.32.966.746 1.793 1.246 2.424a7.022 7.022 0 0 1-.4-.155Zm-3.498-3.211a7.03 7.03 0 0 1-.798-2.824h2.815a14.04 14.04 0 0 0 .367 2.824H5.755Zm-.26-6.041c.08-.187.167-.37.26-.547H8.14c-.208.87-.336 1.822-.367 2.823H4.957c.051-.787.232-1.55.539-2.276ZM7.01 7.009A7.038 7.038 0 0 1 9.652 5.34c-.5.632-.926 1.46-1.246 2.424H6.352c.2-.265.419-.518.657-.755ZM12 3.999A8 8 0 1 0 12 20a8 8 0 0 0 0-16Z"/></symbol><symbol viewBox="0 0 24 24" id="ic_Keyboard"><path fill-rule="evenodd" d="M19.059 7H4.94c-.519 0-.94.407-.94.91v8.18c0 .503.421.91.941.91H19.06c.52 0 .941-.407.941-.91V7.91c0-.503-.421-.91-.941-.91Zm-4.236 1.136c0-.125.106-.227.236-.227H16c.13 0 .235.102.235.227v.91a.231.231 0 0 1-.235.227h-.941a.231.231 0 0 1-.236-.228v-.909Zm0 2.273c0-.125.106-.227.236-.227H16c.13 0 .235.102.235.227v.91a.231.231 0 0 1-.235.226h-.941a.231.231 0 0 1-.236-.227v-.909Zm.01 2.045c.13 0 .235.102.235.228v.909a.231.231 0 0 1-.235.227h-.941a.231.231 0 0 1-.236-.227v-.91c0-.125.106-.226.236-.226h.94ZM12.47 8.137c0-.125.105-.227.235-.227h.941c.13 0 .235.102.235.227v.91a.231.231 0 0 1-.235.227h-.941a.231.231 0 0 1-.235-.228v-.909Zm0 2.273c0-.125.105-.227.235-.227h.941c.13 0 .235.102.235.227v.91a.231.231 0 0 1-.235.226h-.941a.231.231 0 0 1-.235-.227v-.909Zm.009 2.045c.13 0 .235.102.235.228v.909a.231.231 0 0 1-.235.227h-.941a.231.231 0 0 1-.236-.227v-.91c0-.125.106-.226.236-.226h.941Zm-2.362-4.318c0-.125.105-.227.235-.227h.941c.13 0 .235.102.235.227v.91a.231.231 0 0 1-.235.227h-.941a.231.231 0 0 1-.235-.228v-.909Zm0 2.273c0-.125.105-.227.235-.227h.941c.13 0 .235.102.235.227v.91a.231.231 0 0 1-.235.226h-.941a.231.231 0 0 1-.235-.227v-.909Zm.01 2.045c.129 0 .234.102.234.228v.909a.231.231 0 0 1-.235.227h-.941a.231.231 0 0 1-.235-.227v-.91a.23.23 0 0 1 .235-.226h.941ZM7.764 8.137c0-.125.105-.227.235-.227h.941c.13 0 .235.102.235.227v.91a.231.231 0 0 1-.235.227H8a.231.231 0 0 1-.235-.228v-.909Zm0 2.273c0-.125.105-.227.235-.227h.941c.13 0 .235.102.235.227v.91a.231.231 0 0 1-.235.226H8a.231.231 0 0 1-.235-.227v-.909ZM5.412 8.136c0-.125.105-.227.235-.227h.941c.13 0 .236.102.236.227v.91a.231.231 0 0 1-.236.227h-.94a.231.231 0 0 1-.236-.228v-.909Zm0 2.273c0-.125.105-.227.235-.227h.941c.13 0 .236.102.236.227v.91a.231.231 0 0 1-.236.226h-.94a.231.231 0 0 1-.236-.227v-.909Zm1.412 5.455a.231.231 0 0 1-.236.227h-.94a.231.231 0 0 1-.236-.227v-.91c0-.125.105-.227.235-.227h.941c.13 0 .236.102.236.227v.91Zm.705-2.046H5.647a.231.231 0 0 1-.235-.227v-.91a.23.23 0 0 1 .235-.226H7.53c.13 0 .236.101.236.227v.909a.231.231 0 0 1-.236.227Zm8.706 2.046a.231.231 0 0 1-.235.227H8a.231.231 0 0 1-.235-.227v-.91c0-.125.105-.227.235-.227h8c.13 0 .235.102.235.227v.91Zm2.353 0a.231.231 0 0 1-.235.227h-.941a.231.231 0 0 1-.235-.227v-.91c0-.125.105-.227.235-.227h.94c.13 0 .236.102.236.227v.91Zm0-2.273a.231.231 0 0 1-.235.227H16.47a.231.231 0 0 1-.236-.227v-.91c0-.125.106-.226.236-.226h1.882a.23.23 0 0 1 .235.227v.909Zm0-2.273a.231.231 0 0 1-.235.228h-.941a.231.231 0 0 1-.235-.228v-.909c0-.125.105-.227.235-.227h.94c.13 0 .236.102.236.227v.91Zm0-2.273a.231.231 0 0 1-.235.228h-.941a.231.231 0 0 1-.235-.228v-.909c0-.125.105-.227.235-.227h.94c.13 0 .236.102.236.227v.91Z"/></symbol><symbol viewBox="0 0 24 24" id="ic_Minus_small"><path d="M6.984 10.992h9.984v1.997H6.984v-1.997Z"/></symbol><symbol viewBox="0 0 24 24" id="ic_Mode_Confort"><path fill-rule="evenodd" d="M18 4a2 2 0 0 1 2 2v12.221h-1.779v1.78H5.847A1.846 1.846 0 0 1 4 18.153V5.778h1.777V4H18ZM9.634 17.653a.471.471 0 0 0 .371.558.483.483 0 0 0 .574-.36s.813-3.945.976-3.945c.164 0 .975 3.945.975 3.945a.483.483 0 0 0 .574.36.471.471 0 0 0 .371-.558c-.842-5.682-.964-6.355-.98-6.76l-.002-.047v-.067l-.001-.048c0-.265 2.367-1.06 2.76-1.191l.056-.018a.392.392 0 0 0 .216-.208.375.375 0 0 0 .001-.296.4.4 0 0 0-.515-.208s-.77.293-1.595.576l-.353.12c-.648.214-1.266.395-1.505.395-.588 0-3.45-1.097-3.45-1.097a.406.406 0 0 0-.521.214.388.388 0 0 0 .214.51s2.577.97 2.817 1.203c.145.14-.062 1.672-.323 3.262l-.088.53a132.582 132.582 0 0 1-.57 3.122l-.002.008ZM18 5H6.778v.777h9.598a1.846 1.846 0 0 1 1.846 1.847v9.597H19V6a1 1 0 0 0-.884-.993L18 5Zm-6.447 2.555a.828.828 0 0 0-.84.817c0 .45.376.816.84.816.464 0 .84-.365.84-.816a.827.827 0 0 0-.84-.817Z"/></symbol><symbol viewBox="0 0 24 24" id="ic_Nav"><path fill-rule="evenodd" clip-rule="evenodd" d="M19.457 11.2A7.514 7.514 0 0 0 12.8 4.543V3h-1.6v1.543A7.513 7.513 0 0 0 4.543 11.2H3v1.6h1.543a7.513 7.513 0 0 0 6.657 6.657V21h1.6v-1.543a7.514 7.514 0 0 0 6.657-6.657H21v-1.6h-1.543Zm-1.51 1.6a6.013 6.013 0 0 1-5.147 5.147V16.5h-1.6v1.447A6.013 6.013 0 0 1 6.053 12.8H7.5v-1.6H6.053A6.013 6.013 0 0 1 11.2 6.053V7.5h1.6V6.053a6.013 6.013 0 0 1 5.147 5.147H16.5v1.6h1.447Z"/></symbol><symbol viewBox="0 0 24 24" id="ic_Pause"><path fill-rule="evenodd" d="M10.2 21H3V3h7.2v18ZM21 21h-7.2V3H21v18Z" clip-rule="evenodd"/></symbol><symbol viewBox="0 0 24 24" id="ic_Photo_Video"><path fill-rule="evenodd" d="M16.387 4H5.032c-.57.002-1.03.478-1.032 1.067V15.2c.002.588.463 1.065 1.032 1.067h1.549v-3.2H5.409a.383.383 0 0 1-.377-.39V7.59c0-.215.169-.389.377-.389h12.01V5.067c-.001-.589-.463-1.065-1.032-1.067ZM5.357 14.053h.46c.18 0 .325.15.325.336v.555a.33.33 0 0 1-.325.336h-.46a.32.32 0 0 1-.23-.098.342.342 0 0 1-.095-.238v-.555a.33.33 0 0 1 .325-.336Zm.897-8.236a.34.34 0 0 1-.095.238.32.32 0 0 1-.23.098h-.572a.32.32 0 0 1-.23-.098.342.342 0 0 1-.095-.238v-.555a.33.33 0 0 1 .325-.336h.572c.18 0 .325.15.325.336v.555Zm2.03-.02a.33.33 0 0 1-.325.336h-.537a.32.32 0 0 1-.23-.098.342.342 0 0 1-.095-.238v-.554a.34.34 0 0 1 .095-.238.32.32 0 0 1 .23-.098h.537c.18 0 .325.15.325.336v.554Zm2.064 0a.33.33 0 0 1-.325.336h-.537a.32.32 0 0 1-.23-.098.342.342 0 0 1-.095-.238v-.554c0-.09.035-.175.095-.238a.32.32 0 0 1 .23-.098h.537c.18 0 .325.15.325.336v.554Zm2.065 0a.34.34 0 0 1-.095.238.32.32 0 0 1-.23.098h-.537a.32.32 0 0 1-.23-.098.342.342 0 0 1-.095-.238v-.554a.34.34 0 0 1 .095-.238.32.32 0 0 1 .23-.098h.537c.18 0 .325.15.325.336v.554Zm2.064 0a.33.33 0 0 1-.325.336h-.537a.33.33 0 0 1-.325-.336v-.554a.33.33 0 0 1 .325-.336h.537c.18 0 .325.15.325.336v.554Zm2.065 0a.33.33 0 0 1-.325.336h-.537a.32.32 0 0 1-.23-.098.342.342 0 0 1-.095-.238v-.554a.34.34 0 0 1 .095-.238.32.32 0 0 1 .23-.098h.537c.18 0 .325.15.325.336v.554Zm3.452 2.888a1.05 1.05 0 0 0-1.026-.952H8.129c-.57.002-1.03.479-1.032 1.067v10.133c0 .59.462 1.066 1.032 1.067h10.839c.57-.002 1.03-.478 1.032-1.067V8.823c0-.046-.002-.092-.006-.138Zm-1.026 4.382v4.266l-1.58-1.874-1.902-2.257a.37.37 0 0 0-.556-.016l-2.223 2.375-.138.148a.369.369 0 0 1-.542 0l-.729-.779a.366.366 0 0 0-.52-.021l-1.484 1.358-1.165 1.066V8.8h10.839v4.267Zm-6.71-1.334c0-.736-.578-1.333-1.29-1.333-.713 0-1.29.597-1.29 1.333 0 .737.577 1.334 1.29 1.334.342 0 .67-.14.912-.39s.378-.59.378-.944Z"/></symbol><symbol viewBox="0 0 24 24" id="ic_Play"><path fill-rule="evenodd" d="M12.138 16.8 3 21.6V2.4l9.138 4.8L21 12l-8.862 4.8Z" clip-rule="evenodd"/></symbol><symbol viewBox="0 0 24 24" id="ic_Plus_small"><path d="M18.984 10.989h-5.997V4.992H10.99v5.997H4.992v1.998h5.997v5.997h1.998v-5.997h5.997V10.99Z"/></symbol><symbol viewBox="0 0 24 24" id="ic_Reduce"><path fill-rule="evenodd" d="M10.222 12.778h.033l.026.001.026.003.031.003.032.005.029.003.024.006.028.005.033.01.03.008.024.009.021.005.028.011.04.016.02.011.014.006.04.02.032.018.01.006.015.01.045.03.032.024.008.006c.061.05.114.102.16.158l.002.004.007.009.022.031.033.046.008.015.007.01.016.03.022.041.005.013.012.022.015.04.012.028.005.02.01.025.006.029.011.034.004.028.007.024.002.028.006.033.002.03.004.027-.001.025.002.034v5.333a1 1 0 0 1-2 0v-2.92l-4.515 4.516c-.36.36-.928.388-1.32.084l-.094-.084a1 1 0 0 1 0-1.414l4.515-4.516h-2.92a1 1 0 0 1-.993-.883l-.006-.116a1 1 0 0 1 1-1h5.333Zm9.071-9.485a1.002 1.002 0 0 1 1.632.325 1.002 1.002 0 0 1-.218 1.09l-4.516 4.514h2.92a1 1 0 0 1 .994.884l.006.116a1 1 0 0 1-1 1h-5.333l-.034-.002h-.025l-.027-.003-.03-.002-.033-.006-.027-.002-.026-.007-.028-.004-.033-.011-.029-.007-.025-.009-.02-.005-.028-.012-.04-.015-.022-.012-.013-.005-.04-.022-.031-.017-.01-.006-.015-.01-.047-.03-.03-.023-.01-.007a.988.988 0 0 1-.157-.157l-.004-.005-.006-.008-.023-.032-.032-.045-.009-.016-.005-.009-.018-.032-.021-.04-.006-.013-.01-.021-.017-.041-.01-.027-.007-.021-.01-.024-.006-.03-.01-.033-.005-.028-.006-.024-.003-.028-.005-.033-.003-.03-.003-.027V4.89a1 1 0 1 1 1.999 0v2.92l4.515-4.516Z"/></symbol><symbol viewBox="0 0 24 24" id="ic_Reduire_C+"><path d="m10.848 19.821 6.212-7.885-6.164-7.821a1.296 1.296 0 0 1 .24-1.84 1.353 1.353 0 0 1 1.875.234l6.641 8.428c.464.588.464 1.41 0 1.998l-6.69 8.492a1.353 1.353 0 0 1-1.875.235 1.296 1.296 0 0 1-.24-1.84Z"/><path d="M4.28 19.885 10.491 12 4.328 4.18a1.296 1.296 0 0 1 .24-1.84 1.353 1.353 0 0 1 1.874.234l6.642 8.428c.464.588.464 1.41 0 1.998l-6.69 8.492a1.353 1.353 0 0 1-1.875.235 1.296 1.296 0 0 1-.24-1.84Z"/></symbol><symbol viewBox="0 0 24 24" id="ic_Settings"><path fill-rule="evenodd" d="M19.862 12.012c0-2.655 2.897-.646 1.548-3.902-1.35-3.257-1.977.211-3.855-1.666-1.877-1.877 1.592-2.504-1.664-3.853-3.257-1.349-1.249 1.547-3.903 1.547-2.655 0-.646-2.896-3.902-1.547-3.257 1.349.211 1.976-1.666 3.853-1.877 1.877-2.505-1.59-3.854 1.666-1.35 3.256 1.548 1.247 1.548 3.902 0 2.655-2.897.646-1.548 3.902 1.35 3.257 1.977-.211 3.854 1.665 1.877 1.877-1.591 2.505 1.666 3.854 3.256 1.349 1.247-1.547 3.902-1.547 2.654 0 .646 2.896 3.903 1.547 3.256-1.349-.213-1.977 1.664-3.854 1.878-1.876 2.505 1.592 3.855-1.665 1.349-3.256-1.548-1.247-1.548-3.902ZM12 7.224a4.8 4.8 0 1 1 0 9.6 4.8 4.8 0 0 1 0-9.6Z" clip-rule="evenodd"/></symbol><symbol viewBox="0 0 24 24" id="ic_Text"><path fill-rule="evenodd" d="M19.4 4a.6.6 0 0 1 .6.6v3.8a.6.6 0 0 1-.6.6h-.797a.6.6 0 0 1-.6-.6V6H13.01v12h2.396a.6.6 0 0 1 .6.6v.8a.6.6 0 0 1-.6.6H8.617a.6.6 0 0 1-.6-.6v-.8a.6.6 0 0 1 .6-.6h2.396V6H5.997v2.436a.6.6 0 0 1-.6.6H4.6a.6.6 0 0 1-.6-.6v-3.8c0-.126.039-.243.105-.34A.6.6 0 0 1 4.623 4H19.4Z"/></symbol><symbol viewBox="0 0 24 24" id="ic_Text_Color"><path fill-rule="evenodd" d="M13.157 4.374A1.883 1.883 0 0 0 12 4a1.868 1.868 0 0 0-1.157.377 2.18 2.18 0 0 0-.733.993l-3.008 7.89c-.068.18-.102.435-.102.767a.983.983 0 0 0 .494.722c.29.17.622.257.959.251.525 0 .905-.42 1.139-1.262l.265-.925h4.285l.348 1.183c.077.262.216.502.404.7.19.203.407.304.649.304.37 0 .695-.085.977-.253a.94.94 0 0 0 .48-.72c0-.325-.034-.58-.102-.767L13.89 5.37a2.15 2.15 0 0 0-.733-.996Zm-2.5 6.254 1.36-4.048 1.354 4.048h-2.714ZM4.631 17h14.737c.349 0 .632.283.632.632v.737a.631.631 0 0 1-.632.631H4.631A.632.632 0 0 1 4 18.37v-.737c0-.349.283-.632.631-.632Z" clip-rule="evenodd"/></symbol><symbol viewBox="0 0 24 24" id="ic_Text_Debut_Lign"><path fill-rule="evenodd" d="M11.632 6h7.736c.35 0 .632.283.632.632v.736a.632.632 0 0 1-.632.632h-7.736A.632.632 0 0 1 11 7.368v-.736c0-.35.283-.632.632-.632Zm-4 12h11.736c.35 0 .632.283.632.632v.736a.632.632 0 0 1-.632.632H7.632A.632.632 0 0 1 7 19.368v-.736c0-.35.283-.632.632-.632Zm0-8h11.736c.35 0 .632.283.632.632v.736a.632.632 0 0 1-.632.632H7.632A.632.632 0 0 1 7 11.368v-.736c0-.35.283-.632.632-.632Zm0 4h11.736c.35 0 .632.283.632.632v.736a.632.632 0 0 1-.632.632H7.632A.632.632 0 0 1 7 15.368v-.736c0-.35.283-.632.632-.632Zm-.913-7-2.54 2.117a.5.5 0 0 0 .641.768l3-2.5a.5.5 0 0 0 0-.769l-3-2.5a.5.5 0 0 0-.64.768L6.719 7Z"/></symbol><symbol viewBox="0 0 24 24" id="ic_audioPlus"><path d="M9.593 20.962c-.497-.085-.94-.35-1.19-.712-.191-.277-.208-.338-.185-.662.03-.41.23-.675.599-.795.246-.08.405-.03.958.298.445.263.735.267 1.247.015.254-.125.529-.34.821-.643.512-.53.713-.815 1.58-2.229.783-1.277 1.026-1.592 2.002-2.595 1.271-1.305 1.562-1.844 1.726-3.202.183-1.519-.345-2.95-1.515-4.103-.783-.77-1.398-1.122-2.464-1.408-.617-.166-1.83-.15-2.475.033-1.843.521-3.406 1.98-3.723 3.475-.122.579-.136.606-.349.693-.292.119-1.215.05-1.429-.106-.216-.159-.254-.532-.11-1.09.218-.85.755-1.738 1.538-2.545C8.18 3.782 10.35 2.88 12.328 3.013c2.701.183 4.826 1.487 5.92 3.631.537 1.052.752 1.998.752 3.318 0 1.975-.541 3.172-2.271 5.018-1.617 1.725-1.722 1.867-2.705 3.66-.478.874-1.16 1.588-1.802 1.887-.803.374-1.914.558-2.63.435Zm4.167-8.969c-.255-.091-.445-.193-.428-.23.668-1.419.768-2.448.302-3.103-.441-.62-1.547-.863-2.274-.5-.324.162-.97.74-1.236 1.106L10 9.438l-.528-.093c-.291-.052-.542-.106-.558-.122-.055-.055.181-.647.372-.93.29-.43.842-.882 1.431-1.17.497-.244.566-.26 1.17-.282.764-.028 1.214.053 1.748.316 1.534.753 2.01 2.689 1.098 4.459-.186.36-.303.52-.39.529-.068.007-.33-.061-.582-.152Z"/></symbol><symbol viewBox="0 0 24 24" id="ic_audioPlus_border"><path fill-rule="evenodd" clip-rule="evenodd" d="M20.889 12A8.889 8.889 0 1 1 3.11 12a8.889 8.889 0 0 1 17.778 0ZM22 12c0 5.523-4.477 10-10 10S2 17.523 2 12 6.477 2 12 2s10 4.477 10 10ZM8.917 19.375c.215.302.594.522 1.02.593.613.103 1.565-.05 2.254-.362.55-.25 1.134-.844 1.544-1.572.842-1.495.932-1.613 2.318-3.05 1.483-1.539 1.948-2.537 1.947-4.182 0-1.1-.184-1.889-.644-2.765-.938-1.787-2.76-2.873-5.075-3.026-1.695-.112-3.554.64-4.89 1.978-.67.672-1.13 1.412-1.318 2.12-.123.465-.09.776.095.909.183.13.974.187 1.225.088.182-.073.194-.095.3-.577.27-1.246 1.61-2.462 3.19-2.897.554-.152 1.592-.165 2.122-.027.913.239 1.44.531 2.111 1.174 1.003.96 1.456 2.153 1.299 3.419-.14 1.131-.39 1.58-1.48 2.668-.836.836-1.044 1.098-1.715 2.162-.743 1.179-.916 1.416-1.354 1.858-.251.252-.486.431-.704.536-.439.21-.688.206-1.069-.013-.474-.273-.61-.315-.821-.248-.317.1-.488.32-.513.662-.02.27-.006.321.158.552Zm4.225-7.072c-.015.03.148.115.367.191.216.076.44.132.499.127.074-.008.174-.14.334-.441.782-1.475.374-3.089-.941-3.716-.458-.219-.844-.287-1.498-.264-.518.019-.577.033-1.003.235-.506.24-.98.617-1.228.976-.163.236-.365.73-.318.775.014.013.229.058.478.101l.453.078.107-.143c.229-.306.782-.787 1.06-.922.623-.302 1.57-.1 1.949.417.399.545.313 1.403-.259 2.586Z"/></symbol><symbol viewBox="0 0 24 24" id="ic_calme"><path d="M17.237 14.995c-1.124-.094-2.16-.627-3.127-1.166-.704-.428-1.353-.942-1.995-1.45-1.332 1.222-2.933 2.277-4.778 2.502-1.372.214-2.898-.236-3.72-1.386-.597-.733-.82-1.774-.403-2.641.573-1.35 2.183-2.037 3.605-1.812 1.9.231 3.622 1.463 5.009 2.693.373-.325.886-.893 1.407-1.215 1.35-1.047 3.101-1.769 4.841-1.432 1.167.31 2.337 1.067 2.771 2.225.301.821.16 1.783-.446 2.439-.752.918-1.997 1.295-3.164 1.243ZM6.865 14.46c1.587-.214 3.011-1.035 4.193-2.074 0 0 .229-.21.527-.51-1.025-1.036-2.667-2.105-4.01-2.408-1.422-.28-3.012.382-3.738 1.632-.591 1.18-.018 2.89 1.334 3.26.548.18 1.127.143 1.694.1Zm10.615-.031c1.222-.14 2.55-.845 2.837-2.117.24-.913-.15-1.942-.987-2.424-1.074-.668-2.461-.577-3.579-.063-1.285.545-2.435 1.375-3.41 2.356.99.976 2.2 1.774 3.546 2.18.522.13 1.063.113 1.593.068Z"/></symbol><symbol viewBox="0 0 24 24" id="ic_calme_border"><path fill-rule="evenodd" clip-rule="evenodd" d="M20.889 12A8.889 8.889 0 1 1 3.11 12a8.889 8.889 0 0 1 17.778 0ZM22 12c0 5.523-4.477 10-10 10S2 17.523 2 12 6.477 2 12 2s10 4.477 10 10Zm-8.408 1.496c.835.502 1.73 1 2.7 1.087 1.008.048 2.083-.303 2.733-1.158.522-.611.645-1.506.385-2.271-.375-1.079-1.385-1.783-2.393-2.072-1.502-.314-3.015.358-4.18 1.333-.314.21-.625.531-.894.81-.116.119-.224.23-.32.322-1.198-1.145-2.686-2.293-4.326-2.508-1.227-.21-2.617.43-3.112 1.687-.36.807-.168 1.777.347 2.46.71 1.07 2.028 1.49 3.213 1.29 1.592-.21 2.975-1.192 4.125-2.329l.014.012c.55.47 1.106.942 1.708 1.337Zm-2.635-1.344c-1.02.967-2.25 1.732-3.62 1.932-.49.04-.99.074-1.462-.093-1.168-.346-1.663-1.937-1.153-3.037.628-1.163 2-1.78 3.228-1.519 1.16.282 2.577 1.278 3.462 2.242-.257.279-.455.475-.455.475Zm7.995-.069c-.247 1.185-1.395 1.841-2.45 1.971-.457.043-.925.059-1.375-.063-1.162-.378-2.207-1.121-3.062-2.03.842-.914 1.835-1.687 2.945-2.194.965-.478 2.162-.563 3.09.059.722.448 1.06 1.407.852 2.257Z"/></symbol><symbol viewBox="0 0 24 24" id="ic_capitalLetters"><path d="M9.773 5.475A1.89 1.89 0 0 0 8.5 5c-.482 0-.907.16-1.273.48-.367.321-.636.742-.806 1.264L3.112 16.786c-.075.227-.112.553-.112.975.022.19.082.37.176.53.094.159.22.292.367.389.308.213.66.32 1.055.32.578 0 .995-.535 1.253-1.607l.292-1.175h4.714l.382 1.503c.084.332.236.637.444.892.21.258.448.387.714.387.407 0 .766-.108 1.075-.322.31-.215.486-.52.528-.917 0-.412-.038-.738-.112-.976l-3.31-10.04c-.17-.53-.438-.953-.805-1.27Zm-2.75 7.96 1.495-5.151 1.49 5.151H7.024Zm8.465.558c-.175.242-.274.547-.297.915h1.69c.032-.309.143-.53.333-.662.19-.132.453-.198.786-.198.15 0 .29.01.417.033.135.015.25.051.345.11a.538.538 0 0 1 .238.232.712.712 0 0 1 .095.397c.008.162-.043.287-.154.375-.112.08-.262.143-.453.187-.19.045-.409.078-.655.1-.246.022-.496.051-.75.088a6.977 6.977 0 0 0-.762.154 2.2 2.2 0 0 0-.666.276c-.19.125-.35.294-.476.507-.12.206-.179.47-.179.794 0 .295.052.548.155.762.11.213.262.39.452.529.19.14.413.243.667.309.254.066.528.099.821.099.381 0 .754-.052 1.12-.154a2.24 2.24 0 0 0 .952-.54c.008.095.02.19.035.286.024.088.052.176.084.265H21c-.08-.118-.135-.294-.167-.53a5.534 5.534 0 0 1-.047-.739v-2.967c0-.345-.084-.621-.25-.827a1.667 1.667 0 0 0-.643-.496 2.928 2.928 0 0 0-.87-.232 6.83 6.83 0 0 0-.94-.066c-.34 0-.682.033-1.023.1a2.945 2.945 0 0 0-.905.308 1.97 1.97 0 0 0-.667.585Zm3.333 2.217a.844.844 0 0 0 .274-.144v.585c0 .088-.012.206-.035.353a1.092 1.092 0 0 1-.155.44c-.088.14-.223.262-.405.365-.183.103-.44.154-.774.154-.135 0-.266-.01-.393-.033a1.089 1.089 0 0 1-.333-.11.658.658 0 0 1-.226-.232.693.693 0 0 1-.084-.353c0-.147.028-.268.084-.364a.697.697 0 0 1 .214-.231c.095-.067.203-.118.322-.155.127-.037.254-.066.38-.088.135-.022.27-.04.405-.055a5.197 5.197 0 0 0 .726-.132Z"/></symbol><symbol viewBox="0 0 24 24" id="ic_clearlyLinks"><path d="M1.5 4.688c0-.518.42-.938.938-.938h9.75a.937.937 0 1 1 0 1.875h-9.75a.937.937 0 0 1-.938-.938Zm0 4.875c0-.518.42-.938.938-.938h17.625a.937.937 0 1 1 0 1.875H2.438a.937.937 0 0 1-.938-.938Zm.938 3.937a.937.937 0 1 0 0 1.875H4.5c0 .621.504 1.125 1.125 1.125H12c.621 0 1.125-.504 1.125-1.125h6.938a.937.937 0 1 0 0-1.875h-6.938v-.375c0-.621-.504-1.125-1.125-1.125H5.625c-.621 0-1.125.504-1.125 1.125v.375H2.437ZM1.5 19.313c0-.518.42-.938.938-.938h17.625a.937.937 0 1 1 0 1.875H2.438a.937.937 0 0 1-.938-.938Z"/></symbol><symbol viewBox="0 0 24 24" id="ic_clickFacilite"><path fill-rule="evenodd" clip-rule="evenodd" d="M11.571 3h-.428C8.293 3 6 5.32 6 8.205v1.518h5.571V3ZM18 8.205C18 5.32 15.707 3 12.857 3h-.428v6.723H18V8.205ZM12.857 21h-1.714C8.293 21 6 18.68 6 15.795V10.59h12v5.205C18 18.68 15.707 21 12.857 21Z"/></symbol><symbol viewBox="0 0 24 24" id="ic_colorContrast"><path fill-rule="evenodd" d="M12 4a8 8 0 1 0 0 16 8 8 0 0 0 0-16Zm0 14.571V5.411c3.625.015 6.588 2.96 6.588 6.589 0 3.629-2.963 6.555-6.588 6.571Z"/></symbol><symbol viewBox="0 0 24 24" id="ic_colourTheme"><path d="m12.998 2.5-.001.433.124-.433h1.876v.405l.163-.405H18v7h.5v3H14v7c0 .552-.224 1.052-.586 1.414A1.994 1.994 0 0 1 12 21.5a1.994 1.994 0 0 1-1.414-.586A1.994 1.994 0 0 1 10 19.5v-7H5.5V9.982L6.033 2.5h6.965Z"/></symbol><symbol viewBox="0 0 24 24" id="ic_cursorAspect"><path d="m19.425 15.22-4.141 4.121-2.712-2.698L10.332 21 3 3l18 7.258-4.228 2.322 2.653 2.64Z"/></symbol><symbol viewBox="0 0 24 24" id="ic_deleteBackgroundImages"><path d="M14.308 4v2.824c0 .52.367.94.82.94H18L14.308 4Zm.923 4.706c-.49 0-.96-.198-1.306-.551a1.901 1.901 0 0 1-.54-1.331V4H6v15.059c0 .25.097.489.27.665a.914.914 0 0 0 .653.276H18V8.706h-2.77Zm-5.17 4.57c-.15-.242-.41-1.114-.472-1.111a.066.066 0 0 0-.05.031c-.013.018-1.46 2.432-1.51 2.468l-.557-.661c.437-.603 1.447-2.242 1.551-2.35 1.093-1.114 1.447.854 1.54 1.048.253-.437 1.495-3 1.65-3 .223-.001 1.186 1.398 1.545 1.831.11.133.524.527.903.527.791-.001 2.239-1.877 2.239-1.877-.298.567-1.147 2.479-2.331 2.614-.55.062-.85-.22-1.032-.369-.683-.558-1.062-1.593-1.247-1.593-.04 0-.046.024-.06.042-.008.011-.831 2.195-.94 2.356-.243.364-.866.625-1.228.045Z"/></symbol><symbol viewBox="0 0 24 24" id="ic_dysPlus"><path fill-rule="evenodd" clip-rule="evenodd" d="M8.333 1h1.223v14.667h2.825a1.839 1.839 0 0 1-.691-.451l-1.1-.682-.121-7.073h1.33l-.088 2.629c.407-.407.902-.572 1.573-.572 1.496 0 2.497 1.287 2.497 3.146 0 1.494-.646 2.619-1.677 3.003h2.408l.08-.65.132-5.367h1.342l-.033.385c.396-.341.89-.517 1.518-.517 1.474 0 2.497 1.298 2.497 3.146 0 1.494-.661 2.619-1.687 3.003H23v1.222h-5.123l-.031.912H16.25l.111-.912H9.556V23H8.333v-6.111H1v-1.222h2.481c-1.031-.384-1.678-1.509-1.678-3.003 0-1.86 1.001-3.146 2.497-3.146.671 0 1.21.198 1.617.605l.088-2.662h1.32l-.099 8.206h1.107V1ZM5.895 15.667v-.451a1.772 1.772 0 0 1-.687.45h.687Zm12.023 0h.744a1.96 1.96 0 0 1-.728-.462l-.016.462Zm-15.07-3.135c.011-.616.143-1.1.385-1.452v.01c.242-.33.572-.494.99-.494.407 0 .715.187.913.506.209.33.319.814.341 1.397-.033 1.078-.396 1.232-1.276 1.232-.44 0-.748-.088-.946-.264-.198-.176-.341-.484-.407-.935Zm11.954-.088c-.088.506-.23.858-.428 1.023a1.651 1.651 0 0 1-.892.297c-.813 0-1.22-.43-1.352-1.298.01-.605.143-1.09.384-1.42.243-.296.572-.472.99-.472.408 0 .726.154.925.473.22.319.351.78.373 1.397Zm6.256.055c0-.638-.132-1.122-.385-1.463a1.146 1.146 0 0 0-.99-.506c-.407 0-.737.165-.99.506v-.011c-.242.352-.374.847-.374 1.474 0 1.22.528 1.397 1.419 1.397.89 0 1.32-.165 1.32-1.397Z"/></symbol><symbol viewBox="0 0 24 24" id="ic_dysPlusPlus"><path fill-rule="evenodd" clip-rule="evenodd" d="M9.857 6.568c.503-.702 1.17-1.082 2-1.14l.06-.085a18.686 18.686 0 0 1-.985-.496L6.837 2 8 .5l10.7 6.87-.95 1.327-.991-.29-.054.074c.358.78.27 1.543-.267 2.292-.505.706-1.192 1.076-2.06 1.11-.867.032-1.819-.277-2.853-.928-.68-.429-1.205-.895-1.571-1.4-.37-.502-.561-1.008-.576-1.52-.015-.51.145-1 .48-1.467Zm5.565 2.805c.288-.403.365-.781.232-1.134-.13-.351-.496-.722-1.1-1.112l-.188-.118c-.684-.431-1.242-.645-1.675-.643-.434.006-.8.215-1.095.63-.524.73-.143 1.5 1.143 2.31.627.395 1.162.6 1.604.614.443.02.803-.162 1.079-.547Zm-9.774 5.515c.532 0 .921-.142 1.168-.425.248-.288.383-.788.406-1.502v-.238c0-.773-.129-1.327-.385-1.662-.252-.335-.66-.503-1.223-.503-.985 0-1.477.726-1.477 2.178 0 .722.121 1.26.364 1.617.247.357.63.535 1.147.535Zm-.749 1.54c-.907 0-1.616-.326-2.13-.98C2.257 14.792 2 13.879 2 12.71c0-1.177.261-2.096.783-2.757.527-.662 1.246-.993 2.158-.993.485 0 .909.086 1.27.258.363.172.68.438.956.799h.055l.185-.921H9.18V23H7.077v-6.553c0-.262.03-.623.09-1.082h-.09a2.176 2.176 0 0 1-.893.792c-.37.18-.8.271-1.285.271ZM16.19 14.98c.38.082.69.347.925.793.23.435.23.835-.001 1.202-.233.362-.694.703-1.383 1.024-1.387.645-2.3.553-2.737-.274-.25-.473-.271-.89-.063-1.25.206-.365.678-.719 1.417-1.062l.228-.106c.691-.298 1.23-.407 1.614-.327Zm2.74 2.963c.395-.721.392-1.463-.01-2.225a2.624 2.624 0 0 0-.83-.96 2.321 2.321 0 0 0-1.154-.397l-.04-.076c.466-.154.824-.289 1.074-.405L24 10.955l-.934-1.766-13.053 6.19.787 1.489.963-.253.024.046c-.223.391-.336.777-.339 1.157-.003.38.103.775.318 1.183.405.765 1.04 1.223 1.907 1.371.864.145 1.858-.044 2.982-.566 1.116-.52 1.874-1.14 2.274-1.863Z"/></symbol><symbol viewBox="0 0 24 24" id="ic_dysPlusPlus_border"><path fill-rule="evenodd" clip-rule="evenodd" d="M20.889 12A8.889 8.889 0 0 1 9.71 20.591V9.378h-1.41l-.147.783H8.11a2.114 2.114 0 0 0-.76-.679 2.208 2.208 0 0 0-1.01-.219c-.726 0-1.298.282-1.717.844C4.208 10.669 4 11.45 4 12.45c0 .992.204 1.768.612 2.326.408.555.973.832 1.694.832.387 0 .727-.076 1.022-.23.295-.153.532-.377.71-.673h.072c-.047.39-.071.697-.071.92v4.335A8.89 8.89 0 0 1 3.11 12a8.891 8.891 0 0 1 5.344-8.154l2.65 1.923c.067.044.328.185.784.421l-.049.073c-.66.048-1.19.371-1.59.968a2.1 2.1 0 0 0-.381 1.247c.011.434.164.864.458 1.29.292.43.708.826 1.25 1.19.822.554 1.58.816 2.27.788.69-.028 1.236-.342 1.638-.942.426-.637.497-1.286.212-1.948l.043-.063.789.247.755-1.127-6.735-4.684A8.893 8.893 0 0 1 20.55 9.562l-10.177 5.155.626 1.265.766-.215.02.04a2.12 2.12 0 0 0-.27.983c-.003.323.081.658.253 1.004.322.651.827 1.04 1.516 1.166.687.123 1.478-.038 2.373-.482.887-.44 1.49-.968 1.809-1.583.315-.612.312-1.242-.009-1.89a2.193 2.193 0 0 0-.66-.815 1.772 1.772 0 0 0-.917-.338l-.032-.064c.37-.13.655-.246.854-.345l4.158-2.154c.018.235.028.472.028.711Zm-12.85 9.185A10.003 10.003 0 0 1 2 12C2 6.477 6.477 2 12 2s10 4.477 10 10-4.477 10-10 10c-1.4 0-2.733-.288-3.943-.808h-.018v-.007ZM14.86 8.65c.106.3.045.621-.185.964-.22.327-.505.482-.858.465-.351-.013-.777-.186-1.276-.522-1.022-.688-1.325-1.342-.91-1.963.236-.352.527-.53.873-.535.343-.002.787.18 1.332.546l.15.101c.48.332.771.646.874.944Zm-7.03 5.289c-.197.24-.506.361-.929.361-.412 0-.716-.151-.913-.454-.193-.303-.29-.761-.29-1.374 0-1.234.392-1.85 1.176-1.85.448 0 .772.142.973.426.204.285.306.756.306 1.413v.202c-.019.606-.126 1.031-.323 1.276Zm8.192 1.113c-.187-.38-.432-.604-.735-.673-.306-.068-.735.024-1.284.277l-.182.09c-.587.292-.963.592-1.127.902-.166.306-.149.66.05 1.063.348.703 1.074.78 2.177.232.548-.272.915-.562 1.1-.87.184-.311.184-.652.002-1.021Z"/></symbol><symbol viewBox="0 0 24 24" id="ic_dysPlus_border"><path fill-rule="evenodd" clip-rule="evenodd" d="M22 12c0 5.523-4.477 10-10 10S2 17.523 2 12 6.477 2 12 2s10 4.477 10 10Zm-2.06 4A8.889 8.889 0 0 1 10 20.663V16h5.57l-.092.746h1.305l.025-.746h3.132Zm.43-1A8.889 8.889 0 0 0 10 3.337V15h2.311c-.213-.079-.4-.2-.565-.369l-.9-.558-.099-5.787h1.089l-.072 2.151c.333-.333.738-.468 1.287-.468 1.224 0 2.043 1.053 2.043 2.574 0 1.223-.53 2.143-1.373 2.457h1.97l.066-.531.108-4.392h1.098l-.027.315c.324-.279.729-.423 1.242-.423 1.206 0 2.043 1.062 2.043 2.574 0 1.223-.541 2.143-1.38 2.457h1.529Zm-2.92 0a1.605 1.605 0 0 1-.595-.378l-.013.378h.609ZM9 15V3.63A8.893 8.893 0 0 0 3.63 15h1.4c-.844-.314-1.373-1.234-1.373-2.457 0-1.521.819-2.574 2.043-2.574.549 0 .99.162 1.323.495l.072-2.178h1.08L8.094 15H9Zm-1.995 0v-.369c-.16.17-.347.29-.562.369h.562ZM4.06 16A8.918 8.918 0 0 0 9 20.37V16H4.06Zm.767-4.753c-.198.288-.306.684-.315 1.188.054.369.171.621.333.765.162.144.414.216.774.216.72 0 1.017-.126 1.044-1.008-.018-.477-.108-.873-.279-1.143a.84.84 0 0 0-.747-.414.951.951 0 0 0-.81.405v-.009Zm9.115 1.953c.162-.135.279-.423.351-.837-.018-.504-.126-.882-.306-1.143-.162-.261-.423-.387-.756-.387-.342 0-.612.144-.81.387-.198.27-.306.666-.315 1.161.108.711.441 1.062 1.107 1.062.306-.018.54-.108.729-.243Zm5.154-1.989c.207.279.315.675.315 1.197 0 1.008-.351 1.143-1.08 1.143-.73 0-1.161-.144-1.161-1.143 0-.513.108-.918.306-1.206v.009a.96.96 0 0 1 .81-.414c.342 0 .612.135.81.414Z"/></symbol><symbol viewBox="0 0 24 24" id="ic_facilePlus"><path fill-rule="evenodd" clip-rule="evenodd" d="M11.256 9.769c-.195.317-.588.403-.88.194h-.001c-.64-.426-1.457-.578-2.195-.578-.737 0-1.555.152-2.195.577l.002-.001c-.292.212-.687.126-.882-.192-.193-.315-.111-.753.178-.962C6.125 8.207 7.188 8 8.18 8c.992 0 2.055.207 2.897.807.29.21.372.647.179.962ZM7.357 13.74a.6.6 0 0 0-.9 0 .744.744 0 0 0 .002.981C7.882 16.243 10.044 17 11.999 17c1.94 0 4.134-.753 5.542-2.28a.736.736 0 0 0 0-.979.6.6 0 0 0-.9 0c-1.198 1.248-3.014 1.874-4.642 1.874-1.63 0-3.441-.627-4.642-1.874ZM18.893 9.77c-.194.317-.587.403-.88.194-.638-.441-1.451-.578-2.195-.578-.738 0-1.555.152-2.195.577l.001-.001c-.292.212-.687.126-.882-.192-.192-.313-.107-.756.18-.963C13.76 8.22 14.839 8 15.819 8c1 0 2.051.196 2.899.809.292.212.371.642.176.96Z"/></symbol><symbol viewBox="0 0 24 24" id="ic_facilePlus_border"><path fill-rule="evenodd" clip-rule="evenodd" d="M12 20.889A8.889 8.889 0 1 0 12 3.11a8.889 8.889 0 0 0 0 17.778ZM12 22c5.523 0 10-4.477 10-10S17.523 2 12 2 2 6.477 2 12s4.477 10 10 10Zm-.649-11.914a.555.555 0 0 1-.767.156h-.002c-.558-.342-1.272-.464-1.915-.464-.644 0-1.357.122-1.916.463h.001a.556.556 0 1 1-.614-.926c.735-.482 1.663-.648 2.529-.648.866 0 1.793.166 2.528.648a.56.56 0 0 1 .156.77Zm-3.403 3.188a.555.555 0 1 0-.784.787c1.243 1.22 3.13 1.828 4.836 1.828 1.694 0 3.608-.605 4.837-1.83a.556.556 0 0 0-.785-.786c-1.046 1.002-2.631 1.505-4.052 1.505-1.423 0-3.004-.504-4.052-1.504Zm10.07-3.188a.556.556 0 0 1-.768.156c-.558-.354-1.267-.464-1.917-.464-.643 0-1.357.122-1.916.463h.002c-.255.17-.6.1-.77-.155a.565.565 0 0 1 .157-.773c.731-.47 1.673-.646 2.527-.646.874 0 1.79.157 2.53.649.256.17.325.515.155.77Z"/></symbol><symbol viewBox="0 0 24 24" id="ic_focusAspect"><path fill-rule="evenodd" clip-rule="evenodd" d="M3 7h18v10H3V7Zm2 2v6h14V9H5Z"/></symbol><symbol viewBox="0 0 24 24" id="ic_fontFamily"><path fill-rule="evenodd" d="M12 4a2.57 2.57 0 0 1 1.62.543c.467.362.809.846 1.026 1.45l4.211 11.476c.095.271.143.644.143 1.115a1.37 1.37 0 0 1-.672 1.048c-.394.245-.85.368-1.368.368-.34 0-.643-.147-.908-.442a2.54 2.54 0 0 1-.566-1.02L15 16.82H9l-.371 1.344C8.3 19.388 7.769 20 7.035 20a2.49 2.49 0 0 1-1.344-.366 1.431 1.431 0 0 1-.69-1.05c0-.482.047-.854.142-1.114l4.21-11.477A3.169 3.169 0 0 1 10.38 4.55 2.551 2.551 0 0 1 12 4Zm.023 3.753L10.12 13.64h3.8l-1.897-5.887Z"/></symbol><symbol viewBox="0 0 24 24" id="ic_langueDesSignes"><path fill-rule="evenodd" clip-rule="evenodd" d="M12.726 12.738c.285-.242.648-.55.856-.724.66-.532.707-.564 2.387-1.465 1.136-.619 1.426-.792 1.692-1.042.243-.228.36-.51.336-.76a.57.57 0 0 0-.255-.4c-.568-.359-1.332.151-1.576.325a6.63 6.63 0 0 1-1.68.803c.429-.33.817-.707 1.17-1.107.197-.228.452-.51.556-.619.302-.315.696-.803.777-1.042.07-.206.058-.336-.07-.531-.139-.207-.255-.26-.521-.326-.267-.054-.383-.065-.603.033-.301.13-.486.303-.88.76-.14.151-.336.336-.533.52.08-.108.173-.228.266-.347.243-.304.568-.695.719-.836.231-.217.347-.358.417-.553.116-.337.023-.554-.07-.673-.139-.184-.37-.271-.695-.271-.128.01-.348.021-.475.065-.244.087-.672.445-.95.727-.128.13-.325.315-.43.401-.15.12-.382.37-.532.543-.004.003.285-.463.359-.553.37-.467.66-.88.44-1.27a.793.793 0 0 0-.498-.358 1.04 1.04 0 0 0-.765.087c-.382.206-.649.52-1.437 1.562-.232.293-.602.88-.87 1.357a4.846 4.846 0 0 1-.44.63c-.272.297-.462.587-.88.705.007-.158.028-.398.052-.662.013-.155.028-.318.04-.478.047-.51.012-1.085-.533-1.454-.29-.206-.625-.282-.927-.217a.779.779 0 0 0-.498.347c-.15.26-.232.966-.255 1.346-.035.597-.093.955-.255 1.736-.07.337-.162.803-.162.999-.023.596.093 1.725.255 2.094.193.468.448.804.784 1.123-.363.425-.716.907-.811 1.13-.258.627-.268 1.12-.184 1.833.27.622.494.895 1.743 1.857.852.558 1.571.432 1.863.419.225-.01 1.24-.038 1.695-.045.895-.013.973-.004 2.878.343 1.255.23 1.573.27 1.92.243.405-.031.705-.262.647-.497-.073-.298-.453-.473-1.144-.526-.581-.046-1.035-.142-1.68-.358a22.19 22.19 0 0 0-.742-.236c-.2-.057-.264-.093-.297-.162-.027-.058-.018-.103.026-.128.068-.038.695-.076 1.507-.09.25-.004.717-.056 1.048-.116.328-.06.728-.122.89-.139.461-.047 1.04-.178 1.212-.276.132-.074.165-.118.199-.264.035-.156.025-.195-.097-.368-.121-.172-.154-.198-.306-.24-.245-.067-.445-.059-1.067.044-.524.088-1.492.13-1.807.08a6.76 6.76 0 0 0-.643-.023c-.275 0-.461-.008-.413-.017.047-.009.39-.098.76-.2.372-.1.731-.191.799-.202.067-.011.467-.1.888-.197.42-.097.954-.192 1.184-.211.32-.027.457-.057.584-.128.38-.213.407-.484.078-.759a1.18 1.18 0 0 0-.294-.183c-.177-.06-.683-.065-1.105-.014-.2.025-.488.046-.643.048a5.656 5.656 0 0 0-.73.082c-.247.044-.543.088-.659.098-.214.019-.47.07-1.134.23-.263.062-.365.072-.344.034.028-.053.288-.165 1.24-.536.213-.083.504-.217.647-.297.219-.123.353-.166.832-.264.702-.143.96-.267 1.023-.488.08-.285-.156-.591-.507-.657-.353-.066-.71-.012-2.068.311-.312.075-.832.232-1.304.394Zm-1.332.364c.192-.12.356-.273.52-.426.161-.141.915-.781 1.262-1.063.684-.565.754-.608 2.48-1.53 1.09-.587 1.344-.739 1.565-.945.162-.152.185-.304.174-.336-.151-.087-.487.022-.916.315-.498.336-.927.553-1.6.792-.266.097-.59.217-.718.271-.197.087-.37.141-.568.065-.197-.087-.29-.26-.243-.434.023-.065.07-.195 1.159-1.107.174-.152.475-.456.672-.683.209-.25.475-.543.591-.662.313-.315.614-.728.65-.836-.022-.158-.25-.241-.395-.174-.174.076-.29.163-.672.608-.325.369-1.055 1.03-1.39 1.215a5.863 5.863 0 0 0-.464.348c-.36.293-.522.412-.719.238l-.185-.173c.383-.461.671-.982 1.054-1.444.035-.043.267-.347.522-.661.255-.337.602-.738.776-.901.209-.196.255-.272.278-.337.076-.194-.006-.238-.208-.238-.104 0-.22.021-.255.032-.104.033-.452.293-.73.586-.14.152-.36.347-.475.445-.201.167-.373.364-.544.558a8.273 8.273 0 0 1-.36.397c-.265.248-.461.563-.677.847-.204.266-.345.362-.68.303-.176-.53.265-1.043.51-1.508.094-.174.21-.434.256-.564.092-.272.197-.413.486-.77.115-.14.643-.661.255-.782a.488.488 0 0 0-.324.043c-.267.141-.487.39-1.252 1.4-.22.282-.567.847-.834 1.302-.14.24-.348.543-.498.717-.14.152-.302.347-.371.434-.081.097-.22.228-.336.293-.174.108-.684.26-.893.217-.359-.065-.359-.152-.208-1.758.058-.608-.07-.814-.29-.966-.052-.034-.58-.249-.58-.044-.057.098-.15.543-.185 1.118-.034.619-.092.999-.255 1.802-.08.39-.139.792-.15.922-.023.597.092 1.617.208 1.877.15.36.34.623.597.876.276-.28.604-.514.926-.744.712-.513 1.018-.76 1.492-1.202.422-.395.886-.744 1.074-.809.328-.113.673.152.762.586.081.397-.088.734-.593 1.182-1.057.94-1.16 1.042-1.103 1.11.066.081.476.265.634.285.088.011.254.003.368-.018.081-.015.239-.042.4-.069Z"/></symbol><symbol viewBox="0 0 24 24" id="ic_langueDesSignes_border"><path fill-rule="evenodd" clip-rule="evenodd" d="M20.889 12A8.889 8.889 0 1 1 3.11 12a8.889 8.889 0 0 1 17.778 0ZM22 12c0 5.523-4.477 10-10 10S2 17.523 2 12 6.477 2 12 2s10 4.477 10 10Zm-8.05.014-.784.724c.432-.162.909-.32 1.195-.394 1.245-.323 1.572-.377 1.895-.31.323.065.54.371.465.656-.057.222-.294.345-.938.488-.438.098-.561.14-.762.264-.131.08-.398.214-.593.297-.873.371-1.11.483-1.137.535-.02.04.074.03.315-.034.61-.159.844-.21 1.04-.229.106-.01.378-.054.604-.098.227-.044.528-.08.67-.082.14-.002.406-.023.589-.047.386-.052.85-.046 1.012.013.063.022.184.105.27.183.302.275.276.546-.072.76-.116.07-.241.1-.535.127a9.29 9.29 0 0 0-1.085.211c-.386.097-.752.186-.814.197-.063.01-.392.102-.732.203-.34.1-.654.19-.698.2-.043.008.127.016.379.016s.517.01.59.023c.289.05 1.175.008 1.656-.08.57-.103.754-.111.978-.044.14.042.17.068.281.24.112.173.121.212.088.368-.03.146-.06.19-.181.264-.159.098-.689.23-1.112.276-.148.017-.515.079-.816.139-.303.06-.73.112-.96.116-.744.014-1.32.052-1.382.09-.04.025-.048.07-.024.128.03.07.09.105.273.162.129.04.435.146.68.236.591.216 1.007.313 1.54.358.633.053.981.228 1.048.526.053.235-.222.466-.592.497-.319.027-.61-.014-1.76-.242-1.747-.348-1.818-.357-2.639-.344-.416.007-1.347.035-1.553.045-.028.001-.06.004-.096.007-.31.025-.913.074-1.612-.427-1.145-.961-1.35-1.234-1.598-1.856-.077-.713-.068-1.206.169-1.832.087-.224.41-.706.743-1.131a3.141 3.141 0 0 1-.719-1.123c-.148-.369-.255-1.498-.233-2.094 0-.196.085-.662.148-.999.15-.781.202-1.14.234-1.736.021-.38.096-1.085.234-1.346a.719.719 0 0 1 .457-.347c.276-.065.584.01.85.217.499.369.53.944.488 1.454l-.037.478c-.022.264-.041.504-.048.662.106-.033.234-.076.276-.098a.868.868 0 0 0 .18-.174c.065-.086.224-.282.351-.434.117-.152.298-.423.404-.63.244-.477.584-1.063.797-1.356.722-1.041.966-1.356 1.317-1.562a.884.884 0 0 1 .701-.087.734.734 0 0 1 .457.358c.202.39-.064.803-.404 1.27-.233.314-.297.423-.34.564 0 0 .465-.524.5-.554.095-.086.276-.27.393-.401.255-.282.648-.64.87-.727.1-.037.26-.05.378-.06l.058-.005c.298 0 .51.087.638.271.085.12.17.336.063.673-.063.195-.17.336-.382.553-.314.321-.577.706-.832 1.079l-.071.104c.18-.184.361-.369.489-.52.36-.457.53-.63.807-.76.202-.098.308-.087.552-.033.245.065.35.12.478.326a.563.563 0 0 1 .064.531c-.074.24-.435.727-.712 1.042-.095.109-.329.39-.51.619-.201.25-.499.586-.68.749-.07.06-.134.122-.196.18-.07.065-.134.126-.196.178a5.785 5.785 0 0 0 1.54-.803c.223-.174.924-.684 1.445-.326a.577.577 0 0 1 .233.402c.022.25-.085.531-.308.76-.244.249-.51.422-1.55 1.041-1.541.9-1.583.933-2.189 1.465Zm-1.613.748c-.091.093-.216.22-.393.34-.147.027-.292.054-.366.069a1.25 1.25 0 0 1-.338.018c-.145-.02-.52-.204-.58-.284-.052-.07.041-.171 1.01-1.11.463-.449.618-.786.544-1.183-.082-.434-.398-.699-.699-.586-.172.065-.598.414-.985.81-.433.442-.714.688-1.367 1.2a9.973 9.973 0 0 0-.754.645 4.38 4.38 0 0 0-.094.1 2.58 2.58 0 0 1-.547-.876c-.107-.26-.213-1.28-.192-1.877.011-.13.064-.532.138-.922.15-.803.202-1.183.234-1.802.032-.575.117-1.02.17-1.118 0-.01.032-.054.106-.075.096-.022.255 0 .425.119.202.152.319.358.266.966-.138 1.606-.138 1.693.191 1.758.191.043.659-.109.818-.217a1.33 1.33 0 0 0 .308-.293c.064-.087.213-.282.34-.434.138-.174.33-.478.457-.717.244-.455.563-1.02.765-1.302.7-1.01.902-1.259 1.147-1.4a.414.414 0 0 1 .297-.043c.032.01.096.032.128.098.032.054-.01.217-.361.683-.266.358-.362.5-.447.77-.042.13-.148.391-.233.565-.542 1.118-.563 1.183-.52 1.335l.222.206c.196.032.302-.12.453-.336l.015-.022c.34-.5.478-.695.605-.825a8 8 0 0 0 .33-.397l.074-.091c.138-.174.33-.38.425-.467.106-.098.308-.293.435-.445.255-.293.574-.553.67-.586a.917.917 0 0 1 .233-.032c.149 0 .213.032.213.043v.008c.005.023.015.085-.021.187-.022.065-.064.141-.255.337-.16.163-.479.564-.712.9-.177.239-.342.471-.426.589l-.052.073c-.041.054-.157.234-.26.393-.082.13-.157.245-.176.27-.18.282-.382.585-.382.585l-.149.196.17.173c.18.174.33.055.659-.238.202-.174.382-.326.425-.348.308-.184.977-.846 1.274-1.215.35-.445.457-.532.617-.608.063-.032.063-.032.201 0 .064.022.149.087.149.087.033.271-.286.608-.496.829-.033.034-.063.065-.088.094-.107.119-.35.412-.542.662-.18.227-.457.531-.616.683-.999.912-1.041 1.042-1.062 1.107-.043.174.042.347.223.434.18.076.34.022.52-.065.117-.054.415-.174.659-.271a5.743 5.743 0 0 0 1.466-.792c.393-.293.7-.402.839-.315.01.032-.01.184-.16.336-.201.206-.435.358-1.434.944-1.582.923-1.646.966-2.273 1.53-.318.283-1.009.923-1.158 1.064l-.074.076-.01.01Z"/></symbol><symbol viewBox="0 0 24 24" id="ic_linkStyle"><path d="M1.5 4.688c0-.518.42-.938.938-.938h9.75a.937.937 0 1 1 0 1.875h-9.75a.937.937 0 0 1-.938-.938Zm0 4.875c0-.518.42-.938.938-.938h17.625a.937.937 0 1 1 0 1.875H2.438a.937.937 0 0 1-.938-.938Zm.938 3.937a.937.937 0 1 0 0 1.875H5.61a3.501 3.501 0 0 0 6.78 0h7.672a.937.937 0 1 0 0-1.875h-7.707a3.502 3.502 0 0 0-6.71 0H2.438ZM1.5 19.313c0-.518.42-.938.938-.938h17.625a.937.937 0 1 1 0 1.875H2.438a.937.937 0 0 1-.938-.938ZM6.2 14.5A2.8 2.8 0 0 1 9 11.7v5.6a2.8 2.8 0 0 1-2.8-2.8Z"/></symbol><symbol viewBox="0 0 24 24" id="ic_magnifier"><path fill-rule="evenodd" d="M10.25 14.5a4.25 4.25 0 1 1-.103-8.5 4.25 4.25 0 0 1 .104 8.5Zm9.604 3.895L15.34 13.88a6.25 6.25 0 1 0-1.458 1.459l4.515 4.515a.502.502 0 0 0 .707 0l.751-.751a.502.502 0 0 0 0-.708Z"/></symbol><symbol viewBox="0 0 24 24" id="ic_marginAlign"><path fill-rule="evenodd" d="M14.632 5h4.736c.35 0 .632.283.632.632v.736a.632.632 0 0 1-.632.632h-4.736A.632.632 0 0 1 14 6.368v-.736c0-.35.283-.632.632-.632Zm0 12h4.736c.35 0 .632.283.632.632v.736a.632.632 0 0 1-.632.632h-4.736a.632.632 0 0 1-.632-.632v-.736c0-.35.283-.632.632-.632Zm0-8h4.736c.35 0 .632.283.632.632v.736a.632.632 0 0 1-.632.632h-4.736a.632.632 0 0 1-.632-.632v-.736c0-.35.283-.632.632-.632Zm0 4h4.736c.35 0 .632.283.632.632v.736a.632.632 0 0 1-.632.632h-4.736a.632.632 0 0 1-.632-.632v-.736c0-.35.283-.632.632-.632Zm-4-9h.736c.35 0 .632.283.632.632v14.736a.632.632 0 0 1-.632.632h-.736a.632.632 0 0 1-.632-.632V4.632c0-.35.283-.632.632-.632Zm-3.913 8-2.54 2.117a.5.5 0 0 0 .641.768l3-2.5a.5.5 0 0 0 0-.769l-3-2.5a.5.5 0 0 0-.64.768L6.719 12Z"/></symbol><symbol viewBox="0 0 24 24" id="ic_moteurPlus"><path fill-rule="evenodd" clip-rule="evenodd" d="M22.765 7.917c.046.246.063.498.05.748a.47.47 0 0 0 .044.221.432.432 0 0 0 .141.169c-.202.509-.49.973-.85 1.37-.21.232-.591.51-1.94.966-.726.246-1.677.524-2.826.826-1.773.467-3.489.852-3.787.918a3.863 3.863 0 0 1-2.662-.064l-6.927-2.736a1.574 1.574 0 0 1-.823-.764 1.758 1.758 0 0 1-.133-1.208c.055-.217.152-.42.285-.594.132-.175.297-.318.484-.42.217-.128.46-.195.706-.195.18 0 .358.034.526.099l.009.003 3.073 1.22a.617.617 0 0 1 .089-.265 1.35 1.35 0 0 1 .456-.438c.182-.105.385-.163.591-.168l.001-.002c.148 0 .295.029.434.083l.5.192c.209-.186.444-.333.664-.41l2.432-.868c.445-.164.85-.434 1.186-.788a.778.778 0 0 1 .106-.094l.008-.006c.097-.072.93-.692 1.92-1.32C18.144 3.359 18.975 3.07 19.46 3c.126.067.256.124.39.17.293.353.597.698.905 1.04a3.087 3.087 0 0 0-.866-.34.666.666 0 0 0-.15-.016c-1.235 0-4.678 2.581-4.678 2.581a3.925 3.925 0 0 1-1.5.995l-2.434.869c-.326.115-.854.604-.747.954.093.288.546.608.865.608a.396.396 0 0 0 .102-.012l7.124-1.692c.11-.035.21-.103.298-.164.088-.06.164-.112.224-.112.051 0 .091.039.119.138a.69.69 0 0 1-.065.485.61.61 0 0 1-.362.297l-6.897 2.001a1.67 1.67 0 0 1-1.271-.135 1.85 1.85 0 0 1-.636-.563l-5.103-2.03a.696.696 0 0 0-.25-.05.608.608 0 0 0-.327.094.696.696 0 0 0-.232.198.759.759 0 0 0-.133.286.83.83 0 0 0 .07.542c.083.165.22.293.383.359l6.929 2.737c.365.144.75.217 1.139.217.35 0 .699-.06 1.031-.179 0 0 7.416-1.63 8.18-2.472a3.606 3.606 0 0 0 .868-1.734c.057-.289.08-.584.066-.88l.041.094.051.115c.075.165.132.338.171.516Zm-13.192.98-.897-.36a.792.792 0 0 1 .26-.247.73.73 0 0 1 .335-.1v-.002a.7.7 0 0 1 .252.05l.28.107c-.098.153-.188.34-.23.552Zm-1.578 8.117v-2.282c0-.015.003-.03.01-.043a.114.114 0 0 1 .065-.062.128.128 0 0 1 .047-.009h1.897a.128.128 0 0 1 .087.034.113.113 0 0 1 .035.08v2.282c0 .03.013.059.036.08a.126.126 0 0 0 .086.033h1.062c.021 0 .042.006.06.016.02.01.034.024.045.041a.108.108 0 0 1 0 .114l-2.254 3.645a.118.118 0 0 1-.045.042.13.13 0 0 1-.122 0 .118.118 0 0 1-.044-.042l-2.255-3.645a.108.108 0 0 1 0-.114.118.118 0 0 1 .045-.041.127.127 0 0 1 .061-.016h1.062a.127.127 0 0 0 .086-.033.11.11 0 0 0 .036-.08Zm5.94-2.282v2.282a.11.11 0 0 1-.036.08.127.127 0 0 1-.086.033h-1.062a.127.127 0 0 0-.06.016.118.118 0 0 0-.045.041.109.109 0 0 0 0 .114l2.254 3.645c.011.017.026.032.045.042a.13.13 0 0 0 .122 0 .119.119 0 0 0 .044-.042l2.255-3.645a.109.109 0 0 0-.045-.155.127.127 0 0 0-.06-.016h-1.063a.126.126 0 0 1-.086-.033.11.11 0 0 1-.035-.08v-2.282a.113.113 0 0 0-.036-.08.123.123 0 0 0-.086-.034h-1.898a.128.128 0 0 0-.086.034.108.108 0 0 0-.036.08Z"/></symbol><symbol viewBox="0 0 24 24" id="ic_moteurPlus_border"><path fill-rule="evenodd" clip-rule="evenodd" d="M20.889 12a8.889 8.889 0 1 1-2.382-6.056c-.43.105-1.103.376-2.231 1.043-.833.493-1.534.978-1.616 1.035l-.007.004a.645.645 0 0 0-.089.074 2.655 2.655 0 0 1-.998.618l-2.047.68a1.798 1.798 0 0 0-.559.32l-.42-.15a1.082 1.082 0 0 0-.366-.064v.001a1.106 1.106 0 0 0-.883.475.458.458 0 0 0-.074.208L6.63 9.232l-.007-.003a1.31 1.31 0 0 0-.443-.078c-.207 0-.412.053-.594.153a1.27 1.27 0 0 0-.535 1.741c.15.278.396.49.692.6l5.83 2.143a3.467 3.467 0 0 0 2.241.05 98.792 98.792 0 0 0 3.188-.72 39.819 39.819 0 0 0 2.379-.646c.911-.287 1.297-.484 1.506-.646a9.1 9.1 0 0 1 .002.174Zm-.07-1.125a2.752 2.752 0 0 1-.295.354c-.644.66-6.885 1.938-6.885 1.938a2.789 2.789 0 0 1-1.827-.03L5.98 10.992a.61.61 0 0 1-.381-.706.576.576 0 0 1 .307-.379.54.54 0 0 1 .274-.074c.072 0 .144.014.211.039l4.296 1.591a1.526 1.526 0 0 0 1.604.547l5.806-1.568a.508.508 0 0 0 .36-.613c-.024-.077-.058-.108-.1-.108-.052 0-.115.04-.19.088a1.005 1.005 0 0 1-.25.128l-5.997 1.326a.356.356 0 0 1-.085.01c-.269 0-.65-.25-.728-.477-.09-.274.354-.657.628-.747l2.05-.681a3.332 3.332 0 0 0 1.261-.78s2.899-2.022 3.939-2.022a.6.6 0 0 1 .052.002 8.845 8.845 0 0 1 1.781 4.307ZM22 12c0 5.523-4.477 10-10 10S2 17.523 2 12 6.477 2 12 2s10 4.477 10 10ZM9.672 10.235l.755.282c.036-.166.112-.312.194-.432l-.236-.084a.63.63 0 0 0-.212-.04v.002a.648.648 0 0 0-.5.272ZM9.1 15.09v1.788c0 .023-.011.046-.03.063a.111.111 0 0 1-.073.026h-.894a.115.115 0 0 0-.05.012.096.096 0 0 0-.038.032.08.08 0 0 0 0 .09l1.897 2.855a.097.097 0 0 0 .038.033.115.115 0 0 0 .102 0 .097.097 0 0 0 .038-.033l1.897-2.855a.08.08 0 0 0 0-.09.097.097 0 0 0-.037-.032.115.115 0 0 0-.051-.012h-.894a.111.111 0 0 1-.073-.026.084.084 0 0 1-.03-.063v-1.788a.08.08 0 0 0-.007-.034.091.091 0 0 0-.023-.029.116.116 0 0 0-.073-.026H9.203a.116.116 0 0 0-.04.007.105.105 0 0 0-.033.019.09.09 0 0 0-.022.029.08.08 0 0 0-.008.034Zm5 1.788v-1.788a.08.08 0 0 1 .008-.034.09.09 0 0 1 .022-.029.104.104 0 0 1 .033-.02.117.117 0 0 1 .04-.006h1.597a.116.116 0 0 1 .072.026c.01.008.017.018.023.029a.08.08 0 0 1 .007.034v1.788c0 .023.011.046.03.063.02.016.046.026.073.026h.893c.019 0 .036.004.052.012.015.008.028.019.037.032a.08.08 0 0 1 0 .09l-1.897 2.855a.097.097 0 0 1-.038.033.115.115 0 0 1-.102 0 .097.097 0 0 1-.038-.033L13.014 17.1a.08.08 0 0 1 0-.09.097.097 0 0 1 .037-.032.115.115 0 0 1 .051-.012h.894c.028 0 .054-.01.073-.027.019-.016.03-.039.03-.062Z"/></symbol><symbol viewBox="0 0 24 24" id="ic_navigationAuto"><path d="M15 3H3v8h12V3ZM4.333 9.4V4.6h9.334v4.8H4.333Zm14.751-3.11A4.414 4.414 0 0 0 17.597 6c-.317-.001-.588.289-.588.634 0 0-.018.637.664.637.044 0 .148.01.255.024.216.028.494.083.763.188.273.106.504.25.661.434.145.17.249.394.249.733 0 .348-.107.76-.304 1.21a8.034 8.034 0 0 1-.733 1.29 12.497 12.497 0 0 1-1 1.27c-.252.278-.513.547-.774.816-.12.123-.239.246-.357.37.167 0 .336-.004.504-.007.591-.01 1.185-.022 1.766.103.225.048.447.117.634.21.19.096.31.2.375.296.163.245.19.59-.096 1.16-.215.43-1.358 2.033-1.805 2.516l-1.257-1.532L15 21l4.5-.788-1.003-1.325c.554-.579 1.83-2.288 2.143-2.912.384-.767.56-1.693.015-2.51a2.118 2.118 0 0 0-.83-.704 3.645 3.645 0 0 0-.75-.27c.135-.176.28-.373.424-.584.302-.441.613-.958.851-1.503.235-.539.416-1.145.416-1.754 0-.668-.22-1.2-.561-1.598-.328-.383-.746-.617-1.121-.763Z"/></symbol><symbol viewBox="0 0 24 24" id="ic_pointagePlus"><path fill-rule="evenodd" clip-rule="evenodd" d="M3.275 5.758c-.17 2.02 2.243 4.575 4.448 4.717.144.01.25.025.345.039.125.018.226.033.36.024L7.904 9.39a2.76 2.76 0 0 1-.45.039c-.694 0-1.496-.38-2.143-1.02-.64-.635-1.025-1.412-1.025-2.082 0-1.402 1.642-2.041 3.168-2.041a4.09 4.09 0 0 1 2.176.654c.7.465 1.084 1.082 1.084 1.74 0 .445-.179.903-.5 1.324a.383.383 0 0 0-.153-.016l.864 1.73c.155-.328.43-.595.772-.744.159-.07.328-.11.504-.11.378 0 .724.188.96.526.095-.23.293-.49.705-.675.17-.078.353-.122.54-.122.699 0 1.083.57 1.249.908.074.139.159.274.247.405a1.95 1.95 0 0 1 .028-.206c.085-.388.328-.55.47-.614a1.53 1.53 0 0 1 .624-.142c.5 0 .93.287 1.178.787.218.428 2.06 4.065 2.279 4.649.232.63.36 1.772.144 2.69l.293.595c.078.162.173.489-.095.89-.416.632-1.662 1.27-2.367 1.594-.43.2-1.912.851-2.826.851-.638 0-.892-.32-.984-.51l-.19-.385c-.646-.182-3.214-.962-4.502-2.19-.793-.76-1.305-1.409-1.756-1.986-.339-.432-.632-.803-.96-1.097-.353-.317-.465-.709-.317-1.107.144-.385.49-.655.748-.77a.899.899 0 0 1 .324-.081h.06c.49.017 1.34.5 1.884.972l-1.405-3.08c-.196.03-.304.011-.452-.014-.097-.017-.21-.036-.377-.047-1.112-.07-2.35-.724-3.308-1.746-.95-1.012-1.47-2.216-1.386-3.218.178-2.094 2.891-2.883 5.335-2.72 1.19.077 2.463.527 3.409 1.204 1.065.765 1.606 1.726 1.525 2.71-.058.664-.398 1.334-.97 1.93a.684.684 0 0 0-.32-.034c.607-.586.97-1.256 1.023-1.912.074-.907-.432-1.8-1.428-2.514-.903-.654-2.12-1.08-3.258-1.154-2.32-.15-4.887.572-5.05 2.507Zm4.056 2.378.504 1.104c-.13.02-.26.03-.385.03-1.376 0-3.002-1.596-3.002-2.946 0-1.293 1.556-1.882 3.002-1.882.71 0 1.486.233 2.08.626.657.433 1.015 1.004 1.015 1.611 0 .426-.177.869-.501 1.275l-.617-1.24a.854.854 0 0 0-.264-.53l-.034-.069a.67.67 0 0 0-.215-.246 1.378 1.378 0 0 0-.843-.298l.003.004c-.08 0-.161.007-.24.022a2.685 2.685 0 0 0-.361-.026c-.914 0-1.902.319-1.902 1.02 0 .336.232.724.616 1.042.344.283.763.465 1.144.503Zm.7-.072.039-.01a.34.34 0 0 1-.045-.07 2.35 2.35 0 0 1-.028.007L7.538 6.98c-.01-.142-.01-.577.275-.705a.574.574 0 0 1 .261-.054c.237 0 .407.138.442.167l.006.005c.02.043.221.446.504 1.015a1.441 1.441 0 0 1-.016.017.27.27 0 0 1 .023-.003l2.191 4.396a.398.398 0 0 0 .522.176.368.368 0 0 0 .201-.456l-.472-1.354a.818.818 0 0 1 .5-.621.493.493 0 0 1 .22-.05c.225 0 .363.175.426.283l.896 1.276a.4.4 0 0 0 .522.115.363.363 0 0 0 .152-.493l-.452-.871c-.003-.105.029-.351.403-.52a.683.683 0 0 1 .257-.06c.307 0 .515.276.642.54.201.408.928 1.377 1.009 1.485a.395.395 0 0 0 .497.111.363.363 0 0 0 .187-.456c-.183-.496-.25-1.168-.063-1.252a.844.844 0 0 1 .338-.081c.293 0 .473.213.575.422 0 0 2.04 4.017 2.251 4.588.212.57.31 1.627.102 2.414a.36.36 0 0 0 .025.25l.332.678c.31.632-3.436 2.418-4.685 2.418-.194 0-.328-.044-.377-.142l-.244-.493a.4.4 0 0 0-.25-.203c-.028-.006-3.006-.797-4.329-2.06-.762-.725-1.255-1.356-1.693-1.917-.36-.459-.67-.854-1.04-1.185-.198-.179-.18-.317-.145-.418.074-.196.279-.348.402-.405a.225.225 0 0 1 .081-.024c.297.01 1.263.537 1.69 1.04.159.189.303.385.434.59.233.348.42.622.737.693a.385.385 0 0 0 .48-.365c0-.05-.01-.101-.032-.149L8.03 8.065Zm-.4-2.413c-.036.013-.07.027-.104.042-.458.206-.698.689-.66 1.323a.69.69 0 0 0 .054.22l.37.813c-.78-.103-1.618-.835-1.618-1.46 0-.647.933-.943 1.8-.943.052 0 .104.002.157.005Z"/></symbol><symbol viewBox="0 0 24 24" id="ic_pointagePlus_border"><path fill-rule="evenodd" clip-rule="evenodd" d="M12 20.889A8.889 8.889 0 1 0 4.825 6.752c.817-.595 2.117-.817 3.332-.736.924.06 1.915.41 2.65.937.83.595 1.25 1.342 1.187 2.108-.045.516-.31 1.037-.754 1.5a.532.532 0 0 0-.249-.026c.471-.456.754-.977.796-1.487.057-.705-.337-1.4-1.111-1.956-.703-.508-1.649-.84-2.534-.897-1.805-.116-3.802.445-3.928 1.95-.132 1.571 1.745 3.558 3.46 3.669.111.007.195.02.267.03.098.014.176.026.28.02l-.407-.894c-.118.02-.236.03-.35.03-.54 0-1.164-.296-1.667-.793C5.3 9.713 5 9.11 5 8.587 5 7.498 6.277 7 7.464 7c.578 0 1.21.19 1.692.51.545.36.844.84.844 1.352 0 .346-.14.703-.39 1.03a.298.298 0 0 0-.118-.012l.671 1.345a1.19 1.19 0 0 1 .601-.578.959.959 0 0 1 .393-.087c.293 0 .562.147.746.41.074-.179.228-.38.549-.525.131-.06.274-.095.42-.095.543 0 .842.444.97.707.058.107.124.212.193.315a1.5 1.5 0 0 1 .022-.16.65.65 0 0 1 .365-.479c.15-.07.318-.107.485-.11.39 0 .725.223.917.612.17.334 1.602 3.162 1.772 3.616.181.49.28 1.378.113 2.092l.227.463c.06.126.135.38-.074.693-.324.49-1.292.987-1.84 1.24-.336.154-1.488.661-2.198.661-.497 0-.695-.25-.766-.396l-.148-.3c-.502-.142-2.5-.748-3.501-1.704a13.33 13.33 0 0 1-1.366-1.544c-.264-.336-.491-.625-.747-.853-.274-.247-.362-.552-.247-.862.113-.299.382-.51.582-.598a.697.697 0 0 1 .252-.063h.047c.382.013 1.043.388 1.465.756L8.302 12.04a.954.954 0 0 1-.35-.012c-.076-.012-.165-.028-.294-.036-.865-.055-1.828-.563-2.573-1.358-.739-.787-1.144-1.724-1.078-2.503L4.01 8.1A8.889 8.889 0 0 0 12 20.888ZM7.369 9.994l.392.86a2.044 2.044 0 0 1-.3.022c-1.07 0-2.335-1.24-2.335-2.29 0-1.007 1.21-1.465 2.335-1.465.552 0 1.156.182 1.618.487.51.337.79.781.79 1.254 0 .33-.138.675-.39.991l-.48-.964a.664.664 0 0 0-.205-.412l-.027-.054A.521.521 0 0 0 8.6 8.23 1.072 1.072 0 0 0 7.944 8l.003.003c-.063 0-.126.005-.187.017A2.088 2.088 0 0 0 7.479 8C6.768 8 6 8.248 6 8.793c0 .261.18.563.479.81.268.22.594.362.89.391Zm.543-.055.031-.009a.266.266 0 0 1-.034-.054 2.087 2.087 0 0 1-.022.006l-.357-.787c-.009-.11-.009-.45.214-.549a.447.447 0 0 1 .203-.042c.184 0 .316.108.343.13l.002.002a223.868 223.868 0 0 0 .395.792 1.273 1.273 0 0 1-.013.013.21.21 0 0 1 .019-.003l1.704 3.42a.31.31 0 0 0 .406.136.286.286 0 0 0 .156-.354l-.367-1.053a.637.637 0 0 1 .39-.483.385.385 0 0 1 .17-.04c.175 0 .282.137.331.22l.697.993a.312.312 0 0 0 .406.09.282.282 0 0 0 .118-.384l-.351-.677c-.003-.081.022-.273.313-.404a.53.53 0 0 1 .2-.048c.239 0 .4.216.5.42.156.318.72 1.072.784 1.156a.307.307 0 0 0 .387.086.283.283 0 0 0 .145-.354c-.142-.386-.194-.909-.05-.974a.659.659 0 0 1 .264-.063c.228 0 .368.165.447.328 0 0 1.586 3.125 1.75 3.568.166.444.242 1.266.08 1.878a.28.28 0 0 0 .02.194l.258.528c.241.491-2.673 1.88-3.644 1.88-.15 0-.255-.034-.293-.11l-.19-.384a.311.311 0 0 0-.195-.157c-.022-.005-2.337-.62-3.366-1.602-.593-.564-.977-1.055-1.317-1.491-.28-.357-.521-.665-.81-.922-.153-.14-.14-.247-.112-.326.058-.152.217-.27.313-.315a.176.176 0 0 1 .063-.018c.23.008.982.417 1.314.809.124.147.236.299.338.46.18.27.326.482.573.537a.3.3 0 0 0 .373-.284.282.282 0 0 0-.025-.115L7.913 9.94Zm-.31-1.877a.99.99 0 0 0-.08.033c-.357.16-.544.535-.514 1.029.003.058.02.115.041.17l.289.633c-.607-.08-1.259-.65-1.259-1.136 0-.503.726-.733 1.4-.733.04 0 .081.001.122.004ZM12 22c5.523 0 10-4.477 10-10S17.523 2 12 2 2 6.477 2 12s4.477 10 10 10Z"/></symbol><symbol viewBox="0 0 24 24" id="ic_readAloud"><path d="M18 10.554c0-.972-.553-2.087-1.709-3.026A6.939 6.939 0 0 0 12 6c-1.606 0-3.166.586-4.3 1.498C6.563 8.414 6 9.524 6 10.554c0 1.491 1.354 3.383 3.766 4.127 3.005.926 8.234-.076 8.234-4.127ZM9.176 20v-3.408C6.173 15.666 4 13.157 4 10.554 4 6.988 7.859 4 12 4s8 3.084 8 6.554-3.634 6.458-8 6.458L9.176 20Z"/></symbol><symbol viewBox="0 0 24 24" id="ic_readingGuide"><path fill-rule="evenodd" clip-rule="evenodd" d="M14.556 4v3c0 .552.394 1 .88 1h3.08l-3.96-4Zm.99 5a1.99 1.99 0 0 1-1.98-2V4h-7.92v7H3.35A1.35 1.35 0 0 0 2 12.35v3.3c0 .746.604 1.35 1.35 1.35h2.296v3c0 .552.443 1 .99 1h11.88v-4h2.134A1.35 1.35 0 0 0 22 15.65v-3.3A1.35 1.35 0 0 0 20.65 11h-2.134V9h-2.97ZM3.35 11.9a.45.45 0 0 0-.45.45v3.3c0 .248.201.45.45.45h17.3a.45.45 0 0 0 .45-.45v-3.3a.45.45 0 0 0-.45-.45H3.35Zm13.9 1.35H6.75a.75.75 0 0 0 0 1.5h10.5a.75.75 0 0 0 0-1.5Z"/></symbol><symbol viewBox="0 0 24 24" id="ic_scroll"><path fill-rule="evenodd" clip-rule="evenodd" d="M17.834 11 12 5.167 6.167 11h11.667ZM6.167 13 12 18.833 17.833 13H6.167Z"/></symbol><symbol viewBox="0 0 24 24" id="ic_skipToContent"><path d="M6.775 6.078a2 2 0 1 1-.672-.746c.88-.666 2.184-1.165 3.99-.823C11.5 4.775 12 5.5 12.5 6.5l1-.5v3.5l-3-2 1-.5c-.388-.922-1.166-1.428-1.593-1.509-1.447-.273-2.453.097-3.132.587ZM9 12.75a.75.75 0 0 1 .75-.75h5.5a.75.75 0 0 1 0 1.5h-5.5a.75.75 0 0 1-.75-.75Zm0 3a.75.75 0 0 1 .75-.75h10.5a.75.75 0 0 1 0 1.5H9.75a.75.75 0 0 1-.75-.75ZM9.75 18a.75.75 0 0 0 0 1.5h10.5a.75.75 0 0 0 0-1.5H9.75Z"/></symbol><symbol viewBox="0 0 24 24" id="ic_stopAnimations"><path fill-rule="evenodd" d="M19.89 5.172 18.562 6.5l1.328 1.328a.376.376 0 0 1 0 .53l-.532.532a.376.376 0 0 1-.53 0L17.5 7.563 16.172 8.89a.376.376 0 0 1-.531 0l-.531-.532a.376.376 0 0 1 0-.53L16.437 6.5 15.11 5.172a.376.376 0 0 1 0-.531l.532-.531a.376.376 0 0 1 .53 0L17.5 5.438l1.328-1.328a.376.376 0 0 1 .531 0l.531.531a.376.376 0 0 1 0 .531Z"/><path fill-rule="evenodd" d="M13.51 4.716c.025-.251.101-.495.223-.716l-.09.002a6.183 6.183 0 0 0-5.99 5.713 4.726 4.726 0 0 0-1.757 2.883 4 4 0 1 0 5.507 5.506 4.727 4.727 0 0 0 2.883-1.758 6.181 6.181 0 0 0 5.713-6.078v-.086.086c-.45.247-.979.297-1.46.147a4.727 4.727 0 0 1-9.448-.233 4.726 4.726 0 0 1 4.492-4.72 1.881 1.881 0 0 1-.073-.746ZM5.46 16.205a2.545 2.545 0 0 1 .476-1.695 4.732 4.732 0 0 0 3.555 3.554 2.545 2.545 0 0 1-4.031-1.86Zm1.813-2.75a3.251 3.251 0 0 1 .539-1.802 6.19 6.19 0 0 0 4.535 4.534 3.273 3.273 0 0 1-5.074-2.733Z" clip-rule="evenodd"/></symbol><symbol viewBox="0 0 24 24" id="ic_textSize"><path fill-rule="evenodd" d="M19.369 6a.632.632 0 0 1 .631.632V9.43a.632.632 0 0 1-.631.631h-.36a.632.632 0 0 1-.632-.631V7.624H14.32v9.75h1.803a.632.632 0 0 1 .631.632v.362a.631.631 0 0 1-.631.632h-5.228a.632.632 0 0 1-.631-.632v-.362a.632.632 0 0 1 .631-.631h1.802v-9.75H8.622V9.46a.632.632 0 0 1-.631.631h-.36A.632.632 0 0 1 7 9.46v-2.8c0-.13.04-.251.107-.352A.632.632 0 0 1 7.65 6h11.72Zm-9.744 7c.125 0 .235.06.303.153l.03.05a.373.373 0 0 1 .042.172V14.5a.375.375 0 0 1-.749 0v-.751H7.378v4.5h.75a.375.375 0 1 1 0 .75H5.88a.375.375 0 1 1 0-.75h.748v-4.5h-1.88v.764a.374.374 0 1 1-.75 0v-1.126c0-.082.027-.16.077-.225A.373.373 0 0 1 4.384 13h5.242Z"/></symbol><symbol viewBox="0 0 24 24" id="ic_textSpacing"><path fill-rule="evenodd" d="m6 4 2 3H7v10H5V7H4l2-3Zm0 16-2-3h4l-2 3Zm4.631-15h8.738a.632.632 0 0 1 .631.632v.736a.631.631 0 0 1-.63.632h-8.74a.632.632 0 0 1-.63-.632v-.736A.631.631 0 0 1 10.63 5Zm0 12h8.738a.631.631 0 0 1 .631.632v.736a.631.631 0 0 1-.631.632H10.63a.632.632 0 0 1-.631-.632v-.736A.631.631 0 0 1 10.63 17Zm0-8h8.738a.632.632 0 0 1 .631.632v.737a.631.631 0 0 1-.631.631H10.63a.631.631 0 0 1-.63-.63v-.737A.631.631 0 0 1 10.63 9Zm0 4h8.738a.631.631 0 0 1 .631.631v.737a.631.631 0 0 1-.631.632H10.63a.631.631 0 0 1-.631-.632v-.737A.631.631 0 0 1 10.63 13Z"/></symbol><symbol viewBox="0 0 24 24" id="ic_visionPlus"><path fill-rule="evenodd" clip-rule="evenodd" d="M21 12c-1.602-3.064-5.544-5-8.98-5C8.584 7 4.604 8.931 3 12c1.614 3.089 5.533 4.962 8.98 5 3.446-.038 7.403-1.907 9.02-5ZM8.372 12a3.6 3.6 0 0 1 6.833-1.586l-4.243 5.042A3.601 3.601 0 0 1 8.372 12Zm-3.964 0c.79-1.101 2.212-2.232 3.777-2.95a4.805 4.805 0 0 0-1.014 2.963 4.806 4.806 0 0 0 1.03 2.956c-1.479-.673-2.83-1.67-3.793-2.968Zm8.878 0c0 .69-.576 1.25-1.286 1.25-.71 0-1.286-.56-1.286-1.25s.576-1.25 1.286-1.25c.71 0 1.286.56 1.286 1.25Z"/></symbol><symbol viewBox="0 0 24 24" id="ic_visionPlusPlus"><path fill-rule="evenodd" clip-rule="evenodd" d="M12.02 7c3.436 0 7.378 1.936 8.98 5-1.617 3.093-5.574 4.962-9.02 5-3.447-.038-7.366-1.911-8.98-5 1.604-3.069 5.584-5 9.02-5Zm-.047 1.4a3.6 3.6 0 0 0-1.011 7.056l.434-.517a3.001 3.001 0 1 1 3.397-4.036l.412-.49A3.599 3.599 0 0 0 11.973 8.4Zm-3.788.65C6.62 9.769 5.198 10.9 4.408 12c.962 1.298 2.314 2.296 3.792 2.97a4.806 4.806 0 0 1-1.03-2.957A4.805 4.805 0 0 1 8.186 9.05Z"/></symbol><symbol viewBox="0 0 24 24" id="ic_visionPlusPlus_border"><path fill-rule="evenodd" clip-rule="evenodd" d="M12 20.889A8.889 8.889 0 1 0 12 3.11a8.889 8.889 0 0 0 0 17.778ZM12 22c5.523 0 10-4.477 10-10S17.523 2 12 2 2 6.477 2 12s4.477 10 10 10Zm8-10c-1.424-2.723-4.928-4.444-7.982-4.444C8.964 7.556 5.426 9.272 4 12c1.435 2.746 4.918 4.41 7.982 4.444C15.045 16.411 18.563 14.75 20 12ZM8.776 12a3.2 3.2 0 0 1 6.073-1.41l-.366.435a2.668 2.668 0 1 0-3.02 3.588l-.386.46A3.201 3.201 0 0 1 8.776 12Zm-3.524 0c.702-.979 1.966-1.984 3.357-2.622a4.271 4.271 0 0 0-.902 2.633c.003.952.325 1.876.916 2.628-1.314-.598-2.516-1.485-3.371-2.638Z"/></symbol><symbol viewBox="0 0 24 24" id="ic_visionPlus_border"><path fill-rule="evenodd" clip-rule="evenodd" d="M20.889 12A8.889 8.889 0 1 1 3.11 12a8.889 8.889 0 0 1 17.778 0ZM22 12c0 5.523-4.477 10-10 10S2 17.523 2 12 6.477 2 12 2s10 4.477 10 10Zm-2.222 0c-1.384-2.723-4.791-4.444-7.76-4.444-2.97 0-6.41 1.716-7.796 4.444 1.395 2.746 4.782 4.41 7.76 4.444 2.979-.033 6.399-1.694 7.796-4.444ZM8.865 12c0-1.767 1.393-3.2 3.112-3.2 1.226 0 2.286.73 2.793 1.79l-3.667 4.482C9.81 14.684 8.865 13.456 8.865 12ZM5.44 12c.683-.979 1.912-1.984 3.264-2.622a4.35 4.35 0 0 0-.876 2.633 4.35 4.35 0 0 0 .89 2.628c-1.278-.598-2.446-1.485-3.278-2.638Zm7.672 0a1.111 1.111 0 1 1-2.222 0 1.111 1.111 0 0 1 2.222 0Z"/></symbol></svg>