<svg xmlns="http://www.w3.org/2000/svg" xmlns:xlink="http://www.w3.org/1999/xlink"><symbol viewBox="0 0 24 24" id="ic_Accessibility"><path fill-rule="evenodd" d="M12.74 5.737a1.332 1.332 0 1 1-1.48-2.215 1.332 1.332 0 0 1 1.48 2.215m5.224.28a.628.628 0 0 1-.006 1.162s-4.468 1.5-4.468 1.972c0 .56.022.713.6 4.683.226 1.544.535 3.666.96 6.614a.767.767 0 0 1-1.5.322s-1.288-6.437-1.547-6.437c-.26 0-1.547 6.437-1.547 6.437a.767.767 0 0 1-1.5-.322c-.123.694 2.064-10.793 1.56-11.297-.38-.381-4.47-1.963-4.47-1.963a.639.639 0 0 1 .488-1.181s4.54 1.79 5.472 1.79c.931 0 5.478-1.78 5.478-1.78a.63.63 0 0 1 .48 0" clip-rule="evenodd"/></symbol><symbol viewBox="0 0 24 24" id="ic_Affichage"><path d="M5 5h14a1 1 0 0 1 1 1v10a1 1 0 0 1-1 1H5a1 1 0 0 1-1-1V6a1 1 0 0 1 1-1m6.646 11.354a.5.5 0 1 0 .708-.708.5.5 0 0 0-.708.708M5 15h14V6H5zm8.5 4H16a.5.5 0 0 1 .5.5v.5h-9v-.5A.5.5 0 0 1 8 19h2.5v-1.5h3z"/></symbol><symbol viewBox="0 0 24 24" id="ic_Audio"><path fill-rule="evenodd" d="m17.937 17.728-1.003-.856a6.373 6.373 0 0 0 0-8.744l1.003-.856a7.656 7.656 0 0 1 0 10.456M16.265 16.3l-1.004-.857a4.25 4.25 0 0 0 0-5.888l1.004-.857a5.53 5.53 0 0 1 0 7.602m-1.674-1.428-1.004-.857a2.13 2.13 0 0 0 0-3.032l1.004-.857a3.403 3.403 0 0 1 0 4.746m-9.702.66A.88.88 0 0 1 4 14.667v-4.334c0-.478.398-.866.889-.866h4l4-3.467v13l-4-3.467z"/></symbol><symbol viewBox="0 0 24 24" id="ic_Disclosure_closed"><path fill-rule="evenodd" d="M21.6 6.6 12 18 2.4 6.6z" clip-rule="evenodd"/></symbol><symbol viewBox="0 0 24 24" id="ic_Disclosure_opened"><path fill-rule="evenodd" d="M21.6 17.4 12 6 2.4 17.4z" clip-rule="evenodd"/></symbol><symbol viewBox="0 0 24 24" id="ic_Form_Chevron_left"><path fill-rule="evenodd" d="m15 5-5 5-2 2 2 2 5 5 2-2-5-5 5-5z" clip-rule="evenodd"/></symbol><symbol viewBox="0 0 24 24" id="ic_Form_Chevron_right"><path fill-rule="evenodd" d="m10 19 5-5 2-2-2-2-5-5-2 2 5 5-5 5z" clip-rule="evenodd"/></symbol><symbol viewBox="0 0 24 24" id="ic_Minus_small"><path d="M6.984 10.992h9.984v1.997H6.984z"/></symbol><symbol viewBox="0 0 24 24" id="ic_Navigation"><path fill-rule="evenodd" d="M19.457 11.2A7.514 7.514 0 0 0 12.8 4.543V3h-1.6v1.543A7.51 7.51 0 0 0 4.543 11.2H3v1.6h1.543a7.51 7.51 0 0 0 6.657 6.657V21h1.6v-1.543a7.514 7.514 0 0 0 6.657-6.657H21v-1.6zm-1.51 1.6a6.01 6.01 0 0 1-5.147 5.147V16.5h-1.6v1.447A6.01 6.01 0 0 1 6.053 12.8H7.5v-1.6H6.053A6.01 6.01 0 0 1 11.2 6.053V7.5h1.6V6.053a6.01 6.01 0 0 1 5.147 5.147H16.5v1.6z" clip-rule="evenodd"/></symbol><symbol viewBox="0 0 24 24" id="ic_Pause"><path fill-rule="evenodd" d="M10.2 21H3V3h7.2zM21 21h-7.2V3H21z" clip-rule="evenodd"/></symbol><symbol viewBox="0 0 24 24" id="ic_Photo_Video"><path fill-rule="evenodd" d="M16.387 4H5.032c-.57.002-1.03.478-1.032 1.067V15.2c.002.588.463 1.065 1.032 1.067h1.549v-3.2H5.409a.383.383 0 0 1-.377-.39V7.59c0-.215.169-.389.377-.389h12.01V5.067c-.001-.589-.463-1.065-1.032-1.067M5.357 14.053h.46c.18 0 .325.15.325.336v.555a.33.33 0 0 1-.325.336h-.46a.32.32 0 0 1-.23-.098.34.34 0 0 1-.095-.238v-.555a.33.33 0 0 1 .325-.336m.897-8.236a.34.34 0 0 1-.095.238.32.32 0 0 1-.23.098h-.572a.32.32 0 0 1-.23-.098.34.34 0 0 1-.095-.238v-.555a.33.33 0 0 1 .325-.336h.572c.18 0 .325.15.325.336zm2.03-.02a.33.33 0 0 1-.325.336h-.537a.32.32 0 0 1-.23-.098.34.34 0 0 1-.095-.238v-.554a.34.34 0 0 1 .095-.238.32.32 0 0 1 .23-.098h.537c.18 0 .325.15.325.336zm2.064 0a.33.33 0 0 1-.325.336h-.537a.32.32 0 0 1-.23-.098.34.34 0 0 1-.095-.238v-.554c0-.09.035-.175.095-.238a.32.32 0 0 1 .23-.098h.537c.18 0 .325.15.325.336zm2.065 0a.34.34 0 0 1-.095.238.32.32 0 0 1-.23.098h-.537a.32.32 0 0 1-.23-.098.34.34 0 0 1-.095-.238v-.554a.34.34 0 0 1 .095-.238.32.32 0 0 1 .23-.098h.537c.18 0 .325.15.325.336zm2.064 0a.33.33 0 0 1-.325.336h-.537a.33.33 0 0 1-.325-.336v-.554a.33.33 0 0 1 .325-.336h.537c.18 0 .325.15.325.336zm2.065 0a.33.33 0 0 1-.325.336h-.537a.32.32 0 0 1-.23-.098.34.34 0 0 1-.095-.238v-.554a.34.34 0 0 1 .095-.238.32.32 0 0 1 .23-.098h.537c.18 0 .325.15.325.336zm3.452 2.888a1.05 1.05 0 0 0-1.026-.952H8.129c-.57.002-1.03.479-1.032 1.067v10.133c0 .59.462 1.066 1.032 1.067h10.839c.57-.002 1.03-.478 1.032-1.067V8.823q0-.069-.006-.138m-1.026 4.382v4.266l-1.58-1.874-1.902-2.257a.37.37 0 0 0-.556-.016l-2.223 2.375-.138.148a.37.37 0 0 1-.542 0l-.729-.779a.366.366 0 0 0-.52-.021l-1.484 1.358-1.165 1.066V8.8h10.839zm-6.71-1.334c0-.736-.578-1.333-1.29-1.333s-1.29.597-1.29 1.333c0 .737.577 1.334 1.29 1.334.342 0 .67-.14.912-.39s.378-.59.378-.944"/></symbol><symbol viewBox="0 0 24 24" id="ic_Play"><path fill-rule="evenodd" d="M12.138 16.8 3 21.6V2.4l9.138 4.8L21 12z" clip-rule="evenodd"/></symbol><symbol viewBox="0 0 24 24" id="ic_Plus_small"><path d="M18.984 10.989h-5.997V4.992H10.99v5.997H4.992v1.998h5.997v5.997h1.998v-5.997h5.997z"/></symbol><symbol viewBox="0 0 24 24" id="ic_Reduire_C+"><path d="m10.848 19.821 6.212-7.885-6.164-7.821a1.296 1.296 0 0 1 .24-1.84 1.353 1.353 0 0 1 1.875.234l6.641 8.428c.464.588.464 1.41 0 1.998l-6.69 8.492a1.353 1.353 0 0 1-1.875.235 1.296 1.296 0 0 1-.24-1.84"/><path d="M4.28 19.885 10.491 12 4.328 4.18a1.296 1.296 0 0 1 .24-1.84 1.353 1.353 0 0 1 1.874.234l6.642 8.428c.464.588.464 1.41 0 1.998l-6.69 8.492a1.353 1.353 0 0 1-1.875.235 1.296 1.296 0 0 1-.24-1.84"/></symbol><symbol viewBox="0 0 24 24" id="ic_Settings"><path fill-rule="evenodd" d="M19.862 12.012c0-2.655 2.897-.646 1.548-3.902-1.35-3.257-1.977.211-3.855-1.666s1.592-2.504-1.664-3.853-1.249 1.547-3.903 1.547-.646-2.896-3.902-1.547.211 1.976-1.666 3.853-2.505-1.59-3.854 1.666 1.548 1.247 1.548 3.902-2.897.646-1.548 3.902c1.35 3.257 1.977-.211 3.854 1.665s-1.591 2.505 1.666 3.854 1.247-1.547 3.902-1.547c2.654 0 .646 2.896 3.903 1.547 3.256-1.349-.213-1.977 1.664-3.854 1.878-1.876 2.505 1.592 3.855-1.665 1.349-3.256-1.548-1.247-1.548-3.902M12 7.224a4.8 4.8 0 1 1 0 9.6 4.8 4.8 0 0 1 0-9.6" clip-rule="evenodd"/></symbol><symbol viewBox="0 0 24 24" id="ic_Text"><path fill-rule="evenodd" d="M19.4 4a.6.6 0 0 1 .6.6v3.8a.6.6 0 0 1-.6.6h-.797a.6.6 0 0 1-.6-.6V6H13.01v12h2.396a.6.6 0 0 1 .6.6v.8a.6.6 0 0 1-.6.6H8.617a.6.6 0 0 1-.6-.6v-.8a.6.6 0 0 1 .6-.6h2.396V6H5.997v2.436a.6.6 0 0 1-.6.6H4.6a.6.6 0 0 1-.6-.6v-3.8c0-.126.039-.243.105-.34A.6.6 0 0 1 4.623 4z"/></symbol><symbol viewBox="0 0 24 24" id="ic_audioPlus"><path d="M9.593 20.962c-.497-.085-.94-.35-1.19-.712-.191-.277-.208-.338-.185-.662q.045-.615.599-.795c.246-.08.405-.03.958.298.445.263.735.267 1.247.015q.382-.188.821-.643c.512-.53.713-.815 1.58-2.229.783-1.277 1.026-1.592 2.002-2.595 1.271-1.305 1.562-1.844 1.726-3.202.183-1.519-.345-2.95-1.515-4.103-.783-.77-1.398-1.122-2.464-1.408-.617-.166-1.83-.15-2.475.033-1.843.521-3.406 1.98-3.723 3.475-.122.579-.136.606-.349.693-.292.119-1.215.05-1.429-.106-.216-.159-.254-.532-.11-1.09.218-.85.755-1.738 1.538-2.545C8.18 3.782 10.35 2.88 12.328 3.013c2.701.183 4.826 1.487 5.92 3.631.537 1.052.752 1.998.752 3.318 0 1.975-.541 3.172-2.271 5.018-1.617 1.725-1.722 1.867-2.705 3.66-.478.874-1.16 1.588-1.802 1.887-.803.374-1.914.558-2.63.435m4.167-8.969c-.255-.091-.445-.193-.428-.23.668-1.419.768-2.448.302-3.103-.441-.62-1.547-.863-2.274-.5-.324.162-.97.74-1.235 1.106l-.126.172-.528-.093c-.291-.052-.542-.106-.558-.122-.055-.055.181-.647.372-.93.29-.43.842-.882 1.431-1.17.497-.244.566-.26 1.17-.282.764-.028 1.214.053 1.748.316 1.534.753 2.01 2.689 1.098 4.459-.186.36-.303.52-.39.529-.068.007-.33-.061-.582-.152"/></symbol><symbol viewBox="0 0 24 24" id="ic_audioPlus_border"><path fill-rule="evenodd" d="M20.889 12A8.889 8.889 0 1 1 3.11 12a8.889 8.889 0 0 1 17.778 0M22 12c0 5.523-4.477 10-10 10S2 17.523 2 12 6.477 2 12 2s10 4.477 10 10M8.917 19.375c.215.302.594.522 1.02.593.613.103 1.565-.05 2.254-.362.55-.25 1.134-.844 1.544-1.572.842-1.495.932-1.613 2.318-3.05 1.483-1.539 1.948-2.537 1.947-4.182 0-1.1-.184-1.889-.644-2.765-.938-1.787-2.76-2.873-5.075-3.026-1.695-.112-3.554.64-4.89 1.978-.67.672-1.13 1.412-1.318 2.12-.123.465-.09.776.095.909.183.13.974.187 1.225.088.182-.073.194-.095.3-.577.27-1.246 1.61-2.462 3.19-2.897.554-.152 1.592-.165 2.122-.027.913.239 1.44.531 2.111 1.174 1.003.96 1.456 2.153 1.299 3.419-.14 1.131-.39 1.58-1.48 2.668-.836.836-1.044 1.098-1.715 2.162-.743 1.179-.916 1.416-1.354 1.858q-.377.378-.704.536c-.439.21-.688.206-1.069-.013-.474-.273-.61-.315-.821-.248q-.475.15-.513.662c-.02.27-.006.321.158.552m4.225-7.072c-.015.03.148.115.367.191.216.076.44.132.499.127.074-.008.174-.14.334-.441.782-1.475.374-3.089-.941-3.716-.458-.219-.844-.287-1.498-.264-.518.019-.577.033-1.003.235-.506.24-.98.617-1.228.976-.163.236-.365.73-.318.775.014.013.229.058.478.101l.453.078.107-.143c.229-.306.782-.787 1.06-.922.623-.302 1.57-.1 1.949.417.399.545.313 1.403-.259 2.586" clip-rule="evenodd"/></symbol><symbol viewBox="0 0 24 24" id="ic_calmePlus"><path d="M17.237 14.995c-1.124-.094-2.16-.627-3.127-1.166-.704-.428-1.353-.942-1.995-1.45-1.332 1.222-2.933 2.277-4.778 2.502-1.372.214-2.898-.236-3.72-1.386-.597-.733-.82-1.774-.403-2.641.573-1.35 2.183-2.037 3.605-1.812 1.9.231 3.622 1.463 5.009 2.693.373-.325.886-.893 1.407-1.215 1.35-1.047 3.101-1.769 4.841-1.432 1.167.31 2.337 1.067 2.771 2.225.301.821.16 1.783-.446 2.439-.752.918-1.997 1.295-3.164 1.243M6.865 14.46c1.587-.214 3.011-1.035 4.193-2.074 0 0 .229-.21.527-.51-1.025-1.036-2.667-2.105-4.01-2.408-1.422-.28-3.012.382-3.738 1.632-.591 1.18-.018 2.89 1.334 3.26.548.18 1.127.143 1.694.1m10.615-.031c1.222-.14 2.55-.845 2.837-2.117.24-.913-.15-1.942-.987-2.424-1.074-.668-2.461-.577-3.579-.063-1.285.545-2.435 1.375-3.41 2.356.99.976 2.2 1.774 3.546 2.18.522.13 1.063.113 1.593.068"/></symbol><symbol viewBox="0 0 24 24" id="ic_calmePlus_border"><path fill-rule="evenodd" d="M20.889 12A8.889 8.889 0 1 1 3.11 12a8.889 8.889 0 0 1 17.778 0M22 12c0 5.523-4.477 10-10 10S2 17.523 2 12 6.477 2 12 2s10 4.477 10 10m-8.408 1.496c.835.502 1.73 1 2.7 1.087 1.008.048 2.083-.303 2.733-1.158.522-.611.645-1.506.385-2.271-.375-1.079-1.385-1.783-2.393-2.072-1.502-.314-3.015.358-4.18 1.333-.314.21-.625.531-.894.81-.116.119-.224.23-.32.322-1.198-1.145-2.686-2.293-4.326-2.508-1.227-.21-2.617.43-3.112 1.687-.36.807-.168 1.777.347 2.46.71 1.07 2.028 1.49 3.213 1.29 1.592-.21 2.975-1.192 4.125-2.329l.014.012c.55.47 1.106.942 1.708 1.337m-2.635-1.344c-1.02.967-2.25 1.732-3.62 1.932-.49.04-.99.074-1.462-.093-1.168-.346-1.663-1.937-1.153-3.037.628-1.163 2-1.78 3.228-1.519 1.16.282 2.577 1.278 3.462 2.242-.257.279-.455.475-.455.475m7.995-.069c-.247 1.185-1.395 1.841-2.45 1.971-.457.043-.925.059-1.375-.063-1.162-.378-2.207-1.121-3.062-2.03.842-.914 1.835-1.687 2.945-2.194.965-.478 2.162-.563 3.09.059.722.448 1.06 1.407.852 2.257" clip-rule="evenodd"/></symbol><symbol viewBox="0 0 24 24" id="ic_capitalLetters"><path d="M9.773 5.475A1.9 1.9 0 0 0 8.5 5q-.723 0-1.273.48-.55.481-.806 1.264L3.112 16.786Q3 17.127 3 17.76c.022.19.082.37.176.53.094.159.22.292.367.389q.462.32 1.055.32.867 0 1.253-1.607l.292-1.175h4.714l.382 1.503c.084.332.236.637.444.892q.315.387.714.387.61 0 1.076-.322.465-.322.527-.917 0-.618-.112-.976l-3.31-10.04q-.255-.795-.805-1.27m-2.75 7.96 1.495-5.151 1.49 5.151zm8.465.558q-.263.363-.297.915h1.69q.048-.464.333-.662t.786-.198q.226 0 .417.033.203.022.345.11a.54.54 0 0 1 .238.232.7.7 0 0 1 .095.397q.012.243-.154.375-.167.12-.453.187-.285.067-.655.1-.369.033-.75.088a7 7 0 0 0-.762.154 2.2 2.2 0 0 0-.666.276q-.286.188-.476.507-.18.308-.179.794 0 .442.155.762.166.32.452.529.285.21.667.309.381.099.821.099.571 0 1.12-.154a2.24 2.24 0 0 0 .952-.54q.012.142.035.286.036.132.084.265H21q-.12-.177-.167-.53a6 6 0 0 1-.047-.739V14.62q0-.518-.25-.827a1.7 1.7 0 0 0-.643-.496 3 3 0 0 0-.87-.232 7 7 0 0 0-.94-.066q-.51 0-1.023.1a3 3 0 0 0-.905.308 2 2 0 0 0-.667.585m3.333 2.217a.8.8 0 0 0 .274-.144v.585q0 .132-.035.353a1.1 1.1 0 0 1-.155.44q-.132.21-.405.365-.274.154-.774.154-.203 0-.393-.033a1.1 1.1 0 0 1-.333-.11.66.66 0 0 1-.226-.232.7.7 0 0 1-.084-.353q0-.22.084-.364a.7.7 0 0 1 .214-.231q.143-.1.322-.155.19-.055.38-.088.203-.033.405-.055a5 5 0 0 0 .726-.132"/></symbol><symbol fill="none" viewBox="0 0 24 24" id="ic_clearlyLinks"><path fill="#000" fill-rule="evenodd" d="M4.5 3a1.5 1.5 0 1 0 0 3h7a1.5 1.5 0 0 0 0-3zm0 14a1.5 1.5 0 0 0 0 3h15a1.5 1.5 0 0 0 0-3zM21 11.5a1.5 1.5 0 0 0-1.5-1.5H18V9a1 1 0 0 0-1-1H7a1 1 0 0 0-1 1v1H4.5a1.5 1.5 0 0 0 0 3H6v1a1 1 0 0 0 1 1h10a1 1 0 0 0 1-1v-1h1.5a1.5 1.5 0 0 0 1.5-1.5" clip-rule="evenodd"/></symbol><symbol viewBox="0 0 24 24" id="ic_clickFacilite"><path fill-rule="evenodd" d="M11.571 3h-.428C8.293 3 6 5.32 6 8.205v1.518h5.571zM18 8.205C18 5.32 15.707 3 12.857 3h-.428v6.723H18zM12.857 21h-1.714C8.293 21 6 18.68 6 15.795V10.59h12v5.205C18 18.68 15.707 21 12.857 21" clip-rule="evenodd"/></symbol><symbol viewBox="0 0 24 24" id="ic_colorContrast"><path fill-rule="evenodd" d="M12 4a8 8 0 1 0 0 16 8 8 0 0 0 0-16m0 14.571V5.411c3.625.015 6.588 2.96 6.588 6.589S15.625 18.555 12 18.571"/></symbol><symbol viewBox="0 0 24 24" id="ic_cursorAspect"><path d="m19.425 15.22-4.141 4.121-2.712-2.698L10.332 21 3 3l18 7.258-4.228 2.322z"/></symbol><symbol viewBox="0 0 24 24" id="ic_deleteBackgroundImages"><path d="M14.308 4v2.824c0 .52.367.94.82.94H18zm.923 4.706c-.49 0-.96-.198-1.306-.551a1.9 1.9 0 0 1-.54-1.331V4H6v15.059c0 .25.097.489.27.665a.9.9 0 0 0 .653.276H18V8.706zm-5.17 4.57c-.15-.242-.41-1.114-.472-1.111a.07.07 0 0 0-.05.031c-.013.018-1.46 2.432-1.51 2.468l-.557-.661c.437-.603 1.447-2.242 1.551-2.35 1.093-1.114 1.447.854 1.54 1.048.253-.437 1.495-3 1.65-3 .223-.001 1.186 1.398 1.545 1.831.11.133.524.527.903.527.791-.001 2.239-1.877 2.239-1.877-.298.567-1.147 2.479-2.331 2.614-.55.062-.85-.22-1.032-.369-.683-.558-1.062-1.593-1.247-1.593-.04 0-.046.024-.06.042-.008.011-.831 2.195-.94 2.356-.243.364-.866.625-1.228.045"/></symbol><symbol viewBox="0 0 24 24" id="ic_facilePlus"><path fill-rule="evenodd" d="M11.256 9.769c-.195.317-.588.403-.88.194h-.001c-.64-.426-1.457-.578-2.195-.578s-1.555.152-2.195.577l.002-.001c-.292.212-.687.126-.882-.192-.193-.315-.111-.753.178-.962C6.125 8.207 7.188 8 8.18 8s2.055.207 2.897.807c.29.21.372.647.179.962M7.357 13.74a.6.6 0 0 0-.9 0 .744.744 0 0 0 .002.981C7.882 16.243 10.044 17 11.999 17c1.94 0 4.134-.753 5.542-2.28a.736.736 0 0 0 0-.979.6.6 0 0 0-.9 0c-1.198 1.248-3.014 1.874-4.642 1.874-1.63 0-3.441-.627-4.642-1.874M18.893 9.77c-.194.317-.587.403-.88.194-.638-.441-1.451-.578-2.195-.578-.738 0-1.555.152-2.195.577l.001-.001c-.292.212-.687.126-.882-.192-.192-.313-.107-.756.18-.963C13.76 8.22 14.839 8 15.819 8c1 0 2.051.196 2.899.809.292.212.371.642.176.96" clip-rule="evenodd"/></symbol><symbol viewBox="0 0 24 24" id="ic_facilePlus_border"><path fill-rule="evenodd" d="M12 20.889A8.889 8.889 0 1 0 12 3.11a8.889 8.889 0 0 0 0 17.778M12 22c5.523 0 10-4.477 10-10S17.523 2 12 2 2 6.477 2 12s4.477 10 10 10m-.649-11.914a.555.555 0 0 1-.767.156h-.002c-.558-.342-1.272-.464-1.915-.464-.644 0-1.357.122-1.916.463h.001a.556.556 0 1 1-.614-.926c.735-.482 1.663-.648 2.529-.648s1.793.166 2.528.648a.56.56 0 0 1 .156.77m-3.403 3.188a.555.555 0 1 0-.784.787c1.243 1.22 3.13 1.828 4.836 1.828 1.694 0 3.608-.605 4.837-1.83a.556.556 0 0 0-.785-.786c-1.046 1.002-2.631 1.505-4.052 1.505-1.423 0-3.004-.504-4.052-1.504m10.07-3.188a.556.556 0 0 1-.768.156c-.558-.354-1.267-.464-1.917-.464-.643 0-1.357.122-1.916.463h.002c-.255.17-.6.1-.77-.155a.565.565 0 0 1 .157-.773c.731-.47 1.673-.646 2.527-.646.874 0 1.79.157 2.53.649.256.17.325.515.155.77" clip-rule="evenodd"/></symbol><symbol viewBox="0 0 24 24" id="ic_focusAspect"><path fill-rule="evenodd" d="M3 7h18v10H3zm2 2v6h14V9z" clip-rule="evenodd"/></symbol><symbol viewBox="0 0 24 24" id="ic_fontFamily"><path fill-rule="evenodd" d="M12 4a2.57 2.57 0 0 1 1.62.543q.7.544 1.026 1.45l4.211 11.476q.143.407.143 1.115a1.37 1.37 0 0 1-.672 1.048Q17.737 20 16.96 20q-.51 0-.908-.442a2.54 2.54 0 0 1-.566-1.02L15 16.82H9l-.371 1.344Q8.136 20 7.035 20a2.5 2.5 0 0 1-1.344-.366 1.43 1.43 0 0 1-.69-1.05q0-.724.142-1.114l4.21-11.477A3.17 3.17 0 0 1 10.38 4.55 2.55 2.55 0 0 1 12 4m.023 3.753L10.12 13.64h3.8z"/></symbol><symbol viewBox="0 0 24 24" id="ic_langueDesSignes"><path fill-rule="evenodd" d="M12.726 12.738c.285-.242.648-.55.856-.724.66-.532.707-.564 2.387-1.465 1.136-.619 1.426-.792 1.692-1.042.243-.228.36-.51.336-.76a.57.57 0 0 0-.255-.4c-.568-.359-1.332.151-1.576.325a6.6 6.6 0 0 1-1.68.803c.429-.33.817-.707 1.17-1.107.197-.228.452-.51.556-.619.302-.315.696-.803.777-1.042.07-.206.058-.336-.07-.531-.139-.207-.255-.26-.521-.326-.267-.054-.383-.065-.603.033-.301.13-.486.303-.88.76-.14.151-.336.336-.533.52.08-.108.173-.228.266-.347.243-.304.568-.695.719-.836.231-.217.347-.358.417-.553.116-.337.023-.554-.07-.673-.139-.184-.37-.271-.695-.271-.128.01-.348.021-.475.065-.244.087-.672.445-.95.727-.128.13-.325.315-.43.401-.15.12-.382.37-.532.543a10 10 0 0 1 .359-.553c.37-.467.66-.88.44-1.27a.8.8 0 0 0-.498-.358 1.04 1.04 0 0 0-.765.087c-.382.206-.649.52-1.437 1.562-.232.293-.602.88-.87 1.357a5 5 0 0 1-.44.63c-.272.297-.462.587-.88.705.007-.158.028-.398.052-.662.013-.155.028-.318.04-.478.047-.51.012-1.085-.533-1.454-.29-.206-.625-.282-.927-.217a.78.78 0 0 0-.498.347c-.15.26-.232.966-.255 1.346-.035.597-.093.955-.255 1.736-.07.337-.162.803-.162.999-.023.596.093 1.725.255 2.094.193.468.448.804.784 1.123-.363.425-.716.907-.811 1.13-.258.627-.268 1.12-.184 1.833.27.622.494.895 1.743 1.857.852.558 1.571.432 1.863.419.225-.01 1.24-.038 1.695-.045.895-.013.973-.004 2.878.343 1.255.23 1.573.27 1.92.243.405-.031.705-.262.647-.497q-.108-.447-1.144-.526c-.581-.046-1.035-.142-1.68-.358a22 22 0 0 0-.742-.236c-.2-.057-.264-.093-.297-.162q-.04-.089.026-.128c.068-.038.695-.076 1.507-.09.25-.004.717-.056 1.048-.116.328-.06.728-.122.89-.139.461-.047 1.04-.178 1.212-.276.132-.074.165-.118.199-.264.035-.156.025-.195-.097-.368-.121-.172-.154-.198-.306-.24-.245-.067-.445-.059-1.067.044-.524.088-1.492.13-1.807.08a7 7 0 0 0-.643-.023c-.275 0-.461-.008-.413-.017.047-.009.39-.098.76-.2.372-.1.731-.191.799-.202.067-.011.467-.1.888-.197.42-.097.954-.192 1.184-.211.32-.027.457-.057.584-.128.38-.213.407-.484.078-.759a1.2 1.2 0 0 0-.294-.183c-.177-.06-.683-.065-1.105-.014-.2.025-.488.046-.643.048a6 6 0 0 0-.73.082 10 10 0 0 1-.659.098c-.214.019-.47.07-1.134.23-.263.062-.365.072-.344.034.028-.053.288-.165 1.24-.536.213-.083.504-.217.647-.297.219-.123.353-.166.832-.264.702-.143.96-.267 1.023-.488.08-.285-.156-.591-.507-.657-.353-.066-.71-.012-2.068.311-.312.075-.832.232-1.304.394m-1.332.364c.192-.12.356-.273.52-.426.161-.141.915-.781 1.262-1.063.684-.565.754-.608 2.48-1.53 1.09-.587 1.344-.739 1.565-.945.162-.152.185-.304.174-.336-.151-.087-.487.022-.916.315-.498.336-.927.553-1.6.792-.266.097-.59.217-.718.271-.197.087-.37.141-.568.065-.197-.087-.29-.26-.243-.434.023-.065.07-.195 1.159-1.107.174-.152.475-.456.672-.683.209-.25.475-.543.591-.662.313-.315.614-.728.65-.836-.022-.158-.25-.241-.395-.174-.174.076-.29.163-.672.608-.325.369-1.055 1.03-1.39 1.215a6 6 0 0 0-.464.348c-.36.293-.522.412-.719.238l-.185-.173c.383-.461.671-.982 1.054-1.444.035-.043.267-.347.522-.661a9 9 0 0 1 .776-.901c.209-.196.255-.272.278-.337.076-.194-.006-.238-.208-.238-.104 0-.22.021-.255.032-.104.033-.452.293-.73.586-.14.152-.36.347-.475.445-.201.167-.373.364-.544.558a8 8 0 0 1-.36.397c-.265.248-.461.563-.677.847-.204.266-.344.362-.68.303-.176-.53.265-1.043.51-1.508.094-.174.21-.434.256-.564.092-.272.197-.413.486-.77.115-.14.643-.661.255-.782a.5.5 0 0 0-.324.043c-.267.141-.487.39-1.252 1.4-.22.282-.567.847-.834 1.302-.14.24-.348.543-.498.717-.14.152-.302.347-.371.434-.081.097-.22.228-.336.293-.174.108-.684.26-.893.217-.359-.065-.359-.152-.208-1.758.058-.608-.07-.814-.29-.966-.052-.034-.58-.249-.58-.044-.057.098-.15.543-.185 1.118-.034.619-.092.999-.255 1.802-.08.39-.139.792-.15.922-.023.597.092 1.617.208 1.877.15.36.34.623.597.876.276-.28.604-.514.926-.744.712-.513 1.018-.76 1.492-1.202.422-.395.886-.744 1.074-.809.328-.113.673.152.762.586.081.397-.088.734-.593 1.182-1.057.94-1.16 1.042-1.103 1.11.066.081.476.265.634.285.088.011.254.003.368-.018.081-.015.239-.042.4-.069" clip-rule="evenodd"/></symbol><symbol viewBox="0 0 24 24" id="ic_langueDesSignes_border"><path fill-rule="evenodd" d="M20.889 12A8.889 8.889 0 1 1 3.11 12a8.889 8.889 0 0 1 17.778 0M22 12c0 5.523-4.477 10-10 10S2 17.523 2 12 6.477 2 12 2s10 4.477 10 10m-8.05.014-.784.724c.432-.162.909-.32 1.195-.394 1.245-.323 1.572-.377 1.895-.31.323.065.54.371.465.656-.057.222-.294.345-.938.488-.438.098-.561.14-.762.264-.131.08-.398.214-.593.297-.873.371-1.11.483-1.137.535-.02.04.074.03.315-.034.61-.159.844-.21 1.04-.229.106-.01.378-.054.604-.098a5 5 0 0 1 .67-.082 6 6 0 0 0 .589-.047c.386-.052.85-.046 1.012.013.063.022.184.105.27.183.302.275.276.546-.072.76-.116.07-.241.1-.535.127a9 9 0 0 0-1.085.211 29 29 0 0 1-.814.197c-.062.01-.392.102-.732.203-.34.1-.654.19-.698.2-.043.008.127.016.379.016s.517.01.59.023c.289.05 1.175.008 1.656-.08.57-.103.754-.111.978-.044.14.042.17.068.281.24.112.173.121.212.088.368-.03.146-.06.19-.181.264-.159.098-.689.23-1.112.276-.148.017-.515.079-.816.139-.303.06-.73.112-.96.116-.744.014-1.32.052-1.382.09q-.06.04-.024.128c.03.07.09.105.273.162.129.04.435.146.68.236.591.216 1.007.313 1.54.358q.948.08 1.048.526c.053.235-.222.466-.592.497-.319.027-.61-.014-1.76-.242-1.747-.348-1.818-.357-2.639-.344-.416.007-1.347.035-1.553.045q-.042.002-.096.007c-.31.025-.913.074-1.612-.427-1.145-.961-1.35-1.234-1.598-1.856-.077-.713-.068-1.206.169-1.832.087-.224.41-.706.743-1.131a3.1 3.1 0 0 1-.719-1.123c-.148-.369-.255-1.498-.233-2.094 0-.196.085-.662.148-.999.15-.781.202-1.14.234-1.736.021-.38.096-1.085.234-1.346a.72.72 0 0 1 .457-.347c.276-.065.584.01.85.217.499.369.53.944.488 1.454l-.037.478c-.022.264-.041.504-.048.662a3 3 0 0 0 .276-.098 1 1 0 0 0 .18-.174c.065-.086.224-.282.351-.434.117-.152.298-.423.404-.63.244-.477.584-1.063.797-1.356.722-1.041.966-1.356 1.317-1.562a.88.88 0 0 1 .701-.087.73.73 0 0 1 .457.358c.202.39-.064.803-.404 1.27-.233.314-.297.423-.34.564 0 0 .465-.524.5-.554.095-.086.276-.27.393-.401.255-.282.648-.64.87-.727.1-.037.26-.05.378-.06l.058-.005c.298 0 .51.087.638.271.085.12.17.336.063.673-.063.195-.17.336-.382.553-.314.321-.577.706-.832 1.079l-.071.104c.18-.184.361-.369.489-.52.36-.457.53-.63.807-.76.202-.098.308-.087.552-.033.245.065.35.12.478.326a.56.56 0 0 1 .064.531c-.074.24-.435.727-.712 1.042-.095.109-.329.39-.51.619-.201.25-.499.586-.68.749q-.104.091-.196.18-.104.099-.196.178a5.8 5.8 0 0 0 1.54-.803c.223-.174.924-.684 1.445-.326a.58.58 0 0 1 .233.402c.022.25-.085.531-.308.76-.244.249-.51.422-1.55 1.041-1.541.9-1.583.933-2.189 1.465m-1.613.748c-.091.093-.216.22-.393.34-.147.027-.292.054-.366.069a1.3 1.3 0 0 1-.338.018c-.145-.02-.52-.204-.58-.284-.052-.07.041-.171 1.01-1.11.463-.449.618-.786.544-1.183-.082-.434-.398-.699-.699-.586-.172.065-.598.414-.985.81-.433.442-.714.688-1.367 1.2a10 10 0 0 0-.754.645l-.094.1a2.6 2.6 0 0 1-.547-.876c-.107-.26-.213-1.28-.192-1.877.011-.13.064-.532.138-.922.15-.803.202-1.183.234-1.802.032-.575.117-1.02.17-1.118 0-.01.032-.054.106-.075.096-.022.255 0 .425.119.202.152.319.358.266.966-.138 1.606-.138 1.693.191 1.758.191.043.659-.109.818-.217a1.3 1.3 0 0 0 .308-.293c.064-.087.213-.282.34-.434.138-.174.33-.478.457-.717.244-.455.563-1.02.765-1.302.7-1.01.902-1.259 1.147-1.4a.4.4 0 0 1 .297-.043c.032.01.096.032.128.098.032.054-.01.217-.361.683-.266.358-.362.5-.447.77-.042.13-.148.391-.233.565-.542 1.118-.563 1.183-.52 1.335l.222.206c.196.032.302-.12.453-.336l.015-.022c.34-.5.478-.695.605-.825a8 8 0 0 0 .33-.397l.074-.091c.138-.174.33-.38.425-.467a6 6 0 0 0 .435-.445c.255-.293.574-.553.67-.586a1 1 0 0 1 .233-.032c.149 0 .213.032.213.043v.008a.34.34 0 0 1-.021.187c-.022.065-.064.141-.255.337-.16.163-.479.564-.712.9-.177.239-.342.471-.426.589l-.052.073c-.041.054-.157.234-.26.393-.082.13-.157.245-.176.27-.18.282-.382.585-.382.585l-.149.196.17.173c.18.174.33.055.659-.238a5 5 0 0 1 .425-.348c.308-.184.977-.846 1.274-1.215.35-.445.457-.532.617-.608.063-.032.063-.032.201 0a.7.7 0 0 1 .149.087c.033.271-.286.608-.496.829q-.05.05-.088.094c-.107.119-.35.412-.542.662-.18.227-.457.531-.616.683-.999.912-1.041 1.042-1.062 1.107-.043.174.042.347.223.434.18.076.34.022.52-.065.117-.054.415-.174.659-.271a5.7 5.7 0 0 0 1.466-.792c.393-.293.7-.402.839-.315.01.032-.01.184-.16.336-.201.206-.435.358-1.434.944-1.582.923-1.646.966-2.273 1.53a83 83 0 0 0-1.158 1.064l-.074.076z" clip-rule="evenodd"/></symbol><symbol viewBox="0 0 24 24" id="ic_lecturePlus"><path d="M12.177 2c-2.013 0-3.64 1.662-3.64 3.697 0 1.446.823 2.7 2.022 3.307-.012.023-.018.039-.038.067a2 2 0 0 1-.11.141l-.042.051-.012.014-.003.002a4 4 0 0 0-.684.358c-.168.105-.264.16-.304.176s.004.014-.03.002a1 1 0 0 0-.198-.047 4 4 0 0 0-.26-.036 1 1 0 0 1-.297-.063c-.1-.04-.245-.118-.508-.266l-.568-.319a.17.163 0 0 0-.254.137l-.012.432c-.003.11-.008.168-.013.228a10 10 0 0 1-.292-.102c-.119-.044-.23-.082-.309-.11l-.111-.039.007.004.02.013a.15.15 0 0 1 .046.053l.011.025.008.033a.17.163 0 0 0-.092-.128.17.163 0 0 0-.246.14l-.011.412a6 6 0 0 1-.01.228l-.033-.006-.391-.078a10 10 0 0 0-.524-.092l-.085-.002c-.016.001-.04-.014-.104.048-.067.064-.045.072-.048.084l-.005.028-.005.052-.007.155c-.003.126-.006.294-.006.477v.572l-.4.252c-1.067.673-1.61 1.015-1.923 1.248-.314.233-.41.384-.513.58a.3.3 0 0 1-.055.083c-.004.003.007-.007-.04.022a.24.24 0 0 0-.077.082.3.3 0 0 0-.027.094c-.007.058-.004.118.002.22.025.441.136.755.381 1.069.257.328.584.517 1.263.75q.523.177 1.045.358l.344.12v4.11a.17.163 0 0 0 .105.151l.091.037c.14.055.356.097 3.266.696a230 230 0 0 1 1.91.402l.134.03c.032.008.065.018.043.01.058.02.064.014.094.017l.113.006q.137.006.358.01c.291.005.679.006 1.097.004l1.502-.01a.17.163 0 0 0 .035-.003l2.637-.556 1.89-.399c.495-.105.793-.167.842-.179l.092-.02a.17.163 0 0 0 .13-.16v-4.147l.28-.09a.17.163 0 0 0 .026-.01c.313-.163.632-.275.896-.36l.349-.112c.099-.034.175-.06.248-.108.477-.32.763-.761.815-1.229s-.135-.953-.55-1.346a4 4 0 0 0-.44-.322 25 25 0 0 0-.74-.481l-.884-.553v-1.552a.17.163 0 0 0-.21-.159l-.099.024c-.036.009-.369.08-.705.15l-.407.084v-.244c0-.126.004-.218 0-.296a.4.4 0 0 0-.017-.118.24.24 0 0 0-.102-.134.26.26 0 0 0-.162-.03.6.6 0 0 0-.12.03c-.08.026-.176.065-.307.113-.05.019-.067.022-.102.033l-.01-.228-.011-.36a.17.163 0 0 0-.255-.137l-.588.33-.55.308h-.258c-.278.001-.238.012-.465-.122-.115-.069-.26-.105-.414-.15a9 9 0 0 1-.334-.101c-.039-.017-.063-.023-.102-.035l-.135-.04a2 2 0 0 1-.297-.115c-.076-.04-.1-.075-.104-.073.001-.002.009-.007.01-.01a3.7 3.7 0 0 0 2.184-3.385C15.818 3.66 14.191 2 12.178 2m4.5 7.755v.042l-.007.194-1.01.366-.275.099a153 153 0 0 1 1.292-.701m-8.94 0 .094.052 1.527.846c-.498-.179-1.033-.372-1.37-.496l-.24-.089-.008-.249zm9.72.454v.358l-.383.077c-.272.055-1.135.233-1.933.4l1.022-.37 1.187-.426zm-10.688.006.185.068c.196.073 1 .363 1.775.643l-.95-.195a47 47 0 0 1-1.012-.22 2 2 0 0 1-.001-.21zm11.986.7-.01 1.116-.009 1.21-.923.32c-.581.2-.963.402-1.033.437-.453.232-.81.77-.91 1.317-.082.448.046.83.315 1.102.27.273.662.445 1.115.557.196.048.36.067.54.042s.367-.087.648-.184c.099-.035.18-.062.257-.088l.003.491c.001.419 0 .96-.002 1.446l-.01 1.64-.395.081-1.196.247c-.37.075-1.267.261-1.997.413a114 114 0 0 1-1.22.246 11 11 0 0 1-.018-.607 398 398 0 0 1-.01-4.058v-4.722l2.375-.49 2.366-.492zm-13.042.008.162.034.638.132 1.643.338 1.617.334a42 42 0 0 1 .757.163l.006.24c.005.234.009.574.012 1.003.006.857.01 2.069.01 3.49v4.662l-.047-.008-.286-.055a65 65 0 0 1-.862-.176q-1.683-.355-3.369-.7l-.272-.055-.01-1.562V16.75c.431.158.853.291 1.25.273.4-.019.77-.225.992-.67.14-.281.163-.385.162-.757-.002-.488-.114-.817-.398-1.155-.134-.16-.238-.292-.425-.417-.188-.125-.445-.237-.896-.389l-.694-.233v-1.288c0-.66 0-1.012.01-1.186zm5.468 1.054h2.096v4.698c0 1.93-.003 3.146-.01 3.878-.004.365-.01.61-.016.761l-.004.062a129 129 0 0 1-2.038.006c-.002-.044-.004-.085-.005-.155q-.009-.306-.013-.916a474 474 0 0 1-.01-3.64z"/></symbol><symbol viewBox="0 0 24 24" id="ic_lecturePlusPlus"><path d="m7.457 0-.012 15.291L0 15.332l.01 1.912 7.433-.04-.005 6.91 1.89.001.006-6.922 7.627-.043v1.106h.078v2.035h1.586v-3.15l5.385-.03L24 15.2l-5.375.03v-.577q.091.054.19.102.38.185.722.195a2.4 2.4 0 0 0 1.303-.375q.596-.38.947-1.082.35-.702.35-1.619 0-.881-.256-1.553-.255-.675-.766-1.05-.506-.381-1.238-.381a2 2 0 0 0-.637.045q-.255.063-.515.295-.05.044-.1.097v-.431h-1.586v.148h-.078v6.195l-7.625.043L9.35.002zM4.373 4.596v1.496h-.066v3.092a2.6 2.6 0 0 0-.618-.211 3.4 3.4 0 0 0-.755-.084q-.732 0-1.334.39-.596.39-.936 1.096-.341.702-.342 1.594 0 1.237.49 2.039.533.746 1.82.847h1.741v.086h1.701V4.596zm6.11.06v1.637h-.038v8.547h.037v.162h1.641v-.318q.086.056.176.105.382.206.783.207 1.067 0 1.818-.838.758-.847.758-2.26 0-.885-.256-1.562-.255-.681-.767-1.063-.512-.385-1.242-.384a5 5 0 0 0-1.27.16V4.656zM3.092 9.95q.642 0 1.214.262v2.986q-.327.51-1.159.535-.755-.055-1.146-.486-.391-.436-.457-1.287 0-.961.39-1.482.396-.527 1.159-.528m10.07.035q.43 0 .71.211.28.206.422.637.14.426.139 1.092 0 1.058-.385 1.584-.386.525-1.143.44a1.43 1.43 0 0 1-.783-.358v-3.516a6 6 0 0 1 1.04-.09m6.468 0q.65.001.967.467.316.461.316 1.447.001.972-.385 1.489-.381.515-1.158.515a1.5 1.5 0 0 1-.746-.218v-2.928c.016-.023.033-.053.049-.074q.256-.351.492-.522.24-.176.465-.176"/></symbol><symbol viewBox="0 0 24 24" id="ic_lecturePlusPlus_border"><path d="M12.001 0C5.372 0 0 5.372 0 12s5.372 12.001 12.001 12.001 12.002-5.372 12.002-12S18.63 0 12 0m0 1.561c1.411 0 2.776.277 4.065.82a10.48 10.48 0 0 1 5.56 5.555c.543 1.285.82 2.654.82 4.065a10.4 10.4 0 0 1-.345 2.667l-4.014.023v-.503a3 3 0 0 0 .164.089q.332.16.628.168.62 0 1.134-.324.519-.33.824-.936t.305-1.4q0-.762-.222-1.342-.222-.585-.667-.91-.44-.33-1.077-.33-.332-.02-.554.04-.222.056-.45.255-.041.038-.085.084V9.21h-1.38v.128h-.07V14.7l-6.635.037.01-12.985a10.5 10.5 0 0 1 1.99-.19m-3.63.649-.01 12.536-6.424.036a10.4 10.4 0 0 1-.377-2.78c0-1.412.277-2.776.82-4.065a10.466 10.466 0 0 1 5.99-5.727M5.687 5.493v1.293h-.058V9.46q-.21-.108-.536-.181a3 3 0 0 0-.659-.074q-.636 0-1.16.338-.519.338-.815.948-.297.607-.296 1.378 0 1.07.427 1.763.462.646 1.583.732h1.514v.075h1.48V5.493Zm5.316.052V6.96h-.033v7.39h.033v.14h1.427v-.283c.052.033.1.072.154.1q.331.177.68.177.929 0 1.583-.723.658-.732.658-1.954 0-.766-.222-1.351-.222-.59-.667-.919-.445-.333-1.082-.333-.4 0-.802.074a5 5 0 0 0-.302.064V5.545zm-6.43 4.577q.559 0 1.056.225v2.582q-.283.442-1.007.464-.659-.048-.999-.42-.34-.377-.397-1.114 0-.831.34-1.282.345-.455 1.008-.455m8.76.03q.375 0 .619.182.244.178.366.55.122.369.122.945 0 .914-.335 1.369-.336.455-.995.381a1.25 1.25 0 0 1-.68-.309v-3.034c.302-.05.604-.083.903-.083m5.63 0q.566 0 .84.402.275.399.275 1.252 0 .84-.335 1.287-.332.446-1.008.446a1.34 1.34 0 0 1-.648-.189v-2.532c.014-.02.028-.045.042-.064q.223-.304.428-.45.209-.152.405-.152m2.552 6.16a10.4 10.4 0 0 1-2.13 3.072 10.5 10.5 0 0 1-3.318 2.24 10.375 10.375 0 0 1-4.065.821 10.5 10.5 0 0 1-2.005-.194L10 16.377l6.637-.037v.965h.069v1.76h1.38v-2.733zm-13.154.073-.005 5.404q-.21-.078-.418-.164a10.4 10.4 0 0 1-3.32-2.241 10.4 10.4 0 0 1-2.076-2.966z"/></symbol><symbol viewBox="0 0 24 24" id="ic_lecturePlus_border"><path d="M12 0C5.373 0 0 5.375 0 12s5.373 12 12 12 12-5.375 12-12S18.625 0 12 0m0 1.83c5.61 0 10.172 4.56 10.172 10.17 0 5.608-4.563 10.17-10.172 10.17S1.83 17.61 1.83 12 6.39 1.83 12 1.83"/><path d="M12.12 2.492c-1.738 0-3.141 1.484-3.141 3.301 0 1.29.723 2.385 1.755 2.928a.6.6 0 0 1-.058.103c-.029.042-.06.084-.086.115l-.033.04-.008.01-.004.001a1 1 0 0 1-.09.041l-.01.004q-.254.12-.49.276a3 3 0 0 1-.262.156c-.034.014.004.013-.025.002l-.014-.004a2 2 0 0 0-.38-.07H9.27a.8.8 0 0 1-.253-.057 4 4 0 0 1-.438-.236l-.49-.286a.146.146 0 0 0-.22.123l-.01.387c-.003.099-.008.15-.012.203-.07-.024-.158-.056-.252-.091a7 7 0 0 0-.266-.098l-.08-.03-.01-.001.018.011.021.02.018.023.016.047a.15.15 0 0 0-.073-.101l-.002-.002a.146.146 0 0 0-.217.123l-.01.369a5 5 0 0 1-.007.203l-.03-.006-.335-.07a9 9 0 0 0-.34-.067l-.113-.015q-.022-.004-.043-.004a.2.2 0 0 0-.084.017l-.036.028-.025.033-.01.02-.006.023-.003.023q-.004.022-.006.047l-.006.139a16 16 0 0 0-.004.426v.511l-.346.225c-.92.6-1.387.905-1.658 1.113s-.355.342-.443.518a.3.3 0 0 1-.047.074c-.004.003.005-.006-.035.02a.2.2 0 0 0-.067.072.2.2 0 0 0-.023.086c-.006.051-.003.104.002.195.02.395.117.675.33.955.22.294.502.461 1.088.668l.9.32.299.108v3.67a.15.15 0 0 0 .088.135l.08.033c.12.05.306.086 2.816.62h.002q.91.189 1.817.4c.029.008.04.007.062.01l.098.007q.119.005.308.008c.252.004.587.006.948.004l1.295-.008.03-.004 2.274-.496 2.356-.516h.002l.08-.02a.146.146 0 0 0 .111-.142v-3.701l.24-.08.024-.01c.27-.145.546-.246.773-.322q.172-.056.301-.1c.085-.03.15-.052.213-.095.412-.286.658-.68.703-1.098s-.116-.85-.475-1.201c-.07-.07-.197-.16-.379-.287a22 22 0 0 0-.638-.432l-.764-.492V9.957a.146.146 0 0 0-.18-.14l-.084.02.002-.001q-.305.069-.61.135l-.35.074v-.217c0-.112.003-.193 0-.264a.4.4 0 0 0-.016-.107.2.2 0 0 0-.088-.12.22.22 0 0 0-.14-.024.5.5 0 0 0-.104.025c-.07.024-.152.06-.266.103-.04.016-.054.018-.082.028-.005-.067-.013-.133-.014-.2v-.003l-.01-.323a.146.146 0 0 0-.218-.12l-.508.294-.473.274-.224.002c-.24 0-.205.01-.4-.11-.1-.061-.225-.095-.358-.135a7 7 0 0 1-.287-.09h-.002c-.062-.028-.109-.037-.187-.062a2 2 0 0 1-.243-.092.4.4 0 0 1-.12-.084c.001-.003 0 0 .013-.013l-.018.011-.002-.002.02-.01c1.108-.511 1.88-1.666 1.88-3.013 0-1.796-1.374-3.255-3.083-3.29a.2.2 0 0 0-.057-.01m-1.366 6.246c.023.012.035.041.059.053l-.051-.041c-.01-.013-.006-.004-.008-.012m2.603.078v.004l-.02.014c.009-.004.012-.014.02-.018m-5.068.6.08.047h.002l1.316.756c-.429-.16-.89-.332-1.181-.444l-.207-.08-.008-.222zM16 9.418v.035l-.006.174-.871.326-.236.088c.316-.18.632-.357.87-.49.1-.056.174-.095.243-.133m.674.404v.32l-.33.069c-.237.048-.982.21-1.67.357l.885-.33 1.023-.38zm-9.219.004.16.063c.17.065.863.324 1.531.574l-.818-.174a39 39 0 0 1-.875-.197 2 2 0 0 1-.002-.188zm10.338.627-.008.996-.008 1.08-.797.287c-.5.179-.832.36-.888.39h-.002c-.39.207-.7.686-.785 1.175-.07.4.039.74.271.984s.572.398.963.498c.17.044.31.06.465.037.155-.022.316-.077.558-.164l.223-.08.002.44c.001.373 0 .856-.002 1.29l-.008 1.464-.341.074-1.032.219c-.318.067-1.093.233-1.722.369l-.823.174-.228.046a12 12 0 0 1-.016-.543c-.007-.595-.01-1.68-.01-3.623v-4.214l2.05-.44c.594-.127 1.144-.244 1.55-.332l.49-.105zm-11.246.006c.04.009.08.02.137.031l.55.117 1.418.303 1.393.297a31 31 0 0 1 .654.147l.006.214c.004.208.007.512.01.895.005.765.008 1.847.008 3.117v4.158q-.516-.092-1.028-.209h-.002a411 411 0 0 0-2.906-.625l-.234-.049-.01-1.396v-1.797c.372.141.736.26 1.078.244.345-.016.666-.2.858-.597.12-.25.14-.343.138-.676 0-.435-.097-.729-.342-1.031h-.002c-.115-.143-.205-.262-.367-.373-.162-.112-.382-.21-.771-.346l-.6-.21v-1.15c0-.514 0-.819.006-.992.001-.038.004-.046.006-.072m4.713.941h1.808v4.196a397 397 0 0 1-.01 3.46c-.003.327-.006.548-.011.682l-.004.055q-.879.012-1.758.002l-.006-.135a59 59 0 0 1-.01-.818c-.005-.726-.01-1.812-.01-3.25z"/></symbol><symbol fill="none" viewBox="0 0 24 24" id="ic_linkStyle"><path fill="#000" fill-rule="evenodd" d="M3 4.5A1.5 1.5 0 0 1 4.5 3h7a1.5 1.5 0 0 1 0 3h-7A1.5 1.5 0 0 1 3 4.5m0 14A1.5 1.5 0 0 1 4.5 17h15a1.5 1.5 0 0 1 0 3h-15A1.5 1.5 0 0 1 3 18.5M10.5 7a4.5 4.5 0 0 1 4.244 3H19.5a1.5 1.5 0 0 1 0 3h-4.756a4.502 4.502 0 0 1-8.488 0H4.5a1.5 1.5 0 0 1 0-3h1.756A4.5 4.5 0 0 1 10.5 7m0 .9a3.6 3.6 0 0 0 0 7.2z" clip-rule="evenodd"/></symbol><symbol viewBox="0 0 24 24" id="ic_magnifier"><path fill-rule="evenodd" d="M10.25 14.5a4.25 4.25 0 1 1-.103-8.5 4.25 4.25 0 0 1 .104 8.5Zm9.604 3.895L15.34 13.88a6.25 6.25 0 1 0-1.458 1.459l4.515 4.515a.5.5 0 0 0 .707 0l.751-.751a.5.5 0 0 0 0-.708Z"/></symbol><symbol viewBox="0 0 24 24" id="ic_marginAlign"><path fill-rule="evenodd" d="M14.632 5h4.736c.35 0 .632.283.632.632v.736a.63.63 0 0 1-.632.632h-4.736A.63.63 0 0 1 14 6.368v-.736c0-.35.283-.632.632-.632m0 12h4.736c.35 0 .632.283.632.632v.736a.63.63 0 0 1-.632.632h-4.736a.63.63 0 0 1-.632-.632v-.736c0-.35.283-.632.632-.632m0-8h4.736c.35 0 .632.283.632.632v.736a.63.63 0 0 1-.632.632h-4.736a.63.63 0 0 1-.632-.632v-.736c0-.35.283-.632.632-.632m0 4h4.736c.35 0 .632.283.632.632v.736a.63.63 0 0 1-.632.632h-4.736a.63.63 0 0 1-.632-.632v-.736c0-.35.283-.632.632-.632m-4-9h.736c.35 0 .632.283.632.632v14.736a.63.63 0 0 1-.632.632h-.736a.63.63 0 0 1-.632-.632V4.632c0-.35.283-.632.632-.632m-3.913 8-2.54 2.117a.5.5 0 0 0 .641.768l3-2.5a.5.5 0 0 0 0-.769l-3-2.5a.5.5 0 0 0-.64.768z"/></symbol><symbol viewBox="0 0 24 24" id="ic_moteurPlus"><path fill-rule="evenodd" d="M22.765 7.917q.07.371.05.748a.5.5 0 0 0 .044.221.43.43 0 0 0 .141.169c-.202.509-.49.973-.85 1.37-.21.232-.591.51-1.94.966-.726.246-1.677.524-2.826.826-1.773.467-3.488.852-3.787.918a3.86 3.86 0 0 1-2.662-.064l-6.927-2.736a1.57 1.57 0 0 1-.823-.764 1.76 1.76 0 0 1-.133-1.208c.055-.217.152-.42.285-.594.132-.175.297-.318.484-.42.217-.128.46-.195.706-.195q.272 0 .526.099l.009.003 3.073 1.22a.6.6 0 0 1 .089-.265 1.35 1.35 0 0 1 .456-.438c.182-.105.385-.163.591-.168l.001-.002q.224.001.434.083l.5.192c.209-.186.444-.333.664-.41l2.432-.868c.445-.164.85-.434 1.186-.788a1 1 0 0 1 .106-.094l.008-.006c.097-.072.93-.692 1.92-1.32C18.144 3.359 18.975 3.07 19.46 3q.189.1.39.17.441.528.905 1.04a3.1 3.1 0 0 0-.866-.34.7.7 0 0 0-.15-.016c-1.235 0-4.678 2.581-4.678 2.581a3.9 3.9 0 0 1-1.5.995l-2.434.869c-.326.115-.854.604-.747.954.093.288.546.608.865.608a.4.4 0 0 0 .102-.012l7.124-1.692c.11-.035.21-.103.298-.164.088-.06.164-.112.224-.112.051 0 .091.039.119.138a.7.7 0 0 1-.065.485.6.6 0 0 1-.362.297l-6.897 2.001a1.67 1.67 0 0 1-1.271-.135 1.85 1.85 0 0 1-.636-.563l-5.103-2.03a.7.7 0 0 0-.25-.05.6.6 0 0 0-.327.094.7.7 0 0 0-.232.198.8.8 0 0 0-.133.286.83.83 0 0 0 .07.542c.083.165.22.293.383.359l6.929 2.737a3.1 3.1 0 0 0 2.17.038s7.416-1.63 8.18-2.472a3.6 3.6 0 0 0 .868-1.734q.086-.435.066-.88l.041.094.051.115q.112.248.171.516m-13.192.98-.897-.36a.8.8 0 0 1 .26-.247.7.7 0 0 1 .335-.1v-.002a.7.7 0 0 1 .252.05l.28.107c-.098.153-.188.34-.23.552m-1.578 8.117v-2.282q0-.023.01-.043a.11.11 0 0 1 .065-.062.1.1 0 0 1 .047-.009h1.897a.13.13 0 0 1 .087.034.1.1 0 0 1 .035.08v2.282q0 .047.036.08a.13.13 0 0 0 .086.033h1.062q.032 0 .06.016.03.015.045.041a.11.11 0 0 1 0 .114l-2.254 3.645a.1.1 0 0 1-.045.042.13.13 0 0 1-.122 0 .1.1 0 0 1-.044-.042l-2.255-3.645a.11.11 0 0 1 0-.114.1.1 0 0 1 .045-.041.13.13 0 0 1 .061-.016h1.062a.13.13 0 0 0 .086-.033.11.11 0 0 0 .036-.08m5.94-2.282v2.282a.11.11 0 0 1-.036.08.13.13 0 0 1-.086.033h-1.062a.13.13 0 0 0-.06.016.1.1 0 0 0-.045.041.11.11 0 0 0 0 .114l2.254 3.645q.016.026.045.042a.13.13 0 0 0 .122 0 .1.1 0 0 0 .044-.042l2.255-3.645a.11.11 0 0 0-.045-.155.13.13 0 0 0-.06-.016h-1.062a.13.13 0 0 1-.087-.033.1.1 0 0 1-.035-.08v-2.282a.11.11 0 0 0-.036-.08.12.12 0 0 0-.086-.034h-1.898a.13.13 0 0 0-.086.034.1.1 0 0 0-.036.08" clip-rule="evenodd"/></symbol><symbol viewBox="0 0 24 24" id="ic_moteurPlus_border"><path fill-rule="evenodd" d="M20.889 12a8.889 8.889 0 1 1-2.382-6.056c-.43.105-1.103.376-2.231 1.043-.833.493-1.534.978-1.616 1.035l-.007.004a1 1 0 0 0-.089.074 2.7 2.7 0 0 1-.998.618l-2.047.68a1.8 1.8 0 0 0-.559.32l-.42-.15a1.1 1.1 0 0 0-.366-.064v.001a1.1 1.1 0 0 0-.883.475.46.46 0 0 0-.074.208L6.63 9.232l-.007-.003a1.3 1.3 0 0 0-.443-.078c-.207 0-.412.053-.594.153a1.27 1.27 0 0 0-.535 1.741c.15.278.396.49.692.6l5.83 2.143a3.47 3.47 0 0 0 2.241.05 99 99 0 0 0 3.188-.72 40 40 0 0 0 2.379-.646c.911-.287 1.297-.484 1.506-.646zm-.07-1.125a3 3 0 0 1-.295.354c-.644.66-6.885 1.938-6.885 1.938a2.8 2.8 0 0 1-1.827-.03L5.98 10.992a.61.61 0 0 1-.381-.706.58.58 0 0 1 .307-.379.54.54 0 0 1 .274-.074q.11 0 .211.039l4.296 1.591a1.53 1.53 0 0 0 1.604.547l5.806-1.568a.51.51 0 0 0 .36-.613c-.024-.077-.058-.108-.1-.108-.052 0-.115.04-.19.088a1 1 0 0 1-.25.128l-5.997 1.326a.4.4 0 0 1-.085.01c-.269 0-.65-.25-.728-.477-.09-.274.354-.657.628-.747l2.05-.681a3.3 3.3 0 0 0 1.261-.78s2.899-2.022 3.939-2.022l.052.002a8.85 8.85 0 0 1 1.781 4.307M22 12c0 5.523-4.477 10-10 10S2 17.523 2 12 6.477 2 12 2s10 4.477 10 10M9.672 10.235l.755.282a1.2 1.2 0 0 1 .194-.432l-.236-.084a.6.6 0 0 0-.212-.04v.002a.65.65 0 0 0-.5.272M9.1 15.09v1.788q0 .036-.03.063a.1.1 0 0 1-.073.026h-.894a.1.1 0 0 0-.05.012.1.1 0 0 0-.038.032.08.08 0 0 0 0 .09l1.897 2.855a.1.1 0 0 0 .038.033.12.12 0 0 0 .102 0 .1.1 0 0 0 .038-.033l1.897-2.855a.08.08 0 0 0 0-.09.1.1 0 0 0-.037-.032.1.1 0 0 0-.051-.012h-.894a.1.1 0 0 1-.073-.026.08.08 0 0 1-.03-.063V15.09a.1.1 0 0 0-.007-.034.1.1 0 0 0-.023-.029.12.12 0 0 0-.073-.026H9.203a.1.1 0 0 0-.04.007.1.1 0 0 0-.033.019.1.1 0 0 0-.022.029.1.1 0 0 0-.008.034m5 1.788V15.09a.1.1 0 0 1 .008-.034.1.1 0 0 1 .022-.029.1.1 0 0 1 .033-.02.1.1 0 0 1 .04-.006H15.8a.12.12 0 0 1 .072.026q.014.012.023.029a.1.1 0 0 1 .007.034v1.788q0 .036.03.063.031.025.073.026h.893q.028 0 .052.012t.037.032a.08.08 0 0 1 0 .09l-1.897 2.855a.1.1 0 0 1-.038.033.12.12 0 0 1-.102 0 .1.1 0 0 1-.038-.033L13.014 17.1a.08.08 0 0 1 0-.09.1.1 0 0 1 .037-.032.1.1 0 0 1 .051-.012h.894q.043 0 .073-.027.03-.026.03-.062" clip-rule="evenodd"/></symbol><symbol viewBox="0 0 24 24" id="ic_navigationAuto"><path d="M15 3H3v8h12zM4.333 9.4V4.6h9.334v4.8zm14.751-3.11A4.4 4.4 0 0 0 17.597 6c-.317-.001-.588.289-.588.634 0 0-.018.637.664.637.044 0 .148.01.255.024.216.028.494.083.763.188.273.106.504.25.661.434.145.17.249.394.249.733 0 .348-.107.76-.304 1.21a8 8 0 0 1-.733 1.29 12.5 12.5 0 0 1-1 1.27c-.252.278-.513.547-.774.816q-.18.184-.357.37.251-.001.504-.007c.591-.01 1.185-.022 1.766.103.225.048.447.117.634.21.19.096.31.2.375.296.163.245.19.59-.096 1.16-.215.43-1.358 2.033-1.805 2.516l-1.257-1.532L15 21l4.5-.788-1.003-1.325c.554-.579 1.83-2.288 2.143-2.912.384-.767.56-1.693.015-2.51a2.1 2.1 0 0 0-.83-.704 3.7 3.7 0 0 0-.75-.27c.135-.176.28-.373.424-.584.302-.441.613-.958.851-1.503.235-.539.416-1.145.416-1.754 0-.668-.22-1.2-.561-1.598-.328-.383-.746-.617-1.121-.763"/></symbol><symbol viewBox="0 0 512 512" id="ic_navigationButtons" xmlns="http://www.w3.org/2000/svg"><path d="M128.78 139.954c-5.787-6.375-15.167-6.375-20.953 0L22.34 234.153l-11.5 12.658c-5.23 5.763-5.23 15.106 0 20.87l11.487 12.652 85.503 94.199c5.784 6.38 15.168 6.38 20.953 0 5.79-6.374 17.79-16.714 12-23.088l-85.49-94.199 85.485-94.212c5.788-6.377-6.212-16.717-12-23.093zm255.504-.799c5.786-6.375 15.166-6.375 20.952 0l85.486 94.198 11.5 12.658c5.23 5.763 5.23 15.107 0 20.87l-11.487 12.653-85.503 94.198c-5.784 6.38-15.169 6.38-20.953 0-5.79-6.373-17.79-16.714-12-23.088l85.49-94.198-85.485-94.213c-5.788-6.376 6.212-16.716 12-23.093z" style="stroke-width:.455;stroke-dasharray:none"/><path d="M157.662 380.377c-5.709 6.093-11.709 9.978-6 16.07l84.278 90.046 11.326 12.1c5.157 5.509 13.516 5.509 18.673 0l11.325-12.1 84.279-90.046c5.708-6.092-.292-9.977-6-16.07-5.703-6.099-6.407-6.154-14.658-6l-76.873.002-91.692-.002c-8.817.695-8.955-.099-14.658 6zm-.952-251.755c-5.709-6.092-11.709-9.977-6-16.07l84.278-90.046 11.326-12.1c5.157-5.508 13.516-5.508 18.673 0l11.325 12.1 84.279 90.046c5.708 6.093-.292 9.978-6 16.07-5.703 6.1-6.407 6.155-14.658 6l-76.873-.002-91.692.002c-8.817-.694-8.955.1-14.658-6z" style="stroke-width:.441381;stroke-dasharray:none;paint-order:fill markers stroke"/></symbol><symbol viewBox="0 0 24 24" id="ic_pointagePlus"><path fill-rule="evenodd" d="M3.275 5.758c-.17 2.02 2.243 4.575 4.448 4.717.144.01.25.025.345.039.125.018.226.033.36.024L7.904 9.39a3 3 0 0 1-.45.039c-.694 0-1.496-.38-2.143-1.02-.64-.635-1.025-1.412-1.025-2.082 0-1.402 1.642-2.041 3.168-2.041a4.1 4.1 0 0 1 2.176.654c.7.465 1.084 1.082 1.084 1.74 0 .445-.179.903-.5 1.324a.4.4 0 0 0-.153-.016l.864 1.73a1.53 1.53 0 0 1 .772-.744c.159-.07.328-.11.504-.11.378 0 .724.188.96.526.095-.23.293-.49.705-.675.17-.078.353-.122.54-.122.699 0 1.083.57 1.249.908q.113.208.247.405a2 2 0 0 1 .028-.206c.085-.388.328-.55.47-.614a1.5 1.5 0 0 1 .624-.142c.5 0 .93.287 1.178.787.218.428 2.06 4.065 2.279 4.649.232.63.36 1.772.144 2.69l.293.595c.078.162.173.489-.095.89-.416.632-1.662 1.27-2.367 1.594-.43.2-1.912.851-2.826.851-.638 0-.892-.32-.984-.51l-.19-.385c-.646-.182-3.214-.962-4.502-2.19-.793-.76-1.305-1.408-1.756-1.986-.339-.432-.632-.803-.96-1.097-.353-.317-.465-.709-.317-1.107.144-.385.49-.655.748-.77a.9.9 0 0 1 .324-.081h.06c.49.017 1.34.5 1.884.972l-1.405-3.08c-.196.03-.304.011-.452-.014a3 3 0 0 0-.377-.047c-1.112-.07-2.35-.724-3.308-1.746-.95-1.012-1.47-2.216-1.386-3.218.178-2.094 2.891-2.883 5.335-2.72 1.19.077 2.463.527 3.409 1.204 1.065.765 1.606 1.726 1.525 2.71-.058.664-.398 1.334-.97 1.93a.7.7 0 0 0-.32-.034c.607-.586.97-1.256 1.023-1.912.074-.907-.432-1.8-1.428-2.514-.903-.654-2.12-1.08-3.258-1.154-2.32-.15-4.887.572-5.05 2.507m4.056 2.378.504 1.104q-.196.03-.385.03c-1.376 0-3.002-1.596-3.002-2.946 0-1.293 1.556-1.882 3.002-1.882.71 0 1.486.233 2.08.626.657.433 1.015 1.004 1.015 1.611 0 .426-.177.869-.501 1.275l-.617-1.24a.85.85 0 0 0-.264-.53l-.034-.069a.7.7 0 0 0-.215-.246 1.38 1.38 0 0 0-.843-.298l.003.004q-.12 0-.24.022a3 3 0 0 0-.361-.026c-.914 0-1.902.319-1.902 1.02 0 .336.232.724.616 1.042.344.283.763.465 1.144.503m.7-.072.039-.01a.3.3 0 0 1-.045-.07l-.028.007-.459-1.012c-.01-.142-.01-.577.275-.705a.6.6 0 0 1 .261-.054c.237 0 .407.138.442.167l.006.005c.02.043.221.446.504 1.015l-.016.017.023-.003 2.191 4.396a.4.4 0 0 0 .522.176.37.37 0 0 0 .201-.456l-.472-1.354a.82.82 0 0 1 .5-.621.5.5 0 0 1 .22-.05c.225 0 .363.175.426.283l.896 1.276a.4.4 0 0 0 .522.115.363.363 0 0 0 .152-.493l-.452-.871c-.003-.105.029-.351.403-.52a.7.7 0 0 1 .257-.06c.307 0 .515.276.642.54.201.408.928 1.377 1.009 1.485a.395.395 0 0 0 .497.111.363.363 0 0 0 .187-.456c-.183-.496-.25-1.168-.063-1.252a.8.8 0 0 1 .338-.081c.293 0 .473.213.575.422 0 0 2.04 4.017 2.251 4.588.212.57.31 1.627.102 2.414a.36.36 0 0 0 .025.25l.332.678c.31.632-3.436 2.418-4.685 2.418-.194 0-.328-.044-.377-.142l-.244-.493a.4.4 0 0 0-.25-.203c-.028-.006-3.006-.797-4.329-2.06-.762-.725-1.255-1.356-1.693-1.917-.36-.459-.67-.854-1.04-1.185-.198-.179-.18-.317-.145-.418.074-.196.279-.348.402-.405a.2.2 0 0 1 .081-.024c.297.01 1.263.537 1.69 1.04q.238.283.434.59c.233.348.42.622.737.693a.385.385 0 0 0 .48-.365q0-.076-.032-.149zm-.4-2.413q-.053.02-.104.042c-.458.206-.698.689-.66 1.323a.7.7 0 0 0 .054.22l.37.813c-.78-.103-1.618-.835-1.618-1.46 0-.647.933-.943 1.8-.943q.078 0 .157.005" clip-rule="evenodd"/></symbol><symbol viewBox="0 0 24 24" id="ic_pointagePlus_border"><path fill-rule="evenodd" d="M12 20.889A8.889 8.889 0 1 0 4.825 6.752c.817-.595 2.117-.817 3.332-.736.924.06 1.915.41 2.65.937.83.595 1.25 1.342 1.187 2.108-.045.516-.31 1.037-.754 1.5a.5.5 0 0 0-.249-.026c.471-.456.754-.977.796-1.487.057-.705-.337-1.4-1.111-1.956-.703-.508-1.649-.84-2.534-.897-1.805-.116-3.802.445-3.928 1.95-.132 1.571 1.745 3.558 3.46 3.669.111.007.195.02.267.03.098.014.176.026.28.02l-.407-.894q-.178.03-.35.03c-.54 0-1.164-.296-1.667-.793C5.3 9.713 5 9.11 5 8.587 5 7.498 6.277 7 7.464 7c.578 0 1.21.19 1.692.51.545.36.844.84.844 1.352 0 .346-.14.703-.39 1.03a.3.3 0 0 0-.118-.012l.672 1.345a1.2 1.2 0 0 1 .6-.578 1 1 0 0 1 .393-.087c.293 0 .562.147.746.41.074-.179.228-.38.549-.525.131-.06.274-.095.42-.095.543 0 .842.444.97.707q.088.16.193.315a2 2 0 0 1 .022-.16.65.65 0 0 1 .365-.479c.15-.07.318-.107.485-.11.39 0 .725.223.917.612.17.334 1.602 3.162 1.772 3.616.181.49.28 1.378.113 2.092l.227.463c.06.126.135.38-.074.693-.324.49-1.292.987-1.84 1.24-.336.154-1.488.661-2.198.661-.497 0-.695-.25-.766-.396l-.148-.3c-.502-.142-2.5-.748-3.501-1.704a13 13 0 0 1-1.366-1.544c-.264-.336-.491-.625-.747-.853-.274-.247-.362-.552-.247-.862a1.14 1.14 0 0 1 .582-.598.7.7 0 0 1 .252-.063h.047c.382.013 1.043.388 1.465.756L8.302 12.04a1 1 0 0 1-.35-.012c-.076-.012-.165-.028-.294-.036-.865-.055-1.828-.563-2.573-1.358-.739-.787-1.144-1.724-1.078-2.503L4.01 8.1A8.89 8.89 0 0 0 12 20.888M7.369 9.994l.392.86a2 2 0 0 1-.3.022c-1.07 0-2.335-1.24-2.335-2.29 0-1.007 1.21-1.465 2.335-1.465.552 0 1.156.182 1.618.487.51.337.79.781.79 1.254 0 .33-.138.675-.39.991l-.48-.964a.66.66 0 0 0-.205-.412l-.027-.054A.5.5 0 0 0 8.6 8.23 1.07 1.07 0 0 0 7.944 8l.003.003q-.095 0-.187.017A2 2 0 0 0 7.479 8C6.768 8 6 8.248 6 8.793c0 .261.18.563.479.81.268.22.594.362.89.391m.543-.055.031-.009a.3.3 0 0 1-.034-.054l-.022.006-.357-.787c-.009-.11-.009-.45.214-.549a.45.45 0 0 1 .203-.042c.184 0 .316.108.343.13l.002.002.003.002.392.79-.013.013.019-.003 1.704 3.42a.31.31 0 0 0 .406.136.286.286 0 0 0 .156-.354l-.367-1.053a.64.64 0 0 1 .39-.483.4.4 0 0 1 .17-.04c.175 0 .282.137.331.22l.697.993a.31.31 0 0 0 .406.09.28.28 0 0 0 .118-.384l-.351-.677c-.003-.081.022-.273.313-.404a.5.5 0 0 1 .2-.048c.239 0 .4.216.5.42.156.318.72 1.072.784 1.156a.31.31 0 0 0 .387.086.283.283 0 0 0 .145-.354c-.142-.386-.194-.909-.05-.974a.7.7 0 0 1 .264-.063c.228 0 .368.165.447.328 0 0 1.586 3.125 1.75 3.568.166.444.242 1.266.08 1.878a.28.28 0 0 0 .02.194l.258.528c.241.491-2.673 1.88-3.644 1.88-.15 0-.255-.034-.293-.11l-.19-.384a.3.3 0 0 0-.195-.157c-.022-.005-2.337-.62-3.366-1.602-.593-.564-.977-1.055-1.317-1.491-.28-.357-.521-.665-.81-.922-.153-.14-.14-.247-.112-.326.058-.152.217-.27.313-.315a.2.2 0 0 1 .063-.018c.23.008.982.417 1.314.809q.186.22.338.46c.18.27.326.482.573.537a.3.3 0 0 0 .373-.284.3.3 0 0 0-.025-.115zm-.31-1.877-.08.033c-.357.16-.544.535-.514 1.029.003.058.02.115.041.17l.289.633c-.607-.08-1.259-.65-1.259-1.136 0-.503.726-.733 1.4-.733q.06 0 .122.004M12 22c5.523 0 10-4.477 10-10S17.523 2 12 2 2 6.477 2 12s4.477 10 10 10" clip-rule="evenodd"/></symbol><symbol viewBox="0 0 24 24" id="ic_readAloud"><path d="M18 10.554c0-.972-.553-2.087-1.709-3.026A6.94 6.94 0 0 0 12 6c-1.606 0-3.166.586-4.3 1.498C6.563 8.414 6 9.524 6 10.554c0 1.491 1.354 3.383 3.766 4.127 3.005.926 8.234-.076 8.234-4.127M9.176 20v-3.408C6.173 15.666 4 13.157 4 10.554 4 6.988 7.859 4 12 4s8 3.084 8 6.554-3.634 6.458-8 6.458z"/></symbol><symbol viewBox="0 0 24 24" id="ic_readingGuide"><path fill-rule="evenodd" d="M14.556 4v3c0 .552.394 1 .88 1h3.08zm.99 5a1.99 1.99 0 0 1-1.98-2V4h-7.92v7H3.35A1.35 1.35 0 0 0 2 12.35v3.3c0 .746.604 1.35 1.35 1.35h2.296v3c0 .552.443 1 .99 1h11.88v-4h2.134A1.35 1.35 0 0 0 22 15.65v-3.3A1.35 1.35 0 0 0 20.65 11h-2.134V9zM3.35 11.9a.45.45 0 0 0-.45.45v3.3c0 .248.201.45.45.45h17.3a.45.45 0 0 0 .45-.45v-3.3a.45.45 0 0 0-.45-.45zm13.9 1.35H6.75a.75.75 0 0 0 0 1.5h10.5a.75.75 0 0 0 0-1.5" clip-rule="evenodd"/></symbol><symbol viewBox="0 0 32 32" id="ic_readingPage"><path d="M17 22h-6v-3h6v3ZM21 16H11v-3h10v3ZM21 10H11V7h10v3Z"/><path fill-rule="evenodd" clip-rule="evenodd" d="M24 0a4 4 0 0 1 4 4v22a4 4 0 0 1-4 4H8a4 4 0 0 1-4-4V4a4 4 0 0 1 4-4h16ZM8 3a1 1 0 0 0-1 1v22a1 1 0 0 0 1 1h16a1 1 0 0 0 1-1V4a1 1 0 0 0-1-1H8Z"/></symbol><symbol fill="none" viewBox="0 0 24 24" id="ic_scrollAspect"><path fill="#000" fill-rule="evenodd" d="M12 5.167 17.834 11H6.167zm0 13.666L6.167 13h11.666zM12 6v4.5H7.5zm0 12v-4.5H7.5z" clip-rule="evenodd"/></symbol><symbol fill="none" viewBox="0 0 24 24" id="ic_scrollType"><path fill="#000" fill-rule="evenodd" d="M17.834 11 12 5.167 6.167 11zM6.167 13 12 18.833 17.833 13z" clip-rule="evenodd"/></symbol><symbol viewBox="0 0 24 24" id="ic_skipToContent"><path d="M6.775 6.078a2 2 0 1 1-.672-.746c.88-.666 2.184-1.165 3.99-.823C11.5 4.775 12 5.5 12.5 6.5l1-.5v3.5l-3-2 1-.5c-.388-.922-1.166-1.428-1.593-1.509-1.447-.273-2.453.097-3.132.587M9 12.75a.75.75 0 0 1 .75-.75h5.5a.75.75 0 0 1 0 1.5h-5.5a.75.75 0 0 1-.75-.75m0 3a.75.75 0 0 1 .75-.75h10.5a.75.75 0 0 1 0 1.5H9.75a.75.75 0 0 1-.75-.75M9.75 18a.75.75 0 0 0 0 1.5h10.5a.75.75 0 0 0 0-1.5z"/></symbol><symbol viewBox="0 0 24 24" id="ic_stopAnimations"><path fill-rule="evenodd" d="M19.89 5.172 18.562 6.5l1.328 1.328a.376.376 0 0 1 0 .53l-.532.532a.376.376 0 0 1-.53 0L17.5 7.563 16.172 8.89a.376.376 0 0 1-.531 0l-.531-.532a.376.376 0 0 1 0-.53L16.437 6.5 15.11 5.172a.376.376 0 0 1 0-.531l.532-.531a.376.376 0 0 1 .53 0L17.5 5.438l1.328-1.328a.376.376 0 0 1 .531 0l.531.531a.376.376 0 0 1 0 .531"/><path fill-rule="evenodd" d="M13.51 4.716c.025-.251.101-.495.223-.716l-.09.002a6.183 6.183 0 0 0-5.99 5.713 4.73 4.73 0 0 0-1.757 2.883 4 4 0 1 0 5.507 5.506 4.73 4.73 0 0 0 2.883-1.758 6.18 6.18 0 0 0 5.713-6.078v-.086.086c-.45.247-.979.297-1.46.147a4.727 4.727 0 0 1-9.448-.233 4.726 4.726 0 0 1 4.492-4.72 1.9 1.9 0 0 1-.073-.746M5.46 16.205a2.55 2.55 0 0 1 .476-1.695 4.73 4.73 0 0 0 3.555 3.554 2.545 2.545 0 0 1-4.031-1.86Zm1.813-2.75a3.25 3.25 0 0 1 .539-1.802 6.19 6.19 0 0 0 4.535 4.534 3.273 3.273 0 0 1-5.074-2.733Z" clip-rule="evenodd"/></symbol><symbol viewBox="0 0 24 24" id="ic_textColor"><path fill-rule="evenodd" d="M12 4q.92 0 1.62.543t1.026 1.45l2.119 5.775c-1.208 1.63-2.5 3.64-2.73 5.052H9l-.371 1.344Q8.136 20 7.035 20q-.756 0-1.344-.365a1.43 1.43 0 0 1-.69-1.05q0-.725.142-1.116l4.21-11.476A3.17 3.17 0 0 1 10.38 4.55 2.55 2.55 0 0 1 12 4m.023 3.753L10.12 13.64h3.8zM19 22c1.657 0 3-1.477 3-3.3S19 13 19 13s-3 3.878-3 5.7 1.343 3.3 3 3.3" clip-rule="evenodd"/></symbol><symbol viewBox="0 0 24 24" id="ic_textSize"><path fill-rule="evenodd" d="M19.369 6a.63.63 0 0 1 .631.632V9.43a.63.63 0 0 1-.631.631h-.36a.63.63 0 0 1-.632-.631V7.624H14.32v9.75h1.803a.63.63 0 0 1 .631.632v.362a.63.63 0 0 1-.631.632h-5.228a.63.63 0 0 1-.631-.632v-.362a.63.63 0 0 1 .631-.631h1.802v-9.75H8.622V9.46a.63.63 0 0 1-.631.631h-.36A.63.63 0 0 1 7 9.46v-2.8c0-.13.04-.251.107-.352A.63.63 0 0 1 7.65 6h11.72Zm-9.744 7c.125 0 .235.06.303.153l.03.05a.4.4 0 0 1 .042.172V14.5a.375.375 0 0 1-.749 0v-.751H7.378v4.5h.75a.375.375 0 1 1 0 .75H5.88a.375.375 0 1 1 0-.75h.748v-4.5h-1.88v.764a.374.374 0 1 1-.75 0v-1.126c0-.082.027-.16.077-.225A.37.37 0 0 1 4.384 13h5.242Z"/></symbol><symbol viewBox="0 0 24 24" id="ic_textSpacing"><path fill-rule="evenodd" d="m6 4 2 3H7v10H5V7H4zm0 16-2-3h4zm4.631-15h8.738a.63.63 0 0 1 .631.632v.736a.63.63 0 0 1-.63.632h-8.74a.63.63 0 0 1-.63-.632v-.736A.63.63 0 0 1 10.63 5Zm0 12h8.738a.63.63 0 0 1 .631.632v.736a.63.63 0 0 1-.631.632H10.63a.63.63 0 0 1-.631-.632v-.736A.63.63 0 0 1 10.63 17Zm0-8h8.738a.63.63 0 0 1 .631.632v.737a.63.63 0 0 1-.631.631H10.63a.63.63 0 0 1-.63-.63v-.737A.63.63 0 0 1 10.63 9Zm0 4h8.738a.63.63 0 0 1 .631.631v.737a.63.63 0 0 1-.631.632H10.63a.63.63 0 0 1-.631-.632v-.737A.63.63 0 0 1 10.63 13Z"/></symbol><symbol viewBox="0 0 24 24" id="ic_visionPlus"><path fill-rule="evenodd" d="M21 12c-1.602-3.064-5.544-5-8.98-5S4.604 8.931 3 12c1.614 3.089 5.533 4.962 8.98 5 3.446-.038 7.403-1.907 9.02-5M8.372 12a3.6 3.6 0 0 1 6.833-1.586l-4.243 5.042A3.6 3.6 0 0 1 8.372 12m-3.964 0c.79-1.101 2.212-2.232 3.777-2.95a4.8 4.8 0 0 0-1.014 2.963 4.8 4.8 0 0 0 1.03 2.956c-1.479-.673-2.83-1.67-3.793-2.968m8.878 0c0 .69-.576 1.25-1.286 1.25s-1.286-.56-1.286-1.25.576-1.25 1.286-1.25 1.286.56 1.286 1.25" clip-rule="evenodd"/></symbol><symbol viewBox="0 0 24 24" id="ic_visionPlusPlus"><path fill-rule="evenodd" d="M12.02 7c3.436 0 7.378 1.936 8.98 5-1.617 3.093-5.574 4.962-9.02 5-3.447-.038-7.366-1.911-8.98-5 1.604-3.069 5.584-5 9.02-5m-.047 1.4a3.6 3.6 0 0 0-1.011 7.056l.434-.517a3.001 3.001 0 1 1 3.397-4.036l.412-.49A3.6 3.6 0 0 0 11.973 8.4m-3.788.65C6.62 9.769 5.198 10.9 4.408 12c.962 1.298 2.314 2.296 3.792 2.97a4.8 4.8 0 0 1-1.03-2.957A4.8 4.8 0 0 1 8.186 9.05" clip-rule="evenodd"/></symbol><symbol viewBox="0 0 24 24" id="ic_visionPlusPlus_border"><path fill-rule="evenodd" d="M12 20.889A8.889 8.889 0 1 0 12 3.11a8.889 8.889 0 0 0 0 17.778M12 22c5.523 0 10-4.477 10-10S17.523 2 12 2 2 6.477 2 12s4.477 10 10 10m8-10c-1.424-2.723-4.928-4.444-7.982-4.444S5.426 9.272 4 12c1.435 2.746 4.918 4.41 7.982 4.444C15.045 16.411 18.563 14.75 20 12M8.776 12a3.2 3.2 0 0 1 6.073-1.41l-.366.435a2.668 2.668 0 1 0-3.02 3.588l-.386.46A3.2 3.2 0 0 1 8.776 12m-3.524 0c.702-.979 1.966-1.984 3.357-2.622a4.27 4.27 0 0 0-.902 2.633c.003.952.325 1.876.916 2.628-1.314-.598-2.516-1.485-3.371-2.638" clip-rule="evenodd"/></symbol><symbol viewBox="0 0 24 24" id="ic_visionPlus_border"><path fill-rule="evenodd" d="M20.889 12A8.889 8.889 0 1 1 3.11 12a8.889 8.889 0 0 1 17.778 0M22 12c0 5.523-4.477 10-10 10S2 17.523 2 12 6.477 2 12 2s10 4.477 10 10m-2.222 0c-1.384-2.723-4.791-4.444-7.76-4.444-2.97 0-6.41 1.716-7.796 4.444 1.395 2.746 4.782 4.41 7.76 4.444 2.979-.033 6.399-1.694 7.796-4.444M8.865 12c0-1.767 1.393-3.2 3.112-3.2 1.226 0 2.286.73 2.793 1.79l-3.667 4.482C9.81 14.684 8.865 13.456 8.865 12M5.44 12c.683-.979 1.912-1.984 3.264-2.622a4.35 4.35 0 0 0-.876 2.633 4.35 4.35 0 0 0 .89 2.628c-1.278-.598-2.446-1.485-3.278-2.638m7.672 0a1.111 1.111 0 1 1-2.222 0 1.111 1.111 0 0 1 2.222 0" clip-rule="evenodd"/></symbol><symbol viewBox="0 0 24 24" id="ic_zoom"><path fill-rule="evenodd" d="m19.854 18.395-4.515-4.515a6.25 6.25 0 1 0-1.459 1.459l4.515 4.515a.5.5 0 0 0 .708 0l.751-.751a.5.5 0 0 0 0-.708M10.25 14.5a4.25 4.25 0 1 1 0-8.5 4.25 4.25 0 0 1 0 8.5M13 10v.5a.5.5 0 0 1-.5.5H11v1.5a.5.5 0 0 1-.5.5H10a.5.5 0 0 1-.5-.5V11H8a.5.5 0 0 1-.5-.5V10c0-.132.053-.26.146-.354A.5.5 0 0 1 8 9.5h1.5V8c0-.132.053-.261.146-.354A.5.5 0 0 1 10 7.5h.5a.5.5 0 0 1 .5.5v1.5h1.5a.5.5 0 0 1 .5.5" clip-rule="evenodd"/></symbol></svg>