<?xml version="1.0" encoding="UTF-8" standalone="no"?>
<!-- Created with Inkscape (http://www.inkscape.org/) -->

<svg
   xmlns:dc="http://purl.org/dc/elements/1.1/"
   xmlns:cc="http://creativecommons.org/ns#"
   xmlns:rdf="http://www.w3.org/1999/02/22-rdf-syntax-ns#"
   xmlns:svg="http://www.w3.org/2000/svg"
   xmlns="http://www.w3.org/2000/svg"
   xmlns:sodipodi="http://sodipodi.sourceforge.net/DTD/sodipodi-0.dtd"
   xmlns:inkscape="http://www.inkscape.org/namespaces/inkscape"
   width="32px"
   height="32px"
   id="svg4414"
   version="1.1"
   inkscape:version="0.48.5 r10040"
   sodipodi:docname="ico-palette.svg">
  <defs
     id="defs4416" />
  <sodipodi:namedview
     id="base"
     pagecolor="#ffffff"
     bordercolor="#666666"
     borderopacity="1.0"
     inkscape:pageopacity="0.0"
     inkscape:pageshadow="2"
     inkscape:zoom="13.165096"
     inkscape:cx="16.002952"
     inkscape:cy="16.002952"
     inkscape:current-layer="layer1"
     showgrid="true"
     inkscape:grid-bbox="true"
     inkscape:document-units="px"
     inkscape:window-width="1920"
     inkscape:window-height="1018"
     inkscape:window-x="1272"
     inkscape:window-y="-8"
     inkscape:window-maximized="1" />
  <metadata
     id="metadata4419">
    <rdf:RDF>
      <cc:Work
         rdf:about="">
        <dc:format>image/svg+xml</dc:format>
        <dc:type
           rdf:resource="http://purl.org/dc/dcmitype/StillImage" />
        <dc:title></dc:title>
      </cc:Work>
    </rdf:RDF>
  </metadata>
  <g
     id="layer1"
     inkscape:label="Layer 1"
     inkscape:groupmode="layer">
    <path
       style="font-size:medium;font-style:normal;font-variant:normal;font-weight:normal;font-stretch:normal;text-indent:0;text-align:start;text-decoration:none;line-height:normal;letter-spacing:normal;word-spacing:normal;text-transform:none;direction:ltr;block-progression:tb;writing-mode:lr-tb;text-anchor:start;baseline-shift:baseline;color:#000000;fill:#000000;fill-opacity:1;fill-rule:nonzero;stroke:none;stroke-width:1.08051944;marker:none;visibility:visible;display:inline;overflow:visible;enable-background:accumulate;font-family:Sans;-inkscape-font-specification:Sans"
       d="M 16.625 5.3125 C 11.233111 5.38864 5.913829 8.022471 2.71875 12.40625 C 2.70861 12.42015 2.69758 12.45482 2.6875 12.46875 C 0.80271206 15.071484 -0.301859 18.323315 0.0625 21.59375 C 0.395584 24.653983 2.008837 27.549742 4.4375 29.4375 C 5.933687 30.622156 7.713242 31.482823 9.59375 31.90625 C 10.707567 32.114372 12.025633 32.014478 12.96875 31.125 C 13.800627 30.353074 14.186774 29.229145 14.25 28.1875 L 14.25 28.09375 L 14.21875 27.96875 C 14.16216 27.766412 14.16667 27.536277 14.21875 27.34375 C 14.27083 27.151222 14.332141 27.048485 14.46875 26.96875 L 14.5 26.96875 L 14.5 26.90625 C 15.116035 26.49494 16.015459 26.454454 16.96875 26.34375 C 16.98045 26.34265 16.9883 26.34485 17 26.34375 C 17.05036 26.3392 17.105752 26.348069 17.15625 26.34375 C 17.066141 26.102729 16.960498 25.867525 16.875 25.625 C 16.167449 23.653313 15.726385 21.574801 15.84375 19.46875 C 15.888926 17.42133 17.169728 15.373722 19.125 14.65625 C 19.781568 12.45769 20.433218 10.259871 21.09375 8.0625 C 21.284038 7.4152645 21.492575 6.7709025 21.6875 6.125 C 20.04483 5.5877966 18.341924 5.2901285 16.625 5.3125 z M 14.6875 7.78125 C 16.071398 7.78125 17.1875 8.8973524 17.1875 10.28125 C 17.1875 11.665148 16.071398 12.78125 14.6875 12.78125 C 13.303602 12.78125 12.1875 11.665148 12.1875 10.28125 C 12.1875 8.8973524 13.303602 7.78125 14.6875 7.78125 z M 27.34375 9.625 C 26.801255 11.910066 26.25619 14.182664 25.71875 16.46875 C 26.480431 17.344882 26.8773 18.497599 26.875 19.65625 C 26.875793 21.2106 26.038918 22.622728 25.0625 23.78125 C 24.458978 24.563451 23.717521 25.198776 22.96875 25.84375 C 23.753744 25.716953 24.536758 25.537071 25.3125 25.28125 C 26.956657 24.742268 28.544251 23.6699 29.40625 22.03125 L 29.4375 22.03125 C 29.4419 22.02275 29.4331 22.00854 29.4375 22 C 30.35323 20.25913 30.439897 18.280108 30.25 16.46875 C 30.126832 15.342856 29.94447 14.16914 29.59375 13.0625 L 29.53125 13.03125 C 29.011475 11.756033 28.263448 10.62619 27.34375 9.625 z M 7.96875 12.28125 C 9.3526476 12.28125 10.46875 13.397352 10.46875 14.78125 C 10.46875 16.165148 9.3526476 17.28125 7.96875 17.28125 C 6.5848524 17.28125 5.46875 16.165148 5.46875 14.78125 C 5.46875 13.397352 6.5848524 12.28125 7.96875 12.28125 z M 5.46875 19.9375 C 6.8526476 19.9375 8 21.053602 8 22.4375 C 8 23.821398 6.8526476 24.9375 5.46875 24.9375 C 4.0848524 24.9375 2.96875 23.821398 2.96875 22.4375 C 2.96875 21.053602 4.0848524 19.9375 5.46875 19.9375 z "
       id="path6426-8-9-6-7-0-1" />
    <path
       style="fill:#000000;fill-opacity:1;stroke:none"
       d="M 25.1875 1.28125 C 24.867812 1.32308 24.597126 1.551457 24.5 1.875 L 20.34375 15.75 C 20.32419 15.81514 20.3142 15.872686 20.3125 15.9375 C 17.621832 16.36439 15.578082 19.49962 19.21875 27.84375 C 20.555446 25.643422 27.261383 22.175033 25.15625 18.15625 C 24.927007 17.718615 24.574961 17.335183 24.15625 17 C 24.19449 16.93593 24.26318 16.889005 24.28125 16.8125 L 27.625 2.6875 C 27.728535 2.249145 27.448649 1.807714 27 1.6875 L 25.53125 1.28125 C 25.419088 1.2512 25.294063 1.26731 25.1875 1.28125 z M 23.65625 20.625 C 24.024606 20.613261 24.26264 21.094388 24.125 21.40625 C 22.824139 22.948477 20.903271 23.842215 19.65625 25.4375 C 19.022895 23.953178 18.588456 22.382328 18.21875 20.8125 C 18.814173 21.031061 19.433671 21.16092 20.0625 21.25 C 21.296585 21.441339 22.478423 20.859376 23.65625 20.625 z "
       id="rect7046-6-8" />
  </g>
</svg>
