<?xml version="1.0" encoding="UTF-8" standalone="no"?>
<!-- Created with Inkscape (http://www.inkscape.org/) -->

<svg
   xmlns:dc="http://purl.org/dc/elements/1.1/"
   xmlns:cc="http://creativecommons.org/ns#"
   xmlns:rdf="http://www.w3.org/1999/02/22-rdf-syntax-ns#"
   xmlns:svg="http://www.w3.org/2000/svg"
   xmlns="http://www.w3.org/2000/svg"
   xmlns:sodipodi="http://sodipodi.sourceforge.net/DTD/sodipodi-0.dtd"
   xmlns:inkscape="http://www.inkscape.org/namespaces/inkscape"
   width="1000"
   height="1000"
   id="svg4897"
   version="1.1"
   inkscape:version="0.48.5 r10040"
   sodipodi:docname="Nouveau document 43">
  <defs
     id="defs4899" />
  <sodipodi:namedview
     id="base"
     pagecolor="#ffffff"
     bordercolor="#666666"
     borderopacity="1.0"
     inkscape:pageopacity="0.0"
     inkscape:pageshadow="2"
     inkscape:zoom="0.6251321"
     inkscape:cx="375"
     inkscape:cy="520"
     inkscape:document-units="px"
     inkscape:current-layer="layer1"
     showgrid="false"
     inkscape:window-width="1920"
     inkscape:window-height="1018"
     inkscape:window-x="1272"
     inkscape:window-y="-8"
     inkscape:window-maximized="1" />
  <metadata
     id="metadata4902">
    <rdf:RDF>
      <cc:Work
         rdf:about="">
        <dc:format>image/svg+xml</dc:format>
        <dc:type
           rdf:resource="http://purl.org/dc/dcmitype/StillImage" />
        <dc:title></dc:title>
      </cc:Work>
    </rdf:RDF>
  </metadata>
  <g
     inkscape:label="Calque 1"
     inkscape:groupmode="layer"
     id="layer1"
     transform="translate(0,-52.362168)">
    <g
       id="g4121"
       transform="matrix(1.2475616,0,0,1.2454682,-2823.2161,-939.16875)">
      <path
         id="path3000"
         d="m 2575.5404,795.88599 c -172.1959,0 -311.7813,139.58527 -311.7813,311.78121 0,172.196 139.5854,311.7813 311.7813,311.7813 67.6961,0 130.3213,-21.5714 181.4375,-58.2188 l 230.0625,230.0625 c 7.8347,7.8348 20.4465,7.8348 28.2813,0 l 44.125,-44.125 c 7.8347,-7.8347 7.8347,-20.4465 0,-28.2812 l -230.0938,-230.125 c 36.4825,-51.0468 57.9688,-113.5649 57.9688,-181.0938 0,-172.19594 -139.5852,-311.78121 -311.7813,-311.78121 z m 0,98.21875 c 117.9481,0 213.5625,95.61442 213.5625,213.56246 0,117.9481 -95.6144,213.5625 -213.5625,213.5625 -117.9481,0 -213.5625,-95.6144 -213.5625,-213.5625 0,-117.94804 95.6144,-213.56246 213.5625,-213.56246 z"
         style="fill:#000000;fill-opacity:1;fill-rule:nonzero;stroke:none"
         inkscape:connector-curvature="0" />
      <rect
         ry="8.029109"
         rx="8.0156364"
         y="1023.246"
         x="2424.9602"
         height="33.275612"
         width="301.56024"
         id="rect3927"
         style="fill:#000000;fill-opacity:1;fill-rule:nonzero;stroke:none" />
      <rect
         ry="8.029109"
         rx="8.0156364"
         y="1088.6979"
         x="2423.9465"
         height="33.275612"
         width="301.56024"
         id="rect3927-4-5"
         style="fill:#000000;fill-opacity:1;fill-rule:nonzero;stroke:none" />
      <path
         sodipodi:nodetypes="sssssssss"
         inkscape:connector-curvature="0"
         id="rect3927-4-5-1"
         d="m 2431.2183,1154.1497 135.5602,0 c 5.54,0 10,4.46 10,10 l 0,13.2756 c 0,5.54 -4.46,10 -10,10 l -135.5602,0 c -5.54,0 -10,-4.46 -10,-10 l 0,-13.2756 c 0,-5.54 4.46,-10 10,-10 z"
         style="fill:#000000;fill-opacity:1;fill-rule:nonzero;stroke:none" />
    </g>
  </g>
</svg>
