<?xml version="1.0" encoding="UTF-8" standalone="no"?>
<!-- Created with Inkscape (http://www.inkscape.org/) -->

<svg
   xmlns:dc="http://purl.org/dc/elements/1.1/"
   xmlns:cc="http://creativecommons.org/ns#"
   xmlns:rdf="http://www.w3.org/1999/02/22-rdf-syntax-ns#"
   xmlns:svg="http://www.w3.org/2000/svg"
   xmlns="http://www.w3.org/2000/svg"
   xmlns:sodipodi="http://sodipodi.sourceforge.net/DTD/sodipodi-0.dtd"
   xmlns:inkscape="http://www.inkscape.org/namespaces/inkscape"
   width="1000"
   height="1000"
   id="svg3349"
   version="1.1"
   inkscape:version="0.48.5 r10040"
   sodipodi:docname="Nouveau document 13">
  <defs
     id="defs3351" />
  <sodipodi:namedview
     id="base"
     pagecolor="#ffffff"
     bordercolor="#666666"
     borderopacity="1.0"
     inkscape:pageopacity="0.0"
     inkscape:pageshadow="2"
     inkscape:zoom="0.20268555"
     inkscape:cx="-427.71295"
     inkscape:cy="866.14777"
     inkscape:document-units="px"
     inkscape:current-layer="layer1"
     showgrid="false"
     inkscape:window-width="1010"
     inkscape:window-height="760"
     inkscape:window-x="1330"
     inkscape:window-y="50"
     inkscape:window-maximized="0" />
  <metadata
     id="metadata3354">
    <rdf:RDF>
      <cc:Work
         rdf:about="">
        <dc:format>image/svg+xml</dc:format>
        <dc:type
           rdf:resource="http://purl.org/dc/dcmitype/StillImage" />
        <dc:title></dc:title>
      </cc:Work>
    </rdf:RDF>
  </metadata>
  <g
     inkscape:label="Calque 1"
     inkscape:groupmode="layer"
     id="layer1"
     transform="translate(0,-52.362183)">
    <g
       id="g3332"
       transform="matrix(1.2750938,1.2750936,-1.2750938,1.2750936,-4436.7416,-5242.0808)">
      <path
         style="fill:#000000;fill-opacity:1;fill-rule:nonzero;stroke:none"
         d="m 4207.9982,-50.952717 c -111.4726,85.39897 -111.9063,173.468747 -111.9063,173.468747 0,85.82664 0.039,149.27512 0.094,203.25 l -54.9374,34.46875 c -4.6931,2.94413 -10,4.46 -10,10 l 0,176.5 c 0,5.54 5.3069,12.94413 10,10 l 108.6562,-68.15625 c 19.8463,-0.009 58.0938,-0.0312 58.0938,-0.0312 0,0 38.2474,0.0222 58.0937,0.0312 l 108.6563,68.15625 c 4.6929,2.94413 10,-4.46 10,-10 l 0,-176.5 c 0,-5.54 -5.3071,-7.05587 -10,-10 l -54.9376,-34.46875 c 0.055,-53.97488 0.094,-117.42336 0.094,-203.25 0,0 -0.4338,-88.069767 -111.9062,-173.468747 z m 0,97.65625 c 23.761,0 43.0312,19.27016 43.0312,43.03125 0,23.761087 -19.2702,42.999997 -43.0312,42.999997 -23.7611,0 -43,-19.23891 -43,-42.999997 0,-23.76109 19.2389,-43.03125 43,-43.03125 z"
         id="rect3090-9"
         inkscape:connector-curvature="0" />
      <path
         style="fill:#000000;stroke:#000000;stroke-width:0.85685658px;stroke-linecap:butt;stroke-linejoin:miter;stroke-opacity:1"
         d="m 4210.1997,711.03385 c 0,0 125.2961,-180.21477 26.6537,-207.37814 39.3004,27.14651 -27.4992,123.18993 -27.4992,123.18993 0,0 -70.021,-96.04342 -30.5027,-123.18993 -100.0224,27.15775 31.3482,207.37814 31.3482,207.37814 z"
         id="path3303"
         inkscape:connector-curvature="0" />
    </g>
  </g>
</svg>
