<?xml version="1.0" encoding="UTF-8" standalone="no"?>
<!-- Created with Inkscape (http://www.inkscape.org/) -->

<svg
   xmlns:dc="http://purl.org/dc/elements/1.1/"
   xmlns:cc="http://creativecommons.org/ns#"
   xmlns:rdf="http://www.w3.org/1999/02/22-rdf-syntax-ns#"
   xmlns:svg="http://www.w3.org/2000/svg"
   xmlns="http://www.w3.org/2000/svg"
   xmlns:sodipodi="http://sodipodi.sourceforge.net/DTD/sodipodi-0.dtd"
   xmlns:inkscape="http://www.inkscape.org/namespaces/inkscape"
   width="32px"
   height="32px"
   id="svg4414"
   version="1.1"
   inkscape:version="0.48.5 r10040"
   sodipodi:docname="ico-palette-noir.svg">
  <defs
     id="defs4416" />
  <sodipodi:namedview
     id="base"
     pagecolor="#ffffff"
     bordercolor="#666666"
     borderopacity="1.0"
     inkscape:pageopacity="0.0"
     inkscape:pageshadow="2"
     inkscape:zoom="13.165096"
     inkscape:cx="16.002952"
     inkscape:cy="16.002952"
     inkscape:current-layer="layer1"
     showgrid="true"
     inkscape:grid-bbox="true"
     inkscape:document-units="px"
     inkscape:window-width="1920"
     inkscape:window-height="1018"
     inkscape:window-x="1272"
     inkscape:window-y="-8"
     inkscape:window-maximized="1" />
  <metadata
     id="metadata4419">
    <rdf:RDF>
      <cc:Work
         rdf:about="">
        <dc:format>image/svg+xml</dc:format>
        <dc:type
           rdf:resource="http://purl.org/dc/dcmitype/StillImage" />
        <dc:title></dc:title>
      </cc:Work>
    </rdf:RDF>
  </metadata>
  <g
     id="layer1"
     inkscape:label="Layer 1"
     inkscape:groupmode="layer">
    <path
       style="font-size:medium;font-style:normal;font-variant:normal;font-weight:normal;font-stretch:normal;text-indent:0;text-align:start;text-decoration:none;line-height:normal;letter-spacing:normal;word-spacing:normal;text-transform:none;direction:ltr;block-progression:tb;writing-mode:lr-tb;text-anchor:start;baseline-shift:baseline;color:#000000;fill:#000000;fill-opacity:1;fill-rule:nonzero;stroke:none;stroke-width:1.08051944;marker:none;visibility:visible;display:inline;overflow:visible;enable-background:accumulate;font-family:Sans;-inkscape-font-specification:Sans"
       d="M 16.625 5.3125 C 11.233111 5.38864 5.913829 8.022471 2.71875 12.40625 C 2.70861 12.42015 2.69758 12.45482 2.6875 12.46875 C 0.80271206 15.071484 -0.301859 18.323315 0.0625 21.59375 C 0.395584 24.653983 2.008837 27.549742 4.4375 29.4375 C 5.933687 30.622156 7.713242 31.482823 9.59375 31.90625 C 10.707567 32.114372 12.025633 32.014478 12.96875 31.125 C 13.800627 30.353074 14.186774 29.229145 14.25 28.1875 L 14.25 28.09375 L 14.21875 27.96875 C 14.16216 27.766412 14.16667 27.536277 14.21875 27.34375 C 14.27083 27.151222 14.332141 27.048485 14.46875 26.96875 L 14.5 26.96875 L 14.5 26.90625 C 15.116035 26.49494 16.015459 26.454454 16.96875 26.34375 C 16.98045 26.34265 16.9883 26.34485 17 26.34375 C 17.05036 26.3392 17.105752 26.348069 17.15625 26.34375 C 17.066141 26.102729 16.960498 25.867525 16.875 25.625 C 16.167449 23.653313 15.726385 21.574801 15.84375 19.46875 C 15.888926 17.42133 17.169728 15.373722 19.125 14.65625 C 19.781568 12.45769 20.433218 10.259871 21.09375 8.0625 C 21.284038 7.4152645 21.492575 6.7709025 21.6875 6.125 C 20.04483 5.5877966 18.341924 5.2901285 16.625 5.3125 z M 27.34375 9.625 C 26.801255 11.910066 26.25619 14.182664 25.71875 16.46875 C 26.480431 17.344882 26.8773 18.497599 26.875 19.65625 C 26.875793 21.2106 26.038918 22.622728 25.0625 23.78125 C 24.458978 24.563451 23.717521 25.198776 22.96875 25.84375 C 23.753744 25.716953 24.536758 25.537071 25.3125 25.28125 C 26.956657 24.742268 28.544251 23.6699 29.40625 22.03125 L 29.4375 22.03125 C 29.4419 22.02275 29.4331 22.00854 29.4375 22 C 30.35323 20.25913 30.439897 18.280108 30.25 16.46875 C 30.126832 15.342856 29.94447 14.16914 29.59375 13.0625 L 29.53125 13.03125 C 29.011475 11.756033 28.263448 10.62619 27.34375 9.625 z "
       id="path6426-8-9-6-7-0-1" />
    <path
       transform="matrix(0.04259806,0,0,0.04259806,-85.792264,-59.481753)"
       d="m 2201.4705,1922.9504 a 58.823528,58.823528 0 1 1 -117.6471,0 58.823528,58.823528 0 1 1 117.6471,0 z"
       sodipodi:ry="58.823528"
       sodipodi:rx="58.823528"
       sodipodi:cy="1922.9504"
       sodipodi:cx="2142.647"
       id="path6431-9-1-3-3-8-7"
       style="fill:#50bf88;fill-opacity:1;fill-rule:nonzero;stroke:none"
       sodipodi:type="arc" />
    <path
       transform="matrix(0.04259806,0,0,0.04259806,-83.300365,-67.127335)"
       d="m 2201.4705,1922.9504 a 58.823528,58.823528 0 1 1 -117.6471,0 58.823528,58.823528 0 1 1 117.6471,0 z"
       sodipodi:ry="58.823528"
       sodipodi:rx="58.823528"
       sodipodi:cy="1922.9504"
       sodipodi:cx="2142.647"
       id="path6431-2-34-3-6-7-3-4"
       style="fill:#ffd200;fill-opacity:1;fill-rule:nonzero;stroke:none"
       sodipodi:type="arc" />
    <path
       transform="matrix(0.04259806,0,0,0.04259806,-76.586421,-71.63239)"
       d="m 2201.4705,1922.9504 a 58.823528,58.823528 0 1 1 -117.6471,0 58.823528,58.823528 0 1 1 117.6471,0 z"
       sodipodi:ry="58.823528"
       sodipodi:rx="58.823528"
       sodipodi:cy="1922.9504"
       sodipodi:cx="2142.647"
       id="path6431-2-7-4-5-1-2-4-0"
       style="fill:#b4e8f6;fill-opacity:1;fill-rule:nonzero;stroke:none"
       sodipodi:type="arc" />
    <path
       style="fill:#000000;fill-opacity:1;stroke:none"
       d="m 25.177796,1.279375 c -0.319688,0.04183 -0.590374,0.270207 -0.6875,0.59375 l -4.15625,13.875 c -0.01956,0.06514 -0.02955,0.122686 -0.03125,0.1875 -2.690668,0.42689 -4.734418,3.56212 -1.09375,11.90625 1.336696,-2.200328 8.042633,-5.668717 5.9375,-9.6875 -0.229243,-0.437635 -0.581289,-0.821067 -1,-1.15625 0.03824,-0.06407 0.10693,-0.110995 0.125,-0.1875 l 3.34375,-14.125 c 0.103535,-0.438355 -0.176351,-0.879786 -0.625,-1 l -1.46875,-0.40625 c -0.112162,-0.03005 -0.237187,-0.01394 -0.34375,0 z"
       id="rect7046-6-8"
       inkscape:connector-curvature="0" />
    <path
       style="fill:#ffd200;fill-opacity:1;stroke:none"
       d="m 23.648984,20.621225 c -1.177827,0.234376 -2.337506,0.83327 -3.571591,0.641931 -0.628829,-0.08908 -1.252991,-0.231367 -1.848414,-0.449928 0.369706,1.569828 0.784653,3.133686 1.418008,4.618008 1.247021,-1.595285 3.171132,-2.495782 4.471993,-4.038009 0.13764,-0.311862 -0.10164,-0.783741 -0.469996,-0.772002 z"
       id="path6469-3-8-0"
       inkscape:connector-curvature="0" />
  </g>
</svg>
