<?xml version="1.0" encoding="UTF-8" standalone="no"?>
<!-- Created with Inkscape (http://www.inkscape.org/) -->

<svg
   xmlns:dc="http://purl.org/dc/elements/1.1/"
   xmlns:cc="http://creativecommons.org/ns#"
   xmlns:rdf="http://www.w3.org/1999/02/22-rdf-syntax-ns#"
   xmlns:svg="http://www.w3.org/2000/svg"
   xmlns="http://www.w3.org/2000/svg"
   xmlns:sodipodi="http://sodipodi.sourceforge.net/DTD/sodipodi-0.dtd"
   xmlns:inkscape="http://www.inkscape.org/namespaces/inkscape"
   width="1000"
   height="1000"
   id="svg4897"
   version="1.1"
   inkscape:version="0.48.5 r10040"
   sodipodi:docname="ico-ameliorer-lisibilite.svg">
  <defs
     id="defs4899" />
  <sodipodi:namedview
     id="base"
     pagecolor="#ffffff"
     bordercolor="#666666"
     borderopacity="1.0"
     inkscape:pageopacity="0.0"
     inkscape:pageshadow="2"
     inkscape:zoom="0.6251321"
     inkscape:cx="375"
     inkscape:cy="520"
     inkscape:document-units="px"
     inkscape:current-layer="layer1"
     showgrid="false"
     inkscape:window-width="1920"
     inkscape:window-height="1018"
     inkscape:window-x="1272"
     inkscape:window-y="-8"
     inkscape:window-maximized="1" />
  <metadata
     id="metadata4902">
    <rdf:RDF>
      <cc:Work
         rdf:about="">
        <dc:format>image/svg+xml</dc:format>
        <dc:type
           rdf:resource="http://purl.org/dc/dcmitype/StillImage" />
        <dc:title></dc:title>
      </cc:Work>
    </rdf:RDF>
  </metadata>
  <g
     inkscape:label="Calque 1"
     inkscape:groupmode="layer"
     id="layer1"
     transform="translate(0,-52.362168)">
    <g
       id="g4114"
       transform="matrix(1.5917923,0,0,1.5917923,-2395.1713,-1928.7697)">
      <rect
         ry="6.2822266"
         rx="6.2822266"
         y="1244.9548"
         x="1522.2223"
         height="70.370369"
         width="592.59259"
         id="rect4013"
         style="fill:#000000;fill-opacity:1;fill-rule:nonzero;stroke:none" />
      <path
         sodipodi:nodetypes="sssssssss"
         inkscape:connector-curvature="0"
         id="rect4013-2-7"
         d="m 1533.3115,1384.4179 275.6219,0 c 5.54,0 10,4.46 10,10 l 0,50.3704 c 0,5.54 -4.46,10 -10,10 l -275.6219,0 c -5.54,0 -10,-4.46 -10,-10 l 0,-50.3704 c 0,-5.54 4.46,-10 10,-10 z"
         style="fill:#000000;fill-opacity:1;fill-rule:nonzero;stroke:none" />
      <rect
         ry="6.2822266"
         rx="6.2822266"
         y="1523.881"
         x="1523.3115"
         height="70.370369"
         width="592.59259"
         id="rect4013-2-7-1"
         style="fill:#000000;fill-opacity:1;fill-rule:nonzero;stroke:none" />
      <path
         sodipodi:nodetypes="sssssssss"
         inkscape:connector-curvature="0"
         id="rect4013-2-7-2"
         d="m 1533.3115,1663.344 275.6219,0 c 5.54,0 10,4.46 10,10 l 0,50.3704 c 0,5.54 -4.46,10 -10,10 l -275.6219,0 c -5.54,0 -10,-4.46 -10,-10 l 0,-50.3704 c 0,-5.54 4.46,-10 10,-10 z"
         style="fill:#000000;fill-opacity:1;fill-rule:nonzero;stroke:none" />
      <rect
         ry="6.2822266"
         rx="6.2822266"
         y="1802.8071"
         x="1523.3116"
         height="70.370369"
         width="592.59259"
         id="rect4013-2-7-1-3"
         style="fill:#000000;fill-opacity:1;fill-rule:nonzero;stroke:none" />
    </g>
  </g>
</svg>
