<?xml version="1.0" standalone="no"?>
<!DOCTYPE svg PUBLIC "-//W3C//DTD SVG 1.1//EN"
 "http://www.w3.org/Graphics/SVG/1.1/DTD/svg11.dtd">
<!-- Created with svg_stack (http://github.com/astraw/svg_stack) -->
<svg xmlns:sodipodi="http://sodipodi.sourceforge.net/DTD/sodipodi-0.dtd" xmlns="http://www.w3.org/2000/svg" version="1.1" width="1250.0" height="1250.0">
  <defs/>
  <g id="id0:id0" transform="matrix(1.25,0,0,1.25,0.0,0.0)"><g transform="translate(0.000000,1000.000000) scale(0.100000,-0.100000)" fill="#000000" stroke="none">
<path d="M3765 9050 c-161 -34 -368 -111 -580 -215 -343 -169 -459 -313 -416 -515 6 -29 34 -110 63 -179 66 -163 88 -248 89 -341 1 -159 -80 -318 -247 -484 -169 -169 -323 -246 -489 -246 -90 0 -166 19 -290 70 -235 99 -325 111 -429 61 -105 -51 -220 -201 -326 -424 -148 -312 -220 -555 -216 -733 4 -176 69 -251 305 -349 179 -75 233 -107 310 -179 121 -115 171 -268 172 -518 0 -180 -18 -277 -76 -393 -70 -141 -174 -219 -420 -315 -230 -91 -306 -194 -292 -398 21 -292 254 -837 438 -1024 66 -66 135 -101 211 -106 74 -6 121 7 298 78 80 32 159 61 175 64 17 3 41 9 55 12 31 6 146 6 179 -1 129 -25 265 -110 404 -250 158 -160 235 -313 238 -469 1 -106 -20 -184 -112 -401 -38 -91 -42 -108 -43 -190 -1 -76 3 -98 24 -139 64 -130 253 -260 575 -394 456 -190 708 -199 833 -29 42 56 49 71 116 231 97 232 187 329 362 393 174 63 479 60 651 -5 171 -65 256 -164 363 -422 85 -204 136 -265 254 -302 161 -50 449 20 833 202 224 106 373 221 423 325 49 101 39 192 -42 385 -74 177 -83 213 -83 340 1 103 3 122 29 185 94 229 362 476 579 532 130 33 223 18 467 -79 146 -58 160 -62 240 -62 71 -1 93 3 135 24 107 53 215 194 320 414 141 294 215 529 221 698 5 139 -28 225 -110 290 -52 41 -64 48 -246 126 -229 98 -298 162 -391 363 -21 47 -41 195 -41 309 -1 335 99 525 334 638 35 17 108 49 163 72 219 92 280 163 292 334 11 167 -88 493 -239 790 -138 270 -263 394 -410 404 -73 6 -122 -7 -278 -70 -164 -67 -247 -88 -340 -88 -166 0 -318 79 -494 256 -115 115 -186 227 -220 344 -17 58 -23 175 -11 225 16 68 46 155 83 245 59 139 75 203 70 274 -5 78 -36 142 -102 210 -80 82 -148 126 -341 220 -351 172 -645 250 -810 216 -142 -29 -195 -90 -300 -345 -42 -102 -81 -175 -124 -228 -108 -136 -292 -207 -541 -209 -314 -2 -504 84 -619 280 -22 37 -63 123 -91 192 -29 69 -68 149 -87 178 -88 131 -225 169 -448 122z m1600 -2094 c323 -61 626 -200 885 -406 96 -77 263 -245 331 -335 216 -283 353 -612 403 -970 18 -128 14 -446 -7 -566 -78 -441 -269 -811 -574 -1111 -320 -316 -697 -499 -1158 -563 -95 -13 -423 -14 -485 -2 -14 3 -59 11 -100 17 -238 38 -493 135 -720 276 -76 47 -213 146 -246 178 -6 6 -33 32 -60 57 -161 149 -320 362 -418 556 -145 292 -214 578 -214 898 1 451 143 872 417 1230 64 85 232 256 321 328 285 230 639 382 1005 431 172 23 445 15 620 -18z"/>
</g>
</g>
</svg>
