<svg xmlns="http://www.w3.org/2000/svg" viewBox="0 0 1653.9 1650"><path fill="#fff" d="M1594.7 513.8a824 824 0 0 0-31.6-69.2l-.2-.4a838.7 838.7 0 0 0-3.2-6.2l-.4-.7a820.3 820.3 0 0 0-3.1-6l-.5-.8a835.4 835.4 0 0 0-3.2-5.8l-.5-1a824.8 824.8 0 0 0-3.2-5.7l-.3-.7a827 827 0 0 0-14.6-24.8l-.3-.6-2.8-4.5-1.4-2.2a833.7 833.7 0 0 0-2.4-4l-1.8-2.7a851.6 851.6 0 0 0-2.3-3.6 825.9 825.9 0 0 0-2-3 814.1 814.1 0 0 0-2.2-3.5 825.1 825.1 0 0 0-4.2-6.4 791.4 791.4 0 0 0-6.7-9.9 800.7 800.7 0 0 0-2.1-3 909.5 909.5 0 0 0-2.5-3.5l-2-2.9a822.4 822.4 0 0 0-2.7-3.7l-1.9-2.6-3-4.2-1.6-2.1a841.2 841.2 0 0 0-4.6-6.3c-24-31.4-50-61-78-88.5a656 656 0 0 0-62.2-56.2 575 575 0 0 0-41.4-32.6 537 537 0 0 0-83.5-50.9 837.5 837.5 0 0 0-22.4-11.3A838.2 838.2 0 0 0 1015 19a791.5 791.5 0 0 0-25.6-5.2A767.8 767.8 0 0 0 859.8.2a902.6 902.6 0 0 0-20-.2c-57.2 0-113.7 5.7-167.2 17C555 41.7 451.8 92.4 386.4 155.8l.3-.1-.2.2.5-.4.4-.2-.3.2.8-.5c49-29.3 116.4-53 164.6-65.2a680.3 680.3 0 0 1 13.5-3.3l3.2-.7a727 727 0 0 1 19.2-4l2-.4 6.3-1.2c213.7-39 441.6 24.8 600.2 176.6a556.5 556.5 0 0 1 89.5 109.4c101.2 164.1 91.7 370.5 12.8 492.2-58.7 90.4-184.2 175.3-301.3 174.3l7 .4a310.5 310.5 0 0 1-11.5-.5h-.4a380 380 0 0 1-144.8-36.3c-186-90.7-214.7-324.6-82.3-437.1-43.6-9.4-125.4 9-182.4 94-51.1 76.1-48.2 194-16.7 277.5A446.1 446.1 0 0 1 526.2 800c-39.9-268.9 136-499.1 302.5-563.9a307.8 307.8 0 0 1 12-4.4c-35.8-31.2-92.7-49.4-159-52.5-98-4.6-216.4 23.9-317.3 92.1a517 517 0 0 0-16.2 11.4 548.1 548.1 0 0 0-8.2 6.2c-.6.5-1.2 1-1.8 1.3a548.9 548.9 0 0 0-7.9 6.2l-1.3 1.1a546.7 546.7 0 0 0-7.4 6l-.9.8a545 545 0 0 0-9.2 8 547.7 547.7 0 0 0-7.8 6.9l-.3.2a548.2 548.2 0 0 0-7.6 7.1l-1 .9a550.3 550.3 0 0 0-7.5 7.3l-.8.8a549.6 549.6 0 0 0-15.2 15.7l-.5.6a590.5 590.5 0 0 0-131.1 231.9c4-50 18.7-117.6 46.7-191v-.2l3.6-9.1.3-.7a901 901 0 0 1 3.5-8.8l.5-1.1a909 909 0 0 1 12-28.2l.8-1.7a895.7 895.7 0 0 1 3.8-8.2l.8-1.7a900.6 900.6 0 0 1 3.9-8.3l.8-1.6a906.3 906.3 0 0 1 4-8.5l.8-1.4a898.6 898.6 0 0 1 4-8l.5-1c-19.1 10-40 26.9-60.5 48.3A553.8 553.8 0 0 0 59.5 514C19.7 610-.3 720.3 0 830.7c.1 33.2 2 66.5 5.8 99.4l.6 5c1 8.4 1.9 16.8 3 25.1l.2 1.8a828 828 0 1 0 1585-448.2z"/></svg>