<svg xmlns="http://www.w3.org/2000/svg">
	<symbol fill="currentColor" viewBox="0 0 496 512" id="chrome">
		<path d="M131.5 217.5 55.1 100.1a247.8 247.8 0 0 1 414.2 44.1L264 133.4c-58.1-3.4-113.4 29.3-132.5 84.1zm32.9 38.5a83.6 83.6 0 1 0 167.1 0 83.6 83.6 0 0 0-167.1 0zm314.9-89.2L339.6 174c37.9 44.3 38.5 108.2 6.6 157.2L234.1 503.6a247 247 0 0 0 137.8-32.9c107.4-62 150.9-192 107.4-303.9zM133.7 303.6 40.4 120.1A247.8 247.8 0 0 0 0 256c0 124 90.8 226.7 209.5 244.9l63.7-124.8c-57.6 10.8-113.2-20.8-139.5-72.5z"/>
	</symbol>
	<symbol fill="currentColor" viewBox="0 0 1653.9 1650" id="firefox">
		<path d="M1594.7 513.8a824 824 0 0 0-31.6-69.2l-.2-.4a838.7 838.7 0 0 0-3.2-6.2l-.4-.7a820.3 820.3 0 0 0-3.1-6l-.5-.8a835.4 835.4 0 0 0-3.2-5.8l-.5-1a824.8 824.8 0 0 0-3.2-5.7l-.3-.7a827 827 0 0 0-14.6-24.8l-.3-.6-2.8-4.5-1.4-2.2a833.7 833.7 0 0 0-2.4-4l-1.8-2.7a851.6 851.6 0 0 0-2.3-3.6 825.9 825.9 0 0 0-2-3 814.1 814.1 0 0 0-2.2-3.5 825.1 825.1 0 0 0-4.2-6.4 791.4 791.4 0 0 0-6.7-9.9 800.7 800.7 0 0 0-2.1-3 909.5 909.5 0 0 0-2.5-3.5l-2-2.9a822.4 822.4 0 0 0-2.7-3.7l-1.9-2.6-3-4.2-1.6-2.1a841.2 841.2 0 0 0-4.6-6.3c-24-31.4-50-61-78-88.5a656 656 0 0 0-62.2-56.2 575 575 0 0 0-41.4-32.6 537 537 0 0 0-83.5-50.9 837.5 837.5 0 0 0-22.4-11.3A838.2 838.2 0 0 0 1015 19a791.5 791.5 0 0 0-25.6-5.2A767.8 767.8 0 0 0 859.8.2a902.6 902.6 0 0 0-20-.2c-57.2 0-113.7 5.7-167.2 17C555 41.7 451.8 92.4 386.4 155.8l.3-.1-.2.2.5-.4.4-.2-.3.2.8-.5c49-29.3 116.4-53 164.6-65.2a680.3 680.3 0 0 1 13.5-3.3l3.2-.7a727 727 0 0 1 19.2-4l2-.4 6.3-1.2c213.7-39 441.6 24.8 600.2 176.6a556.5 556.5 0 0 1 89.5 109.4c101.2 164.1 91.7 370.5 12.8 492.2-58.7 90.4-184.2 175.3-301.3 174.3l7 .4a310.5 310.5 0 0 1-11.5-.5h-.4a380 380 0 0 1-144.8-36.3c-186-90.7-214.7-324.6-82.3-437.1-43.6-9.4-125.4 9-182.4 94-51.1 76.1-48.2 194-16.7 277.5A446.1 446.1 0 0 1 526.2 800c-39.9-268.9 136-499.1 302.5-563.9a307.8 307.8 0 0 1 12-4.4c-35.8-31.2-92.7-49.4-159-52.5-98-4.6-216.4 23.9-317.3 92.1a517 517 0 0 0-16.2 11.4 548.1 548.1 0 0 0-8.2 6.2c-.6.5-1.2 1-1.8 1.3a548.9 548.9 0 0 0-7.9 6.2l-1.3 1.1a546.7 546.7 0 0 0-7.4 6l-.9.8a545 545 0 0 0-9.2 8 547.7 547.7 0 0 0-7.8 6.9l-.3.2a548.2 548.2 0 0 0-7.6 7.1l-1 .9a550.3 550.3 0 0 0-7.5 7.3l-.8.8a549.6 549.6 0 0 0-15.2 15.7l-.5.6a590.5 590.5 0 0 0-131.1 231.9c4-50 18.7-117.6 46.7-191v-.2l3.6-9.1.3-.7a901 901 0 0 1 3.5-8.8l.5-1.1a909 909 0 0 1 12-28.2l.8-1.7a895.7 895.7 0 0 1 3.8-8.2l.8-1.7a900.6 900.6 0 0 1 3.9-8.3l.8-1.6a906.3 906.3 0 0 1 4-8.5l.8-1.4a898.6 898.6 0 0 1 4-8l.5-1c-19.1 10-40 26.9-60.5 48.3A553.8 553.8 0 0 0 59.5 514C19.7 610-.3 720.3 0 830.7c.1 33.2 2 66.5 5.8 99.4l.6 5c1 8.4 1.9 16.8 3 25.1l.2 1.8a828 828 0 1 0 1585-448.2z"/>
	</symbol>
	<symbol fill="currentColor" viewBox="0 0 512 499.4" id="github">
		<path d="M256 0a256 256 0 0 0-81 498.9c12.9 2.4 17.6-5.6 17.6-12.3l-.4-43.6C121 458.5 106 408.7 106 408.7c-11.6-29.6-28.4-37.5-28.4-37.5-23.3-15.8 1.7-15.5 1.7-15.5 25.7 1.8 39.2 26.4 39.2 26.4 22.9 39 60 27.8 74.5 21.2 2.4-16.5 9-27.8 16.3-34.2-56.9-6.4-116.6-28.4-116.6-126.5A99 99 0 0 1 119 174c-2.6-6.5-11.4-32.5 2.5-67.7 0 0 21.5-6.9 70.4 26.2a242.7 242.7 0 0 1 128.2 0c48.9-33.1 70.3-26.2 70.3-26.2 14 35.2 5.2 61.2 2.6 67.7a98.8 98.8 0 0 1 26.3 68.7c0 98.4-59.9 120-116.9 126.3 9.2 8 17.4 23.6 17.4 47.4 0 34.3-.3 61.9-.3 70.3 0 6.8 4.6 14.8 17.6 12.3A256 256 0 0 0 256 0z"/>
	</symbol>
	<symbol fill="currentColor" viewBox="0 0 392.088 391.916" id="edge">
		<path stroke="#000" stroke-width="16" d="M172.997 153.96s-25 12-25 42a133 112 0 0 0 202 94 6 6 0 0 1 9 7c-103 157-329 97-232-120"/>
		<path stroke="#000" stroke-width="16" d="M239.997 92.96h-206a192 192 0 0 0 220 286 120.3 116 88 0 1-74-228 48 49 0 0 1 64 41"/>
		<path stroke="#000" stroke-width="16" d="M3.997 192.96c4-110 186-138 233-31 26 70-34 65 3 88 71 30 159-7 147-102-47-205-372-192-383 45"/>
	</symbol>
	<symbol fill="currentColor" viewBox="0 0 24 24" id="download">
		<path d="M500,175a323.673,323.673,0,1,1-126.474,25.5A322.87,322.87,0,0,1,500,175m0-100C265.279,75,75,265.279,75,500S265.279,925,500,925,925,734.721,925,500,734.721,75,500,75h0ZM302.3,513.426,400,512V337a36.759,36.759,0,0,1,37-37H563a36.759,36.759,0,0,1,37,37V512H712L533.431,686.431l0,0C524.6,694.838,514.154,700,501,700h-2a47.818,47.818,0,0,1-33.429-13.571l0,0L287,512H400Z" transform="scale(.024)"/>
	</symbol>
	<symbol fill="#000" viewBox="0 0 24 24" id="pastille">
		<path d="M12.74 5.737a1.332 1.332 0 1 1-1.48-2.215 1.332 1.332 0 0 1 1.48 2.215m5.224.28a.628.628 0 0 1-.006 1.162s-4.468 1.5-4.468 1.972c0 .56.022.713.6 4.683.226 1.544.535 3.666.96 6.614a.767.767 0 0 1-1.5.322s-1.288-6.437-1.547-6.437c-.26 0-1.547 6.437-1.547 6.437a.767.767 0 0 1-1.5-.322c-.123.694 2.064-10.793 1.56-11.297-.38-.381-4.47-1.963-4.47-1.963a.639.639 0 0 1 .488-1.181s4.54 1.79 5.472 1.79c.931 0 5.478-1.78 5.478-1.78a.63.63 0 0 1 .48 0"/>
	</symbol>
	<symbol fill="#000" viewBox="0 0 24 24" id="chevrons">
		<path d="m10.848 19.821 6.212-7.885-6.164-7.821a1.296 1.296 0 0 1 .24-1.84 1.353 1.353 0 0 1 1.875.234l6.641 8.428c.464.588.464 1.41 0 1.998l-6.69 8.492a1.353 1.353 0 0 1-1.875.235 1.296 1.296 0 0 1-.24-1.84"/>
		<path d="M4.28 19.885 10.491 12 4.328 4.18a1.296 1.296 0 0 1 .24-1.84 1.353 1.353 0 0 1 1.874.234l6.642 8.428c.464.588.464 1.41 0 1.998l-6.69 8.492a1.353 1.353 0 0 1-1.875.235 1.296 1.296 0 0 1-.24-1.84"/>
	</symbol>
	<symbol fill="currentColor" viewBox="0 0 24 24" id="facilePlus">
		<path fill-rule="evenodd" clip-rule="evenodd" d="M12 20.889A8.889 8.889 0 1 0 12 3.11a8.889 8.889 0 0 0 0 17.778M12 22c5.523 0 10-4.477 10-10S17.523 2 12 2 2 6.477 2 12s4.477 10 10 10m-.649-11.914a.555.555 0 0 1-.767.156h-.002c-.558-.342-1.272-.464-1.915-.464-.644 0-1.357.122-1.916.463h.001a.556.556 0 1 1-.614-.926c.735-.482 1.663-.648 2.529-.648s1.793.166 2.528.648a.56.56 0 0 1 .156.77m-3.403 3.188a.555.555 0 1 0-.784.787c1.243 1.22 3.13 1.828 4.836 1.828 1.694 0 3.608-.605 4.837-1.83a.556.556 0 0 0-.785-.786c-1.046 1.002-2.631 1.505-4.052 1.505-1.423 0-3.004-.504-4.052-1.504m10.07-3.188a.556.556 0 0 1-.768.156c-.558-.354-1.267-.464-1.917-.464-.643 0-1.357.122-1.916.463h.002c-.255.17-.6.1-.77-.155a.565.565 0 0 1 .157-.773c.731-.47 1.673-.646 2.527-.646.874 0 1.79.157 2.53.649.256.17.325.515.155.77"/>
	</symbol>
	<symbol fill="currentColor" viewBox="0 0 24 24" id="lecturePlus">
		<path d="M12 0C5.373 0 0 5.375 0 12s5.373 12 12 12 12-5.375 12-12S18.625 0 12 0m0 1.83c5.61 0 10.172 4.56 10.172 10.17 0 5.608-4.563 10.17-10.172 10.17S1.83 17.61 1.83 12 6.39 1.83 12 1.83"/><path d="M12.12 2.492c-1.738 0-3.141 1.484-3.141 3.301 0 1.29.723 2.385 1.755 2.928a.6.6 0 0 1-.058.103c-.029.042-.06.084-.086.115l-.033.04-.008.01-.004.001a1 1 0 0 1-.09.041l-.01.004q-.254.12-.49.276a3 3 0 0 1-.262.156c-.034.014.004.013-.025.002l-.014-.004a2 2 0 0 0-.38-.07H9.27a.8.8 0 0 1-.253-.057 4 4 0 0 1-.438-.236l-.49-.286a.146.146 0 0 0-.22.123l-.01.387c-.003.099-.008.15-.012.203-.07-.024-.158-.056-.252-.091a7 7 0 0 0-.266-.098l-.08-.03-.01-.001.018.011.021.02.018.023.016.047a.15.15 0 0 0-.073-.101l-.002-.002a.146.146 0 0 0-.217.123l-.01.369a5 5 0 0 1-.007.203l-.03-.006-.335-.07a9 9 0 0 0-.34-.067l-.113-.015q-.022-.004-.043-.004a.2.2 0 0 0-.084.017l-.036.028-.025.033-.01.02-.006.023-.003.023q-.004.022-.006.047l-.006.139a16 16 0 0 0-.004.426v.511l-.346.225c-.92.6-1.387.905-1.658 1.113s-.355.342-.443.518a.3.3 0 0 1-.047.074c-.004.003.005-.006-.035.02a.2.2 0 0 0-.067.072.2.2 0 0 0-.023.086c-.006.051-.003.104.002.195.02.395.117.675.33.955.22.294.502.461 1.088.668l.9.32.299.108v3.67a.15.15 0 0 0 .088.135l.08.033c.12.05.306.086 2.816.62h.002q.91.189 1.817.4c.029.008.04.007.062.01l.098.007q.119.005.308.008c.252.004.587.006.948.004l1.295-.008.03-.004 2.274-.496 2.356-.516h.002l.08-.02a.146.146 0 0 0 .111-.142v-3.701l.24-.08.024-.01c.27-.145.546-.246.773-.322q.172-.056.301-.1c.085-.03.15-.052.213-.095.412-.286.658-.68.703-1.098s-.116-.85-.475-1.201c-.07-.07-.197-.16-.379-.287a22 22 0 0 0-.638-.432l-.764-.492V9.957a.146.146 0 0 0-.18-.14l-.084.02.002-.001q-.305.069-.61.135l-.35.074v-.217c0-.112.003-.193 0-.264a.4.4 0 0 0-.016-.107.2.2 0 0 0-.088-.12.22.22 0 0 0-.14-.024.5.5 0 0 0-.104.025c-.07.024-.152.06-.266.103-.04.016-.054.018-.082.028-.005-.067-.013-.133-.014-.2v-.003l-.01-.323a.146.146 0 0 0-.218-.12l-.508.294-.473.274-.224.002c-.24 0-.205.01-.4-.11-.1-.061-.225-.095-.358-.135a7 7 0 0 1-.287-.09h-.002c-.062-.028-.109-.037-.187-.062a2 2 0 0 1-.243-.092.4.4 0 0 1-.12-.084c.001-.003 0 0 .013-.013l-.018.011-.002-.002.02-.01c1.108-.511 1.88-1.666 1.88-3.013 0-1.796-1.374-3.255-3.083-3.29a.2.2 0 0 0-.057-.01m-1.366 6.246c.023.012.035.041.059.053l-.051-.041c-.01-.013-.006-.004-.008-.012m2.603.078v.004l-.02.014c.009-.004.012-.014.02-.018m-5.068.6.08.047h.002l1.316.756c-.429-.16-.89-.332-1.181-.444l-.207-.08-.008-.222zM16 9.418v.035l-.006.174-.871.326-.236.088c.316-.18.632-.357.87-.49.1-.056.174-.095.243-.133m.674.404v.32l-.33.069c-.237.048-.982.21-1.67.357l.885-.33 1.023-.38zm-9.219.004.16.063c.17.065.863.324 1.531.574l-.818-.174a39 39 0 0 1-.875-.197 2 2 0 0 1-.002-.188zm10.338.627-.008.996-.008 1.08-.797.287c-.5.179-.832.36-.888.39h-.002c-.39.207-.7.686-.785 1.175-.07.4.039.74.271.984s.572.398.963.498c.17.044.31.06.465.037.155-.022.316-.077.558-.164l.223-.08.002.44c.001.373 0 .856-.002 1.29l-.008 1.464-.341.074-1.032.219c-.318.067-1.093.233-1.722.369l-.823.174-.228.046a12 12 0 0 1-.016-.543c-.007-.595-.01-1.68-.01-3.623v-4.214l2.05-.44c.594-.127 1.144-.244 1.55-.332l.49-.105zm-11.246.006c.04.009.08.02.137.031l.55.117 1.418.303 1.393.297a31 31 0 0 1 .654.147l.006.214c.004.208.007.512.01.895.005.765.008 1.847.008 3.117v4.158q-.516-.092-1.028-.209h-.002a411 411 0 0 0-2.906-.625l-.234-.049-.01-1.396v-1.797c.372.141.736.26 1.078.244.345-.016.666-.2.858-.597.12-.25.14-.343.138-.676 0-.435-.097-.729-.342-1.031h-.002c-.115-.143-.205-.262-.367-.373-.162-.112-.382-.21-.771-.346l-.6-.21v-1.15c0-.514 0-.819.006-.992.001-.038.004-.046.006-.072m4.713.941h1.808v4.196a397 397 0 0 1-.01 3.46c-.003.327-.006.548-.011.682l-.004.055q-.879.012-1.758.002l-.006-.135a59 59 0 0 1-.01-.818c-.005-.726-.01-1.812-.01-3.25z"/>
	</symbol>
	<symbol fill="currentColor" viewBox="0 0 24 24" id="lecturePlusPlus">
		<path d="M12.001 0C5.372 0 0 5.372 0 12s5.372 12.001 12.001 12.001 12.002-5.372 12.002-12S18.63 0 12 0m0 1.561c1.411 0 2.776.277 4.065.82a10.48 10.48 0 0 1 5.56 5.555c.543 1.285.82 2.654.82 4.065a10.4 10.4 0 0 1-.345 2.667l-4.014.023v-.503a3 3 0 0 0 .164.089q.332.16.628.168.62 0 1.134-.324.519-.33.824-.936t.305-1.4q0-.762-.222-1.342-.222-.585-.667-.91-.44-.33-1.077-.33-.332-.02-.554.04-.222.056-.45.255-.041.038-.085.084V9.21h-1.38v.128h-.07V14.7l-6.635.037.01-12.985a10.5 10.5 0 0 1 1.99-.19m-3.63.649-.01 12.536-6.424.036a10.4 10.4 0 0 1-.377-2.78c0-1.412.277-2.776.82-4.065a10.466 10.466 0 0 1 5.99-5.727M5.687 5.493v1.293h-.058V9.46q-.21-.108-.536-.181a3 3 0 0 0-.659-.074q-.636 0-1.16.338-.519.338-.815.948-.297.607-.296 1.378 0 1.07.427 1.763.462.646 1.583.732h1.514v.075h1.48V5.493Zm5.316.052V6.96h-.033v7.39h.033v.14h1.427v-.283c.052.033.1.072.154.1q.331.177.68.177.929 0 1.583-.723.658-.732.658-1.954 0-.766-.222-1.351-.222-.59-.667-.919-.445-.333-1.082-.333-.4 0-.802.074a5 5 0 0 0-.302.064V5.545zm-6.43 4.577q.559 0 1.056.225v2.582q-.283.442-1.007.464-.659-.048-.999-.42-.34-.377-.397-1.114 0-.831.34-1.282.345-.455 1.008-.455m8.76.03q.375 0 .619.182.244.178.366.55.122.369.122.945 0 .914-.335 1.369-.336.455-.995.381a1.25 1.25 0 0 1-.68-.309v-3.034c.302-.05.604-.083.903-.083m5.63 0q.566 0 .84.402.275.399.275 1.252 0 .84-.335 1.287-.332.446-1.008.446a1.34 1.34 0 0 1-.648-.189v-2.532c.014-.02.028-.045.042-.064q.223-.304.428-.45.209-.152.405-.152m2.552 6.16a10.4 10.4 0 0 1-2.13 3.072 10.5 10.5 0 0 1-3.318 2.24c-1.285.544-2.654.821-4.065.821a10.5 10.5 0 0 1-2.005-.194L10 16.377l6.637-.037v.965h.069v1.76h1.38v-2.733zm-13.154.073-.005 5.404q-.21-.078-.418-.164a10.4 10.4 0 0 1-3.32-2.241 10.4 10.4 0 0 1-2.076-2.966z"/>
	</symbol>
	<symbol fill="currentColor" viewBox="0 0 24 24" id="moteurPlus">
		<path fill-rule="evenodd" clip-rule="evenodd" d="M20.889 12a8.889 8.889 0 1 1-2.382-6.056c-.43.105-1.103.376-2.231 1.043-.833.493-1.534.978-1.616 1.035l-.007.004a1 1 0 0 0-.089.074 2.7 2.7 0 0 1-.998.618l-2.047.68a1.8 1.8 0 0 0-.559.32l-.42-.15a1.1 1.1 0 0 0-.366-.064v.001a1.1 1.1 0 0 0-.883.475.46.46 0 0 0-.074.208L6.63 9.232l-.007-.003a1.3 1.3 0 0 0-.443-.078c-.207 0-.412.053-.594.153a1.27 1.27 0 0 0-.535 1.741c.15.278.396.49.692.6l5.83 2.143a3.47 3.47 0 0 0 2.241.05 99 99 0 0 0 3.188-.72 40 40 0 0 0 2.379-.646c.911-.287 1.297-.484 1.506-.646zm-.07-1.125a3 3 0 0 1-.295.354c-.644.66-6.885 1.938-6.885 1.938a2.8 2.8 0 0 1-1.827-.03L5.98 10.992a.61.61 0 0 1-.381-.706.58.58 0 0 1 .307-.379.54.54 0 0 1 .274-.074q.11 0 .211.039l4.296 1.591a1.53 1.53 0 0 0 1.604.547l5.806-1.568a.51.51 0 0 0 .36-.613c-.024-.077-.058-.108-.1-.108-.052 0-.115.04-.19.088a1 1 0 0 1-.25.128l-5.997 1.326a.4.4 0 0 1-.085.01c-.269 0-.65-.25-.728-.477-.09-.274.354-.657.628-.747l2.05-.681a3.3 3.3 0 0 0 1.261-.78s2.899-2.022 3.939-2.022l.052.002a8.85 8.85 0 0 1 1.781 4.307M22 12c0 5.523-4.477 10-10 10S2 17.523 2 12 6.477 2 12 2s10 4.477 10 10M9.672 10.235l.755.282a1.2 1.2 0 0 1 .194-.432l-.236-.084a.6.6 0 0 0-.212-.04v.002a.65.65 0 0 0-.5.272M9.1 15.09v1.788q0 .036-.03.063a.1.1 0 0 1-.073.026h-.894a.1.1 0 0 0-.05.012.1.1 0 0 0-.038.032.08.08 0 0 0 0 .09l1.897 2.855a.1.1 0 0 0 .038.033.12.12 0 0 0 .102 0 .1.1 0 0 0 .038-.033l1.897-2.855a.08.08 0 0 0 0-.09.1.1 0 0 0-.037-.032.1.1 0 0 0-.051-.012h-.894a.1.1 0 0 1-.073-.026.08.08 0 0 1-.03-.063V15.09a.1.1 0 0 0-.007-.034.1.1 0 0 0-.023-.029.12.12 0 0 0-.073-.026H9.203a.1.1 0 0 0-.04.007.1.1 0 0 0-.033.019.1.1 0 0 0-.022.029.1.1 0 0 0-.008.034m5 1.788V15.09a.1.1 0 0 1 .008-.034.1.1 0 0 1 .022-.029.1.1 0 0 1 .033-.02.1.1 0 0 1 .04-.006H15.8a.12.12 0 0 1 .072.026q.014.012.023.029a.1.1 0 0 1 .007.034v1.788q0 .036.03.063.031.025.073.026h.893q.028 0 .052.012t.037.032a.08.08 0 0 1 0 .09l-1.897 2.855a.1.1 0 0 1-.038.033.12.12 0 0 1-.102 0 .1.1 0 0 1-.038-.033L13.014 17.1a.08.08 0 0 1 0-.09.1.1 0 0 1 .037-.032.1.1 0 0 1 .051-.012h.894q.043 0 .073-.027.03-.026.03-.062"/>
	</symbol>
	<symbol fill="currentColor" viewBox="0 0 24 24" id="pointagePlus">
		<path fill-rule="evenodd" clip-rule="evenodd" d="M12 20.889A8.889 8.889 0 1 0 4.825 6.752c.817-.595 2.117-.817 3.332-.736.924.06 1.915.41 2.65.937.83.595 1.25 1.342 1.187 2.108-.045.516-.31 1.037-.754 1.5a.5.5 0 0 0-.249-.026c.471-.456.754-.977.796-1.487.057-.705-.337-1.4-1.111-1.956-.703-.508-1.649-.84-2.534-.897-1.805-.116-3.802.445-3.928 1.95-.132 1.571 1.745 3.558 3.46 3.669.111.007.195.02.267.03.098.014.176.026.28.02l-.407-.894q-.178.03-.35.03c-.54 0-1.164-.296-1.667-.793C5.3 9.713 5 9.11 5 8.587 5 7.498 6.277 7 7.464 7c.578 0 1.21.19 1.692.51.545.36.844.84.844 1.352 0 .346-.14.703-.39 1.03a.3.3 0 0 0-.118-.012l.672 1.345a1.2 1.2 0 0 1 .6-.578 1 1 0 0 1 .393-.087c.293 0 .562.147.746.41.074-.179.228-.38.549-.525.131-.06.274-.095.42-.095.543 0 .842.444.97.707q.088.16.193.315a2 2 0 0 1 .022-.16.65.65 0 0 1 .365-.479c.15-.07.318-.107.485-.11.39 0 .725.223.917.612.17.334 1.602 3.162 1.772 3.616.181.49.28 1.378.113 2.092l.227.463c.06.126.135.38-.074.693-.324.49-1.292.987-1.84 1.24-.336.154-1.488.661-2.198.661-.497 0-.695-.25-.766-.396l-.148-.3c-.502-.142-2.5-.748-3.501-1.704a13 13 0 0 1-1.366-1.544c-.264-.336-.491-.625-.747-.853-.274-.247-.362-.552-.247-.862a1.14 1.14 0 0 1 .582-.598.7.7 0 0 1 .252-.063h.047c.382.013 1.043.388 1.465.756L8.302 12.04a1 1 0 0 1-.35-.012c-.076-.012-.165-.028-.294-.036-.865-.055-1.828-.563-2.573-1.358-.739-.787-1.144-1.724-1.078-2.503L4.01 8.1A8.89 8.89 0 0 0 12 20.888M7.369 9.994l.392.86a2 2 0 0 1-.3.022c-1.07 0-2.335-1.24-2.335-2.29 0-1.007 1.21-1.465 2.335-1.465.552 0 1.156.182 1.618.487.51.337.79.781.79 1.254 0 .33-.138.675-.39.991l-.48-.964a.66.66 0 0 0-.205-.412l-.027-.054A.5.5 0 0 0 8.6 8.23 1.07 1.07 0 0 0 7.944 8l.003.003q-.095 0-.187.017A2 2 0 0 0 7.479 8C6.768 8 6 8.248 6 8.793c0 .261.18.563.479.81.268.22.594.362.89.391m.543-.055.031-.009a.3.3 0 0 1-.034-.054l-.022.006-.357-.787c-.009-.11-.009-.45.214-.549a.45.45 0 0 1 .203-.042c.184 0 .316.108.343.13l.002.002.003.002.392.79-.013.013.019-.003 1.704 3.42a.31.31 0 0 0 .406.136.286.286 0 0 0 .156-.354l-.367-1.053a.64.64 0 0 1 .39-.483.4.4 0 0 1 .17-.04c.175 0 .282.137.331.22l.697.993a.31.31 0 0 0 .406.09.28.28 0 0 0 .118-.384l-.351-.677c-.003-.081.022-.273.313-.404a.5.5 0 0 1 .2-.048c.239 0 .4.216.5.42.156.318.72 1.072.784 1.156a.31.31 0 0 0 .387.086.283.283 0 0 0 .145-.354c-.142-.386-.194-.909-.05-.974a.7.7 0 0 1 .264-.063c.228 0 .368.165.447.328 0 0 1.586 3.125 1.75 3.568.166.444.242 1.266.08 1.878a.28.28 0 0 0 .02.194l.258.528c.241.491-2.673 1.88-3.644 1.88-.15 0-.255-.034-.293-.11l-.19-.384a.3.3 0 0 0-.195-.157c-.022-.005-2.337-.62-3.366-1.602-.593-.564-.977-1.055-1.317-1.491-.28-.357-.521-.665-.81-.922-.153-.14-.14-.247-.112-.326.058-.152.217-.27.313-.315a.2.2 0 0 1 .063-.018c.23.008.982.417 1.314.809q.186.22.338.46c.18.27.326.482.573.537a.3.3 0 0 0 .373-.284.3.3 0 0 0-.025-.115zm-.31-1.877-.08.033c-.357.16-.544.535-.514 1.029.003.058.02.115.041.17l.289.633c-.607-.08-1.259-.65-1.259-1.136 0-.503.726-.733 1.4-.733q.06 0 .122.004M12 22c5.523 0 10-4.477 10-10S17.523 2 12 2 2 6.477 2 12s4.477 10 10 10"/>
	</symbol>
	<symbol fill="currentColor" viewBox="0 0 24 24" id="visionPlus">
		<path fill-rule="evenodd" clip-rule="evenodd" d="M20.889 12A8.889 8.889 0 1 1 3.11 12a8.889 8.889 0 0 1 17.778 0M22 12c0 5.523-4.477 10-10 10S2 17.523 2 12 6.477 2 12 2s10 4.477 10 10m-2.222 0c-1.384-2.723-4.791-4.444-7.76-4.444-2.97 0-6.41 1.716-7.796 4.444 1.395 2.746 4.782 4.41 7.76 4.444 2.979-.033 6.399-1.694 7.796-4.444M8.865 12c0-1.767 1.393-3.2 3.112-3.2 1.226 0 2.286.73 2.793 1.79l-3.667 4.482C9.81 14.684 8.865 13.456 8.865 12M5.44 12c.683-.979 1.912-1.984 3.264-2.622a4.35 4.35 0 0 0-.876 2.633 4.35 4.35 0 0 0 .89 2.628c-1.278-.598-2.446-1.485-3.278-2.638m7.672 0a1.111 1.111 0 1 1-2.222 0 1.111 1.111 0 0 1 2.222 0"/>
	</symbol>
	<symbol fill="currentColor" viewBox="0 0 24 24" id="visionPlusPlus">
		<path fill-rule="evenodd" clip-rule="evenodd" d="M12 20.889A8.889 8.889 0 1 0 12 3.11a8.889 8.889 0 0 0 0 17.778M12 22c5.523 0 10-4.477 10-10S17.523 2 12 2 2 6.477 2 12s4.477 10 10 10m8-10c-1.424-2.723-4.928-4.444-7.982-4.444S5.426 9.272 4 12c1.435 2.746 4.918 4.41 7.982 4.444C15.045 16.411 18.563 14.75 20 12M8.776 12a3.2 3.2 0 0 1 6.073-1.41l-.366.435a2.668 2.668 0 1 0-3.02 3.588l-.386.46A3.2 3.2 0 0 1 8.776 12m-3.524 0c.702-.979 1.966-1.984 3.357-2.622a4.27 4.27 0 0 0-.902 2.633c.003.952.325 1.876.916 2.628-1.314-.598-2.516-1.485-3.371-2.638"/>
	</symbol>
	<symbol fill="currentColor" viewBox="0 0 20 20" id="firefoxAddOn">
		<path fill-rule="evenodd" clip-rule="evenodd" d="M10.5 1.75C9.53325 1.75 8.75 2.53325 8.75 3.5V5.875C8.75 6.35825 8.35825 6.75 7.875 6.75H4.5C4.08625 6.75 3.75 7.08625 3.75 7.5V9H5.25C7.18325 9 8.75 10.5668 8.75 12.5C8.75 14.4332 7.18325 16 5.25 16H3.75V17.5C3.75 17.9138 4.08625 18.25 4.5 18.25H16.5C16.9138 18.25 17.25 17.9138 17.25 17.5V7.5C17.25 7.08625 16.9138 6.75 16.5 6.75H13.125C12.6418 6.75 12.25 6.35825 12.25 5.875V3.5C12.25 2.53325 11.4668 1.75 10.5 1.75ZM7 3.5C7 1.56675 8.56675 0 10.5 0C12.4332 0 14 1.56675 14 3.5V5H16.5C17.8802 5 19 6.11975 19 7.5V17.5C19 18.8802 17.8802 20 16.5 20H4.5C3.11975 20 2 18.8802 2 17.5V15.125C2 14.6418 2.39175 14.25 2.875 14.25H5.25C6.21675 14.25 7 13.4668 7 12.5C7 11.5332 6.21675 10.75 5.25 10.75H2.875C2.39175 10.75 2 10.3582 2 9.875V7.5C2 6.11975 3.11975 5 4.5 5H7V3.5Z"/>
	</symbol>
	<symbol fill="currentColor" viewBox="0 0 20 20" id="firefoxSetting">
		<path fill-rule="evenodd" clip-rule="evenodd" d="M9.21701 20H10.791C11.2219 19.9982 11.6409 19.8579 11.986 19.5999C12.3312 19.3419 12.5843 18.9798 12.708 18.567L13.243 16.762C13.5942 16.5907 13.9315 16.3925 14.252 16.169L16.053 16.617C16.4742 16.7211 16.9178 16.6857 17.3172 16.5162C17.7166 16.3467 18.0502 16.0522 18.268 15.677L19.055 14.314C19.2689 13.9401 19.3571 13.5074 19.3065 13.0796C19.2559 12.6519 19.0693 12.2517 18.774 11.938L17.475 10.568C17.5085 10.1793 17.5075 9.78848 17.472 9.4L18.758 8.066C19.374 7.427 19.495 6.445 19.051 5.677L18.264 4.314C18.046 3.94269 17.7151 3.65074 17.3195 3.48074C16.924 3.31075 16.4844 3.27159 16.065 3.369L14.225 3.811C13.907 3.591 13.578 3.399 13.244 3.237L12.709 1.432C12.459 0.589 11.67 0 10.791 0H9.21701C8.78304 0.0017003 8.36127 0.143736 8.01468 0.404895C7.66809 0.666053 7.41528 1.03232 7.29401 1.449L6.78401 3.226C6.43801 3.392 6.10001 3.587 5.77401 3.812L3.93401 3.37C3.51459 3.27081 3.07439 3.30912 2.67842 3.47929C2.28245 3.64945 1.9517 3.94245 1.73501 4.315L0.948009 5.678C0.73218 6.05441 0.64408 6.4906 0.696899 6.92127C0.749719 7.35193 0.940616 7.75391 1.24101 8.067L2.52801 9.4C2.49276 9.78849 2.49176 10.1793 2.52501 10.568L1.22601 11.938C0.930815 12.2519 0.744189 12.6523 0.693603 13.0802C0.643017 13.5081 0.731143 13.9409 0.945009 14.315L1.73201 15.679C1.9504 16.0537 2.28411 16.3476 2.68331 16.5171C3.08252 16.6865 3.52581 16.7222 3.94701 16.619L5.74801 16.171C6.07731 16.3992 6.42404 16.6012 6.78501 16.775L7.29501 18.552C7.41613 18.9685 7.66879 19.3346 8.01522 19.5956C8.36166 19.8566 8.78326 19.9985 9.21701 20ZM6.36201 14.762L5.72501 14.63L3.58501 15.163C3.47967 15.1888 3.36882 15.1798 3.26899 15.1375C3.16915 15.0951 3.08568 15.0217 3.03101 14.928L2.24401 13.565C2.19057 13.4715 2.16853 13.3634 2.18113 13.2565C2.19373 13.1495 2.24031 13.0495 2.31401 12.971L3.85101 11.35L4.05101 10.742C4.02101 10.499 4.00001 10.252 4.00001 10C4.00209 9.7421 4.02046 9.48458 4.05501 9.229L3.85101 8.612L2.32001 7.025C2.24515 6.94663 2.19761 6.84619 2.18445 6.73861C2.1713 6.63104 2.19324 6.52209 2.24701 6.428L3.03401 5.065C3.08844 4.97206 3.17121 4.89899 3.27019 4.85652C3.36917 4.81405 3.47915 4.80441 3.58401 4.829L5.75901 5.351L6.38701 5.218C6.78971 4.91045 7.22991 4.6554 7.69701 4.459L8.13001 3.974L8.73601 1.862C8.76642 1.75786 8.82969 1.66634 8.91638 1.6011C9.00306 1.53586 9.10852 1.5004 9.21701 1.5H10.791C10.8989 1.50042 11.0039 1.53555 11.0903 1.60019C11.1768 1.66484 11.2401 1.75558 11.271 1.859L11.903 3.992L12.33 4.47C12.7869 4.66625 13.2178 4.91816 13.613 5.22L14.24 5.351L16.415 4.829C16.5199 4.80424 16.6299 4.81381 16.7289 4.8563C16.8279 4.89879 16.9107 4.97194 16.965 5.065L17.752 6.429C17.806 6.52285 17.8281 6.6317 17.8149 6.73918C17.8018 6.84666 17.7541 6.94696 17.679 7.025L16.148 8.612L15.944 9.229C15.9794 9.48451 15.9981 9.74206 16 10C16 10.252 15.979 10.499 15.948 10.74L16.149 11.348L17.686 12.969C17.7597 13.0475 17.8063 13.1475 17.8189 13.2545C17.8315 13.3614 17.8094 13.4695 17.756 13.563L16.969 14.926C16.9144 15.0197 16.8309 15.0933 16.7311 15.1358C16.6313 15.1784 16.5205 15.1875 16.415 15.162L14.274 14.629L13.637 14.761C13.22 15.081 12.78 15.339 12.33 15.529L11.902 16.007L11.27 18.141C11.208 18.352 11.011 18.499 10.791 18.499H9.21701C9.10852 18.4986 9.00306 18.4631 8.91638 18.3979C8.82969 18.3327 8.76642 18.2411 8.73601 18.137L8.13001 16.025L7.69801 15.54C7.23401 15.347 6.78501 15.085 6.36201 14.762ZM6.5 10C6.5 11.93 8.07 13.5 10 13.5C11.93 13.5 13.5 11.93 13.5 10C13.5 8.07 11.93 6.5 10 6.5C8.07 6.5 6.5 8.07 6.5 10ZM8 10C8 8.897 8.897 8 10 8C11.103 8 12 8.897 12 10C12 11.103 11.103 12 10 12C8.897 12 8 11.103 8 10Z"/>
	</symbol>
	<symbol fill="currentColor" viewBox="0 0 20 20" id="edgeAddOn">
		<path d="M11 3c-.69 0-1.25.56-1.25 1.25V5H6.5a.5.5 0 0 0-.5.5v3.25h-.75a1.25 1.25 0 1 0 0 2.5H6v3.25c0 .28.22.5.5.5h3.25v.75a1.25 1.25 0 1 0 2.5 0V15h3.25a.5.5 0 0 0 .5-.5v-2.25h-.75a2.25 2.25 0 0 1 0-4.5H16V5.5a.5.5 0 0 0-.5-.5h-3.25v-.75C12.25 3.56 11.69 3 11 3ZM8.76 4a2.25 2.25 0 0 1 4.48 0h2.26c.83 0 1.5.67 1.5 1.5v3.25h-1.75a1.25 1.25 0 1 0 0 2.5H17v3.25c0 .83-.67 1.5-1.5 1.5h-2.26a2.25 2.25 0 0 1-4.48 0H6.5A1.5 1.5 0 0 1 5 14.5v-2.26a2.25 2.25 0 0 1 0-4.48V5.5C5 4.67 5.67 4 6.5 4h2.26Z"/>
	</symbol>
	<symbol fill="currentColor" viewBox="0 0 24 24" id="chromeAddOn">
		<path d="M20.5 11H19V7c0-1.1-.9-2-2-2h-4V3.5C13 2.12 11.88 1 10.5 1S8 2.12 8 3.5V5H4c-1.1 0-1.99.9-1.99 2v3.8H3.5c1.49 0 2.7 1.21 2.7 2.7s-1.21 2.7-2.7 2.7H2V20c0 1.1.9 2 2 2h3.8v-1.5c0-1.49 1.21-2.7 2.7-2.7 1.49 0 2.7 1.21 2.7 2.7V22H17c1.1 0 2-.9 2-2v-4h1.5c1.38 0 2.5-1.12 2.5-2.5S21.88 11 20.5 11z"/>
	</symbol>
	<symbol fill="currentColor" viewBox="0 0 24 24" id="pause">
		<path fill-rule="evenodd" clip-rule="evenodd" d="M10.2 21H3V3h7.2zM21 21h-7.2V3H21z"/>
	</symbol>
</svg>
