<svg xmlns="http://www.w3.org/2000/svg" viewBox="0 0 512 499.4"><path fill="#fff" d="M256 0a256 256 0 0 0-81 498.9c12.9 2.4 17.6-5.6 17.6-12.3l-.4-43.6C121 458.5 106 408.7 106 408.7c-11.6-29.6-28.4-37.5-28.4-37.5-23.3-15.8 1.7-15.5 1.7-15.5 25.7 1.8 39.2 26.4 39.2 26.4 22.9 39 60 27.8 74.5 21.2 2.4-16.5 9-27.8 16.3-34.2-56.9-6.4-116.6-28.4-116.6-126.5A99 99 0 0 1 119 174c-2.6-6.5-11.4-32.5 2.5-67.7 0 0 21.5-6.9 70.4 26.2a242.7 242.7 0 0 1 128.2 0c48.9-33.1 70.3-26.2 70.3-26.2 14 35.2 5.2 61.2 2.6 67.7a98.8 98.8 0 0 1 26.3 68.7c0 98.4-59.9 120-116.9 126.3 9.2 8 17.4 23.6 17.4 47.4 0 34.3-.3 61.9-.3 70.3 0 6.8 4.6 14.8 17.6 12.3A256 256 0 0 0 256 0z"/></svg>